<?xml version="1.0" encoding="utf-8"?>
<!-- Generator: Adobe Illustrator 22.0.1, SVG Export Plug-In . SVG Version: 6.00 Build 0)  -->
<svg version="1.1" id="Layer_1" xmlns="http://www.w3.org/2000/svg" xmlns:xlink="http://www.w3.org/1999/xlink" x="0px" y="0px"
	 viewBox="0 0 1879.4 2020.8" style="enable-background:new 0 0 1879.4 2020.8;" xml:space="preserve">
<style type="text/css">
	.st0{fill:#1A191A;}
	.st1{fill:#1A1A1A;}
	.st2{fill:#121112;}
	.st3{fill:#121212;}
	.st4{fill:#FF2E30;}
	.st5{fill:#EFE9EF;}
	.st6{fill:#F8E021;}
	.st7{fill:#A24E1D;}
</style>
<title>avatarShyGal</title>
<path d="M1876.9,917.2c-2.9-38.3-7.8-76.3-15.8-113.7c-26.5-123.9-77.7-236.4-157.5-335.3c-7.8-9.6-7.7-9.4,4.8-12.9
	c20.6-5.7,40.9-12.2,57.9-26.1c6.6-5.4,11.7-11.7,14.7-19.8c6.4-17.2-1.2-30.6-12.2-42.6c-18.2-19.9-40.8-34.3-63.8-47.8
	c-59.5-35-122.4-62-188-83.1c-60.4-19.4-122.2-31-185.3-33.8c-48.9-2.2-98-2.1-146.6,5c-10.1,1.5-16.9-0.2-22.4-9.6
	c-10.1-16.9-22.6-32.3-37.1-45.6c-39.7-37-86.8-60.2-139-73.6c-33.7-8.6-67.9-12.9-102.6-15.1c-47.6-3.1-95.1-2.4-142.5,3.8
	c-40.7,5.3-80.7,14.4-120.7,23.1c-32.5,7.1-65.5,10.9-98.3,6.8c-52.3-6.6-99.3-27.4-139.7-61.9c-9.2-7.9-17-16.9-24.6-26.2
	c-4.9-6.1-10.5-10.4-18.9-8.3s-11.3,8.6-13,16.1c-0.6,2.6-0.9,5.3-1.4,7.9c-2.8,14.6-2,29.3-2,43.9c0,35.3,9.5,67.7,29.4,97
	c5.9,8.8,12.6,17.2,20,24.9c1.5,1.6,3.8,3.4,2.2,6c-1.2,1.9-3.5,1.5-5.5,1.4c-7.1-0.2-13.9,0.9-20.9,1.7
	C252.4,210,172.2,250.8,108.7,323C60.5,377.8,29,441.9,10.2,512c-13.1,48.6-11.9,98.3-5.5,147.9C17.5,759.8,55,849.3,117.1,928.6
	c29.8,38.1,62.9,73.3,94.1,110.2c36.3,42.8,66.3,89.1,83.3,143.3c6.7,21.6,8.3,42.8,2.2,64.8c-9.9,35.2-29.8,64.5-53.9,91.2
	c-10.2,11.4-21.9,21.4-32.2,32.8c-4.8,5.3-7,11.4-4,18.5s9.1,9.2,16.2,9.6c9.1,0.6,18-0.7,26.9-2c75.8-10.8,139.1-44.1,187.6-104
	c24-29.7,42.7-62,48.3-100.6c4.7-32.9,2.9-65.8-0.5-98.6c-5-48-12.5-95.8-11-144.3c1.2-39.1,7.9-77,24.3-112.6
	c10.6-22.9,6.2-18.5,28.1-12.5c9,2.4,11.3,7.1,10.3,15.8c-2.6,22.5-4.5,45-4.1,67.7c0.4,19,0.1,37.9,1.7,56.9
	c2.5,28.3,6.8,56.2,14.1,83.6c15.6,58.3,39.2,114.3,70.2,166.1c5.3,8.9,5,9.5-5.4,12.7c-14.7,4.5-29,9.8-42.3,17.7
	c-29.1,17.4-38.2,48.4-22.9,78.5c10.7,20.9,28.1,35.1,47.5,47.4c18,11.4,18.2,11.6,1.1,24.1c-51.3,37.8-100.9,77.7-147.4,121.2
	c-33.8,31.7-65.8,65.2-94.4,101.8c-18.9,24.3-37.4,48.8-50.2,76.8c-23.2,50.8-39.2,104.1-50.4,158.8c-9.6,47.1-15.5,94.6-19.1,142.5
	c-0.6,8.1-2.6,16.7,2.3,24.4h26c2-2.1,2.5-4.7,2.6-7.4c0.8-15.6,2.6-31.1,3.9-46.7c4.7-55.1,14.5-109.7,29.3-163
	c10.2-36.6,22.1-72.8,40.3-106.3c21.6-39.8,49.9-74.7,81.4-107.1c32.9-33.9,66.6-67.1,103.2-97.2c37.3-30.8,74.9-61,114.6-88.7
	c6.1-4.2,11.6-5.3,18.5-2.1c9,4.4,18.5,7.6,28.3,9.8c9.6,2,17.2-1.5,19.7-9c2.8-8.4-0.8-16.4-9.8-20.4c-6.7-3-13.7-5.3-20.5-7.9
	c-26.9-10.3-52.9-22.1-75.7-40.1c-10.3-8.1-19.5-17.2-24.6-29.7c-3.8-9.4-2.5-17.5,4.5-24.9s15.5-12.3,25.1-15.8
	c36.1-13.3,74-17.2,111.9-18.5c74.3-2.5,148.4,1.3,222.3,9.6c61.6,7,122.7,16.7,183.3,29.8c5.6,1.1,11.1,2.5,16.7,3.2
	c7.5,0.9,11.1,4.9,11.9,12.3c2.2,21,7.3,41.3,12.8,61.6c2,7,0.3,10.2-7.2,9.8c-13-0.6-25.9,0.5-38.8,2.1
	c-26.1,3.3-51.9,8.6-77.5,14.5c-4.9,1.1-9.6,2.7-13.7,5.8c-5.2,4-7.8,9-5.8,15.7s6.5,10.7,13.7,11.2c5.4,0.4,10.6-0.9,15.8-2.1
	c37.8-8.4,75.8-14.8,114.6-15.7c7.8-0.1,12.4,2.6,14.7,10.3c11.8,38.8,20.5,78,18.1,118.9c-1.7,29-9.9,55.6-28.8,78.3
	c-19.5,23.4-43,41.6-69.9,55.6c-6.5,3.4-13.3,6.1-19.4,10.2c-5.5,3.7-8,9-7,15.5c1.1,6.9,5.1,11.5,12,13.2c4.8,1.3,9.8,2,14.8,2.2
	c35.3,0.5,70.6-1.7,105.5-6.6c16.8-3.4,34.1-4.1,51.8-9.8c-4,4.8-5.4,10-12.1,9.2c-18.7-2.2-25.4,5.3-20.4,23.3
	c1.6,5.7,0.8,10.1-2.7,14.8c-16.5,22.1-32.8,44.4-46.8,68.2c-3.3,5.7-6.2,5.8-10.6,1.2c-8.5-8.9-17.4-17.4-26-26.2
	c-18.1-17.2-36.6-33.9-54.8-51c-40.3-37.8-82.5-73.5-125.2-108.5c-6-4.9-8.5-9.4-5.5-16.9c4.5-11.3,0.8-20.3-7.6-28.8
	c-19.3-19.8-40.2-38-62.5-54.3c-23.2-16.7-47.6-31.8-72.8-45.4c-11.8-6.4-21-5.5-28.5,1.9c-9.9,9.9-10,9.9-22.1,2.1
	c-29-18.9-59-36.2-88.6-54.2c-12.1-7.4-21.6-4.8-32,2.5c-18.9,13.4-30.6,32.1-40.4,52.4c-4.7,9.9-3.6,16.1,4.8,23.1
	c5.6,4.7,4.9,7-0.4,11.1c-17.5,13.4-33.2,28.8-47,46c-34.1,42.2-61.6,87.7-72.4,141.7c-0.8,4-2.7,7.5-4.6,11
	c-11.7,21.4-20.4,44.2-25.8,68c-0.1,3-0.7,6-1.6,8.8c-0.3,1-0.5,2.1-0.6,3.1c-1.6,15.5-1.6,31.1,0.2,46.6
	c6.8,58.5,23,114.7,41.1,170.5c1.1,3.5,2.3,7,5.1,9.6h54.1c3.7-3.1,5.5-7.4,7.4-11.7c14.8-32.9,26.9-66.8,36.3-101.6
	c2.6-9.6,5.1-19.3,7.9-28.9c1.6-5.5,4.8-7.5,10.4-6.2c4.5,1,9.1,2.3,13.8,2.3c9.2,0.1,17.1-6.3,18-14.2s-5.3-15.6-14.5-17.6
	c-2-0.4-4-0.4-6-0.7c-16.9-2-33.5-6.6-49-13.6c-15.2-6.9-29.3-15.8-40.2-28.9c-25.5-30.7-26.1-66-17.8-102.3
	c8.7-38.5,29.1-71.4,52.5-102.5c17.3-23,36.7-43.9,60.7-60.3c7.2-4.9,12.6-4.7,19.8-0.3c23.9,14.6,46.6,31,70.3,45.9
	c7.2,4.5,9.5,9.6,6.4,17.4c-4.7,12-1.7,23,4.5,33.4c5.8,9.7,12.5,18.9,20.1,27.3c31.2,34.8,71.4,55,114.5,70.5
	c13.4,4.8,18.7,3.1,27.7-8.3c4-5.1,6.8-4.7,11.3-0.9c28.5,24,55.8,49.4,82.8,75.2c29.1,27.9,57.5,56.5,83.5,87.4
	c11.8,13.2,23.1,26.8,34.6,40.1c5,5.8,6.1,11.4,3.2,18.3c-5.8,14.2-10.6,28.7-14.4,43.6c-3.1,12-9.3,23.5-8,36.6h28
	c2.6-2.2,3.9-5.2,4.8-8.5c3.2-11.9,6.9-23.6,10.5-35.4c5.2-17.2,9.6-34.9,27.5-44.3c0.6-0.4,1.1-0.9,1.5-1.4
	c22.4-20.4,30.4-47,32.3-76.1c0.4-6-0.6-12.2,2.3-17.7c11.8-21.8,25.6-42.4,41.1-61.6c1,10.3,3.3,20.3,3.5,30.5
	c0.4,25.1-3.5,49.8-5.8,74.6c-3.6,37.8-14,73-38,103.4c-7,8.9-13.4,18.2-20.7,26.9c-2.2,2.6-5.6,5.2-2.9,9.5h34
	c18.9-22.2,37.6-44.4,45.2-74.2c5.9-21.1,9.4-42.7,13.9-64.1c0.3-1,0.5-2.1,0.6-3.1c0.4-4.8,0.1-9.6,1.7-14.2
	c2.5-17.5,4.4-35.2,4-52.7c-0.5-23.2-2.4-46.5-7.2-69.4c-1.4-5.5-0.1-11.4,3.5-15.9c12.3-16.2,23.8-33,35.1-49.9
	c4-6.2,9.8-11,16.7-13.7c15.4-6.1,31.5-10.6,46.2-18.7c4.6-2.6,8-0.4,9.2,4.1c2.8,10.7,8.1,20.4,10.3,31.3
	c10.3,51.6,22.7,102.7,26.3,155.5c2.2,32.9,4.9,65.9,2.4,98.7c-1.9,24.7-1.3,50-8.8,74.2c-1.1,3.7-2.4,7.8,0.3,11.6h28
	c2.9-3,3.5-7,4.5-10.9c11.9-47.4,19.3-95.4,13.8-144.3c-2.8-25.5-2.4-51.2-6.7-76.6c-8.7-50.9-20-101.3-34-151
	c-2.6-9.3-2-15.7,6.1-22.7c24.8-21.4,45.5-47.1,61-76c22.9-42.8,27.7-88.8,21.8-136.4c5.9,10.7,12.2,21.3,17.8,32.2
	c19.9,38.6,36.4,78.7,53.6,118.4c8.8,20.1,16.8,40.6,29,59.1c8.9,13.6,22,16.8,36.5,9.5c3.8-2,7.5-4.4,10.9-7
	c17-12.6,30.8-28.4,44-44.8c37.4-46.5,67.6-97.4,92.9-151.3c21.5-45.8,39.6-93.2,54.1-141.8c18.1-60.5,29.7-122.3,37-185
	c3.8-34.7,5.6-69.7,5.4-104.6C1879.3,963.9,1878.7,940.5,1876.9,917.2z M550,769.7c-1.5,10.4-2.7,11-13.8,6.6
	c1.8-4.1,5.1-6.7,8.3-9.5c0.6-0.7,1.2-1.4,1.9-1.9l0.1-0.1c0.5-0.7,1.2-1.3,2-1.8l0.1-0.1c0.4-0.7,0.9-0.7,1.4,0
	C551.1,765.2,550.4,767.4,550,769.7z M565,1856.8c10.3,4.4,10.4,4.4,7.6,15.6c-10.8,43-24,85.1-42.8,125.4
	c-1.8,3.9-3.1,8.1-6.6,11.9c-2.1-2.4-2.5-5.2-3.3-7.8c-16.7-49.9-30.9-100.4-38.8-152.6c-3.7-24.6-4.4-49,2.9-73.2
	c0.4-1,0.3-2.4,2.8-3.9c3.4,8.5,6,16.7,10,24.3C512.1,1825,535.7,1844.1,565,1856.8z"/>
<path class="st0" d="M1118.3,1376.7c-26.3,3.2-52.1,9-78,14.4c-5.1,1.1-10.2,2.7-14.3,6.7c-3.8,3.8-4.7,7.9-2.7,12.7
	c1.9,4.5,4.5,8.3,10.2,8.1c3-0.1,6.2,0.4,8.9-0.5c10.8-3.3,22-5.2,33-7.2c20.5-3.8,40.9-7.5,61.9-8.7c10.9-0.6,21.8-1.3,32.8-1.7
	c5.4-0.2,8.6,1.4,10.3,6.9c7.8,25.7,14.6,51.5,18.3,78.3c2.3,16.7,2.3,33.3,1.4,49.8c-1.8,31.7-12.9,59.8-34.8,83.6
	c-21,22.8-45.5,40.4-73.3,53.8c-3.6,1.7-7.2,3.4-10.7,5.4c-4.9,2.5-7.6,7.8-6.8,13.3c0.9,6.1,4.6,10.1,10.9,11.1
	c19.7,3,39.8,3.1,59.5,0.3c2.3-0.2,4.7-0.3,7-0.3c15.2-0.1,30.4-1.4,45.5-3.8c2.9-0.4,6-0.2,9-0.3c2.8-1.6,5.5-1.1,8.3,0.1
	c-0.9,4.8-4.5,7-7.5,9.4c-23.7,19-42.4,42.5-60.8,66.4c-2.6,3.4-4,8.8-10,8.2c-9.2-7.1-17.4-15.4-25.8-23.4
	c-13.7-13.1-27.6-26.1-41.7-38.7c-23.5-21-46.7-42.3-71.3-62.1c-16-12.9-31.2-26.7-47.5-39.3c-2.6-2-3.8-4.2-2.3-7.7
	c1.5-3.7,1.8-7.8,3.2-11.5c2.7-7.2,0.3-13.1-4.6-18.1c-19.2-20.3-40.1-38.8-62.5-55.5c-23-17-47.5-31.7-72.3-45.9
	c-5.1-2.9-10.2-6.2-16.7-5.9c-5.8,0.3-10.3,2.3-13.7,6.9c-1.4,1.9-2.7,3.8-4.1,5.6c-3,3.6-5.8,4.3-10.3,1.4
	c-15.6-10.2-31.4-19.9-47.3-29.6c-18.2-11-36.7-21.6-54.7-32.7c-9.8-6-17.3-0.7-24.6,4.2c-19,13-30.7,31.9-40.5,52.1
	c-4.8,9.9-2.9,15.3,6.4,22.1c6.8,5,6.8,6.1-0.2,11.3c-20.9,15.6-38.7,34.2-54.8,54.7c-18.4,23.4-34.3,48.2-46.9,75
	c-8,17.2-14.6,34.9-17.8,53.7c-1.1,6.2-3.6,11.9-6.8,17.4c-11.5,20.7-19.5,42.9-25.1,66c-0.8,2.7-1.2,3.7-2,8l0,0
	c-2.9,14.6-4.5,29.4-5,44.3c-1.3,58,3.4,115.7,8.8,173.3c0.4,4.3,1.5,8.6-1.8,12.4H264.3c-0.2-17.3,2.5-34.4,3.5-51.5
	c1-15.2,3.6-30.2,4.8-45.4c1-13.5,4.2-26.8,6.4-40.2c3.5-21.6,8.6-42.9,13.8-64c5.7-22.9,12.7-45.4,21-67.5
	c6.3-16.8,12.5-33.7,20.8-49.6c12.5-24.3,28.3-46.4,45-68c28.4-36.7,62.1-68.5,95.3-100.6c13.3-12.9,27.5-24.9,41.7-36.9
	c19.8-16.7,39.8-33,60.1-49.1c22-17.6,44.8-34.2,67.9-50.3c4-2.8,7-0.7,10.2,0.6c10.8,4.4,21.4,9,32.9,11.4
	c7.7,1.7,14.7-1.1,16.5-6.9c2.5-7.7-0.8-14.9-8.7-17.7c-17.6-6.2-35-12.8-51.8-20.7c-22.9-10.9-45-23.4-61.7-43.1
	c-7.3-8.6-13.5-18.4-11.1-30.8c1.7-8.9,8.3-14.3,15-19.1c14.4-10.3,31.4-14.4,48.2-18.1c21.3-4.8,43.1-6.7,64.9-8.5
	c40.9-3.5,81.8-1.6,122.7-1.3c20.1,0.1,40.3,2.4,60.5,4c14.8,1.2,29.7,2.1,44.5,3.7c14.1,1.6,28.1,4.5,42.3,5.4
	c12.3,0.8,24.2,3.8,36.4,4.8c13.5,1.1,26.8,4,40.2,6.4c23.4,4.3,46.8,8.9,70.2,13.2c2.3,0.4,4.5,1.1,6.6,2.1
	c5.2,10.8,3.7,22.6,4.8,33.9c1.5,15.5-0.2,31-2.2,46.4C1124.1,1368.2,1123.6,1373.6,1118.3,1376.7z"/>
<path class="st0" d="M550.3,2020.7c4-12.7,10.7-24.3,15.4-36.7c9.3-24.5,18.1-49.2,25-74.6c3.1-11.5,6-23.1,9.5-34.5
	c1.8-5.6,3.5-6.9,9.3-5.9c4.3,0.5,8.5,1.5,12.6,2.8c5,1.8,9.3-0.2,13.4-2.1s7.2-8.4,6.5-12.6c-1-6.3-6.8-11.8-14-12.3
	c-8.2-0.7-16.4-2-24.5-4c-22.7-5.2-43.6-14.6-61.3-29.7c-15.3-13-25.7-29.9-29.7-49.7c-4.5-22.2-3.8-45.2,1.9-67.1
	c7.3-28.4,20.7-54,36.3-78.4c16.4-25.8,36.3-49.3,59-69.8c7.9-7.1,17-12.7,25.9-18.6c3.1-2.1,5.3-1.8,8.1-0.1
	c28.8,17.3,56.3,36.5,84.3,55c3,2,4.2,3.8,2.8,7.3c-1.1,2.7-1.3,5.9-2.3,8.6c-4.6,12.1-0.9,22.9,5.6,33
	c17.9,27.9,41.5,49.8,70.2,66.5c20,11.6,40.9,20.6,62.4,28.7c10.8,4.1,19.1,2.2,25.4-8.5c4.8-8.3,5.9-8,13.2-1.4
	c23.9,21.6,48.1,42.8,71.6,64.9c22.3,21,44.2,42.5,65.3,64.6c10.4,11,22.2,21.1,30.2,34.4c0.7,11-5.9,19.6-9.9,28.9
	c-13.6,31.9-26.7,63.9-37.1,97c-1.6,5.1-3.2,10.2-7,14.2L550.3,2020.7z"/>
<path class="st1" d="M1262.3,1882.7c0-0.7,0-1.3,0-2c1.3-6.9,1.7-9.6,2-14c0.8-16.2,1.4-32.4,3.7-48.5c0.2-0.6-0.4-25.9-2.2-37.7
	c-2.3-14.3-2.9-29-6.9-43.1c-1.3-4.7,2.5-7.6,4.7-10.5c10.8-13.9,21.6-28,30.3-43.2c9.2-16.2,23.1-23.9,39.8-28.5
	c11-3,21-7.9,30.8-13.5c6.7-3.8,8.6-3.9,11,3.7c4.3,13.2,10,25.8,12.7,39.6c4.8,24.7,10.5,49.2,15.2,73.9c2.9,15.3,4.9,30.7,7,46.1
	c2.4,17.7,2.6,35.7,4.4,53.5c2.5,23.3,0.8,46.5,1.6,69.8c0.3,10.6-1.7,21.1-3.3,31.6c-0.4,1.9-0.6,3.9-0.6,5.9
	c1.9,19-4.3,36.8-8.1,54.9h-180c-1.6-3.9,0.8-7.1,2.1-10.4c12.4-30.4,24.6-61,30.8-93.4C1259.3,1905.6,1260.7,1894.1,1262.3,1882.7z
	"/>
<path class="st2" d="M1018.3,2020.7c4.2-15.7,9.2-31.1,15.1-46.2c7-17.6,13.7-35.3,20.9-52.8c5.7-13.8,12-27.4,18-41.1
	c7.8,4.9,11.7,13.4,18.1,19.6c7.1,6.9,12.8,15.1,19.1,22.7c3,3.6,5.6,7.1,3.5,12.5c-10.9,27.7-18.5,56.6-26.7,85.1L1018.3,2020.7z"
	/>
<path class="st2" d="M454.3,2020.7c-1.1-9.5-2.1-19-3.2-28.5c-0.2-1.3-0.8-2.6-0.7-3.9c1.2-13.4-1.6-26.5-2.5-39.7
	c-1-14.1-0.2-28.5-3.3-42.5c-0.3-2.3-0.4-4.7-0.3-7c0-23-0.6-46,0.2-68.9c0.5-13.4,2.5-27.1,8-39.7c-0.1,7.9-0.8,16-1.7,23.9
	c-1.1,8.3,1.1,17.1,2,25.6c1.7,16,4.5,32,7.6,47.8c4.7,24,10.6,47.7,17.6,71.1c5.7,19,11.1,38.1,17.7,56.9c0.4,1.6,0.6,3.3,0.6,4.9
	H454.3z"/>
<path class="st3" d="M1262.3,1880.7c-0.6,15.8-2.2,33.4-5.9,48.9c-7.6,31.4-18.3,61.9-32.1,91.1h-20c0.2-4.3,3.2-7.5,5.7-10.2
	c6.3-6.9,10.5-15.3,16.6-22.2c12.8-14.7,18.6-32.6,23.6-50.9c4.7-17.2,7.8-34.7,10.4-52.3
	C1260.7,1884.2,1261.7,1881.5,1262.3,1880.7z"/>
<path class="st4" d="M769.3,692.7c5.3,8.1,9.3,14.5,13.6,20.7c10.1,14.5,21.5,28.1,34,40.6c18.6,18.3,39.7,32.4,65.3,38.9
	c5.1,1.3,7.9,3,7.7,9.3c-1,31,1.7,61.9,5.5,92.7c0,0.3-0.3,0.6-0.4,0.9c-1.5,1.5-3,0.7-4.5,0c-65.3-30.6-122.7-71.3-165-130.8
	c-30.9-43.3-47.7-91.9-51.8-144.9c-3.3-42.3,1.6-84.8,14.5-125.2c0.7-1.9,1.1-3.8,1.4-5.8c0.7-5.8-2.7-11.4-8.1-13.5
	c-5.4-2-11.3,0-14.9,5.2c-2.1,3.1-3.1,6.6-4.2,10.1c-13.2,42.1-17.7,85.3-14.7,129.3c0.9,14.3,2.9,28.5,5.9,42.5
	c1.9,8.7,1.6,8.9-7.1,11.9c-47.5,16.1-89.3,41.3-124.4,77.5c-4.3,4.2-8.2,8.7-11.9,13.5c-3.8,5.2-7.7,5.6-13.7,3.8
	c-26.6-7.7-52.3-18.1-76.7-31.1c-1.9-1-3.5-3.1-6.7-2c6.5,12.7,15.7,23,25.4,33c11.2,11.4,23.8,21.5,37.3,30
	c7.5,4.7,7.6,4.9,3.8,12.2c-16.4,31.7-26.3,65.5-30.7,100.8c-3.8,30.2-3.6,60.4-1.4,90.7c2.9,40.6,9.2,80.8,12,121.3
	c1.6,23,1.6,45.9-2.5,68.8c-5.7,32.2-22.2,59.1-42.3,83.9c-38.7,47.6-88.9,76.5-148.7,89.2c-1.6,0.4-3.3,0.6-4.9,0.8
	c-0.5,0-1-0.5-1.6-0.8c0.5-3.3,3.3-4.8,5.2-7c19.4-22.6,36.9-46.4,49.6-73.5c18.3-39,20.7-78.3,5.9-119.3
	c-17.3-47.6-42.4-90.3-73.8-129.7c-20.6-25.8-42.9-50.1-64.6-75c-30-34.5-59.2-69.6-82.3-109.2c-32.2-55.8-52.6-115.3-63.2-178.3
	c-6.6-38.1-8.1-77-4.5-115.5c2.9-29.8,11.4-58,22.2-85.8c19.4-49.8,45.4-95.6,81.5-135.4c48.9-53.8,109-87.9,180-103
	c34.8-7.4,69.8-10.1,105.3-6.4c8.2,0.9,13.9-2.4,16.1-8.7c2.1-6,0.3-11.4-6.6-16.2c-17-11.8-32.2-25.9-45.4-41.9
	C358.5,129.1,350,91.6,352,51c0-0.6,0.6-1.1,1-1.8c3.5-0.4,5,2.7,7,4.5c45.3,40.7,98.8,63.6,158.5,72.6c32,4.8,63.8,0.9,95.4-4.8
	c36-6.5,71.6-15.5,107.8-21.4c20.4-3.3,40.9-5.7,61.5-7.5c27.9-2.4,55.9-2.8,83.9-1.2c54.7,3.1,108.8,9.8,160,31.4
	c61.8,26,108,68,132.6,131.2c28.6,73.4,15.7,139.9-35.5,199.2c-19.3,22.3-42.8,40.1-66.1,57.8c-25.2,19.2-50.6,38.1-73.4,60.2
	c-27.5,26.7-51,56.3-67.3,91.2C907,684.6,900.6,708,896.2,732c-0.3,1.6-0.6,3.3-0.9,4.9c-1.7,8.7-1.7,8.6-10.3,7.2
	c-38.6-6.3-73-22.6-104.7-44.9c-2.5-1.7-4.9-3.5-7.3-5.2C771.8,693.5,770.6,693.1,769.3,692.7z"/>
<path class="st5" d="M807.3,880.3c4.2,0.5,6.6,3.1,9.3,4.8c25.5,16.4,52.5,30.4,80.5,41.9c3,1.4,6.2,2.5,9.4,3.4
	c12.7,3.2,21.2-4.5,19-17.5c-2.4-14.1-4.6-28.3-6.1-42.5c-2.3-21.9-3.4-43.8-3.3-65.8c0-5.3,1.7-7,6.9-6.9
	c5.7,0.1,11.3-0.3,16.9-1.2c4.9-0.7,6.3,0.9,6.6,5.7c1.7,20.9,4.9,41.7,9.5,62.2c8.5,38.5,19.7,76.1,39.9,110.4
	c11.6,19.7,25.4,37.5,44,51.2c31.1,22.9,65.7,27.5,102.6,19c39.9-9.2,68.4-33.1,87.7-68.5c15.9-29.1,23.6-60.7,27.7-93.3
	c6.8-53.9,4.3-107.7-2.7-161.4c-2.5-18.8-5.5-37.6-9.2-56.2c-1.3-6.7-1.4-6.8-8.1-5.3c-57.8,13-114.9,29-171,48.1
	c-32.5,11-65,21.8-98.5,29.3c-15.2,3.4-30.5,6.2-47.7,7c1.7-8.7,3-16.4,4.7-24c11-50.6,38.1-91.8,74.4-127.6
	c20.2-20,42.7-37.2,65.2-54.4c20.1-15.4,40.3-30.7,59-47.8c31-28.5,54.8-61.6,67-102.4c2-6.7,2.3-6.7,9.1-3.7
	c25.9,11.5,48.6,27.7,69.1,47c41,38.5,70.3,85,92.6,136.3c26.4,61.1,42.5,124.8,46.1,191.3c5.4,97.6-12.5,190.8-53.5,279.8
	c-2.7,5.9-5.7,7.8-12.6,8.1c-60.3,1.9-111.8,22.6-149.3,71.9c-15.2,20-23.6,43.1-30.1,67c-6,21.9-9.6,44.3-10.5,67
	c-0.1,2.3,0.5,4.7-1.7,7.3c-10-2-20.3-4.1-30.7-6.3c-66.5-14-133.8-24.3-201.4-30.8c-61.4-5.9-122.9-9.6-184.7-7.7
	c-22,0.7-44,1.6-65.8,4.7c-6.7,1-10.7-0.4-14.6-6.6c-38.7-62.6-67.5-129.3-81.9-201.6c-8.1-40.6-10-81.9-7.6-123.4
	c1-16.3,1.6-32.6,3.5-48.8c0.9-8.1,1.1-8.1,9.1-7.1c14.4,1.8,14.6,1.8,14.3,16.3c-0.7,38.1,2,75.9,11.9,112.9
	c5.5,20.7,13.3,40.4,26.1,58c25.9,35.6,73.1,48,110.2,28.9c15.3-7.9,26.4-20.2,35.1-34.7c13.3-22,20.3-46.2,25.2-71.2
	c3.4-17.3,5.7-34.9,6.9-52.5C805.9,887.4,805.6,884,807.3,880.3z"/>
<path class="st0" d="M1520.3,1380.7l-31.2-48.6c-0.9-1.4-1.5-3.2-2.7-4.1c-9.4-7.3-11.1-18.5-14.9-28.7c-1.4-3.8-0.6-6.4,2.1-8.9
	c10.8-9.8,21.4-19.9,32.4-29.5c14-12.3,27.2-25.5,39.6-39.4c3.8-4.2,7.6-8.3,11.4-12.5c28.4-31.8,55.3-64.6,73.9-103.4
	c7.7-16.1,12.9-33,13-50.6c0.1-11.7-1.1-23.8-4.9-35.3c-7-21.7-13.9-35.7-28-54.5c7.3-7.4,14.5-15.1,19.6-24.6
	c8.9-16.6,14.1-34.4,17.6-52.6c2.8-14.3,5.5-28.6,6.2-43.2c0.2-4.1,3-5.1,6.3-6.6c15.5-6.9,30.7-14.5,42.5-27.3
	c25.4-27.3,26.8-56.5,9.5-86.8c-12.2-21.5-29-39.5-43.4-59.4c-10.4-14.6-19-30.5-25.6-47.2c-6.2-15.7-10.8-32.1-13.7-48.8
	c-1-5.8-3.6-10.7-10.3-11.9c-7-1.3-10.7,0.5-15.4,7.9c-5.8,25.6-8,51.9-6.4,78.1c1.3,24.2,9.8,46,18.6,67.9c3.2,8,6.3,16.1,8.9,24.4
	c9.4,31-2.7,55.3-23.7,76.7c-9.2,9.3-20.2,16.1-33.3,18.9c-17,3.6-34.4,1.7-51.6,3.4c-16,1.6-32.5,1.9-48.8-0.8
	c-7.8-1.3-16-0.4-24-0.6c-8.8-0.2-10.2-1.1-9.6-9.9c0.8-11.6,2.7-23.2,1.7-34.8c-1.5-16.8-1.9-33.7-3.4-50.6
	c-1.8-20.5-5-40.8-8.8-60.9c-2.8-15.3-7.3-30.3-11.3-45.3c-8.8-33.2-21.6-65-36.3-95.9c-12.8-27.1-28.7-52.4-46.7-76.4
	c-10.6-14.1-21.8-27.7-34.4-40c-26.3-25.6-55.6-47.4-90.2-61c-4.2-1.6-5.6-3.6-5.2-8.9c2.5-35.5-1.4-70.3-15-103.6
	c-1-2.3-2.3-4.8-1.5-7.6c11.4-4.2,23.5-3.7,35.3-4.8c34.5-3.4,69.2-3.8,103.7-2.1c48,2.3,95.5,8.8,142.3,20.6
	c41.7,10.5,82,24.5,121.7,40.9c28,11.6,55.1,24.9,81.7,39.2c23.1,12.4,45.7,25.8,66.2,42.3c5.9,4.8,11.2,10.5,16.4,16.1
	c5.6,5.9,5.2,10.9-1.1,16.2c-7.2,6-15.6,10.3-24.3,13.7c-16.1,6.3-33,10-49.7,14.1c-3.6,0.9-5.7-0.8-7.9-3
	c-6.8-6.8-13.7-13.6-20.5-20.5c-2.8-2.9-5.9-5.4-9.3-7.5c-7.6-4.7-15.6-4.4-19.8,0.9c-4,5.1-2.5,16.3,3.7,20.8
	c10.9,7.9,19.6,18,28.9,27.5c13.1,13.6,25.5,28,37.1,42.9c14.2,18,27.8,36.4,40,55.8c7.7,12.4,15,25.1,22.5,37.6
	c6,11.4,4.4,23.8,5,36c2.9,58.9,2.5,117.8,1.7,176.7c-0.7,49.2-3.3,98.3-7.2,147.4c-4.4,56.2-10.3,112-20.6,167.4
	c-15,80.2-36.5,158.3-76.6,230.2c-11.5,20.7-25.1,40.1-40.7,57.9c-6,6.8-12.9,8.8-22.2,7.9c-21.6-2-40.2-11.3-58.7-21.3
	c-3.6-1.9-6.2-5-8.6-8.2l0,0C1521.6,1382,1520.9,1381.4,1520.3,1380.7z"/>
<path class="st4" d="M1140.7,1675.8c3.6-2.7,7.3-5.4,10.9-8.1c20.1-15.2,37.4-33,51.1-54.3c14.2-22.1,20.9-46.5,23.5-72.4
	c4.6-46.8-5.8-91.3-19.2-135.5c-8.6-28.3-17.7-56.6-23.5-85.7c-10.6-53.4-6.5-105.5,14.1-155.9c17.8-43.5,51.5-69.2,95.5-82.8
	c14.1-4.3,28.6-6.1,43.2-7.6c6.6-0.7,12.3,3.1,13.8,10.1c1.8,7.8,2.8,15.7,3.8,23.6c4.2,30.3,15.4,57.6,32.4,83
	c34.3,51.4,59.8,106.9,74.7,167c8,32.2,13.1,64.8,10.3,97.9c-4.9,57.8-31.4,104.5-75.3,141.7c-30.2,25.6-65.2,42.6-102.4,54.9
	c-47.8,15.8-97,23.3-147.1,25.6C1144.8,1677.4,1142.6,1678.7,1140.7,1675.8z"/>
<path class="st2" d="M1522.3,1382.7c10.2,6.3,21.1,11.3,31.7,16.9c13.9,7.2,29.1,8.6,44.1,11c3.4,0.5,5.3-2.2,7.6-4.2
	c9.3-7.8,15.5-18.1,22.6-27.7c23.3-31.4,39.9-66.4,53.8-102.6c6.1-15.8,12.4-31.5,17.1-47.8c8.7-30.6,16.9-61.3,23.2-92.4
	c3.4-16.8,6.6-33.8,9.1-50.7c1.8-12.1,3.8-24.1,5.1-36.3c1.4-13.1,3-26.3,5.1-39.3c1-6.9,1.7-13.8,2-20.7
	c0.7-12.3,2.4-24.4,2.9-36.7c0.5-11.8,0.5-23.8,3.3-35.5c0.2-1,0.3-2,0.3-3c-1.3-18.3,1.6-36.5,2.3-54.7
	c2.6-62.9,2.1-125.8,1.3-188.7c-0.3-22.5-1.5-45.1-1.6-67.7c0-4.7-2.8-8.9-2-13.7c27.3,47.8,48,98.4,64.5,150.8
	c7.6,24,13.9,48.4,18.9,73.1c4.6,22.6,9,45.4,10.9,68.5c1.2,14.8,2.5,29.7,4,44.5c3.3,32.6,1.2,65.2,1.6,97.7
	c0.2,16.2-1.7,32.4-3.5,48.5c-1.5,13.5-2.3,27-4.3,40.4c-2.2,14.7-3.9,29.5-6.4,44.2c-5.3,31.3-12.7,62.3-20.9,93
	c-9.2,34.7-21.3,68.4-34.1,102c-11.6,30.1-24.9,59.5-40.1,88c-18.8,35.6-39.9,69.8-64.3,101.8c-12,15.9-25.4,30.8-40,44.3
	c-15,13.8-15.4,10.1-21.5-3.2c-11.3-24.8-22-49.8-32.9-74.8c-13.7-31.3-26.8-63-43.7-92.9
	C1532.7,1404.2,1525.5,1394.5,1522.3,1382.7z"/>
<path class="st0" d="M1426.3,1204.7c-5.5-11-11.9-21.5-19-31.5c-14.9-21.4-23.3-45.1-27.3-70.8c-1.8-11.7-1.2-23.9-7-34.9
	c-1.9-3.7,0.5-7.1,2.1-10.3c12.5-24.3,21.9-49.8,30.7-75.7c1.6-4.7,2.9-9.5,4.2-14.3c1-3.7,2.7-4.7,6.5-3.5
	c16.8,5.3,34.3,7.2,51.5,10.3c8.8,1.8,17.7,2.7,26.6,2.9c11.9,0,23.7,2.7,35.7,1.8c5.1,2.8,4.1,7.8,4.6,12.3
	c4.1,38.5-7.6,72.9-26.8,105.4c-21,35.9-44.4,70.4-70,103.2c-2.5,3.2-4.3,7.9-9.9,7l0,0C1427.6,1206.1,1427,1205.4,1426.3,1204.7z"
	/>
<path class="st2" d="M1428.3,1206.7c8.3-5.9,13.1-14.9,18.9-22.8c21-28.5,41.3-57.6,58.5-88.6c10.7-19.3,21.4-39,25.2-61.3
	c0.8-3.5,1.2-7.1,1.3-10.8c0-11.3,0-22.6,0-33.9c0-3.7,0-7.3-2-10.6c14.9-0.1,29.8-1.3,44.5-3.8c5.3-0.8,9.7,0.2,13.3,4.6
	c14.7,17.8,24.4,38.2,27.8,60.9c2.6,17.3-0.1,34.4-7.7,50.6c-12.2,26.1-28.7,49.3-46.8,71.5c-21.4,26.3-44.5,51.2-68.9,74.7
	c-9.3,9-19.2,17.4-28.4,26.5c-3.8,3.8-6,3.4-8.1-1.8c-3-7.4-6.4-14.6-10-21.7C1440.2,1229,1434.2,1217.9,1428.3,1206.7z"/>
<path class="st6" d="M753.6,1608.1c4-18.2,9.2-36.1,15.6-53.6c6-15.9,14.1-30.9,24-44.7c4.5-6.3,4.7-6.4,11.1-2.8
	c41.8,23.3,80.7,50.4,114.4,84.7c4.4,4.4,5.2,8.1,3.2,13.9c-10.9,32.5-26.7,62.4-46.3,90.3c-2,2.8-3.3,5.2-7.9,3.4
	c-29.5-11.9-58-25.2-82.1-46.6c-11.6-10.1-21.4-22-29.2-35.2C755,1614.5,752.8,1611.7,753.6,1608.1z"/>
<path class="st7" d="M936.3,1641.9c15.8,13.1,30.5,25,44.9,37.3c58.9,50,115.3,102.7,170.9,156.3c9.5,9.1,11.8,18,9.1,30
	c-2.9,12.8-6.1,25.2-14.1,35.9c-1.6,2.2-3.3,4.2-5.1,6.1c-6.1,6.3-6.8,6.3-12.2-0.4c-27.8-34.4-57.4-67.4-88.6-98.8
	c-38.6-39-78.4-76.9-120.4-112.3c-1.3-1.1-2.4-2.3-3.7-3.3c-4.2-3-5-5.9-1.9-10.7C923.3,1669.8,929.3,1656.5,936.3,1641.9z"/>
<path class="st7" d="M1531.3,952.2c-36-0.4-71.8-4.9-106.8-13.5c-5.9-1.4-6.4-2-5-8.3c3.9-17.2,7.1-34.5,9.7-51.9
	c0.7-4.6,1.1-9.2,1.7-13.9c0.5-4.4,2.7-6.2,7.3-6c10.3,0.5,20.5,1.7,30.9,1.9c31.3,0.7,62.6,0.4,93.8-2.4c18.8-1.7,37.7-4,56.2-8.1
	c7.4-1.6,7.9-1.4,7.2,5.7c-2.3,23.3-6.8,46-16.3,67.6c-6.6,14.8-17.3,23.5-34.1,25.4C1559.9,950.6,1544,951,1531.3,952.2z"/>
<path class="st2" d="M1568.3,830.7c10.7-5.1,20.8-11.5,29.8-19.1c11.7-9.9,18.8-22.6,24.4-36.8c7.1-18.3,2.2-35.1-4.3-52
	c-7.3-19.1-17.2-37.6-20.5-57.9c-3.2-19.8-5.9-39.9-2-60.1c1.6-8.4-0.2-17.2,2.5-25.6c1.6-5,1.8-10.5,6-14.4
	c-0.8,21.1,6.3,40.5,13.2,59.9c9.2,25.9,23.7,49,40.7,70.4c7.6,9.6,14.9,19.4,22.6,29c3.9,5,7.2,10.3,10,16
	c12.1,23.2,6.2,44.6-16.4,60.7c-12,8.6-25.7,13.6-39.8,17.8C1612.9,825.1,1590.6,827.9,1568.3,830.7z"/>
<path class="st5" d="M662,697c9.7,28.9,23.3,56.3,40.6,81.3c-8.5-0.5-15.2-1.1-22-1.2c-24.3-0.5-48.5,2.1-72.8,2.7
	c-9,0.2-18,0.3-27,0.6c-4,0.1-5.4-1.5-4.6-5.4c2.7-12.7,5.3-25.4,7.9-38.1c0.6-3,2.7-4.5,4.9-5.9C611.6,716.2,636.2,704.8,662,697z"
	/>
<path class="st7" d="M740,1558.4c-12.7-8.2-24.2-15.5-35.6-23c-22.8-15-45.8-29.7-69.2-43.6c-8.5-5-8.5-5.4-3.3-13.7
	c4.9-7.9,10.5-15.3,17.7-21.5c4.1-3.5,7.6-4.2,12.4-1.2c22.1,13.6,44.4,26.9,66.6,40.4c8.5,5.2,16.9,10.6,25.3,16
	c2.5,1.6,5.3,3.3,3.2,7.1C750.3,1531.2,745.4,1544.2,740,1558.4z"/>
<path class="st2" d="M1136.3,1782.7c6-4.8,9.7-11.6,14.2-17.6c13.4-17.7,28.1-34.3,44.1-49.7c5.7-5.4,12.6-9.6,17.8-15.8
	c-1.7-1.8-4.1-0.5-6.2-0.9c4.7-4.1,10.9-2.4,16.2-3.2c11.1-1.7,22.1-3.8,33-6.6c0.9-0.2,1.9,0.2,3.4,0.3c-0.2,6.5-6,9.3-8.6,14
	c-1.3,2.3-4.2,1.7-6.2,0.1c-5.4-4.3-10.9-3-15.5,0.8c-4.7,3.7-6.1,10.2-3.4,15.5c4.7,9.3,1.7,16-4,23.3
	c-17.1,21.9-32.9,44.9-47.2,68.7c-3.5,5.8-3.8,5.9-8.5,1.1C1155.7,1802.7,1145,1793.7,1136.3,1782.7z"/>
<path class="st2" d="M1118.3,1376.7c2.6-6.5,3.3-13.3,4.2-20.1c1.8-13.4,2.3-26.9,1.6-40.4c-0.5-11.2-2.5-22.2-1.8-33.5
	c8.7-0.1,16.8,3.5,25.4,4.3c3.1,0.3,4,2.8,4.7,5.6c2.7,10.6,3.1,21.5,5.4,32.2c3,13.9,6.4,27.7,10.1,41.4c2,7.4,1.6,8.1-6,8.4
	c-6,0.4-12,0.3-18-0.1C1135.3,1373.8,1126.9,1376.9,1118.3,1376.7z"/>
<path d="M944.6,1898.7c-31.7,1.8-62.7-6.6-92.1-20.4c-37.9-17.8-67.2-44.9-84.2-83.9c-6.8-15.5-12.4-31.5-12-48.9
	c0.1-5.2,1-10,6.3-12.6c9.2-4.5,18.4,1.1,19.7,12.3c1.8,15.9,6.6,31.2,14,45.3c13.1,24.7,31.8,43.7,56.3,57.5
	c19.1,10.8,39.9,18.2,61.5,22c24,4.3,48.2,4.3,72-2.3c10.1-2.8,14.9-1.2,19.3,5.4c4.7,7,1.1,16.5-8.4,19.4
	c-10.4,3.1-21.1,5.8-32.1,6.1C958.6,1898.9,952.3,1898.7,944.6,1898.7z"/>
<path d="M410.1,537.7c-13,4.2-25.7,9.3-38,15.1c-29.4,13.6-57.2,30-84.6,47.2c-3.1,2-6.2,3.9-9.3,5.9c-5.1,3.2-10.5,4.6-15.9,1.1
	s-6.7-9-5.8-14.9c1.1-7.9,2.1-15.9,3.9-23.6c17.5-76.7,57.9-137.6,124.1-180.6c33-21.5,69.7-34.7,108.2-42.8
	c41-8.7,82.5-10.8,124.3-8.3c6,0.3,12,1,17.9,2.1c7.8,1.4,12.2,7.1,11.4,14c-0.7,6.3-6,11-13.3,11.1c-4.3,0.1-8.6-0.9-12.9-1.2
	c-42.1-2.3-83.9-1-125.3,8.1c-55.7,12.3-105,36.2-144.4,78.4c-31.2,33.4-51.7,72.5-63.3,116.5c0,0.9,0.1,1.7,0.3,2.5
	c4.3,0.4,7.1-2.7,10.2-4.6c27-16,54.4-31,83.6-42.7c13.6-5.5,27.4-10.4,41.4-14.7c2.5-0.9,5.1-1.5,7.7-1.6c8.6,0,14.5,6.6,13.2,15
	c-0.7,3.3-1.7,6.4-3.1,9.5c-7.8,19.9-12.9,40.7-15.1,62c-0.2,2.3-1,4.5,0.3,6.9c3.6,0.5,5.1-2.6,7.1-4.5
	c21.6-19.4,45.3-36.3,70.7-50.3c3.1-1.9,6.5-3.4,9.9-4.6c6.5-2.1,12.3,0.5,15.3,6.1c2.8,5.3,1.6,10.9-3.5,15.2
	c-2.1,1.7-4.3,3.2-6.7,4.4c-34.8,18.5-64.9,43-92.2,71.2c-1.6,1.7-3.2,3.4-4.9,5c-4.6,4.3-9.5,7.6-16.1,4.5s-8.9-8.8-8.6-15.5
	c0.3-8,1-16,1.5-23.9C399.5,582.5,403.5,559.8,410.1,537.7z"/>
<path d="M967.5,1142.2c0.3,7.2-5.4,13.3-12.6,13.6c-0.7,0-1.5,0-2.2-0.1c-4.3-0.5-8.4-2.2-12.3-4.2c-21.5-10.6-35.5-27.6-42.8-50.3
	c-2.8-8.8-2.8-8.4-12.3-8.9c-18.8-1-35.3,5.6-50.7,15.4c-3.1,2-6.1,4.2-9.4,5.6c-5.3,2.6-11.7,1-15.2-3.7c-3.8-5-3.5-11.9,0.8-16.5
	c1.6-1.7,3.3-3.2,5.3-4.5c20.2-13.8,41.9-23.1,67-22.6c9.1,0.2,9.3-0.1,10.4-9.7c2.2-18.4,8.8-34.8,20.6-49c2.4-3.2,5.3-6,8.6-8.3
	c5.7-3.6,12.2-3.1,16.5,1.2s5.1,10.7,1.5,16.5c-0.9,1.4-2,2.7-3.2,3.9c-21.1,23.4-23.1,50.1-12.8,78.3c5.4,14.7,16.4,24.9,31.1,30.7
	c4.5,1.8,8.5,3.9,10.5,8.6C966.9,1139.5,967.2,1140.9,967.5,1142.2z"/>
</svg>
