<?xml version="1.0" encoding="utf-8"?>
<!-- Generator: Adobe Illustrator 22.0.1, SVG Export Plug-In . SVG Version: 6.00 Build 0)  -->
<svg version="1.1" id="Layer_1" xmlns="http://www.w3.org/2000/svg" xmlns:xlink="http://www.w3.org/1999/xlink" x="0px" y="0px"
	 viewBox="0 0 2217 2217" style="enable-background:new 0 0 2217 2217;" xml:space="preserve">
<style type="text/css">
	.st0{fill:#282828;}
	.st1{fill:#FFFFFF;}
	.st2{fill:#1A191A;}
	.st3{fill:#1A1A1A;}
	.st4{fill:#121112;}
	.st5{fill:#121212;}
	.st6{fill:#FF2E30;}
	.st7{fill:#EFE9EF;}
	.st8{fill:#A91E1E;}
	.st9{fill:#A5A7A9;}
	.st10{fill:#A5A6A8;}
	.st11{fill:#9EA1A3;}
	.st12{fill:#A0A2A4;}
	.st13{fill:#999B9C;}
	.st14{fill:#171718;}
	.st15{fill:#989A9C;}
	.st16{fill:#7B7E7F;}
	.st17{fill:#0E0D0E;}
	.st18{fill:#A02E2E;}
	.st19{fill:#919294;}
	.st20{fill:#3F0B0C;}
	.st21{fill:#9DA4A8;}
	.st22{fill:#E8E9EA;}
	.st23{fill:#A5ADAD;}
	.st24{fill:#3B4545;}
	.st25{fill:#292929;}
	.st26{fill:#6A6363;}
	.st27{fill:#A7A0A0;}
	.st28{fill:#A4A5A6;}
	.st29{fill:#A3A5A7;}
	.st30{fill:#696B64;}
</style>
<g>
	<path class="st0" d="M378,2220c-125.3,0-250.6,0-376,0C2,1480.8,2,741.6,2,2.2c739.1,0,1478.2,0,2217.7,0
		c0,739.2,0,1478.5,0,2217.8c-217.1,0-434.4,0-651.7,0c-3.2-3.7-1.4-7.4-0.4-11.3c9.3-36.2,14.9-72.9,18-110.2
		c2.5-29.5-2.2-58.4-3.4-87.5c-1.5-36.5-8.7-72-14.8-107.7c-4.3-25.3-12-49.9-18.3-74.7c-2.3-9.1-0.9-15.9,6.2-22.3
		c20-17.9,36.1-39.3,49.8-62.3c14.7-24.9,25.2-51.2,24.3-81.2c-1-31.9,1.4-63.9-3.9-95.7c-2.4-14.5-5.1-28.9-9.3-42.9
		c-2.7-8.9-0.8-15.2,6.4-21c17.2-13.7,33.9-28,49.4-43.7c2.6-2.7,5.6-7.2,9.9-4.7c3.7,2.2,2.7,7.2,2.1,11.1
		c-1.3,8.9-2.5,17.8-3.9,26.7c-2.7,16.4-1.6,32.6,1.6,48.7c2.8,13.9,2.5,27.6,1.6,41.7c-1.3,19.9,0.4,40,1.7,59.8
		c2.6,41.2,7.1,82.4,23.4,121.1c4.7,11.1,9.8,21.9,16.6,31.9c5.9,8.6,5.5,9.6-3.5,15.6c-31.5,21.1-43.4,53.9-37.8,90.4
		c1.8,11.7,7.2,21.5,16.9,28.5c7.5,5.4,9.9,11.4,6.7,20.5c-3,8.4-5.8,17.2-6.2,26.2c-1.5,30.1,8.4,56.2,32.3,74.8
		c17.2,13.3,37.7,12.3,57.4,5.7c17.1-5.8,33.4-13.6,45-28.5c3.2-4.2,7.5-5.1,12.5-3.7c18.7,5.1,37.2,2.2,55.2-3.2
		c29.5-8.9,46.8-32.2,47.7-63.2c0.4-12.6,1.6-25.3-3.1-37.6c-2.4-6.3,2.5-9.6,6.4-13.3c16.9-16,27.6-35,26.7-59.1
		c-1-27.8-26.7-62-52.9-71.1c-6.7-2.3-13.5-3.5-20.6-1.8c-3.6,0.9-7.3,1-10.9,0.8c-9.3-0.4-11.7-3.1-10.7-12.6
		c1.9-16.9,6.1-33.5,7.9-50.4c5.3-47.7,14.4-94.8,23.7-141.9c2.1-10.5,6.4-20.3,9.9-30.4c20.2-58.3,40-116.7,54.3-176.7
		c13-54.1,26.6-108.1,36.4-162.9c3.6-20.4,4.2-41,5.1-61.6c1.2-26.3,3.2-52.5,5.3-78.7c1.7-21,1.9-42.1,0.2-62.9
		c-1.8-21.9-0.2-43.9-3.4-65.8c-5.4-36.6-8.7-73.5-15-109.9c-7.7-44.7-21.1-87.9-38-130.2c-22-54.8-43.4-109.8-72.1-161.5
		c-21.9-39.3-38.8-81.4-64.9-118.2c-28.7-40.4-53.8-83.5-86.8-120.9c-35.6-40.5-76.9-74.5-120.8-105.7c-67-47.6-141.1-78.5-221-96.6
		c-34.5-7.8-68.9-15.5-103.6-22.3c-24.7-4.8-49.7-5.9-74.5-6.4c-34.9-0.7-69.9-1.6-104.9,1.3c-50.2,4.3-99.8,10.4-148.1,26.3
		c-27.9,9.2-56.1,17-82.3,30.4c-8.6,4.4-17,9.2-25.3,14.2c-13.1,7.9-26.4,15.4-40.3,22c-28.3,13.4-48.2,36.1-65.8,61.3
		c-10.5,15.1-18.9,31.4-27.9,47.4c-3.3,5.8-7.7,9.7-14.1,11.9c-18.9,6.4-33.7,19-45.9,34.2c-7.6,9.4-14.3,13-27,9.6
		c-37.5-9.9-70.4-28.1-100.2-52.3c-8.8-7.2-13.9-17.8-22.1-25.7c-13.5-12.8-27.6-12.5-40.9,0.7c-7.9,7.9-12.2,17-14.1,28
		c-8.5,50.2-0.8,97.5,25.6,141.4c5.6,9.4,4.4,13-7,14.6c-30,4.2-58.2,14-86,25.5c-30.7,12.7-59,29.2-84.8,50.3
		c-30.1,24.6-56.7,52.6-79.4,84.1c-19,26.3-34,54.9-46.9,84.6c-10.3,23.6-18.9,47.8-25.4,72.5c-9.6,36.7-10.7,74.1-8,112
		c2.9,40.1,10,79.3,21.9,117.6c18.9,61,46.5,117.8,85.5,168.5c24.6,31.9,51.8,61.7,78.4,92c34.1,38.9,65.8,79.6,86.6,127.7
		c7.8,17.9,14.3,36.2,15.6,55.5c1.4,21.7-5.1,42.1-15.4,61.2c-16.5,30.5-38.7,56.5-63.8,80.2c-8.5,8-17.2,16.5-10.9,30.2
		c7.5,16.4,21.2,25.9,36.4,24.9c63.4-3.9,120.6-24.5,169.6-65.2c19.9-16.5,38.8-34.6,54.2-55.8c7-9.7,10.4-9.9,17.5-0.8
		c23.3,30.1,51.4,54.8,83.2,75.6c18.6,12.2,18.8,13.3,2.1,26.7c-29.3,23.6-59.3,46.4-87.3,71.6c-36.4,32.7-73.1,65.3-104.5,103.1
		c-23.8,28.6-49.1,56.3-66.6,89.7c-13.6,26.1-24.2,53.4-33.5,81.2c-8.4,24.9-16.9,49.9-22,75.7c-7.8,39.5-15.8,79-18.5,119.3
		c-1.7,26.6-6.3,52.9-6,79.6C380.5,2216,379.7,2218.2,378,2220z"/>
	<path d="M1544,2220c-8.7,0-17.3,0-26,0c-3-3.7-1.6-7.7-0.5-11.5c14.4-49.5,17.1-100.4,15.3-151.4c-0.9-26.5-3.1-53.1-6.6-79.6
		c-4.9-37.1-14.3-73.2-21-109.9c-1.9-10.5-6.7-20.2-9.7-30.5c-1.6-5.4-4.8-7.9-10.5-4.7c-13.8,7.7-28.7,12.5-43.4,17.9
		c-6.5,2.4-11.2,6.5-15.2,12.3c-8.2,12.1-15.4,25.1-25.4,35.8c-15,16.1-13.6,35.5-11.5,54.7c3.9,35.1,7.5,70.2,0.5,105.3
		c-3,14.9-6,29.9-8.8,44.9c-5.8,30.2-20.2,55.9-39.6,79.2c-7,8.4-13.1,17.5-20.2,25.9c-3.9,4.6-8,8.8-13.5,11.5c-11.3,0-22.7,0-34,0
		c-2.9-6.4,2.5-9.2,5.8-12.3c19.7-19.1,36.3-40.7,51.7-63.4c9.2-13.7,16.5-28.3,19.8-44.5c4.9-23.8,9.4-47.6,10.5-72.1
		c1-22.6,3-45.1-0.7-67.6c-1.7-1.1-2.5,0.3-3.2,1.2c-37.7,48.5-68.9,100.5-87.8,159.4c-9.7,30.1-19.6,60.2-26.4,91.2
		c-0.6,2.9-1.4,5.8-3.6,8.1c-8.7,0-17.3,0-26,0c-3.7-4.2-1.9-8.9-0.9-13.3c5.8-27.4,14.5-54,24.3-80.2c11-29.3,18.4-60.3,35.4-86.8
		c28-43.6,50.5-90.9,84.9-130.4c8.3-9.5,12.7-21.9,22.3-31c-16.3,2.7-32.5,5.6-48.5,9c-3.9,0.8-6.3,3.6-7.7,7.2
		c-1.4,3.4-2.4,6.9-3.7,10.4c-4.9,12.5-9.2,15.5-22.3,15.8c-5,0.1-10,0.1-15,0.1c-12.6-0.9-25.2-3-37.6-5.1
		c-40.4-7-81.1-11.3-121.8-16.2c-11.5-1.4-23.3-1.1-34.8-3c-5.4-0.9-7.5,1.4-6.7,6.6c1,6.1,0.3,12-2.4,17.5
		c-4.1,8.5-10.5,13.7-20.2,14.1c-12.4,0.4-24.7-1.1-36.6-4.3c-11.7-3.2-16.1-12.1-11-23.2c5.8-12.4,9.7-24.7,5.6-38.4
		c-0.3-0.9-0.1-2-0.1-3c-0.6-26.8,7-34.3,34-34.6c34.1-0.3,67.6,6.4,101.5,8.7c25,1.7,49.6,6.1,74.4,8.7c3.7,0.4,7.5,0.5,10.8-1.1
		c19.1-9.3,35.3-22.2,49.9-38.9c-8.6-3.8-16.9-4.4-24.9-5.2c-35.5-3.6-70.5-10.5-106-13.4c-22.9-1.9-45.8-3.4-68.8-3.1
		c-6.9,0.1-9.5,1.8-7.8,9.4c4.8,21.2-4.3,31.5-26.4,30.5c-7-0.3-13.9-1.5-20.8-2.5c-12.5-1.8-18.9-9.1-15-20.9
		c5.9-17.8,6.2-35.8,7.5-54c0.7-9.5,8.4-13.2,16.4-15.3c6.7-1.8,13.7-2.8,20.8-2.9c40.3-0.4,80.5,0.5,120.8,3.2
		c23.3,1.6,46.5,2.4,69.6,6c18.5,2.9,36.6,7.3,54.3,13.3c11.2,3.8,13.2,2.5,15.2-9.4c6.8-41.1,0.8-81-10.7-120.4
		c-6.8-23.3-6.7-23.1-30.5-23.1c-32.9,0-64.7,7.6-96.7,13.9c-33.2,6.5-62.8,21.5-92.4,37c-21.9,11.4-43.3,23.6-64.8,35.7
		c-6.9,3.9-11.6,9.5-15.4,16.5c-27.1,50.5-42,104.4-44,161.6c-1.8,49.9,4.2,99,16.5,147.4c1.4,5.3,4.8,8.6,9.3,11.1
		c23.9,13.5,49.4,21.7,76.9,23c17.6,0.9,35.3,0.5,52.7-3.6c10.5-2.5,18.5,2.1,20.5,10.6c2.2,9.1-2.8,16.9-13.9,19.6
		c-35.4,8.7-70.7,7.5-105.6-2.8c-11.2-3.3-22-7.6-32.8-12.2c-8.8-3.8-10-3-10.8,6c-4.2,48.2-12.1,95.8-20.7,143.4
		c-0.8,4.2-1.2,8.6-4.2,12.1c-8,0-16,0-24,0c-1.9-17.2,3.8-33.3,6.9-49.8c2.5-3.4,2.6-7.5,3.1-11.5c0.2-1,0.4-2,0.7-3
		c2.3-12.5,5.7-24.9,4.4-37.9c0.5-21.1,4.1-41.8,7.6-62.4c2.1-12.3-0.4-21.4-10-30.1c-26-23.4-40.2-53.5-46.3-87.6
		c-0.4-2.3-0.8-4.6-0.9-6.9c-0.1-9.4,5.7-16.9,13.9-18.1c7.6-1,14.9,4.5,16.5,14.1c2.5,14.6,6.2,28.6,13,41.8
		c0.3,0.6,0.6,1.2,0.8,1.3c-3.2-7.9-4.3-16.6-4.6-25.4c-1.6-45.7,1.8-91.1,8.6-136.4c5.5-36.8,19.2-70.6,34.8-103.8
		c2.7-5.7,5.6-11.4,8.4-17c2.8-5.5,1.2-8.8-4.5-10.6c-18.9-5.9-35.1-17.5-52.8-26.1c-8.1-3.9-16.2-7.9-24.3-11.7
		c-10.2-4.8-11.8-4.5-15.7,5.7c-17.3,45.5-34.2,91-39.3,140c-4.8,46.2-1,91.7,9.1,136.9c5.6,25,9.9,50.3,15.8,75.3
		c1.3,5.3,0.7,10.5-0.1,15.9c-6.7,40.1-15.5,79.8-21.2,120c-3.7,26.1-8.2,52-13.1,77.8c-0.6,3.3-0.6,6.7-3.1,9.3c-7.3,0-14.7,0-22,0
		c-3.5-4-2.6-8.7-1.9-13.3c9.2-55.5,16.8-111.4,28.5-166.4c5.9-27.8,2.6-53.9-3-80.8c-6.9-33.2-15.8-66.2-17.8-100.2
		c-1.3-22.9-1.1-45.9,0.4-68.9c3.4-52.7,22.1-101.2,39.1-150.3c0.5-1.6,1.2-3.1,1.9-4.6c5.7-12.3,5.7-12.4-6.6-17.2
		c-17.4-6.8-34.9-13.3-52.3-19.9c-6.6-2.5-11.8-2.1-17.7,2c-48.8,34.4-95.5,71.4-139.9,111.3c-17.1,15.4-34.5,30.5-50.5,46.9
		c-33.8,34.6-65.8,70.8-91.1,112.2c-9.4,15.4-16.7,31.9-23.2,48.6c-23.9,61.2-38.6,124.7-46.6,189.7c-3.3,26.7-6,53.5-7.1,80.5
		c-0.4,10,0.3,20.6-4.3,30.2c-8.7,0-17.3,0-26,0c-2.4-13.8-1.2-27.8-0.3-41.5c2.3-35.2,5.9-70.3,11.7-105.2
		c10.9-65.7,27.2-129.8,54.8-190.7c11.2-24.7,26.2-47.1,43.1-68.3c24.7-31,49.8-61.7,78.8-89c51.2-48.3,105-93.4,161.8-135.1
		c12.4-9.1,12.4-9.4-0.5-17.5c-37.9-23.7-71.5-52.3-99.9-86.8c-7.2-8.8-13.5-18.2-19.5-27.8c-4.7-7.7-6.2-7.7-10.7,0.1
		c-13.1,22.6-28.9,43.2-47.9,61.2c-43.2,40.9-94.4,65.2-153.4,73.5c-10,1.4-19.9,1.9-29.9,1.7c-6.9-0.1-12.5-2.5-15.3-9.2
		c-2.7-6.7-0.4-12.3,4.3-17.3c13.7-14.5,29.1-27.5,41.3-43.5c13.8-18.1,26.4-36.7,35.3-57.8c12.6-29.9,11.8-59.3,0.9-89.5
		c-16.3-45.2-41.5-84.8-71.8-121.6c-36-43.7-75.5-84.4-109.2-130.1c-42.2-57.3-69.3-121.2-86-190c-11.3-46.4-14.2-93.5-12.1-140.9
		c1.3-29.8,8.3-58.7,18.7-86.7c17.1-46.2,38.8-89.8,69.2-129c61.1-78.9,141.5-123.7,239.9-137.1c5.3-0.7,10.7-0.5,15.9-1.7
		c5.1-1.1,10.5-0.2,15.5-1.2c0.8-3.6-1.6-4.8-3.1-6.4c-27.8-30.3-43.3-65.6-46.8-106.8c-1.7-19.9,0.3-39.2,2.9-58.6
		c1-7.6,4.1-14.4,12.3-16.7c8.7-2.4,14.4,2.3,19.5,8.8c29.6,37.5,69.5,59.4,114,74c8.9,2.9,17.9,5.1,27,7.3
		c6.9,1.6,11.5-0.3,14.6-6.9c9.1-19.2,24.1-32.3,43.4-40.9c5.5-2.4,10.8-5.2,15.9-8.3c5.6-3.4,9.8-7.9,12-14.2
		c16-46.1,46.7-79.9,87.3-105.8c40-25.6,81.1-48.8,126.4-63.7c38.1-12.5,77.2-20.4,117-25.2c43.1-5.2,86.4-7.9,129.6-5.5
		c35.2,1.9,70.3,5.5,105.2,11.3c73.6,12.3,145.1,32.1,214.2,59.9c73.9,29.7,136.2,75.7,190.7,133.8c35.8,38.2,66.1,80.2,94.9,123.3
		c26.9,40.1,48.4,83.5,69.7,126.9c16.1,32.9,30.5,66.7,47.6,99.1c22.6,42.8,36.4,88.7,50,134.7c14.3,48.4,18.5,98.7,25.7,148.5
		c10.1,70.4,6.5,141.1,4.3,211.6c-1.4,44.1-9.5,88-17.5,131.6c-14.2,77.5-33.8,153.6-58.5,228.4c-4.9,14.9-10,29.7-15.9,44.2
		c-14.6,35.8-22.1,73.3-27.7,111.3c-4.9,33.3-11.1,66.4-16.1,99.6c-3.3,22.1-1.7,44.5-5.5,69.5c14-9.3,27.5-11,41.6-10.3
		c31.6,1.6,55.7,21,58.5,48.6c2.4,24-6.6,44.7-22.2,62.2c-6.6,7.4-8.4,13.4-5.5,23.1c12,40.2-20.6,85.5-62.3,87.3
		c-10.3,0.4-20.7,1-30.9-0.9c-5.6-1.1-9.8,0.6-12.8,5.4c-20.1,32.6-58.8,35.9-91.3,20.3c-22.7-10.9-35.2-37.2-31.3-63.8
		c1.5-10.2,3-20.5,6-30.4c2.1-7,0.8-11.6-5.7-16c-13.4-9.1-18.3-22.9-16.4-38.4c2.9-23.6,11.8-45,25.4-64.5
		c5.2-7.5,11.1-14.3,19.4-18.4c6.4-3.1,6.7-6.9,3.2-12.7c-12.9-21.1-23.7-43.3-30.4-67.2c-8.6-30.6-15.2-61.7-17.5-93.2
		c-5.3-71.9-5.8-143.8,7.1-215.1c0.7-3.9,1.5-7.8,2.7-11.7c0.5-1.7,1.6-3,2.3-4.5c0.7-1,0.5,0.8,0.3-0.5c-0.1-0.8-0.5-0.7-0.5,0.2
		c-0.7,1.4-1.8,2.5-2.5,3.8c-8.4,12.6-19.3,23.1-29.9,33.4c-22.7,22-46.1,43.3-71.8,61.9c-6.4,4.7-7.8,9.6-5.6,17.1
		c7.8,26.2,14.8,52.6,17.5,79.9c7,70.7-9.7,133.5-61.1,184.9c-6.4,6.4-12.2,13.3-19.2,18.9c-7.5,6-7.9,12.5-5.7,21.1
		c8.9,34.2,17.4,68.4,25,102.9c8.5,38.9,10.3,78.4,14.2,117.8c5.6,56-5.3,110-19.2,163.7C1548.7,2212.8,1547.7,2217.1,1544,2220z"/>
	<path class="st1" d="M1708.3,1406.3c-2.6,15-5.5,30-7.2,45.2c-1.7,15.2-3.2,30.3-4.4,45.5c-2.4,30.6-2.1,61.3-1.1,91.9
		c1.6,53,9.1,105.1,26.3,155.6c6.2,18.1,16,34.4,25.1,51c1.6,2.9,3.8,5.5,4.4,8.8c-31.5,17.2-44.3,46.3-51.3,79.1
		c-1.7,7.9-2.5,15.6-0.2,23.6c2.9,10.2,8.5,18.5,18.1,22.6c6.2,2.6,5.5,5.6,4,10.7c-4.3,14.7-6.9,29.7-7.2,45.1
		c-0.6,26.5,14.9,50.9,44.5,57c11.1,2.3,21.9,4.3,33.4,2.1c18.3-3.5,32-13,40.8-29c3.1-5.7,6.5-6.3,12-5.2
		c13.1,2.6,26.3,3.6,39.6,0.9c22.9-4.6,39.5-17,48.1-39.1c6.9-17.9,10-36,1.4-54.2c-2.3-4.9,0.7-6.6,3.3-9.1
		c14.4-13.3,23.5-29.6,26.9-49c5.4-30.1-10.4-53.2-35.3-59.9c-21.1-5.7-42-7.1-61.3,6.2c-0.4,0.3-1.2,0-2.1,0
		c-1.6-9.9,0.9-19.8,1.6-29.6c1.1-15.9,1.9-31.8,4.2-47.6c3.6-25.7,8.2-51.1,12.6-76.6c3.7-21.3,6.5-42.8,10.6-64
		c7.1-36.2,21.9-69.8,33.7-104.5c25.3-74.1,44.6-149.7,59.1-226.6c4.5-24.1,8.7-48.4,11.7-72.7c2.5-20.4,5.8-40.8,7.2-61.3
		c2.5-36.2,2.6-72.6,1.6-108.9c-0.4-14.3-0.1-28.6-0.1-43c0-24.7-4.2-49.1-7.1-73.6c-3-24.7-7.1-49.2-10.7-73.8
		c-5.7-39.1-17.5-76.3-28.9-113.9c-11.8-38.9-30.1-74.7-47.5-111c-16.6-34.9-32.9-69.9-50.5-104.3c-15-29.4-30.2-58.8-47.9-86.5
		c-19.6-30.5-40.3-60.4-63.6-88.3c-5.8-6.9-10.6-14.6-16.5-21.3c-34.2-39-71.5-74.4-114.3-104c-38.4-26.6-80.1-46.6-124-61.9
		c-52.2-18.3-104.8-35-159.6-43.9c-18.3-3-36.5-7-54.8-10c-10.5-1.7-21.2-0.9-31.8-2.5c-27.1-4.1-54.5-2.6-81.7-4.6
		c-10.1-0.7-19.9,1.3-29.8,1.4c-16.2,0.2-32.5,1.4-48.7,3.2c-22.1,2.5-44.1,5.6-65.9,9.8c-79.1,15.3-149.3,49.9-213.4,97.6
		c-28.1,20.9-48,48.3-59.6,80.9c-5.5,15.4-15.9,22.9-29,29.2c-2.4,1.2-4.9,2-7.3,3.1c-18.2,8.2-30.4,22.1-39,39.7
		c-4.3,8.9-4.6,9-13.6,7c-38.8-8.5-75.1-22.9-107.5-46.4c-14.6-10.7-27.8-22.9-38.6-37.5c-1.4-1.9-2.8-3.8-4.6-5.2
		c-6.2-5.2-14.6-3.7-18.9,3.2c-1.6,2.6-2.3,5.5-2.8,8.5c-10.8,63.7,0.1,121.4,47.3,169c1.5,1.5,4.1,2.5,3.4,6
		c-9.4,0.8-18.9,1.5-28.4,2.5c-106.8,11.3-192,60.2-255,147.2c-34.2,47.2-58.2,99.4-72.3,155.9c-10.6,42.2-10.2,85.3-5.5,128.2
		c7.7,69.4,28.4,134.7,61.8,196c16.7,30.5,36.8,58.7,59.2,85.3c27.3,32.3,55.4,64,82.7,96.4c27.2,32.3,50.4,67.1,66.4,106.4
		c4.6,11.4,8.7,23.1,12.2,34.9c6.7,22.6,4.4,44.8-3.5,66.7c-9,25.1-23.3,47.1-40,67.6c-11.2,13.7-23.4,26.5-36.7,38.1
		c-5.5,4.8-10.4,9.8-7.5,17.9c2.3,6.4,7.8,9.2,18.5,8.4c97.5-7.3,172.9-51.3,223.7-135.7c2.4-3.9,4.6-7.9,7.4-12.9
		c34.7,59.7,84.8,101.6,142.9,136.5c-11.5,8.6-22.1,16.4-32.7,24.4c-66.6,50.3-130.6,103.7-186.3,166.1c-24.2,27-47.5,55-65.9,86.5
		c-19.8,33.9-32.9,70.6-44,108c-16.5,55.8-26.7,112.8-32.4,170.6c-2.5,25.2-4.2,50.5-4.9,75.8c-0.1,2.6,0.5,5.4-1,7.8
		c-7.3,0-14.7,0-22,0c1.3-3.6,0.7-7.3,0.6-10.9c-0.2-16,1.7-31.8,2.7-47.6c0.8-13.6,2.5-27.1,3.3-40.7c0.7-10.9,2.8-21.6,4.4-32.4
		c3.8-26.6,8.6-53,14.7-79.1c3.6-15.4,7.9-30.5,12.5-45.7c9.8-31.8,20.6-63.2,34.9-93.2c10.9-22.8,24.3-44.1,40.9-63.4
		c9.7-11.2,19.6-22.3,27.7-34.8c5.4-8.4,13-15,19.7-22.3c14.7-15.9,30.2-31.1,45.9-46c10.3-9.8,20.6-19.6,31.3-29
		c8.9-7.9,17.7-15.9,26.8-23.6c9.6-8.1,19.1-16.2,28.8-24.1c15.7-12.6,31.5-24.9,47.2-37.6c2.6-2.1,5.3-4,8.1-5.7
		c3.1-2,3.2-3.9,0.1-6c-5.2-3.6-10.1-7.6-15.4-11c-32.4-21.2-60.4-47-83.7-77.9c-0.8-1-1.8-1.9-2.7-2.8c-0.2-0.2-0.6-0.2-1.4-0.4
		c-6.6,7.1-12.1,15.3-18.5,22.8c-10.3,11.8-21.3,22.9-32.7,33.5c-15.1,13.9-31.6,26.3-50,35.8c-20.6,10.7-41.9,19.9-64.2,26.7
		c-21.4,6.5-43.4,8.9-65.3,11.3c-10.8,1.2-20.3-2.6-28-10.2c-4-3.9-8.3-7.4-10.8-12.8c-6.3-13.3-5.1-23.1,5.7-33.3
		c7-6.6,14.3-13.1,20.9-19.9c17-17.6,32.1-36.9,44.2-58.5c8.4-15,14-30.5,17-47.4c2.7-15.3,0.3-29.8-4.1-44
		c-11.7-38.3-31.8-72.4-55.5-104.3c-13.6-18.3-28.5-35.4-43.3-52.7c-17.6-20.5-35.6-40.8-53-61.4c-23.7-28-45.1-57.4-63.1-89.2
		c-10-17.7-18.7-36-26.4-54.8c-12.6-30.7-23.8-61.8-30.4-94.3c-5.2-25.3-9.5-50.7-11-76.6c-0.8-15.3-1.5-30.6-1.1-45.8
		c0.6-25.5,3.3-51,10.4-75.6c4-13.7,9.3-27,14.2-40.5c12.9-35.8,29.9-69.6,51-101.3c8.8-13.2,18.9-25.5,29.1-37.7
		c12.4-14.8,26.3-28.3,40.3-41.4c16.1-15.1,33.6-28.8,52.8-40.3c21.8-13,44.9-22.8,68.4-32.3c24.8-9.9,50.6-15,76.8-19.8
		c1-3.5-1.8-5.5-3.3-7.7c-7.8-11.7-13.1-24.6-18.3-37.6c-10.7-26.5-12.8-54.2-11.4-82.1c0.7-14.7,0.9-29.9,8.5-43.5
		c4.4-7.8,10.6-13.7,17.6-18.7c9.4-6.7,23.8-4.2,32,4.1c7.5,7.6,14.1,15.8,21.1,23.7c10.6,11.9,24.2,20.7,37.8,28.9
		c16,9.7,33.1,17.1,50.5,23.8c8.4,3.2,17.5,3.4,26,6.4c3.4,1.2,5.5-0.3,7.4-3.1c6.2-8.8,14-16,21.8-23.3
		c9.6-9.1,20.4-16.1,33.2-19.6c5.6-1.5,8.9-4.8,11.4-10c11.5-23,24.5-45.1,40.7-65.1c17.4-21.5,37.7-39.5,63.8-49.9
		c13.4-5.4,25-14,37.3-21.3c29.4-17.5,61-29.4,93.9-38.5c21.1-5.9,42-12.4,63.5-17.1c23.5-5.2,47.2-6.6,71-9.3
		c43.5-4.9,87.1-3.3,130.7-2.8c31.8,0.4,63.5,2.9,94.8,10.1c32,7.4,64.2,14.3,96.3,21.3c31.6,6.9,61.5,19.1,91.6,30.8
		c43.4,17,83.1,40.4,120.8,67.6c25.2,18.1,49.6,37.2,72.4,58.2c31,28.5,58.7,59.8,81.8,95.2c12.2,18.7,24.9,37,37.9,55.2
		c13.4,18.7,25.2,38.4,35.8,58.8c16.6,31.9,33.2,63.8,50,95.6c16,30.4,29.9,61.7,42.3,93.7c13.8,35.7,28.8,70.9,40.6,107.3
		c3.5,10.7,6,21.8,8.5,32.7c8.8,38,12.9,76.7,18.6,115.2c5.9,40,6.1,80.4,8.6,120.6c0.8,13.3-0.6,26.6-1.5,39.9
		c-1.9,28.9-4.2,57.8-5.5,86.8c-1.4,29.7-4.7,59-11.5,88c-12.8,54.5-23.7,109.4-38.8,163.4c-14.9,53.2-31.9,105.7-50.9,157.6
		c-5.2,14.1-7.1,29-10.1,43.6c-3.2,15.6-5.4,31.5-8.4,47.2c-5.3,27.4-7.8,55.2-12.1,82.8c-1.7,10.8-3.7,21.6-5.5,32.4
		c-0.4,2.3-0.6,4.6-0.9,6.9c-0.4,3.1,1.1,4.4,4,4.1c5.9-0.4,11.9,1.1,17.8-1.4c3.8-1.7,7.8-1.2,11.8-0.3
		c12.4,2.7,23.2,8.7,32.1,17.4c17.9,17.8,31.6,37.7,30.6,64.7c-0.8,22-11,39.3-26.4,54.1c-1.2,1.2-2.5,2.3-3.9,3.1
		c-4,2.5-4.4,5.3-3.1,10.1c6.4,24.5,5.9,48.8-6.1,71.6c-9.3,17.6-25.3,27.2-43.9,32.1c-18.4,4.9-37.2,7.2-55.9,0.9
		c-3.4-1.1-4.7,0.7-6.5,2.9c-15.3,19.3-36.1,29-59.5,33.8c-29.8,6.2-57.8-10.5-70.5-38.1c-11.9-25.9-12.9-51.1-2.7-77.1
		c2.4-6.1,1.7-10-4.1-14c-16.2-11.2-21.2-27.5-21.7-46.7c-0.6-22.5,6.1-41.8,19.5-59.4c7.8-10.2,13.6-14.9,29.1-23.2
		c-9.8-13.2-17.5-27.4-23.4-42.6c-8.7-22.4-14.2-45.5-17.2-69.4c-3.5-28-5.8-56.1-6.5-84.3c-0.3-12.3-1.3-24.4,0.3-36.7
		c1.7-13.7-2-27.1-3.8-40.5c-2.3-17.3-0.6-34.5,1.3-51.6c1-8.4,3.5-16.6,3.5-25c-2.1-1-3,0.2-3.9,1.1
		c-16.6,17.9-34.7,34.1-53.9,49.1c-6.7,5.3-8.3,10.2-5.9,18.6c11.8,41.6,15.4,84.3,14,127.4c-0.2,5-0.4,10-0.3,15
		c0.5,20.8-5.9,39.9-14.2,58.6c-10.9,24.6-26.1,46.2-44.5,65.6c-7.3,7.6-12.9,16.9-22.2,22.6c-3.4,2.1-1.9,5.3-1.2,8.2
		c2.8,11.5,5.5,23.1,8.7,34.6c10.2,37.1,15.5,75.2,22.8,112.8c1.6,8.4,3,17,2.4,25.7c-1.2,16,2.2,31.8,3.4,47.6
		c1.6,19.6,3.3,38.9,0.9,58.5c-2.7,21.7-4.2,43.5-8.7,64.9c-2.5,12.3-5.2,24.6-7.3,37c-1.1,6.2-6.6,11.2-4.6,18c-8,0-16,0-24,0
		c7.5-29.3,15.2-58.5,19.2-88.6c4.6-33.8,6.6-67.6,1.5-101.5c-0.9-5.9-1.6-11.9-1.6-17.9c0.1-32.9-7.6-64.7-13.9-96.7
		c-6.5-33-15.2-65.4-24.2-97.7c-1.5-5.4-0.6-8.5,3.6-11.9c25.7-21.2,46.5-46.8,62.9-75.6c11.8-20.7,17.7-43.5,20.8-67.3
		c6.1-47.6-1.9-93.4-15.4-138.7c-1.6-5.3-5.6-11.2-3.6-16c1.8-4.3,7.8-6.9,12-10.1c36.4-28.3,70.5-58.9,100.4-94.1
		C1707.8,1403.4,1708.8,1404.1,1708.3,1406.3z"/>
	<path class="st2" d="M426,2220c0-18.6,2-37,3.7-55.5c0.8-9.2,1-18.5,2.2-27.7c2-15.4,3.3-30.9,5.4-46.3c2.7-20,6.8-39.8,10.8-59.6
		c7.2-35.2,17.4-69.5,30-103.1c3.9-10.3,7.7-20.5,12.3-30.5c14-30.4,33.3-57.3,54.3-83.2c11.3-14,23.7-26.9,35.8-40.1
		c8.5-9.4,16.7-19.1,26.2-27.4c23-20.1,44.6-41.7,68.2-61.1c19-15.6,37.7-31.4,57.1-46.4c19.9-15.5,40.2-30.4,60.8-44.9
		c2.4-1.7,4.4-2.4,7.3-1.2c22.9,8.9,45.9,17.6,68.8,26.5c2.4,0.9,5.1,1.7,6.8,4.9c-11.2,12.3-13.3,29-19.1,44
		c-8.7,22.3-15.8,45.2-20.8,68.5c-3.5,16.1-6.9,32.2-8.2,48.9c-1.6,20.3-1.3,40.5-1.3,60.8c0,17.2,2,34.3,5.6,51.2
		c5.3,24.2,9.1,48.8,14.5,73c2.2,10,2.9,20.3,6.2,30.1c0.7,2,0.6,3.7,0.3,5.8c-5.8,33.2-11.9,66.4-17.6,99.6
		c-2.8,15.9-6.4,31.8-7.3,48c-0.2,3.6-1.3,7.2-1.9,10.7c-2.6,14.3-5.2,28.6-7.6,43c-0.6,3.9-0.3,8-0.4,12c-43.3,0-86.7,0-130,0
		c-1.7-5.2,1.6-9,3.7-13c25.8-46.8,41.5-97.3,55.3-148.6c3.2-11.9,6-14,18.3-12.5c3.6,0.4,7.2,1.5,10.9,1.3c6-0.3,10.7-2.9,11.6-9
		c1-6.6-3.7-9.7-9.3-10.9c-5.8-1.3-11.8-2-17.7-3c-23.9-3.9-45.5-13.4-64.2-28.4c-22.2-17.9-33.4-41.7-35.2-70.2
		c-2.7-43.4,14.5-80.6,36.1-116.5c19.7-32.9,45.7-60.5,73.3-86.8c4.4-4.2,8.5-8.6,10.5-14.4c2.2-6.3-0.4-9-7-7.4
		c-5.9,1.5-10.9,4.9-15.8,8.4c-17.3,12.1-32.3,26.8-45.5,43.2c-28,34.7-53.3,71.4-64.5,115.1c-6.2,24.2-18.3,45.6-26.9,68.6
		c-5,13.5-7.1,27.7-12.2,41.2c-7.3,25.7-7.8,52.1-5.8,78.3c1.6,19.6,1,39.2,2.8,58.8c2.8,31.2,5.6,62.3,8.9,93.4
		c0.5,4.3,1.8,8.6-1.4,12.5C551.3,2220,488.7,2220,426,2220z"/>
	<path class="st2" d="M956,2220c0.7-14.3,4.2-28.1,6.5-42.2c3.5-21.5,7.3-43,9.9-64.7c1.7-13.8,2.6-27.7,5.2-41.3
		c0.5-2.9,0.4-6,0.4-9c0-4.4,1-8.4,3.6-12.5c24.1,13.1,49.8,20.8,76.4,25c10.1,1.6,20.6,0.1,30.9,0.7c13.5,0.8,26.4-2.2,39.4-4.7
		c3.1-0.6,6.4-1.5,9.1-3.9c4.5-4,6-9.8,3.7-15.3c-2.1-4.9-8.4-8.3-13.9-6.9c-15.6,4.1-31.4,4.6-47.4,4.8c-23.3,0.2-45.3-5-66.8-13.6
		c-8-3.2-15.7-7-23.2-11.5c-4.6-2.8-6.9-5.8-8.2-11.4c-5.9-25.5-9.3-51.5-15-77c-0.6-2.9-0.6-5.9-0.6-8.9c-0.1-14.7,0.9-29.4-0.2-44
		c-2-24.7,2.8-48.6,5.9-72.8c3.6-28.4,13.5-54.7,25.1-80.5c4.5-10,9.6-19.8,13.8-29.9c3-7.2,8.2-11.8,14.8-15.4
		c9.1-4.9,17.8-10.4,26.9-15.3c19.9-10.8,39.7-21.8,59.9-31.8c15.5-7.7,31.1-15.3,47.5-20.7c10.6-3.5,22-4.8,32.9-7.5
		c21.6-5.3,43.7-7.6,65.5-11.6c2.9-0.5,6-0.3,9-0.4c10.3-0.5,20.5,0.8,30.8-1.7c6.7-1.6,8.7,0,10.8,6.9
		c7.4,24.4,14.3,48.9,17.7,74.4c2.3,16.7,1.5,33.2,1.4,49.8c-0.1,8.5-2.2,17.1-3.9,25.5c-1.5,7.2-3.4,8-10.5,5.8
		c-12.7-3.9-25.2-8.4-38.2-11.3c-15.2-3.4-30.8-4.5-46-7.4c-14.5-2.7-29.4-0.3-43.7-2.4c-15.9-2.3-31.8-0.5-47.6-3.1
		c-11.4-1.9-23.3-0.4-34.9-0.4c-13,0-26-0.3-39,0.1c-7.3,0.2-14.6,0.9-21.7,2.3c-9.4,1.8-14.6,8.5-14,18.3
		c0.5,8.9-2.9,17.6-0.3,26.6c0.9,3.3-1.7,6.3-3.2,9.3c-2.9,6-5,12.2-4.8,19.1c0.2,5.4,2.2,9.2,7.5,10.3c12.3,2.7,24.8,5.1,37.4,3.7
		c10.5-1.2,16.6-11.5,14-22.2c-1.3-5.4-2.8-10.8-4.1-16c3.1-2.4,6.2-1.5,9.1-1.6c13.7-0.1,27.3-0.4,41,0.2
		c10.9,0.5,21.7,2.2,32.5,3.3c7.9,0.8,15.8,2.3,23.7,2.3c12.7,0.1,25,3.1,37.5,4.6c14.4,1.8,28.6,5,43.2,5.8c10.4,0.6,20.8,3,31,4.6
		c1.1,3.3-1.3,4.6-2.8,6.2c-13.1,14.4-28.1,26.3-44.7,36.3c-6.8,4.1-13.7,5.2-21.9,3.8c-12.3-2.1-24.9-3.1-37.3-5.1
		c-17-2.7-34.3-2.5-51.3-5.6c-8.7-1.6-17.8-0.6-26.7-2.3c-10.1-1.9-20.3-2.7-30.5-3.6c-12.9-1.1-26-1.2-38.9-0.1
		c-12.6,1.1-18.4,8.9-18.5,21.7c-0.1,8.6-0.9,17.4,2.3,25.7c1.4,3.6,0.6,6.3-0.9,9.4c-2.7,5.7-5.2,11.5-7.7,17.3
		c-4,9.4-0.7,17,9.1,19.1c11.6,2.5,23.4,4.5,35.4,4.3c13.3-0.3,23.5-12.6,21.4-25.7c-0.3-2-1.3-3.8-1.5-5.8c-1-7.4,0.7-8.6,8.1-7.5
		c9.2,1.3,18.2,3.4,27.6,3.1c10.6-0.3,21.1,1.8,31.5,3.4c7.2,1.1,14.5,2.4,21.7,2.4c13.1-0.1,25.5,3.8,38.4,4.9
		c17.2,1.4,33.9,6.1,51,7.4c9.2,0.7,18.1,3.9,27.5,3.9c3.2,5.8-1.3,9.6-4,13.3c-17.2,23.8-33.5,48.2-48.4,73.4
		c-24.1,40.5-41.2,84.2-58.4,128c-10,25.5-13.4,52.9-23.7,78.3c-1.4,3.4-1.7,7.2-5.5,9.1C1081.3,2220,1018.7,2220,956,2220z"/>
	<path class="st3" d="M1388,2060c0-12,2-23.7,3.5-35.5c0.5-3.9,0.5-8,0.5-12c-0.2-11.3-1.6-22.4-3.4-33.5c-1-5.9,1.5-11.6-0.3-17.7
		c-4-13.6-1.5-27.8-2.2-41.7c-0.2-3.7,1.7-6.3,3.6-9c10.5-14.9,21-29.9,31.5-44.8c0.6-0.8,1.6-1.4,1.9-2.3
		c3.9-11.2,13.4-14.7,23.4-18c14.2-4.7,28.3-9.8,41.1-17.8c4.5-2.8,7.1-2,9,3.7c4.9,14.8,11.5,29.1,13.3,44.7c1,8.6,3.1,17,5.2,25.3
		c4.2,16,7,32.4,10.2,48.6c2.2,11.2,3.3,22.9,4.8,34.4c2.3,17.7,2.5,35.7,4.4,53.4c2.2,20.3,0.9,40.5,1.6,60.8
		c0.5,12.7-1.3,25.1-3.6,37.5c-0.2,1-0.3,2-0.3,3c1.5,23.7-6,45.8-11.6,68.3c-1,4.2-1.7,8.4-2.5,12.7c-60,0-120,0-180,0
		c-2.7-4,0.3-7,2-10c20-36.9,34.2-76,43-117C1385.3,2082.2,1386.5,2071,1388,2060z"/>
	<path class="st2" d="M840,2220c-1-11.1,3.1-21.6,4.5-32.4c2.1-16.4,6.1-32.5,7.8-48.9c1.6-15.4,4.9-30.7,7.7-46
		c3.9-21.8,8-43.6,12-65.4c1.1-6.2,2.3-12.4,3.5-18.5c0.7-3.7,0.4-7.1-0.4-10.8c-6.4-29.4-12.8-58.8-18.7-88.4
		c-3.3-16.8-6.1-33.9-8-50.9c-1.2-10.2-0.2-20.6-0.4-30.9c-0.6-26.3,2.2-52.2,7.5-78c5.4-26.4,14-51.8,23.1-77.1
		c5-14,8.9-28.5,17-41.5c21.7,7.9,42.1,19.3,62.4,30.3c10,5.4,20.1,10.3,30.8,13.9c7.9,2.6,8,2.9,4.2,10.4
		c-8.9,17.5-17.2,35.3-24.7,53.4c-10.5,25.3-17,51.4-20.7,78.6c-2.7,20-4.8,40-7.2,60c-1.7,14.1-0.4,28.6-0.5,42.9
		c-0.1,16.3-0.5,32.5,3.8,48.5c0.6,2.1,0.1,4.5,0.1,8.8c-7.8-12.3-13.1-23.5-15.6-35.9c-0.9-4.5-2.2-8.9-2.5-13.7
		c-0.5-8.1-7-14.4-13-13.8c-8.2,0.9-13.9,8.2-12.6,17.3c2.2,15.1,6.4,29.7,12.6,43.8c9.1,20.8,22.6,38.3,39.4,53.3
		c5.1,4.6,7.6,8.8,6.4,17c-3,19.6-5.5,39.3-8.3,58.9c-0.6,4.3-0.2,8.6-0.3,13c-2.2,3.7-0.5,7.8-1,11.7c-0.3,2.2-1.1,3.9-3.3,4.4
		c-1.8,0.4-3-1-4.1-2.4c-2.8-3.7-4.4-8.2-6.8-12.2c-9.8-16.8-25.5-20.7-41.6-10.3c-13.8,8.8-17,29.2-6.9,43.4
		c10.1,14.2,28,16.7,42.1,5.9c3.5-2.6,6.3-5.9,9.2-9.1c1.5-1.7,3.2-4,5.7-3.2c3,1,1.5,4,1.6,6.1c0.1,1.9,0.5,4-0.9,5.7l0,0
		c-2.6,3.7,0.5,8.3-2,12c-3.8,9.2-3.1,19.3-6,28.7c-2.1,7-0.8,14.6-3.9,21.3C901.3,2220,870.7,2220,840,2220z"/>
	<path d="M608,1974c2.7-6.4,3.9-13.4,5.4-20.1c4.8-20.7,13.9-39.4,23.8-57.9c0.9-1.7,2.4-3.2,2.6-5.3c2.9-23.8,12.4-45.4,22.4-66.8
		c9.6-20.5,22.6-39.1,36.1-57.3c10.1-13.6,20.8-26.7,32.9-38.6c9.4-9.3,19.9-17.6,31-24.9c4.2-2.8,8.8-4.8,13.6-6.1
		c6.9-1.8,11,2.2,9.1,9.1c-2.4,8.8-8.9,14.5-14.9,20.7c-12.9,13.4-26.6,25.8-38.7,40c-12.1,14.2-22.7,29.4-32.6,45.2
		c-16.7,26.7-30.1,55-34.2,86.4c-4.2,32.1,1.3,62.6,24.5,87.3c12.2,13,27.6,21.8,44.2,28.2c14.3,5.5,29.2,8.8,44.5,10.1
		c1.9,0.2,3.9,0.9,5.7,1.7c5.2,2.5,8.9,8.4,8.1,12.6c-1,5.7-7.4,11-13.4,11.6c-5.5,0.6-10.5-1.7-15.8-2c-9.8-0.7-10.4,0.2-12.6,9.6
		c-2.6,11-5.9,21.8-9,32.6c-9.3,32.6-20.7,64.5-35.1,95.3c-5.5,11.7-11.8,23-17.8,34.5c-9.3,0-18.7,0-28,0c-2.5-2.4-3.8-5.4-4.9-8.6
		c-21.2-61.7-40.1-124-48.7-189C604.3,2006.1,605,1990.1,608,1974z"/>
	<path class="st4" d="M1144,2220c5.1-16.4,11.8-32.5,15.1-49.3c5.7-29.2,19.4-55.4,29.1-83.1c4.2-11.8,9.3-23.4,14.8-34.5
		c9.3-18.6,18.5-37.3,29.6-55.1c14.9-23.9,30.6-47.2,46.8-70.2c2.1-3,4.2-5.9,4.6-9.8c5.3,0,10.7-0.2,16,0.1
		c8.6,0.5,13.8-3.5,16.6-11.3c1.7-4.7,3.7-9.3,4.9-14.1c1.3-5.5,4.9-7.7,9.8-8.5c16.3-2.8,32.6-5.4,48.6-9.8
		c1.6-0.4,3.2-0.7,4.9,0.8c-2.8,5.2-5.4,10.5-10.5,14c-1.9,1.3-3.5,3.1-4.1,5.5c-1.8,7.4-7.4,12.5-12,18.1
		c-16.3,19.7-30.6,40.9-43.8,62.7c-9.2,15.3-16.5,32-26.9,46.5c-7.2,10.1-13.6,20.3-19.1,31.3c-6.4,12.8-11.7,26-16.4,39.5
		c-7.9,22.9-17.2,45.3-24.2,68.5c-5.8,19.2-12.6,38.4-13.8,58.8C1190.7,2220,1167.3,2220,1144,2220z"/>
	<path class="st1" d="M1240,2220c-0.3-7.8,2.4-15.1,4.3-22.4c10.4-39.2,22-78.1,37.8-115.6c14.7-34.8,32.8-67.5,55.8-97.6
		c8-10.5,15.1-21.8,23.9-32.3c3.6,2.5,3,6,3.2,9.1c1.2,19.9,2.1,39.7,0.3,59.7c-1.8,20.2-4.2,40.2-7.1,60.2
		c-4.4,29.7-16.8,55.7-34.6,79.5c-13.6,18.2-28.3,35.3-44,51.6c-2.2,2.2-5.8,3.6-5.5,7.7C1262.7,2220,1251.3,2220,1240,2220z"/>
	<path class="st4" d="M608,1974c0,9,0.3,17.9-0.1,26.9c-0.7,14.4,2.2,28.3,4.5,42.3c3.4,20.1,7.4,40.3,12.5,60
		c8.1,31.4,17.4,62.5,28.1,93.1c2.7,7.8,6.3,15.3,7,23.7c-15.3,0-30.7,0-46,0c-1.9-14.7-4.1-29.4-5.6-44.1c-1-9.9-0.4-19.8-2.4-29.6
		c-2.7-13.6-0.7-27.7-3.8-41.4c-0.2-1-0.2-2-0.2-3c1.3-26.2-3.3-52.3-2-78.5c0.7-15.9,2.6-31.6,6.3-47
		C606.5,1975.5,607.4,1974.8,608,1974z"/>
	<path class="st5" d="M1388,2060c0.3,19.3-3.7,38-8.4,56.5c-8.2,32.2-20.3,62.8-35.8,92.2c-2,3.7-5.5,6.7-5.8,11.3c-10,0-20,0-30,0
		c16-17.3,29.5-36.6,43.9-55.1c10.1-12.9,17.5-27.4,21.9-43.3c5.3-19.5,9.9-39.1,12.5-59.2C1386.4,2061.5,1387.4,2060.8,1388,2060z"
		/>
	<path class="st6" d="M922,928.1c15.2,23.8,33.2,45,55.6,62.3c12.8,9.9,27.1,16.8,42.7,21.3c10.4,3,9.4,1.9,9.3,11.9
		c-0.5,27.7,1.8,55.2,5.1,82.7c0.2,1.6,0.9,3.3-0.2,4.7c-1.3,1-2.5,0.8-3.8,0.2c-61.3-28.7-115.4-66.6-156-121.7
		c-32.5-44.1-49.8-93.6-53.2-148.4c-2.4-39.1,2.3-77,13.6-114.4c1-3.2,1.8-6.4,1.6-9.8c-0.4-5.2-3.2-8.7-8-10.4
		c-4.5-1.5-8.5-0.4-11.9,3c-2.4,2.4-3.9,5.3-4.9,8.6c-7.1,21.6-11.5,43.8-13.9,66.3c-2.5,23.9-2.7,47.9-0.2,71.8
		c1.1,10.3,2.7,20.5,4.7,30.6c1.6,8.2,1.6,8.3-6.6,11c-35.8,12-68.3,29.8-97.4,53.8c-11.9,9.8-23.1,20.3-32.5,32.4
		c-4.8,6.1-9.2,6.9-16.2,4.7c-24.5-7.7-48.5-16.7-71.1-29.1c-1.7-0.9-3.5-1.8-5.9-3c-0.9,4.6,2.2,7.2,4.1,9.9
		c14.6,20.7,33,37.4,54.3,51c7.7,4.9,7.8,4.9,3.7,12.9c-19.5,38.3-28.7,79.3-31.4,122c-2,32.1,1.1,63.9,4.1,95.7
		c3.5,36.8,9.5,73.4,9.1,110.5c-0.2,19.1-1.7,37.9-7.7,56.2c-7.8,23.8-21.2,44.5-37,63.6c-37.3,45.1-85.2,72.8-142.3,84.7
		c-1.3,0.3-2.6,0.5-3.9,0.6c-0.6,0-1.3-0.3-2-0.5c0.3-3.8,3.5-5.5,5.6-7.9c21.3-25,40.3-51.4,52.1-82.4
		c12.1-31.7,13.2-63.2,2.4-95.8c-16.6-49.7-42.8-93.7-75.5-134.3c-19.7-24.4-40.8-47.5-61.4-71.2c-28-32.2-55.2-65.1-76.9-102.1
		c-31.8-54.4-51.8-113.1-61.9-175.2c-5.8-36-7.4-72.2-3.8-108.5c2.9-28.7,11.1-56.1,21.7-82.8c18.3-46.2,42.3-88.9,75.5-126.3
		c47.9-54,107.3-87.8,177.7-102.5c31.2-6.5,62.7-8.4,94.4-6.2c3.3,0.2,6.7,0.5,10,0.3c4.7-0.3,8.3-2.8,9.9-7.2
		c1.8-4.7,1.5-9.3-2.2-13.1c-2.5-2.6-5.6-4.7-8.5-6.9c-21.7-16.4-41-35.2-54-59.5c-14.3-26.6-17.8-55.2-16.7-84.6
		c3.8-1.4,5.1,1.1,6.7,2.5c40.7,37.5,89.2,59,142.9,69.4c31.8,6.1,63.8,4,95.4-1.9c37-6.9,73.8-15,110.8-21.5
		c49.4-8.8,99.2-11.7,149.3-8c33.9,2.5,67.7,6.1,100.7,14.8c43.4,11.5,83.5,29.8,116.6,60.9c39.7,37.3,63.5,82.8,68.1,137.3
		c4,47.1-10.8,88.7-39.8,125.4c-20.2,25.6-45.9,45.3-71.7,64.9c-21.7,16.6-43.7,32.9-63.7,51.5c-33.8,31.4-62,67-78.4,110.8
		c-6.7,17.8-10.9,36.3-14.2,55.1c-1.4,8.1-1.7,8.1-9.7,6.7c-32.7-5.4-62.5-18.3-90.3-36.1c-2.8-1.8-5.6-3.5-8.5-5.3
		c-0.9-0.4-1.5-1.2-2.3-1.7l0,0c-1.4-1.4-3.3-1.7-4.9-1.1c-0.5,0.2,0.3,2.1,0.5,3.3l0,0C921.3,925,920.7,927.1,922,928.1z"/>
	<path class="st7" d="M1811.8,1225.3c-0.3-3.9,1.7-7.2,3.4-10.3c7.4-14.4,10.6-30,14.1-45.5c2.7-11.9,0.5-23.9-1.5-35.7
		c-7.7-47.3-18.9-93.8-35.7-138.9c-18.7-50.1-43-97.5-69.6-143.8c-35.9-62.5-76.5-121.8-120.8-178.7c-33.6-43.1-73-80.3-115.5-114.3
		c-15.1-12.1-30.3-23.9-45.6-35.8c-41.3-32.1-87.2-56.3-134.7-77.8c-6.2-2.8-10.2-6.6-13.5-12.4c-15.3-27.2-36.4-49-61.5-67.4
		c-27.8-20.4-57.9-35.2-91.9-42c-18-3.6-36.3-4.2-54.2-7.3c-27.7-4.9-55.5-5.6-83.5-5.1c-5.6,0.1-11.3-0.1-16.9-0.8
		c-16-1.8-31.8,0.2-47.7,2c-11.8,1.3-23.7,2.6-35.6,3.5c-20.7,1.6-40.6,6.9-60.5,11.7c-30.3,7.4-61,12.8-92.1,16.2
		c-13.1,1.4-26.4,1.7-41.1,0.5c3.8-6.1,7.8-10.6,12.3-14.9c17.6-16.5,37.5-29.6,59-40.7c38.9-20.3,79.7-35.3,122.1-46
		c22.5-5.7,44.6-13.1,67.9-15.7c19.1-2.1,38.1-5.3,57.4-5.9c2.3-0.1,4.6-0.5,6.9-1c15.4-3.5,31-3.7,46.6-2.2
		c6.4,0.6,12.5-1.3,18.9-1.1c35.7,0.8,71.1,5,106.5,9.2c44.3,5.3,88.3,13.5,132.8,17.2c3,0.2,6.1,0.6,8.8,1.8
		c28,11.8,57.4,19.2,85.9,29.5c73.6,26.4,144.1,59.3,210.8,100.1c20.5,12.5,39.1,27.7,58.9,41.4c20.9,14.4,40.3,30.6,58.2,48.6
		c22.1,22.1,39,48,55.4,74.4c33.4,53.9,62.8,109.9,85.5,169.1c15.4,40.4,27.8,81.9,32.6,125.1c2.7,24.7,5.7,49.4,7.3,74.2
		c1.7,27.9,2.8,55.7,3.1,83.7c0.2,21.2-4.4,41.6-8.3,62.1c-12.2,64.2-39.1,121.4-81.4,171.3c-6.7,7.9-14.6,14.6-22.7,21
		c-8.3,6.5-17.4,9.6-27.9,7.2c-1.5-2.7-1.3-5.3-0.1-8l0,0.1c1.4-1.1,1.1-2.9,1.9-4.2l-0.1,0.2c1.7-1,1.4-2.8,1.9-4.3l-0.1,0.2
		c2.8-1.2,0.8-4.3,2.4-5.9l0,0.1C1811.4,1228.8,1811,1226.8,1811.8,1225.3z"/>
	<path class="st7" d="M1322.2,637.9c6.5,19.4,17.9,35.6,33.3,49c14.1,12.4,30.6,19.9,48.9,23.5c6.9,1.3,13.7,2.7,20.7,3.6
		c3.8,0.5,5.3,2.1,4.7,5.8c-0.5,3.3-0.8,6.6-1.1,9.9c-2.8,28.6,0.4,56.4,10.5,83.5c9.8,26,27.6,44.3,51.9,57
		c2.1,1.1,4.1,2.1,6.2,3.2c0.6,0.3,1,0.9,2.1,1.8c-7.9,11.8-11.7,25.1-14.4,38.9c-6.6,34.5-3,67,18.8,95.9c1.2,1.6,2.3,3.3,3.5,4.9
		c1.9,2.3,1.2,4-0.6,6.1c-21.2,23.5-25.4,51.9-23.2,82.1c0.9,12.4,3.1,24.5,9.5,35.4c2.5,4.3,1.8,6.9-1.6,10.3
		c-8.9,8.7-15.5,19.1-21.7,29.8c-6.1,10.6-10.1,21.9-10.7,34c-0.6,11.6-2.2,23.1-0.3,34.8c1.5,9.4-0.5,9.3-7.8,9.8
		c-27.2,2-53,9.5-77.1,22.5c-37.2,20.1-62.3,50.4-76,90.3c-9.2,26.9-15.3,54.5-16.3,83.1c-0.2,5.3,0,10.6,0,16.4
		c-8.6-2.3-16.9-3.6-25.6-3.6c-16.8,0-32.3,3.8-46.9,11.8c-14.7,8-28.9,16.8-41,28.3c-12.9,12.3-28.5,15.5-45.1,14.6
		c-10.8-0.6-20.5,1.6-29.3,7.5c-8.6,5.8-17,11.7-25.1,18.2c-4,3.2-8.1,4.3-12.9,3.7c-10.4-1.2-19.4-3.7-26.2-13.5
		c-10.4-15.2-24.1-27.5-40.1-37.1c-19.8-11.9-40.3-14.7-62.3-7.2c-6.5,2.2-13.2,4.1-19.9,7.2c-4.1-9.8-7.7-19.1-15.3-26.2
		c-12.8-12.1-27.7-20.7-44.4-26.2c-3.5-1.1-7.1-2.1-10.8-1.6c-7.5,1.2-12.1-2.8-17-7.9c-24.6-25.4-39.5-56.7-54.4-88
		c-18.7-39.2-32.8-80.1-41.5-122.7c-7.8-38.4-10-77.3-8.5-116.3c0.7-17.6,1.4-35.3,3.7-52.8c1.1-8.1,1.1-8.1,9.1-7
		c13.6,1.9,13.7,1.9,13.4,16.1c-0.8,36.5,2,72.6,11.3,108c5.3,20.1,12.9,39.2,25.3,56.2c24.8,34,70.3,45.8,105.8,27.6
		c15-7.7,25.8-19.8,34.2-34.1c12.5-21.2,19.4-44.5,24-68.5c3.2-16.7,5.6-33.5,6.3-50.5c0.1-2.9,0-6,2-8.8c3.9,0.1,6.4,3.1,9.4,4.9
		c24,15.2,49,28.4,75.2,39.2c2.8,1.1,5.5,2.4,8.4,3.3c14,4.5,22.4-2.6,20.3-17.1c-1.7-11.5-3.6-23-5-34.6
		c-2.9-22.5-3.9-45.1-3.7-67.8c0.1-6.9,0.3-7.2,7.2-7.4c6.9-0.2,15.3-3.9,20.2,0.3c4.4,3.8,2.2,12.6,3.1,19.1
		c5.7,43.1,15.6,85.2,32.9,125.2c8.1,18.7,18.6,36,31.4,52c56.3,70.4,155.1,50.4,195.5-6.3c16.1-22.7,26.1-47.9,32.3-74.7
		c9.5-40.9,10.9-82.4,9.2-124.2c-1.7-39.4-6.7-78.3-14.3-116.9c-1.7-8.4-1.8-8.6-10.2-6.6c-52.2,12.3-103.9,26.4-154.8,43.5
		c-33.5,11.2-66.8,22.7-101.4,30.5c-12.7,2.8-25.5,4.9-38.4,6.7c-8,1.1-8.4,0.3-7.1-8c8.8-54.4,35.6-99.1,74.4-137.3
		c18.8-18.5,39.6-34.7,60.5-50.7c18.5-14.2,37.1-28.3,54.6-43.7c29-25.5,51.8-55.4,65.7-91.7c1.9-0.9,0.3-5.3,4.3-4.1l0,0
		C1322.1,632.2,1319.6,635.7,1322.2,637.9z"/>
	<path class="st8" d="M1894.2,1514.5c-7.7,23.8-11.8,48.4-17.5,72.7c-7.5,32-14.2,64.2-19.1,96.7c-2.5,16.7-6.4,33.3-7.5,50.2
		c-1.3,19.2-2.6,38.5-4.6,57.5c-1.6,15.2,0.2,30.6-3,45.7c-2.3,10.8-8.2,18.8-16.5,25.4c-5.3,4.2-7.5,3.8-13.4-0.1
		c-4.9-3.3-8-8-10.8-12.9c-16.6-29.2-33.4-58.4-49.5-87.9c-12.7-23.3-18.8-49-24.2-74.8c-3.9-18.5-5.9-37.4-8.4-56.1
		c-5.4-39.1-4.3-78.5-2.9-117.6c1.2-34.4,4.9-68.8,12.8-102.6c3-12.9,5.1-26,10.6-38.3c2-4.6,3.7-9.4,6.8-13.3
		c16.7-21,28.3-45,40.3-68.8c2.5-5.1,4.8-10.2,8.1-14.9c1.9-2.6,4-4.6,7.3-4.6c28.6-0.2,48.5-16.4,65.8-36.7
		c41.8-49.1,68.6-105.9,85.9-167.6c10.3-36.8,13.5-74.6,11.3-112.6c-1.9-32.8-3.8-65.6-8.2-98.2c-3.2-23.3-8.3-46.4-12.3-69.6
		c-7.3-42.2-21.4-82.4-35.8-122.5c-4.2-11.7-11.4-21.8-17.1-32.7c-14.6-27.7-29-55.5-45.2-82.3c-23.4-38.8-46.9-77.6-80.7-108.8
		c-22.6-20.8-46.8-39.5-71.8-57.2c-29.1-20.6-59.7-38.8-91.1-55.9c-66.1-35.9-135.5-63.9-206.8-87.2
		c-33.3-10.9-67.1-19.1-101.9-23.6c-10.2-1.3-20.1-4.5-30.3-6.1c-20.7-3.3-41.4-5.5-62.3-7.4c-24.9-2.3-49.8-3.1-74.6-4.8
		c-13.5-0.9-27.3,0.4-40.7-3c-1.6-0.4-3.4-0.4-5,0c-13.4,3.2-27.2,2.2-40.8,2.9c-62.6,3.1-123.4,14.5-182.3,36.1
		c-25.6,9.4-51.5,18-77.5,27.1c-2-1.8,0.2-3.4,0.8-5.1c6.6-21.6,20.4-37.7,38.4-50.8c26.6-19.5,54.1-37.7,82.4-54.6
		c6.5-3.9,13.7-6.8,20.8-9.7c34.2-14,69.1-25.7,105.6-32.6c20.9-3.9,41.9-7.5,63-9.3c11.9-1,23.9-1.8,35.8-2.6
		c23.3-1.6,46.6-2.4,69.8-1.1c16.2,0.9,32.5,0.1,48.7,3c6.8,1.2,14,1.1,20.8,1.3c18.2,0.5,35.3,6.1,53,9.2
		c52.5,9.1,103.8,23,154.6,39.1c55.6,17.6,105.5,45.4,152.1,80.3c25.1,18.8,49.3,38.7,71.6,60.7c39.8,39.3,72.5,84.3,102.2,131.4
		c19.8,31.3,37.6,63.7,53.3,97.2c8.5,18.1,15.7,36.7,24.3,54.7c7.7,16.3,16.4,32,24,48.3c7.8,17,14.3,34.4,20.5,52
		c7.2,20.4,14,40.9,21.2,61.3c3.1,8.8,5.1,17.9,7.2,27c5.9,25.9,15.2,51,19.3,77.4c5.4,35.1,13.8,69.7,16.3,105.3
		c1.3,17.9,3.4,35.9,2.7,53.7c-0.8,19.3,0.2,38.7-1.5,57.9c-1.8,20.6-0.6,41.3-2.4,61.8c-1.6,17.8-3.1,35.7-5.7,53.4
		c-3.3,23.3-6.7,46.6-10.9,69.9c-5.3,29.8-11.7,59.3-18.3,88.8c-10.6,47.1-24,93.5-39.4,139.2c-0.5,1.6-1.2,3.1-1.9,4.6
		C1903,1485.8,1898.7,1500.2,1894.2,1514.5z"/>
	<path class="st2" d="M1482.4,1226.5c-4.3-26.8,11.1-45.4,26.3-64.2c3-3.7,7.4-5.5,11.2-8.3c7.5-5.4,8.3-9.1,1.9-15.1
		c-12-11.1-15.4-25.2-15.8-40.6c-0.4-13-0.5-25.9,3.8-38.5c2.4-7,5.6-13.5,9.4-19.7c2.2-3.5,5.5-6.4,9.7-8.3
		c10.3-4.8,11.9-13.2,4.2-21.6c-8.2-8.9-15.5-18.3-20.6-29.2c-4.2-9.1-6.2-18.6-6.9-28.8c-1.8-25.6,4.3-49.4,14.1-72.7
		c0.8-1.9,1.6-3.5,2.8-5.2c5.9-8.3,4-15.3-5.9-18.3c-8.7-2.6-16.7-6.6-24.3-11.2c-19.5-11.9-30.4-30.2-36.2-51.8
		c-4.9-18.1-7-36.5-6-55.2c0.4-7.2,1.6-14.5,2.9-21.6c0.6-3,1.1-5.9,0.9-8.9c-0.4-9.3-6.5-15.4-15.8-15.4
		c-16.8-0.1-32.9-3.5-48.4-9.7c-3.4-1.4-6.7-2.8-9.7-5c-19.5-14.5-34.4-31.6-38.7-56.8c-2.1-12.5-3.8-25.8-12.1-36.5
		c-1.3-1.7-1.3-3.7-1.3-5.7c0-2.7-0.1-5.3,0-8c1.7-27.7-3.5-54.2-12.9-80.1c-1.2-3.4-5.2-7.7-1.6-10.9c3.4-3,8-0.4,12.2,0.5
		c16.3,3.8,20.7,17.4,25.8,30.3c6.3,16.1,9.1,17.6,25.8,12.4c20.9-6.5,16.3-8.1,36.8,7c20,14.8,39.5,30.3,59.2,45.4
		c3.5,2.7,5.8,6,7.4,10.3c5.1,13.9,7.9,28,7.3,42.9c-0.5,12.7,3.1,16.3,15.7,15.9c13.4-0.4,24.4,5.9,35.5,11.8
		c27.1,14.5,46.1,36.3,58.1,64.6c6.3,14.7,11.5,29.7,14.2,45.5c1.5,8.5-1.3,16.4-3.4,24.4c-1,3.8-2.5,7.5-2.3,11.7
		c0.4,7.6,4.1,10.9,11.6,9.9c14.6-2,29,8.5,31.9,23.1c0.5,2.5,0,4.6-1.2,6.6c-2.7,4.6-5.4,9.2-8.4,13.5c-5.1,7.3-5.3,9,1.4,15
		c5.2,4.6,11,8.5,15.8,13.7c13.6,14.9,20.9,32.8,25.2,52.3c5.2,24-0.8,45.3-13.7,65.4c-3.9,6-2.9,12.7-1.1,19.3
		c9.4,33.6,3.4,64.9-14.7,94.3c-6.2,10-15.7,16.3-25.3,22.1c-15,9.1-15.2,11.7-7.8,28c13.8,30.4,11.9,59.1-9.3,86.1
		c-9.2,11.7-19.7,21.6-32.2,29.4c-7.1,4.4-11.4,11-16.4,17.1c-2.3,2.9-1.9,6.3-0.9,9.5c0.9,2.9,2.2,5.6,2.8,8.5
		c2.8,12.2-6.2,21.9-18.6,20.1c-15.3-2.2-18.2-0.7-25.2,12.5c-0.8,1.5-1.4,3.1-2.3,4.4c-2.4,3.5-4.7,3.5-6.9,0.1
		c-1.2-1.9-1.9-4.2-2.7-6.4c-8.1-22.2-15.1-44.8-19.1-68C1485.9,1261.3,1479.5,1244.4,1482.4,1226.5z"/>
	<path class="st6" d="M1271,1862.7c2-4,5.5-5.4,8.3-7.5c23.1-17.1,42.6-37.3,56.4-62.6c17.1-31.3,19.8-65.2,17.7-99.9
		c-2.3-38.3-13.4-74.6-24.7-110.8c-7.8-25.1-14.8-50.4-19-76.5c-6.5-40.9-2.7-80.9,9.9-120.3c5.8-18.3,13.9-35.3,26.2-50.1
		c21.3-25.7,49.2-40.2,81-48.2c9.7-2.5,19.7-3.4,29.6-4.4c7.3-0.7,7.5-0.6,9.4,6.9c4.6,17.7,10,35.2,15.7,52.6
		c6.5,19.5,15.6,37.4,26.9,54.4c28.8,43.3,50.7,89.9,65.5,139.7c9.1,30.8,15,62.1,15.4,94.3c0.7,63.6-25.3,114.8-73.1,155.4
		c-34.4,29.3-75,46.7-118.1,58.7c-34.4,9.6-69.5,15.3-105.2,17.6C1285.9,1862.3,1278.9,1864.5,1271,1862.7z"/>
	<path class="st2" d="M676,1402.4c-0.5-4.4,0.7-9.5,2.3-14.7c4.3-13.4,2.4-16.9-10.3-22.1c-6.5-2.6-12.7-5.9-18.9-9.2
		c-7.7-4-11.1-9.8-11.4-19.1c-1-31.1-2.3-62.2-8.9-92.8c-1.9-8.6-3.1-17.6-2.9-26.6c0.4-18.3,0.2-36.7,0.1-55
		c-0.2-28.4,3.3-56.3,12.4-83.2c4.6-13.8,8.3-27.9,13.8-41.3c3.4-8.3,3.4-8.3,12.1-5.3c9.3,3.1,18.1,7.9,28.1,8.7
		c5,0.4,5.4,2.6,4.5,7.3c-2.5,12.3-4.9,24.8-5.5,37.3c-0.4,7.8,0.8,15.8,0.6,23.8c-0.2,9.3,0.9,18.6-1.7,27.8c-1,3.7-0.8,8,0.7,11.8
		c1.1,2.9,1.1,5.9,1,8.9c-0.1,11.3,2.9,22.4,3.4,33.5c0.6,14.1,5,27.5,5.9,41.2c1.7,25.5,11.9,48.3,19.7,71.8
		c5.9,17.9,13.5,35.4,22.6,52.1c15.6,28.6,33.2,55.8,53.6,81.4c6.4,8.1,14.7,14.5,20.1,23.4c1.9,3.1,4.9,4,8.6,4.2
		c27.7,0.8,45.8,17,60.3,38.5c2.2,3.3,3.4,7,4,11.1c1.3,9.1,4.5,11.3,13.5,10.3c4-0.4,7.8-1.6,11.2-3.9c9.5-6.6,20.7-8.9,31.6-11.7
		c6.4-1.6,12.8,0.2,18.5,2.5c10.5,4.2,20.4,9.5,28.7,17.6c13.9,13.5,26.3,28.1,35.4,45.4c2.8,5.3,2.9,9.6-0.6,14.7
		c-7.6,11.1-11.9,23.6-14.7,36.7c-1.8,8.4-5.1,16.4-6.4,25c-0.8,5.5-3,5.9-8.2,2.3c-20.3-14-41.7-25.9-63.7-37
		c-18.8-9.4-38.3-16.8-58.1-23.6c-13.2-4.5-26.7-8.4-39.4-14.1c-12.7-5.7-26.3-9.4-38.6-15.7c-21.1-10.7-38.6-25.9-49.1-47.8
		c-4.8-10.1-5.8-21-6.2-32c-0.3-9.3-2.6-10.9-11.6-12.6c-20.7-3.9-38.6-12.6-47.9-33C679.4,1427.7,675.5,1416,676,1402.4z"/>
	<path class="st4" d="M1576,1466c-5.5-13.9-14.1-26.1-20.2-39.7c-5.7-12.6-13.7-24.3-21-36.2c-1.9-3.1-3.9-6.2-5.4-9.5
		c-0.6-1.2-1.5-3-1-3.7c3.6-5.9,7.3-11.8,11.5-17.2c2.3-2.9,6.2-1.7,9.5-1.7c17.5-0.3,31.2-10.2,35.7-26.3c2-7.2,1.8-14.7,0.4-21.8
		c-1-5,0.6-7.3,4.2-9.8c7.3-5.2,14.9-10.2,21.3-16.3c19.6-18.7,33.9-40.4,39.4-67.7c3.9-19-2.3-36-7-53.5c-2-7.4-2.6-7.9,3.9-12.1
		c8.8-5.6,16.1-12.5,22.6-20.7c10.4-13.2,15.9-28.5,19.8-44.2c3.1-12.1,4.6-24.7,4.6-37.4c0.1-10.1-2.3-19.7-4.2-29.4
		c-0.7-3.3-0.6-5.8,0.9-9.3c5.8-13,11.8-25.8,14-40.2c3.2-20.3,1.2-39.7-6.4-58.6c-3.6-8.9-7.8-17.5-12.6-25.9
		c-4.5-7.9-9.9-15-16.7-20.9c-3.5-3.1-4.2-5.7-2-10.2c8.6-17.7,6.1-31-7.4-45.3c-5.8-6.1-12.1-11.3-19.9-14.7
		c-7.5-3.3-6.8-3.6-6.1-11.9c0.8-9.2,1.3-18.5-0.8-27.8c2.7-1.2,3.4,1.3,4.4,2.5c23.7,33.3,44.9,68.2,65.7,103.4
		c2.7,4.5,6.8,8.3,7.2,14.1c12.7,35.9,20.8,72.9,25.8,110.6c2.4,18.2,0.5,36.6,0.9,54.9c1.7,66.8-12.1,131.1-31.6,194.4
		c-17.3,56.2-42.1,109.4-71.4,160.3c-14.5,25.2-32.3,48-52.5,69C1579.7,1464.6,1578.1,1465.8,1576,1466z"/>
	<path class="st2" d="M1576,1466c7.1-12.2,19-20.3,27-31.9c6.2-9,12.8-17.7,19.2-26.5c13-18.2,22.2-38.5,32.7-58.1
		c8.4-15.8,16-32.1,22.6-48.7c12.5-31.1,25-62.1,33.4-94.6c6-23.4,11.4-46.9,15.2-70.8c2.7-17,5.3-33.9,7.9-50.9
		c0.4-2.6,0.2-5.3,0.2-8c0-24.3-0.4-48.6,0.2-73c0.4-15.4-2.9-30.3-5.3-45.3c-4.2-27.2-11.7-53.7-19.8-79.9
		c-0.6-1.8-0.7-3.2,0.9-4.4c0,0,0,0,0,0c0.5,0.8,1.3,1.3,2,2l0,0c1.2,1.1,0.8,3,2,4c12.4,21.6,24.5,43.4,34.5,66.3
		c5,11.6,10.3,23,15.2,34.7c10.5,24.8,19.1,50.3,26.1,76.2c5.2,19.1,9.7,38.5,13.4,58c2,10.7,3.5,21.5,4.7,32.4
		c1.5,13.9-3.6,26.8-7.5,39.8c-11.4,38.1-28.6,73.6-48,108.2c-10.4,18.5-21.1,36.8-33.9,53.9c-3.6,4.9-7.9,9-12.1,13.2
		c-7.3,7-13.2,14.9-18.8,23.1c-8.8,12.9-17.2,26.1-28.9,36.6c-21.2,19.1-41.6,39.1-64.5,56.1c-8,6-8.5,9.4-14.6-3.8
		c-0.7-1.5-1-3.1-1.4-4.7C1576.8,1468.9,1577.3,1467,1576,1466z"/>
	<path class="st7" d="M1868.3,1991.8c-9.7,0-19.2-1.7-28.4-4.7c-10.6-3.4-16.3-1.7-20,8.3c-8.9,24.5-30.2,34.6-58.5,25.8
		c-16.6-5.2-25.2-16.4-25.4-33.9c-0.1-17.5,3.5-34.3,9.2-50.7c1.5-4.3,3.4-8.6,1.6-13.5c-2.1-5.7-6.4-8-11.8-9.7
		c-13.5-4.3-17.3-10.3-15-23.7c3.2-18.7,10.4-35.7,21.8-50.9c2.6-3.5,5.4-6.8,8.9-9.4c7.5-5.5,12.4-4.7,17.1,3.4
		c7.2,12.4,14.2,24.8,21,37.4c3.7,6.9,8.4,12.5,15,16.9c7.4,4.9,14.7,5.8,22.6,2.5c18.2-7.4,28.3-22.2,33.1-40.1
		c2.8-10.3,7.8-17,16.5-22.1c6.8-4,12.3-10.1,21-10.7c12.9-0.9,25.3,0.7,36.1,8.1c12.2,8.4,12.7,21.1,10.1,34.1
		c-3.1,15.3-11.5,27.5-23.7,37.1c-1.8,1.4-3.8,2.7-5.6,4.2c-7.7,6.5-8.4,12.4-2.7,20.9c14.9,22.1,3.6,56.8-21.7,66.5
		c-3.7,1.4-7.6,2.5-11.5,3.2C1875,1991.7,1871.7,1991.6,1868.3,1991.8z"/>
	<path class="st2" d="M1246,1574c-34.3,5.7-68.6,11.1-101.4,23.5c-15.8,6-31.7,11.8-46.7,19.6c-11.5,5.9-23.8,10.3-34.7,17.4
		c-9.4,6.1-19.1,11.8-28.8,16.7c-2.1-0.4-2.4-1.9-2.2-3.1c5.6-25.9,15-50,34-69.5c8.1-8.4,18.1-14.5,26-23.1c1-1.1,2.9-1.4,4.5-1.9
		c15.3-4.6,30-11.1,46.5-11.9c14.3-0.7,26.6-7.4,37.3-17.1c13.3-12.1,28.2-22,44.4-30c4.8-2.3,9.6-4.5,15.1-4.6
		c13.1-2,16.4-0.2,16.7,12c0.6,20.5,1.6,41-1.4,61.5C1254.4,1569.4,1252.4,1573.3,1246,1574z"/>
	<path class="st7" d="M847.8,997.9c-37.9-3.3-75.1,2.3-112.3,1.9c-8.2-0.1-8.7-0.4-7.2-8.5c1.9-10.1,4.1-20.2,6.2-30.3
		c0.8-4.1,2.9-7.1,6.6-9.4c19.9-12.4,40.8-22.6,63-30c3.9-1.3,6.4-1.8,8.2,3.3c8.6,24.6,20,47.9,34.8,69.5
		C847.4,995,847.4,995.8,847.8,997.9z"/>
	<path class="st9" d="M1111.4,1753.6c24.7-1.3,49.2,1.3,73.8,2.9c28.8,1.9,57.5,5.7,86.1,9.5c12.2,1.6,23.7,6.5,35.4,10.4
		c2.2,0.7,6.2,0.8,5,4.7c-1,3.1-3.1,6.2-7.3,5.3c-5.2-1-10.6-0.6-15.9-1.3c-33.5-4.8-67.1-9.3-100.7-13.7
		c-28.4-3.7-56.8-5.7-85.4-6.1c-7.2-0.1-14.5-1.9-21.8-1.5c-3.1,0.2-5.2-0.7-5-4.4c0.1-3.3,0.9-5.9,5-5.9c8.7,0,17.3,0,26,0
		C1108.1,1753.6,1109.8,1753.6,1111.4,1753.6z"/>
	<path class="st4" d="M1246,1574c3.8-2.2,5.6-4.9,6.3-9.9c2.6-18.9,1.3-37.8,1.7-56.7c0-1,0-2,0-3c-0.2-13.4-1.1-14.3-14-14.4
		c11.8-2.9,23.5-5.9,35.8-2.2c3.7,1.1,5.7,2.5,6.3,6.4c1.4,9.1,3.1,18.2,4.7,27.3c2.5,14,5.8,27.8,9.9,41.4c1.4,4.7,0.7,6.9-4.4,7.3
		c-2.3,0.2-4.5,1.5-6.7,1.5C1272.4,1572.3,1259.1,1571.3,1246,1574z"/>
	<path d="M944,2158c0-3.3,0-6.6,0-9.8c-3.3-1.4-3.4,1.5-4.5,2.8c-5.9,6.8-12.2,12.3-21.2,15.7c-14.9,5.5-36.2-5.1-39.8-24.9
		c-3.9-21.5,7-36.5,26.3-39.7c15.2-2.5,25.1,2.4,32.5,16.4c2.3,4.4,4.5,8.9,6.9,13.3c0.2,0.4,1.1,0.5,1.7,0.9
		c4.8-3.9-0.4-10.7,4.2-14.6C950.6,2131.7,948.9,2145.1,944,2158z"/>
	<path class="st10" d="M1212,1888.2c-14.5-1.7-29-3.4-43.6-5.1c-16.8-1.9-33.6-3.6-50.5-5.5c-13.2-1.5-26.4-3.2-39.6-4.6
		c-4.5-0.5-5.9-2.5-6.6-6.9c-2-12.7-1.8-13.4,10.8-12.1c29.7,3.2,59.4,6.6,89,9.9c10.2,1.1,20.4,2.3,30.7,3.4
		c2.4,0.3,5.3,0.4,4.6,3.7c-1.2,6.1,2.7,10,5.3,14.6C1212.8,1886.5,1212.8,1887.4,1212,1888.2z"/>
	<path class="st4" d="M730,1528c-6.8-2.2-11.9-7-16.8-11.9c-11.7-11.7-24.1-22.7-35.2-35.1c-17.9-19.9-33.2-41.3-42.8-66.6
		c-2.1-5.6-1.2-11.2-1.1-16.8c0.1-5.6,2.3-11,2.1-16.7c-0.1-3.3,2.2-4.6,5.5-3.1c3.3,1.5,6.7,3,10.1,4.3c3.4,1.3,4.3,3.6,3.5,7.1
		c-3.9,17.5,0.2,34.3,5.9,50.7c2.6,7.5,5.4,15,10.4,21.4c3.9,5.1,8.1,9.5,13.4,13.2c10.2,7,21,12.9,32.6,16.9
		c4.6,1.6,6.3,3.8,6.5,8.5C724.6,1509.6,728,1518.7,730,1528L730,1528z"/>
	<path class="st11" d="M1288,1888.1c2-0.2,3.9-0.5,5.9-0.5c2.8,0,6.8-3.9,8.2,1.3c1.3,5.2-3.3,10.8-8.3,10.8
		c-13.6-0.1-26.8-3.1-40.2-4.6c-6.5-0.7-13-2.1-19.5-3.2c1-5.3,5.2-2.6,7.9-2.8C1257.3,1888.4,1272.7,1890.2,1288,1888.1z"/>
	<path class="st12" d="M1050.1,1913.4c-4.8-1-11.2,0.4-13.8-3.9c-2.6-4.5,2.5-9,4.4-13.4c2.7-6.4,8.7-6.9,13.3-5.9
		c6.4,1.3,4.8,8.5,6,13.3c0.8,3.2,1.9,7.7-3,9.3C1055,1913.4,1052.5,1913.2,1050.1,1913.4z"/>
	<path class="st13" d="M1039.9,1803.2c2.6-6.2,4.6-11.4,7-16.4c1.6-3.4,4-3,6.2-0.3c0.2,0.3,0.4,0.5,0.5,0.9
		c2.4,5.4,8.3,12.1,5.3,16.2C1055.3,1808.5,1047.4,1804.8,1039.9,1803.2z"/>
	<path class="st14" d="M705.5,979c0.6,6.4-1.6,11.9-2.9,17.5c-0.7,3-3.3,3.8-6.3,3.5c-3.7-0.4-7.1-1.5-9.3-4.7
		c-0.4-0.6-0.3-2.4,0.1-2.7C693.5,988.8,697.2,981.3,705.5,979z"/>
	<path class="st15" d="M1044.5,1872.3c-2.7,0.5-4.5-0.2-4.7-3.3c-0.1-2-0.7-3.9-1-5.9c-1-6.7,1.2-9.3,7.8-9.3c3,0,5.2,0.7,5.4,4.3
		c0.1,1.3,0.6,2.6,0.8,3.9C1054.4,1870.4,1053.1,1872,1044.5,1872.3z"/>
	<path class="st16" d="M1288,1888.1c-3,2.9-6.8,1.9-10.3,2c-11.1,0.1-22.3-0.1-33.4,0c-3.5,0-7.3-1.3-10.2,1.8
		c-7.5-0.3-15-1-22.1-3.7c0.1-0.9,0.2-1.7,0.3-2.6c23.2,3.3,46.5,3.6,69.8,2.5C1284.1,1888,1286,1888.1,1288,1888.1z"/>
	<path class="st17" d="M1530.5,625.8c-5.5-1.1-8.4-1.6-11.2-2.3c-10.2-2.6-10.2-2.6-8.1-15.3
		C1518.9,612.1,1523.3,618.8,1530.5,625.8z"/>
	<path class="st18" d="M1894.2,1514.5c2.2-15.1,6.4-29.5,15.1-42.3C1905.6,1486.8,1901.1,1501.1,1894.2,1514.5z"/>
	<path class="st19" d="M1053.1,1753.5c2.1,0.2,4.5,0,4.1,3.7c-0.5,4.4-4.5,9.1-7.9,8.4c-3.9-0.9-3.4-4.5-3.5-7.3
		C1045.9,1754.7,1048,1753.4,1053.1,1753.5z"/>
	<path class="st20" d="M919.5,924.3c-2.2-1.1-3-3.3-4.1-5.2c-0.6-1-1.6-2.1-0.1-3.8c3.1,1.8,6.2,3.8,8.6,6.9
		C922.1,922.2,920.5,922.6,919.5,924.3z"/>
	<path d="M941.9,2170c0.6-4-1.5-8.5,2-12C943.4,2162,945.7,2166.5,941.9,2170z"/>
	<path class="st21" d="M1320.1,629.9c-1.4,1.4-2.8,2.7-4.3,4.1c-0.5-2.1,0.2-3.9,1.2-5.6c0.4-0.7,1.5-1.8,1.9-1.7
		C1320.6,627.1,1320.5,628.5,1320.1,629.9z"/>
	<path class="st22" d="M1803.9,1243.9c0,2.7,0.1,5.4,0.1,8c-1.8,0.3-3.4-0.2-2.9-2.3C1801.6,1247.6,1802,1245.3,1803.9,1243.9z"/>
	<path class="st21" d="M1322.2,637.9c-2.9-2.1-2.8-5-2.1-8C1322.4,632.2,1322.5,635,1322.2,637.9z"/>
	<path class="st23" d="M1708.3,1406.3c-0.9-0.9-1.8-1.7-2.6-2.6c-0.2-1.8,1.5-2.6,2.3-3.8c1.9-0.5,2.7,0.1,2.4,2.1
		C1710.1,1403.7,1710.1,1405.5,1708.3,1406.3z"/>
	<path class="st24" d="M1710.4,1402.1c-0.8-0.7-1.6-1.4-2.4-2.1c0.4-1.6,1.8-3.5,3.1-2.6C1713,1398.7,1711.7,1400.6,1710.4,1402.1z"
		/>
	<path class="st22" d="M1809.9,1229.8c0.1,2.3,0.7,4.9-2.4,5.9C1807.7,1233.5,1808.1,1231.4,1809.9,1229.8z"/>
	<path class="st22" d="M1805.8,1239.7c0.2,1.8,0,3.4-1.9,4.2C1803.8,1242.2,1804.2,1240.7,1805.8,1239.7z"/>
	<path class="st22" d="M1807.6,1235.6c0.4,1.9,0.2,3.5-1.9,4.3C1805.7,1238.1,1805.9,1236.6,1807.6,1235.6z"/>
	<path class="st22" d="M1811.8,1225.3c0.2,1.9,0.1,3.7-1.9,4.6C1809.7,1228.1,1810.2,1226.4,1811.8,1225.3z"/>
	<path class="st20" d="M922,928.1c-1.6-0.7-2.3-2-2.4-3.8C921.6,924.8,922.1,926.2,922,928.1z"/>
	<path class="st4" d="M1714,880c-1.6-0.9-2-2.3-2-4C1713.6,876.9,1714,878.4,1714,880z"/>
	<path class="st4" d="M1576,1466c1.6,0.9,2,2.3,2,4C1576.4,1469.1,1576,1467.7,1576,1466z"/>
	<path class="st4" d="M1712,876c-0.7-0.7-1.3-1.4-2-2C1710.7,874.7,1711.3,875.3,1712,876z"/>
	<path class="st20" d="M923.9,922.1c1.2,0,2,0.6,2.3,1.7C925.1,923.8,924.3,923.2,923.9,922.1z"/>
	<path class="st4" d="M730,1528c0.3,0.2,0.8,0.4,0.8,0.4C730.6,1529.1,730.3,1529,730,1528C730,1528,730,1528,730,1528z"/>
	<path d="M874,1806.3c0-20.8,13.9-33.1,33.8-34.7c20.6-1.7,37.8,19.4,34,41.6c-1.7,10.2-21.7,27.4-32.3,26.5
		c-12.1-1-24.6-2.9-31.8-15.1C874.1,1818.6,873.6,1812.1,874,1806.3z"/>
	<path class="st1" d="M640.6,1954.6c2.4,1,2.7,3,3.4,4.9c12.5,36.7,38.3,60.7,73.1,76c1.8,0.8,3.7,1.6,5.6,2.2
		c3.5,1.1,4.5,2.9,3.6,6.7c-11.5,46.3-25.6,91.6-46.4,134.6c-0.6,1.1-1.5,2.1-2.4,3.2c-3.3-2.7-3.6-6.6-4.6-9.8
		c-14.9-45.9-28.4-92.2-35.6-140c-3.7-24.2-5.4-48.3,1.5-72.2C639.2,1958.3,639.9,1956.5,640.6,1954.6z"/>
	<path class="st25" d="M1346,2024c-2.4,21.1-5.9,42.1-9.6,63c-0.3,2-0.8,4-1.6,5.8c-13.4,30.1-27.8,59.7-49.7,84.8
		c-5.6,6.4-10.7,13.3-17.1,21.4c0.3-8.4,2.9-14.2,4.9-20.1c7.1-20.4,15.1-40.5,21.4-61.2c8.3-27.2,20.8-52.5,32.7-78.1
		c4.4-9.4,10-18,16.7-25.8C1349.4,2015.9,1346.7,2020.2,1346,2024z"/>
	<path class="st26" d="M1346,2024c-1.6-3.2,1.8-7.6-2.4-10.3c-0.1-1.8,1.3-2.7,2.3-3.8c3.8-0.2,3.1,2.2,2.6,4.5
		C1347.6,2017.5,1348.2,2021.1,1346,2024z"/>
	<path class="st27" d="M1348.5,2014.3c-0.6-1.6-0.4-3.7-2.6-4.5c0.5-1.7,1.5-3.3,3.3-2.6c1.2,0.4,1,2.2,0.7,3.5
		C1349.6,2012,1349,2013.1,1348.5,2014.3z"/>
	<path d="M567.7,767.7c-7.5,0.5-12.5,3.4-17.7,5.5c-35,14.2-67.6,33-99.5,53.1c-3.7,2.3-7.2,4.8-11.1,6.8
		c-9.9,5.1-19.3-0.4-19.3-11.6c-0.1-9,2.1-17.9,4.1-26.6c17.3-73.7,56.5-132.4,120.6-173.4c35.9-22.9,75.7-36.1,117.5-43.1
		c36.9-6.2,74.2-8.1,111.5-4.4c4.3,0.4,8.7,0.9,12.8,2.1c5.7,1.6,9,6.8,8.6,12c-0.4,5.3-4.3,9.9-10.1,11c-2.6,0.5-5.3,0.4-7.9,0.1
		c-55-4.7-109.1-1.2-161.9,16.4c-71.5,23.8-122,70.4-152.5,139c-5,11.3-8.9,23-12.2,34.9c-0.5,1.9-1.1,3.8-0.5,6.2
		c4.3,0.4,6.9-2.5,9.8-4.2c32.2-19,65.2-36.4,100.6-48.7c5.3-1.9,10.8-3.5,16.2-5.2c7-2.3,14.3-5.2,20.4,1.6
		c5.6,6.3,2.7,13.1,0,19.7c-4.4,10.8-7.8,22-10.3,33.4c-2.3,10.6-4.2,21.4-4.6,32.4c4.3,0.3,5.9-2.6,8-4.6
		c20.8-19,43.7-34.9,68.3-48.5c3.2-1.8,6.5-3.5,10-4.5c4.9-1.5,10.1,1,12.9,5.4c2.9,4.6,2.5,9.5-1.1,13.9c-2,2.4-4.6,3.9-7.2,5.3
		c-34.1,18.2-63.9,42.2-90.6,70.1c-1.8,1.9-3.7,3.9-5.7,5.6c-4.1,3.3-8.7,5.1-13.9,2.6c-4.9-2.4-7.7-6.6-7.6-12
		c0.2-9,0.6-18,1.2-26.9C558.1,809.8,561.4,789.2,567.7,767.7z"/>
	<path d="M1080.9,1220.3c-0.1,3.8-1.9,7.2-4.8,10.2c-19.5,20.5-21.9,44.7-14.6,70.7c4.5,16,15,27.2,30.1,34.1c2.4,1.1,5,2,7.2,3.4
		c4.9,3.4,6.7,8.8,5,14c-1.7,5.3-7.3,8.9-13.4,8.2c-4.4-0.5-8.4-2.2-12.3-4.1c-19.8-9.8-33.1-25.4-40.2-46.2
		c-3.7-10.6-3.6-10.4-15.1-10.6c-17.4-0.3-32.5,6.2-46.8,15.3c-2.8,1.8-5.5,3.8-8.6,5.1c-5.7,2.4-11.7,0.6-15-4.2
		c-3.1-4.5-2.9-10.3,0.8-14.8c1.7-2,3.8-3.7,6-5.2c19.3-13.4,40.4-21.7,64.3-21.5c8.3,0.1,8.6-0.1,9.6-8.4
		c2.2-18.4,8.6-34.8,20.8-48.9c2.6-3,5.3-6,9-7.8C1071.1,1205.4,1080.6,1210.8,1080.9,1220.3z"/>
	<path class="st28" d="M909,2149.7c-8.5-0.1-13.9-5.6-13.6-13.8c0.4-9.1,8.9-17,18-16.7c5.4,0.2,11.8,8.3,11.9,15.2
		C925.4,2143.1,918.3,2149.8,909,2149.7z"/>
	<path class="st29" d="M905.8,1820c-8.1,0.1-13.6-5.8-13.7-14.9c-0.1-7.8,6.3-13.6,15.1-13.6c8.2,0,16.3,7.2,16.2,14.5
		C923.3,1813.6,915.5,1819.9,905.8,1820z"/>
	<path class="st25" d="M664.2,2027.8c4.6,1.6,7.3,5.5,10.8,8.4c6.4,5.4,13.7,9.3,20.8,13.4c3.5,2,4.6,3.9,3.4,7.9
		c-3.2,10.4-5.8,20.9-9,31.3c-2.3,7.5-2.6,15.7-6.8,22.7c-1,1.6-1.1,3.9-4.1,4.7c-7.5-25-13.8-50.2-17.5-76.1
		C661.9,2035.8,657.9,2030.9,664.2,2027.8z"/>
	<path class="st30" d="M664.2,2027.8c-4.2,3.4-1,8.3-2.3,12.2c-3.5-3-1.1-7.4-2.5-10.9c-0.7-1.7-2-4.1,0.4-5
		C662.7,2023,663.5,2025.7,664.2,2027.8z"/>
</g>
</svg>
