<?xml version="1.0" encoding="utf-8"?>
<!-- Generator: Adobe Illustrator 22.0.1, SVG Export Plug-In . SVG Version: 6.00 Build 0)  -->
<svg version="1.1" id="Layer_1" xmlns="http://www.w3.org/2000/svg" xmlns:xlink="http://www.w3.org/1999/xlink" x="0px" y="0px"
	 viewBox="0 0 283.1 511" style="enable-background:new 0 0 283.1 511;" xml:space="preserve">
<style type="text/css">
	.st0{fill:#EDEDED;}
	.st1{fill:#F2FEF1;}
	.st2{fill:#3B3B3B;}
	.st3{fill:#202020;}
	.st4{fill:#9DE2F3;}
	.st5{fill:#969696;}
	.st6{fill:#BABABA;}
	.st7{fill:#FE2E30;}
	.st8{fill:#1A191A;}
	.st9{fill:#279A9A;}
	.st10{fill:#EEE8EE;}
	.st11{fill:#908987;}
	.st12{fill:#936A48;}
	.st13{fill:#121112;}
	.st14{fill:#F9C698;}
	.st15{fill:#1A1A1A;}
	.st16{fill:#137979;}
	.st17{fill:#FAC698;}
	.st18{fill:#9A9A9A;}
	.st19{fill:#936B48;}
	.st20{fill:#A14E1D;}
	.st21{fill:#CECBCA;}
	.st22{fill:#757575;}
	.st23{fill:#BEBAB9;}
	.st24{fill:#979697;}
	.st25{fill:#6B6B6B;}
	.st26{fill:#FAC298;}
	.st27{fill:#A0D3D3;}
	.st28{fill:#8F8F8F;}
	.st29{fill:#81C4C4;}
	.st30{fill:#757475;}
	.st31{fill:#6CB1B1;}
	.st32{fill:#A0D2D2;}
	.st33{fill:#59A7A7;}
	.st34{fill:#797879;}
	.st35{fill:#FADDC2;}
	.st36{fill:#6A6A6A;}
	.st37{fill:#8E8F8F;}
	.st38{fill:#909090;}
	.st39{fill:#F6DBC3;}
	.st40{fill:#6A6A69;}
	.st41{fill:#229CA4;}
	.st42{fill:#8D8D8D;}
	.st43{fill:#D3A480;}
	.st44{fill:#F8DAC0;}
	.st45{fill:#B2D7D7;}
	.st46{fill:#F6D9C0;}
	.st47{fill:#A4907F;}
	.st48{fill:#828180;}
	.st49{fill:#1BADC7;}
	.st50{fill:#898786;}
	.st51{fill:#F5F5F5;}
	.st52{fill:#E3B48B;}
	.st53{fill:#A89686;}
	.st54{fill:#9F9D98;}
	.st55{fill:#1DA7BB;}
	.st56{fill:#1DA9BE;}
	.st57{fill:#3A0B0C;}
	.st58{fill:#949190;}
	.st59{fill:#1EA8BA;}
	.st60{fill:#7A797A;}
	.st61{fill:#FAE5D1;}
</style>
<g>
	<path d="M283,313.2c-0.6-5.8-3.2-10.7-7.7-14.4c-6.2-4.9-13.1-6-20.6-3.4c-1.6,0.6-3.1,1.2-4.7,1.8c0-0.4-0.1-0.7-0.1-1
		c-0.4-3.8-0.9-7.5-1.7-11.2c-2-9.5-5.7-18.4-9.9-27.1c-4.7-9.8-10.5-19-16.7-28c-4.2-6-8.7-11.9-13.4-17.6
		c-0.4-0.5-0.5-0.8-0.2-1.5c3.2-6.3,5-13,4.7-20.1c-0.1-1.2-0.2-2.3-0.3-3.8c0.5,0.8,0.8,1.3,1.1,1.8c3.2,5.3,5.7,11,8.1,16.7
		c1.4,3.3,2.7,6.7,4.6,9.9c1.5,2.6,3,2.9,5.5,1.2c2-1.3,3.6-3,5.1-4.8c6.2-7.1,10.8-15.2,14.7-23.8c7-15.4,10.8-31.7,11.8-48.6
		c0.7-11-0.1-22-2.5-32.8c-3.2-14.6-9.1-28-18-40.1c-1.3-1.8-2.8-3.6-4.1-5.3c0.3-0.3,0.7-0.3,1.1-0.4c2.7-0.7,5.3-1.5,7.6-3
		c1.2-0.7,2.2-1.6,2.8-2.9c1-2.2,0.2-3.9-1.3-5.5c-1.7-1.9-3.7-3.4-5.8-4.7c-7.3-4.8-15.2-8.4-23.3-11.3c-8.8-3.2-17.8-5.3-27.2-5.9
		c-7.7-0.5-15.5-0.4-23.2,0.7c-0.6,0.1-1,0-1.3-0.6c-0.5-0.8-1-1.6-1.6-2.4c-5.7-7.8-13.6-12.2-22.8-14.5c-4.6-1.2-9.2-1.7-13.9-2
		c-6.2-0.5-12.5-0.2-18.7,0.6c-5.5,0.7-10.9,2-16.3,3.1c-6,1.2-11.9,1.7-17.9-0.1C70.2,10,64,6.8,59.5,0.9c-0.5-0.7-1.1-1-2-0.8
		c-0.8,0.2-1.3,0.8-1.4,1.6c-1.6,9.1-0.1,17.3,6.7,24.1c0.2,0.2,0.6,0.3,0.4,0.7c-0.9,0.1-1.9,0.1-2.8,0.2c-9,0.7-17.2,3.4-24.6,8.5
		c-8,5.5-13.7,12.9-17.8,21.6c-2.6,5.5-4.8,11.2-5.3,17.4c-0.6,6.5-0.2,12.9,1.1,19.3c2.4,11.6,7.3,22.2,14.9,31.4
		c3.9,4.8,8.2,9.4,12.2,14.2c4.7,5.6,8.5,11.6,10.8,18.6c1.4,4.1,1.2,8.1-0.5,12c-2.3,5.2-5.8,9.5-10,13.3c-0.8,0.8-1.9,1.5-1.3,2.8
		c0.6,1.3,1.8,1.2,2.9,1.1c9.7-0.7,18.1-4.3,25-11.3c3.7-3.7,6.7-8,8.2-13.1c1.6-5.6,1.1-11.3,0.5-17c-0.4-4.3-1-8.5-1.3-12.8
		c-0.2-4.1-0.2-8.3,0.6-12.4c0.7-3.8,1.9-7.4,3.7-10.8c0.2-0.4,0.4-0.5,0.8-0.3c1.1,0.4,2.3,0.8,3.4,1.1c0.6,0.2,0.7,0.5,0.6,1
		c-0.4,2.9-0.5,5.7-0.6,8.6c-0.5,10.3,1.3,20.2,5.1,29.7c2,4.9,4.3,9.7,7.1,14.2c-1.3,0.5-2.6,0.9-3.8,1.6c-1.7,0.9-2.3,2.4-2.4,4.1
		c0,0.7,0.1,1.4,0.2,2c1.1,4.1,1.7,8.4,2.2,12.6c0.2,1.6,0,2.8-1.5,3.9c-5.7,4.1-11.1,8.6-16.3,13.2c-6.3,5.6-11.9,11.7-17,18.4
		c-4.6,6.1-7.1,13.1-9.2,20.4c-3,10.5-4.4,21.3-4.8,32.2c-0.1,2.1-0.2,4.2,0.1,6.2c0.4,2.9,0.8,5.7,1.3,8.6c0.1,0.5,0,0.8-0.3,1.1
		c-0.9,1.1-1.8,2.2-2.7,3.3c-0.5,0.5-0.8,1.1-1.3,1.6c-1.7,2.1-3.1,4.3-4.3,6.7c-0.8,1.5-0.8,3-0.1,4.5c0.5,1.2,1.3,2.2,2,3.2
		c0.3,0.5,0.8,0.9,1.2,1.2c0.4,0.4,0.8,0.8,1.2,1.2c0.5,0.6,1.1,1.1,1.7,1.7c1.1,0.8,2.1,1.7,3.1,2.7c1.5,1.5,3.2,2.8,5,3.9
		c0.5,0.4,0.7,0.7,0.6,1.3c-0.2,1-0.4,2-0.7,3c-1.9,6.4-3.9,12.8-5.4,19.3c-0.3,1.3-0.2,2.4,0.6,3.5c1.7,2.3,3.6,4.3,5.7,6.2
		c0.5,0.4,0.8,0.8,0.7,1.5c-0.3,2.8-0.5,5.5-0.7,8.3c-0.5,8-0.9,16.1-1,24.1c-0.2,13.4,0.4,26.9,1.3,40.3c0.3,5,0.8,10,1.2,15
		c0.1,0.9-0.1,1-0.9,0.6c-2.3-1-4.7-2-7-3c-2.1-0.9-4.1-1.8-6.2-2.8c-1.2-0.5-2.1-0.5-2.6,0.2c-0.7,0.9-0.4,1.7,0.1,2.6
		c0.1,0.1,0.1,0.2,0.2,0.3c5.2,9,10.4,18,14.3,27.6c0.4,1,1,2.1,1.2,3.3c-0.2,0-0.4-0.1-0.5-0.1c-4.5-1.3-9-1.5-13.5,0
		c-10.3,3.4-16.8,13.1-15.9,23.9c0.6,7.8,4.9,13.1,12.4,15.2c5.4,1.5,10.9,2,16.5,2.1c10.5,0.2,20.9-0.5,31.3-2.5
		c3.1-0.6,6.2-1.4,9.2-2.3c1.6-0.5,1.9-1.1,1.8-2.7c0-0.6-0.2-1.2-0.2-1.7c-0.2-4.7,0.6-9.1,2.4-13.4c2-4.7,4.6-9.1,7.4-13.4
		c0.5-0.8,0.8-1.6,0.2-2.4c-0.6-0.8-1.3-0.9-2.2-0.7c-1.9,0.4-3.7,0.7-5.6,1.1c-0.2-0.2,0-0.4,0-0.5c1.8-4.2,3-8.6,3.6-13.2
		c0.2-1.6-0.3-2.4-1.8-2.8c-1.6-0.4-3.2-0.9-4.8-1.2c-1.2-0.2-1.3-0.8-1.2-1.8c0.3-2.6,0.5-5.3,0.7-7.9c0.4-4.9,0.9-9.8,1.3-14.6
		c0-0.5,0.2-0.6,0.7-0.6c1.7,0.1,3.3-0.2,4.9-0.5c3.9-0.5,7.7-1.1,11.4-2.6c1.6-0.7,2.1-1.5,1.6-3.2c-1-3.9-2.2-7.7-3.1-11.6
		c-1.4-6-2.5-12-3.8-18.1c-0.1-0.6,0-0.7,0.6-0.9c1.5-0.4,3-0.7,4.4-1.2c3.3-1,6.6-2,9.9-3.1c0.6-0.2,1-0.2,1.1,0.6
		c0.2,1,0.6,2,0.9,3.1c3.2,10.5,6.4,21,9.9,31.4c3.1,9.2,6.3,18.3,9.6,27.4c0.2,0.7,0.2,0.9-0.6,0.9c-1.4,0.1-2.9,0.2-4.3,0.4
		c-1.5,0.2-2.2,1.3-1.6,2.8c0.3,0.9,0.8,1.7,1.1,2.5c1.4,3.1,2.6,6.3,3.5,9.6c0.1,0.3,0.3,0.6,0,0.9c-0.1,0.1-0.5-0.1-0.8-0.1
		c-0.9-0.3-1.8-0.7-2.7-1c-0.8-0.3-1.6-0.4-2.3,0.3c-0.7,0.7-0.6,1.5-0.3,2.3c0.7,1.9,1.4,3.7,2.1,5.6c1.9,5.6,3.6,11.3,4.5,17.2
		c0.6,3.9,1,7.8,1,11.8c0,1.4,0.6,2.2,1.8,2.4c4.5,0.7,9,1.2,13.6,1.5c0.6,0.2,1.1,0,1.7,0.1c1.3,0.1,2.6-0.2,3.9,0.3
		c3.2,0,6.4,0.5,9.6,0.6c4.6,0.2,9.1-0.4,13.7-0.6c4.8-0.1,9.6-0.6,14.3-1.3c3.6-0.6,6.8-2.1,8.7-5.3c5.2-8.6,6.3-18,3.8-27.7
		c-0.8-3.1-2.5-5.8-5.3-7.6c-2.9-1.8-6-3-9.4-3.5c-2.6-0.4-5.2-0.3-7.8,0.1c0.1-0.6,0.5-0.9,0.8-1.3c4-5.3,7.1-11.1,10.1-17
		c0.5-1.1,0.3-2-0.5-2.6c-0.7-0.5-1.4-0.3-2.1-0.1c-4.2,0.9-8.4,1.8-12.5,2.7c-0.6,0.1-0.6-0.1-0.7-0.5c-0.4-5.8-0.8-11.6-1.4-17.4
		c-0.5-5.1-0.8-10.2-1.8-15.3c-0.9-4.4-1.7-8.8-2.5-13.2c-0.5-3-1.2-5.9-1.5-8.9c-0.6-3.5-0.9-7.1-1.9-10.6
		c-0.8-2.8-1.2-5.8-1.7-8.7c-0.1-0.6-0.3-1.2,0.2-1.7c0.2-0.1,0.3-0.3,0.5-0.4c9-5.4,17.3-11.6,25.4-18.3c5.4-4.5,9.9-9.8,13.3-16.1
		c0.4-0.8,0.8-0.9,1.6-0.6c3.4,1.5,6.8,1.5,10.2-0.3c0.9-0.5,1.8-1,2.7-1.5c0.5-0.3,0.9-0.4,1.5-0.3c3,0.4,5.5-0.5,7.5-2.8
		c0.3-0.4,0.7-0.6,1.2-0.5c1.1,0.2,2.2,0.1,3.3-0.1c3.2-0.4,5.6-1.8,6.8-4.8c0.6-1.5,1-3.1,1.4-4.7c0.6-2.5,0.6-5.1,0.9-7.6
		c0-0.3,0-0.6,0.5-0.8c2.4-0.8,4.8-1.7,7.2-2.5c1.8-0.5,3.6-1,5.4-0.9c3.7,0.4,6.9,4.1,6.9,7.9c0.1,4.8-4,8.7-8.9,8.5
		c-3.5-0.2-6.6,2.8-6.2,6.3c0.3,2.7,1.9,4.7,4.4,5.7c2.2,0.8,4.4,1,6.8,0.6C277,333.8,284.1,323.8,283,313.2z M83.7,103.8
		c0.7-0.6,1.4-1.2,2-1.8C85.8,104.1,85.4,104.5,83.7,103.8z M102.2,384.1c-0.5-2.6-1.1-5.3-1.5-8c-0.1-0.8-0.8-1.7,0-2.3
		c0.8-0.5,1.9-0.4,2.8,0c2.5,0.2,5-0.2,7.4-0.5c1.3-0.2,2.7-0.3,4-0.6c0.5-0.1,0.6,0,0.8,0.5c0.5,1.8,1,3.5,1.5,5.3
		c-0.9,0.7-2,1.1-3.1,1.6c-3.8,1.6-7.6,3.2-11.5,4.8C102.3,384.8,102.2,384.5,102.2,384.1z M119.3,386.1c-5.1,1.4-10.1,2.9-15.2,4.3
		c-0.4,0.2-0.6-0.1-0.7-0.4c-0.2-0.7-0.5-1.4-0.2-2.2c3.3-1.3,6.6-2.6,9.9-3.9c1.6-0.7,3.3-1.4,4.9-2.1c0.1,0,0.2,0,0.2,0
		C118.9,383.2,119.5,384.6,119.3,386.1z M180.1,235.7c1.6-2.3,3.3-4.6,5.2-6.8c0.6-0.7,0.9-0.8,1.4,0c4.9,6.8,9.1,13.9,12.6,21.5
		c5.3,11.3,8.9,23.1,10.1,35.5c0.1,1.1,0.2,2.1,0.2,3.2c0.1,5.7-1.9,10.5-5.4,14.8c-0.6,0.7-1.3,1.4-1.7,2.2c-0.6,1.1-1.4,1.2-2.5,1
		c-2-0.4-4.1-0.7-6.2-0.8c-0.6,0-0.7-0.3-0.9-0.8c-1.5-3.4-2.5-7-3.4-10.6c-2.5-9.4-4.6-18.9-6.7-28.4c-1.3-5.9-2.2-11.9-2.6-17.9
		c-0.2-3.4-0.5-6.8-0.8-10.2C179.3,237.3,179.5,236.5,180.1,235.7z M194.4,311c0-0.5-0.4-1.2,0.4-1.4c1.5,0.2,3,0.3,4.5,0.5
		c0.3,0.2,0.3,0.5,0.2,0.8c-0.2,0.8-0.1,1.7-0.8,2.3c-1.2,0.1-2.4,0.3-3.5,0.6c-1.1,0.1-1.1,0.1-0.8-1.3
		C194.6,312,194.4,311.5,194.4,311z M198.5,317.2c0.4,0.2,0.5,0.6,0.6,0.9c0.3,1.1,0.9,2,1.6,2.8c0.4,0.5,0.8,1.1,1.3,1.5
		c0.2,0.2,0.5,0.5,0.2,0.9c-4.2,2.9-8.1,6.2-12.6,8.8c-0.6,0.3-0.7-0.2-0.8-0.5c-0.5-1.3-1.3-2.5-1.9-3.7c-0.6-1.2-1.4-2.4-2.2-3.6
		c-0.8-1.2-0.7-1.4,0.5-2.2c1.4-0.8,2.7-1.7,4-2.7c0.4-0.3,0.7-0.5,1.2-0.6C193,318.3,195.7,317.5,198.5,317.2z M210,332
		c-2.6,4-5.2,8-8.3,11.6c-1.5,1.7-3.3,3-4.9,4.6c-3.8,3.8-8.1,7-12.4,10.1c-3.7,2.6-7.3,5.3-11.2,7.6c-0.3,0.2-0.5,0.3-0.8,0.4
		c-0.7-0.1-0.6-0.7-0.6-1.1c-0.4-2.1-0.9-4.3-1.4-6.4c-0.5-1.5-0.8-3-1.1-4.5c-0.3-1.4-0.3-1.5,1-2.2c3-1.7,5.9-3.4,8.8-5.3
		c3.1-2.1,5.9-4.4,8-7.5c0.6-0.9,1-1.9,1.7-2.7c0.5-0.5,1-1,1.6-1.4c4.9-3.2,9.5-6.8,14.4-10c1-0.3,1.8,0,2.5,0.5
		c0.1,0.1,0.2,0.3,0.2,0.5c0.1,0.4,0,0.8,0.1,1.2c0.3,1.5,0.9,2.8,2.1,3.8C210,331.4,210.2,331.7,210,332z"/>
	<path class="st0" d="M177.3,390.3c-0.4-2.3-0.8-4.6-1.3-6.9c-0.6-2.6-1.2-5.1-1.8-7.7c-0.4-1.7-0.6-3.5-1-5.3
		c-0.1-0.5-0.1-1,0.6-1.1c1,4,1.8,8,2.3,12c0.3,2.6,0.8,5.1,1.2,7.7C177.3,389.5,177.3,389.9,177.3,390.3z"/>
	<path class="st1" d="M24.9,41.3c1.5-1.5,3-3,4.5-4.5c-0.1-0.1-0.1-0.2-0.2-0.2c-1.5,1.5-3,3-4.5,4.5C24.7,41.1,24.8,41.2,24.9,41.3
		z"/>
	<path class="st2" d="M156.1,508.7c1.4-0.1,2.8,0.1,4.1-0.2c0.5-0.1,1.1,0.2,1.5,0.6C159.8,509.1,157.9,509,156.1,508.7z"/>
	<path class="st1" d="M163.2,17c1.3,1.3,2.5,2.6,3.8,3.8c0.1-0.1,0.1-0.1,0.2-0.2c-1.3-1.3-2.5-2.6-3.8-3.9
		C163.4,16.9,163.3,16.9,163.2,17z"/>
	<path class="st3" d="M42.3,311.9c1.3,0.6,2.3,1.5,3.1,2.7C44.3,313.8,43.3,312.9,42.3,311.9z"/>
	<path class="st4" d="M0.3,248.2c-0.6-0.9-0.2-1.7-0.1-2.6C0.6,246.8,0.6,246.8,0.3,248.2z"/>
	<path class="st3" d="M40.7,310.2c0.7,0.4,1.3,1,1.7,1.7C41.6,311.5,41.1,310.9,40.7,310.2z"/>
	<path class="st5" d="M42,291.7c-0.3,0.6-0.7,1.2-1.3,1.6C41,292.7,41.3,292,42,291.7z"/>
	<path class="st6" d="M38.2,307.7c0.5,0.4,0.9,0.8,1.2,1.2C38.8,308.8,38.4,308.4,38.2,307.7z"/>
	<path class="st7" d="M115.6,93.2c3.1,5,6.7,9.5,12.3,12c0.9,0.4,1.9,0.7,2.8,0.9c0.4,0.1,0.5,0.2,0.5,0.6
		c-0.1,4.4,0.3,8.8,0.8,13.3c-1.9-0.7-3.6-1.6-5.2-2.6c-7.5-4.2-13.9-9.5-18.6-16.7c-3.7-5.7-5.6-12-6-18.9
		c-0.3-5.4,0.4-10.7,2-15.9c0.4-1.1,0.1-2-0.6-2.5c-1-0.6-2.1-0.1-2.6,1.2c-0.6,1.5-0.9,3-1.3,4.5c-1.1,5.2-1.3,10.4-0.8,15.6
		c0.1,1.3,0.4,2.6,0.7,3.9c0.2,0.7,0,0.9-0.7,1.1c-6.7,2.2-12.6,5.7-17.4,10.9c-0.2,0.2-0.5,0.5-0.7,0.8c-0.8,1.5-1.9,1.4-3.2,0.9
		c-3.3-1.1-6.5-2.3-9.5-4c-0.2-0.1-0.4-0.3-0.8-0.2c1.4,2.4,3.3,4.4,5.3,6.2c1.1,0.9,2.3,1.8,3.5,2.5c0.5,0.3,0.6,0.5,0.3,1
		c-3.7,6.9-4.9,14.4-4.7,22.1c0.1,5.2,0.9,10.4,1.4,15.6c0.5,5,1,10.1-0.2,15.1c-1,3.9-3.1,7.1-5.5,10.1
		c-5.3,6.5-12.3,10.3-20.5,11.9c-0.1,0-0.2,0-0.4,0c0.8-1,1.6-1.9,2.3-2.8c2.3-2.8,4.3-5.9,5.7-9.2c2.3-5.4,2-10.7-0.1-16.1
		c-2.9-7.4-7.2-13.8-12.4-19.7c-4.6-5.3-9.4-10.4-13.5-16.1c-6.2-8.7-10-18.3-11.8-28.8c-0.6-3.3-0.9-6.7-0.9-10
		c-0.1-6.3,1.2-12.4,3.7-18.2c3.1-7.4,7.1-14,12.9-19.6c6.8-6.5,14.9-10.3,24.2-11.8c3.7-0.6,7.3-0.8,11.1-0.4
		c1.1,0.1,2.2,0.3,2.7-1c0.4-0.9,0-1.6-1.4-2.7c-3.4-2.5-6.3-5.4-8.1-9.3c-1.6-3.4-2-7.1-1.9-10.8c0-0.1,0.1-0.2,0.2-0.5
		c0.8,0.7,1.5,1.3,2.2,1.9c7.7,6.1,16.4,9.4,26.4,8.9c4.3-0.2,8.5-1.2,12.7-2.1c5.5-1.2,11.1-2.2,16.7-2.6c8.4-0.7,16.8-0.2,25,1.7
		c7.5,1.7,14.2,4.9,19.5,10.7c4.8,5.4,7.6,11.7,7.7,18.9c0.1,5.7-1.8,11-5.4,15.5c-2.9,3.7-6.5,6.5-10.2,9.3
		c-4.2,3.2-8.5,6.5-12.1,10.4c-5.2,5.6-8.5,12.1-9.6,19.7c-0.1,1-0.4,1.3-1.5,1.1c-5.5-0.9-10.2-3.3-14.7-6.5
		C115.5,92.8,115.5,93,115.6,93.2z"/>
	<path class="st8" d="M150.6,317.8c-4.4,2.6-8.8,5.3-13,8.2c-5,3.4-9.8,7.2-14.6,11.1c-3.3,2.7-6.5,5.3-9.7,8.1
		c-0.2,0.2-0.4,0.4-0.6,0.6c-4.5,4.4-9,8.9-13.5,13.3c-0.1,0.1-0.3,0.3-0.5,0.5c-0.1-0.7-0.3-1.3-0.3-1.9c-0.1-2-0.2-4-0.2-5.9
		c-0.1-2.9,0-5.8-0.2-8.7c-0.2-2.5-0.5-5-0.3-7.6c0.2-3.1,0-6.2,0.2-9.2c0.2-3.3,0.2-6.6,0.4-9.9c0.2-3.6,0.4-7.2,0.6-10.7
		c0.2-3.4,0.4-6.9,0.6-10.3c0.2-3.8,0.5-7.6,0.8-11.4c0.3-3.9,0.6-7.8,1-11.7c0.4-4.4,0.9-8.9,1.4-13.3c0.5-5,1.2-10.1,2-15.1
		c0.5-3,0.7-6.1,1.5-9c0.5-2,1.1-4,1.6-6c0.6-2.6,1.3-5.2,1.8-7.8c0.3-1.4,0.9-2.6,1.5-3.8c2.1-4.3,4.2-8.6,6.3-12.9
		c0.3-0.6,0.6-0.6,1.2-0.4c2,1,3.9,2,6,2.7c1.8,0.7,3.8,0.9,5.7,1.4c2.5,0.7,5.1,1.2,7.7,1.4c1.3,0.1,2.5-0.4,3.8-0.5
		c0.4,0,0.8-0.1,1.2-0.1c6.4,0.1,12.7-1.1,18.8-2.9c3.5-1,6.9-2.3,10.1-4.3c0.3-0.2,0.5-0.3,0.8-0.5c0.5,1.1,0.3,2.2,0.2,3.2
		c-0.2,2.5-0.4,5-1.4,7.3c-0.8,1.9-1.9,3.6-3.3,5.2c-3,3.5-6.8,6-11,7.9c-0.9,0.4-1.4,1-1.3,2c0.1,0.9,0.7,1.4,1.6,1.6
		c1.6,0.2,3.3,0,4.9,0.1c0.9,0,1.8-0.1,2.7,0.1c0.5,0,1,0,1.4,0c0.7-0.3,1.5,0.1,2.3-0.2c0.6-0.3,1.3,0.1,1.9-0.2c0.1,0,0.3,0,0.4,0
		c-0.2,1.3-1.1,2.2-1.7,3.2c-4.6,6.9-9.5,13.6-13.3,21.1c-3.4,6.7-6.5,13.6-8.6,20.9c-0.8,2.7-1.1,5.4-1.2,8.1
		c-0.1,3-0.1,6.1,0.1,9.1c0.2,2.1,0.3,4.2,0.4,6.3c0.4,5.4,1.5,10.6,2.7,15.8c0.3,1.4,0.6,2.8,1,4.2
		C150.7,317,150.8,317.4,150.6,317.8z"/>
	<path class="st9" d="M69.1,260c0.2-1.2,0.2-2.5,0.6-3.8c0.5-1.3,0.6-2.8,0.8-4.2c0.7-4.2,1.7-8.3,2.6-12.4c0.1-0.4,0.3-0.7,0.1-1.1
		c1.7-6.9,4-13.7,6.8-20.3c1.2-2.8,2.4-5.6,3.7-8.3c0.3-0.1,0.5,0.1,0.7,0.3c1.5,1.4,3.4,2.4,5.2,3.3c4.3,2.1,8.5,4.5,13.1,6.2
		c1,0.4,1.8,1.2,2.8,1.6c0.5,0.3,0.6,0.7,0.5,1.3c-0.7,2.5-1.3,5.1-1.8,7.7c-0.1,0.7-0.1,1.4-0.3,2c-0.3,1.6-0.7,3.2-1,4.7
		c-0.4-0.4,0-0.8-0.1-1c0,1.3-0.4,2.6-0.7,3.9c-0.1,0.3-0.3,0.6-0.1,1c-1.2,6.1-2.4,12.3-3,18.5c-0.6,6-1.1,11.9-1.7,17.9
		c-0.6,6.3-1,12.6-1.4,18.9c-0.4,6.4-0.7,12.9-1.1,19.3c-0.4,6.4-0.5,12.7-0.6,19.1c-0.1,4.2-0.1,8.4,0.2,12.6
		c0.4,4.8,0.2,9.7,0.8,14.5c0.1,0.8-0.4,1.4-1,1.9c-2,1.9-3.9,3.8-5.7,5.8c-3.7,4.2-7.4,8.4-10.9,12.7c-2.7,3.3-5.3,6.6-8,9.9
		c-0.3,0.3-0.6,0.6-1,0.8c-1.6,0.8-3.2,1.5-4.8,2.3c-0.7,0.3-0.8,0.1-0.9-0.5c-0.4-3.7-0.7-7.4-0.9-11.1c-0.1-3.1-0.5-6.2-0.5-9.3
		c0-3.5,0.2-6.9,0.3-10.4c0.1-2.6,0.1-5.2,0.2-7.8c0.2-5.6,0.5-11.1,0.7-16.7c0.1-3.7,0.1-7.3,0.5-11c0.6-4.8,0.1-9.7,0.6-14.5
		c0.6-5.9,0.5-11.8,0.9-17.7c0.2-3.1,0.5-6.1,0.7-9.2c0.1-2.2,0.2-4.4,0.4-6.6c0.2-2.8,0.8-5.6,1.3-8.4c0.5-2.7,0.9-5.5,1.2-8.2
		c0-0.2,0.1-0.4,0.2-0.6c0.3-0.3,0-0.8,0.2-1.1C68.9,261.6,69.3,260.8,69.1,260z"/>
	<path class="st10" d="M135.4,99.6c1-8.2,4.8-14.7,10.5-20.3c4.2-4.1,9.1-7.5,13.7-11.2c4.9-4,9.1-8.5,11.4-14.6
		c0.1-0.4,0.3-0.8,0.4-1.2c0.5-1.5,0.5-1.5,2-0.8c6,2.9,10.6,7.4,14.5,12.7c5,6.8,8.2,14.5,10.4,22.6c2.1,7.7,2.8,15.5,2.4,23.4
		c-0.6,10-2.9,19.5-7.1,28.6c-0.4,0.9-0.9,1.2-1.9,1.3c-9.1,0.2-20,4.7-23.6,17.5c-0.9,3.4-1.6,6.7-1.7,10.2c0,0.7-0.2,0.9-0.9,0.8
		c-12-2.7-24.2-4.5-36.5-5.4c-6.3-0.4-12.5-0.7-18.8-0.5c-3.1,0.1-6.3,0.2-9.4,0.4c-0.6,0-0.9-0.1-1.3-0.6c-4.4-7-7.8-14.5-10-22.5
		c-2.1-7.5-2.5-15.2-1.9-22.9c0.1-1.7,0.3-3.4,0.4-5.1c0-0.5,0.2-0.7,0.7-0.6c0,0,0.1,0,0.1,0c2.3,0.3,2.3,0.3,2.3,2.7
		c-0.1,5.4,0.3,10.7,1.9,15.9c0.9,3.1,2.3,5.9,4.6,8.2c4.2,4.3,12.9,5.1,17.4-1.5c2.2-3.3,3.3-7,4.1-10.9c0.5-2.4,0.8-4.7,0.9-7.1
		c0-0.3,0.1-0.7,0.2-1.1c2,1.3,3.9,2.5,5.9,3.5c2.3,1.2,4.6,2.3,7,3.2c2.1,0.8,3.4-0.2,3-2.5c-0.8-4.7-1.2-9.4-1.2-14.2
		c0-0.7,0.2-1,0.9-0.9c0.8,0,1.6-0.1,2.5-0.2c0.6-0.1,0.7,0.1,0.7,0.6c0.5,5.9,1.7,11.6,3.7,17.1c1.7,4.6,4,8.9,7.7,12.2
		c6.7,6,17,4.5,22.5-0.5c3.4-3.1,5.4-7.1,6.6-11.5c1.9-6.9,2-13.9,1.6-21c-0.3-4.9-1-9.8-1.9-14.6c-0.1-0.5-0.2-0.7-0.8-0.6
		c-9.5,2.1-18.7,5-28,8.1c-4.3,1.5-8.8,2.6-13.3,3.2C136.4,99.5,136,99.5,135.4,99.6z"/>
	<path class="st8" d="M222.4,111.1c-3.7,0.5-7.4,0.4-11.2,0.4c-2.1,0-4.2,0-6.3-0.2c-0.5-0.1-0.7-0.2-0.7-0.8
		c-0.1-1,0.2-1.9,0.2-2.9c0.1-6.9-0.6-13.8-2.3-20.5c-1.4-5.6-3.4-11-5.9-16.2c-2.2-4.4-4.8-8.5-8-12.2c-3.3-3.9-7-7.1-11.5-9.5
		c-0.8-0.4-1.7-0.9-2.6-1.3c-1.5-0.6-1.6-0.7-1.3-2.3c0.4-2.3,0-4.6-0.3-6.9c-0.3-2.2-1-4.3-1.8-6.4c-0.2-0.6-0.2-0.8,0.6-0.9
		c5.5-0.7,11-1,16.6-0.8c4.1,0.2,8.1,0.5,12.2,1.1c5.8,0.9,11.4,2.3,17,4.2c8.4,2.9,16.5,6.5,23.9,11.4c2,1.3,3.9,2.6,5.5,4.3
		c1.2,1.2,1.2,1.6-0.1,2.7c-1.3,1.1-2.9,1.6-4.4,2.1c-1.7,0.6-3.4,1-5.1,1.4c-0.5,0.1-0.8,0-1.2-0.4c-1.2-1.2-2.4-2.4-3.6-3.5
		c-1-0.9-2-1-2.7-0.3c-0.9,0.9-0.8,2,0.1,2.9c2.9,2.5,5.4,5.2,7.8,8.1c3.3,3.9,6.2,8.1,8.7,12.5c0.3,0.5,0.6,1,0.8,1.5
		c0.5,1,0.5,2.1,0.5,3.2c0.2,7.2,0.6,14.3,0.4,21.5c-0.2,5.2-0.2,10.4-0.5,15.6c-0.3,4.3-0.5,8.6-0.9,12.9
		c-0.6,5.8-1.3,11.5-2.3,17.2c-1.1,5.9-2.5,11.8-4.4,17.5c-2,6.1-4.6,11.9-8.1,17.3c-1,1.5-2.3,2.9-3.5,4.3
		c-0.6,0.7-1.3,0.9-2.2,0.8c-3.1-0.2-5.8-1.3-8.4-2.9c-0.4-0.3-0.9-0.6-1.2-1c-1.2-1.6-2.1-3.4-3.2-5c-0.7-1.1-1.4-2.1-2.3-3.1
		c-0.9-1-1-2.4-1.4-3.6c-0.1-0.3,0.2-0.5,0.4-0.6c1.2-1.1,2.4-2.1,3.6-3.2c2.8-2.8,5.6-5.5,8.3-8.4c3.3-3.7,6.3-7.5,8.7-11.9
		c3.2-6,3-12-0.5-17.8c-0.4-0.6-0.7-1.3-1.3-1.9c-0.3-0.3-0.3-0.5,0-0.8c3.2-2.9,4.1-6.8,4.9-10.8c0.3-1.6,0.6-3.2,0.6-4.8
		c0-0.7,0.4-0.9,0.9-1.1c2.5-1.1,4.9-2.4,6.6-4.7c2.2-3.1,2.5-6.3,0.8-9.6c-1.2-2.5-2.9-4.6-4.6-6.6c-3.6-4.4-6-9.3-6.9-14.9
		c-0.2-1.1-0.9-2-1.8-2c-0.9-0.1-1.5,0.5-1.9,1.6c-0.4,0.7-0.3,1.4-0.4,2.1c-1,5.8-0.6,11.4,2,16.7c0.7,1.4,1.2,2.8,1.5,4.3
		c0.9,4-0.9,7.1-3.7,9.8C225.2,109.8,223.9,110.7,222.4,111.1z"/>
	<path class="st11" d="M179.9,432.2c0.2,3.6,0.5,7.1,0.7,10.7c0.1,1,0.1,2,0.2,3c0.1,0.6-0.2,0.7-0.7,0.8
		c-9.9,1.9-19.8,3.6-29.8,4.8c-1.5,0.2-3.1,0.4-4.6,0.6c-0.8,0.1-1.1-0.1-1.4-0.9c-2.9-8.2-5.8-16.4-8.6-24.6
		c-4.3-12.4-8.2-25-11.9-37.6c-0.2-0.8,0-1,0.7-1.2c5.2-1.2,10.5-2.3,15.6-3.9c8.1-2.5,15.8-5.9,23.5-9.3c1.9-0.8,3.9-1.5,5.6-2.7
		c0.7-0.5,0.7,0.1,0.8,0.5c0.3,2.6,0.9,5.2,1.4,7.8c0.6,2.8,1.1,5.7,1.6,8.5c0.7,3.9,1.2,7.7,2,11.6c0.7,3.4,1.3,6.7,2,10.1
		c0.6,3.3,1.1,6.7,1.5,10.1c0.4,3.3,0.9,6.5,1.4,9.8C180,430.9,180,431.5,179.9,432.2C180,432.2,180,432.2,179.9,432.2z"/>
	<path class="st12" d="M137.8,472.3c0.5,0.2,0.7,0.3,1,0.3c1.2,0.2,1.6,0.9,1.6,2.1c0,0.7,0.2,1.4,0.8,1.8c0.6,0.5,1.3,0.5,1.9,0.2
		c0.8-0.4,1.1-1.1,1-2c-0.2-2-0.7-4.1-1.1-6.1c-0.9-4-2.3-7.8-4-11.5c-0.3-0.7-0.1-0.9,0.6-1c7.3-0.7,14.5-1.6,21.8-2.7
		c7.4-1.1,14.8-2.5,22.2-4c3.7-0.8,7.4-1.6,11-2.3c0.1,0,0.3,0,0.5,0c-0.9,1.9-1.9,3.7-3,5.5c-2.5,4.3-5.4,8.4-8.7,12.2
		c-0.4,0.5-0.9,0.8-1.5,1.1c-2.6,1.2-5,2.7-7.2,4.4c-0.6,0.5-1.2,0.9-1.3,1.9c-0.1,1.5,0.9,2.4,2.4,1.9c0.3-0.1,0.7-0.3,1-0.6
		c3.2-2.7,6.8-4.6,10.9-5.7c6-1.6,11.6-0.8,16.8,2.5c2.3,1.4,3.3,3.7,4,6.1c1.6,6.1,1,12.1-0.7,18c-0.2,0.6-0.5,0.9-1.1,1
		c-5.9,1.4-11.8,2.5-17.8,3.3c-7.5,0.9-15,0.9-22.6,0.6c-7.1-0.3-14.2-1-21.2-2c-0.9-0.1-1.3-0.4-1.4-1.4
		C142.9,487.9,140.6,480.1,137.8,472.3z"/>
	<path class="st12" d="M97.5,476.1c-1.5,2.5-2.8,4.8-4,7.2c-1.8,3.6-3.3,7.3-3.8,11.3c-0.1,0.6-0.5,0.8-1,1
		c-4.4,1.4-8.9,2.4-13.5,3.2c-5.1,0.9-10.3,1.5-15.5,1.8c-5.1,0.3-10.3,0.3-15.5-0.2c-5.1-0.6-10-1.6-14.8-3.3c-1-0.4-2-0.9-3-1.3
		c-0.7-0.3-0.9-0.7-1-1.4c-1.2-10,4.9-19,14.7-21.5c4.4-1.1,8.7-0.3,12.8,1.4c0.2,0.1,0.4,0.2,0.6,0.3c0.8,0.4,1.7,0.4,2.4-0.3
		c0.7-0.7,0.7-1.4,0.4-2.3c-1-3-2.1-5.9-3.3-8.7c-3-7-6.6-13.7-10.4-20.3c-0.3-0.5-0.5-1-0.9-1.7c1.4,0.6,2.6,1.1,3.7,1.6
		c9,3.9,18.2,7.5,27.5,10.5c6.9,2.3,13.9,4.2,20.9,6c0.8,0.2,1,0.5,0.8,1.3c-1,6.1-3.5,11.7-6.6,17.1c-0.1,0.2-0.2,0.4-0.3,0.6
		c-0.5,1-0.2,2,0.6,2.5c0.9,0.5,1.9,0.2,2.5-0.7c0.5-0.8,1.1-1.7,1.5-2.6c0.2-0.4,0.5-0.7,1-0.7C94.7,476.7,95.9,476.4,97.5,476.1z"
		/>
	<path class="st7" d="M164.6,224.6c3.2-2.2,5.9-4.6,8-7.6c2.3-3.2,3.4-6.9,3.8-10.8c0.6-6.2-0.8-12.2-2.6-18.1
		c-1.4-4.6-2.9-9.1-3.6-13.9c-0.9-7.3-0.1-14.3,3.5-20.8c2.8-5.1,7.6-7.8,13.2-9.2c1.4-0.3,2.8-0.4,4.3-0.6c0.9-0.1,1.7,0.5,1.8,1.4
		c0.4,1.8,0.6,3.7,1,5.6c0.6,3.1,2,5.9,3.7,8.5c4.7,7,8.2,14.6,10.2,22.8c1.1,4.5,1.7,9.1,1.2,13.7c-0.8,7-4,12.7-9.1,17.4
		c-5.4,4.9-11.8,7.6-18.7,9.3c-4.4,1.1-8.8,1.8-13.4,2.1C166.9,224.5,165.9,224.7,164.6,224.6z"/>
	<path class="st9" d="M164.8,201.2c-4.8,1.9-9.7,3.1-14.8,3.7c-4,0.5-8,0.7-12,0.5c-4.1-0.3-7.9-1.1-11.8-2.5
		c-8.1-2.8-15.8-6.4-23.5-10.2c-1.8-0.9-3.5-1.8-5.1-3.1c-1.3-1-2.1-2.3-2.3-3.9c-0.4-3.2-0.4-6.4-0.5-9.6c0-0.6-0.2-1.3-0.4-1.9
		c-0.4-1.3-0.6-2.7-0.9-4c-0.2-1,0.1-1.6,1-2c2-0.9,4.1-1.5,6.3-1.8c4.1-0.6,8.2-0.9,12.3-0.6c5.4,0.3,10.7,0.4,16.1,0.7
		c3.9,0.2,7.8,0.5,11.7,0.6c2,0,4,0.6,6,1c2.5,0.3,4.9,0.8,7.3,1.3c0.7,0.2,1.2,0.6,1.5,1.3c0.6,1.5,1,3,1.5,4.5
		c1.2,3.7,2.6,7.4,3.8,11.1c0.4,1.1,0.3,1.2-0.7,1.6c-1.4,0.4-2.8,0.4-4.2,0.4c-5.6,0.1-11.2,0-16.7-0.7c-3.9-0.5-7.8-0.8-11.7-1.3
		c-0.1,0,0,0-0.1,0c-1-0.1-1.6,0.2-1.7,0.8c-0.1,0.6,0.5,1.1,1.4,1.2c5.8,0.7,11.6,1.3,17.5,1.9c2.3,0.2,4.7,0.4,7,0.3
		c3-0.1,6.1-0.1,9.1-0.6c0.4-0.1,0.7-0.1,1.1,0c0.4,0.2,0.5,0.6,0.6,1c0.9,2.9,1.8,5.8,2.4,8.7C165,200.1,165.3,200.7,164.8,201.2z"
		/>
	<path class="st13" d="M216,185.1c1.7,0.9,3.3,1.9,5.1,2.7c1.6,0.7,3.4,0.7,5.1,1c0.6,0.1,1-0.3,1.3-0.7c2.9-3.2,5.2-6.9,7.2-10.8
		c1.7-3.4,3.1-6.9,4.3-10.5c1.4-4,2.4-8,3.4-12.1c1-4.3,1.7-8.7,2.3-13.1c0.5-3.7,0.9-7.4,1.3-11.1c0.3-3.9,0.6-7.7,0.8-11.6
		c0.2-4.2,0.2-8.3,0.4-12.5c0.2-3.8,0.2-7.6,0.1-11.4c-0.1-3,0-6-0.2-9c-0.2-2.4,0.1-4.9-0.4-7.3c1.5,2.4,2.8,5,3.9,7.6
		c1.6,3.7,3.1,7.4,4.3,11.2c1.8,5.6,3.1,11.3,4,17.1c0.5,3.2,0.7,6.4,1.1,9.6c0.2,2.4,0.3,4.9,0.3,7.3c0,3.5-0.1,7-0.4,10.5
		c-0.3,2.9-0.5,5.8-0.9,8.7c-0.4,3.1-1,6.2-1.7,9.3c-1.7,8.3-4.3,16.4-7.7,24.2c-3.4,7.9-7.5,15.4-12.7,22.2
		c-1.9,2.5-3.9,4.9-6.5,6.8c-0.6,0.4-0.8,0.4-1.1-0.2c-1.9-3.6-3.4-7.5-5-11.2c-2.3-5.3-4.6-10.6-7.6-15.6
		C216.2,185.9,216.1,185.5,216,185.1z"/>
	<path class="st14" d="M205.1,308.2c1.3-1.8,2.7-3.4,3.9-5.2c2.2-3.3,3.4-7,3.8-11c0.4-3.8-0.1-7.5-0.6-11.2c-0.3-2-0.8-3.9-1-5.9
		c1.5-0.2,3-0.1,4.5-0.2c5.3-0.6,10.5-1.7,15.6-3.5c2.5-0.9,4.8-2,7-3.5c0.6-0.4,0.8-0.3,1.1,0.3c2.7,6.8,5.1,13.7,6.3,21
		c1.3,7.5,1.7,15,1.2,22.6c-0.2,3.1-0.6,6.1-1.5,9.1c-0.3,1-0.7,1.9-1.2,2.8c-0.8,1.2-2.1,1.5-3.4,1.7c-0.5,0.1-0.9,0-1.4,0.1
		c-0.7,0.2-1,0-0.8-0.8c0.6-2.1,1.1-4.3,1.3-6.5c0.3-3.9,0.6-7.9,0.1-11.8c-0.1-1-0.8-1.6-1.7-1.6c-0.9,0-1.6,0.7-1.6,1.7
		c0,0.8,0.1,1.7,0.1,2.6c0.1,5-0.1,10.1-1.5,15c-0.6,2-1.5,3.7-3.5,4.7c-0.7,0.4-1.4,0.5-2.1,0c-0.7-0.5-0.8-1.2-0.6-2
		c1.2-5.3,1.1-10.7,1-16.1c0-0.6-0.1-1.2-0.2-1.8c-0.1-1.1-0.9-1.8-1.8-1.7c-1,0.1-1.7,0.9-1.6,2c0.3,2.3,0.1,4.6,0.2,6.9
		c0.1,4.7-0.7,9.2-1.8,13.7c-0.2,0.9-1,1.1-1.7,1.5c-2.4,1.4-4.8,1.4-7.3,0.4c-0.8-0.3-0.9-0.7-0.5-1.4c1-2.2,1.7-4.5,2.1-6.8
		c0.3-1.9,0.5-3.9,0.2-5.9c-0.2-1.4-1.2-2.2-2.1-3c-2.8-2.5-6.1-4.1-9.5-5.5C205.8,308.4,205.5,308.3,205.1,308.2z"/>
	<path class="st15" d="M212.8,271.5c-2.5,0-2.5,0-3.1-2.4c-1.6-5.8-3.6-11.4-6-17c-3.2-7.4-7.2-14.4-11.6-21.2
		c-1.1-1.6-2.3-3.2-3.4-4.7c-0.6-0.8-0.5-0.9,0.4-1.2c4.7-1.4,9.1-3.6,12.8-6.8c1.1-0.9,2.1-1.9,2.9-3c0.6-0.8,1.1-0.7,1.7,0.1
		c2.3,2.9,4.6,5.7,6.8,8.7c2.6,3.5,5.2,7,7.6,10.7c4.2,6.4,8.4,12.9,11.9,19.7c1.6,3,3,6,4.5,9c0.4,0.7-0.1,1-0.5,1.3
		c-2.1,1.4-4.2,2.5-6.6,3.3c-4.8,1.7-9.7,2.8-14.8,3.3C214.5,271.4,213.6,271.5,212.8,271.5z"/>
	<path class="st16" d="M159.6,275.9c-0.1-3.3,0.4-6.4,1.3-9.3c0.8-2.4,2.1-4.6,3.4-6.8c2.6-4.5,5.2-8.9,7.8-13.4
		c0.7-1.2,1.5-2.4,2.2-3.6c0.5-0.8,1.6-0.9,2-1.8c0.1-0.2,0.3,0.2,0.4,0.4c0.2,1.9,0.3,3.8,0.4,5.7c0.3,3.7,0.6,7.3,1.2,10.9
		c1.1,7.4,2.9,14.7,4.6,22c1.9,8.1,3.7,16.2,6.3,24.1c0.6,1.8,0.6,1.8-1.3,1.8c-4.2,0-8.4,0.6-12.6,1.5c-1,0.2-1.5,0-2-0.9
		c-2.7-4.5-5.1-9.2-7.8-13.7c-2-3.3-3.8-6.8-5.3-10.4c-0.3-0.7-0.4-1.5-0.4-2.2C159.8,278.8,159.4,277.3,159.6,275.9z"/>
	<path class="st9" d="M77.2,427c-2.1-0.2-4.6-0.2-7-0.5c-2-0.2-2.9-1.5-3.1-3.1c-0.6-4.1-1.6-8.2-2.1-12.3c-0.1-1.3-0.3-2.5-0.5-3.8
		c-0.1-0.5,0-0.8,0.5-1c3.4-1.5,6.7-3.4,9.9-5.1c1.8-1,4-1.2,6-1.7c6.2-1.5,12.5-3,18.7-4.5c1.3-0.3,1.3-0.3,1.6,1
		c1.8,8.7,3.4,17.4,5.9,25.9c0.6,2.2,0.6,2.2-1.6,2.7c-3.1,0.6-6.1,1.2-9.3,1.4c-6,0.4-12.1,1.2-18.1,1.1
		C77.9,427,77.7,427,77.2,427z"/>
	<path class="st13" d="M150.6,317.8c-0.9-3.9-1.8-7.8-2.7-11.7c-0.5-2.3-0.6-4.6-1-7c-0.5-3.2-0.7-6.4-0.8-9.7
		c-0.1-3.2-0.1-6.3,0.1-9.5c0.2-4,1.3-7.8,2.5-11.5c1-3.1,2.4-6,3.7-9c1.3-2.9,2.6-5.9,4.1-8.7c1.6-3,3.5-5.8,5.3-8.7
		c2.1-3.6,4.7-6.9,6.9-10.4c0.8-1.3,1.5-2.6,2.5-3.8c1.3-0.2,2.6-0.2,3.9-0.3c1.9-0.2,3.7,0.6,5.7-0.4c-0.3,1-0.9,1.6-1.3,2.3
		c-3.1,5.2-6.3,10.3-9.4,15.5c-2.6,4.3-5,8.6-7.6,12.9c-0.8,1.3-1.5,2.7-2.2,4c-0.5,0.9-1.5,1.3-1.9,2.2c-1,2.1-1.3,4.4-1.8,6.7
		c-0.2,1.1-0.4,2.2-0.4,3.3c-0.2,4.4,0.8,8.6,2.1,12.8c0.7,2.3,2.3,3.9,3.3,5.9c1.4,2.6,2.8,5.2,4.3,7.7c1.4,2.4,2.4,5.1,4.2,7.3
		c0.4,0.5,0.6,0.8-0.3,1.1c-2.8,0.9-5.5,2.2-8.2,3.5C157.8,314.1,154.2,315.9,150.6,317.8z"/>
	<path class="st8" d="M87.7,195.2c-2.8,4.5-5.1,9.3-7.4,14.1c-3.1,6.6-6.2,13.2-8.4,20.1c-1.6,5-3.1,10-4.1,15.1
		c-0.1,0.5-0.1,1-0.2,1.5c-0.6,2.2-1.6,4.3-1.9,6.6c-0.2,2-0.5,4-0.7,6c-0.2,2.2-0.3,4.4-0.4,6.5c-0.1,1-0.9,1.3-1.6,1.6
		c-1.5,0.6-3.1,1.1-4.6,1.8c-2.7,1.3-5.4,2.7-8,4.2c-1,0.6-2,1.2-3,1.9c-0.2-0.5-0.4-1-0.3-1.5c0.3-3.2,0.4-6.5,0.8-9.7
		c0.3-2.5,0.5-5.1,0.9-7.6c0.4-3.1,1-6.2,1.8-9.3c0.8-3.3,1.7-6.6,2.8-9.8c2.3-7,5.7-13.4,10.5-19c1.8-2,3.6-4,5.4-6
		c1.9-2.2,4.1-4.1,6.2-6C79.2,201.9,83.4,198.4,87.7,195.2z"/>
	<path class="st11" d="M54.3,411C54.2,411,54.2,411,54.3,411c-0.1-0.8-0.3-1.7-0.1-2.2c0.3-0.6,1.2,0,1.8-0.1
		c1.6-0.1,3.2-0.5,4.9-0.7c0.4,2.5,0.8,5.1,1.2,7.7c0.5,3,1.1,6.1,1.7,9.1c0.7,3.4,1.8,4.5,5.4,5c5.8,0.8,11.5,0.7,17.3,0.3
		c0.8,0,1.5,0.1,2.2,0.1c0.6,0,0.4,0.5,0.4,0.8c-0.2,2.2-0.4,4.4-0.6,6.5c-0.4,4.8-0.8,9.7-1.2,14.5c-0.1,1.7-0.1,1.7-1.7,1.2
		c-9.6-2.7-19-5.9-28.2-9.5c-0.8-0.3-1.1-0.7-1.1-1.6c-0.8-9-1.5-18-1.9-27c-0.1-1.2-0.2-2.4-0.1-3.6c0.2-0.9,0-1.8,0.1-2.5
		c0-0.3-0.2-0.1-0.1-0.2c0,0,0,0,0,0.1C54.4,409.8,54.5,410.4,54.3,411z"/>
	<path class="st17" d="M63.6,270.1c-0.3,2.9-0.7,5.8-1,8.6c-0.3,2.7-0.5,5.4-0.7,8.1c-0.2,2.2-0.3,4.5-0.4,6.9
		c-0.8-1-1.6-1.9-2.3-2.8c-0.3-0.3-0.6-0.6-1-0.9c-0.6-0.5-1.2-0.5-1.8-0.1c-0.6,0.3-0.6,1-0.5,1.6c0.2,1.1,0.7,2.1,1.4,3
		c1.3,1.7,2.5,3.5,3.8,5.2c0.2,0.3,0.4,0.7,0.4,1.1c-0.2,3.8-0.1,7.7-0.1,11.5c0,0.1,0,0.2-0.1,0.3c-1.6-1.3-3.2-2.7-4.6-4.1
		c-1.9-1.9-3.7-3.8-5.6-5.8c-0.4-0.4-0.8-0.9-1.1-1.4c-0.4-0.7-1.1-1-1.9-1.1c-1.2-0.1-1.7,0.5-1.5,1.7c0.2,1.9,1.5,3.1,2.7,4.4
		c2.2,2.5,4.4,4.9,7,7.1c1.1,0.9,2.1,1.8,3.2,2.7c0.5,0.4,0.6,0.7-0.1,1.1c-1.5,0.9-2.9,0.9-4.3-0.1c-3-2-5.7-4.3-8.4-6.6
		c-1.7-1.5-3.6-2.9-5.1-4.7c-0.7-0.9-1.4-1.9-1.9-2.9c-0.5-0.9-0.5-1.8,0.1-2.7c2.2-3.5,4.5-6.8,7.6-9.5c3.4-2.9,6.6-6.1,10.1-8.9
		c0.4-0.4,1-0.6,1.4-1c0.6-0.5,1.2-1.1,0.8-1.9c-0.4-0.9-1.3-0.7-2-0.4c-2,1-4,2.1-5.8,3.4c-0.9,0.7-1.8,1.3-2.8,2
		c-0.7-1.8-0.9-3.7-1.3-5.6c-0.1-0.5,0-0.9,0.5-1.2c4.3-2.7,8.6-5.4,13.2-7.6c0.1,0,0.1,0,0.2,0c0.3-0.1,0.6-0.2,0.8-0.3
		C63.4,269.2,63.8,269.3,63.6,270.1z"/>
	<path class="st16" d="M103.9,232.5c-0.1-2.5,0.8-4.9,1.3-7.3c0.2-0.7,0.3-1.5,0.6-2.2c0.3-0.8,0-1.1-0.6-1.4
		c-5.2-2.5-10.4-5.1-15.5-7.7c-2.1-1.1-4.2-2.1-5.9-3.8c0.7-1.5,1.3-2.9,2-4.4c1.7-3.5,3.6-6.9,5.6-10.3c0.6-1,1.4-1.9,2.1-2.9
		c0.4-0.6,1.1-0.8,1.9-0.2c3.1,2.1,6.4,3.8,9.9,5.4c1.1,0.5,2.2,0.9,3.2,1.5c1.7,0.9,3.7,1.4,5.5,2.3c0.7,0.4,0.8,0.7,0.4,1.4
		c-2.9,5.3-5.2,11-7.1,16.8c-1.3,4.1-2.3,8.2-3.1,12.4C104,232.2,103.9,232.3,103.9,232.5z"/>
	<path class="st8" d="M203.4,161.5c-1.9-3.2-4.3-6.1-5.5-9.8c-0.5-1.7-0.9-3.3-1.1-5.1c-0.1-1.2-0.3-2.4-0.7-3.5
		c-0.2-0.4-0.2-0.8,0-1.3c1.9-4,3.5-8,4.8-12.3c0.2-0.7,0.4-0.8,1.1-0.6c3.3,0.8,6.6,1.5,9.9,1.6c0.9,0.1,1.8,0.2,2.7,0.2
		c0.6,0.2,1.2,0.1,1.8,0.1c0.7,0,0.9,0.3,1,0.9c0,0.1,0,0.2,0,0.3c0.2,3.8,0,7.6-1.8,11.1c-2.7,5.4-6,10.5-9.7,15.4
		c-0.5,0.7-1,1.5-1.6,2.1C204.3,161,204.1,161.6,203.4,161.5z"/>
	<path class="st18" d="M102.2,369.8c3.3-3.3,6.8-6.2,10.3-9.2c9.2-7.8,18.8-15,29.1-21.4c4-2.5,8.1-4.8,12.3-7
		c0.1-0.1,0.3-0.1,0.5-0.2c0.2,0,0.3-0.1,0.5-0.2c1-0.5,1.1-0.4,1.5,0.5c0.9,1.8,1.9,3.5,2.8,5.3c0.2,0.4,0.5,0.9,0.2,1.4
		c-0.2,0.3-0.5,0.5-0.9,0.7c-10.4,4.7-20.1,10.5-29.7,16.6c-7.3,4.6-14.4,9.3-21.2,14.5c-0.2,0.1-0.5,0.2-0.7,0.3
		c-0.4,0-0.8,0.2-1.3,0.4c-1.1,0.6-2.3,0.8-3.6,0.4c-1.1-0.4-1.2-0.8-0.4-1.6C101.9,370.1,102.1,370,102.2,369.8z"/>
	<path class="st13" d="M203.4,161.5c1.3-0.9,2-2.3,2.9-3.5c3.4-4.6,6.6-9.5,9.2-14.6c1.8-3.6,2-7.4,1.9-11.3c0-0.7-0.4-1.1-1.2-1
		c-0.5,0-1,0.2-1.5-0.2c2.9,0,5.8,0.2,8.7-0.4c0.8-0.2,1.2,0.4,1.6,0.9c2.4,2.9,3.8,6.2,3.7,10c0,2.9-1.3,5.5-2.8,7.9
		c-2.1,3.5-4.6,6.6-7.3,9.6c-1.6,1.8-3.3,3.5-4.9,5.2c-1.8,1.9-3.8,3.6-5.7,5.3c-0.2,0.2-0.5,0.6-0.7-0.1
		C206.2,166.6,204.8,164,203.4,161.5z"/>
	<path class="st19" d="M250.3,303.6c0-0.4,0.1-0.9,0-1.3c-0.3-1.2,0.3-1.8,1.4-2.2c2.2-0.8,4.3-2,6.6-2.5
		c9.5-2.1,19.5,4.6,21.3,14.2c1.5,8-2.3,15.6-8.9,19.2c-2.8,1.6-5.9,2.5-9.3,1.8c-1.7-0.4-2.7-1.4-3.2-3c-0.4-1.4,1-3.1,2.6-3.1
		c2.2,0.1,4.4-0.1,6.4-1.2c3.5-2,5.6-4.9,6.1-9c0.6-5.4-2.9-10.3-7.1-12c-2.4-1-4.6-0.7-6.9-0.3c-2.1,0.3-4.1,0.9-6,1.8
		c-0.7,0.3-1.6,0.4-2.4,0.6c-0.5,0.1-0.5-0.2-0.5-0.5C250.3,305.3,250.3,304.4,250.3,303.6C250.3,303.6,250.3,303.6,250.3,303.6z"/>
	<path class="st18" d="M98.7,364.4c4.3-5.2,9-10.1,14-14.6c4.3-3.9,8.7-7.8,13-11.6c2.4-2.2,5.2-3.9,7.9-5.7
		c5.1-3.4,10.1-7,15.5-10.1c0.3-0.2,0.7-0.3,1-0.5c1.7-0.8,1.7-0.8,2.3,1c0.3,0.7,0.5,1.5,0.8,2.2c0.2,0.5,0.3,0.9,0,1.4
		c-0.6,0.8-1.4,1.2-2.2,1.8c-4.8,3.5-9.6,7.1-14.5,10.3c-4.1,2.8-8.2,5.5-12.1,8.5c-8.6,6.5-16.9,13.3-24.7,20.6
		c-0.1,0.1-0.3,0.2-0.4,0.3c-0.5,0-0.6-0.3-0.6-0.7C98.4,366.4,98.2,365.4,98.7,364.4z"/>
	<path class="st20" d="M217.3,127.3c-5.2,0-9.8-0.7-14.4-1.8c-0.7-0.2-0.8-0.5-0.6-1c0.7-3,1.3-6.1,1.6-9.2c0.1-0.9,0.8-0.5,1.2-0.5
		c2.9,0.2,5.9,0.4,8.8,0.3c5.2-0.2,10.3-0.4,15.4-1.5c0.7-0.2,0.9-0.1,0.8,0.8c-0.3,2.6-0.8,5-1.6,7.5c-1,3.4-3.1,5.1-6.7,5.2
		C220.1,127.1,218.4,127.4,217.3,127.3z"/>
	<path class="st21" d="M121.8,380.1c7.9-4.1,15.7-8.3,23.3-12.9c5.7-3.5,11.3-7.1,16.7-10.9c0.4-0.3,0.9-0.5,1.3-0.8
		c0.7-0.4,1.5-0.7,2.2-1c0.7-0.2,1.2,0,1.3,0.7c0.2,1.7,0.8,3.4,1,5.1c0,0.1,0,0.2-0.1,0.3c-1.4,1.2-2.9,2-4.4,2.9
		c-5.8,3.7-11.9,7-18,10.3c-6.9,3.8-14.1,7.1-21.1,10.8c-0.3,0.2-0.7,0.3-1.1,0.3c-0.4-0.1-0.5-0.5-0.6-0.8
		c-0.3-0.9-0.6-1.8-0.8-2.7C121.3,380.9,121.2,380.5,121.8,380.1z"/>
	<path class="st8" d="M59.6,354.4c-1.7-1.2-3.5-2.3-5.2-3.7c-2.1-1.8-4.1-3.8-5.9-6c-0.4-0.5-0.5-1.1-0.4-1.7
		c0.8-4.5,2.2-8.9,3.5-13.2c0.8-2.6,1.8-5.2,2.7-7.8c0.1-0.4,0.4-0.8,0.9-0.6c1.9,0.8,3.5,0.2,5.2-0.7c0.1-0.1,0.3-0.2,0.5-0.3
		c0.2,2.3-0.1,4.4-0.3,6.5c-0.1,1.5-0.1,3-0.3,4.5c-0.3,2.2-0.2,4.4-0.2,6.5c0,4.2-0.6,8.3-0.6,12.5C59.4,351.7,59.8,353,59.6,354.4
		z"/>
	<path class="st22" d="M184.9,335.3c-6.2,5.1-12.8,9.7-19.3,14.4c-0.2,0.1-0.4,0.2-0.6,0.4c-0.1,0.1-0.2,0.1-0.3,0
		c0.1-1.2-0.6-2.1-1.1-3.1c-1.3-2.4-2.4-4.8-3.8-7.1c-0.2-0.3-0.3-0.5-0.2-0.9c0.4-0.6,1.1-0.7,1.6-1c0.5-0.1,1-0.3,1.4-0.7
		c1.5-1,3.2-1.6,4.9-2.3c4.5-2,9-3.9,13.6-5.8c0.4-0.2,0.7-0.3,1.2-0.4c0.1,0,0.2,0,0.3,0.1c1.3,1.4,2,3,2.2,4.8
		C184.8,334.2,185.4,334.7,184.9,335.3z"/>
	<path class="st23" d="M123,384.8c5.5-2.8,11-5.5,16.5-8.3c8.2-4.3,16.4-8.7,24.3-13.7c1.2-0.8,2.3-1.7,3.7-2.2
		c0.4,0.1,0.5,0.5,0.6,0.9c0.5,1.9,0.9,3.8,1.3,5.7c0.1,0.4,0.1,0.7-0.2,1.1c-3.7,2.1-7.7,3.8-11.7,5.5c-4.8,2.1-9.6,4.2-14.5,5.8
		c-6.2,1.9-12.4,3.7-18.6,5.3C123.8,385,123.4,385.1,123,384.8z"/>
	<path class="st24" d="M182.2,328.9c-3.5,1.5-7.1,3-10.6,4.6c-3,1.3-6.1,2.5-8.9,4.1c-0.5,0.2-1,0.4-1.4,0.6
		c-0.5,0.3-1.1,0.6-1.6,0.8c-0.1,0.1-0.3,0.1-0.4,0c0.2-0.3,0.1-0.6-0.1-0.9c-1.1-2-2.1-4-3.1-6.1c-0.2-0.3-0.4-0.4-0.7-0.3
		c-0.3,0.1-0.5,0.3-0.9,0.3c2.5-1.6,5.2-2.8,8-4c4.9-2.2,10-4.1,15.1-5.7c0.2-0.1,0.4-0.1,0.6-0.1c0.6-0.2,1-0.1,1.2,0.5
		c0.6,1.9,1.8,3.6,2.7,5.3C182.1,328.3,182.4,328.5,182.2,328.9z"/>
	<path class="st13" d="M222.4,111.1c2.3-1.2,4.3-2.6,5.8-4.8c2.2-3.3,2.1-6.6,0.6-10.1c-1.2-2.7-2.5-5.3-2.8-8.2
		c-0.2-2.1-0.5-4.1-0.2-6.2c0.2-1.5,0.2-3,0.5-4.5c0.1-0.5-0.1-1.1,0.6-1.4c0.6,4.5,2.1,8.7,4.4,12.7c1.8,3.1,4.2,5.6,6.2,8.5
		c0.9,1.4,1.8,2.7,2,4.4c0.2,3.1-1.6,4.9-4,6.2c-3,1.7-6.3,2.3-9.6,2.9C224.7,110.8,223.5,110.9,222.4,111.1z"/>
	<path class="st25" d="M164.8,350.1c0.1,0,0.2,0,0.2,0c-3.1,2.4-6.4,4.5-9.7,6.8c-0.9,0.6-1.8,1.2-2.7,1.8c-0.3,0-0.7,0.1-1,0.3
		c-3.9,1-7.9,1.5-11.9,2.1c-1.6,0.2-2.9,0.9-4.1,1.9c-4.4,4-9.5,6.9-15.1,8.8c-1.1,0.4-1.1,0.4-0.8,1.5c0.3,1.3,0.8,2.5,1.1,3.7
		c-1.2,0.6-2.3,1.3-3.5,1.6c-0.8-0.9-0.9-2.1-1.2-3.1c-0.8-2.9-0.4-2.4-3.2-2c-2.6,0.3-5.3,0.7-7.9,0.8c-0.4,0-0.8,0-1.2-0.1
		c-0.5-0.4-0.1-0.7,0.1-0.9c1-0.8,2-1.8,3.2-2.4c0.2-0.1,0.4-0.1,0.6-0.2c1-0.5,2.1-0.2,3.1-0.4c0.9-0.2,1.9-0.3,2.8-0.5
		c1-0.2,2-0.4,3-0.2c0.9,0.1,1.8-0.2,2.6-0.6c1.9-0.9,3.8-1.8,5.7-2.7c3.5-1.6,6.2-4.2,8.7-7c0.3-0.3,0.5-0.6,0.7-0.8
		c1-1.1,2.2-1.7,3.8-1.6c1.9,0.1,3.8,0.1,5.6-0.1c2.5-0.3,4.8-1,7.2-1.5c4-0.8,7.5-2.7,11.3-4.1C163,350.7,163.7,350,164.8,350.1z"
		/>
	<path class="st11" d="M53.9,401.8c-0.6-15.6,0.3-31,1.3-46.6c1.4,1.1,2.7,2.2,3.9,3.3c0.2,0.1,0.1,0.6,0.1,0.9
		c-0.1,3.8-0.4,7.5-0.7,11.3c-0.3,3.6-0.2,7.1,0,10.7c0.1,2.8,0.3,5.6,0.5,8.4c0.1,2.1,0.3,4.2,0.6,6.3c0.2,1,0,1.8-1,2.3
		C56.9,399.2,55.5,400.5,53.9,401.8z"/>
	<path class="st26" d="M27.6,500.3c2.1,0.7,4.1,1.4,6,1.9c7.6,2,15.4,2.6,23.2,2.2c9.8-0.4,19.5-1.6,29-4.1c0.6-0.1,1.1-0.3,1.7-0.5
		c0.5-0.1,1-0.4,1.7-0.4c0,1,0,2.1,0,3.1c0,0.6-0.4,0.6-0.8,0.7c-2.4,0.7-4.9,1.3-7.4,1.8c-11.3,2.2-22.7,2.9-34.2,2.2
		c-4.9-0.3-9.7-0.8-14.3-2.7C30.6,503.7,28.9,502.4,27.6,500.3z"/>
	<path class="st26" d="M179.4,506c-5.3,0.2-10.7,0-16-0.3c-5-0.3-9.9-0.8-14.8-1.3c-1.2-0.1-2.3-0.3-3.5-0.4
		c-0.6-0.1-0.8-0.3-0.8-0.9c-0.1-2.1-0.1-2.1,2-1.8c12.1,1.5,24.2,2.6,36.5,1.8c7.2-0.4,14.3-1.6,21.3-3.1c0.5-0.1,1.1-0.2,1.7-0.3
		c-1.5,3-3.8,4.6-7.1,4.8c-3.7,0.4-7.4,0.7-11.1,1C184.8,505.7,182.1,505.8,179.4,506z"/>
	<path class="st16" d="M160.4,187.6c0.6-0.2,0.6-0.6,0.4-1.1c-1.3-3.8-2.7-7.7-4-11.5c-0.5-1.4-0.9-2.7-1.3-4.1
		c-0.3-0.8-0.7-1.3-1.7-1.5c-2.3-0.4-4.6-0.9-6.9-1.4c2.9,0.1,5.8,0.9,8.7,1.5c3.5,0.8,7,1.6,10.5,2.3c0.7,0.2,1,0.4,1,1.2
		c0.1,2.8,0.7,5.6,1.5,8.3c0.4,1.4,0.7,2.8,0.8,4.3c0,0.5-0.5,0.5-0.8,0.6c-2.3,0.6-4.6,1.1-6.9,1.5
		C161.2,187.8,160.7,187.9,160.4,187.6z"/>
	<path class="st23" d="M120.7,377.1c-0.8-0.9-0.8-2.1-1.2-3.2c-0.6-1.8-0.5-1.9,1.3-2.5c5.5-1.9,10.4-4.8,14.6-8.7
		c1.3-1.2,2.8-1.7,4.5-1.9c4-0.5,7.9-1.2,11.8-2c0.2,0,0.3,0.1,0.2,0.3c-6.6,4.4-13.4,8.5-20.3,12.3
		C128.1,373.2,124.5,375.2,120.7,377.1z"/>
	<path class="st24" d="M153,326.5c0.2-0.4,0.2-0.8,0-1.3c-0.4-0.9-0.8-1.9-1-2.9c-0.2-0.8-0.6-1.1-1.3-0.6c-0.2,0.1-0.4,0.1-0.6,0.1
		c2.2-1.5,4.6-2.7,7-3.9c3.9-2,7.9-3.9,12-5.5c0.3-0.1,0.6-0.2,1-0.3c0.6-0.2,1.2-0.4,1.8-0.6c0.5-0.2,0.9-0.1,1.2,0.4
		c0.8,1.2,1.6,2.5,2.4,3.8c0.1,0.2,0.2,0.5,0.1,0.8c-0.4,0.4-0.9,0.5-1.4,0.7c-5.7,1.8-11.1,4.4-16.5,6.8c-1.4,0.6-2.7,1.4-3.9,2.3
		C153.5,326.5,153.3,326.7,153,326.5z"/>
	<path class="st10" d="M106.2,104.1c-5.5-0.6-10.7,0.3-15.9,0.2c-1.2,0-1.2,0-1-1.2c0.2-1,0.5-1.9,0.6-2.9c0.1-1.7,1-2.6,2.4-3.4
		c2.5-1.3,5-2.5,7.7-3.5c0.5-0.2,0.9-0.2,1.1,0.5C102.2,97.5,103.9,100.8,106.2,104.1z"/>
	<path class="st13" d="M160.4,187.6c2.7-0.1,5.3-0.9,7.9-1.5c0.3-0.1,0.7,0,0.9-0.3c0.9-0.4,1.4,0.1,1.7,0.8c0.4,0.8-0.2,1.4-1,1.7
		c-0.2,0.2-0.4,0.2-0.6,0.3c-2.2,0.5-4.4,1.1-6.6,1.5c-0.3,0.1-0.5,0.1-0.8,0c-3.7,0.5-7.4,0.8-11.1,0.7c-4,0-8-0.4-12-0.9
		c-3.4-0.4-6.8-0.7-10.2-1.1c-0.7-0.1-1.4-0.1-2-0.3c-0.8-0.2-1.4-0.6-1.3-1.5c0.1-0.9,0.7-1.2,1.5-1.2c2.1,0.2,4.2,0.4,6.3,0.7
		c2.9,0.3,5.8,0.7,8.7,1c4.3,0.5,8.7,0.6,13,0.4C156.8,187.9,158.6,187.8,160.4,187.6z"/>
	<path class="st16" d="M162.1,190.1c2.6-0.8,5.3-1.4,8-1.9c1.1,2.8,1.8,5.8,2.7,8.7c0.1,0.4,0.1,0.7-0.3,1c-2.5,1.3-5,2.5-7.6,3.3
		c0.2-1.2-0.3-2.3-0.6-3.4C163.5,195.2,162.8,192.6,162.1,190.1z"/>
	<path class="st27" d="M96.2,371c-3.1,3-6.1,6.2-9.4,8.9c-0.9,0.3-1.3,1.1-2,1.7c-1.2,1-2.4,2.2-3.4,3.4c-0.2,0.3-0.6,0.6-0.5,1.1
		c-1.7,2.3-3.9,4.3-5.7,6.6c-0.4,0.5-0.8,0.3-1.2,0c-0.5-0.3-0.3-0.6,0-1c5.3-7.9,11.4-15.1,18.6-21.2c1-0.9,2-1.8,3-2.8
		c1.1,0.6,0.7,1.7,0.8,2.6C96.5,370.6,96.4,370.8,96.2,371z"/>
	<path class="st28" d="M167.5,360.4c-0.4-1.6-0.8-3.1-1-4.8c-0.1-1.2-0.2-1.2-1.3-0.8c-0.7,0.2-1.4,0.4-2,0.6
		c2.6-1.9,5.3-3.8,7.9-5.7c6-4.3,12-8.7,17.8-13.2c-1.2,2.8-3.1,5.1-5.4,7.1c-2.9,2.6-6.2,4.7-9.6,6.6c-1.4,0.8-2.7,1.6-4.1,2.4
		c-0.4,0.2-0.5,0.5-0.4,0.9c0.5,1.6,0.7,3.3,1.3,5C169.6,359.2,168.8,360.2,167.5,360.4z"/>
	<path class="st8" d="M56.7,406.2c-0.2,0-0.5,0-0.8,0c-1-0.2-1.3-1-0.8-1.8c0.7-1.1,1.8-1.7,2.8-2.3c3.1-1.7,6.2-3.4,9.3-5
		c1.4-0.7,2.9-1.2,4.5-1.2c0.6,0,1.3-0.1,1.5,0.6c0.2,0.8,0,1.5-0.5,2.1c-0.8,0.7-1.5,1.5-2.5,2c-2.6,1.2-4.9,2.9-7.5,3.9
		c-1.4,0.6-2.9,1-4.3,1.6C57.8,406.3,57.3,406.3,56.7,406.2z"/>
	<path class="st29" d="M98.7,386.7c-3,1.4-6.2,2.2-9.3,3.5c-2.6,1.1-5.2,2.1-7.8,3.1c-0.1-0.3,0.2-0.5,0.4-0.7
		c3.5-3.4,7.1-6.6,10.7-9.9c1.1-1.1,2.3-2.2,3.6-3.1c0.6-0.4,0.6-1.2,1.2-1.6c0.3,0.2,0.3,0.4,0.3,0.7c0.2,2.2,0.7,4.2,1.1,6.4
		C98.9,385.7,99.1,386.2,98.7,386.7z"/>
	<path class="st27" d="M97.3,378.1c0.2,1.5-1.2,1.8-1.9,2.5c-0.8,0.9-1.9,1.6-2.8,2.4c-3.4,3.2-6.8,6.3-10.1,9.5
		c-0.3,0.3-0.7,0.3-0.8,0.7c-1.6,0.6-3.2,1.3-4.8,1.9c-0.1-0.1-0.2-0.2-0.2-0.3c5.9-5.9,11.9-11.8,17.8-17.6
		c0.7-0.5,1.2-1.2,1.8-1.8c0.2-0.2,0.4-0.5,0.7-0.4c0.3,0.1,0.4,0.4,0.4,0.7C97.3,376.6,97.8,377.3,97.3,378.1z"/>
	<path class="st30" d="M153.6,326.2c1.3-1.4,3-2.1,4.7-2.8c3.4-1.5,6.8-3,10.2-4.4c2.2-1,4.5-1.7,6.9-2.4c0.1-0.1,0.2-0.1,0.3,0
		c1.8,1.9,1.7,2.2-0.6,3.1c-1.7,0.6-3.4,1-5,1.8c-4.1,1.6-8.3,3.2-12.2,5.2c-3.2,1.6-6.3,3.3-9.4,4.9c-0.2,0.1-0.5,0.2-0.7,0.3
		c-0.2-0.6,0.3-0.7,0.6-0.9c1.5-0.9,3.1-1.7,4.7-2.5c0.6-0.3,0.9-0.6,0.6-1.2C153.4,326.9,153.4,326.5,153.6,326.2z"/>
	<path class="st31" d="M175.7,310.5c3.1-0.9,6.2-1.2,9.4-1.4c2-0.1,4-0.2,6,0.1c0.8,0.4,0.9,1.2,1,1.9c0,0.6-0.1,0.9-0.8,1
		c-3.6,0.9-7.3,1.9-10.8,3c-0.6,0.2-1.2,0.2-1.8,0.1c-1.3-1.3-2.2-2.8-3.1-4.3C175.5,310.8,175.5,310.6,175.7,310.5z"/>
	<path class="st28" d="M190.3,318.9c-1.5,1.4-3.3,2.6-5.1,3.6c-0.9,0.5-0.8,1-0.4,1.7c0.8,1.2,1.6,2.4,2.2,3.7
		c-1.2-0.6-2.2,0.3-3.2,0.7c-0.4,0.1-0.8,0.5-1.3,0.4c-0.1,0-0.1,0-0.2,0c-1-1.4-1.6-3.1-2.6-4.6c-0.3-0.5-0.6-1-0.7-1.6
		c-0.1-0.6-0.5-0.7-0.9-0.6C182.1,320.8,186,319.3,190.3,318.9z"/>
	<path class="st25" d="M98.7,386.7c-0.1-1.9-0.7-3.7-0.9-5.6c-0.1-0.8-0.4-1.6-0.3-2.4c0.7-1.1,1.8-1.7,2.8-2.5
		c0.2-0.2,0.4-0.2,0.6,0.1c0.6,2.9,1.1,5.9,1.7,8.8C101.4,385.8,100.1,386.2,98.7,386.7z"/>
	<path class="st32" d="M100.1,391.6c-3,0.9-6.1,1.7-9.1,2.6c-3.6,1-7.2,2.1-10.9,3.1c-0.6,0.2-1.3,0.2-2,0.3c-0.2,0-0.4,0-0.4-0.2
		c0-0.2,0.1-0.3,0.3-0.4c0.6-0.2,1.2-0.4,1.8-0.5c5.9-1.7,11.6-4,17.2-6.3c0.7-0.3,1.4-0.5,2.1-0.7c0.4-0.2,0.6,0.1,0.7,0.4
		C100.1,390.4,100.4,391,100.1,391.6z"/>
	<path class="st33" d="M178.7,315.1c1.3,0.2,2.5-0.5,3.7-0.8c3.1-0.8,6.1-1.8,9.2-2.5c0.6-0.1,0.2-0.5,0.3-0.7
		c0.3,0,0.4,0.2,0.4,0.4c0.2,1.4-0.6,2.2-1.6,2.9c-3.4,1.1-6.7,2.2-10.1,3.3c-1-0.5-1.4-1.5-1.9-2.4
		C178.6,315.3,178.7,315.2,178.7,315.1z"/>
	<path class="st25" d="M182.5,328.9c1-0.4,1.9-0.9,2.9-1.3c0.7-0.3,1.2-0.3,1.7,0.3c0.8,1.1,1.4,2.4,2,3.6c0.1,0.3,0.1,0.7,0.6,0.6
		c-1.6,1.1-3.1,2.1-4.7,3.2C184.3,333.1,183.9,330.8,182.5,328.9z"/>
	<path class="st25" d="M167.5,360.4c1.1-0.5,2-1.5,3.2-1.8c0.5,2.2,1,4.4,1.5,6.6c0.1,0.4,0.2,0.8,0.4,1.1c-1.1,0.8-2.2,1.4-3.4,1.9
		c-0.4-2.6-1-5.1-1.7-7.6C167.4,360.5,167.4,360.5,167.5,360.4z"/>
	<path class="st28" d="M100.9,376.2c-0.9,0-1.3,0.9-1.9,1.3c-0.5,0.3-1,0.8-1.5,1.2c0-0.2,0-0.5-0.2-0.6c-0.1-0.8-0.2-1.5-0.2-2.3
		c0-0.2,0-0.4-0.2-0.4c-0.2-0.1-0.4,0.1-0.5,0.2c-0.7,0.5-1.1,1.4-2,1.7c1.7-2,3.7-3.6,5.5-5.4c0.7-0.7,1.4-1.5,2.2-2.1
		c0,0.3-0.2,0.4-0.4,0.6c-0.7,0.8-0.6,1,0.4,1.3c1.2,0.3,2.4,0.2,3.4-0.5c0.4-0.3,0.9-0.4,1.3-0.3c-0.8,0.9-1.8,1.5-2.7,2.3
		c-0.3,0.2-0.6,0.5-0.8,0.8c-0.7,0-1.4,0.1-2,0c-0.9-0.1-1,0.3-0.8,1C100.8,375.4,100.9,375.8,100.9,376.2z"/>
	<path class="st25" d="M210,332c0-0.4-0.4-0.5-0.6-0.8c-1-1-1.7-2.3-1.9-3.7c-0.2-0.4,0-0.9-0.2-1.3c0-0.1,0-0.3,0-0.4
		c0.2-1,1-1.4,1.6-2c0.7-0.7,1.4-1.3,2.4-1.7c0.8,0.1,1.5,0.1,2.2-0.2c-0.3,1.5-0.7,3-1,4.5c-0.4-0.6-1-0.7-1.6-0.8
		c-0.6,0-0.4,0.4-0.4,0.7c0.1,0.5,0.1,1.1,0.3,1.6c0.1,0.4,0.5,0.6,0.9,0.8C211.1,329.8,210.6,330.9,210,332z"/>
	<path class="st28" d="M178.7,315.1c0,0.1,0,0.1,0,0.2c0.1,0.4-0.2,0.5-0.5,0.6c-0.8,0.3-1.7,0.7-2.6,0.7c-0.1,0-0.1,0-0.2,0
		c-0.7-1.7-1.8-3.1-2.7-4.6c-0.2-0.3-0.5-0.3-0.8-0.2c-0.6,0.2-1.2,0.5-1.9,0.5c1.8-0.8,3.7-1.3,5.6-1.8
		C176.4,312.2,177.7,313.6,178.7,315.1z"/>
	<path class="st34" d="M153.6,326.2c0,0.2,0,0.5,0.1,0.7c0.8,1.1,0,1.4-0.8,1.9c-1.6,0.8-3.2,1.7-4.8,2.6c-0.2,0.1-0.4,0.2-0.5,0.5
		c-3.7,2.2-7.4,4.5-11.1,6.7c1.2-1.3,2.7-2,4.1-3c4-3,8.1-5.9,12.1-8.8c0.1-0.1,0.2-0.2,0.3-0.3
		C153.2,326.4,153.4,326.3,153.6,326.2z"/>
	<path class="st28" d="M119.3,386.1c-0.3-1.4-0.6-2.8-1.3-4.2c1.2-0.6,2.5-1.2,3.7-1.8c-0.1,0.2-0.2,0.3-0.2,0.5
		c0.4,1.4,0.6,3,1.4,4.3c0.4,0,0.8,0,1.3,0C122.5,385.1,121,385.8,119.3,386.1z"/>
	<path class="st35" d="M201.8,316.8c0.6,0,1.2,0,1.8-0.1c1-0.1,2.1,0,3.2-0.1c0.5,0,0.7,0.3,0.7,0.7c-0.1,0.9,0,1.8-0.5,2.7
		c-0.7,0.5-1.5,1-2.2,1.5c-0.2,0.1-0.4,0.1-0.5-0.1c-0.1-0.1-0.2-0.3-0.3-0.4c-1.2-1.4-1.2-1.5,0.2-2.8c0.3-0.3,0.6-0.4,0.8-0.8
		c-1-0.4-2.1,0.1-3.1-0.3C201.8,317,201.7,316.9,201.8,316.8C201.8,316.8,201.8,316.8,201.8,316.8z"/>
	<path class="st36" d="M175.7,316.6c0.9-0.6,2.2-0.5,3.1-1.2c0.6,0.8,1.2,1.6,1.9,2.5c-3.4,1.3-7,2.4-10.5,3.5
		c0.2-0.4,0.6-0.4,0.9-0.5c1.7-0.6,3.5-1.2,5.2-1.7c0.6-0.2,0.7-0.5,0.4-1C176.3,317.6,176,317.1,175.7,316.6z"/>
	<path class="st37" d="M96.2,371c-0.1-1.1,0.1-2.3-0.6-3.3c1-1.1,2-2.2,3.1-3.3c0.1,1.2-0.2,2.5,0.6,3.6C98.3,369,97.3,370,96.2,371
		z"/>
	<path class="st38" d="M201.8,316.8c0,0.1,0,0.1,0,0.2c0.4,1,1.1,2,1.1,3.1c-0.8,0.4-1.5,0.9-2.3,1c-1.2-1-1.6-2.5-2-3.9
		C199.6,317.1,200.7,316.9,201.8,316.8z"/>
	<path class="st28" d="M100.1,391.6c-0.1-0.5-0.3-1-0.4-1.4c-0.1-0.4-0.1-0.7-0.6-0.8c1.4-0.5,2.7-1.1,4.1-1.5
		c0.1,0.6,0.2,1.1,0.3,1.7c0.1,0.3,0.1,0.8,0.6,0.8C102.8,390.8,101.5,391.2,100.1,391.6z"/>
	<path class="st39" d="M202.4,310.6c2,0.4,3.9,1,5.8,1.8c0.4,0.2,0.7,0.3,1,0.8c-2.5-0.2-4.8-0.4-7.2-0.4c-0.5-0.6-0.3-1.2-0.1-1.8
		C202,310.8,202.2,310.7,202.4,310.6z"/>
	<path class="st28" d="M211.3,322.3c-1.5,0.9-2.8,2.2-3.9,3.5c-0.8-0.2-1.6-0.7-2.5-0.6c1.8-1.3,3.7-2.6,5.5-3.9
		C210.8,321.5,211.2,321.8,211.3,322.3z"/>
	<path class="st40" d="M206.9,320c0.1-0.8,0.1-1.6,0.2-2.3c0.1-0.7,0-1-0.8-0.9c-0.9,0.1-1.8,0-2.8,0c1.1-0.4,2.2-0.2,3.3-0.1
		c1.2,0.1,2.5,0.1,3.7,0.2c0.1,0.3-0.1,0.7,0,1C209.4,318.6,208.1,319.3,206.9,320z"/>
	<path class="st41" d="M73.3,238.6c0.5,0.6,0,1.2-0.1,1.8c-0.9,3.9-1.8,7.8-2.5,11.8c-0.3,1.5-0.5,3-0.9,4.6c0-0.2,0-0.3-0.1-0.5
		c0.2-2.6,0.7-5.1,1.2-7.7C71.6,245.2,72.2,241.9,73.3,238.6z"/>
	<path class="st42" d="M194.8,309.6c-0.4,0.5-0.2,1.1-0.1,1.6c0,0.5,0.3,0.9,0,1.3c-0.4-0.5-0.9-0.8-1.5-0.6c-0.3,0.1-0.7,0.2-1-0.3
		c0-0.2-0.1-0.3-0.2-0.4c-0.1-0.7-0.4-1.4-0.8-2C192.4,309.2,193.6,309.2,194.8,309.6z"/>
	<path class="st25" d="M192.1,311.7c0.5,0.3,0.9,0,1.4-0.1c0.8-0.1,1.2,0.1,1.1,0.9c0.1,0.4-0.7,1.3,0.6,1.2c-1.5,0.3-3,0.6-4.5,0.8
		C191.2,313.6,192.4,313,192.1,311.7z"/>
	<path class="st43" d="M179.4,506c1.3-0.4,2.6-0.2,3.9-0.4c3.6-0.4,7.2-0.7,10.8-1c1.5-0.1,3-0.1,4.5-0.2c-2.1,0.5-4.3,0.7-6.5,0.9
		C187.8,505.7,183.6,506.1,179.4,506z"/>
	<path class="st25" d="M200.5,321.1c0.7-0.5,1.4-1,2.3-1.1c0.6,0.3,1,0.8,1.4,1.3c0.2,0.1,0.3,0.1,0.5,0.2c-0.8,0.6-1.7,1.2-2.5,1.8
		C201.9,322.4,201,321.9,200.5,321.1z"/>
	<path class="st25" d="M202.2,311c-0.3,0.6-0.2,1.2-0.2,1.8c-1.1,0.1-2.2,0.1-3.3,0.2c0.4-0.7,0.3-1.5,0.6-2.3
		C200.3,310.3,201.3,310.4,202.2,311z"/>
	<path class="st44" d="M211.3,322.3c-0.4-0.3-0.7-0.6-0.9-1c0.6-0.4,1.1-0.8,1.7-1.2c1.3-0.3,1.7,0,1.5,1.7c0,0.1,0,0.1,0,0.2
		c-0.2,0.6-0.6,0.7-1.2,0.6C212,322.4,211.6,322.4,211.3,322.3z"/>
	<path class="st45" d="M80.9,386.1c-0.5-0.4,0-0.7,0.1-0.9c1-1.4,2.3-2.6,3.7-3.8c0.5-0.4,0.9-0.9,1.4-1.3c0.2-0.2,0.4-0.6,0.7-0.1
		C84.8,382,82.9,384.1,80.9,386.1z"/>
	<path class="st46" d="M210.8,325.4c0.3,0.1,0.7,0.2,1,0.2c0.6,0,0.7,0.4,0.7,0.9c-0.1,0.4-0.3,0.7-0.4,1.1
		c-0.9-0.1-1.7-0.7-1.7-1.4C210.3,325.8,210.2,325.2,210.8,325.4z"/>
	<path class="st47" d="M213.5,321.7c-0.1-1.5-0.1-1.6-1.5-1.7c0.5-0.5,1.2-1.3,1.7-1c0.5,0.3,0.1,1.3,0,2
		C213.8,321.2,213.8,321.5,213.5,321.7z"/>
	<path class="st48" d="M210.8,325.4c-0.7,0.2-0.5,0.7-0.1,1c0.4,0.4,0.8,0.9,1.4,1.1c0.1,0.1,0,0.1,0,0.2c-0.4,0.4-1,0.1-1.5,0.4
		c-0.3-0.8-0.4-1.5-0.4-2.3C210.2,325.3,210.4,325,210.8,325.4z"/>
	<path class="st49" d="M102,241.1c-0.3-0.3-0.2-0.6-0.1-0.9c0.3-1.4,0.6-2.8,0.9-4.5c0,0.7,0.1,1.1,0.1,1.5
		C102.6,238.5,102.3,239.8,102,241.1z"/>
	<path class="st50" d="M202.2,311c-0.9-0.4-1.9-0.1-2.9-0.2c0-0.3,0-0.5,0-0.8c1,0.2,2.1,0.4,3.1,0.6
		C202.3,310.8,202.3,310.9,202.2,311z"/>
	<path class="st13" d="M165.2,228.3c-2.2,0-4.4,0-6.5,0c-0.4,0-0.8,0.1-1.1-0.2c2.2,0,4.4,0,6.7,0
		C164.5,228.1,164.9,228,165.2,228.3z"/>
	<path class="st51" d="M210.6,328.1c0-0.2-0.1-0.6,0.4-0.5c0.4,0.1,0.7,0,1.1,0.1c0.1,0.4-0.2,0.7-0.4,1
		C210.9,329.2,210.9,328.4,210.6,328.1z"/>
	<path class="st52" d="M63.6,270.1c0-0.6-0.3-0.8-0.8-0.7c-0.3,0.1-0.6,0.1-0.9,0.2c0.6-0.4,1.2-0.7,2-1
		C63.7,269.2,63.9,269.7,63.6,270.1z"/>
	<path class="st53" d="M210.6,317.8c-0.8-0.3,0-0.7,0-1c0.3,0,0.6,0,0.9,0C211.3,317.3,211,317.6,210.6,317.8z"/>
	<path class="st54" d="M54.3,411c0-0.7,0-1.4,0-2.1c0.1,1,0.5,1.9,0,2.9C54.3,411.6,54.3,411.3,54.3,411z"/>
	<path class="st55" d="M69.1,260c0.3,0.9,0,1.7-0.2,2.5c-0.1,0-0.1-0.1-0.2-0.2C68.9,261.5,69,260.8,69.1,260z"/>
	<path class="st13" d="M168.9,228.1c-0.7,0.4-1.5,0.1-2.3,0.2C167.3,227.9,168.1,228.2,168.9,228.1z"/>
	<path class="st13" d="M170.7,227.9c-0.6,0.4-1.2,0.1-1.9,0.2C169.5,227.7,170.1,228,170.7,227.9z"/>
	<path class="st56" d="M68.7,262.3c0.1,0.1,0.1,0.1,0.2,0.2c-0.1,0.3,0.2,0.8-0.2,1C68.7,263.1,68.7,262.7,68.7,262.3z"/>
	<path class="st57" d="M115.6,93.2c-0.2-0.2-0.5-0.4-0.2-0.6c0.2-0.1,0.4,0.1,0.5,0.3C115.7,93,115.6,93.1,115.6,93.2z"/>
	<path class="st58" d="M152,359c-0.1-0.1-0.2-0.2-0.2-0.3c0.3-0.3,0.5-0.3,0.8,0C152.4,358.8,152.2,358.9,152,359z"/>
	<path d="M50.5,76c1.5-0.9,3-1.7,4.5-2.6c4.3-2.4,8.8-4.4,13.5-5.9c0.9-0.3,1.8-0.4,2.5,0.4c0.7,0.8,0.4,1.6,0.1,2.4
		c-1.2,3.1-2,6.2-2.2,9.5c0.5,0.1,0.7-0.3,0.9-0.5c3-2.8,6.3-5.1,9.9-7.1c0.3-0.2,0.6-0.3,0.9-0.4c0.9-0.3,1.7,0,2.1,0.7
		c0.4,0.7,0.2,1.6-0.5,2.2c-0.2,0.2-0.4,0.3-0.7,0.4c-4.9,2.6-9.1,6.1-12.9,10.1c-0.1,0.1-0.2,0.3-0.4,0.4c-0.6,0.5-1.2,0.9-2,0.5
		c-0.8-0.4-1.2-1-1.2-1.9c0-2,0.2-3.9,0.4-5.8c0.2-2.2,0.7-4.4,1.4-6.6c-0.8,0-1.5,0.4-2.2,0.7c-5.3,2.1-10.2,5-15,8
		c-0.2,0.1-0.5,0.3-0.7,0.4c-1.5,0.8-2.9,0-2.8-1.7c0.1-2.2,0.7-4.3,1.3-6.4c2.8-9.1,8.1-16.3,16.2-21.4c5.1-3.2,10.7-5,16.6-6
		c5.2-0.8,10.4-1.1,15.6-0.5c0.4,0,0.8,0.1,1.2,0.2c1,0.2,1.5,1,1.4,1.9c-0.1,0.8-0.8,1.4-1.7,1.4c-1,0-1.9-0.1-2.9-0.2
		c-7-0.5-14,0.2-20.7,2.5c-11.9,4.1-19.4,12.5-22.8,24.5C50.4,75.5,50.3,75.7,50.5,76z"/>
	<path d="M139.1,254.4c-7.1-0.2-13.4-2.1-18.6-6.6c-4-3.5-6.5-8-7.2-13.3c-0.1-0.9-0.1-1.7,0.6-2.2c1.2-0.9,2.7-0.2,2.9,1.4
		c0.9,7.2,5.1,11.9,11.5,14.9c4.2,2,8.6,2.4,13.1,2.1c1.1-0.1,2.2-0.4,3.3-0.6c0.9-0.2,1.9,0.2,2.3,1.2c0.3,0.8-0.2,1.7-1.2,2.1
		c-1.1,0.5-2.3,0.6-3.5,0.8C141.2,254.4,140,254.4,139.1,254.4z"/>
	<path class="st59" d="M103.1,233.6c0.3,0.7,0,1.1-0.1,1.6C102.7,234.7,103.1,234.3,103.1,233.6z"/>
	<path d="M138.4,135c0,0.7-0.3,1.1-0.7,1.6c-2.7,2.9-3.3,7.2-1.6,10.8c0.9,1.8,2.2,3.1,4.1,3.8c1.3,0.5,1.8,1.4,1.4,2.3
		c-0.4,1-1.4,1.4-2.7,0.9c-3.4-1.3-5.6-3.8-6.6-7.2c-0.3-0.9-0.6-1-1.5-1.1c-2.6-0.1-4.8,0.7-7,2.1c-0.3,0.2-0.5,0.3-0.8,0.5
		c-1,0.6-2.1,0.5-2.6-0.4c-0.5-0.8-0.3-1.8,0.6-2.5c2.8-2,5.9-3.4,9.4-3.2c0.9,0,1.1-0.2,1.2-1.1c0.3-2.9,1.4-5.5,3.5-7.6
		c1.1-1.1,2.6-0.8,3.1,0.5C138.3,134.7,138.4,134.8,138.4,135z"/>
	<path class="st28" d="M207.4,326.2c0.3,0.4,0.2,0.8,0.2,1.3C207.3,327.1,207.3,326.7,207.4,326.2z"/>
	<path class="st60" d="M164.8,350.1c-4,1.8-7.9,3.7-12.1,4.9c-1.8,0.5-3.8,0.7-5.6,1.3c-3,0.9-6,0.9-9,0.7c-2-0.1-3.1,0.9-4.2,2.2
		c-3,3.6-6.5,6.4-10.8,8.1c-1.2,0.5-2.3,1.1-3.4,1.6c-1.2,0.6-2.5,1.1-3.9,0.7c-0.9-0.2-1.9,0.3-2.8,0.5c-1.7,0.3-3.5,0.6-5.3,0.5
		c1.4-1.4,3.1-2.5,4.7-3.7c8.2-6,16.9-11.4,25.6-16.6c4.3-2.6,8.6-5.1,13.1-7.3c2.5-1.2,5-2.4,7.5-3.6c0.3-0.1,0.5-0.3,0.8-0.5
		c0.1,0,0.3,0,0.4,0c1.7,3.3,3.5,6.6,5.2,9.8C165.1,349.3,165.1,349.7,164.8,350.1z"/>
	<path class="st60" d="M161.3,338.2c0.4-0.4,0.9-0.6,1.4-0.6C162.3,337.9,161.8,338.2,161.3,338.2z"/>
	<path class="st61" d="M204.2,321.3c-0.7-0.2-1-0.8-1.4-1.3c-0.4-1-1.1-1.9-1-3.1c1,0,2,0,3,0c0.2,0,0.5-0.1,0.6,0.2
		c0.1,0.3-0.2,0.4-0.4,0.6c-0.5,0.5-1,0.9-1.5,1.4c-0.5,0.6-0.3,0.9,0.1,1.3C203.9,320.7,204.5,320.8,204.2,321.3z"/>
</g>
</svg>
