<?xml version="1.0" encoding="utf-8"?>
<!-- Generator: Adobe Illustrator 22.0.1, SVG Export Plug-In . SVG Version: 6.00 Build 0)  -->
<svg version="1.1" id="Layer_1" xmlns="http://www.w3.org/2000/svg" xmlns:xlink="http://www.w3.org/1999/xlink" x="0px" y="0px"
	 viewBox="0 0 251.2 511" style="enable-background:new 0 0 251.2 511;" xml:space="preserve">
<style type="text/css">
	.st0{fill:#F2FEF1;}
	.st1{fill:#FE2E30;}
	.st2{fill:#1A191A;}
	.st3{fill:#FAC298;}
	.st4{fill:#EEE8EE;}
	.st5{fill:#936A48;}
	.st6{fill:#1A1A1A;}
	.st7{fill:#121112;}
	.st8{fill:#F7DF21;}
	.st9{fill:#A14E1D;}
	.st10{fill:#121212;}
	.st11{fill:#111011;}
	.st12{fill:#3A0B0C;}
</style>
<g>
	<g>
		<path d="M247.7,103.2c-3.8-15-10.4-28.6-20.2-40.6c-0.4-0.5-0.8-0.9-1.2-1.5c0.3-0.1,0.5-0.2,0.7-0.2c2.8-0.7,5.5-1.5,8-3
			c4-2.4,4.5-5.7,1.2-9.1c-2-2-4.4-3.7-6.8-5.2c-8-5-16.6-8.7-25.6-11.6c-7.7-2.6-15.7-4.1-23.8-4.7c-7.7-0.5-15.4-0.4-23.1,0.8
			c-0.5,0.1-0.7-0.1-1-0.5c-0.5-0.9-1.1-1.8-1.7-2.6c-5.7-7.8-13.6-12.2-22.8-14.5c-4.6-1.2-9.2-1.7-13.9-2
			C111.3,8,105,8.3,98.8,9.1c-5.5,0.7-10.8,2-16.2,3.1c-6.8,1.4-13.6,1.6-20.2-0.9C56.4,9.1,51,6.1,47.1,0.8c-0.5-0.7-1.1-1-2-0.8
			c-0.8,0.2-1.2,0.8-1.4,1.6c-0.3,1.4-0.4,2.8-0.5,4.2c-0.5,7,1.2,13.3,6,18.6c0.6,0.6,1.1,1.2,1.8,2c-3.3,0.2-6.4,0.4-9.5,1.1
			c-7,1.5-13.5,4.2-19.2,8.4C14.4,41.9,8.8,49.6,4.8,58.6c-2.2,5-4,10-4.5,15.5c-0.6,6.5-0.2,13,1.1,19.4c2.4,11.5,7.2,22,14.6,31.2
			c4,5,8.4,9.6,12.4,14.5c4.7,5.6,8.5,11.6,10.8,18.5c1.1,3.4,1.3,6.7,0.3,10.1c-1.3,4.2-3.7,7.8-6.5,11.1c-1.5,1.8-3.1,3.4-4.9,4.9
			c-0.7,0.6-0.9,1.3-0.6,2.1c0.3,0.8,1,1.2,1.9,1.2c0.5,0,1,0,1.5-0.1c11.6-1.1,21.1-6,28.1-15.4c3.3-4.3,5.3-9.2,5.6-14.6
			c0.3-4.9-0.3-9.9-0.9-14.8c-0.7-6.1-1.4-12.2-0.8-18.4c0.5-4.6,1.6-9.1,3.7-13.3c0.7-1.4,0.7-1.4,2.2-0.9c0.8,0.3,1.6,0.5,2.5,0.7
			c0.5,0.1,0.8,0.3,0.7,1c-0.4,3.1-0.6,6.3-0.7,9.4c-0.2,5.3,0.1,10.6,1.2,15.7c2,9.6,5.7,18.6,10.8,27c0.4,0.6,0.5,0.9-0.4,1
			c-0.6,0.1-1.3,0.3-1.9,0.5c-2.5,0.8-4.9,1.7-6.8,3.7c-1.8,1.9-2.4,4.2-1.7,6.7c0.8,3.1,3,5.1,5.5,7c1.4,1,2.8,1.9,4.4,2.7
			c-1.6,1.2-3.2,2.4-4.7,3.5c-10.5,8-20.7,16.5-29.1,26.8c-3.1,3.8-6.1,7.7-8.2,12.3c-3,6.7-5.1,13.7-6.5,20.8
			c-3.3,16.1-3.7,32.4-2.1,48.7c0.2,1.5,0.1,2.9-0.5,4.4c-0.8,1.7-1.3,3.6-1.6,5.5c-1.4,6.9-0.1,12.9,6,17.2c0.4,0.3,0.5,0.5,0.2,1
			c-0.4,0.7-0.7,1.4-1.1,2.1c-0.3,0.5-0.2,0.7,0.3,1c1.9,1.1,3.8,1.9,5.9,2.5c0.5,0.1,0.7,0.3,0.5,0.9c-0.4,2.3-0.8,4.7-1.1,7
			c-0.3,2.7-0.4,5.5-0.6,8.3c-0.4,4.9-0.9,9.8-1.2,14.7c-0.5,8.1-0.9,16.1-1,24.2c-0.1,8.2,0.1,16.5,0.4,24.7
			c0.2,4.3,0.4,8.6,0.7,12.9c0.4,5.9,0.9,11.8,1.4,17.6c0.1,0.7-0.1,0.8-0.8,0.5c-2.7-1.2-5.4-2.3-8.1-3.5c-1.8-0.8-3.6-1.6-5.3-2.4
			c-0.9-0.4-1.7-0.5-2.5,0.3c-0.7,0.8-0.5,1.6,0,2.5c0.1,0.1,0.2,0.3,0.3,0.4c4.8,8.4,9.7,16.7,13.5,25.6c0.7,1.7,1.5,3.4,2,5.1
			c-0.1,0.1-0.1,0.1-0.2,0.1c-0.1,0-0.3-0.1-0.4-0.1c-4.5-1.2-8.9-1.4-13.4,0c-10.3,3.4-16.8,13.1-16,23.9
			c0.6,7.8,4.9,13.1,12.4,15.2c5.5,1.5,11.1,2,16.8,2.1c7.8,0.2,15.6-0.2,23.4-1.2c5.6-0.7,11.1-1.8,16.5-3.5c2-0.6,2.4-1.3,2.1-3.4
			c-0.4-2.7-0.2-5.5,0.3-8.2c0.9-4.8,3-9.1,5.4-13.3c1.2-2.2,2.6-4.4,4-6.6c0.5-0.7,0.6-1.5,0.1-2.2c-0.5-0.7-1.2-0.9-2-0.7
			c-0.5,0.1-0.9,0.2-1.4,0.3c-1.5,0.3-3,0.6-4.6,0.9c2-4.5,3.2-9,3.9-13.7c0.2-1.6-0.2-2.4-1.9-2.8c-1.7-0.4-3.4-0.9-5.2-1.3
			c-0.7-0.2-0.9-0.5-0.8-1.1c0.1-1,0.2-2,0.3-3.1c0.6-8.4,1.4-16.8,2.3-25.2c0.7-6.6,1.4-13.2,2.3-19.8c0.8-6,1.6-12.1,2.5-18.1
			c1.1-7.4,2.5-14.7,3.6-22.1c0.9-5.7,2.1-11.3,3.5-16.9c0.4-1.6,0.9-3.2,1.7-4.8c0.6,1.1,0.8,2.2,1.1,3.3
			c1.9,6.6,3.9,13.2,5.8,19.8c2.4,8.6,4.9,17.1,7.5,25.7c3.1,10.5,6.4,21,9.9,31.4c3.1,9.2,6.3,18.3,9.6,27.4c0.3,0.8,0.1,0.9-0.6,1
			c-1.4,0.1-2.7,0.2-4.1,0.4c-1.7,0.2-2.3,1.3-1.7,2.9c0.1,0.2,0.2,0.4,0.3,0.7c1.7,3.7,3.3,7.5,4.3,11.4c0.1,0.3,0.3,0.6,0,0.9
			c-0.2,0.2-0.5,0-0.8-0.1c-1-0.4-1.9-0.7-2.9-1c-0.7-0.2-1.5-0.2-2.1,0.4c-0.6,0.6-0.6,1.3-0.3,2.1c0.2,0.5,0.3,0.9,0.5,1.3
			c2.4,6.3,4.5,12.8,5.8,19.5c0.9,4.6,1.3,9.2,1.4,13.9c0,1.5,0.6,2.3,2,2.4c4.1,0.5,8.1,1.1,12.2,1.4c4.9,0.4,9.8,0.8,14.8,0.9
			c9.8,0.2,19.5-0.1,29.2-1.5c4-0.6,7.4-2.2,9.4-5.8c4.8-8.6,6-17.8,3.5-27.4c-0.8-3.1-2.5-5.8-5.3-7.5c-4.6-2.8-9.5-4.1-14.9-3.7
			c-0.8,0.1-1.5,0.1-2.4,0.2c0.2-0.3,0.3-0.5,0.4-0.6c4.1-5.4,7.4-11.3,10.5-17.4c0.4-0.8,0.6-1.6,0-2.4c-0.6-0.8-1.5-0.7-2.3-0.5
			c-4.2,0.9-8.4,1.8-12.5,2.7c-0.6,0.1-0.7,0-0.8-0.6c-0.4-5.8-0.8-11.6-1.4-17.4c-0.5-5.1-0.8-10.2-1.8-15.2
			c-0.9-4.4-1.7-8.8-2.5-13.2c-0.5-3-1.2-5.9-1.5-8.9c-0.4-3.1-0.9-6.2-1.6-9.3c-0.4-1.8-1-3.6-1.3-5.5c-0.5-3.3-1.1-6.6-2-9.8
			c-0.7-3-1.4-6-2-9c-1-4.6-2.1-9.2-3.5-13.7c-1.1-3.5-2.4-6.9-3.9-10.4c1.4,0,2.7,0,4-0.2c1.3-0.3,2.5-0.5,3.7-1
			c5.1-2.2,8.5-6,10.5-11.1c1.1-2.8,1.3-5.9,1.2-8.9c0-0.6,0.2-1.1,0.7-1.5c1.2-1,2.3-2,3.3-3.2c4-4.6,7.1-9.8,10-15.2
			c4.2-7.9,6.7-16.3,8.6-25c1.2-5.5,1.9-11.2,1.2-16.9c-0.2-1.5-0.4-3.1-0.4-4.6c-0.1-5.8-1.6-11.3-2.7-16.9
			c-0.7-3.4-1.8-6.8-2.7-10.2c-0.1-0.5-0.1-0.8,0.3-1.2c1.7-1.4,3.2-3,4.7-4.6c1.9-2.1,3.5-4.4,4.7-6.9c2.4-4.8,3.1-10,2.7-15.3
			c-0.1-1.1-0.2-2.2-0.3-3.3c0.4,0.2,0.6,0.6,0.7,0.9c3.4,5.6,5.9,11.7,8.5,17.7c1.5,3.4,2.8,6.9,4.7,10.1c1.3,2.2,2.8,2.5,5,1.2
			c2.1-1.3,3.8-3.1,5.4-5c6.2-7.2,10.9-15.3,14.8-23.9c6.9-15.4,10.7-31.5,11.7-48.3C251.7,127.2,250.8,115.1,247.7,103.2z
			 M71.3,103.8c0.5-0.8,1.2-1.3,2-2.1C73.2,104.2,73,104.4,71.3,103.8z M76.4,250.4c-1.6,6.2-3.5,12.3-6.3,18.1
			c-0.1,0.3-0.3,0.5-0.5,1c-1.2-3.3-2.1-6.5-3-9.7c-1.3-4.8-2.4-9.6-2.9-14.6c-0.3-2.7,0-5.3,0.9-7.9c0.3,0,0.3,0.2,0.3,0.4
			c1.7,5.4,5.5,9,10.6,11.1C76.4,249.1,76.7,249.4,76.4,250.4z M165.6,246.2c-0.2,1.7-0.3,3.5-0.5,5.2c-0.5,5.7-2.2,10.9-5.8,15.4
			c-3.3,4.1-6.8,8-11,11.3c-0.3,0.2-0.5,0.6-1,0.4c0.7-5,2-9.9,3.6-14.8c0-0.1,0.1-0.3,0.1-0.4c0.5-1.9,1.4-3.4,3.1-4.7
			c2.9-2.1,4-5.4,4.5-8.8c0.1-1,0.2-2.1,0.2-3.2c0-0.3,0-0.5,0.2-0.8c1.8-3.2,3.9-6.2,6.1-9.1C165.6,239.9,166,243,165.6,246.2z"/>
	</g>
	<path class="st0" d="M12.5,41.3c1.5-1.5,3-3,4.5-4.4c-0.1-0.1-0.1-0.1-0.2-0.2c-1.5,1.5-3,3-4.5,4.5C12.3,41.1,12.4,41.2,12.5,41.3
		z"/>
	<path class="st1" d="M103.1,93.2c3.1,5,6.7,9.5,12.3,12c0.9,0.4,1.9,0.7,2.8,0.9c0.4,0.1,0.5,0.2,0.5,0.6
		c-0.1,4.4,0.3,8.8,0.8,13.3c-1.9-0.7-3.6-1.6-5.2-2.6c-7.4-4.1-13.8-9.4-18.5-16.6c-3.8-5.8-5.7-12.1-6.1-19
		c-0.3-5.4,0.4-10.7,2-15.9c0.3-0.9,0.3-1.7-0.5-2.3c-0.9-0.8-2.2-0.3-2.7,1c-0.6,1.5-1,3.1-1.3,4.6c-1.1,5.2-1.3,10.4-0.8,15.6
		c0.1,1.3,0.4,2.6,0.7,3.9c0.2,0.7,0,0.9-0.7,1.1c-5.7,1.9-10.8,4.8-15.3,8.8c-1.2,1.1-2.4,2.3-3.4,3.6c-0.4,0.5-0.8,0.7-1.5,0.5
		c-3.8-1.1-7.4-2.5-10.9-4.5c-0.2-0.1-0.3-0.2-0.7-0.4c1.5,2.7,3.4,4.7,5.5,6.5c1.1,0.9,2.3,1.8,3.5,2.5c0.5,0.3,0.6,0.5,0.3,1
		c-3.7,6.9-4.9,14.3-4.7,22c0.1,5.3,0.8,10.5,1.4,15.7c0.5,5,1,10-0.2,15c-0.9,3.9-3.1,7.2-5.6,10.2c-5.3,6.4-12.2,10.3-20.4,11.9
		c-0.1,0-0.3,0-0.6,0.1c0.9-1,1.6-1.9,2.4-2.8c3-3.6,5.4-7.6,6.7-12.1c1.3-4.5,0.5-8.9-1.1-13.2c-2.8-7.4-7.2-13.8-12.4-19.8
		c-4.6-5.3-9.3-10.3-13.4-16c-6.3-8.7-10-18.4-11.9-28.9c-0.6-3.4-0.9-6.7-0.9-10.1c-0.1-6.4,1.3-12.4,3.8-18.3
		c3.1-7.3,7.1-13.9,12.9-19.4c6.8-6.5,14.9-10.3,24.2-11.8c3.8-0.6,7.7-0.8,11.6-0.4c1,0.1,1.8-0.1,2.2-1.1c0.4-0.9,0-1.6-1-2.3
		c-3.5-2.6-6.6-5.6-8.5-9.6c-1.6-3.4-2-7-1.9-10.7c0-0.2,0-0.3,0.3-0.5c1.4,1.3,2.8,2.6,4.4,3.6c7.3,4.8,15.2,7.6,24.1,7.1
		c4.3-0.3,8.5-1.2,12.7-2.1c5.5-1.2,11.1-2.2,16.7-2.6c8.4-0.7,16.8-0.1,25,1.7c7.5,1.7,14.2,4.9,19.5,10.7
		c4.8,5.4,7.6,11.7,7.7,18.9c0.1,5.7-1.9,11-5.4,15.5c-2.9,3.7-6.5,6.5-10.2,9.3c-4.2,3.2-8.5,6.5-12.1,10.4
		c-5.2,5.7-8.5,12.2-9.6,19.8c-0.1,0.9-0.4,1.1-1.4,1c-5.5-0.9-10.3-3.3-14.8-6.5C103.1,92.8,103.1,93,103.1,93.2z"/>
	<path class="st2" d="M61.8,282.2c-2.3,3.1-3.7,6.6-4.1,10.5c0,0.4-0.2,0.5-0.5,0.7c-0.8,0.5-1,1.3-0.8,2.2c1,3.7,1.3,7.5,1,11.3
		c-0.3,4.2-1.8,7.9-4.4,11.2c-1.2,1.5-2.6,2.9-4.3,3.9c-3.2,1.9-6.3,2-9.6,0.2c-4.7-2.5-6.5-6.6-6.3-11c0.1-3.6,1.2-7,2.6-10.3
		c1.7-4.1,4.2-7.7,7.3-10.9c0.6-0.6,0.7-1.8,0.1-2.4c-0.7-0.7-1.8-0.8-2.6,0c-1.8,1.6-3.3,3.4-4.6,5.5c-0.1,0.2-0.2,0.5-0.5,0.4
		c-0.3-0.1-0.2-0.4-0.2-0.6c-0.4-6.4-0.6-12.9-0.4-19.3c0.1-3.4,0.3-6.8,0.7-10.2c0.3-2.5,0.5-4.9,0.8-7.4c0.4-3.1,1-6.3,1.7-9.3
		c0.8-3.4,1.7-6.7,2.8-9.9c2.3-7,5.7-13.3,10.4-18.9c2.5-3,5.1-6,8-8.7c3.6-3.4,7.2-6.8,11-9.9c5.1-4.2,10.3-8.2,15.6-12.1
		c0.4-0.3,0.6-0.1,0.9,0c1.6,0.6,3.1,1.3,4.7,1.7c1.2,0.3,2.1-0.1,2.4-1.2c0.3-0.9-0.2-1.7-1.4-2.1c-3.8-1.3-7.5-2.9-11-5
		c-1.8-1.2-3.5-2.5-4.7-4.3c-1.6-2.3-1-4.6,1.4-6c2.7-1.6,5.8-2.3,8.8-2.7c3.6-0.6,7.2-0.8,10.9-0.9c2-0.1,4-0.2,5.9-0.1
		c4.3,0.1,8.6,0.3,12.9,0.6c5.3,0.5,10.6,1,15.8,1.8c5.6,0.8,11.2,1.8,16.8,2.9c0.1,0,0.3,0,0.4,0c0.4,0.5,0.4,1.1,0.5,1.7
		c0.3,3.3,0.4,6.6-0.2,9.9c-0.1,0.4-0.2,0.9-0.5,1.2c-3.7,0.5-7.3,1.1-10.9,2.1c-0.4,0.1-0.7,0.2-1.1,0.3c-0.9,0.4-1.3,1.2-1,2.1
		c0.3,0.9,1.1,1.4,2.1,1.2c1.7-0.3,3.3-0.8,5-1.1c2.7-0.5,5.5-1,8.3-1.2c1.5-0.1,3-0.1,4.5-0.2c0.7,0,1,0.2,1.2,0.9
		c1.2,4.1,2.4,8.2,2.7,12.6c0.3,4.2,0,8.2-2,11.9c-1.7,3.2-4.2,5.7-7.1,7.8c-2.1,1.5-4.3,2.8-6.7,3.8c-0.9,0.4-1.3,1.1-1.2,2
		c0.1,0.8,1,1.4,2,1.5c3,0.4,6,0.1,9-0.1c2.4-0.1,4.8-0.3,7.1-0.7c0.3-0.1,0.5,0,0.8,0c0.1,0.6-0.3,0.8-0.7,1.1
		c-3.4,2.6-6,5.8-8.5,9.2c-0.3,0.4-0.6,0.8-0.9,1.1c-0.2,0.2-0.4,0.3-0.6,0.1c-1.4-1.4-2.8-2.9-4.4-4.2c-1.1-1-2.2-2-3.3-3
		c-4.2-3.9-8.5-7.7-13-11.3c-1.4-1.1-2.7-2.4-4.2-3.5c-0.4-0.3-0.5-0.6-0.3-1.1c0.2-0.4,0.2-0.9,0.4-1.4c0.3-0.8,0.1-1.5-0.4-2.2
		c-1.4-1.7-3-3.2-4.7-4.6c-3-2.6-6.2-4.9-9.6-7c-1.6-0.9-3.2-1.8-4.8-2.8c-1.6-0.9-2.4-0.5-3.5,0.9c-0.9,1.2-0.9,1.2-2.1,0.4
		c-3.9-2.5-7.9-5-12-7.3c-0.1-0.1-0.2-0.1-0.3-0.2c-2.2-1.3-3.2-1.2-5.1,0.5c-2.1,1.8-3.5,4-4.6,6.4c-0.7,1.4-0.4,2.3,1,3.1
		c0.6,0.4,1,0.5,0.1,1.2c-5.2,3.8-9,8.8-12.2,14.3c-2.1,3.5-3.5,7.3-4.3,11.3c-0.3,1.4-1.2,2.4-1.8,3.7c-1,2.2-1.7,4.4-2.3,6.8
		c-0.9,3.6-1.3,7.3-1.1,11.1c0.2,3.3,0.3,6.7,0.5,10c0.3,4.8,0.8,9.5,1.3,14.3c0.2,2.2,0.6,4.4,0.9,6.6
		C62,281.3,62,281.8,61.8,282.2z"/>
	<path class="st3" d="M167.5,432.3c0.2,3.3,0.5,6.7,0.7,10.1c0.1,1.1,0.1,2.2,0.3,3.3c0.1,0.5-0.1,0.7-0.6,0.8
		c-7.7,1.4-15.5,2.9-23.3,3.9c-3.7,0.5-7.5,0.9-11.2,1.5c-0.8,0.1-1.1-0.1-1.3-0.8c-4.3-12.1-8.6-24.3-12.6-36.5
		c-4.6-14.1-8.8-28.3-12.9-42.5c-1.5-5.2-3.1-10.4-4.5-15.6c-1.2-4.6-2.3-9.3-3.4-14c-0.1-0.4-0.1-0.5,0.4-0.6
		c1.6-0.1,3.2-0.3,4.8-0.4c3.5-0.3,7-0.6,10.5-0.8c2.9-0.2,5.8-0.5,8.6-0.9c7-1,14-2.3,20.6-5c0.9-0.3,1.7-0.6,2.6-1
		c0.6-0.3,0.8-0.1,1.1,0.5c1.9,4.9,3.6,9.9,4.9,15.1c1.7,6.2,3.2,12.4,4.6,18.7c0.9,4,1.6,8.1,2.3,12.2c0.5,2.8,1,5.6,1.5,8.4
		c0.6,3.5,1.1,7,1.8,10.4c0.6,3,1.2,5.9,1.8,8.9c0.7,3.6,1.3,7.3,1.8,11c0.5,3.8,1.1,7.6,1.6,11.4
		C167.6,431,167.5,431.6,167.5,432.3z"/>
	<path class="st4" d="M107.7,117.6c2.7,1.8,5.3,3.4,8.2,4.7c1.6,0.7,3.2,1.5,4.8,2.1c2,0.8,3.3-0.3,2.9-2.4
		c-0.8-4.7-1.2-9.5-1.2-14.3c0-0.7,0.2-1,0.9-0.9c0.7,0,1.5,0,2.3-0.2c0.7-0.1,0.9,0.1,0.9,0.8c0.7,7.2,2.3,14.3,5.4,20.9
		c1.8,3.7,4.1,6.9,7.5,9.4c6.9,5,18.3,3.1,23.6-4.6c2.6-3.7,4-7.9,4.8-12.2c1.2-6.5,1.1-13,0.6-19.5c-0.3-4.2-1-8.4-1.8-12.6
		c-0.1-0.5-0.2-0.7-0.8-0.6c-9.5,2.1-18.7,5-27.9,8.1c-4.3,1.5-8.8,2.6-13.3,3.2c-0.4,0.1-0.9,0.1-1.4,0.1c0.5-3.5,1.4-6.9,3-10
		c2.7-5.5,6.7-9.9,11.4-13.7c3.8-3.2,7.9-6,11.7-9.2c4.7-4.1,8.5-8.9,10.2-15c0.2-0.9,0.7-0.5,1.1-0.3c4.8,2.2,8.8,5.4,12.2,9.4
		c5.8,6.6,9.5,14.2,12.2,22.5c2.8,8.8,4,17.8,3.5,27c-0.6,10.2-3,20-7.4,29.3c-0.2,0.5-0.4,0.7-1,0.7c-8.9-0.1-20.6,4.2-24.2,17.5
		c-0.9,3.4-1.6,6.8-1.7,10.3c0,0.8-0.3,0.8-0.9,0.7c-11.4-2.5-23-4.3-34.7-5.3c-7.1-0.6-14.3-0.8-21.5-0.6c-2.8,0.1-5.5,0.3-8.3,0.6
		c-0.6,0.1-0.9,0-1.2-0.5c-5.8-9.2-9.9-19-11.6-29.7c-0.8-5.2-0.9-10.5-0.5-15.8c0.1-1.8,0.3-3.6,0.4-5.4c0-0.6,0.3-0.8,0.8-0.6
		c0,0,0.1,0,0.1,0c0.7,0.3,1.7-0.1,2.1,0.5c0.3,0.5,0.1,1.4,0.1,2.1c-0.1,5.4,0.3,10.8,1.9,16c1,3.1,2.4,6,4.8,8.4
		c4.2,4.1,12.7,4.9,17.2-1.6c2.3-3.3,3.4-7,4.1-10.9c0.5-2.4,0.8-4.8,0.9-7.2C107.5,118.3,107.6,118,107.7,117.6z"/>
	<path class="st2" d="M203.6,185.1c-1.2-1.6-2.1-3.4-3.2-5c-0.7-1.1-1.4-2.1-2.3-3.1c-0.9-1-1-2.4-1.4-3.6c-0.1-0.3,0.2-0.5,0.4-0.6
		c1.2-1.1,2.4-2.1,3.6-3.2c2.8-2.8,5.6-5.5,8.3-8.4c3.3-3.7,6.3-7.5,8.7-11.9c3.2-6,3-12-0.5-17.8c-0.4-0.6-0.7-1.3-1.3-1.9
		c-0.3-0.3-0.3-0.5,0-0.8c3.2-2.9,4.1-6.8,4.9-10.8c0.3-1.6,0.6-3.2,0.6-4.8c0-0.7,0.4-0.9,0.9-1.1c2.5-1.1,4.9-2.4,6.6-4.7
		c2.2-3.1,2.5-6.3,0.8-9.6c-1.2-2.5-2.9-4.6-4.6-6.6c-3.6-4.4-6-9.3-6.9-14.9c-0.2-1.1-0.9-2-1.8-2c-0.9-0.1-1.5,0.5-1.9,1.6
		c-0.4,0.7-0.3,1.4-0.4,2.1c-1,5.8-0.6,11.4,2,16.7c0.7,1.4,1.2,2.8,1.5,4.3c0.9,4-0.9,7.1-3.7,9.8c-1.1,1.1-2.4,2-3.9,2.3
		c-3.7,0.5-7.4,0.4-11.2,0.4c-2.1,0-4.2,0-6.3-0.2c-0.5-0.1-0.7-0.2-0.7-0.8c-0.1-1,0.2-1.9,0.2-2.9c0.1-6.9-0.6-13.8-2.3-20.5
		c-1.4-5.6-3.4-11-5.9-16.2c-2.2-4.4-4.8-8.5-8-12.2c-3.3-3.9-7-7.1-11.5-9.5c-0.8-0.4-1.7-0.9-2.6-1.3c-1.5-0.6-1.6-0.7-1.3-2.3
		c0.4-2.3,0-4.6-0.3-6.9c-0.3-2.2-1-4.3-1.8-6.4c-0.2-0.6-0.2-0.8,0.6-0.9c5.5-0.7,11-1,16.6-0.8c4.1,0.2,8.1,0.5,12.2,1.1
		c5.8,0.9,11.4,2.3,17,4.2c8.4,2.9,16.5,6.5,23.9,11.4c2,1.3,3.9,2.6,5.5,4.3c1.2,1.2,1.2,1.6-0.1,2.7c-1.3,1.1-2.9,1.6-4.4,2.1
		c-1.7,0.6-3.4,1-5.1,1.4c-0.5,0.1-0.8,0-1.2-0.4c-1.2-1.2-2.4-2.4-3.6-3.5c-1-0.9-2-1-2.7-0.3c-0.9,0.9-0.8,2,0.1,2.9
		c2.9,2.5,5.4,5.2,7.8,8.1c3.3,3.9,6.2,8.1,8.7,12.5c0.3,0.5,0.6,1,0.8,1.5c0.5,1,0.5,2.1,0.5,3.2c0.2,7.2,0.6,14.3,0.4,21.5
		c-0.2,5.2-0.2,10.4-0.5,15.6c-0.3,4.3-0.5,8.6-0.9,12.9c-0.6,5.8-1.3,11.5-2.3,17.2c-1.1,5.9-2.5,11.8-4.4,17.5
		c-2,6.1-4.6,11.9-8.1,17.3c-1,1.5-2.3,2.9-3.5,4.3c-0.6,0.7-1.3,0.9-2.2,0.8c-3.1-0.2-5.8-1.3-8.4-2.9
		C204.3,185.8,203.9,185.6,203.6,185.1z"/>
	<path class="st3" d="M41.3,388.8c-0.1-4.6,0.2-11.8,0.6-19.1c0.3-5.7,0.7-11.3,1.2-17c0.2-2.5,0.8-5,1.1-7.6
		c0.4-3.3,0.9-6.6,1.5-9.9c0.4-2.5,0.4-2.6,2.7-1.7c8.3,3,16.9,4.9,25.5,6.9c3.5,0.8,7.1,1.3,10.7,1.6c2.1,0.2,4.2,0,6.2,0.3
		c0.5,0.1,0.7,0.2,0.4,0.7c-2.5,5.8-3.3,12-4.7,18.1c-1.1,4.7-1.7,9.6-2.5,14.4c-1,6.5-2.1,13-3,19.6c-1.3,8.5-2.4,17.1-3.2,25.7
		c-0.6,5.9-1.2,11.7-1.8,17.6c-0.4,4.7-0.8,9.4-1.2,14.1c-0.1,1.3-0.1,1.3-1.4,1c-9.7-2.7-19.2-5.9-28.6-9.7c-0.7-0.3-1-0.7-1-1.4
		c-0.8-9-1.4-18-1.9-27C41.6,407.5,41.3,399.5,41.3,388.8z"/>
	<path class="st2" d="M131.4,285.1c-3.5-0.7-7-1.4-10.5-2c-3.7-0.6-7.4-1.4-11.2-1.8c-1.4-0.2-2.8-0.4-4.2-0.6
		c-0.5-0.1-0.5-0.3-0.6-0.7c-0.2-1.6-0.6-1.9-2.1-2.3c-4.1-0.9-8.2-1.4-12.4-1.7c-3.1-0.2-6.2-0.1-9.3-0.2c-1.5,0-2.3,0.5-2.5,2.1
		c-0.1,0.9-0.5,1-1.3,1c-2.5,0-4.9,0-7.4,0c-0.3,0-0.8,0.2-0.9-0.2c-0.1-0.3,0.2-0.6,0.4-0.9c1.6-2.6,3-5.2,4.3-7.9
		c1.8-3.8,3.3-7.7,4.5-11.7c0.7-2.5,1.5-4.9,2.1-7.5c0.1-0.5,0.4-0.7,0.9-0.6c0.7,0.1,1.4,0.2,2.1,0.4c0.9,0.2,1.7,0,2.2-0.7
		c0.8-1,0.3-2.5-1.1-2.8c-2-0.4-4.1-0.6-6.1-1.3c-4-1.5-7.3-3.8-9.1-7.9c-1.3-3-1.4-6.1-0.9-9.2c1.1-5.9,4.1-11,7.6-15.7
		c2.4-3.3,5.2-6.2,8.7-8.3c0.6-0.4,1-0.5,1.7,0c3.6,2.2,7.2,4.6,10.8,7c0.6,0.4,0.9,0.7,0.6,1.5c-1.4,3.4,0.6,5.8,2.6,8.2
		c4.2,5,9.8,7.7,15.8,10c1.5,0.6,2.3,0.3,3.4-1.2c0.8-1,0.8-1,1.8-0.1c3.2,2.9,6.5,5.8,9.6,8.7c2.9,2.7,5.6,5.5,8.4,8.3
		c1.5,1.5,2.9,3.2,4.3,4.8c0.3,0.5,0,0.9-0.2,1.2c-2.5,5.7-4.8,11.4-6.7,17.3c-1.5,4.6-2.7,9.2-3.9,13.8
		C132.3,284.7,132.2,285.4,131.4,285.1z"/>
	<path class="st2" d="M138.8,333.2c-2.4,0.7-4.7,1.6-7.2,2.1c-3,0.5-5.9,1.1-8.8,1.6c-1.3,0.2-2.6,0.2-3.9,0.4
		c-0.5,0.1-0.4-0.2-0.5-0.5c-0.3-1-1-1.2-1.8-1c-3.4,0.7-6.8,1.5-10.3,2.1c-2.5,0.4-5.1,0.1-7.6,0.1c-0.5,0-0.9-0.3-1.2-0.7
		c-0.5-0.7-1.2-0.6-1.5,0.2c-0.2,0.6-0.4,0.4-0.9,0.5c-2.2,0.1-4.4-0.4-6.7-0.3c-1.9,0.1-3.9-0.3-5.8-0.4c-1.7-0.1-3.3-0.4-5-0.6
		c-3.9-0.3-7.7-1-11.5-1.7c-7.2-1.3-13.9-3.8-20.8-6.2c-1.7-1.7-4.4-1-6.3-2.6c1.1-0.1,2.1,0.3,3.2,0.5c2.2,0.3,4.2,0,6.2-0.6
		c3.5-1.1,5.9-3.7,8-6.5c0.8-1.1,1.7-2,2.4-3.2c1.1-1.9,1.1-4,1.6-6.1c0.7-3.3,0.8-6.6,0.3-9.9c-0.1-0.9-0.2-1.9-0.4-2.8
		c-0.1-0.5,0.2-0.7,0.6-0.7c2.2,0,4.4-0.3,6.5-0.4c3-0.1,6-0.1,9-0.4c0.5-0.1,0.8,0,0.9,0.7c0.1,1.6,1,2.5,2.6,2.7
		c3.3,0.6,6.6,1.2,9.9,1.4c1.8,0.1,3.6,0.2,5.4,0.1c2.2-0.1,4.4-0.2,6.6-0.4c1-0.1,1.8-0.9,1.9-1.8c0-0.1,0-0.2,0-0.3
		c0.1-1.4,0.1-1.4,1.4-1.3c2.4,0.2,4.7,0.6,7.1,0.8c2.6,0.2,5.3,0.7,7.9,1c3.1,0.4,6.1,0.9,9.2,1.4c0.2,0,0.3,0,0.5,0
		c0.2,0.2,0.3,0.5,0.3,0.9c-0.2,6,1.5,11.6,3.3,17.2c1.5,4.7,3.1,9.4,5,13.9C138.8,332.4,139,332.8,138.8,333.2z"/>
	<path class="st5" d="M125.4,472.3c0.4,0.1,0.5,0.2,0.7,0.2c1.4,0.2,1.9,1,2,2.4c0,1.3,0.7,2,1.8,2c1.2,0.1,2-0.9,1.9-2.3
		c-0.2-2-0.7-4-1.1-6c-0.9-4-2.3-7.8-4-11.5c-0.3-0.7-0.1-0.9,0.6-1c7.3-0.7,14.5-1.6,21.8-2.7c7.4-1.1,14.8-2.5,22.2-4
		c3.7-0.8,7.4-1.5,11-2.3c0.1,0,0.3,0,0.5,0c-0.9,1.9-1.9,3.6-2.9,5.4c-2.5,4.4-5.5,8.5-8.7,12.3c-0.4,0.5-0.9,0.8-1.5,1.1
		c-2.6,1.2-5,2.7-7.2,4.4c-0.6,0.5-1.2,0.9-1.3,1.9c-0.1,1.5,0.9,2.4,2.3,1.9c0.4-0.1,0.7-0.4,1.1-0.6c4.1-3.3,8.7-5.7,13.9-6.4
		c5.6-0.7,10.7,0.5,15.1,4.2c2,1.7,2.7,4.3,3.1,6.8c1,5.5,0.5,11-1.1,16.3c-0.2,0.6-0.5,0.9-1.1,1c-7.2,1.8-14.5,3.1-21.9,3.7
		c-6.2,0.5-12.3,0.5-18.5,0.2c-7.1-0.3-14.2-1-21.2-2c-0.9-0.1-1.3-0.4-1.4-1.4c-0.4-4.1-1.1-8.1-2.2-12
		C128,480.1,126.8,476.3,125.4,472.3z"/>
	<path class="st5" d="M29.3,441.3c2.8,1.2,5.4,2.3,8,3.4c13,5.4,26.2,10.1,39.8,13.6c1.5,0.4,3,0.8,4.6,1.2c0.7,0.1,0.8,0.4,0.7,1.1
		c-1,5.9-3.2,11.3-6.1,16.4c-0.3,0.5-0.6,0.9-0.8,1.4c-0.5,1-0.2,2,0.6,2.5c0.9,0.5,1.9,0.2,2.5-0.7c0.5-0.8,1-1.6,1.4-2.5
		c0.3-0.6,0.7-0.8,1.2-0.9c1.2-0.2,2.3-0.5,3.7-0.7c-0.9,1.6-1.8,3.1-2.5,4.5c-2.2,4.1-4.3,8.2-5,12.9c-0.2,1.5-1,2.1-2.3,2.4
		c-6,1.8-12.1,2.9-18.3,3.7c-5.1,0.6-10.1,1-15.2,1.1c-8.5,0.1-16.8-0.9-24.8-3.8c-1-0.4-1.9-0.8-2.8-1.2c-0.7-0.3-0.9-0.7-1-1.4
		c-1.2-10.1,4.9-19,14.7-21.5c4.4-1.1,8.7-0.3,12.8,1.4c0.2,0.1,0.4,0.2,0.6,0.3c0.8,0.4,1.7,0.4,2.4-0.3c0.7-0.7,0.7-1.4,0.4-2.3
		c-1-3.1-2.2-6.1-3.4-9c-3-6.9-6.5-13.5-10.3-20C30,442.5,29.7,442,29.3,441.3z"/>
	<path class="st6" d="M168.8,252c0.2-2.7,0.5-5.4,0.6-8.2c0.1-1.9-0.1-3.7-0.3-5.6c-0.1-1.9-0.4-3.7-0.9-5.5
		c-0.1-0.3,0.1-0.6,0.3-0.8c2.1-2.6,3.8-5.4,5.7-8.1c0.9-1.4,2.6-1.5,4-1.9c1.4-0.5,2.7-1,3.9-1.7c1.4-0.8,1.6-0.7,2.1,0.8
		c0.8,2.5,1.4,5.1,2,7.7c1.1,4.6,1.9,9.3,2.5,14c0.3,2.1,0.3,4.3,0.5,6.4c0.2,2.8,0.1,5.7,0.2,8.5c0.1,2-0.3,3.9-0.4,5.8
		c-0.1,3.5-1,6.9-1.9,10.2c-1.8,6.7-4.4,13-7.8,19c-1.7,3-3.5,6-5.6,8.8c-1.1,1.5-2.3,2.9-3.7,4.3c-0.6,0.6-0.8,0.5-1-0.3
		c-1-4.1-3.3-7.5-6.1-10.5c-1.3-1.4-2.9-2.4-4.5-3.4c-1.1-0.7-1.9-0.6-2.6,0.4c-0.5,0.7-0.2,2,0.6,2.6c1.3,1,2.8,1.7,3.9,3
		c2.4,2.6,4.2,5.5,5.3,9c0.6,2,0.7,3.9,1.1,5.9c0.1,0.5-0.2,1.1-0.3,1.7c-0.3,1.4-0.5,2.9-0.8,4.3c-0.4,2.1-1.6,3.8-2.9,5.5
		c-2.7,3.4-6.2,5-10.3,5.7c-1.2,0.2-2.6-0.1-3.7-0.5c-2.4-0.8-4.6-2.2-6.1-4.4c-1.4-2.2-2.2-4.6-2.7-7.1c-0.1-0.7-0.6-1.3-0.4-2
		c-0.3-0.4,0.1-0.9-0.2-1.2l0,0c0-1.2,0.1-2.4,0.1-3.6c0.1-2.3,0.4-4.6,0.7-6.9c0.8-3.4,2.3-6.5,4.5-9.3c1-1.2,2-2.4,3.4-3.2
		c0.8-0.5,1.1-1.2,0.7-2.1c-0.1-0.6,0.3-0.8,0.7-1c9-7.2,14.8-16.3,17.8-27.4C167.9,257.7,168.4,254.9,168.8,252z"/>
	<path class="st1" d="M152.2,224.6c0.9-0.6,1.6-1.2,2.2-1.7c4.2-3.4,7.5-7.4,8.8-12.8c1-4.2,1-8.5,0.3-12.7
		c-0.8-5.4-2.7-10.5-4.2-15.7c-1.5-5.4-2.4-10.9-1.7-16.5c0.7-5.2,1.9-10.2,5.4-14.3c3-3.6,7-5.5,11.5-6.6c1.3-0.3,2.7-0.4,4.1-0.6
		c0.9-0.1,1.7,0.4,1.9,1.4c0.4,1.8,0.5,3.7,1,5.6c0.7,3.1,2,5.9,3.8,8.5c4.7,7,8.2,14.6,10.2,22.8c1.1,4.5,1.7,9.1,1.2,13.7
		c-0.8,7-4,12.7-9.2,17.4c-5.4,4.8-11.8,7.6-18.8,9.3c-4.4,1.1-8.8,1.8-13.4,2.1C154.4,224.5,153.4,224.7,152.2,224.6z"/>
	<path class="st7" d="M203.6,185.1c1.7,0.9,3.3,1.9,5.1,2.7c1.6,0.7,3.4,0.7,5.1,1c0.6,0.1,1-0.3,1.3-0.7c2.9-3.2,5.2-6.9,7.2-10.8
		c1.7-3.4,3.1-6.9,4.3-10.5c1.4-4,2.4-8,3.4-12.1c1-4.3,1.7-8.7,2.3-13.1c0.5-3.7,0.9-7.4,1.3-11.1c0.3-3.9,0.6-7.7,0.8-11.6
		c0.2-4.2,0.2-8.3,0.4-12.5c0.2-3.8,0.2-7.6,0.1-11.4c-0.1-3,0-6-0.2-9c-0.2-2.4,0.1-4.9-0.4-7.3c1.5,2.4,2.8,5,3.9,7.6
		c1.6,3.7,3.1,7.4,4.3,11.2c1.8,5.6,3.1,11.3,4,17.1c0.5,3.2,0.7,6.4,1,9.6c0.2,2.4,0.3,4.9,0.3,7.3c0,3.5-0.1,7-0.4,10.5
		c-0.3,2.9-0.5,5.8-0.9,8.7c-0.4,3.2-1.1,6.3-1.7,9.4c-1.7,8.3-4.3,16.2-7.6,24c-3.4,8-7.5,15.5-12.8,22.3c-1.9,2.4-3.8,4.9-6.4,6.7
		c-0.6,0.4-0.8,0.4-1.1-0.2c-1.9-3.6-3.4-7.5-5-11.2c-2.3-5.3-4.6-10.6-7.6-15.6C203.8,185.9,203.7,185.5,203.6,185.1z"/>
	<path class="st2" d="M191,161.5c-1.9-3.2-4.3-6.1-5.5-9.8c-0.5-1.7-0.9-3.3-1.1-5.1c-0.1-1.2-0.3-2.4-0.7-3.5
		c-0.2-0.4-0.2-0.8,0-1.3c1.9-4,3.5-8,4.8-12.3c0.2-0.7,0.4-0.8,1.1-0.6c3.3,0.8,6.6,1.5,9.9,1.6c0.9,0.1,1.8,0.2,2.7,0.2
		c0.6,0.2,1.2,0.1,1.8,0.1c0.7,0,0.9,0.3,1,0.9c0,0.1,0,0.2,0,0.3c0.2,3.8,0,7.6-1.8,11.1c-2.7,5.4-6,10.5-9.7,15.4
		c-0.5,0.7-1,1.5-1.6,2.1C191.9,161,191.6,161.6,191,161.5z"/>
	<path class="st7" d="M191,161.5c1.3-0.9,2-2.3,2.9-3.5c3.4-4.6,6.6-9.5,9.2-14.6c1.8-3.6,2-7.4,1.9-11.3c0-0.7-0.4-1.1-1.2-1
		c-0.5,0-1,0.2-1.5-0.2c2.9,0,5.8,0.2,8.7-0.4c0.8-0.2,1.2,0.4,1.6,0.9c2.4,2.9,3.8,6.2,3.7,10c0,2.9-1.3,5.5-2.8,7.9
		c-2.1,3.5-4.6,6.6-7.3,9.6c-1.6,1.8-3.3,3.5-4.9,5.2c-1.8,1.9-3.8,3.6-5.7,5.3c-0.2,0.2-0.5,0.6-0.7-0.1
		C193.8,166.6,192.4,164,191,161.5z"/>
	<path class="st8" d="M100.5,215.6c0.6-2.8,1.4-5.5,2.4-8.1c0.8-2,1.9-3.8,3.1-5.6c0.4-0.5,0.7-0.6,1.2-0.3
		c5.7,3.2,11,6.9,15.5,11.5c0.5,0.5,0.6,1,0.4,1.7c-1.5,4.4-3.6,8.5-6.3,12.3c-0.2,0.3-0.3,0.6-0.9,0.4c-4.3-1.7-8.5-3.7-11.9-7.1
		c-1.3-1.3-2.4-2.7-3.3-4.3C100.6,216,100.4,215.7,100.5,215.6z"/>
	<path class="st8" d="M101.3,287.1c0,3-0.3,6-0.6,9c-0.1,0.6-0.3,0.9-0.9,0.9c-5.3,0.3-10.5,0.3-15.8-0.7c-0.2,0-0.3-0.1-0.5-0.1
		c-2.7-0.4-2.6-0.4-2.8-3.1c-0.2-4.1-0.1-8.2,0.6-12.3c0.2-0.9,0.4-1.3,1.5-1.3c5.9,0,11.8,0.4,17.7,1.5c0.5,0.1,0.8,0.2,0.8,0.9
		C101.3,283.6,101.5,285.4,101.3,287.1z"/>
	<path class="st9" d="M155.4,247.8c-0.3,3-0.8,5.7-3,7.8c-0.5,0.5-0.9,0.5-1.3-0.1c-6.2-7.8-13.2-14.9-20.4-21.6
		c-2.7-2.5-5.5-5-8.3-7.3c-0.5-0.4-0.6-0.7-0.2-1.3c0.9-1.5,1.8-3.1,2.5-4.7c0.3-0.8,0.6-0.6,1.1-0.2c2.6,2.2,5.3,4.4,7.9,6.6
		c7.3,6.3,14.3,12.9,21.1,19.6C155.1,247,155.6,247.4,155.4,247.8z"/>
	<path class="st9" d="M204.8,127.3c-5.2,0-9.8-0.7-14.4-1.8c-0.7-0.2-0.8-0.4-0.6-1c0.7-3,1.3-6.1,1.6-9.2c0.1-0.9,0.8-0.5,1.2-0.5
		c2.9,0.2,5.9,0.4,8.8,0.3c5.2-0.2,10.3-0.4,15.4-1.5c0.7-0.2,0.9-0.1,0.8,0.8c-0.3,2.6-0.9,5.1-1.6,7.6c-1,3.4-3.2,5.1-6.7,5.1
		C207.6,127.1,206,127.4,204.8,127.3z"/>
	<path class="st7" d="M131.4,285.1c0.5,0.1,0.7-0.3,0.8-0.7c0.8-3.5,1.8-7,2.8-10.4c1.5-5.2,3.3-10.4,5.4-15.4
		c1-2.3,1.9-4.5,2.9-6.8c1.9,2,3.6,4.2,5.4,6.3c0.4,0.4,0.3,0.9,0.1,1.3c-1.1,3-2.2,6-2.9,9c-0.9,3.6-1.8,7.2-2.1,11
		c-0.2,2.5-0.6,4.9-0.6,7.4c0,0.7-0.3,0.8-0.9,0.7c-2.5-0.6-5-1.1-7.5-1.7C133.6,285.6,132.5,285.3,131.4,285.1z"/>
	<path class="st9" d="M104.6,291.9c0.3-2.3,0.2-4.6,0.2-6.9c0-0.6,0.2-0.8,0.8-0.7c5.5,0.7,11,1.6,16.4,2.6c6.4,1.2,12.7,2.5,19,3.9
		c0.6,0.1,0.6,0.4,0.3,0.8c-1.3,1.8-2.3,3.7-3.1,5.7c-0.2,0.6-0.7,0.6-1.2,0.5c-2.8-0.5-5.7-1-8.5-1.5c-5.1-0.8-10.1-1.6-15.2-2.2
		c-2.7-0.3-5.3-0.6-8-0.8C104.4,293.2,104.6,292.6,104.6,291.9z"/>
	<path class="st7" d="M209.9,111.1c2.3-1.2,4.3-2.6,5.8-4.8c2.2-3.3,2.1-6.6,0.6-10.1c-1.2-2.7-2.5-5.3-2.8-8.2
		c-0.2-2.1-0.5-4.1-0.2-6.2c0.2-1.5,0.2-3,0.5-4.5c0.1-0.5-0.1-1.1,0.6-1.4c0.6,4.5,2.1,8.7,4.4,12.7c1.8,3.1,4.2,5.6,6.2,8.5
		c0.9,1.4,1.8,2.7,2,4.4c0.2,3.1-1.6,4.9-4,6.2c-3,1.7-6.3,2.3-9.6,2.9C212.2,110.8,211.1,110.9,209.9,111.1z"/>
	<path class="st3" d="M15.2,500.3c3.7,1.4,7.3,2.4,10.9,3c6.9,1.2,13.9,1.4,20.9,1c5.2-0.3,10.3-0.9,15.4-1.7
		c4.5-0.7,8.9-1.6,13.3-3c0.8-0.2,1.2-0.3,1,0.7c0,0.1,0,0.2,0,0.3c0,2.5,0,2.5-2.4,3.1c-7.4,1.9-15,3-22.7,3.4
		c-5.6,0.4-11.3,0.5-16.9,0.1c-4.9-0.3-9.8-0.8-14.5-2.7C18.1,503.6,16.4,502.2,15.2,500.3z"/>
	<path class="st3" d="M193.2,499.6c-1.4,2.9-3.6,4.3-6.6,4.8c-4.9,0.8-9.8,1.2-14.7,1.5c-9.9,0.5-19.8,0.1-29.7-0.9
		c-3.2-0.3-6.3-0.7-9.5-1c-0.7-0.1-0.9-0.3-0.9-0.9c-0.1-2.1-0.1-2,2-1.8c12.1,1.6,24.3,2.6,36.5,1.8c7.2-0.4,14.3-1.6,21.3-3.1
		C192.1,499.9,192.6,499.8,193.2,499.6z"/>
	<path class="st9" d="M73.2,282.6c1.2,0,2.4,0,3.6,0c0.5,0,0.8,0.1,0.7,0.7c-0.4,2.9-0.5,5.7-0.3,8.6c0,0.5-0.3,0.4-0.6,0.4
		c-3.1,0.1-6.1,0.3-9.2,0.4c-1.7,0.1-3.3,0.2-5,0.3c-1,0.1-1.1,0-0.9-1.1c0.5-3.1,1.8-5.8,3.8-8.3c0.5-0.6,0.9-0.9,1.7-0.9
		C69,282.8,71.1,282.5,73.2,282.6z"/>
	<path class="st7" d="M61.8,282.2c-0.3-2.4-0.6-4.8-0.9-7.2c-0.2-1.5-0.4-3-0.5-4.5c-0.3-2.7-0.5-5.4-0.8-8.1
		c-0.1-1.1-0.1-2.2-0.2-3.4c-0.1-2-0.2-3.9-0.3-5.9c-0.1-2.3-0.2-4.6-0.1-6.8c0.1-2.5,0.5-5.1,1.4-7.5c-0.1,1.2-0.4,2.4-0.4,3.5
		c-0.1,3.3,0.5,6.6,1.1,9.8c0.7,3.9,1.7,7.6,2.8,11.4c0.9,3,1.8,6.1,3,9c0.4,0.9,0.4,1.7-0.3,2.6c-0.8,1.1-1.4,2.4-2,3.6
		C63.9,280,62.7,281,61.8,282.2z"/>
	<path class="st7" d="M138.8,333.2c-1.8-4.3-3.4-8.7-4.8-13.2c-1.1-3.5-2.3-7.1-3.1-10.7c-0.3-1.4-0.5-2.9-0.6-4.3
		c-0.1-1.6-0.2-3.3-0.2-4.9c1.8,0.3,3.7,0.7,5.5,1c0.9,0.1,1.2,0.4,0.8,1.2c-1,2.8-1.2,5.7-1.2,8.6c0,1.3,0.3,2.6,0.5,3.8
		c0.5,2.6,1.2,5.2,1.6,7.9c0.2,1.3,0.9,2.5,1.7,3.6c1.3,1.9,2.7,3.7,5.1,4.8C142.3,331.9,140.6,332.7,138.8,333.2z"/>
	<path class="st4" d="M93.7,104.1c-5.5-0.6-10.7,0.3-16,0.2c-0.8,0-1.2-0.1-0.9-1c0.3-1,0.6-2,0.6-3c0.1-1.9,1.2-2.8,2.7-3.6
		c2.4-1.3,4.8-2.4,7.4-3.3c0.6-0.2,0.9-0.2,1.1,0.5C89.7,97.5,91.5,100.8,93.7,104.1z"/>
	<path class="st10" d="M168.8,252c0,3.4-0.8,6.6-1.7,9.8c-1.6,5.3-3.7,10.3-6.8,14.8c-2.5,3.6-5.3,6.8-8.5,9.8
		c-1,0.9-2.2,1.5-3.1,2.6c-0.4-0.4-0.8-0.7-1.3-0.6c-0.7,0.2-0.9-0.3-0.9-0.8c0-1.2-0.2-2.3-0.4-3.4c-0.1-0.4,0.2-0.5,0.5-0.7
		c4.6-2.6,8.3-6.1,11.8-10c2.2-2.4,4.1-5,6-7.5c1.8-2.4,2.6-5.3,3.2-8.2C168,255.8,168.2,253.9,168.8,252z"/>
	<path class="st9" d="M87.4,194.4c0.2,0.1,0.4,0.2,0.6,0.3c4.2,2.5,8.4,5,12.5,7.7c0.5,0.3,0.6,0.6,0.3,1.2
		c-0.8,1.4-1.4,2.8-1.9,4.3c-0.2,0.6-0.4,0.8-1,0.4c-4.5-3.1-9.2-6-13.8-8.9c-0.3-0.2-0.7-0.3-0.4-0.9c0.8-1.5,1.8-2.8,3.2-3.9
		C87.1,194.6,87.3,194.5,87.4,194.4z"/>
	<path class="st7" d="M151.7,238.8c0.6-0.2,0.9-0.7,1.2-1.2c2-2.8,4.2-5.4,6.6-7.8c0.9-0.9,2.1-1.5,2.9-2.6c2-0.4,4-0.8,6.1-1.2
		c-0.3,0.8-0.9,1.4-1.4,2.1c-0.2,0.4-0.5,0-0.7-0.1c-0.7-0.4-1.4-0.6-2.1,0c-0.7,0.6-0.9,1.4-0.5,2.2c0.6,1.3,0.1,2.1-0.6,3.1
		c-2.3,3-4.4,6.1-6.3,9.3c-0.3,0.6-0.5,0.5-1,0.1C154.5,241.5,153.1,240.2,151.7,238.8z"/>
	<path class="st7" d="M149.7,184.3c0.3-2.4,0.7-4.8,0.6-7.2c-0.1-1.9-0.3-3.7-0.4-5.6c1.1,0.3,2.2,0.6,3.4,0.8
		c0.7,0.1,0.9,0.5,0.9,1c0.3,3.3,1.1,6.5,2,9.7c0.2,0.7,0.1,0.9-0.7,0.9C153.5,184,151.6,184.2,149.7,184.3z"/>
	<path class="st11" d="M140,303.6c-0.2,3.5-0.3,7-0.8,10.5c-0.2-1.3-0.3-2.5-0.2-3.8c0.2-2.1,0.4-4.3,0.8-6.4
		C139.8,303.8,139.9,303.7,140,303.6z"/>
	<path class="st12" d="M103.1,93.2c-0.2-0.2-0.5-0.4-0.2-0.6c0.2-0.1,0.4,0.1,0.5,0.3C103.3,93,103.2,93.1,103.1,93.2z"/>
	<path class="st11" d="M139.2,314.1c0.4,0.4,0.1,0.8,0.2,1.2C139,315,139.2,314.5,139.2,314.1z"/>
	<path d="M37.9,76.1c1.2-0.7,2.3-1.3,3.4-2c4.7-2.7,9.6-5,14.8-6.6c0.9-0.3,1.8-0.4,2.5,0.4c0.7,0.8,0.4,1.6,0.1,2.4
		c-1.2,3.1-2,6.2-2.2,9.6c0.5,0.1,0.6-0.3,0.9-0.5c3-2.8,6.3-5.1,9.9-7.1c0.2-0.1,0.4-0.2,0.6-0.3c1-0.5,2-0.2,2.4,0.6
		c0.5,0.8,0.2,1.9-0.8,2.4c-5.1,2.7-9.6,6.4-13.6,10.6c-0.6,0.6-1.3,1-2.1,0.6c-0.9-0.4-1.1-1.2-1.1-2.1c0.1-3.9,0.5-7.8,1.6-11.6
		c0.1-0.2,0.1-0.4,0.2-0.7c-2.4,0.8-4.5,1.7-6.6,2.8c-3.7,1.8-7.3,4-10.8,6.2c-0.5,0.3-1.1,0.7-1.8,0.6c-0.9-0.2-1.5-0.9-1.4-2.1
		c0.2-2.2,0.7-4.3,1.3-6.4c2.8-9,8.1-16.2,16.1-21.3c5.1-3.3,10.8-5.1,16.8-6.1c5.1-0.8,10.3-1,15.5-0.5c0.4,0,0.8,0.1,1.1,0.1
		c1,0.2,1.6,1,1.5,1.9c-0.1,0.9-0.8,1.5-1.8,1.5c-1.1,0-2.2-0.2-3.3-0.2c-9.4-0.4-18.5,0.8-26.8,5.5C45.8,58.6,40.6,66,38,75.4
		C37.9,75.6,38,75.8,37.9,76.1z"/>
	<path d="M126,135.1c0,0.5-0.3,1-0.7,1.4c-2.9,3.1-3.2,6.6-1.9,10.4c0.7,2,2.1,3.4,4.1,4.2c0.2,0.1,0.3,0.1,0.5,0.2
		c1,0.5,1.4,1.3,1.1,2.2c-0.3,0.9-1.3,1.4-2.4,1c-2.7-0.9-4.7-2.7-6.1-5.2c-0.4-0.7-0.7-1.4-0.9-2.2c-0.1-0.7-0.4-0.9-1.2-1
		c-2.6-0.1-4.9,0.6-7,2c-0.2,0.1-0.4,0.3-0.6,0.4c-1.3,0.9-2.4,0.8-3-0.1c-0.6-0.9-0.2-1.9,1-2.8c2.8-1.9,5.9-3.1,9.3-2.9
		c0.6,0,0.8-0.1,0.9-0.8c0.2-2.8,1.2-5.3,3.1-7.4c0.3-0.3,0.7-0.7,1.1-0.9C124.6,132.9,126,133.8,126,135.1z"/>
	<path d="M126.6,254.4c-7-0.2-13.3-2.1-18.5-6.6c-4-3.5-6.5-7.9-7.2-13.3c-0.1-0.9-0.1-1.7,0.6-2.2c0.5-0.4,1-0.6,1.7-0.3
		c0.8,0.4,1.1,1,1.2,1.7c0.8,6.2,4.1,10.7,9.5,13.8c4.7,2.7,9.8,3.5,15.1,3.2c1.1-0.1,2.2-0.4,3.3-0.6c1.2-0.3,2,0.3,2.3,1.3
		c0.2,0.7-0.3,1.6-1.2,2c-1.1,0.5-2.3,0.6-3.5,0.8C128.7,254.4,127.5,254.4,126.6,254.4z"/>
</g>
</svg>
