<?xml version="1.0" encoding="utf-8"?>
<!-- Generator: Adobe Illustrator 22.0.1, SVG Export Plug-In . SVG Version: 6.00 Build 0)  -->
<svg version="1.1" id="Layer_1" xmlns="http://www.w3.org/2000/svg" xmlns:xlink="http://www.w3.org/1999/xlink" x="0px" y="0px"
	 viewBox="0 0 2217.7 2217.8" style="enable-background:new 0 0 2217.7 2217.8;" xml:space="preserve">
<style type="text/css">
	.st0{fill:#282828;}
	.st1{fill:#1A191A;}
	.st2{fill:#FFFFFF;}
	.st3{fill:#1A1A1A;}
	.st4{fill:#121112;}
	.st5{fill:#121212;}
	.st6{fill:#292929;}
	.st7{fill:#FF2E30;}
	.st8{fill:#EFE9EF;}
	.st9{fill:#F8E021;}
	.st10{fill:#A24E1D;}
	.st11{fill:#E2E2E2;}
	.st12{fill:#ABC0C0;}
</style>
<title>avatarShyGal</title>
<path class="st0" d="M392,2217.8H0V0h2217.7v2217.8H1634c-2-6.3-1-12.6,0.5-18.7c7.8-31.2,10.7-63,12.4-94.9
	c1.2-21.9-0.5-44-3.9-65.7c-2.3-14.9-1.2-29.9-2.8-44.8c-1.7-15.6-5-30.9-7.7-46.3c-6-34.4-12.7-68.8-23.1-102.2
	c-4.4-14-2.4-23.8,8.9-34.4c35-33.1,60.1-72.8,72.8-119.7c0.8-3.1,0.4-7.5,4.8-7.8s5.8,4,7.2,7.2c9.2,21.1,18.4,42.1,27.5,63.3
	c7.7,18,15.8,36,24.6,53.6c5.2,10.4,13.1,18.4,21.6,25.9c11,9.8,23.6,10.2,36.4,4.8c11.4-4.9,21.5-12.2,29.7-21.5
	c16.9-18.8,36.2-35.2,51.3-55.9c21.3-29.1,41.2-59,58.6-90.5c19.9-35.8,37.1-73.1,51.5-111.5c14.7-39.6,29.4-79.2,39.3-120.5
	c8.9-37.3,17-74.7,22.3-112.6c8.7-61.5,10.8-123.2,8.8-185.2c-1.7-51.1-8.7-101.4-19.6-151.2c-12.9-59.1-32.9-115.8-58.8-170.5
	c-21.1-44.7-44.6-87.9-74.5-127.5c-4-5.3-8.2-10.4-11.9-16c-4-6.1-2.3-9.8,3.7-12.7c3.3-1.6,6.7-3,10.2-4.2
	c19.7-6.2,34.1-20.2,46.1-35.5c15.6-19.9,13.2-41.4-4.8-61.5c-36.5-41-83.3-66.8-131.5-90.7c-49.4-24.5-100.9-43.8-153.3-60.3
	c-37.2-11.7-75.4-18.9-114.2-23.9c-53.4-6.8-106.9-7.4-160.5-4.2c-13.3,0.8-26.6,1.9-39.8,3.9c-7.3,1.1-11.6-2.5-15.8-7.9
	c-19.6-25-41.8-47.7-67-66.9c-32.3-24.5-69.3-39.2-107.7-51.2c-29.8-9.3-60.6-13.8-91.3-16.6c-39.1-3.5-78.5-4.1-117.7-1.7
	c-46.5,2.7-91.8,11.4-137.1,20.8c-18.6,3.9-37.2,7.6-55.8,11c-34.4,6.1-68.3,5.5-102.8-3.4c-38-9.8-70.9-28.3-101.8-51.3
	c-6-4.5-10.4-10.3-14.7-16.2c-5-7.1-11-13.4-17.8-18.8c-10.9-8.2-23.3-6.3-33.4,2.9c-12.7,11.7-16.5,26.4-18.6,42.7
	c-3.4,25.5-1.9,50.7,3,75.5c4.1,20.9,13.2,40.5,24,59c1.3,2.3,2.9,4.5,4.1,6.8c2.6,5,1.6,8.6-4.4,9.3c-27.3,3.4-53.4,11.4-79,21.1
	c-37.6,14.2-73,32.3-104,58.4C292,490,259.6,523.8,234,563.7c-24.8,38.7-42.4,80.5-57.4,123.8c-15.6,45.1-17,91-14.7,137.9
	c1.3,23.6,4.2,47.1,8.8,70.3c4.3,22.9,10.3,45.5,18.1,67.4c10.6,29.2,22.2,57.8,36.3,85.5c14.7,29,32.8,55.7,52.6,81.2
	c33.5,43.1,71.9,82.2,106.1,124.7c29.4,36.5,54.4,75.8,69.8,120.5c11.3,32.8,8.6,64.3-6.9,94.9c-14.9,29.5-35.2,56-59.9,78
	c-6.9,6.2-13.9,12.5-18.5,20.9s-4.9,16.8,0.5,24.6c9.5,13.7,22.7,22.6,41.9,21.1c27.6-2.1,54.7-7.9,80.8-17.1
	c31.5-11.1,60.9-26.6,87.1-48c27-22.1,51.1-46.8,70.3-76c24-36.5,36.9-76.2,36.6-120.4c-0.2-30.1-3.8-59.7-7-89.5
	c-4.5-42.3-10-84.8-7.1-127.5c1.7-25.6,6-50.9,13.8-75.4c0.7-2.6,2.1-4.9,4.1-6.7c1.9-0.7,3,0.2,3.9,1.7c1.6,3.8,1.5,7.9,1.1,11.8
	c-4.9,44.7-1.4,89.1,4.4,133.4c4.5,34.1,15.1,66.7,26.7,99.1c12.6,35.1,27.9,69.2,45.6,102c3.9,7.2,0.1,10.5-5.7,13
	c-17.6,7.2-33.4,18.3-46.2,32.5c-18.3,20.4-24.1,48.3-11.8,74.1c9.8,20.5,25.2,35.8,42.2,49.9c10.4,8.6,10.8,11.4,0,19.7
	c-28.8,22.1-57.5,44.4-84.8,68.3c-38.8,34-76.9,68.8-111.4,107.3c-16.9,18.9-32.3,39-48.3,58.5c-26.4,32-42.9,69.6-57.1,108.2
	c-13.9,37.5-25.5,75.7-33.2,115c-6.2,32-12,64-14.5,96.7c-1.7,22.2-5.7,44.2-5.8,66.6C394.5,2213.8,393.6,2216.1,392,2217.8z"/>
<path d="M1382,2217.8h-34c-2.7-4.3,0.7-6.9,2.9-9.5c7.3-8.7,13.7-18,20.7-26.9c24-30.4,34.4-65.6,38-103.4
	c2.3-24.8,6.2-49.5,5.8-74.6c-0.2-10.2-2.5-20.2-3.5-30.5c-15.5,19.2-29.3,39.8-41.1,61.6c-2.9,5.5-1.9,11.7-2.3,17.7
	c-1.9,29.1-9.9,55.7-32.3,76.1c-0.4,0.5-0.9,1-1.5,1.4c-17.9,9.4-22.3,27.1-27.5,44.3c-3.6,11.8-7.3,23.5-10.5,35.4
	c-0.9,3.3-2.2,6.3-4.8,8.5h-28c-1.3-13.1,4.9-24.6,8-36.6c3.8-14.9,8.6-29.4,14.4-43.6c2.9-6.9,1.8-12.5-3.2-18.3
	c-11.5-13.3-22.8-26.9-34.6-40.1c-26-30.9-54.4-59.5-83.5-87.4c-27-25.8-54.3-51.2-82.8-75.2c-4.5-3.8-7.3-4.2-11.3,0.9
	c-9,11.4-14.3,13.1-27.7,8.3c-43.1-15.5-83.3-35.7-114.5-70.5c-7.6-8.4-14.3-17.6-20.1-27.3c-6.2-10.4-9.2-21.4-4.5-33.4
	c3.1-7.8,0.8-12.9-6.4-17.4c-23.7-14.9-46.4-31.3-70.3-45.9c-7.2-4.4-12.6-4.6-19.8,0.3c-24,16.4-43.4,37.3-60.7,60.3
	c-23.4,31.1-43.8,64-52.5,102.5c-8.3,36.3-7.7,71.6,17.8,102.3c10.9,13.1,25,22,40.2,28.9c15.5,7,32.1,11.6,49,13.6
	c2,0.3,4,0.3,6,0.7c9.2,2,15.4,9.7,14.5,17.6s-8.8,14.3-18,14.2c-4.7,0-9.3-1.3-13.8-2.3c-5.6-1.3-8.8,0.7-10.4,6.2
	c-2.8,9.6-5.3,19.3-7.9,28.9c-9.4,34.8-21.5,68.7-36.3,101.6c-1.9,4.3-3.7,8.6-7.4,11.7H674c-2.8-2.6-4-6.1-5.1-9.6
	c-18.1-55.8-34.3-112-41.1-170.5c-1.8-15.5-1.8-31.1-0.2-46.6c0.1-1,0.3-2.1,0.6-3.1c0.9-2.8,1.5-5.8,1.6-8.8
	c5.4-23.8,14.1-46.6,25.8-68c1.9-3.5,3.8-7,4.6-11c10.8-54,38.3-99.5,72.4-141.7c13.8-17.2,29.5-32.6,47-46c5.3-4.1,6-6.4,0.4-11.1
	c-8.4-7-9.5-13.2-4.8-23.1c9.8-20.3,21.5-39,40.4-52.4c10.4-7.3,19.9-9.9,32-2.5c29.6,18,59.6,35.3,88.6,54.2
	c12.1,7.8,12.2,7.8,22.1-2.1c7.5-7.4,16.7-8.3,28.5-1.9c25.2,13.6,49.6,28.7,72.8,45.4c22.3,16.3,43.2,34.5,62.5,54.3
	c8.4,8.5,12.1,17.5,7.6,28.8c-3,7.5-0.5,12,5.5,16.9c42.7,35,84.9,70.7,125.2,108.5c18.2,17.1,36.7,33.8,54.8,51
	c8.6,8.8,17.5,17.3,26,26.2c4.4,4.6,7.3,4.5,10.6-1.2c14-23.8,30.3-46.1,46.8-68.2c3.5-4.7,4.3-9.1,2.7-14.8
	c-5-18,1.7-25.5,20.4-23.3c6.7,0.8,8.1-4.4,12.1-9.2c-17.7,5.7-35,6.4-51.8,9.8c-34.9,4.9-70.2,7.1-105.5,6.6
	c-5-0.2-10-0.9-14.8-2.2c-6.9-1.7-10.9-6.3-12-13.2c-1-6.5,1.5-11.8,7-15.5c6.1-4.1,12.9-6.8,19.4-10.2c26.9-14,50.4-32.2,69.9-55.6
	c18.9-22.7,27.1-49.3,28.8-78.3c2.4-40.9-6.3-80.1-18.1-118.9c-2.3-7.7-6.9-10.4-14.7-10.3c-38.8,0.9-76.8,7.3-114.6,15.7
	c-5.2,1.2-10.4,2.5-15.8,2.1c-7.2-0.5-11.7-4.5-13.7-11.2s0.6-11.7,5.8-15.7c4.1-3.1,8.8-4.7,13.7-5.8c25.6-5.9,51.4-11.2,77.5-14.5
	c12.9-1.6,25.8-2.7,38.8-2.1c7.5,0.4,9.2-2.8,7.2-9.8c-5.5-20.3-10.6-40.6-12.8-61.6c-0.8-7.4-4.4-11.4-11.9-12.3
	c-5.6-0.7-11.1-2.1-16.7-3.2c-60.6-13.1-121.7-22.8-183.3-29.8c-73.9-8.3-148-12.1-222.3-9.6c-37.9,1.3-75.8,5.2-111.9,18.5
	c-9.6,3.5-18.1,8.4-25.1,15.8s-8.3,15.5-4.5,24.9c5.1,12.5,14.3,21.6,24.6,29.7c22.8,18,48.8,29.8,75.7,40.1
	c6.8,2.6,13.8,4.9,20.5,7.9c9,4,12.6,12,9.8,20.4c-2.5,7.5-10.1,11-19.7,9c-9.8-2.2-19.3-5.4-28.3-9.8c-6.9-3.2-12.4-2.1-18.5,2.1
	c-39.7,27.7-77.3,57.9-114.6,88.7c-36.6,30.1-70.3,63.3-103.2,97.2c-31.5,32.4-59.8,67.3-81.4,107.1
	c-18.2,33.5-30.1,69.7-40.3,106.3c-14.8,53.3-24.6,107.9-29.3,163c-1.3,15.6-3.1,31.1-3.9,46.7c-0.1,2.7-0.6,5.3-2.6,7.4h-26
	c-4.9-7.7-2.9-16.3-2.3-24.4c3.6-47.9,9.5-95.4,19.1-142.5c11.2-54.7,27.2-108,50.4-158.8c12.8-28,31.3-52.5,50.2-76.8
	c28.6-36.6,60.6-70.1,94.4-101.8c46.5-43.5,96.1-83.4,147.4-121.2c17.1-12.5,16.9-12.7-1.1-24.1c-19.4-12.3-36.8-26.5-47.5-47.4
	c-15.3-30.1-6.2-61.1,22.9-78.5c13.3-7.9,27.6-13.2,42.3-17.7c10.4-3.2,10.7-3.8,5.4-12.7c-31-51.8-54.6-107.8-70.2-166.1
	c-7.3-27.4-11.6-55.3-14.1-83.6c-1.6-19-1.3-37.9-1.7-56.9c-0.4-22.7,1.5-45.2,4.1-67.7c1-8.7-1.3-13.4-10.3-15.8
	c-21.9-6-17.5-10.4-28.1,12.5c-16.4,35.6-23.1,73.5-24.3,112.6c-1.5,48.5,6,96.3,11,144.3c3.4,32.8,5.2,65.7,0.5,98.6
	c-5.6,38.6-24.3,70.9-48.3,100.6c-48.5,59.9-111.8,93.2-187.6,104c-8.9,1.3-17.8,2.6-26.9,2c-7.1-0.4-13.2-2.5-16.2-9.6
	s-0.8-13.2,4-18.5c10.3-11.4,22-21.4,32.2-32.8c24.1-26.7,44-56,53.9-91.2c6.1-22,4.5-43.2-2.2-64.8c-17-54.2-47-100.5-83.3-143.3
	c-31.2-36.9-64.3-72.1-94.1-110.2c-62.1-79.3-99.6-168.8-112.4-268.7c-6.4-49.6-7.6-99.3,5.5-147.9c18.8-70.1,50.3-134.2,98.5-189
	c63.5-72.2,143.7-113,239.4-123.6c7-0.8,13.8-1.9,20.9-1.7c2,0.1,4.3,0.5,5.5-1.4c1.6-2.6-0.7-4.4-2.2-6c-7.4-7.7-14.1-16.1-20-24.9
	c-19.9-29.3-29.4-61.7-29.4-97c0-14.6-0.8-29.3,2-43.9c0.5-2.6,0.8-5.3,1.4-7.9c1.7-7.5,4.6-14,13-16.1c8.4-2.1,14,2.2,18.9,8.3
	c7.6,9.3,15.4,18.3,24.6,26.2c40.4,34.5,87.4,55.3,139.7,61.9c32.8,4.1,65.8,0.3,98.3-6.8c40-8.7,80-17.8,120.7-23.1
	c47.4-6.2,94.9-6.9,142.5-3.8c34.7,2.2,68.9,6.5,102.6,15.1c52.2,13.4,99.3,36.6,139,73.6c14.5,13.3,27,28.7,37.1,45.6
	c5.5,9.4,12.3,11.1,22.4,9.6c48.6-7.1,97.7-7.2,146.6-5c63.1,2.8,124.9,14.4,185.3,33.8c65.6,21.1,128.5,48.1,188,83.1
	c23,13.5,45.6,27.9,63.8,47.8c11,12,18.6,25.4,12.2,42.6c-3,8.1-8.1,14.4-14.7,19.8c-17,13.9-37.3,20.4-57.9,26.1
	c-12.5,3.5-12.6,3.3-4.8,12.9c79.8,98.9,131,211.4,157.5,335.3c8,37.4,12.9,75.4,15.8,113.7c1.8,23.3,2.4,46.7,2.5,69.8
	c0.2,34.9-1.6,69.9-5.4,104.6c-7.3,62.7-18.9,124.5-37,185c-14.5,48.6-32.6,96-54.1,141.8c-25.3,53.9-55.5,104.8-92.9,151.3
	c-13.2,16.4-27,32.2-44,44.8c-3.4,2.6-7.1,5-10.9,7c-14.5,7.3-27.6,4.1-36.5-9.5c-12.2-18.5-20.2-39-29-59.1
	c-17.2-39.7-33.7-79.8-53.6-118.4c-5.6-10.9-11.9-21.5-17.8-32.2c5.9,47.6,1.1,93.6-21.8,136.4c-15.5,28.9-36.2,54.6-61,76
	c-8.1,7-8.7,13.4-6.1,22.7c14,49.7,25.3,100.1,34,151c4.3,25.4,3.9,51.1,6.7,76.6c5.5,48.9-1.9,96.9-13.8,144.3
	c-1,3.9-1.6,7.9-4.5,10.9h-28c-2.7-3.8-1.4-7.9-0.3-11.6c7.5-24.2,6.9-49.5,8.8-74.2c2.5-32.8-0.2-65.8-2.4-98.7
	c-3.6-52.8-16-103.9-26.3-155.5c-2.2-10.9-7.5-20.6-10.3-31.3c-1.2-4.5-4.6-6.7-9.2-4.1c-14.7,8.1-30.8,12.6-46.2,18.7
	c-6.9,2.7-12.7,7.5-16.7,13.7c-11.3,16.9-22.8,33.7-35.1,49.9c-3.6,4.5-4.9,10.4-3.5,15.9c4.8,22.9,6.7,46.2,7.2,69.4
	c0.4,17.5-1.5,35.2-4,52.7c-1.6,4.6-1.3,9.4-1.7,14.2c-0.1,1-0.3,2.1-0.6,3.1c-4.5,21.4-8,43-13.9,64.1
	C1419.6,2173.4,1400.9,2195.6,1382,2217.8z"/>
<path class="st1" d="M1296,1573.8c-26.3,3.2-52.1,9-78,14.4c-5.1,1.1-10.2,2.7-14.3,6.7c-3.8,3.8-4.7,7.9-2.7,12.7
	c1.9,4.5,4.5,8.3,10.2,8.1c3-0.1,6.2,0.4,8.9-0.5c10.8-3.3,22-5.2,33-7.2c20.5-3.8,40.9-7.5,61.9-8.7c10.9-0.6,21.8-1.3,32.8-1.7
	c5.4-0.2,8.6,1.4,10.3,6.9c7.8,25.7,14.6,51.5,18.3,78.3c2.3,16.7,2.3,33.3,1.4,49.8c-1.8,31.7-12.9,59.8-34.8,83.6
	c-21,22.8-45.5,40.4-73.3,53.8c-3.6,1.7-7.2,3.4-10.7,5.4c-4.9,2.5-7.6,7.8-6.8,13.3c0.9,6.1,4.6,10.1,10.9,11.1
	c19.7,3,39.8,3.1,59.5,0.3c2.3-0.2,4.7-0.3,7-0.3c15.2-0.1,30.4-1.4,45.5-3.8c2.9-0.4,6-0.2,9-0.3c2.8-1.6,5.5-1.1,8.3,0.1
	c-0.9,4.8-4.5,7-7.5,9.4c-23.7,19-42.4,42.5-60.8,66.4c-2.6,3.4-4,8.8-10,8.2c-9.2-7.1-17.4-15.4-25.8-23.4
	c-13.7-13.1-27.6-26.1-41.7-38.7c-23.5-21-46.7-42.3-71.3-62.1c-16-12.9-31.2-26.7-47.5-39.3c-2.6-2-3.8-4.2-2.3-7.7
	c1.5-3.7,1.8-7.8,3.2-11.5c2.7-7.2,0.3-13.1-4.6-18.1c-19.2-20.3-40.1-38.8-62.5-55.5c-23-17-47.5-31.7-72.3-45.9
	c-5.1-2.9-10.2-6.2-16.7-5.9c-5.8,0.3-10.3,2.3-13.7,6.9c-1.4,1.9-2.7,3.8-4.1,5.6c-3,3.6-5.8,4.3-10.3,1.4
	c-15.6-10.2-31.4-19.9-47.3-29.6c-18.2-11-36.7-21.6-54.7-32.7c-9.8-6-17.3-0.7-24.6,4.2c-19,13-30.7,31.9-40.5,52.1
	c-4.8,9.9-2.9,15.3,6.4,22.1c6.8,5,6.8,6.1-0.2,11.3c-20.9,15.6-38.7,34.2-54.8,54.7c-18.4,23.4-34.3,48.2-46.9,75
	c-8,17.2-14.6,34.9-17.8,53.7c-1.1,6.2-3.6,11.9-6.8,17.4c-11.5,20.7-19.5,42.9-25.1,66c-2.2,2.3,0.1,5.7-2,8l0,0
	c-2.9,14.6-4.5,29.4-5,44.3c-1.3,58,3.4,115.7,8.8,173.3c0.4,4.3,1.5,8.6-1.8,12.4H442c-0.2-17.3,2.5-34.4,3.5-51.5
	c1-15.2,3.6-30.2,4.8-45.4c1-13.5,4.2-26.8,6.4-40.2c3.5-21.6,8.6-42.9,13.8-64c5.7-22.9,12.7-45.4,21-67.5
	c6.3-16.8,12.5-33.7,20.8-49.6c12.5-24.3,28.3-46.4,45-68c28.4-36.7,62.1-68.5,95.3-100.6c13.3-12.9,27.5-24.9,41.7-36.9
	c19.8-16.7,39.8-33,60.1-49.1c22-17.6,44.8-34.2,67.9-50.3c4-2.8,7-0.7,10.2,0.6c10.8,4.4,21.4,9,32.9,11.4
	c7.7,1.7,14.7-1.1,16.5-6.9c2.5-7.7-0.8-14.9-8.7-17.7c-17.6-6.2-35-12.8-51.8-20.7c-22.9-10.9-45-23.4-61.7-43.1
	c-7.3-8.6-13.5-18.4-11.1-30.8c1.7-8.9,8.3-14.3,15-19.1c14.4-10.3,31.4-14.4,48.2-18.1c21.3-4.8,43.1-6.7,64.9-8.5
	c40.9-3.5,81.8-1.6,122.7-1.3c20.1,0.1,40.3,2.4,60.5,4c14.8,1.2,29.7,2.1,44.5,3.7c14.1,1.6,28.1,4.5,42.3,5.4
	c12.3,0.8,24.2,3.8,36.4,4.8c13.5,1.1,26.8,4,40.2,6.4c23.4,4.3,46.8,8.9,70.2,13.2c2.3,0.4,4.5,1.1,6.6,2.1
	c5.2,10.8,3.7,22.6,4.8,33.9c1.5,15.5-0.2,31-2.2,46.4C1301.8,1565.3,1301.3,1570.7,1296,1573.8z"/>
<path class="st2" d="M1610,2217.8c2-17.2,7.6-33.6,10.4-50.7c7-43.1,9.1-86.1,2.6-129.4c-0.4-2-0.6-4-0.7-6
	c0.2-40.4-9.8-79.2-17.9-118.3c-6-28.9-13.7-57.5-21.8-85.9c-1.6-5.6-0.7-9.1,3.9-12.8c26.8-22,48.3-48.7,65.4-78.7
	c10.4-18.3,16.6-38.4,20.3-59.2c4.2-24.7,4.8-49.9,1.6-74.7c-0.3-2.9-0.5-5.9-0.8-9.5c3.5,0.5,4,3.4,5.1,5.3
	c23.7,39.5,42.2,81.6,60.3,123.8c9.6,22.3,19.5,44.5,29.4,66.7c3.4,8,7.7,15.5,12.9,22.5c7.8,10.2,17.5,12.5,29.1,7
	c9.1-4.3,16.8-10.7,24.2-17.6c23.5-22,43-47.3,61.1-73.7c46.6-68.1,81-142.3,107.1-220.4c24.9-74.7,41.1-151.9,48.2-230.3
	c8-86.1,5.7-171.7-10.3-256.8c-15.1-81.4-42.7-159.9-81.7-232.9c-23.6-44.1-51.5-85.7-83.4-124.3c-1.6-2-4-3.6-4.4-7.3
	c6.2-1.7,12.4-3.3,18.7-5.1c15.4-4.5,30.4-9.8,44.3-18.1c6.7-3.8,12.6-8.8,17.5-14.8c9.8-12.3,10.6-26.7,2.2-40
	c-5.8-9.1-13.5-16.5-21.7-23.3c-26.5-22.1-56.2-39.3-86.7-55.1c-67.7-35.1-138.5-62.1-212.9-79.2c-64.7-14.8-130.4-19.4-196.6-17.3
	c-27.3,0.7-54.6,3-81.6,6.9c-5.1,0.7-7.8-0.5-10.4-4.9c-37-61.3-92.3-98.3-159.3-119.6c-37.7-12-76.5-17.5-115.8-20.5
	c-27.6-2.2-55.2-2.9-82.9-1.9c-40.7,1.5-80.9,7.1-120.8,15c-33.6,6.6-67,14.6-101,19.6c-44.8,6.6-87.6,0.3-129.2-16.6
	c-34.4-13.9-65.6-32.6-90.7-60.4c-3.8-4.2-7.2-8.7-10.7-13.2c-3.8-5-8.5-7.5-14.8-6.1s-9.4,6.1-10.4,12.1
	c-11.9,65.8-1.7,126,46.4,176.2c2.2,2.3,5.3,4.1,6.2,7.6c-2.1,2.6-5,1.4-7.5,1.5c-64.1,3-124,20.2-179.1,53.3
	c-37.9,22.7-70,52.1-97.2,86.7c-40.9,52-68.9,110.7-85.9,174.5c-10.7,40.1-11,81.2-7.6,122.2c6.6,77.3,28.8,150.2,66.1,218.3
	c21.4,39.1,48.6,74,77.6,107.6c22.4,26,45.3,51.6,67.4,77.8c28.9,34.3,53.9,71.1,71,112.9c4.8,11.7,9,23.7,12.6,35.8
	c9.5,32.1,2.2,62-12.3,90.8c-17,33.8-41.1,62.1-68.9,87.5c-2.2,2-4.5,3.9-6.6,6.1c-4,4.2-5.4,9.3-3.1,14.7s6.7,8.1,12.6,8.4
	c10.7,0.5,21.4-0.8,31.9-2.5c93-14.8,163.8-62.1,210.5-144.4c14.5-25.5,20.7-53.2,22-82.2c1.7-36.8-2.9-73.1-7.1-109.6
	c-4.5-39-8.8-78.2-6.5-117.6c2.4-41.3,11.4-81,30.7-118c3.8-7.2,3.8-7.1,11.1-4.7c6,2,12,3.9,18.1,5.8c9.3,2.8,9.3,2.7,8.3,12
	c-3.6,34.1-5,68.5-4.2,102.8c1.5,56.5,13,110.9,32.4,163.9c14.9,40.7,33.7,79.8,56.1,116.8c1,1.7,2.1,3.4,3,5.2
	c0.2,0.8,0.2,1.5,0.2,2.3c-8.8,2.6-17.7,5.1-26.5,8c-12.4,4-24.2,9.5-34.6,17.5c-23.7,18.1-29.6,44.6-15.8,71.1
	c6.1,11.7,14.8,21.3,24.7,29.9c10.6,9.2,22.3,16.8,34.5,23.8c2.8,1.6,5.5,3.3,8.5,5.1c-2.2,3.9-5.7,5.4-8.5,7.5
	c-65.5,47.8-128.1,99-186,155.9c-31,30.4-58.4,63.9-84.6,98.5c-27.9,36.9-44.9,79.3-58.9,122.8c-19.8,61.8-32,125.2-38.4,189.7
	c-1.8,18.2-3.1,36.5-4.5,54.8c-0.3,3.3-1.2,6.6,0.5,9.8h-24c-2.6-8.9,0.1-17.9,1.1-26.6c1.2-10.5,0.7-21.1,2.4-31.6
	c3.1-19.2,4.7-38.6,7.6-57.9c3.7-25.2,8.3-50.2,14-75c3.6-15.7,7.9-31.2,12.8-46.6c8.9-28.5,18.6-56.7,30.3-84.1
	c11.4-27,26.4-52.2,44.6-75.1c11.7-14.6,24.5-28.4,35.3-43.9c4.9-7,11.4-12.8,17.2-19.1c17-18.3,34.5-36.2,53-52.9
	c9.3-8.4,17.7-17.8,27.8-25.3c6-4.5,11.3-10.2,16.9-15.2c13.5-12,27.4-23.5,41.4-34.8c16.6-13.4,33.3-26.6,50-40
	c0.5-0.4,1-0.8,1.5-1.3c2.6-2.5,7.8-2.8,8-6.6c0.3-4.8-5.3-6.2-8.3-8.8c-17.6-15.7-35.5-31.1-44.3-54c-6.1-15.9-7.9-31.7-1.1-48.3
	c11.3-27.6,32.5-44.4,58.5-56.4c2.1-1,4.3-1.7,6.4-2.7c1.5-0.7,2.9-1.6,4.8-2.6c-6.5-13.2-13.4-26-19.8-39
	c-11.5-23.3-20.8-47.4-29.9-71.7c-11.2-29.7-19.6-60.3-25.1-91.5c-1.9-11-2.4-22.4-4-33.5c-4-28.5-2.8-57-2.9-85.6
	c0-10.6,1.3-21.1,1.9-31.7c0-0.8,0-1.5-0.2-2.1c-0.1-0.1-0.3-0.2-0.3-0.2c-0.6-0.5-0.8-0.1-1.4,0.4c-5.5,16.6-10,33.5-12.5,50.9
	c-3.7,26-5.5,51.9-3.8,78.3c1.7,25.1,4.9,50,6.8,75.1c1.3,16.8,3.9,33.4,5.9,50.2c0.2,2.7,0.3,5.3,0.3,8c0,13.7-0.5,27.3,0.1,41
	c1.8,42.2-12.1,79.6-34.2,114.6c-11.5,18.3-25.4,34.6-40.5,50c-17,17.2-34.9,33.4-55.3,46.7c-14.3,9.3-29.5,16.7-45,23.6
	c-22.9,10.2-47.1,17.4-71.8,21.5c-11.7,1.9-23.6,3.3-35.5,4c-11.1,0.7-20.3-3.8-28.5-11.6c-5.3-5-9.6-11-12.6-17.6
	c-2.6-5.1-2.5-11.2,0.2-16.3c3-6,6.2-11.5,11.3-16.2c11.6-10.8,23.3-21.7,33.5-33.7c12-14,22.3-29.5,31.5-45.6
	c8.5-15,14.3-31.3,17.1-48.3c2.5-14.6,0.7-28.6-3.2-42.2c-8.5-30.3-22.8-58.2-39.9-84.5c-13.5-20.8-28.3-40.6-44.4-59.5
	c-13.5-15.8-27.4-31.2-40.8-47c-11.2-13.3-22.6-26.6-34-39.8c-22-25.6-41.8-52.9-59.4-81.8c-14.9-24.5-26.9-50.4-37.4-77
	c-12-30.1-22.3-60.7-28.6-92.5c-5-25-9.4-50-10.5-75.6c-0.7-15.6-1.5-31.2-1.2-46.8c0.6-26.8,2.7-53.7,10.7-79.4
	c4.4-14.2,9.7-28.3,14.8-42.3c10.5-29,23.8-57,39.5-83.5c12.8-21.7,27.5-42.2,44-61.2c13.1-15.2,27.5-28.9,41.8-42.8
	c8.9-8.6,18.9-16.3,28.9-24c16.5-12.6,34.1-23,52.4-32.3c14.5-7.4,29.8-13,44.9-19.1c25.9-10.4,52.9-16.2,80.7-20.6
	c-0.3-3.7-3-6-4.7-8.6c-7.3-11.1-13.1-23.1-17.4-35.7c-4.4-12.5-9.5-24.6-10.9-38.1c-2-20.1-4.5-40.1-1.1-60.4
	c1-5.8,0.9-11.9,1.7-17.8c2.1-16,11.7-27.3,23.8-36.4c10-7.5,24.7-5.1,33.5,4c7.3,7.6,14.7,15.2,21,23.8c7.7,10.5,19.4,16.9,30,24.3
	c20.8,14.4,43.8,25.5,68,32.8c16.2,4.9,32.7,8.1,49.5,9.8c31.9,3.4,62.6-2.9,93.3-9.1c36.6-7.5,73-15.8,110-21.1
	c17-2.4,34.2-3.6,51.4-5.2c25.6-2.3,51.2-1.6,76.8-1.1c20.5,0.5,41,2.2,61.3,5.2c13.7,2,27.5,3.8,41.2,6.3
	c24.1,4.3,47.6,11.3,70.1,20.8c21.5,9.1,42.7,18.7,62,31.8c12.9,8.6,25,18.5,36,29.4c15.3,15.6,31.7,30.3,43.6,48.8
	c2,3.1,4.3,3.5,7.5,3.2c16.1-1.6,32.2-4,48.3-4.4c27.2-0.7,54.4-3.6,81.7-0.7c10.9,1.2,21.9,0.5,32.8,1.4c13.2,1,26.3,2.2,39.5,3.6
	c25,2.9,49.8,7.1,74.2,12.8c27.4,6.2,53.9,15.5,80.6,24.2c38.9,12.7,76.3,28.9,113.1,46.6c30.9,14.9,61.1,30.9,89.2,50.9
	c8.6,6.1,17,12.5,24.3,20.2c6.7,7,13.6,13.7,20.5,20.5c21.3,20.8,21.2,50.8,0.6,72.5c-14.9,15.6-31.8,26.9-52.1,33.7
	c-2.1,0.7-4.4,1.5-6.1,3.9c14.8,20.5,30.2,40.7,43.7,62.3c16.1,25.7,29.6,52.7,43.2,79.8c10.9,21.7,20,44.2,28.9,66.7
	c5.5,14,10.8,28.2,14.4,43c3.1,12.7,7.7,25.1,11.2,37.8c5.8,21.3,10.6,42.9,14.4,64.7c2.6,15,5.3,30,6.9,45
	c1.5,14.8,2.9,29.6,4.3,44.4c3,33.2,2.9,66.4,2.2,99.7c-0.5,25.5-2.3,50.9-5.4,76.2c-2.2,17.7-4.1,35.4-6.4,53.2
	c-2.7,20.7-6.5,41.2-11.1,61.4c-6.6,29.2-13.2,58.6-23.2,86.9c-15.9,45.1-31.6,90.2-52.2,133.5c-19.6,41.5-42.6,81.4-68.6,119.2
	c-9.9,14.4-21.2,27.8-32.3,41.3c-11.9,14.4-26,26.6-38.8,40.1c-8,8.4-18.1,15.2-29.3,18.4c-12.8,3.7-25.7,2.8-36.4-7
	c-12.9-11.9-21.8-26.2-29.1-42.2c-15.8-34.4-30-69.6-45.5-104.1c-0.8-1.7-1.9-3.3-3.9-6.7c-2.4,14.8-8.1,26.6-12.3,39
	c-8.3,24.3-22.9,45-38.7,64.7c-10.2,12.8-20.7,25.8-34.1,35.7c-2.9,2.1-2.9,4.5-2,7.8c3.6,13.7,6.5,27.6,10.3,41.2
	c8,28.3,12.4,57.4,17.5,86.3c2.3,13,5.7,25.8,6.9,39c0.1,1.3,0.8,2.6,0.8,3.9c-1.1,19,1.9,37.7,3.3,56.5c1,12.6,2.8,25,2.8,37.7
	c0,15.9-2.8,31.7-4,47.5s-4,31.5-6.6,47.1c-1.6,9.8-3.7,19.4-5.6,29.1L1610,2217.8z"/>
<path class="st1" d="M728,2217.8c4-12.7,10.7-24.3,15.4-36.7c9.3-24.5,18.1-49.2,25-74.6c3.1-11.5,6-23.1,9.5-34.5
	c1.8-5.6,3.5-6.9,9.3-5.9c4.3,0.5,8.5,1.5,12.6,2.8c5,1.8,9.3-0.2,13.4-2.1s7.2-8.4,6.5-12.6c-1-6.3-6.8-11.8-14-12.3
	c-8.2-0.7-16.4-2-24.5-4c-22.7-5.2-43.6-14.6-61.3-29.7c-15.3-13-25.7-29.9-29.7-49.7c-4.5-22.2-3.8-45.2,1.9-67.1
	c7.3-28.4,20.7-54,36.3-78.4c16.4-25.8,36.3-49.3,59-69.8c7.9-7.1,17-12.7,25.9-18.6c3.1-2.1,5.3-1.8,8.1-0.1
	c28.8,17.3,56.3,36.5,84.3,55c3,2,4.2,3.8,2.8,7.3c-1.1,2.7-1.3,5.9-2.3,8.6c-4.6,12.1-0.9,22.9,5.6,33
	c17.9,27.9,41.5,49.8,70.2,66.5c20,11.6,40.9,20.6,62.4,28.7c10.8,4.1,19.1,2.2,25.4-8.5c4.8-8.3,5.9-8,13.2-1.4
	c23.9,21.6,48.1,42.8,71.6,64.9c22.3,21,44.2,42.5,65.3,64.6c10.4,11,22.2,21.1,30.2,34.4c0.7,11-5.9,19.6-9.9,28.9
	c-13.6,31.9-26.7,63.9-37.1,97c-1.6,5.1-3.2,10.2-7,14.2L728,2217.8z"/>
<path class="st3" d="M1440,2079.8c0-0.7,0-1.3,0-2c2.7-4.4-0.6-9.6,2-14c0.8-16.2,1.4-32.4,3.7-48.5c0.2-0.6,0.2-1.3,0.2-2
	c-3.1-11.8-0.6-23.9-2.4-35.7c-2.3-14.3-2.9-29-6.9-43.1c-1.3-4.7,2.5-7.6,4.7-10.5c10.8-13.9,21.6-28,30.3-43.2
	c9.2-16.2,23.1-23.9,39.8-28.5c11-3,21-7.9,30.8-13.5c6.7-3.8,8.6-3.9,11,3.7c4.3,13.2,10,25.8,12.7,39.6
	c4.8,24.7,10.5,49.2,15.2,73.9c2.9,15.3,4.9,30.7,7,46.1c2.4,17.7,2.6,35.7,4.4,53.5c2.5,23.3,0.8,46.5,1.6,69.8
	c0.3,10.6-1.7,21.1-3.3,31.6c-0.4,1.9-0.6,3.9-0.6,5.9c1.9,19-4.3,36.8-8.1,54.9h-180c-1.6-3.9,0.8-7.1,2.1-10.4
	c12.4-30.4,24.6-61,30.8-93.4C1437,2102.7,1438.4,2091.2,1440,2079.8z"/>
<path class="st2" d="M1292,2217.8c5.9-24.3,13.7-48,22.1-71.5c1.4-4.4,4.3-8.2,8.2-10.7c21.7-13.7,34.4-33.7,40.1-58.6
	c2.7-11.7,4.2-23.6,4.3-35.7c-0.1-4,0.9-7.9,2.9-11.3c12.4-20.9,26-41.1,40.2-60.9c0.9-1.3,1.7-2.9,3.7-3.1c1.5,2.1,2.4,4.7,2.4,7.3
	c0.8,20.9,3,41.6,0.6,62.7c-2.2,20.1-3.5,40.3-6.7,60.3c-4.5,27.9-12.6,54.3-29.7,77.4c-8.5,11.5-16.7,23.3-25.9,34.3
	c-2.4,2.9-6.1,5.3-6.3,9.7h-28c-2.1-2.6-0.6-4.8,0.7-7c16.2-17.8,29.2-37.9,43.3-57.2c10.2-14,12.5-30.4,16.4-46.4
	c2-8.5,5.7-16.5,6.6-25.3c0.9-4.6,2-9.1,2.2-13.9c1.5-5.4,2.1-10.9,1.8-16.5c0.2-2,1.2-3.8,0.9-5.5c0.2-1.7-1.5-0.8-0.2-0.8
	c0.6,0,0.4,0.2,0.2,1c-0.3,0.9-0.3,2-0.6,2.9c-1,5,0.3,10.2-1.4,15.1c-1.3,5.6-1.4,11.4-3,16.9c-0.8,6.6-2.5,13-5.2,19
	c-7,19.7-20.7,34.5-35.9,47.9c-6.1,5.1-10.3,12-12.2,19.7c-3.2,12.5-7.7,24.6-11.7,36.8c-2.1,4.4-2.8,9.4-6,13.3L1292,2217.8z"/>
<path class="st4" d="M1196,2217.8c4.2-15.7,9.2-31.1,15.1-46.2c7-17.6,13.7-35.3,20.9-52.8c5.7-13.8,12-27.4,18-41.1
	c7.8,4.9,11.7,13.4,18.1,19.6c7.1,6.9,12.8,15.1,19.1,22.7c3,3.6,5.6,7.1,3.5,12.5c-10.9,27.7-18.5,56.6-26.7,85.1L1196,2217.8z"/>
<path class="st4" d="M632,2217.8c-1.1-9.5-2.1-19-3.2-28.5c-0.2-1.3-0.8-2.6-0.7-3.9c1.2-13.4-1.6-26.5-2.5-39.7
	c-1-14.1-0.2-28.5-3.3-42.5c-0.3-2.3-0.4-4.7-0.3-7c0-23-0.6-46,0.2-68.9c0.5-13.4,2.3-26.9,7.8-39.5c-0.1,7.9-0.6,15.8-1.5,23.7
	c-1.1,8.3,1.1,17.1,2,25.6c1.7,16,4.5,32,7.6,47.8c4.7,24,10.6,47.7,17.6,71.1c5.7,19,11.1,38.1,17.7,56.9c0.4,1.6,0.6,3.3,0.6,4.9
	L632,2217.8z"/>
<path class="st5" d="M1440,2079.8c-0.6,15.8-2.2,31.4-5.9,46.9c-7.6,31.4-18.3,61.9-32.1,91.1h-20c0.2-4.3,3.2-7.5,5.7-10.2
	c6.3-6.9,10.5-15.3,16.6-22.2c12.8-14.7,18.6-32.6,23.6-50.9c4.7-17.2,7.8-34.7,10.4-52.3C1438.4,2081.3,1439.4,2080.6,1440,2079.8z
	"/>
<path class="st6" d="M1316,2217.8c-0.1-5.1,2.5-9.4,3.9-14.1c2.8,2.2,2.3,5.2,2.1,8.1c-0.8,2-2.4,3.6-2,6L1316,2217.8z"/>
<path class="st7" d="M947,889.8c5.3,8.1,9.3,14.5,13.6,20.7c10.1,14.5,21.5,28.1,34,40.6c18.6,18.3,39.7,32.4,65.3,38.9
	c5.1,1.3,7.9,3,7.7,9.3c-1,31,1.7,61.9,5.5,92.7c0,0.3-0.3,0.6-0.4,0.9c-1.5,1.5-3,0.7-4.5,0c-65.3-30.6-122.7-71.3-165-130.8
	c-30.9-43.3-47.7-91.9-51.8-144.9c-3.3-42.3,1.6-84.8,14.5-125.2c0.7-1.9,1.1-3.8,1.4-5.8c0.7-5.8-2.7-11.4-8.1-13.5
	c-5.4-2-11.3,0-14.9,5.2c-2.1,3.1-3.1,6.6-4.2,10.1c-13.2,42.1-17.7,85.3-14.7,129.3c0.9,14.3,2.9,28.5,5.9,42.5
	c1.9,8.7,1.6,8.9-7.1,11.9c-47.5,16.1-89.3,41.3-124.4,77.5c-4.3,4.2-8.2,8.7-11.9,13.5c-3.8,5.2-7.7,5.6-13.7,3.8
	c-26.6-7.7-52.3-18.1-76.7-31.1c-1.9-1-3.5-3.1-6.7-2c6.5,12.7,15.7,23,25.4,33c11.2,11.4,23.8,21.5,37.3,30
	c7.5,4.7,7.6,4.9,3.8,12.2c-16.4,31.7-26.3,65.5-30.7,100.8c-3.8,30.2-3.6,60.4-1.4,90.7c2.9,40.6,9.2,80.8,12,121.3
	c1.6,23,1.6,45.9-2.5,68.8c-5.7,32.2-22.2,59.1-42.3,83.9c-38.7,47.6-88.9,76.5-148.7,89.2c-1.6,0.4-3.3,0.6-4.9,0.8
	c-0.5,0-1-0.5-1.6-0.8c0.5-3.3,3.3-4.8,5.2-7c19.4-22.6,36.9-46.4,49.6-73.5c18.3-39,20.7-78.3,5.9-119.3
	c-17.3-47.6-42.4-90.3-73.8-129.7c-20.6-25.8-42.9-50.1-64.6-75c-30-34.5-59.2-69.6-82.3-109.2C245,993.8,224.6,934.3,214,871.3
	c-6.6-38.1-8.1-77-4.5-115.5c2.9-29.8,11.4-58,22.2-85.8c19.4-49.8,45.4-95.6,81.5-135.4c48.9-53.8,109-87.9,180-103
	c34.8-7.4,69.8-10.1,105.3-6.4c8.2,0.9,13.9-2.4,16.1-8.7c2.1-6,0.3-11.4-6.6-16.2c-17-11.8-32.2-25.9-45.4-41.9
	c-26.4-32.2-34.9-69.7-32.9-110.3c0-0.6,0.6-1.1,1-1.8c3.5-0.4,5,2.7,7,4.5c45.3,40.7,98.8,63.6,158.5,72.6
	c32,4.8,63.8,0.9,95.4-4.8c36-6.5,71.6-15.5,107.8-21.4c20.4-3.3,40.9-5.7,61.5-7.5c27.9-2.4,55.9-2.8,83.9-1.2
	c54.7,3.1,108.8,9.8,160,31.4c61.8,26,108,68,132.6,131.2c28.6,73.4,15.7,139.9-35.5,199.2c-19.3,22.3-42.8,40.1-66.1,57.8
	c-25.2,19.2-50.6,38.1-73.4,60.2c-27.5,26.7-51,56.3-67.3,91.2c-10.4,22.2-16.8,45.6-21.2,69.6c-0.3,1.6-0.6,3.3-0.9,4.9
	c-1.7,8.7-1.7,8.6-10.3,7.2c-38.6-6.3-73-22.6-104.7-44.9c-2.5-1.7-4.9-3.5-7.3-5.2C949.5,890.6,948.3,890.2,947,889.8z"/>
<path class="st8" d="M985,1077.4c4.2,0.5,6.6,3.1,9.3,4.8c25.5,16.4,52.5,30.4,80.5,41.9c3,1.4,6.2,2.5,9.4,3.4
	c12.7,3.2,21.2-4.5,19-17.5c-2.4-14.1-4.6-28.3-6.1-42.5c-2.3-21.9-3.4-43.8-3.3-65.8c0-5.3,1.7-7,6.9-6.9
	c5.7,0.1,11.3-0.3,16.9-1.2c4.9-0.7,6.3,0.9,6.6,5.7c1.7,20.9,4.9,41.7,9.5,62.2c8.5,38.5,19.7,76.1,39.9,110.4
	c11.6,19.7,25.4,37.5,44,51.2c31.1,22.9,65.7,27.5,102.6,19c39.9-9.2,68.4-33.1,87.7-68.5c15.9-29.1,23.6-60.7,27.7-93.3
	c6.8-53.9,4.3-107.7-2.7-161.4c-2.5-18.8-5.5-37.6-9.2-56.2c-1.3-6.7-1.4-6.8-8.1-5.3c-57.8,13-114.9,29-171,48.1
	c-32.5,11-65,21.8-98.5,29.3c-15.2,3.4-30.5,6.2-47.7,7c1.7-8.7,3-16.4,4.7-24c11-50.6,38.1-91.8,74.4-127.6
	c20.2-20,42.7-37.2,65.2-54.4c20.1-15.4,40.3-30.7,59-47.8c31-28.5,54.8-61.6,67-102.4c2-6.7,2.3-6.7,9.1-3.7
	c25.9,11.5,48.6,27.7,69.1,47c41,38.5,70.3,85,92.6,136.3c26.4,61.1,42.5,124.8,46.1,191.3c5.4,97.6-12.5,190.8-53.5,279.8
	c-2.7,5.9-5.7,7.8-12.6,8.1c-60.3,1.9-111.8,22.6-149.3,71.9c-15.2,20-23.6,43.1-30.1,67c-6,21.9-9.6,44.3-10.5,67
	c-0.1,2.3,0.5,4.7-1.7,7.3c-10-2-20.3-4.1-30.7-6.3c-66.5-14-133.8-24.3-201.4-30.8c-61.4-5.9-122.9-9.6-184.7-7.7
	c-22,0.7-44,1.6-65.8,4.7c-6.7,1-10.7-0.4-14.6-6.6c-38.7-62.6-67.5-129.3-81.9-201.6c-8.1-40.6-10-81.9-7.6-123.4
	c1-16.3,1.6-32.6,3.5-48.8c0.9-8.1,1.1-8.1,9.1-7.1c14.4,1.8,14.6,1.8,14.3,16.3c-0.7,38.1,2,75.9,11.9,112.9
	c5.5,20.7,13.3,40.4,26.1,58c25.9,35.6,73.1,48,110.2,28.9c15.3-7.9,26.4-20.2,35.1-34.7c13.3-22,20.3-46.2,25.2-71.2
	c3.4-17.3,5.7-34.9,6.9-52.5C983.6,1084.5,983.3,1081.1,985,1077.4z"/>
<path class="st1" d="M1698,1577.8l-31.2-48.6c-0.9-1.4-1.5-3.2-2.7-4.1c-9.4-7.3-11.1-18.5-14.9-28.7c-1.4-3.8-0.6-6.4,2.1-8.9
	c10.8-9.8,21.4-19.9,32.4-29.5c14-12.3,27.2-25.5,39.6-39.4c3.8-4.2,7.6-8.3,11.4-12.5c28.4-31.8,55.3-64.6,73.9-103.4
	c7.7-16.1,12.9-33,13-50.6c0.1-11.7-1.1-23.8-4.9-35.3c-7-21.7-13.9-35.7-28-54.5c7.3-7.4,14.5-15.1,19.6-24.6
	c8.9-16.6,14.1-34.4,17.6-52.6c2.8-14.3,5.5-28.6,6.2-43.2c0.2-4.1,3-5.1,6.3-6.6c15.5-6.9,30.7-14.5,42.5-27.3
	c25.4-27.3,26.8-56.5,9.5-86.8c-12.2-21.5-29-39.5-43.4-59.4c-10.4-14.6-19-30.5-25.6-47.2c-6.2-15.7-10.8-32.1-13.7-48.8
	c-1-5.8-3.6-10.7-10.3-11.9c-7-1.3-10.7,0.5-15.4,7.9c-5.8,25.6-8,51.9-6.4,78.1c1.3,24.2,9.8,46,18.6,67.9c3.2,8,6.3,16.1,8.9,24.4
	c9.4,31-2.7,55.3-23.7,76.7c-9.2,9.3-20.2,16.1-33.3,18.9c-17,3.6-34.4,1.7-51.6,3.4c-16,1.6-32.5,1.9-48.8-0.8
	c-7.8-1.3-16-0.4-24-0.6c-8.8-0.2-10.2-1.1-9.6-9.9c0.8-11.6,2.7-23.2,1.7-34.8c-1.5-16.8-1.9-33.7-3.4-50.6
	c-1.8-20.5-5-40.8-8.8-60.9c-2.8-15.3-7.3-30.3-11.3-45.3c-8.8-33.2-21.6-65-36.3-95.9c-12.8-27.1-28.7-52.4-46.7-76.4
	c-10.6-14.1-21.8-27.7-34.4-40c-26.3-25.6-55.6-47.4-90.2-61c-4.2-1.6-5.6-3.6-5.2-8.9c2.5-35.5-1.4-70.3-15-103.6
	c-1-2.3-2.3-4.8-1.5-7.6c11.4-4.2,23.5-3.7,35.3-4.8c34.5-3.4,69.2-3.8,103.7-2.1c48,2.3,95.5,8.8,142.3,20.6
	c41.7,10.5,82,24.5,121.7,40.9c28,11.6,55.1,24.9,81.7,39.2c23.1,12.4,45.7,25.8,66.2,42.3c5.9,4.8,11.2,10.5,16.4,16.1
	c5.6,5.9,5.2,10.9-1.1,16.2c-7.2,6-15.6,10.3-24.3,13.7c-16.1,6.3-33,10-49.7,14.1c-3.6,0.9-5.7-0.8-7.9-3
	c-6.8-6.8-13.7-13.6-20.5-20.5c-2.8-2.9-5.9-5.4-9.3-7.5c-7.6-4.7-15.6-4.4-19.8,0.9c-4,5.1-2.5,16.3,3.7,20.8
	c10.9,7.9,19.6,18,28.9,27.5c13.1,13.6,25.5,28,37.1,42.9c14.2,18,27.8,36.4,40,55.8c7.7,12.4,15,25.1,22.5,37.6
	c6,11.4,4.4,23.8,5,36c2.9,58.9,2.5,117.8,1.7,176.7c-0.7,49.2-3.3,98.3-7.2,147.4c-4.4,56.2-10.3,112-20.6,167.4
	c-15,80.2-36.5,158.3-76.6,230.2c-11.5,20.7-25.1,40.1-40.7,57.9c-6,6.8-12.9,8.8-22.2,7.9c-21.6-2-40.2-11.3-58.7-21.3
	c-3.6-1.9-6.2-5-8.6-8.2l0,0C1699.3,1579.1,1698.6,1578.5,1698,1577.8z"/>
<path class="st7" d="M1318.4,1872.9c3.6-2.7,7.3-5.4,10.9-8.1c20.1-15.2,37.4-33,51.1-54.3c14.2-22.1,20.9-46.5,23.5-72.4
	c4.6-46.8-5.8-91.3-19.2-135.5c-8.6-28.3-17.7-56.6-23.5-85.7c-10.6-53.4-6.5-105.5,14.1-155.9c17.8-43.5,51.5-69.2,95.5-82.8
	c14.1-4.3,28.6-6.1,43.2-7.6c6.6-0.7,12.3,3.1,13.8,10.1c1.8,7.8,2.8,15.7,3.8,23.6c4.2,30.3,15.4,57.6,32.4,83
	c34.3,51.4,59.8,106.9,74.7,167c8,32.2,13.1,64.8,10.3,97.9c-4.9,57.8-31.4,104.5-75.3,141.7c-30.2,25.6-65.2,42.6-102.4,54.9
	c-47.8,15.8-97,23.3-147.1,25.6C1322.5,1874.5,1320.3,1875.8,1318.4,1872.9z"/>
<path class="st4" d="M1700,1579.8c10.2,6.3,21.1,11.3,31.7,16.9c13.9,7.2,29.1,8.6,44.1,11c3.4,0.5,5.3-2.2,7.6-4.2
	c9.3-7.8,15.5-18.1,22.6-27.7c23.3-31.4,39.9-66.4,53.8-102.6c6.1-15.8,12.4-31.5,17.1-47.8c8.7-30.6,16.9-61.3,23.2-92.4
	c3.4-16.8,6.6-33.8,9.1-50.7c1.8-12.1,3.8-24.1,5.1-36.3c1.4-13.1,3-26.3,5.1-39.3c1-6.9,1.7-13.8,2-20.7
	c0.7-12.3,2.4-24.4,2.9-36.7c0.5-11.8,0.5-23.8,3.3-35.5c0.2-1,0.3-2,0.3-3c-1.3-18.3,1.6-36.5,2.3-54.7
	c2.6-62.9,2.1-125.8,1.3-188.7c-0.3-22.5-1.5-45.1-1.6-67.7c0-4.7-2.8-8.9-2-13.7c27.3,47.8,48,98.4,64.5,150.8
	c7.6,24,13.9,48.4,18.9,73.1c4.6,22.6,9,45.4,10.9,68.5c1.2,14.8,2.5,29.7,4,44.5c3.3,32.6,1.2,65.2,1.6,97.7
	c0.2,16.2-1.7,32.4-3.5,48.5c-1.5,13.5-2.3,27-4.3,40.4c-2.2,14.7-3.9,29.5-6.4,44.2c-5.3,31.3-12.7,62.3-20.9,93
	c-9.2,34.7-21.3,68.4-34.1,102c-11.6,30.1-24.9,59.5-40.1,88c-18.8,35.6-39.9,69.8-64.3,101.8c-12,15.9-25.4,30.8-40,44.3
	c-15,13.8-15.4,10.1-21.5-3.2c-11.3-24.8-22-49.8-32.9-74.8c-13.7-31.3-26.8-63-43.7-92.9C1710.4,1601.3,1703.2,1591.6,1700,1579.8z
	"/>
<path class="st1" d="M1604,1401.8c-5.5-11-11.9-21.5-19-31.5c-14.9-21.4-23.3-45.1-27.3-70.8c-1.8-11.7-1.2-23.9-7-34.9
	c-1.9-3.7,0.5-7.1,2.1-10.3c12.5-24.3,21.9-49.8,30.7-75.7c1.6-4.7,2.9-9.5,4.2-14.3c1-3.7,2.7-4.7,6.5-3.5
	c16.8,5.3,34.3,7.2,51.5,10.3c8.8,1.8,17.7,2.7,26.6,2.9c11.9,0,23.7,2.7,35.7,1.8c5.1,2.8,4.1,7.8,4.6,12.3
	c4.1,38.5-7.6,72.9-26.8,105.4c-21,35.9-44.4,70.4-70,103.2c-2.5,3.2-4.3,7.9-9.9,7l0,0C1605.3,1403.2,1604.7,1402.5,1604,1401.8z"
	/>
<path class="st4" d="M1606,1403.8c8.3-5.9,13.1-14.9,18.9-22.8c21-28.5,41.3-57.6,58.5-88.6c10.7-19.3,21.4-39,25.2-61.3
	c0.8-3.5,1.2-7.1,1.3-10.8c0-11.3,0-22.6,0-33.9c0-3.7,0-7.3-2-10.6c14.9-0.1,29.8-1.3,44.5-3.8c5.3-0.8,9.7,0.2,13.3,4.6
	c14.7,17.8,24.4,38.2,27.8,60.9c2.6,17.3-0.1,34.4-7.7,50.6c-12.2,26.1-28.7,49.3-46.8,71.5c-21.4,26.3-44.5,51.2-68.9,74.7
	c-9.3,9-19.2,17.4-28.4,26.5c-3.8,3.8-6,3.4-8.1-1.8c-3-7.4-6.4-14.6-10-21.7C1617.9,1426.1,1611.9,1415,1606,1403.8z"/>
<path class="st9" d="M931.3,1805.2c4-18.2,9.2-36.1,15.6-53.6c6-15.9,14.1-30.9,24-44.7c4.5-6.3,4.7-6.4,11.1-2.8
	c41.8,23.3,80.7,50.4,114.4,84.7c4.4,4.4,5.2,8.1,3.2,13.9c-10.9,32.5-26.7,62.4-46.3,90.3c-2,2.8-3.3,5.2-7.9,3.4
	c-29.5-11.9-58-25.2-82.1-46.6c-11.6-10.1-21.4-22-29.2-35.2C932.7,1811.6,930.5,1808.8,931.3,1805.2z"/>
<path class="st10" d="M1114,1839c15.8,13.1,30.5,25,44.9,37.3c58.9,50,115.3,102.7,170.9,156.3c9.5,9.1,11.8,18,9.1,30
	c-2.9,12.8-6.1,25.2-14.1,35.9c-1.6,2.2-3.3,4.2-5.1,6.1c-6.1,6.3-6.8,6.3-12.2-0.4c-27.8-34.4-57.4-67.4-88.6-98.8
	c-38.6-39-78.4-76.9-120.4-112.3c-1.3-1.1-2.4-2.3-3.7-3.3c-4.2-3-5-5.9-1.9-10.7C1101,1866.9,1107,1853.6,1114,1839z"/>
<path class="st10" d="M1709,1149.3c-36-0.4-71.8-4.9-106.8-13.5c-5.9-1.4-6.4-2-5-8.3c3.9-17.2,7.1-34.5,9.7-51.9
	c0.7-4.6,1.1-9.2,1.7-13.9c0.5-4.4,2.7-6.2,7.3-6c10.3,0.5,20.5,1.7,30.9,1.9c31.3,0.7,62.6,0.4,93.8-2.4c18.8-1.7,37.7-4,56.2-8.1
	c7.4-1.6,7.9-1.4,7.2,5.7c-2.3,23.3-6.8,46-16.3,67.6c-6.6,14.8-17.3,23.5-34.1,25.4C1737.6,1147.7,1721.7,1148.1,1709,1149.3z"/>
<path class="st4" d="M1746,1027.8c10.7-5.1,20.8-11.5,29.8-19.1c11.7-9.9,18.8-22.6,24.4-36.8c7.1-18.3,2.2-35.1-4.3-52
	c-7.3-19.1-17.2-37.6-20.5-57.9c-3.2-19.8-5.9-39.9-2-60.1c1.6-8.4-0.2-17.2,2.5-25.6c1.6-5,1.8-10.5,6-14.4
	c-0.8,21.1,6.3,40.5,13.2,59.9c9.2,25.9,23.7,49,40.7,70.4c7.6,9.6,14.9,19.4,22.6,29c3.9,5,7.2,10.3,10,16
	c12.1,23.2,6.2,44.6-16.4,60.7c-12,8.6-25.7,13.6-39.8,17.8C1790.6,1022.2,1768.3,1025,1746,1027.8z"/>
<path class="st2" d="M664.5,1969.3c3.4,8.5,6,16.7,10,24.3c15.3,28.5,38.9,47.6,68.2,60.3c10.3,4.4,10.4,4.4,7.6,15.6
	c-10.8,43-24,85.1-42.8,125.4c-1.8,3.9-3.1,8.1-6.6,11.9c-2.1-2.4-2.5-5.2-3.3-7.8c-16.7-49.9-30.9-100.4-38.8-152.6
	c-3.7-24.6-4.4-49,2.9-73.2C662.1,1972.2,662,1970.8,664.5,1969.3z"/>
<path class="st8" d="M839.7,894.1c9.7,28.9,23.3,56.3,40.6,81.3c-8.5-0.5-15.2-1.1-22-1.2c-24.3-0.5-48.5,2.1-72.8,2.7
	c-9,0.2-18,0.3-27,0.6c-4,0.1-5.4-1.5-4.6-5.4c2.7-12.7,5.3-25.4,7.9-38.1c0.6-3,2.7-4.5,4.9-5.9
	C789.3,913.3,813.9,901.9,839.7,894.1z"/>
<path class="st10" d="M917.7,1755.5c-12.7-8.2-24.2-15.5-35.6-23c-22.8-15-45.8-29.7-69.2-43.6c-8.5-5-8.5-5.4-3.3-13.7
	c4.9-7.9,10.5-15.3,17.7-21.5c4.1-3.5,7.6-4.2,12.4-1.2c22.1,13.6,44.4,26.9,66.6,40.4c8.5,5.2,16.9,10.6,25.3,16
	c2.5,1.6,5.3,3.3,3.2,7.1C928,1728.3,923.1,1741.3,917.7,1755.5z"/>
<path class="st4" d="M1314,1979.8c6-4.8,9.7-11.6,14.2-17.6c13.4-17.7,28.1-34.3,44.1-49.7c5.7-5.4,12.6-9.6,17.8-15.8
	c-1.7-1.8-4.1-0.5-6.2-0.9c4.7-4.1,10.9-2.4,16.2-3.2c11.1-1.7,22.1-3.8,33-6.6c0.9-0.2,1.9,0.2,3.4,0.3c-0.2,6.5-6,9.3-8.6,14
	c-1.3,2.3-4.2,1.7-6.2,0.1c-5.4-4.3-10.9-3-15.5,0.8c-4.7,3.7-6.1,10.2-3.4,15.5c4.7,9.3,1.7,16-4,23.3
	c-17.1,21.9-32.9,44.9-47.2,68.7c-3.5,5.8-3.8,5.9-8.5,1.1C1333.4,1999.8,1322.7,1990.8,1314,1979.8z"/>
<path class="st4" d="M1296,1573.8c2.6-6.5,3.3-13.3,4.2-20.1c1.8-13.4,2.3-26.9,1.6-40.4c-0.5-11.2-2.5-22.2-1.8-33.5
	c8.7-0.1,16.8,3.5,25.4,4.3c3.1,0.3,4,2.8,4.7,5.6c2.7,10.6,3.1,21.5,5.4,32.2c3,13.9,6.4,27.7,10.1,41.4c2,7.4,1.6,8.1-6,8.4
	c-6,0.4-12,0.3-18-0.1C1313,1570.9,1304.6,1574,1296,1573.8z"/>
<path class="st11" d="M727.7,960c1.1,2.3,0.4,4.5,0,6.8c-1.5,10.4-2.7,11-13.8,6.6c1.8-4.1,5.1-6.7,8.3-9.5c0.6-0.7,1.2-1.4,1.9-1.9
	l0.1-0.1c0.5-0.7,1.2-1.3,2-1.8l0.1-0.1C726.7,959.3,727.2,959.3,727.7,960z"/>
<path class="st5" d="M1442,2063.8c-0.7,4.7,1.8,9.8-2,14C1440.7,2073.2,1438.2,2068.1,1442,2063.8z"/>
<path class="st4" d="M630,1987.8c0.3-2.8-0.9-5.9,2-8C631.7,1982.6,632.9,1985.7,630,1987.8z"/>
<path class="st12" d="M724,962c0,1.1-0.9,1.9-1.9,1.9C722.1,962.8,723,962,724,962z"/>
<path class="st4" d="M1698,1577.8l2,2L1698,1577.8z"/>
<path class="st12" d="M726.1,960.1c0,1-0.9,1.9-2,1.8c0,0,0,0,0,0c0-1,0.9-1.8,1.9-1.8C726,960.1,726,960.1,726.1,960.1z"/>
<path class="st12" d="M727.7,960l-0.7,0.2l-0.7-0.2c0.3-0.4,0.6-1.2,0.9-1.2C727.8,958.7,728,959.3,727.7,960z"/>
<path class="st4" d="M1604,1401.8l2,2L1604,1401.8z"/>
<path d="M1122.3,2095.8c-31.7,1.8-62.7-6.6-92.1-20.4c-37.9-17.8-67.2-44.9-84.2-83.9c-6.8-15.5-12.4-31.5-12-48.9
	c0.1-5.2,1-10,6.3-12.6c9.2-4.5,18.4,1.1,19.7,12.3c1.8,15.9,6.6,31.2,14,45.3c13.1,24.7,31.8,43.7,56.3,57.5
	c19.1,10.8,39.9,18.2,61.5,22c24,4.3,48.2,4.3,72-2.3c10.1-2.8,14.9-1.2,19.3,5.4c4.7,7,1.1,16.5-8.4,19.4
	c-10.4,3.1-21.1,5.8-32.1,6.1C1136.3,2096,1130,2095.8,1122.3,2095.8z"/>
<path class="st6" d="M1322,2211.8c-3-2.1-1-5.5-2.1-8.1c3.5-13.4,8.9-26.2,12-39.7c1.5-6.6,5.4-11.2,10.5-16
	c14.9-14,30.2-28.1,37.3-48.3c5.6,1.5,2.6,5.4,2.4,8.6c-2.4,20.6-9.3,39.3-22.7,55.6c-7.1,8.6-12.3,18.6-19.2,27.5
	C1334.8,2198.7,1328.1,2205.1,1322,2211.8z"/>
<path class="st6" d="M1382.2,2108.4c-0.9-2.9,0.7-6.4-2.4-8.6c2.7-5.7,3.4-10.2,5.8-18.7c1.7-10,5.1-6.1,3.1,0.9
	C1387.1,2090.8,1385,2099.7,1382.2,2108.4z"/>
<path class="st6" d="M1390.3,2048c0.9-4.1,1.5-8.3,1.8-12.5c1.6,5.6,1.3,6.8,0.8,13.4C1391.6,2048.8,1390.9,2048.8,1390.3,2048z"/>
<path class="st6" d="M1385.9,2092.1h-0.9l1.1-10.3c-0.7-6.1,2.3-18.5,2.3-18.5s3.8-1,3.1,1
	C1390.6,2073.8,1388.7,2083.1,1385.9,2092.1z"/>
<path class="st6" d="M1391.5,2064.8c-0.2-1.6-1.5,0.1-3.2-0.8c2.1-5.1,0.2-10.8,2.1-15.9c0.7,0.7,2.1,0,2.7,0.8
	C1391.6,2054.6,1392.3,2059,1391.5,2064.8z"/>
<path d="M587.8,734.8c-13,4.2-25.7,9.3-38,15.1c-29.4,13.6-57.2,30-84.6,47.2c-3.1,2-6.2,3.9-9.3,5.9c-5.1,3.2-10.5,4.6-15.9,1.1
	s-6.7-9-5.8-14.9c1.1-7.9,2.1-15.9,3.9-23.6C455.6,688.9,496,628,562.2,585c33-21.5,69.7-34.7,108.2-42.8
	c41-8.7,82.5-10.8,124.3-8.3c6,0.3,12,1,17.9,2.1c7.8,1.4,12.2,7.1,11.4,14c-0.7,6.3-6,11-13.3,11.1c-4.3,0.1-8.6-0.9-12.9-1.2
	c-42.1-2.3-83.9-1-125.3,8.1c-55.7,12.3-105,36.2-144.4,78.4c-31.2,33.4-51.7,72.5-63.3,116.5c0,0.9,0.1,1.7,0.3,2.5
	c4.3,0.4,7.1-2.7,10.2-4.6c27-16,54.4-31,83.6-42.7c13.6-5.5,27.4-10.4,41.4-14.7c2.5-0.9,5.1-1.5,7.7-1.6c8.6,0,14.5,6.6,13.2,15
	c-0.7,3.3-1.7,6.4-3.1,9.5c-7.8,19.9-12.9,40.7-15.1,62c-0.2,2.3-1,4.5,0.3,6.9c3.6,0.5,5.1-2.6,7.1-4.5
	c21.6-19.4,45.3-36.3,70.7-50.3c3.1-1.9,6.5-3.4,9.9-4.6c6.5-2.1,12.3,0.5,15.3,6.1c2.8,5.3,1.6,10.9-3.5,15.2
	c-2.1,1.7-4.3,3.2-6.7,4.4c-34.8,18.5-64.9,43-92.2,71.2c-1.6,1.7-3.2,3.4-4.9,5c-4.6,4.3-9.5,7.6-16.1,4.5s-8.9-8.8-8.6-15.5
	c0.3-8,1-16,1.5-23.9C577.2,779.6,581.2,756.9,587.8,734.8z"/>
<path d="M1145.2,1339.3c0.3,7.2-5.4,13.3-12.6,13.6c-0.7,0-1.5,0-2.2-0.1c-4.3-0.5-8.4-2.2-12.3-4.2c-21.5-10.6-35.5-27.6-42.8-50.3
	c-2.8-8.8-2.8-8.4-12.3-8.9c-18.8-1-35.3,5.6-50.7,15.4c-3.1,2-6.1,4.2-9.4,5.6c-5.3,2.6-11.7,1-15.2-3.7c-3.8-5-3.5-11.9,0.8-16.5
	c1.6-1.7,3.3-3.2,5.3-4.5c20.2-13.8,41.9-23.1,67-22.6c9.1,0.2,9.3-0.1,10.4-9.7c2.2-18.4,8.8-34.8,20.6-49c2.4-3.2,5.3-6,8.6-8.3
	c5.7-3.6,12.2-3.1,16.5,1.2s5.1,10.7,1.5,16.5c-0.9,1.4-2,2.7-3.2,3.9c-21.1,23.4-23.1,50.1-12.8,78.3c5.4,14.7,16.4,24.9,31.1,30.7
	c4.5,1.8,8.5,3.9,10.5,8.6C1144.6,1336.6,1144.9,1338,1145.2,1339.3z"/>
<path class="st6" d="M703.5,2138.3c-9.2-31.6-16.3-63.8-21.2-96.3c4.8,0.8,7.7,4.5,10.2,6.9c8.2,7.7,17.4,14.2,27.5,19.2
	c5.1,2.6,5,5.8,3.9,10.2c-2.9,10.8-5.9,21.5-9.4,32.2c-2.3,7.2-2.7,15-6.5,21.8C707,2134.2,706.5,2136.6,703.5,2138.3z"/>
</svg>
