<?xml version="1.0" encoding="utf-8"?>
<!-- Generator: Adobe Illustrator 22.0.1, SVG Export Plug-In . SVG Version: 6.00 Build 0)  -->
<svg version="1.1" id="Layer_1" xmlns="http://www.w3.org/2000/svg" xmlns:xlink="http://www.w3.org/1999/xlink" x="0px" y="0px"
	 viewBox="0 0 2217 2217" style="enable-background:new 0 0 2217 2217;" xml:space="preserve">
<style type="text/css">
	.st0{fill:#282828;}
	.st1{fill:#FFFFFF;}
	.st2{fill:#FBC799;}
	.st3{fill:#1A1A1A;}
	.st4{fill:#EDAF78;}
	.st5{fill:#ECAF78;}
	.st6{fill:#111212;}
	.st7{fill:#A3AEAE;}
	.st8{fill:#A0ABAB;}
	.st9{fill:#CDB580;}
	.st10{fill:#FF2F2F;}
	.st11{fill:#FF3030;}
	.st12{fill:#4F4839;}
	.st13{fill:#EFEFEF;}
	.st14{fill:#BF1C1C;}
	.st15{fill:#121212;}
	.st16{fill:#2B2B2B;}
	.st17{fill:#030303;}
	.st18{fill:#2A2B2B;}
	.st19{fill:#070707;}
	.st20{fill:#EEEEEE;}
	.st21{fill:#FE3030;}
	.st22{fill:#4E4738;}
	.st23{fill:#191919;}
	.st24{fill:#EAEAEA;}
	.st25{fill:#090606;}
	.st26{fill:#D0D2D2;}
	.st27{fill:#E7BD90;}
	.st28{fill:#242525;}
	.st29{fill:#A7A5A5;}
	.st30{fill:#490D0D;}
	.st31{fill:#A28359;}
	.st32{fill:#757D7D;}
	.st33{fill:#ADB5B5;}
	.st34{fill:#6B7A7A;}
	.st35{fill:#2A221A;}
	.st36{fill:#2F281F;}
	.st37{fill:#29211A;}
	.st38{fill:#D2D7D7;}
	.st39{fill:#2A2A2A;}
	.st40{fill:#292929;}
	.st41{fill:#9C7A46;}
	.st42{fill:#010201;}
	.st43{fill:#9E7D49;}
	.st44{fill:#7B1717;}
	.st45{fill:#121717;}
	.st46{fill:#E4E4E4;}
</style>
<g>
	<path class="st0" d="M420,2220c-139.3,0-278.6,0-418,0C2,1480.8,2,741.6,2,2.2c739.1,0,1478.2,0,2217.7,0
		c0,739.2,0,1478.5,0,2217.8c-182.4,0-365,0-547.7,0c-3-4.4-0.3-8.4,1.1-12.3c12.5-35,17.7-71.1,16.1-108c-1.5-34.6-5-69-11.2-103.1
		c-7.3-40.3-14.9-80.6-23.6-120.6c-5-23.1-11.7-45.8-17.1-68.9c-2.4-10.4-2.1-19.8,3.6-28.8c19.8-31.4,28.7-66.3,33.6-102.7
		c2.4-17.4-3.1-33.7-4.3-50.5c-1.1-16.2-3.9-32.3-5.1-48.6c-0.8-11.6,4-19.5,12.6-26.6c13.1-10.8,25.6-22.3,37.8-34.1
		c44.7-43.5,81.2-93.2,114.4-145.8c33-52.3,53.4-108.6,62.2-169.4c1.6-11.3,1.7-22.6,0.2-33.8c-1.9-15.1,6.7-26.4,21.5-27.3
		c22.9-1.5,45.9-0.7,68.6-4.1c49.5-7.3,96.8-21.7,135-55.2c21.2-18.5,31.4-44,26.9-73.8c-4.3-28.2-19.7-50.5-35.8-72.7
		c-11.7-16.2-28-27.5-43.1-40c-38.1-31.3-74.3-64.8-111.6-97c-27-23.3-54.3-46.1-80.9-69.9c-11.5-10.2-25.5-17-37.7-26.3
		c-22.7-17.4-25.1-24.4-16.4-51.8c17-53.6,23.3-108.6,20.2-164.7c-0.7-12.5-5.4-24-10-35.4c-2.9-7.1-6.1-14.1-8.9-21.2
		c-3.3-12.1-9.1-22.9-16.3-33.1c-20.2-34.2-41.6-67.8-71.3-94.6c-26-23.4-53.5-45-81.5-66c-27.7-20.8-54.6-42.8-84.6-60.4
		c-42.4-24.8-87.7-43.4-132.7-62.7c-69.9-30.1-143.7-44.2-218.5-54.1c-44.2-5.9-88.9-6.6-133.2-10.6
		c-63.2-5.7-113.4,20.9-160.9,56.1c-41.6,30.8-67.4,74-88.1,120.5c-12.6,28.4-22.1,57.8-29.2,88.1c-5.7,24.2-6.3,23.9-31.2,19.8
		c-41.1-6.8-81.7-16.3-123.1-21c-52.2-5.9-104.4-14.4-157.1-10.5c-57.2,4.2-114.2,10.8-167,35.9c-19,9.1-37.2,19.6-49.3,37.9
		c-21.2,32-19.4,65.2-5.2,99.1c5.4,12.9,12,25.2,19.4,37.1c2.6,4.1,6.1,6.9,9.8,9.7c7.1,5.6,7.9,11,1.7,17.8
		c-5.1,5.5-9.4,11.1-10.4,18.8c-0.4,3-2.3,5.5-4.2,7.8c-27.7,33.6-49.9,70.7-70.5,108.9c-0.8,1.5-1.7,2.9-2.7,4.2
		c-6.6,8.6-11.5,18.2-14.3,28.7c-11.5,28.1-22.7,56.2-26.1,86.8c-2.1,19.3-2,38.7-0.6,57.9c3.9,55.8,16.7,109.9,31.9,163.5
		c8.2,28.9,17.2,57.5,31.5,84.1c17.6,32.7,38.4,63.2,62.8,91.1c45.6,52.2,90.6,104.8,133,159.7c20.6,26.7,31.2,57.3,35.7,90
		c2.8,20.6-4.3,40.4-13,58.8c-9.6,20.2-22.2,38.8-36.3,56.1c-10.2,12.6-24.3,21.7-34.1,34.9c-6,8.1-8.4,16.2-5.9,26.1
		c6.1,23.7,21.8,34.5,48.4,31.5c48.6-5.6,94.5-20.5,135.9-46.3c27.7-17.3,51.3-40.2,72.9-64.9c4.4-5,9.1-9.8,13.4-14.8
		c1.5-1.7,3.2-4,5.7-3.3c3.3,0.8,3,4,3.4,6.5c2,14.9,4.7,29.7,9.8,43.8c8.6,23.9,22.6,44.5,39.8,62.9c8.6,9.2,8.5,11.1-1,19
		c-51,42.3-100.4,86.4-148.2,132.3c-37.8,36.3-66.8,78.3-87.9,126.3c-14.1,32.1-27.6,64.3-37.6,97.9c-6.4,21.5-8.8,43.8-10.6,65.9
		c-3.4,41.5-2,83.2-2.5,124.8C420.3,2203.8,425.5,2212,420,2220z"/>
	<path d="M1272,2220c-11.3,0-22.7,0-34,0c-15.3-3.2-30.6-6.2-45.6-10.4c-44-13.7-88.2-26.8-134.2-31.1c-37.1-3.5-74.1-8.3-111.4-9.7
		c-19.6-0.7-39-5.1-58.6-6.3c-46.8-2.9-93.6-7.2-140.7-5.4c-10,0.4-17,4.5-21.6,13.5c-3.6,6.9-6,14.1-6.9,21.8
		c-1.2,9.3,2.5,13.6,11.9,14.6c3,0.3,6,0.2,9,0.2c21,0,42,0.4,63-0.1c49.7-1.2,99.2,2.3,148.9,2.5c23.6,0.1,47.1,3.8,70.6,5.9
		c3.1,0.3,7,0,7.5,4.7c-122,0-244,0-366,0c-3.6-2.8-5.4-6.6-6.9-10.7c-10.9-31.3-15.6-63.8-19.8-96.5c-0.6-4.9-0.6-9.9-1.5-14.9
		c-8.8-47.2-2.3-93.2,11.9-138.4c6.7-11.5,11.1-24.2,18.3-35.5c2-3.1,3-6.7,3.6-10.3c6.5-34.3,21.4-65,39.8-94.3
		c23.9-38.2,54.2-71,89.7-98.4c24.2-18.7,49.5-37.2,80.9-41.5c13.8-1.9,20.9-8.7,26.9-19.9c8.3-15.5,17.1-30.9,26.3-46
		c3.9-6.4,2-9.5-3.7-13.7c-25.2-18.2-50.2-14.6-74.7,0.3c-36.7,22.4-71.3,47.7-105,74.5c-49.3,39.3-96.3,81.1-140.1,126.4
		c-31.6,32.7-60.7,67.3-82.6,107.4c-16.2,29.7-25.5,62.2-36,94.2c-10.6,31.9-12.3,65.3-16.5,98.3c-3.9,30.5-1.1,61.2-1.9,91.9
		c-0.1,4.4,0.7,8.6,1.3,12.9c0.7,4.9,1.8,10-1.9,14.4c-9.3,0-18.7,0-28,0c-1.4-1.5-2.4-3.3-2.3-5.4c0.6-19.6-4.6-39-0.9-58.7
		c2-10.8,0.9-22,0.5-32.9c-0.7-23.5,2.2-46.4,7.3-69.3c11.4-50.9,25.5-100.8,48-147.9c15.3-32.1,36.3-60.5,58.9-87.7
		c39.8-47.7,85.3-89.7,132.5-129.9c17.8-15.1,36-29.6,54.4-44c5.9-4.6,6-7.4-0.1-11.8c-42.1-30-62.7-72.3-68.2-122.6
		c-1.9-16.9-1.7-34-0.2-50.9c2.4-28.2,5.1-56.4,11.9-83.9c5.8-23.4,13.4-46,27.6-65.8c6.1-4.3,8.7-11.7,14-16.7
		c6.8-6.4,8.3-6.4,13.8,1c1.8,2.4,3.8,6.4,6.6,2.6c5.9-7.8,10.1-2.2,14.9,0.8c15.2,13.3,28.9,28,46.8,38.5
		c23.6,13.7,48.9,17,74.1,12.9c35.4-5.9,62.9-25.4,80.5-57.9c14.8-27.3,22.5-56,21.6-87c-0.2-7,1.3-13.9,2.1-20.8
		c2.2-17.8,4.7-35.5-0.3-53.3c0.7-4.5-2.6-10.6,1.5-13.1c5.1-3.2,9.7,2.1,14.3,4.6c1.5,0.8,2.7,1.9,4.3,2.5c1.5,0.6,3.3,1.3,4.3-0.7
		c0.7-1.3,0.1-2.6-0.7-3.7c-0.8-1.1-1.8-1.9-2.9-2.7c-16.1-10.5-33.2-19.4-49.3-30.9c-0.7,4.8,5.1,7,2.8,10.5
		c-2.5,3.8-7.2,2.6-11.1,2.8c-4,0.2-8,0.2-12,0.5c-32.5,0.6-65.1-0.8-97.5,2.2c-12.9,1.2-25.8,2.6-38.7,1.9
		c-12.1-1.5-23.8,1.3-35.7,2.5c-2.3,0.2-4.6,1-6.9,0.9c-4.1-0.3-9.7,1-10.2-5.1c-0.5-5.8,4.7-5.6,8.5-5.9c4.4-0.4,7.6-2.6,10.3-5.5
		c6-6.6,3.6-13.9-5.1-15.9c-12.8-2.9-13.9-2-14.7,11.5c-0.6,10.3-11.9,18.5-21.8,15.9c-5.2-1.4-5.4-5.6-4.9-9.6
		c0.8-5.9,1.1-11.9,1.9-17.8c0.8-6.5-1.8-9.1-7.7-10.3c-5.9-1.2-11.7-2.7-17.1-5.3c-6.3-3-9.9-0.5-12.7,5.2
		c-7.4,15-13,30.6-17.9,46.5c-11.8,38.5-13.6,78.1-11,117.6c1.8,26.4,5.2,52.9,8.2,79.2c4.6,39.5,9.2,79.3,1.5,119.2
		c-5.7,29.5-19,55.3-36.3,79.2c-27.6,37.8-62.3,67.4-105.1,86.8c-29,13.1-59.1,22.3-91.1,24.6c-6,0.4-11.7,2.5-17.8,1.6
		c-6.4-0.9-11.6-3.6-13.6-10.1c-2-6.4,1.4-10.7,6-14.7c26.1-23.1,48.7-49.3,65.8-79.8c11-19.5,18.7-40.6,20.3-63.2
		c1.5-20.4-6-39.2-12.8-58c-16.8-46.4-44.5-86.2-76-123.5c-11.3-13.5-22.1-27.5-35.7-38.8c-21.4-20.1-39.6-43.2-57.7-66.2
		c-61.8-78.5-96.8-168.1-108.9-266.8c-9.4-76.8,3.3-149.7,37.8-219.2c24.9-50.2,56.6-94.8,98-132.6c8.6-7.9,8.3-8-0.3-15.7
		c-20.7-18.5-36.6-40.6-48.1-65.7c-15.4-33.8-4-71.5,26.5-92.6c33.8-23.5,72.6-32.6,112.1-39.8c21.7-4,43.9-6.4,65.5-5.6
		c29.6,1.2,59.2,0.5,88.8,2.5c29.9,2.1,59.6,5.3,89.4,8.1c34.9,3.3,69.3,9.3,103.8,15.2c9.5,1.6,19.3,1.4,28.6,4.3
		c5.7,1.8,8.8-1.2,10.1-6.6c6.1-24.3,15.1-47.6,22.3-71.4c16.4-53.8,46.1-98.8,86.1-137.3c34.2-33,73.1-57.6,122-62.4
		c5.3-0.5,10.6-1.1,15.9-1.1c23.3,0,46.7,0.6,70-0.1c34.2-1.2,67.8,3.3,101.3,9.2c76,13.4,150.2,33.5,222.2,61.3
		c78,30.1,147.2,74.5,209.8,129.5c24,21.1,48.3,41.9,68.6,66.8c15.5,19.1,32,37.5,45,58.6c2.1,3.4,4.1,6.9,5.1,10.8
		c7,17.2,14.6,34.2,18,52.8c6.8,37.9,4.9,75.4-3.2,112.9c-4.8,22.5-9.5,44.9-19.6,65.8c-2.7,5.7-5.9,10-11.6,12.9
		c-8.7,4.4-16.7,9.9-18,21c-0.4,3.1-2.5,5.4-4.7,7.5c-6,5.6-4.2,10.3,1.3,15c8.6,7.4,18,13.7,26.7,20.9c2.7,2.3,9.9,5.9,0.6,9.7
		c-6.4,0.1-11.4-3.4-16.1-7.1c-5.3-4.2-8.6-3.1-11.8,2.6c-14.4,25.9-30.3,51-45.1,76.6c-13.3,23-30.3,38.4-57.7,44.7
		c-45.9,10.6-91.4,12.8-137.7,5c-80.9-13.6-160.7-31.8-239.4-55.3c-40.6-12.1-81.3-23.4-120.8-38.8c-22.6-8.9-44.8-19-66.7-29.5
		c-40.9-19.6-81.5-39.7-121.2-61.6c-37.9-21-74.3-44.8-106-74.6c-13.3-12.5-24.7-27.1-35-42.3c-5.4-7.9-6.9-17.4-8.5-26.5
		c-5.9-33.3-6.6-66.9-3.4-100.5c0.7-7,0-14,1.4-20.9c1.2-5.7-1.5-8.6-6.9-10.1c-40.5-11.4-81.6-18.9-123.5-23.1
		c-25.2-2.5-50.2-6-75.4-8.9c-5.3-0.6-10.6-1.1-15.9-1.1c-40,0-80-0.7-120,0.2c-33,0.8-65.7,5.1-97,17c-18,6.9-32.7,17.7-43.7,33.5
		c-7.3,10.5-8.8,21.9-5.5,34.3c5.8,21.7,20.7,37.6,36.6,51.5c43.4,38,90.4,71.4,140.8,99.9c13.9,7.9,27.5,16.3,40.9,25.1
		c38.6,25.5,81.3,43,123.1,61.9c69.2,31.3,138.4,62.7,209.3,89.9c59.5,22.8,117.3,49.3,176.5,72.7c36.9,14.6,74.3,27.7,112.2,39.5
		c18.4,5.8,36.1,13.8,54.2,20.6c37.3,13.8,75.6,23.8,113.8,34.5c22.8,6.4,44.4,16.3,67.3,22.4c68.3,17.9,134.9,41.9,204,57.2
		c28,6.2,56.3,10.7,84.6,15.1c30.3,4.8,60.2,11.5,90.2,17.4c33.1,6.5,66.7,8.3,100,12.3c30.5,3.6,60.9,7.1,91.6,5.3
		c30.2-1.7,60.6-3.8,88.4-18c4.2-2.1,8.2-4.5,11.9-7.3c19.2-14.2,24.1-36.3,11.5-56.8c-10.4-17.1-21.7-33.5-36.3-47.5
		c-24.3-23.2-46.6-48.6-73.9-68.6c-1.6-1.2-2.9-2.7-4.1-4.4c-0.6-0.8-1.1-1.7-1.4-2.7c-0.2-0.5-0.3-0.9-0.5-1.4
		c0.1-5.2-3.2-8.4-6.6-11.7c-21.5-21.6-42.7-43.5-67.2-62c-2.9-2.2-7.1-4.3-4.9-9.4c7.1-1.4,10.7,6.6,17.4,6.5
		c22.6,11.8,42.1,28.1,62,43.7c51.7,40.3,97.5,86.7,140.4,136.1c21.1,24.3,22.1,67.8,2.6,93.4c-5.4,7-12.8,11.5-20.5,15.7
		c-32.5,17.8-68.4,24.1-104.3,29.7c-30.8,4.8-61.8,2.4-92.6-0.9c-3.3-0.4-6.6-0.8-9.9-0.9c-6.5-0.2-8.9,2.6-7.8,9.2
		c11.2,70.8-6,137-33.5,201.3c-21,49-47.6,94.8-82.5,135.2c-31,35.8-64.6,69-105.1,94.5c-13.4,8.5-13.1,8.7-8.5,23.9
		c5.4,17.9,7.8,36.5,10,55c2.6,22.8,4.4,45.8,1.6,68.8c-4.2,33.5-17.3,63.5-37.3,90.5c-5.1,6.9-5.8,12.9-3.3,21.1
		c20.3,65.3,36.8,131.5,47.8,199.1c8.7,53.6,5,106.7-2.5,160c-2.2,15.5-5.1,30.9-9.4,46c-1.1,3.9-1.9,7.8-4.9,10.7c-10,0-20,0-30,0
		c-3-3.8-1.4-7.7-0.1-11.4c11.4-30.7,12.5-63.2,17.2-95.1c2.2-14.8,2-29.9,3.6-44.8c1.9-17-0.1-34.1-2.9-50.7
		c-10.3-61.1-23-121.7-41.6-181c-5.7-18.3-4.9-22.9-22-7c-24.7,23-55.1,37.2-86,49.8c-8.1,3.3-10.7,6.9-8.8,15.6
		c2.5,11.7,3.7,23.7,3.4,35.7c-0.5,19,2.9,37.8,2,56.8c-1.7,35.3-3.7,70.5-14.5,104.5c-10.2,29.2-24.3,56.7-40.7,82.8
		c-10.9,17.4-24.5,32.9-41.7,44.7c-10,0-20,0-30,0c-1.1-4.9,2.6-7.4,5.6-9.7c19.8-15.1,32.7-35.7,46.2-55.9
		c21.6-32.4,33.9-68.5,41.8-106.1c4.3-20.5,6.4-41.1,4.5-62.3c-1.8-19.5-1.2-39.2-3.7-59.6c-7.3,7.1-12.1,15.3-17.4,23
		c-35,51.5-69.8,103.1-100.7,157.2c-17.3,30.3-31.9,62.2-47.3,93.5C1273.8,2206.5,1274.7,2213.6,1272,2220z"/>
	<path class="st1" d="M1782.3,413.3c-4.5-11.6-12.2-21.4-20-30.8c-15.4-18.8-29.7-38.4-46.9-55.7
		c-61.5-61.9-129.5-115.1-207.9-153.8c-50-24.6-102.8-42.1-156.4-57.3c-39.4-11.2-79.3-20-119.6-26.9c-34.1-5.8-68.5-9.9-103.2-9
		c-25,0.7-50-1.2-74.9,1c-28.1,2.6-54.8,10.6-79.8,23.9c-5.6,3-10.8,6.5-14.6,11.9c-3,4.1-7,7.1-11.3,9.8
		c-6.2,3.9-12.1,8.3-17.4,13.4c-29.9,28.5-55.6,60.1-73.2,97.9c-3.7,7.9-7.3,15.7-9.7,24.1c-6.4,22.4-17.1,43.4-22.4,66.1
		c-2.1,8.7-4.5,17.4-6.9,26.1c-1.8,6.5-2.6,6.8-9.1,5.7c-34.8-5.6-69.5-11.9-104.5-16.5c-42.9-5.6-86-10-129.3-12.4
		c-23.3-1.3-46.6-0.6-69.9-1.7c-17.9-0.9-35.8,1.6-53.7,3.2c-21.9,2-43.4,5.8-64.6,11.4c-16.5,4.4-32.3,10.7-47.7,17.8
		c-10.5,4.8-20.4,11.4-29,19.3c-23.7,21.6-29.8,57.3-14.5,87.1c12.8,24.8,29.2,46.9,51.1,64.6c1.3,1,2.6,2.1,3.8,3.2
		c1.6,1.3,1.6,2.8,0.2,4.3c-0.9,1-2,1.7-3,2.6c-49.2,41.4-84.4,93-110,151.5c-13.3,30.6-24.9,61.7-29.9,95
		c-4,26.8-5.1,53.8-3.5,80.7c4,66.2,20.3,129.5,47.5,189.9c20.4,45.3,48.1,86,80,123.9c12.8,15.3,25.3,30.9,39.5,44.9
		c39.3,41.6,76,85.2,100.8,137.4c11.6,24.6,22.8,49.6,23.8,77.5c1,29.7-10.7,55.8-25.9,80.4c-16.5,26.7-36.5,50.6-60.8,70.7
		c-4.7,3.9-7.7,8.5-5.3,14.8c2.3,6.2,7.3,8.1,13.5,7.9c31.9-0.9,62.5-7.8,92.2-19.3c39.1-15.2,73.1-38.1,100.9-69.4
		c24-27,44.2-56.5,53.2-92.3c5-20.1,5.8-40.5,5.7-61.2c-0.1-21.7-2.2-43.2-4.6-64.6c-2.2-20.1-4.7-40.2-6.6-60.3
		c-6.2-63.4-2.7-125.4,25.5-184c5.7-11.8,5.8-11.9,18.8-7.3c3.4,1.2,6.9,2.3,10.5,3.2c13.2,3.4,13.2,3.5,11.6,16.6
		c-0.2,1.3-0.3,2.6-0.4,4c-1.8,18.2-1.8,18.2-20.1,20.6c-2.7,0.3-5.2,1.1-7.8,1.8c-6.9,2.1-16.3,3-16.2,12.1c0.1,8.9,1,19.1,12,23.1
		c4.7,1.7,5.9,5.7,6.8,10.2c2.3,12.4,3.1,25,5.3,37.5c5.3,30.4,16.9,58.8,25.9,88.1c2.4,7.7,2.9,13.9-4.1,19.7
		c-4.6,3.8-6.2,10.1-10.4,14.4c-9.8,14.4-16.6,30.3-21.6,46.9c-14.4,47.7-19.5,96.6-17.4,146.2c1.7,40.2,15.9,76,42.8,106.4
		c8.5,9.6,19.2,16.4,29.1,24.1c1.6,1.2,3.2,2.3,4.9,3.6c-1.1,4.2-4.8,5.6-7.6,7.7c-54.9,43-107.7,88.3-155.9,138.8
		c-16.1,16.9-31.1,34.8-45.8,52.9c-40.2,49.3-63.7,106.6-80.4,167.2c-5,18.3-9.2,36.8-13.5,55.3c-5.1,21.9-6,44.2-6.9,66.4
		c-0.8,18.3-1,36.7-1,54.9c0,13.2,0,26.6,1.8,39.8c-8,0-16,0-24,0c-0.4-10.6-0.9-21.3-1.6-31.9c-2.5-40.4,0.6-80.6,1.9-120.9
		c0.2-6.6,1.7-13.1,2.3-19.7c4.8-46.4,23.3-88.6,41.1-130.9c7.8-18.4,17.4-36,26.8-53.6c17.3-32.5,41.3-59.5,67.4-85
		c37-36.1,75.7-70.3,114.6-104.3c10-8.7,21.1-16.1,30.8-25.4c3.3-3.2,6.8-6.2,10.6-9.7c-17.1-16.5-31.1-34.5-41.3-55.3
		c-10.1-20.8-15.6-42.7-16.8-67.4c-5.3,6-9.6,10.8-13.9,15.8c-20.8,24-44.5,45-69.3,64.7c-12.9,10.2-27.5,17.6-42.8,23.5
		c-16.2,6.2-33.2,10.4-49,17.1c-20.6,8.8-42.2,8.5-63.3,12.7c-3.7,0.7-7.5,0.7-10.8-0.8c-18.5-8.5-30.9-21.3-31.8-42.2
		c-0.3-7.2,1.6-13.8,6.6-19.3c8.9-9.9,17.4-20.2,28.1-28.3c3.5-2.6,6.2-5.9,8.9-9.4c12.7-16.8,24.2-34.4,33.8-53
		c8-15.5,11.5-32.6,14.3-49.7c1.2-7.6-1.8-15.2-3.4-22.6c-6.7-30.7-18.8-58.7-39.4-83.1c-19.3-22.8-36.9-47.1-55.9-70.2
		c-13.1-15.9-27.4-30.7-41-46.3c-12.8-14.8-26-29.3-37.7-45c-8.3-11.2-17.6-21.7-25.4-33.3c-19.5-29.1-37.4-58.9-48.5-92.5
		c-21.7-65.4-38-131.8-44.5-200.6c-5-52.5,4.1-102.2,27.1-149.5c4.3-9.5,9.1-18.9,13.9-28.2c21.2-40.2,44.6-78.9,73.2-114.3
		c4.6-5.7,7.5-11.8,10.8-18.3c1.2-2.4,2.5-4.7,3.8-6.9c1.2-2,3-3.9,3.8-6c1.6-3.8,0.2-7.6-3.8-9.2c-9-3.5-11.5-11.4-15.8-18.2
		c-10.3-16.1-18.5-33.3-23.1-51.8c-10.1-40.1,3.1-84.2,41.3-106.7c29-17.1,60.1-28.4,93-35.1c49.5-10,99.4-16.4,149.9-12.9
		c27.1,1.8,54.4,3.2,81.4,8.2c14.5,2.7,29.7,2.8,44.5,5.3c28.3,4.6,56.5,9.5,84.6,15.3c11,2.3,22.3,3.1,33.4,5.4
		c5.1,1,6.5-1.2,7.8-5c2.7-7.8,4.8-15.8,6.7-23.9c8.7-36.8,22.1-71.9,39.4-105.4c15.5-30.1,34.2-57.9,59.1-81.2
		c33.4-31.4,72.4-53,115.8-66.9c12.8-4.1,26-5.7,39.4-5.5c92.9,1.5,184.9,11.2,275.6,31.8c42.4,9.6,82.7,25.6,122.6,42.4
		c14.4,6.1,28.7,12.6,43.1,18.8c44.5,19.4,86.1,43.6,124.6,73.3c30.6,23.6,61.1,47.3,91.4,71.4c39.1,31.1,67.7,70.4,91.8,113.4
		c5.5,10.6,10.9,21.3,15.9,32.2c4.8,11.4,9.7,22.6,14.4,34.1c2.9,7.1,4.7,14.6,5.1,22.3c1,22.3,2.1,44.7,0.3,66.9
		c-1.9,24.3-7.6,48-12.4,71.8c-2.1,10.5-5.4,20.6-8.5,30.8c-2.4,8.2-3.3,16.9-4.7,25.3c-0.5,3.1,2.2,4.7,4,6.5
		c9.5,9.5,19.8,17.8,31.2,24.9c13.4,8.3,25.3,18.4,37.3,28.5c64.5,54.4,126.3,111.8,191.6,165.1c21.8,17.8,38.8,39.2,52.8,63.3
		c10.4,18.1,14.5,37.8,15.6,58.3c0.3,5.4-0.8,10.6-2.8,15.6c-4.7,11.8-10.6,23-17.3,33.8c-2.3,3.7-5.5,6.6-8.9,9.4
		c-28.5,23.7-61.7,37.8-97.1,47.3c-24.1,6.5-48.6,10.1-73.7,10.7c-12.9,0.3-25.9-0.5-38.8,1.2c-3.9,0.5-6,1.6-8.9,4.6
		c-6.7,6.9-7.2,14.4-6,23c2.2,16.1,0,31.9-3.1,47.7c-7.5,37.7-16.4,75-34.6,109.2c-18,33.8-37.9,66.7-60.1,97.9
		c-12,16.8-25.7,32.3-38.4,48.6c-14.1,18-29.7,34.2-46.4,49.5c-11.5,10.6-22.1,22.2-35,31.2c-9.1,6.4-11.1,14.9-9.8,25.3
		c2.4,19.2,4.4,38.4,6.5,57.6c0.1,1,0.1,2,0.2,3c7.9,45.4-4.3,87-24.2,127.1c-3,6-6.1,11.9-9.6,17.5c-3.5,5.5-3.7,11-2.2,17.1
		c5.9,24.6,12.7,49,18.4,73.6c7.4,32.1,12.9,64.6,19.1,97c5,26.5,9.8,53.1,12.4,80c3.2,33.2,4.7,66.5,1.4,99.8
		c-1.1,11-3.9,21.6-7,32.2c-3.5,12.2-7.2,24.3-10.9,36.4c-10.7,0-21.3,0-32,0c2-13.2,6.4-25.8,8.8-38.8
		c9.1-48.1,11.8-96.6,9.7-145.3c-0.9-21.3-6-42.2-9.8-63.1c-9.7-53.5-23.9-105.9-38.8-158.1c-1.6-5.4-3-11-5.6-16
		c-2.5-4.8-1-7.8,1.7-11.6c10.5-15,21.2-29.8,28.1-47c10.2-25.1,15.2-51,14-78.1c-1.2-27.3-4.1-54.5-9.7-81.3
		c-1.7-7.8-4-15.5-7.2-22.8c-1.8-4-0.8-6,2.6-8.1c7.6-4.7,15.1-9.7,22.7-14.6c14-9.2,27.1-19.3,38.9-31.2c9.8-10,20.2-19.4,30.3-29
		c23.9-22.6,43.1-49.1,60.9-76.5c24.9-38.4,45.1-79.3,59.8-122.7c9.5-28.1,17.5-56.7,20.6-86.2c2-18.4,1.8-37.2-0.2-55.8
		c-1.1-10.5-1.5-21-3.9-32.2c7.7,0.5,14.3,0.5,20.8,1.4c26.2,3.8,52.6,2.2,78.9,2.3c15.6,0.1,30.8-4.5,46.2-7
		c23.2-3.7,45.2-11,66.3-21c32.8-15.5,46.9-48.6,35.5-83.1c-3.9-11.9-9.8-22.2-18.2-31.7c-32.7-36.6-66.9-71.6-103.8-103.9
		c-28.4-24.8-58.4-47.6-89.9-68.3c-0.5-0.3-1.3-0.4-1.9-0.6c-18.4-10.1-35.1-22.7-52.2-34.6c-17.2-12-35.2-22.8-52.5-34.6
		c-9.1-6.8-18.4-13.2-27.4-20.1c-5.6-4.3-6.9-9-4.2-15.7c6.3-15.4,13.8-30.2,20.5-45.4c11.6-26.4,16.8-54.4,21.5-82.6
		c5.2-31.4,4.6-62.9-1.6-94.1C1797.3,445.1,1790.4,429,1782.3,413.3z"/>
	<path class="st2" d="M472,2220c-0.6-13.6-1-27.2-1.8-40.8c-1.6-25.7,0.4-51.2,1.9-76.8c1.3-23.9,4.2-47.7,8.8-71.1
		c6.2-31.7,17.8-61.9,29.4-92c13.9-36.2,35.6-67.5,59.5-97.5c25.6-32.1,54.8-60.8,84.5-88.9c35.2-33.3,73.1-63.7,110.9-93.9
		c16.1-12.9,33.2-24.4,50.1-36.2c11.2-7.8,22.8-14.9,34.1-22.6c12.8-8.7,26.9-12.9,41.8-15c9-1.3,17.8-0.4,25.8,5.1
		c5.7,3.9,12.3,6.6,18.3,10.1c6.1,3.6,6.2,4.3,2.8,10c-12.4,21.3-24.9,42.5-37.1,63.9c-2.6,4.6-5.4,6.4-10.9,6.4
		c-15.2,0-29.6,4.6-42.8,12c-21,11.7-41.4,24.3-59.4,40.2c-22.6,20.1-43.8,41.6-61.5,66.3c-18.5,25.8-34,53.2-45.3,82.9
		c-4.2,10.9-6.9,22.2-9.1,33.6c-0.4,2.3-0.4,4.7-1.7,6.7c-7.7,11.3-11.6,24.7-19.5,35.8c-8.4,16.3-11.6,34.4-17.3,51.6
		c-17.8,53.5-18.4,108.6-14.8,164.1c0.8,12,1.5,23.9,3.7,35.7c0.7,3.7,0.5,7.3-2.2,10.4C570.7,2220,521.3,2220,472,2220z"/>
	<path class="st2" d="M1457.9,2093.8c7.7-27,11.2-54.8,13-82.7c1-16.3,1.4-32.6,0.6-48.9c-0.9-18.6-2.2-37.2-3.1-55.9
		c-0.3-5.4-1.4-10.6-2.6-15.8c-1.7-7.5-1.5-8.5,5.7-11c12.8-4.6,25.2-10.2,37.4-16.3c21.1-10.7,41.3-22.9,58.5-39.5
		c3.8-3.6,7.4-7.6,12.6-9.7c3.8,3.8,5,8.7,6.4,13.4c16.7,55.2,31.2,110.8,40,167.9c2,12.8,5.3,25.3,6.3,38.3
		c2.6,33.1-0.8,65.9-5,98.6c-2.8,22.5-5.1,45-11.4,66.9c-2,7-6.1,13.3-6.1,20.9c-65.3,0-130.7,0-196,0c-2.7-3.9-0.1-7,1.6-10
		C1436.5,2173.7,1448.4,2134.2,1457.9,2093.8z"/>
	<path class="st3" d="M1030,2220c-1.1-0.6-2.3-1.9-3.4-1.8c-11,0.9-21.9-1.5-32.7-2.6c-11.5-1.1-23.2-0.4-34.5-3.3
		c-2.5-0.6-5.3-0.3-8-0.3c-18.7,0-37.4,1-55.9-0.3c-55.2-3.7-110.4-0.7-165.6-1.8c-11.1-0.2-15.5-6-14-17.3
		c1.3-9.7,4.7-18.4,9.2-26.9c4-7.7,10.2-11.6,18.3-11.6c26-0.3,52.1-1.5,77.9,0.5c19.5,1.5,39,2.2,58.4,3.9
		c19.3,1.6,38.9,2.6,58,7.1c2.5,0.6,5.3,0.5,7.9,0.5c16-0.4,31.7,1.9,47.5,3.5c10.8,1.1,21.8,1.8,32.6,3c16.4,1.7,32.9,2.4,49.3,5
		c39,6.4,77,16.6,114.7,28.2c1.6,0.5,3.2,0.8,4.3,2.3c3.1,4,3.1,8,0,12C1139.3,2220,1084.7,2220,1030,2220z"/>
	<path class="st1" d="M1272,2220c-2.9-11.5,2.5-21.2,7.2-30.8c25-51.5,51.5-102.1,83.1-150c24.2-36.6,47.7-73.7,73.4-109.4
		c2.1-2.9,3.7-6.3,7-8.3c2.5,0.8,2.2,3.1,2.4,4.8c2.9,32.5,5.3,65,3.3,97.6c-0.7,11-3.2,21.7-6,32.3c-6.2,23.1-11,46.7-22.3,68.1
		c-0.6,1.2-1,2.5-1.8,3.6c-11.2,16.9-19.7,35.4-32.2,51.5c-8.6,11.1-17.5,21.7-28.3,30.8c-3.5,2.9-7.7,5.4-9.8,9.7
		C1322.7,2220,1297.3,2220,1272,2220z"/>
	<path class="st4" d="M620,2220c0.8-6.1-1.2-11.8-2-17.7c-3.1-23.7-3.9-47.5-4.2-71.4c-0.3-19.3,0.9-38.5,2.7-57.6
		c1.5-16.3,4.5-32.7,9.1-48.7c5.9-20.4,13.6-40.2,20.6-60.2c0.9-2.5,1.5-5.2,4.4-6.2c-6.1,19-10.1,38.4-13.4,58
		c-1.5,8.9,0.2,17.9-1.7,26.6c-4,18,0.6,35.6,2.5,53.2c1.9,18.4,4.6,36.7,7.8,54.9c4.2,23.4,9,46.8,18.2,69
		C649.3,2220,634.7,2220,620,2220z"/>
	<path class="st5" d="M1457.9,2093.8c1.1,8.1-0.8,16-2.9,23.4c-8.4,30.3-18.4,60-33.4,87.9c-2.6,4.9-7.1,8.9-7.6,14.9
		c-12,0-24,0-36,0c2.5-2.7,4.7-5.7,7.4-8.1c24.7-22.4,40.7-50.6,55.6-79.8C1447.4,2119.6,1451.5,2106.2,1457.9,2093.8z"/>
	<path class="st6" d="M1194,2220c0-4,0-8,0-12c14.9,3.1,30.2,5,44,12C1223.3,2220,1208.7,2220,1194,2220z"/>
	<path class="st7" d="M1822.1,425.9c-6.9-9.9-12.2-20.7-15.9-32.2C1813.6,403.5,1818.9,414.2,1822.1,425.9z"/>
	<path class="st8" d="M211.8,675.8c-2.9,10.2-7.6,19.6-13.9,28.2C200.6,693.6,205.1,684.2,211.8,675.8z"/>
	<path class="st9" d="M1962,866c4.4,5.6,10.3,9.4,15.8,13.7c28.3,22,52.3,48.4,76.6,74.5c10.2,11,17.7,24.1,25.2,37.2
		c6.4,11.2,5.8,23.2,4.2,35c-0.9,6.8-6,11.7-11.2,16.1c-17.2,14.7-37.6,22.1-59.6,26.1c-31.3,5.6-62.9,5.2-94.5,4.7
		c-9.6-0.1-19.3-1.2-28.7-2.7c-17.1-2.8-34.4-3.5-51.6-5c-22.5-1.9-44.9-4.7-67-9.4c-47.5-10.1-95.3-18.1-143.1-26.3
		c-45.7-7.8-90.2-20.1-134.3-34.3c-26.9-8.6-54.3-15.7-81.6-23.3c-20.6-5.7-40.8-12.3-60.8-19.7c-26.9-9.9-54.9-16.1-82.3-24.3
		c-35.1-10.6-69.7-22.4-103.7-36.3c-12.9-5.3-26.6-8.7-39.8-13.1c-45.9-15.2-90.8-33-135.1-52.2c-38.8-16.9-77.6-33.8-117.5-47.8
		c-42.2-14.8-81.6-36.3-123.1-52.8c-59.2-23.5-116.4-51.3-173.9-78.5c-20.6-9.8-39.2-22.6-58.6-34.3c-32.8-19.9-66-38.9-97.2-61.2
		c-20.6-14.7-40.2-30.8-60-46.6c-11.3-9-20.6-20-29.6-31.1c-9.9-12.1-16.4-25.8-16.1-42c0.1-8.4,2.6-15.7,7.3-22.4
		c10.7-15,24.6-26.1,41.7-33.2c19.5-8,39.9-12.4,60.8-15.2c50.4-6.7,101.1-4.7,151.6-4c30.5,0.4,60.8,5.1,91.1,9.5
		c15.1,2.2,30.4,3,45.5,5.2c23,3.3,45.8,8,68.5,13.1c8,1.8,15.7,5.1,24,6.3c4.5,0.7,6,3.5,5.2,7.9c-4.7,26.7-4.5,53.7-3.7,80.7
		c0.6,19.2,2.1,38.5,7.3,57.2c1.8,6.5,4.7,12.3,8.7,17.8c25.2,35.4,58.2,62,94.4,85.2c40.4,26,83.3,47.4,126.2,68.8
		c26.2,13.1,52.6,25.8,79.6,37.4c43.2,18.6,87.4,34.1,133,45.7c29.3,7.4,58,17.6,87.4,24.8c56.3,13.7,112.7,26.4,170.1,34.8
		c22.9,3.3,45.8,4.3,68.7,3.4c29.1-1.1,57.3-7.6,84.9-16.9c5.9-2,10.7-5.5,14.3-10.4c14.5-19.6,26.9-40.4,39.2-61.4
		c8.9-15.2,18.4-30.2,26.5-45.8c2-3.8,4.3-4.4,7.9-1.8c5.9,4.3,11.6,9.1,18.8,11.1c7.4,1.8,12.9,7.1,19.4,10.4
		c49.2,30.6,97.5,62.5,142,99.7c5.8,5.4,12.1,10.3,18.2,15.4c2.8,2.4,5.8,4.4,6.8,8.3l0,0C1960.7,864.6,1961.3,865.4,1962,866z"/>
	<path class="st9" d="M1108.9,102.9c26.2-2,51.7,2.9,77.3,6.9c38.5,6,76.3,14.5,113.8,25.4c25.5,7.5,51.8,12.7,76.7,22.3
		c44.4,17.2,90.1,31.1,131.6,55.2c39.5,23,78,47.3,115,74.2c9.7,7,19.4,14.2,29.2,21c21.3,14.7,39.7,32.5,56,52.4
		c13.3,16.2,25.9,32.9,37.6,50.4c14.8,22.1,23,46.2,26.6,72.3c3.8,27.1,2.4,54-0.6,81.1c-2.6,24.2-10.7,46.6-18.3,69.3
		c-5.9,17.6-18.4,25-36.8,26.6c-20.1,1.7-40,1.2-59.8-0.7c-38.9-3.8-78-6.5-116.6-13.9c-40.3-7.7-79.3-19.8-118.3-32.1
		c-61.7-19.4-122.2-41.8-182.1-66.2c-28.7-11.7-56.2-26-83.4-40.8c-39.5-21.4-80.2-40.7-119-63.6c-13.5-8-26.9-16-39.9-24.8
		c-36.9-25-75-48.4-110.1-76.2c-6.3-5-12.1-10.5-18.3-15.5c-5.9-4.8-7.2-10.7-5.8-17.9c3.5-17.7,8.1-35,14.3-51.9
		c11.1-30.3,27-57.9,48.3-82.1c13.7-15.6,28.9-29.5,47.3-39.6c30.1-16.5,62.1-26.7,96.2-30.6C1083,102.6,1096,103.3,1108.9,102.9z"
		/>
	<path class="st10" d="M514.4,690.4c-13.3,17.9-26.7,35.7-36.9,55.6c-14.4,28.1-23.9,57.7-28.8,88.8c-0.5,3.3-0.9,6.7-0.5,9.9
		c1.1,9,9.4,13.6,17.7,9.9c3.6-1.6,6.9-4,10.3-6.1c35-21.9,70.5-42.9,109.3-57.6c3-1.1,5.9-3,9.3-2.6c1.9,2.4,0.4,4.5-0.2,6.7
		c-7.3,26.1-9.6,52.9-10.5,79.9c-0.1,3-0.1,6,1.2,8.8c3.4,7.4,11.2,10.1,18.3,5.9c1.7-1,3.3-2.3,4.6-3.8
		c29.6-31.6,63.4-57.7,101.4-78.4c7.7-5.7,13.3,1,18.7,4.1c26.6,15.2,53.5,29.7,80.9,43.2c3,1.5,5.9,3.1,8.9,4.4
		c3.9,1.7,6.4,4.5,7.6,8.6c2.5,14.4,4.8,28.9,7.4,43.3c0.6,3.6-0.3,5.8-3.8,6.9c-1.9,0.6-3.8,1.2-5.7,1.9
		c-50.4,17.5-94.1,45.3-128.8,86.2c-4.6,5.5-8.7,6.6-15.4,4.5c-25.9-7.9-51.1-17.4-74.7-30.7c-1.1-0.6-2.1-1.7-4.1-0.5
		c0.4,3.6,3,6.2,5,9c14.9,21.4,34,38.2,56,52c6,3.8,6.1,4,3.1,10c-25.3,49.6-34.3,102.5-33,157.7c0.8,35.4,5.1,70.4,9.2,105.4
		c2.4,19.9,3.7,39.8,4.9,59.7c2.9,49.4-13.3,92.3-44.9,129.8c-38.1,45.3-86.3,73.5-144.2,85.4c-1.3,0.3-2.5,0.4-4.4,0.6
		c-0.3-4.7,3.2-6.7,5.3-9.2c14.3-16.8,27.6-34.2,38.5-53.5c11.8-20.8,19.9-42.9,23.1-66.6c3-22.4-2.2-43.7-9.3-64.7
		c-17.1-50.6-45.4-94.7-79.1-135.6c-27.6-33.4-57.4-64.9-84.7-98.5c-30.9-37.9-57.4-78.4-76.4-123.7c-18.4-43.9-31.1-89.3-37-136.5
		c-5.5-44.2-6.6-88.6,5.3-132c19.8-71.8,53.1-136.4,106.7-189.3c3.5-3.5,7.4-6.7,11.1-10c5-2.5,8.4,1.2,11.5,3.8
		c15.2,12.9,30.8,25.3,45.7,38.6c17.3,15.6,37.1,28.1,56.1,41.5c13.1,9.2,26.7,17.5,39.2,27.5C511.2,683.6,515.4,685.3,514.4,690.4z
		"/>
	<path class="st11" d="M1642.2,1512.4c-10.2,8.8-21.7,15.2-34.2,20.2c-6.9,2.7-7.1,2.8-4.8,10.1c6.4,20.7,12.3,41.5,15.7,62.9
		c4,25.7,7.5,51.6,4.1,77.6c-7,54.6-33.9,98.2-76.4,132.4c-31.3,25.2-67.3,41.5-105.6,53c-40.7,12.2-82.4,18.4-124.7,21.4
		c-3.5,0.2-7.2,0.8-11.2-0.6c0.7-3.5,3.8-4.5,6-6.1c22.8-16.8,42.2-36.6,56.4-61.3c11.2-19.4,16.6-40.4,18.9-62.6
		c4.5-44.7-4.6-87.4-17.5-129.7c-8.7-28.7-17.9-57.2-23.7-86.7c-10.1-51.4-6-101.6,13.8-150c16.6-40.6,47.8-65.5,88.9-78.9
		c19.9-6.5,40.2-8.9,61-8.2c0.3,0,0.7,0,1,0c15,0.9,25.6-3.1,33.1-18.7c11.9-25,23.6-49.7,31.4-76.5c7-24,14.7-47.7,19.1-72.3
		c1.7-9.5,3.1-19,4.6-28.5c5.8-4.4,12.1-2.4,18.3-1.3c38,6.8,75.6,15.9,113.4,23.9c9.1,1.9,18.5,2.3,27.5,5
		c13.3,3.9,17.1,9.1,17.6,23c1.9,63-7.5,124.5-29.3,183.3c-20.6,55.6-45.5,109.5-87.2,153.6
		C1653.2,1502.8,1647.3,1507.1,1642.2,1512.4z"/>
	<path class="st3" d="M1192,2184c-17-4.2-33.9-9.3-51.1-12.4c-24.1-4.4-47.7-11.1-72.1-13.7c-15.5-1.7-31-2.6-46.4-4.2
		c-15.4-1.6-31.1-1-46.3-5.2c-3.4-0.9-7.3-0.5-10.9-0.4c-14,0.1-27.7-2.5-41.5-3.5c-18.2-1.3-36.1-5.6-54.4-4.6
		c-13.9,0.7-27.7-1.7-41.5-3.5c-6.2-0.8-12.6-0.4-19-0.4c-13.6-0.1-27.2,0-40.4,0c-2.6-3.7-0.6-6.7,0.2-9.2
		c4.6-14.6,8.5-29.3,12.3-44.1c1.3-4.9,3.7-6.9,9.1-6.8c5.7,0.1,11,2.5,16.7,2.3c4.7-0.1,8.3-1.5,11.4-5c4.8-5.3,5.3-9.4,1-15
		c-3-3.9-7.1-5.7-12-6.2c-25.5-2.6-49.6-9.6-70.9-24.1c-25.3-17.3-39.1-41.4-42.2-72.2c-2.9-29.4,5-56.2,16.6-82.6
		c12.4-28.2,29.6-53.3,48.6-77.3c8.4-10.7,15.6-22.2,25.7-31.6c18.2-17,36.7-33.6,59-45.4c4.1-2.2,7-2.5,10.9-0.5
		c18.1,9.1,33.4,21.4,45.4,37.8c19.3,26.4,34,55.5,48.4,84.8c2.3,4.8,4.9,9.4,8.4,13.5c5.3,6.1,7.3,7.3,15.3,4.7
		c15.1-5,30.2-10.2,45.2-15.7c29-10.7,58-21.2,87.2-31.1c15.4-5.2,30.6-10.9,46.2-15.6c13.6-4.1,27.4-4.8,41.4-4.6
		c3.6,0.1,6.2,1.7,8.8,3.9c18.8,16.4,33,36.4,45.7,57.6c3.8,6.3,7.4,12.6,10.6,19.2c5.7,11.5,6.5,9.3-4.6,15.1
		c-1.5,0.8-3,1.4-4.5,2.2c-7,4.1-9.4,8.8-8,15.5c1.3,6,5.3,9.3,13,10.3c3.3,0.4,6.7,0.5,10,0.2c5.7-0.5,9.1,2.2,10.2,7.3
		c3.4,14.9,10.3,28.7,13.4,43.7c1.6,7.5,5.9,14.1,9.3,20.9c0.7,0.7,1.3,1.4,2,2l0,0c1.1,4.2-1.8,6.9-3.7,9.8
		c-29.2,43.3-55.9,88.1-76.1,136.4c-5.6,13.5-10.4,27.3-15.7,41C1200.7,2181.8,1199,2187,1192,2184z"/>
	<path class="st12" d="M1463.9,713.9c-11.6,26.9-26.2,52.4-36.8,79.8c-1.5,3.9-3.3,5.5-8.1,4.7c-18.4-3-36.3-7.9-54.6-11.2
		c-18.4-3.3-35.8-9.7-53.3-16c-29.8-10.6-60.4-18.6-90.5-28c-36.3-11.3-70.9-26.8-106.1-41c-29.3-11.9-58.8-23.4-86.6-38.6
		c-29.8-16.3-60.7-30.6-89.8-48c-30.9-18.4-59.9-39.7-84.2-66.8c-8.5-9.5-13.9-20.3-13.8-33.3c0-4.1-1.3-7.9-1.9-11.8
		c-3.9-24.2-3.6-48.6-1.5-72.7c2.3-25.7,5.7-51.5,13.6-76.3c0.5-1.6,1-3.2,1.7-4.7c2.2-4.3,4.5-5,7.6-1.5
		c14.6,16.6,32.7,29.3,49.5,43.4c7.1,6,14.4,11.8,22,17.2c27.9,19.9,56.9,38.2,85.9,56.4c27.1,17.1,55.3,32,83.6,46.9
		c19.7,10.4,38.9,21.8,59.1,31.4c35.1,16.9,71.1,31.6,107.3,46.2c18.8,7.6,37.6,15.3,56.1,23.7c22.5,10.2,46.9,14.6,70.4,22
		c12.1,3.8,24.1,7.6,36.1,11.7c14.8,5,29.8,9.3,45.1,12.6c7.4,1.6,8.1,2.9,5.9,10.1c-3.6,11.4-7.7,22.7-12.4,33.7
		c-1.2,1.1-0.8,2.9-1.9,4.1l0,0C1464,709.5,1465.9,712.4,1463.9,713.9z"/>
	<path class="st13" d="M1091.4,1296.7c8.6,13.7,18.8,25.8,29.9,37.3c27.8,28.7,61.3,45,101.2,48.6c11,1,21.9,0.9,32.9,1.5
		c16.5,0.9,32.6-1.6,48.5-5c7.8-1.7,14.5-6.5,21.6-10.2c6.8-3.5,13.3-7.4,19.9-11.1c2.5,2.6,0.2,4-0.6,5.4
		c-17.2,31.2-25.4,65-29.2,100.1c-1.4,13.3-1.7,26.6,0,39.9c0.6,5.1-1.6,7.9-5.1,11c-14.8,12.6-32.2,19.9-50.3,25.9
		c-27.8,9.3-56.3,16.4-85.2,21.2c-21.9,3.7-43.9,2.2-65.8-0.1c-20.8-2.2-41.5-5.8-62.3-8.9c-33-4.9-63.9-16-93.6-30.7
		c-30.8-15.3-59.9-33.3-86.1-55.9c-20.6-17.8-38.2-38.1-53.2-60.6c-10.4-15.5-20-31.5-26.5-49.2c-0.6-1.8-2.2-3.4-0.8-6.5
		c9.5,4.5,18.8,9.3,28.8,12.5c23.5,7.5,47.3,10,71.8,5.9c13.8-2.3,27.6-4.4,40.3-10.8c9.4-4.7,17.2-11.3,24.6-18.6
		c32.3-32.1,48.2-72,54.7-116.2c2-13.8,2.3-27.8,3.4-41.8c0.4-5.8,3.6-11.1,8.9-11.6c8.9-0.9,17.8-3.1,26.8-2c4.4,0.5,6.4,2.3,7,7.5
		c3.1,25.4,6.9,50.8,18.7,74.1c2.4,4.7,2.8,9.1,0.2,14.2c-4.4,8.7-6.3,18.2-7.4,27.9c-0.8,7.4-0.9,7.7-8.3,7.6
		c-23.9-0.3-45.1,7.8-64.6,21c-2.8,1.9-5.6,3.7-7.5,6.5c-3.3,4.6-3.3,10.7-0.1,15c3.2,4.3,8.9,6.1,14.3,3.9c3.3-1.4,6.4-3.5,9.5-5.5
		c15.5-10,32.1-15.9,50.9-15.2c5.5,0.2,8.1,1.6,9.8,7.3c6.4,21.7,19.4,38.5,39.7,49.1c4.1,2.2,8.4,4.2,13.1,4.8
		c6.8,1,12.5-2.2,14.5-7.9c2-5.9-0.4-11.7-6.4-15.2c-1.4-0.8-3-1.4-4.5-2.1C1100,1348.7,1086.6,1324.1,1091.4,1296.7z"/>
	<path class="st2" d="M1181.9,1639.9c6.1,8.1,7.3,8.6,16.7,6.1c10.5-2.8,20.5-7.4,31.7-9.7c0.8,4.6-1.1,8.1-2.9,11.5
		c-9,17.1-17.3,34.5-25.1,52.2c-2,4.5-4.6,5.7-9.1,5.6c-16.1-0.4-29.8,6.3-42.6,15.1c-6.5,4.4-11.5,10.3-13.4,18.1
		c-1.2,4.7-3.6,5.6-8,4.3c-9.7-2.7-19.6-3.6-29.7-3.4c-21,0.4-36.2,10.5-45.5,28.9c-2.8,5.5-5.3,7-11.4,5.9
		c-19-3.4-36.2,1.8-51.6,12.4c-3.8-1.2-3.5-4.4-4.2-6.7c-5.3-17.3-15.7-29.9-32.8-36.5c-3.2-1.3-5.9-2.4-6-6.8
		c-0.3-19.6-12-32.5-26-44c-1.3-1.1-2.7-2-4.1-2.8c-3.3-1.9-3.6-4-1.6-7.3c12.2-20.7,24.1-41.5,36.3-62.1c3.6-6.1,4.3-6.1,10.1-2.4
		c3.1,2,5.9,4.3,9,6.3c8.8,5.4,14.4,4.4,20.7-3.7c1.2-1.6,2.4-3.2,3.5-4.8c2.8-4,6.5-2.5,9.9-1.3c33,12.2,67.5,17.6,102.4,19.9
		c19.2,1.3,38.3-2.9,57.4-5.7C1179.9,1626.7,1179.9,1626.7,1181.9,1639.9z"/>
	<path class="st14" d="M1642.2,1512.4c4.4-7.9,11.4-13.7,17.3-20.3c26.9-30.4,47.9-64.5,63.4-101.8c8.2-19.6,18.3-38.4,24.4-58.8
		c7.4-24.5,14-49.2,18-74.3c2.2-13.6,3.4-27.6,5.1-41.3c2.3-18.6,1.1-37.2,1.5-55.7c0.2-13.2-2.7-16.5-15.9-19.9
		c-9.9-2.6-20.2-3.4-30.3-5.4c-13.7-2.7-27.1-6.4-40.7-9.2c-24.6-5.1-49.2-10.2-73.9-15c-4.2-0.8-8.6-0.3-13-0.4
		c-1.3-14,3.2-27.7,2.5-41.8c-0.2-4.5,2.9-4.8,6.1-3.9c12.5,3.8,25.5,4.5,38.3,6.4c29.9,4.5,59.8,8.8,89.7,13.1
		c20.4,3,40.8,6,61.1,8.9c8.5,1.2,17.1,2.2,25.7,3.3c8.4,1.1,8.9,1.8,10.6,10.2c3.1,14.7,2.5,29.7,4,44.6c1,9.9,0.1,19.8,1.3,29.8
		c1.3,11.3-1.9,22.5-4.2,33.5c-6.4,30.2-13.8,60.2-25.4,89c-1.6,4-3.4,7.9-5.3,11.8c-13.6,28.5-26.9,57.2-44.8,83.3
		c-15.4,22.5-32.1,43.9-52.5,62.3c-18.5,16.7-37.4,33-57,48.4C1646.3,1510.4,1644.7,1512.2,1642.2,1512.4z"/>
	<path class="st11" d="M848.1,1570.2c-23.5,12.8-43.8,30-64.3,47c-6.2,5.1-6.2,5-12.6,0.7c-15.7-10.7-31.1-21.6-42.2-37.7
		c-17.3-25.2-26-53-26.9-83.3c-1.1-38.8,3.4-77.1,11.6-114.9c5.3-24.3,16.4-46.3,27.6-68.3c0.2-0.5,1.1-0.7,3-1.8
		c7.8,24.5,15.2,48.9,25.9,72.1c10.7,23.1,23.9,44.4,39.7,64.3c6.2,8.6,6.1,18.7,6.7,28.6c1.8,26.8,7.7,52.4,21.2,76
		C841.2,1558.7,848.6,1562.2,848.1,1570.2z"/>
	<path class="st11" d="M854.1,884c-0.1-0.7-0.1-1.3-0.2-2c7.6-4.1,13.5,1.4,19.5,4c17.4,7.6,34.9,15.1,52.8,21.4
		c44.3,15.7,89.4,28.7,135.3,39c6.4,1.5,12,3.1,8.6,11.7c-1.3,7.5-2.5,15-3.9,22.6c-1.3,6.8-1.7,7.2-8.4,6.3
		c-13.9-1.8-27.3-5.7-40.4-10.5c-21-7.7-40.5-18.4-59.2-30.6c-0.8-0.5-1.5-1.2-2.3-1.7l-0.1-0.1c-0.6-0.9-1.6-1.2-2.5-1.6
		c-0.9-0.3-1.8-0.7-2.6-1.1c-0.5-0.2-1-0.5-1.5-0.7c0,0-0.6,0-0.6,0s0.2,0.7,0.2,0.7c0.3,0.5,0.5,1,0.7,1.5c0.4,0.8,0.8,1.7,1.1,2.5
		c0.3,0.9,0.7,1.8,1.2,2.6l0,0c1.7,1.8,2.6,4.1,4,6c14.5,21.8,31.5,41.2,52.1,57.4c13.8,10.9,29.3,18.5,46.3,22.6
		c5.2,1.3,7.1,3.7,7,9c-0.6,28.3,0.8,56.6,4.7,84.7c0.3,1.9,0.7,4-0.8,5.7c-3.3,1.1-5.8-1-8.4-2.2c-49.1-23.6-93.6-53.6-130.4-94.1
		c-35.6-39-59.7-83.9-69.5-136.1c-0.6-2.9-0.8-5.9-1.1-8.9C854.1,889.7,856.1,886.5,854.1,884z"/>
	<path class="st15" d="M1324,1098c18.6-0.7,37.2,0.3,55.4,4.2c13.6,2.9,23.5,10.2,27.6,25c4.5,16.5,0.7,32.1-1.8,47.9
		c-3.8,24.6-10.5,48.5-17.4,72.3c-3.6,12.3-10.3,23-18.8,32.4c-7.6,8.4-15.6,16.5-24,24c-13.2,11.8-28.5,20.5-45.5,25.9
		c-4.7,1.5-9.6,2.5-14.3,4.1c-14.8,5.1-30.2,4.1-45.4,4.1c-6,0-12,0-17.7,2c-1.1-7.5,3.3-13.4,6.2-19.5
		c23.5-48.8,45.5-98.3,70.2-146.5c10.4-20.4,21.1-40.7,32.6-60.5c3.9-6.8,6.1-11.3-4.5-11.9C1324.8,1101.4,1323.4,1100.1,1324,1098z
		"/>
	<path class="st16" d="M1324,1098c4.2,4.4,10.4,0.1,15.5,3.5c-3.3,10.2-9.7,18.8-14.6,28c-15.8,29.6-32.3,58.8-45.7,89.7
		c-1.3,3.1-2.9,6-4.4,9c-15.1,31.5-30.1,63-45.1,94.5c-2.7,5.7-5.2,11.5-7.8,17.3c0,0-1,0-1,0l-1,0c-2.3-2.2-5.7,0.2-8-2
		c-23.1-6.4-42.2-19.4-59-36.1c-1.2-1.1-2-2.6-3-3.9c-1.7-2.9-4.2-5.2-5.9-8l0,0c-2.2-4-0.8-7.8,0.9-11.4
		c26.4-54.9,51.3-110.6,79.3-164.7c2.6-5,5.3-10,9.7-13.8c1.9-0.6,3.8-1.9,5.6-1.8c25.6,0.6,51.1-3.5,76.7-2.2
		C1319.1,1096.2,1321.6,1096.9,1324,1098z"/>
	<path class="st2" d="M1322,1840c-0.3-6.8-2.2-13.4-4.5-19.9c-7.9-21.7-22-37.8-43.6-46.6c-6.5-2.7-9.6-6.2-10.7-13.4
		c-3.6-21.8-15.6-37.8-36-47c-6.9-3.1-7-3.4-3.8-10.1c11.3-23.3,22.9-46.6,34.2-69.9c2.1-4.2,4.9-6.3,9.7-7.4
		c9.4-2.1,19.1-3.3,28.5-3.7c12.3-0.5,24.4-2.4,36.7-2.1c8.3,0.2,9.6,0.8,12,8.9c3.9,13,7.5,26.2,10.8,39.3
		c5.8,23.5,9.9,47.5,8.9,71.8c-0.8,19.5-2.6,39-10.4,57.4c-6.3,14.8-15.4,27.8-25.9,39.9c-0.9,1-1.9,1.8-3,2.5
		C1324.4,1840.1,1323.7,1839.9,1322,1840z"/>
	<path class="st14" d="M825.9,868c-2.4-2.7-5.3-4.7-8.7-6.4c-30.6-15.1-61-30.5-90.3-47.9c-5.1-3-10.1-7.9-17.2-6
		c0.6-1.9,1.4-3.7,1.6-5.6c1.2-9.6-5-14.9-14.4-12.3c-4.4,1.2-8.7,2.8-13,4.2c-14.5-11.8-32-18.6-47.4-28.9c-4.2-2.8-3.2,5-6.6,2.8
		c-0.1-11-1.1-11.9-11.9-11.8c-1.3,0-2.7,0-4,0c2.6-3.4,2.6-3.4-1.5-5.7c-19.4-10.8-38.1-22.8-56.7-34.9c-7.4-4.8-14.6-10-24.1-5.8
		c5.8-11,15.9-17.7,25.3-24.9c12.5-9.7,12.7-9.6,27.7-3.4c53.2,21.9,106.3,44.2,158.7,68.1c26,11.9,52.1,23.7,78.2,35.5
		c9,4.1,9.3,4.1,7.8,13.3C825.8,821.5,825.8,844.7,825.9,868z"/>
	<path class="st14" d="M1070.1,958.1c0-4.5-0.6-7.3-6.6-8.6c-29.8-6.3-59.3-14.1-88.3-23.5c-13.9-4.5-28-8.1-41.7-13.1
		c-24.1-8.6-47.5-18.9-70.9-28.9c-2.8-1.2-5.4-2.5-8.6-2.2c-3.6-12.9-3.9-26.2-4-39.4c-0.1-10.6-0.4-21.2,2.1-31.7
		c2.3-9.8,2.4-10.3,11.3-6.4c21,9.2,42.3,18,62.7,28.5c14.9,7.6,30.8,12.5,46.2,18.8c33.9,13.7,67.7,27.7,100.7,43.4
		c4.5,2.1,9.1,4.1,13.6,6.1c2.9,1.3,3.7,3.3,2.3,6.5C1081.3,924.1,1077.4,941.7,1070.1,958.1z"/>
	<path class="st13" d="M1403.7,1297.7c19.3-25.2,29.3-54,35-84.9c3.3-17.9,8.4-35.6,12.6-53.4c1-4.2,2-8.4,2.6-12.7
		c2.5-16.3,9.9-22.5,26.5-22.7c21.3-0.2,42.5,1.6,63.6,3.5c1.6,0.2,3.3,0.9,4.9,0.9c5.1,0.2,5.7,2.5,4.8,7.2
		c-4.2,21.2-9.1,42.3-15.3,63c-7.6,25.6-17.4,50.3-28.6,74.5c-1.9,4-3.6,7.2-9.3,7.1c-32.7-0.9-63.1,7.8-92.3,22
		c-0.9,0.3-1.6,1-2.5,1.4l-0.2,0.1c-1,0.9-2.2,1.3-3.3,0.4c-1.5-1.2-1.3-2.7-0.4-4.2l0-0.1
		C1402.8,1299.3,1403.4,1298.6,1403.7,1297.7z"/>
	<path class="st3" d="M868.9,1703.9c12.5-6.5,30.3-4.4,40.9,4.9c8.4,7.4,15.2,15.7,16.7,27.4c0.5,4.2,3.1,8.3,3.1,12.5
		c0,8.2,4.9,11.2,11.6,12.6c5.4,1.1,9.8,3.2,14.1,6.7c10.5,8.6,13.1,20.3,14.7,32.7c0.4,3.3-0.1,6.6,1.3,9.8
		c3.8,8.4,11.8,10.5,18.7,4.5c3.5-3.1,7.2-5.9,10.7-8.9c12.7-11.5,27.1-14.6,43.4-10.5c2.5,0.6,5.3,0.4,8,0.5
		c10.6,0.1,14.2-2.2,17.8-12.3c2.5-7,6.1-13.1,12.1-17.8c8-6.3,17.2-6.9,26.6-5.7c9.5,1.2,18.9,3.3,28.3,5.1
		c8.9,1.7,14.7-1.2,16.9-9.5c2.2-8,4-15.9,12.1-20.6c10.9-6.3,22.1-11.4,35-8.9c14.6,2.8,28.2,7.8,36.4,21.7
		c4.4,7.3,6.3,15.3,6.7,23.6c0.7,11.9,2.2,13.7,13.6,17.3c24.6,7.7,38.7,24.8,43.5,49.7c1.1,5.6-1.6,11.6,0.4,17.5
		c0.3,0.9-1.4,3-2.6,3.9c-5,3.8-10.2,7.4-15.3,11.1c-4,2.9-6.2,1.8-8.4-2.6c-9.3-18.8-20.8-36.3-32.6-53.6
		c-7.7-11.3-17.3-21.1-27.2-30.4c-12.7-12-28.3-11.8-44.1-9.9c-24.9,3-48.1,12-71.5,20.4c-29.1,10.4-58.3,20.4-87.4,30.7
		c-11.6,4.1-23,8.5-34.6,12.6c-8.4,2.9-9.4,2.6-13.2-5.2c-10.5-21.5-21.5-42.8-33.7-63.4c-12.7-21.3-27.5-40.7-47.7-55.6
		C878.4,1710.7,872.2,1709.3,868.9,1703.9z"/>
	<path class="st15" d="M1234,1100c-0.8,6.6-5.8,11.1-8.5,16.8c-9.4,19.5-19.6,38.6-28.9,58.2c-17.1,35.7-33.8,71.6-50.8,107.3
		c-1.2,2.5-2,4.9-1.8,7.7c-7.8-14.9-17.2-29-23.6-44.7c-4.2-10.5-8.9-20.6-11-31.9c-1.8-9.5-6.9-18-8.5-27.5
		c-0.9-5.8-3.3-11.4-1.2-17.5c0.6-1.7,0.4-4.1-0.2-5.9c-4-14,0.4-26.2,8-37.6c4.7-7.1,10.9-11.8,19.9-13.2c21.2-3.3,42.3-7.3,64-8
		c8.4-0.3,17.2-0.8,25.6-3C1222.7,1099.2,1228.4,1100.2,1234,1100z"/>
	<path class="st12" d="M1564,754c-8.6,16.5-17.1,33.1-25.7,49.6c-6,11.6-7.7,11.7-21.1,10.9c-21.7-1.3-42.6-6.2-63.7-10.4
		c-5.8-1.1-6.2-1.7-3.8-7.1c3.9-8.8,7.9-17.6,12.1-26.3c15.2-31.4,30.3-62.9,41-96.3c1.6-4.9,3.4-6.5,9.2-5.2
		c16.1,3.7,32.5,6.4,48.8,9.1c9.5,1.6,19,2.5,28.6,3.7c5.7,0.7,6.2,1.3,4.7,6.9c-3.6,13.2-10.1,25.3-15.8,37.6
		c-3.1,6.6-5.8,13.4-10,19.4c-1.4,0.9-1,2.8-2.1,3.9l0,0C1564.7,751,1565.2,752.9,1564,754z"/>
	<path class="st15" d="M1192,2184c5.9,0.6,6.7-3.8,8.3-8c8.7-22.2,15.8-45,26.8-66.3c10.7-20.6,20.3-41.9,33-61.4
		c12.6-19.5,23.9-39.8,37.9-58.3c6,3.4,8.5,10,13.3,14.6c6.3,6.2,11.4,13.7,17.3,20.4c4.3,4.8,3.8,9.4,0.6,14.4
		c-9.1,14.2-17.5,28.9-25,44.1c-1.4,2.9-3.2,5.3-3,9.1c0.2,4.2-2.9,7.9-5.1,11.6c-15,24.8-26.8,51-35.4,78.7
		c-0.9,2.8-1.8,5.7-2.7,8.5c-3.9,11.9-5.1,12.5-17.1,8.6c-11-3.6-22.1-7-33-11.1C1202.7,2186.8,1196.7,2187.4,1192,2184z"/>
	<path class="st16" d="M990,1128.1c0,1-0.2,2.1,0.1,3c5.7,17,2.4,33.9,0.2,50.9c-1.5,11.1-1.9,22.3-2.2,33.5
		c-0.9,36.1-13.8,67.9-35.3,96.4c-11.5,15.2-27.5,24.6-44.9,32.1c-19.2,8.3-38.7,8.7-59.3,6.8c-27.9-2.6-48.9-17-69-34.1
		c-6.8-5.8-12.2-13.2-19.4-18.6c-20.7-22.1-28.1-50.6-36.9-78.3c-2.2-6.9-3.4-14.2-5.4-21.2c-0.9-17.9-5.1-35.5-4.6-53.6
		c0.1-5.3-1.8-8.2-7.5-8.2c-4.4,0-8.6-0.8-12.4-3.3c-7-8.1-6-14,3-18.9c1.8-1,3.6-1.9,5.6-2.1c17.7-2.3,34.8-8.1,53.1-7.5
		c15.1,0.5,30-3.4,45-4.8c21.5,0.4,42.9-1.7,64.2-3.8c5.9-0.6,11.9-0.2,17.9-0.2c19.9,0,39.8,0,59.7,0c3.4,2,7.1,1.1,10.6,0.9
		c13.1-1,22.7,5.8,31.7,13.8C989.3,1115.3,987.8,1122.4,990,1128.1z"/>
	<path class="st1" d="M674.1,1990c13.2,35.1,38.3,58.6,72.1,73.5c10.7,4.7,10.7,4.6,8.1,15.6c-3.9,16.2-8.4,32.2-13.8,48
		c-1.6,4.8-3.7,7.6-9.1,6.7c-4-0.6-7,1.2-9.7,4c-15.7,16.9-24.8,36.7-26.3,59.8c-0.3,5.3,0,10.7,0,16c0,1.5-0.8,2.7-2.1,2.9
		c-0.8,0.1-1.9-0.7-2.5-1.4c-1-1.3-2-2.7-2.5-4.2c-10.6-30.1-21.9-60-27.1-91.7c-2.6-15.8-4-31.5-4.6-47.5
		c-1.2-28.7,6.8-55.8,11.6-83.5c1.7-0.9-0.2-5.2,3.8-4l0,0C673.9,1985.6,672,1988.5,674.1,1990z"/>
	<path class="st16" d="M1410,1215.9c-0.6-6.2,2.9-11.5,3.9-17.4c2.1-12.7,5-25.3,7.2-38c3.2-18.2,1.1-36.6-6.8-53.6
		c-6.2-13.3-18.3-18.5-31.9-20.9c-16.1-2.8-32.6-0.7-48.7-2.5c-18-2.1-35.9-2.2-53.8-1.2c-20.2,1.1-40.5,0.7-60.7,2.1
		c-19.4,1.3-38.6,5.2-58,7.1c-10.2,1-20.4,1.4-30.4,4.3c-16.9,4.9-32.3,12-43.4,27.3c-4.8-8.1-3.2-16.4-2.9-24.4
		c0.2-4.4,4.5-5.5,8-6.4c18.7-4.4,37.1-10.3,56.3-11.8c9.9-0.8,19.7-2.7,29.7-2.5c18.6,0.3,37-2.5,55.5-3.6
		c12.6-0.7,25.1-1.7,37.7-2.6c43.2-3,86.4-1.5,129.7-1.9c17.3-0.2,34.6,0,51.9,0c2.7,0,5.4-0.1,8,0.3c7.4,1.4,10.8,5.6,10.9,13.1
		c0,10.6-3.9,19.4-12.7,25.8c-2.2,1.6-4.2,3.4-6.7,4.4c-12.6,4.8-15.6,15.5-16.5,27.1c-0.4,4.4-1.4,8.6-2.4,12.7
		c-5.7,22.2-8.2,45-13.9,67.1c-1.4,5.4-2.4,11-5.8,15.7c-8.6,2.1-9.1,1.6-7.6-6.2C1407.4,1225.1,1408.9,1220.5,1410,1215.9z"/>
	<path class="st4" d="M1181.9,1639.9c-3.6-2.6-0.6-7.1-2.9-10.4c-10.9,1.6-21.8,3.6-32.9,4.7c-15.3,1.6-30.3,3.8-46.1,2.4
		c-23.1-2-45.8-5.9-68.3-10.9c-9.6-2.1-18.9-5.9-28.3-9.2c-2.6-0.9-4.9-2-7.5-0.7c2.7-12.7,7.4-24.8,11.2-37.1
		c1.3-4.2,3.9-3.7,7-2.8c11.5,3.5,23.3,5.4,35,7.6c17.9,3.4,35.9,5.9,54.2,7c25.6,1.6,51.2,2,76.9,1.8c5.4,0,7,2,7,6.9
		c-0.1,8-1.7,15.9-3.3,23.7C1182.7,1628.7,1182.2,1634.3,1181.9,1639.9z"/>
	<path class="st14" d="M848.1,1570.2c-9.6-10.2-16.3-22.1-21.9-35c-5.4-12.6-7.5-25.9-10.3-39.1c-2.7-13-1.7-26.3-4.1-39.3
		c-0.5-2.9-1.3-5.8-2-8.6c11.6,12.4,23.8,24.1,36.2,35.6c17.1,15.8,35.7,29.6,55,42.8c20.4,14,42,25.6,64.9,34.7
		c5.9,2.3,6.9,5.1,5.9,10.8c-0.8,4.6-2.3,9-3.7,13.5c-2.2,6.8-6.5,8.8-12.6,4.7c-7.8-5.2-16.5-8.8-24-14.3
		c-21.4-15.9-44.7-16.9-69.3-10.3C857.6,1566.9,852.9,1568.7,848.1,1570.2z"/>
	<path class="st17" d="M720.1,1199.9c4.8,10.5,5.9,22.1,9.7,33c6.6,18.3,13.2,36.6,23.1,53.5c2.3,3.9,6.7,6.6,7.2,11.6
		c-2.1-1.5-4.3-3-6.6-4.6c-2.7,0.6-2.6,3.4-3.9,5.2c-2.8,3.6-6.2,3.7-8.9,0.2c-0.4-0.5-0.5-1.2-0.8-1.8c-5.2-9.5-5.3-9.6-12.7-1.2
		c-2.6,3-4.8,6.3-7,9.6c-1.3,2-2.4,4-5,4.4c2.2-6.8,6.7-12.2,11.4-17.4c3.2-3.6,4-6.4,2.3-11.4c-10-29.6-21.1-58.9-27.2-89.6
		c-2.7-13.7-4.1-27.6-5-41.5c-0.3-4.2-0.8-6.5-5.7-7.3c-5.6-0.9-9.1-5.2-10.9-10.6c-0.8-2.5-1.5-5.1-2.2-7.7
		c-2.6-10.3,0.4-16.3,10.5-20.2c6.9-2.7,14.2-3.3,21.6-3.9c11-0.9,11-0.9,12-11.4c0.5-5.6,0.8-11.3,1.6-16.9c0.6-4.2-1.1-6-5-7
		c-7.4-2.1-14.8-4.1-21.9-7c-5.1-2-7.1-0.2-9.3,4c-12.9,24.8-21.4,50.9-26,78.4c-6,35.4-5.2,71-2.4,106.7
		c3.3,41.8,10.1,83.3,11.7,125.4c1.9,49.1-10.1,93.5-39.7,133.1c-51.7,69.1-120.9,105.7-206.3,113c-3.3,0.3-6.7,0.3-10,0.2
		c-5.9-0.2-10.3-3-12.4-8.5c-2.1-5.6-0.4-10.5,3.8-14.6c1.9-1.9,3.9-3.6,5.9-5.4c26.5-24.3,49.5-51.3,65.9-83.5
		c10-19.5,16.6-39.9,16.5-62.1c-0.1-12.9-3.4-25-7.3-37.1c-14.4-43.9-37.4-83.1-66-119.2c-15.1-19.1-31.2-37.3-47.2-55.6
		c-1.1-1.2-1.8-2.7-2.7-4.1c6.7,2.8,10.8,8.7,15.4,13.8c10.8,12.1,21.3,24.5,31.5,37.2c12.1,15,23.7,30.4,33.8,46.7
		c8.4,13.6,16.3,27.4,23.1,41.9c7.8,16.6,13.6,33.9,18.9,51.4c8.1,26.9,2.3,52.3-8.1,77.3c-9.9,23.9-24.7,44.5-41.3,64.1
		c-11,13-22.6,25.1-35.7,36c-7,5.9-5.3,14.6,3.2,18.2c3.6,1.5,7.3,1.4,10.8,0.9c17.4-2.2,34.8-3.9,51.9-8.4
		c36.8-9.6,70.7-25.3,100.8-48.5c17.9-13.8,33.5-30.1,47.4-48.1c11.6-15.1,21.9-30.8,29.7-48.1c7.1-15.8,11.5-32.3,13.8-49.6
		c2.4-17.6,2.2-35.3,1.2-52.7c-0.6-11.4-2-23.1-2.7-34.5c-1-14.6-3.5-28.9-5.1-43.4c-1.9-17.1-1.6-34.4-5.4-51.3
		c-0.5-2.2-0.3-4.6-0.3-7c0-12,0.1-24,0-36c-0.1-13,2.4-25.7,3.5-38.5c2.2-26.5,11.1-51,20.7-75.4c2.1-5.3,4.6-10.3,7.3-15.3
		c2.8-5.3,6-6.8,11.5-4.4c7.7,3.3,15.7,5.3,23.7,7.3c5.7,1.5,6.6,3.3,5.9,9.2c-0.8,7.2-0.9,14.5-2.3,21.7c-1.1,6,0.5,6.9,6.5,5.7
		c1.3-0.3,2.6-0.5,3.9-0.8c11.2-2.7,11.3-2.8,11.4-14.8c0.1-13.2,2.5-15.2,15.4-12.4c0.3,0.1,0.6,0.2,0.9,0.3
		c3.3,1.7,7.8-0.6,10.4,2.3c2.6,2.9,1.3,7,1.2,10.6c-0.2,7.2-7,13.2-15.4,13.9c-1.7,0.1-3.3,0-5,0.1c-1.6,0.1-2.3,0.8-2.3,2.5
		c0,1.8,0,3.5,2.4,3.4c3.7-0.1,7.4,0.1,10.9-0.5c11.8-2,23.5-3.9,35.5-3.4c-4.3,3.8-9.5,1.4-14.3,2.3c-15.5,3-31.2,4-46.9,5.7
		c-8.4,0.9-16.4,4.2-24.9,5.2c-4.8,0.5-9.8,0.6-14.5,2.5c-9.1,3.7-10.7,8-5.4,16.2c-0.4,0.3-0.8,0.6-1.2,0.8
		c-1.8,0.3-3.4-0.1-4.5-1.5c-5.7-6.9-0.9-22.8,7.6-25.2c1.4-1.2,3-1.1,4.7-1c0.6,0,1,0.5,1,0.5c-2.3-1.4-4.4-0.6-6.5,1.1
		c-8.2,0-10.9,6.2-11.8,12.4c-1,7.1,0.7,15.1,8.4,17.4c9.6,2.9,11.5,9,10.8,17.4c-0.6,8.2,1.4,16.3,1.1,24.2c4.5-2.7,7.5-1,8.6,4.3
		c1.3,6.2,3.9,11.9,6.7,17.5C719.3,1199.8,719.7,1199.9,720.1,1199.9z"/>
	<path class="st11" d="M531.7,709.8c1.4-0.9,3-1.6,4-2.7c3.4-3.7,6.4-2.9,10.4-0.3c17.5,11.3,35.3,22.2,52.9,33.3
		c6.4,4.1,13.7,6.7,19.5,12c0.1,3-4.2,1.5-4.5,4.1c-48.6,11.9-91.9,35.7-134.7,61.3C477.4,798.5,505.7,737.4,531.7,709.8z"/>
	<path class="st14" d="M514.4,690.4c-6.1-8.2-14.9-13.1-23.1-18.6c-25.1-16.8-49.6-34.5-73.9-52.3c-8.9-6.5-15.5-15.4-24.5-21.9
		c-9.1-6.6-17.2-14.5-26-21.5c-3.3-2.6-6.5-5.8-11.1-6.3c3.7-5.8,9.9-8.6,15.3-12.4c2.9-2,5.5-1.2,8.4,0.1
		c8.8,4.1,16.7,9.5,24.8,14.7c41.3,26.6,82.6,53.2,123.9,79.9c3.1,2,6.1,4.1,8.9,6.3c6.1,4.8,6.5,5.8,0.7,10.4
		C529.5,675.6,522.4,683.4,514.4,690.4z"/>
	<path class="st13" d="M877.8,1018.9c-0.2,0.3-0.4,0.7-0.6,0.7c-35.9-2.4-71.7,2-107.6,2.3c-13.2,0.1-13.8,1.9-10.5-12.8
		c2-8.8,3.8-17.5,5.4-26.4c0.8-4.3,2.7-7.1,6.4-9.4c20.1-12.6,41.4-22.6,63.8-30.3c3.6-1.2,6.1-1.7,7.7,2.9
		c8.8,25.2,20.8,48.9,35.4,71.2C878.1,1017.5,877.8,1018.3,877.8,1018.9z"/>
	<path class="st12" d="M1678,754c-9.9,14.9-20.5,29.3-31.9,43.2c-5.9,7.1-13.6,10.3-22,12.4c-6.4,1.6-13,2.6-19.5,3.9
		c-2,0.4-4.3,0.9-5.6-0.8c-1.8-2.2-0.1-4.5,1.1-6.4c7.1-12,13.3-24.5,20.5-36.5c14.2-23.8,25.9-48.6,35.4-74.5
		c3.2-8.9,3.3-8.1,12.6-7.6c13.3,0.7,26.6,0.3,39.9,0.5c3.5,0.1,7.2-1,11.5,1.6c-9.9,18.6-23.2,34.7-34,52.3c-1.4,1.9-2.4,4.1-4,6
		l0,0C1680.5,749.9,1679.5,752.1,1678,754z"/>
	<path class="st13" d="M1220.1,956c-38.7,13.5-77.7,25.9-118.7,30.6c-10.3,1.2-10.5,0.8-8.7-9c3.7-20,9.3-39.5,17.6-58.2
		c1.9-4.2,3.7-6.1,9-4.1c31.5,11.8,63.1,23.2,94.7,34.8c1.6,1.8,4.3,0.1,5.9,2l0.1,0C1221.2,953.4,1221.2,954.7,1220.1,956z"/>
	<path class="st18" d="M1410,1215.9c0.8,4.4-1.3,8.4-2,12.5c-1.3,6.8-1.4,6.8,6.1,7.6c-4.8,16.5-11.6,32.1-22,46c-1.6,1.8-2.6,4-4,6
		l0,0c-1.9,2.7-4.3,5.1-6,8l0,0c-0.7,0.6-1.4,1.3-2,2.1l0,0c-0.8,0.6-1.5,1.2-2,2l0,0c-2.4,3.5-5.9,6.2-8.1,10l0,0
		c-0.8,0.6-1.4,1.4-2,2.1c-24.1,28.3-53.8,47.9-90.8,53.2c-18.5,2.7-37.7,1.4-56.7-0.8c-22.9-2.6-43-11.9-61.5-24.2
		c-18.6-12.4-33.9-28.6-43.7-49.3c-7.9-16.5-16.4-32.7-22.9-49.8c-6-15.9-9.3-32.5-12.4-49.1c-0.9-4.8-3-9.6-2.1-14.7
		c0.3-1.6-0.2-3.6,1.8-4.2c2.5-0.7,3.7,1.3,4.3,3.2c1.4,4.4,2.8,8.8,3.8,13.4c6.2,29,14.6,57.3,28.8,83.4
		c8.6,15.7,17.3,31.7,30.5,44c12.1,11.3,25.9,20.7,41.7,26.8c14.6,5.6,30,8.4,45.2,11.7c5.2,1.1,9.8-1.2,14.7-1.8
		c14.1-1.7,28.2-3.8,42.1-6.5c24.5-4.8,44.8-17.8,63.9-33.1c1-0.8,2.2-1.5,3.2-2.3c7.5-5.8,14.2-12.5,20-20l0,0
		c0.7-0.6,1.4-1.3,2-2.1l0,0c1.3-1,0.9-2.9,2.1-3.9l0,0c0.7-0.6,1.3-1.4,1.9-2.1c0.1-0.7,0-1.4,0.4-1.9
		c12.2-18.9,16.7-40.8,23.4-61.8C1408.2,1218.6,1408.5,1216.9,1410,1215.9z"/>
	<path class="st19" d="M1959.9,864.1c-9-6.9-17.8-14.1-25.9-22.1c-6.7-10.4-16.2-18.2-25.3-26.3c-31-27.8-65.8-50.4-102.1-70.7
		c-4.5-2.5-9-6.3-14.7-2.9c-6.8-2.9-13-7-18.5-11.9c1.7-0.5,4.9-0.6,2.2-3.4c-3-3-6.4-5.9-10.2-7.9c-8.3-4.5-14.6-11.4-22.1-16.9
		c-7.8-5.7-7.5-11.7,0.2-17.7c2.2-1.7,4.6-3.1,4.4-6.1c-0.7-11.2,7.4-16.6,15.2-20.8c7.4-3.9,12.1-8.5,15.6-16.3
		c11.7-25.7,15.9-53.2,21.4-80.4c4-19.7,4.4-39.6,3.7-59.4c-0.9-27-6-53.3-18.1-77.8c-1.6-3.2-4-6.2-3.5-10.2
		c12.8,18.8,19.1,40,22.3,62.2c7.4,50.9-0.8,100.1-16.6,148.3c-6.9,21.1-15.7,41.7-25.1,61.9c-3.4,7.2-3.3,7.3,2.8,12
		c9.5,7.3,19.1,14.4,28.6,21.6c6.8,7.3,15.7,11.9,23.9,17.2c19.8,12.5,38.6,26.4,57.8,39.6c2.1,1.4,5,2.4,4,5.9
		c2.4,5.1,7.4,7.3,11.5,10.6c23.7,18.6,44.4,40.4,65.6,61.6C1960,857,1963.4,859.6,1959.9,864.1z"/>
	<path class="st4" d="M1414.5,1904.4c-23.3,36-46.7,71.9-70.6,108.8c-7-6.3-11.9-12.9-17.2-19.1c-2.6-3.1-1-5.3,0.9-7.9
		c7.1-9.7,12.2-20.6,16.5-31.8c4.1-10.5,4.5-21.4,4.2-32.4c6.1-1.5,8.1-8.3,13.7-10.4c16.1-2.3,32.1-5.5,47.8-9.8
		C1412.3,1900.7,1414.4,1900.7,1414.5,1904.4z"/>
	<path class="st14" d="M1323.1,1548.3c3.8,14.8,7.8,29.1,11.1,43.6c1.4,6-0.5,8.1-6.7,7.9c-24.4-0.7-48.2,4.8-72.3,6.9
		c-9.2,0.8-18,4.3-27.1,6.3c-5.7,1.3-6.8,0.3-6.2-5.3c0.6-4.9,1.7-9.8,2.5-14.8c0.5-3,2.2-4.6,5.2-5.2c5.2-1,10.4-2.2,15.6-3.4
		c25.1-5.6,47.2-17.8,68.6-31.5C1316.3,1551.3,1318.5,1549.1,1323.1,1548.3z"/>
	<path class="st20" d="M1420.6,1013.8c29.1,7.8,57.4,15.2,85.6,23c16,4.4,32.2,8.3,48.5,11.4c1.9,0.4,3.8,1,5.8,1.5
		c3.4,0.9,3.6,3.5,3.1,6.3c-0.5,2.9-2.9,2.3-4.8,2c-17.8-2.6-35.8-2.5-53.7-4c-18.2-1.5-36.5-2.6-54.7-3.9c-7.9-0.6-15.9-1.4-23.8-2
		c-3.9-0.3-6.1-2.1-6-6.3C1420.7,1032.8,1420.6,1023.9,1420.6,1013.8z"/>
	<path class="st21" d="M630,768c2.9-1.3,1.1-5.1,3.9-6.9c15.6,8.9,31.5,18,47.2,27c2.2,1.2,5.1,2.4,2.9,5.9
		c-25.5,14.9-49.4,32-71.6,52C612.2,818.3,620.9,793.1,630,768z"/>
	<path class="st22" d="M1555.8,814.4c4.3-8.5,8.1-16.3,12.1-23.9c17.2-32.3,34.7-64.4,47.1-98.9c1.4-4,3.3-6.3,7.8-5.6
		c3.9,0.5,8-0.7,12.3,1.1c-2.7,11.6-7.5,22.6-12.6,33.2c-14.6,30.2-31.7,59.1-48.7,88.1C1569.9,815,1564.6,817.5,1555.8,814.4z"/>
	<path class="st16" d="M1490.1,1100c2.5-2.1,3.6-4.8,3.9-7.9c4-15.1,4-14.6,19.6-15.2c16-0.7,31.6,2.6,47.3,4.5
		c7,0.8,10.8,4.7,9.1,12.3c-0.5,2.3-0.6,4.6-1.1,6.9c-1.6,9.2-4.3,11.7-13.5,10.2c-20.3-3.3-40.9-3-61.2-5.8
		C1491.2,1104.6,1488,1104.7,1490.1,1100z"/>
	<path class="st17" d="M1490.1,1100c0.2,1.7,0.8,3.7,2.7,3.6c6.1-0.3,11.8,2.2,17.8,2.2c15,0,29.8,1.6,44.5,3.9
		c8,1.3,10.2-0.5,10.8-8.5c0.2-3,0.8-5.9,1.5-8.8c1.5-6.4,0.4-8.4-6.4-9.7c-19-3.5-38.1-5.6-57.4-4.9c-3.7,0.1-5.2,1.6-6,5.2
		c-0.6,3.2-1,6.6-3.7,9.1c0.2-2.3,0.1-4.7,0.6-6.9c2.3-10.5,2.4-10.3,13.4-9.3c4,0.4,8,0.3,12,0.1c14.7-0.7,29,2.5,43.3,5.1
		c5.7,1,7.4-1.2,8.4-5.4c0.6-3,1.2-5.9,2.8-8.4c0.9-1.5,2.1-2.8,4-2.4c2.2,0.5,3.9,2.5,3.1,4.4c-2.9,6.7-0.2,14-2.6,20.7
		c-1,2.9-1,5.9-1,8.9c0.1,14-2.8,27.6-4.9,41.4c-1.3,8.6-3.4,16.6-7.1,24.4c-1.3,2.6-2.6,3.7-5.2,3.1c-2.5-0.6-2.9-2.7-2.7-4.7
		c1.5-12.1,2.7-24.3,4.9-36.3c0.8-4.6,0.2-9.1,2.2-14.3c-11.7,0.3-21.9-2.3-32.6-2.5c-13.5-0.3-27-2.4-40.5-3.8
		C1487.7,1105.4,1486.7,1103.3,1490.1,1100z"/>
	<path class="st23" d="M1306.3,1916c1.3,0,2.7-0.1,4,0c4.2,0.4,9.2-1.8,12.2,2.2c3.9,5.1,6,11.2,5.3,17.7
		c-1.3,12.3-4.9,23.9-11.9,34.2c-3,4.5-5.1,4.6-7.9-0.1c-4.5-7.5-6.2-16-9.1-24.1c-2.8-7.8-5.1-15.7-7.9-23.5
		c-1.5-4.3-0.4-6.4,4.3-6.3C1299,1916,1302.7,1916,1306.3,1916C1306.3,1916,1306.3,1916,1306.3,1916z"/>
	<path class="st17" d="M990,1128.1c-0.2-0.2-0.7-0.4-0.7-0.7c-1.4-9.7-7.1-16.2-15.2-21.5c-7.7-5-15.5-8.6-24.8-7.9
		c-2.6,0.2-5.3,0.4-7.3-1.9c6,0,11.9,0,18.5,0c-0.4-4.9-4.8-6.4-6.7-9.6c-0.5-0.8-0.9-1.9-0.7-2.7c0.3-1.6,1.8-1.6,3.2-1.7
		c2.8,0,5.3,1.2,7.3,2.8c14.3,10.8,30.4,18.8,45.4,28.5c1.7,1.1,3.5,2.1,4.8,3.4c2.7,2.7,3.2,5.9,0.9,9c-2.4,3.1-5.1,1.8-7.8,0
		c-5.2-3.5-10.1-7.5-16.8-9.3C990,1120.5,990,1124.3,990,1128.1z"/>
	<path class="st24" d="M1086.7,1053.5c-0.3-14.2-0.3-14.2,14-15.3c14.1-1,14.1-1,15.9,12.7c0.3,2.3,0.7,4.6,0.9,6.9
		c0.3,2.7-0.7,4.4-3.6,4.8c-7.5,1.2-15,2.5-22.5,4c-3.9,0.8-4.7-1.2-4.7-4.3C1086.7,1059.4,1086.7,1056.5,1086.7,1053.5z"/>
	<path class="st25" d="M1880,782c-5.2-6.2-12.4-9.7-18.8-14.2c-19.7-13.9-39.7-27.3-59.7-40.8c-3-2-6.5-3.5-7.3-7.6
		c12,7.7,24.3,15,36,23.1c21.7,14.8,43,30.1,64.5,45.2c0.8,0.5,1.3,1.4,2,2.1c-4.2,0.4-7.3-1.7-10.2-4.2
		C1884.6,783.8,1882.8,782,1880,782z"/>
	<path class="st26" d="M732.3,1010.2c0,0.3,0,0.7-0.1,1c-1.6,10.8-2.3,11.2-13.5,6.7c2.7-5,6.9-8.5,10.9-12.3
		C733.4,1005.6,733.1,1007.8,732.3,1010.2z"/>
	<path class="st27" d="M1361.9,1911.6c-1.8,5.1-6.9,7.4-9.7,11.7c-2,3.1-2.5-1.3-4.1-1.3c-1.8-2.9-2.3-6-2.3-10.4
		C1351.5,1911.6,1356.7,1911.6,1361.9,1911.6z"/>
	<path class="st28" d="M1378,1292c-4.2,9.1-10.9,15.8-20,20C1363.9,1304.6,1370.6,1297.9,1378,1292z"/>
	<path class="st29" d="M1402,1300c0.1,2.3,1.3,3.7,3.7,3.8c-2,2.7-4.5,4.2-8.7,4.2C1397.8,1304.4,1398.9,1301.6,1402,1300z"/>
	<path class="st30" d="M948.3,943.9c-0.3-0.5-0.6-1-0.7-1.6c-0.4-2.3,0.6-3.2,2.8-2.8c0.5,0.2,1,0.5,1.5,0.8c0.8,0.4,1.5,1,2.1,1.6
		c0.6,0.7,1.2,1.4,1.8,2.1c-2.7,0-3.8,1.5-3.9,4c-0.7-0.6-1.3-1.3-2-1.9C949.3,945.5,948.8,944.7,948.3,943.9z"/>
	<path class="st28" d="M1370,1310c0.5-5.1,4.2-7.6,8.1-10C1377.4,1305,1373.8,1307.6,1370,1310z"/>
	<path class="st28" d="M1382,1296c0.1-4.1,2.7-6.3,6-8C1387.8,1292,1385.2,1294.2,1382,1296z"/>
	<path class="st15" d="M1144,1290c3.1,1.8,5.8,4,5.9,8C1146.8,1296.2,1144.1,1294.1,1144,1290z"/>
	<path class="st31" d="M1414.5,1904.4c-1-2-3-2-4.8-2.6c1.1-0.6,2.2-1.3,3.4-1.7c1.2-0.5,2.9-0.7,3.5,0.5
		C1417.2,1902.3,1416.2,1903.7,1414.5,1904.4z"/>
	<path class="st32" d="M732.3,1010.2c-0.7-1.6-0.5-3.8-2.6-4.6c0.4-1.9,1.7-2.9,3.4-2.1c1.2,0.5,1.2,2.2,0.8,3.4
		C733.6,1008.1,732.9,1009.1,732.3,1010.2z"/>
	<path class="st33" d="M1220.1,956c0-1.3-0.1-2.6-0.1-3.9c2.1-0.3,4.2,0,3.9,2.5C1223.7,956.3,1221.7,956.4,1220.1,956z"/>
	<path class="st34" d="M1007.9,1138c-1.7-1-2.5-2.5-0.7-3.7c2-1.4,3.6,0,4.5,2C1010.6,1137.2,1008.9,1136.8,1007.9,1138z"/>
	<path class="st30" d="M955.9,954.1c-2.5-1.3-3.8-3.3-4-6C954.7,949.1,956.1,951.1,955.9,954.1z"/>
	<path class="st28" d="M1388,1288c0-2.9,1.3-4.9,4-6C1392,1284.9,1390.6,1286.9,1388,1288z"/>
	<path class="st15" d="M1212,1338c2.8,0.3,5.9-0.9,8,2C1217.2,1339.8,1214.1,1340.9,1212,1338z"/>
	<path class="st14" d="M854.1,884c2.7,2.3,2,5.3,1.7,8.2C853.8,889.8,853.7,887,854.1,884z"/>
	<path class="st35" d="M1678,754c0-2.9,1.4-4.9,4-6C1682,750.9,1680.7,752.9,1678,754z"/>
	<path class="st35" d="M1681.9,748c0-2.9,1.4-4.8,4-6C1686,744.9,1684.7,746.9,1681.9,748z"/>
	<path class="st33" d="M1219.9,952c-2.4,0.5-4.5,0.4-5.9-2C1216.3,949.5,1218.3,950.1,1219.9,952z"/>
	<path class="st36" d="M1463.9,713.9c0.1-2.2-0.2-4.5,2.2-5.9C1466,710.3,1466.3,712.6,1463.9,713.9z"/>
	<path class="st36" d="M1466.1,708.1c-0.1-1.7,0.3-3.2,1.9-4.1C1468.1,705.7,1467.7,707.1,1466.1,708.1z"/>
	<path class="st28" d="M1382,1286c0,1.7-0.4,3.2-2.1,3.9C1380,1288.3,1380.4,1286.8,1382,1286z"/>
	<path class="st37" d="M1566,750c-0.1-1.7,0.4-3.2,2.1-3.9C1568.1,747.8,1567.6,749.2,1566,750z"/>
	<path class="st38" d="M1007.9,1138c0.6-2,2.4-1.5,3.8-1.7C1011.3,1138.8,1009.8,1138.8,1007.9,1138z"/>
	<path class="st37" d="M1564,754c0-1.7,0.4-3.1,2-4C1566.1,751.7,1565.6,753.2,1564,754z"/>
	<path class="st28" d="M1384,1283.9c-0.6,0.7-1.3,1.4-1.9,2.1C1382.7,1285.3,1383.3,1284.6,1384,1283.9z"/>
	<path class="st30" d="M955.9,944.2c1.2,0,1.9,0.6,2.3,1.7C957,945.8,956.3,945.3,955.9,944.2z"/>
	<path class="st28" d="M1368,1312.1c0.7-0.7,1.3-1.4,2-2.1C1369.4,1310.7,1368.7,1311.4,1368,1312.1z"/>
	<path class="st29" d="M1405.9,1303.7c0.3-1.3,1.1-1.8,2.5-1.4C1408,1303.5,1407.1,1304,1405.9,1303.7z"/>
	<path class="st19" d="M1962,866c-1.2-0.1-1.9-0.7-2.1-1.9C1960.6,864.7,1961.3,865.4,1962,866z"/>
	<path class="st15" d="M1298,1990c-0.7-0.7-1.3-1.4-2-2C1296.7,1988.6,1297.3,1989.3,1298,1990z"/>
	<path class="st29" d="M1403.7,1297.7c0.2,1.4-0.4,2.1-1.7,2.3C1401.8,1298.6,1402.4,1297.9,1403.7,1297.7z"/>
	<path class="st28" d="M1378.1,1300.1c0.7-0.7,1.3-1.4,2-2C1379.4,1298.7,1378.7,1299.4,1378.1,1300.1z"/>
	<path class="st28" d="M1380.1,1298.1c0.7-0.7,1.3-1.4,2-2.1C1381.4,1296.7,1380.7,1297.4,1380.1,1298.1z"/>
	<path class="st28" d="M1380,1289.9c-0.7,0.7-1.3,1.4-2,2.1C1378.6,1291.3,1379.3,1290.6,1380,1289.9z"/>
	<path class="st39" d="M685.6,1307.3c-1.7-2.8-3-5.3-3.3-8.3c-2.1-21.4-5.5-101.1-1.4-112.3c3.4,8.1,4.4,16.3,6.2,24.2
		c4.7,20.7,8.9,41.4,13.8,62.1c1.1,4.6,0.7,8.3-1.6,12.3c-2.7,4.6-5,9.4-7.3,14.2C690.5,1302.3,689.2,1305.4,685.6,1307.3z"/>
	<path class="st40" d="M1412,2034c-3.2,20.4-10.1,39.7-16.8,59.2c-10.3,29.9-31.3,52.2-51.7,74.9c-7.7,8.6-16.5,16.2-27.4,23.9
		c2.8-12.5,4.3-23.3,11.3-33.3c8.2-11.6,14.5-24.6,21.4-37.1c19-34,38.8-67.5,61.4-99.1C1415.3,2025.7,1412.8,2030,1412,2034z"/>
	<path class="st41" d="M694.1,597.3c-17.3-11.2-34.2-20.6-49.4-32.4c-13.6-10.5-26.9-11.2-42.6-6.9c-17.6,4.8-35.6,7.8-53.5,11.4
		c-2.3,0.5-4.6,0.6-6.9,0.6c-9.5,0-14.6-3.8-15.7-11.8c-1.2-8.3,2.8-15.2,11.2-17.5c7.3-2.1,14.9-3.3,22.4-4.6
		c9.2-1.6,18.1-3.8,27.5-6.8c-2.1-3.8-5.9-4.9-8.4-7.4c-6.9-7-8.6-14.1-4.3-20.5c4.3-6.4,13.1-8.5,21.3-4.3
		c5.6,2.8,10.7,6.6,16.1,10c2.5,1.6,5.2,3.1,7.4,5.1c8.2,7.5,17.1,8,27.6,5.4c22.5-5.5,45.3-10.1,68-14.9c2.9-0.6,6-0.8,8.9-0.6
		c7.5,0.6,13.3,6.3,14.2,13.3c0.8,6.4-3.4,13.1-10.1,15.6c-3.7,1.4-7.7,2.1-11.6,2.9c-13.6,2.9-27.2,5.7-40.8,8.7
		c-1.5,0.3-2.8,1.4-5.1,2.5c11.3,7.4,21.8,14.3,32.3,21.1c4.7,3.1,9.6,5.9,14.3,9.1c4.6,3.2,9,3.3,14,0.4
		c6.6-3.9,12.4-8.9,18.3-13.7c8.9-7.2,20.8-3.6,24.1,6.9c1.8,5.7-0.1,10.6-3.8,14.7c-3.4,3.7-7,7.1-10.6,10.6
		c-3.1,2.9-2.4,4.8,1.1,6.7c13.3,7.5,26.5,15.3,39.8,22.9c24.3,13.8,48.5,27.8,72.9,41.3c16.6,9.2,33.5,17.9,50.4,26.5
		c19,9.7,37.9,19.3,57.2,28.4c28.3,13.4,56.9,26,85.6,38.3c37.6,16,75.7,31,114.2,44.8c35.1,12.5,70.4,24.3,105.9,35.5
		c27.9,8.7,55.9,17.2,84.1,25c33.3,9.1,66.3,19.5,99.6,28.6c20.5,5.6,41.1,10.6,62,14.7c6.2,1.2,12.4,2,18.6,3.2
		c2.2,0.4,4.5,1.3,6.5,2.4c5.9,3.5,8.9,11.2,7,17.3c-1.9,6.2-10.4,11.8-17.7,10.1c-13.3-3.1-26.9-3.7-40.2-6.8
		c-35.3-8.3-69.9-18.6-104.6-28.8c-35.4-10.4-70.9-20.2-106.3-30.4c-10.2-3-20.3-6.5-30.4-9.9c-33.1-11.1-66.4-21.6-99.3-33.4
		c-34.7-12.5-69.1-25.9-103.1-40.3c-30-12.7-59.7-26.1-89.4-39.6c-35.2-16-69.5-33.7-103.4-52.2c-36.5-19.9-72.3-41.1-108.4-61.7
		c-10.1-5.8-20.2-11.6-30.4-17.3c-8-4.5-9.7-4.2-16.8,1.9c-4.8,4.1-9.4,8.5-14.4,12.3c-9.3,7-21.8,2.2-24.1-9.2
		c-1-5,0.6-9.2,4.1-12.7C683.7,607.2,688.3,602.9,694.1,597.3z"/>
	<path class="st41" d="M1817.2,951.2c-2.8-8-7.7-14-11.5-20.5c-4-6.9-8.3-13.7-12.3-20.6c-1.8-3.2-2.9-6.7-3.4-10.3
		c-1.2-9.8,3.3-14,10.6-17c6.5-2.7,13.8,0.3,17.5,7.7c4.5,9,9.9,17.3,15.1,25.8c7.3,11.9,14.7,23.7,22,35.6
		c2.6,4.4,5.9,6.4,11.3,6.3c18.3-0.4,36.6-0.2,55-0.1c6.8,0,13-1.8,19.8-4.8c-3-4.1-5.4-8-8.5-11.3c-18.9-20.2-39-39-61.9-54.7
		c-32.9-22.6-66.8-43.6-102.2-62c-9.4-4.9-11.6-8.7-10.7-18.1c0.6-6.6,5-10.7,11.7-11.3c6.9-0.7,13.2,1.4,19.1,4.6
		c30.8,17.1,60.9,35.4,90.3,54.9c26.7,17.8,51.2,38,72.9,61.7c7.9,8.6,15.1,17.7,21.3,27.6c8.4,13.5,5.8,24.6-8.2,32.7
		c-10.8,6.3-22.8,8.6-35,10.7c-15.2,2.6-30.5,1.5-46.1,2c-0.3,3.9,2.4,6.1,4.1,8.7c1.4,2.2,3.3,4.2,4.6,6.4
		c4.7,8.3,3.9,13.9-2.5,19.6c-5.1,4.6-14,4.5-20.2-0.3c-5.1-3.9-8.1-9.7-11.8-14.7c-4.6-6.1-8.9-12.4-13.3-18.7
		c-1.5-2.2-2.8-4.8-5.8-4.9c-19.6-1-38.6-5.7-58-8.1c-1.9-0.2-4-0.6-5.9,0.8c-0.9,3.3,1.5,5.5,2.9,8c2.2,4.1,4.7,8.1,6.5,12.3
		c2.9,6.6,0.8,13.7-4.8,17.7c-5.5,4-11.9,4-17.6-0.2c-3-2.2-5.1-5.1-6.9-8.4c-6.8-11.8-13.8-23.5-20.5-35.4
		c-1.8-3.2-4.2-4.5-7.7-5.4c-22.5-5.7-44.9-11.8-67.4-17.8c-4.5-1.2-9-2.5-13.3-4.1c-8.4-3.1-12.3-10.7-10-19.1
		c2-7.2,11.2-11.9,19.4-9.7c14.8,3.9,29.5,8,44.2,12c3.5,0.9,7,1.7,10.9,2.6c1.2-3.3-0.7-5.3-1.9-7.4c-4.2-7.5-8.8-14.9-12.8-22.5
		c-2.2-4.1-4.2-8.4-3.6-13.3c0.8-5.9,5.3-11,10.4-12.2c7.4-1.7,13.8,0.7,17.5,6.4c8.5,13.1,15.4,27.2,22.7,41
		c12.1,22.7,7,17.5,31,22.6c10.7,2.3,21.6,3.3,32.4,5.4C1809.5,952.2,1812.8,952.6,1817.2,951.2z"/>
	<path class="st42" d="M1792,742.1c-0.1-1.4-1.7-3.6,0.9-3.9c3.2-0.4,6.4-0.5,9.6,1.4c13.8,7.8,27.6,15.7,41,24
		c17,10.5,33.3,22.4,48.8,35.3c14.8,12.3,29,25.1,42.4,38.8c1.6,1.6,4.1,3.6-0.7,4.3c-13.2-10.1-26.4-20.3-39.6-30.3
		c-30.6-23.1-62.8-43.8-95.2-64.3C1796.6,745.8,1793.8,744.7,1792,742.1z"/>
	<path class="st41" d="M1074.7,380.9c-1,5.3-0.9,10.3-0.2,15.2c1.6,10.3-3.1,18.4-11.5,19.7c-8.8,1.3-18.3-6.8-18.7-16.7
		c-0.4-12.3-1.2-24.7,2.2-36.7c1.4-4.9-0.3-7.2-3.7-10.1c-8.7-7.2-17.2-14.6-25.6-22.2c-6.2-5.6-12.3-11.2-18.4-16.8
		c-15.8-14.8-29.6-31.4-41.7-49.4c-4.1-6.1-4.7-12.5-0.4-18.7c3.7-5.3,9.4-5.6,15.3-5.2c3.7,0.2,5.9,2.8,8.3,5.1
		c8.5,8,14.5,18.2,22.1,27c7.2,8.3,14.7,16.3,22.9,23.7c7.6,6.9,15.3,13.8,22.7,21c2.4,2.3,4.9,4.5,9,4.8
		c5.1-13.3,10.1-26.6,15.4-39.8c1.3-3.4-0.5-4.9-2.4-6.8c-12.1-11.9-23.2-24.7-33.8-38c-8.7-10.9-18.2-21.2-25.4-33.2
		c-3.1-5.2-5.6-10.7-2.1-16.7c5.9-10.1,15.6-11.5,24.1-3.4c8.2,7.8,13.9,17.8,21.2,26.4c9.2,10.9,17.6,22.5,27.7,32.6
		c1.6,1.6,2.8,3.8,5.8,4.2c6.3-10.8,10.8-22.7,17.9-33.2c3-4.4,5.4-9.2,8.9-13.2c4-4.8,9.5-7.5,16-5.9c6.5,1.5,10,6.2,11.2,12.7
		c0.8,4.5-1.1,8.5-3.4,12.1c-8.9,13.7-15.8,28.5-23,43.1c-3.3,6.6-5.5,7.9,3.1,14.9c10.5,8.6,21,17.4,32,25.4c2.3,1.7,4.9,3,8,4.9
		c3.5-9.3,6.7-17.9,10.1-26.5c4.3-11.3,10.1-21.7,18.1-30.8c5.6-6.4,12-7.8,18.7-4.7c7.5,3.5,10.4,10.2,7.6,18.1
		c-2.8,7.9-8.7,14.1-12.4,21.5c-6.3,12.5-10.1,26-15,39c-1.1,2.8,0.4,4.4,2.6,5.7c18.5,11.1,36.1,23.8,55.3,33.8
		c13,6.7,25.7,14.1,39,20.3c55.4,25.8,110.6,52.3,168.4,72.8c18.2,6.4,36.2,13.2,54.5,19.4c2.8,1,5.6,2.1,8.2,3.5
		c7.7,4.2,11.2,12.5,8.3,19.2c-2.9,6.9-12.5,11.2-20.3,8.5c-16-5.4-32.1-11-47.9-16.9c-25.9-9.6-51.9-18.7-77.1-30
		c-20.3-9.1-40.8-17.8-61.1-27.1c-17.2-7.9-34.2-16.3-51.3-24.5c-28.5-13.7-55.9-29.5-82.4-46.7c-7.1-4.6-7.3-4.6-10,3.5
		c-2.7,8.2-5.6,16.3-7.7,24.7c-1.1,4.5,0,7,3.5,9.1c1.1,0.7,2.3,1.3,3.5,1.9c25.5,13,50.7,26.6,76.5,38.9
		c22.5,10.7,44.9,21.7,68.2,30.6c6.1,2.3,12.5,4.6,15.2,11.9c3.2,8.4-2.3,18.3-11.2,19.4c-6.5,0.8-12.5-1.1-18.4-3.7
		c-37-15.9-73.5-33-109.2-51.6c-9.4-4.9-19.1-9.3-28.3-14.9c-5.5-3.3-7.4-2.2-7.2,4.1c0.2,7.7-1.2,15.2-2.2,22.8
		c-0.9,7-7.7,13.1-14.1,13.1c-7.4,0-13.9-6.1-14-13.9c-0.2-12-0.2-24,0.4-36c0.3-7.1-1.8-11.5-8.3-15.3c-12.1-6.9-24.2-14-35.1-22.7
		C1080.8,382.4,1078.7,380.6,1074.7,380.9z"/>
	<path class="st43" d="M1573.9,504.8c0.1,7.7-6.7,14.5-14.3,15.3c-5.7,0.7-14.7-9.2-15-14c-0.4-7,6.3-14,13.7-14.2
		C1567.7,491.6,1573.8,496.6,1573.9,504.8z"/>
	<path d="M1116.5,2104c-43.8,1.8-82.1-11.1-117-33.9c-36.3-23.6-57-58.5-67-100.1c-1.2-5.1-0.6-10.6-0.5-15.9
		c0.2-6.3,4-10.6,10-11.8c4.6-0.9,11.1,2.2,13.3,6.9c1.3,3,2.3,6.3,2.6,9.5c2.5,25.4,13.6,47.1,30,65.9
		c24.5,28.1,56.5,43.8,92.6,50.7c24.2,4.6,48.8,4.5,73.1-1c2.9-0.6,6-0.5,8.9-0.5c7.8,0.1,10.2,2,12.1,9.1
		c1.2,4.7-1.2,10.6-5.9,13.5c-2.8,1.7-5.9,2.8-9.2,3.6C1144.9,2104.2,1130,2104.4,1116.5,2104z"/>
	<path class="st44" d="M950.5,939.5c-0.9,0.9-1.9,1.9-2.8,2.8c-0.7-0.7-1.4-1.3-2-2c-0.7-1-1.6-2.3-0.5-3.4c1.1-1.1,2.4-0.3,3.3,0.5
		C949.2,938.1,949.8,938.8,950.5,939.5z"/>
	<path class="st44" d="M954,942c-0.7-0.5-1.4-1.1-2.1-1.6C953,940.5,953.6,941.1,954,942z"/>
	<path class="st44" d="M948.3,943.9c1,0.5,1.5,1.2,1.5,2.3C948.9,945.7,948.3,945,948.3,943.9z"/>
	<path d="M818,1332c-28.6-13.8-48.7-36.1-64.7-63c-12.5-21-17.1-44.4-23.8-67.3c-4.8-16-4.2-32.1-2.2-48.3
		c1.4-11.1,8.2-18.9,17.2-24.3c8.2-5,17.2-8.6,25.9-12.9c7.1-3.5,15-2.7,22.5-3.7c24.3-3.4,48.7-5.8,73.2-6.4
		c4.6-0.1,9.2,0.2,13.8,1.3c5.1,1.2,10.5,0.5,15.8-0.2c12.5-1.7,25.1-2.5,37.6,0.3c5.8,1.3,11.9,1.3,17.7,2
		c14.5,1.7,21.1,11.3,26.5,22.8c1.4,2.9,2.2,6.4,2.2,9.7c-0.2,19.3,2,38.6-1.3,57.8c-0.4,2.3-0.5,4.7-0.4,7
		c0.9,19.5-3.7,38.4-8.7,56.8c-4,14.4-12.2,27.4-21.5,39.1c-9.2,11.6-19.1,22.8-33,29.6c-15.7,7.7-32,13.5-49.5,13.5
		c-13.7,0-26.8-4.4-39.3-9.8c-1-1.2-2.9-0.8-4-2C821,1332.8,819.1,1333.2,818,1332z"/>
	<path class="st17" d="M694,1132c5.1,1.9,10.3,2.3,15.7,2c3.9-0.2,6.4,1.1,6.3,5.6c-0.3,10.6,0.8,21.1,1.7,31.7
		c0.9,9.5,3.4,19,2.4,28.7c0,0-0.1,0.1-0.1,0.1c-6.1-4.7-6.2-11.9-6.5-18.3c-0.6-11.3-3.1-22.4-2.4-33.8c0.3-5.5-1.9-8.7-7.9-9.2
		C699,1138.4,694.1,1138.2,694,1132L694,1132z"/>
	<path class="st45" d="M822,1334c1.7,0,3.1,0.4,4,2C824.3,1336,822.9,1335.6,822,1334z"/>
	<path class="st45" d="M818,1332c1.7,0,3.1,0.4,4,2C820.3,1334,818.9,1333.6,818,1332z"/>
	<path class="st40" d="M696,2149.6c-5.1-6.6-7-13.4-7.7-21.4c-1.1-12.1-4.5-24.1-6.8-36.1c-3-15.6-3.8-31.4-5.9-47.8
		c4.6,0.8,6,4.2,8.2,6.3c6,5.8,11.7,11.9,17.9,17.5c4.7,4.3,9.7,8,16.6,8.3c5.5,0.2,8.3,3.9,9,9.1c0.7,5,1,10-1,14.8
		C718.8,2118,711,2135.7,696,2149.6z"/>
	<path d="M694,1132.1c2.2,4.6,6.5,3.9,10.4,4c9.5,0.2,9.7,0.3,9.6,9.2c-0.1,17.3,2.3,34.3,4.1,51.4c0.1,1.4,0.8,2.5,1.9,3.4
		c-0.2,1.6,0.5,3.4-2.1,5.2c-2.3-7.3-6.5-13.5-7.8-20.9c-0.4-2.2,0.5-5.4-2.5-5.7c-1.6-0.2-3.4,2-4.8,3c-3.1-10.9-2.8-22.1-2.7-33.4
		c0-4.5-1.1-7.4-6.3-8.3c-8.6-1.5-14.3-10.9-13.7-21c0.5-7.2,6.7-12.2,16-12.9c-1,1.6-3.1,1.1-4.1,2.4c-0.6,0.7-1.2,1.4-1.7,2.1
		c-0.5,0.7-1.4,1.6-1.4,2.2c-0.8,7.7-4.7,11.9,0.7,17.4C690.8,1131.4,692.3,1131.8,694,1132.1z"/>
	<path class="st46" d="M748.1,1086.5c0.1-1.3,0.2-2.6,0.3-3.9c0.9-12.7,2.2-12,12.3-9.3c0.9,0.2,2,0.2,2.9,0.4c3.2,0.7,7.6-1,8,4.8
		c0.5,7.3-0.6,10-6.4,12.2c-2.8,1.1-5.5,2.4-8.4,2.9C747.6,1095.5,746.8,1094.3,748.1,1086.5z"/>
	<path d="M696.4,1105.8c1.9-1.7,3.7-2.4,5.7-0.9C700.4,1107.3,697.8,1104.9,696.4,1105.8z"/>
	<path class="st16" d="M1399.2,1261.3c-0.7-1.5-1-1.8-0.9-2.1c0.7-3.1,0.6-6.6,3.9-8.4c0.4-0.2,2.2,0.7,2.3,1.3
		C1405.2,1256.3,1402.5,1258.6,1399.2,1261.3z"/>
	<path class="st9" d="M1097.7,302c11.1,6.5,19.4,15.3,29.2,22c4.9,3.4,9.5,7.2,14.4,10.7c3.6,2.6,5.4,5.1,3.7,10
		c-3.3,9.7-5.8,19.8-8.9,29.6c-1.8,5.6-2.3,5.9-7.7,2.8c-14.5-8.2-27.7-18.4-41.4-27.8c-4.8-3.3-3.6-8.3-2.1-12.7
		C1088.7,325.3,1091.8,313.7,1097.7,302z"/>
	<path class="st16" d="M830,1328c-18.8-8.8-35.2-21-49.4-36.3c-7.2-7.9-11.5-17.8-18.6-25.7c-2-5.5-1.8-11,0.5-16.4
		C779,1211,794.4,1172,810,1133c1.4-3.5,3.1-6.6,6-9c3.6-2.2,7.6-1.9,11.5-1.9c15.5,0,31-0.1,46.5-0.1c13.2-2.1,26.5-0.4,39.7-1
		c4.1-0.2,5.4,1.6,4.5,5.4c-0.6,2.3-1.3,4.5-2.2,6.6c-24.6,62.3-50.2,124.1-75.3,186.2C838.8,1323.8,837.6,1330.1,830,1328z"/>
	<path class="st15" d="M830,1328c4.7,0,6-3.6,7.4-7c14.5-36,28.5-72.2,43.4-108c11.9-28.5,23.1-57.2,34.7-85.8
		c0.5-1.2,0.8-2.5,1.6-5.1c-14.9,0-29,0-43.1,0c2.3-2.8,5.5-2,8.4-2c19.6-0.1,39.2-0.1,58.9,0c14,0.1,22.3,6.1,26.9,19.2
		c5.4,15.5,4.7,31.3,2.8,47.2c-1.2,9.8-1.6,19.7-2.6,29.6c-1.2,11.8-3.1,23.6-5.3,35.2c-2.4,12.7-8.9,24.3-16.5,34.7
		c-11.5,15.9-25.1,30-42.8,39.4c-10.9,5.8-22.5,9.9-34.6,11.5c-5.5,0.7-11.7-0.6-17.5-2.5C844.5,1332,836.9,1331,830,1328z"/>
	<path class="st15" d="M816,1124c-8.6,21.9-17.1,43.9-25.9,65.7c-8.2,20.3-16.8,40.5-25.2,60.7c-2,4.9-3.5,10-2.8,15.5
		c-11.5-19.8-16.8-41.9-22.8-63.7c-2.3-8.2-3.5-16.8-5-25.2c-0.3-1.6-0.6-3.7,0.2-4.9c3.9-6.1,4-13.1,5.8-19.8c1.4-5,4.3-9,8.7-11.7
		c11.6-7.3,23.9-12.3,37.5-14.8C796.2,1124,806.1,1124,816,1124z"/>
</g>
</svg>
