<?xml version="1.0" encoding="utf-8"?>
<!-- Generator: Adobe Illustrator 22.0.1, SVG Export Plug-In . SVG Version: 6.00 Build 0)  -->
<svg version="1.1" id="Layer_1" xmlns="http://www.w3.org/2000/svg" xmlns:xlink="http://www.w3.org/1999/xlink" x="0px" y="0px"
	 viewBox="0 0 257.2 517" style="enable-background:new 0 0 257.2 517;" xml:space="preserve">
<style type="text/css">
	.st0{fill:#FFFFFF;}
	.st1{fill:#EDEDED;}
	.st2{fill:#F2FEF1;}
	.st3{fill:#FE2E30;}
	.st4{fill:#1A191A;}
	.st5{fill:#FAC298;}
	.st6{fill:#EEE8EE;}
	.st7{fill:#936A48;}
	.st8{fill:#1A1A1A;}
	.st9{fill:#121112;}
	.st10{fill:#F7DF21;}
	.st11{fill:#A14E1D;}
	.st12{fill:#FEA0C2;}
	.st13{fill:#FE5B98;}
	.st14{fill:#121212;}
	.st15{fill:#FE8BB6;}
	.st16{fill:#FEAFCD;}
	.st17{fill:#FE96BD;}
	.st18{fill:#FD2E30;}
	.st19{fill:#FDD6E4;}
	.st20{fill:#FDD6E5;}
	.st21{fill:#FDD5E4;}
	.st22{fill:#FCD5E4;}
	.st23{fill:#FCD5E3;}
	.st24{fill:#FCD4E3;}
	.st25{fill:#FC2D2F;}
	.st26{fill:#FA2D2F;}
	.st27{fill:#FBD3E2;}
	.st28{fill:#FAD3E1;}
	.st29{fill:#FAD3E2;}
	.st30{fill:#F7D0DF;}
	.st31{fill:#FAD2E1;}
	.st32{fill:#111011;}
	.st33{fill:#F0CAD8;}
	.st34{fill:#191819;}
	.st35{fill:#3A0B0C;}
	.st36{fill:#571212;}
</style>
<g>
	<g>
		<path d="M45.2,515.5c-1.3,0-2.6,0-3.8-0.1c-5.1-0.1-11.2-0.5-17-2.2c-8.1-2.3-12.8-8.1-13.5-16.5c-0.9-11.6,5.9-21.9,17-25.4
			c2.2-0.7,4.6-1.1,6.9-1.1c1.7,0,3.4,0.2,5.2,0.5c-0.3-0.7-0.6-1.5-0.9-2.2l-0.1-0.3c-3.7-8.6-8.4-16.8-13-24.7l-0.6-1
			c-0.1-0.1-0.1-0.2-0.2-0.4c-1.1-2-0.3-3.4,0.3-4c0.6-0.7,1.5-1.1,2.4-1.1c0.5,0,1.1,0.1,1.6,0.4c0.8,0.4,1.7,0.7,2.5,1.1
			c1,0.4,2,0.9,3,1.3c1.1,0.5,2.2,1,3.3,1.4c1.1,0.5,2.2,0.9,3.3,1.4c-0.4-5.3-0.9-10.7-1.2-16.1c-0.3-4-0.4-8-0.6-12l0-0.9
			c-0.4-8.7-0.5-16.8-0.4-24.8c0.1-7.3,0.4-15,1-24.3c0.2-3.2,0.5-6.5,0.8-9.6c0.1-1.7,0.3-3.4,0.4-5.2c0.1-1,0.1-2,0.2-2.9
			c0.1-1.8,0.2-3.6,0.4-5.4c0.2-2,0.5-4.2,1-6.5c-2-0.6-3.8-1.4-5.6-2.4c-0.3-0.2-1-0.6-1.2-1.4c-0.2-0.8,0.2-1.5,0.3-1.7
			c0.2-0.3,0.4-0.6,0.5-1c0.1-0.2,0.2-0.3,0.3-0.5c-5.7-4.3-7.7-10.3-6.1-18.3c0.3-1.6,0.8-3.8,1.7-5.8c0.5-1,0.6-2.1,0.4-3.6
			c-1.7-17.5-1.1-33.6,2.1-49.2c1.6-7.9,3.8-14.8,6.6-21.1c2.2-4.9,5.6-9.2,8.5-12.8c9.4-11.5,21-20.7,32.2-29
			c-0.9-0.5-1.7-1.1-2.6-1.7c-1.8-1.4-4.1-3.3-5.4-6.1c-1.9-4.1-0.9-8.2,2.6-11c2.3-1.8,4.9-2.7,7.1-3.2
			c-5.1-8.6-8.6-17.5-10.5-26.6c-1-5-1.4-10.3-1.2-16.3c0.1-3.1,0.2-5.9,0.6-8.7c-0.7-0.2-1.5-0.4-2.3-0.7c-2,3.9-3.2,8.1-3.6,12.7
			c-0.7,6.3,0.1,12.8,0.8,18.5c0.5,4.5,1.1,9.6,0.9,14.7c-0.3,5.6-2.2,10.7-5.9,15.7c-7.1,9.5-16.9,14.9-29.2,16.1
			c-0.3,0-0.5,0-0.8,0c-0.2,0-0.3,0-0.5,0c-0.1,0-0.2,0-0.4,0c-2.2,0-3-1.3-3.3-2.1c-0.4-1-0.5-2.5,1.2-4c1.5-1.3,3-2.8,4.5-4.5
			c2.5-2.9,4.3-5.7,5.6-8.7c1.6-3.7,1.7-7.3,0.5-11c-2.1-6.2-5.6-12.1-10.6-18.1c-1.7-2.1-3.6-4.2-5.3-6.2c-2.3-2.6-4.7-5.4-6.9-8.1
			c-7.5-9.2-12.6-20-15.1-32c-1.4-6.6-1.8-13.3-1.1-19.9C2.4,70.8,4.6,65.2,6.5,61c4.4-9.9,10.3-17.5,18-23.2
			c5.7-4.2,12.4-7.2,19.8-8.7c2-0.4,4.1-0.7,6.6-0.9c-4.6-5.3-6.6-11.8-6.1-19.5c0.1-1.3,0.2-2.8,0.6-4.4c0.3-1.4,1.3-2.4,2.6-2.7
			c0.2-0.1,0.5-0.1,0.7-0.1c1,0,2,0.5,2.7,1.4c3.5,4.7,8.3,7.9,15.7,10.4c2.9,1,5.9,1.5,9.2,1.5c2.7,0,5.7-0.3,9.1-1
			c1.3-0.3,2.5-0.5,3.8-0.8c4.1-0.9,8.3-1.8,12.5-2.3c4.4-0.6,8.7-0.9,12.9-0.9c2.1,0,4.2,0.1,6.2,0.2c4.3,0.3,9.3,0.8,14.2,2
			c9,2.3,15.9,6.2,21.2,12.1c0.1,0,0.4-0.1,0.4-0.1c0.6-0.1,1.1-0.2,1.7-0.2c1.1,0,2.2,0.2,3.3,0.7c1.8,0.8,3.1,2.3,3.7,4.4
			c3.3-0.3,6.5-0.4,9.8-0.4c2.5,0,5,0.1,7.6,0.2c8.1,0.5,16,2,23.5,4.4c10.3,3.3,19.1,7.3,27.2,12.2c2.3,1.4,4.9,3.1,7.1,5.5
			c2.4,2.4,2.7,4.6,2.5,6c-0.2,1.4-1,3.4-3.9,5.2c-2.3,1.4-4.7,2.2-7,2.9c0.9,1.2,1.9,2.4,2.8,3.7c8.7,11.9,14.9,25.6,18.2,40.7
			c2.3,10.5,3.2,21.8,2.5,33.3c-1,17.2-5,33.6-11.9,48.8c-4.4,9.7-9.3,17.7-15,24.3c-1.6,1.9-3.4,3.8-5.7,5.2
			c-1.2,0.7-2.2,1.1-3.2,1.1c0,0,0,0,0,0c-2.4,0-3.6-2.1-4.1-2.8c-1.6-2.6-2.7-5.4-3.9-8.1c-0.3-0.7-0.6-1.4-0.9-2.1l-0.3-0.8
			c-1.8-4.1-3.6-8.4-5.7-12.4c0,4.8-1,9.3-3,13.3c-1.2,2.5-2.9,4.9-5,7.2c-1.6,1.8-3,3.3-4.6,4.6c0.3,0.9,0.5,1.8,0.8,2.7
			c0.7,2.4,1.4,4.8,1.9,7.3c0.2,1.2,0.5,2.5,0.8,3.7c0.9,4.3,1.9,8.8,2,13.5c0,1.2,0.2,2.4,0.3,3.7l0.1,0.7
			c0.6,5.1,0.2,10.5-1.2,17.3c-2.1,10.1-4.9,18.2-8.7,25.4c-2.5,4.8-5.7,10.4-10.2,15.5c-1.1,1.2-2.3,2.3-3.5,3.3
			c-0.1,0.1-0.1,0.1-0.1,0.1l0,0c0,0,0,0,0,0.2c0.1,3.8-0.3,6.8-1.3,9.5c-2.1,5.6-5.9,9.6-11.3,11.9c-1.8,0.8-3.7,1.2-6.1,1.4
			c1.2,2.8,2.2,5.6,3.1,8.4c1.5,4.6,2.6,9.4,3.6,13.8c0.5,2,0.9,4.1,1.4,6.1l0.6,2.8c0.9,3.2,1.5,6.4,2,9.6l0.1,0.4
			c0.2,1,0.4,1.9,0.7,3c0.2,0.8,0.4,1.6,0.6,2.5c0.7,3.2,1.1,6.3,1.6,9.3c0.2,2.1,0.6,4.2,1,6.2c0.2,0.9,0.3,1.8,0.5,2.6
			c0.7,3.9,1.5,8.5,2.5,13.2c0.8,4.1,1.2,8.3,1.5,12.4c0.1,1,0.2,2,0.3,3c0.4,4.5,0.8,9.1,1.1,13.6l0.2,2.9c2.6-0.6,5.2-1.1,7.8-1.7
			l3.8-0.8c0.3-0.1,0.8-0.2,1.3-0.2c1.3,0,2.1,0.7,2.6,1.2c0.9,1.1,0.9,2.5,0.1,4c-2.5,4.9-5.5,10.4-9.1,15.5c0.5,0,0.9,0,1.4,0
			c4.7,0,9.3,1.3,13.6,4c3,1.9,5,4.7,6,8.4c2.6,9.9,1.4,19.5-3.6,28.5c-2.1,3.7-5.5,5.9-10.5,6.6c-7.3,1.1-15.2,1.6-23.9,1.6
			c-1.9,0-3.7,0-5.6-0.1c-4.4-0.1-9.1-0.4-14.9-0.9c-3.1-0.3-6.2-0.7-9.2-1.1c-1-0.1-2-0.3-3.1-0.4c-1.2-0.1-3.2-0.8-3.3-3.9
			c-0.1-4.7-0.6-9.3-1.4-13.6c-1.3-7.2-3.7-14.1-5.7-19.2l-0.2-0.5c-0.1-0.3-0.2-0.7-0.4-1c-0.5-1.3-0.2-2.6,0.7-3.5
			c0.6-0.7,1.4-1,2.3-1c0.4,0,0.8,0.1,1.2,0.2c0.4,0.1,0.9,0.3,1.3,0.5c-0.9-2.8-2.1-5.9-3.7-9.5l-0.1-0.2c-0.3-0.5-0.6-1.2-0.6-2.1
			c0-1.8,1.2-3.1,3.1-3.3c1.1-0.1,2.2-0.3,3.3-0.4c-3.1-8.5-6.2-17.4-9.3-26.5c-3.4-10-6.6-20.3-9.9-31.4
			c-2.4-8.1-4.9-16.5-7.5-25.7c-1.7-6.2-3.6-12.5-5.4-18.5l-0.1-0.5c-0.1,0.2-0.1,0.5-0.2,0.7c-1.6,6.4-2.7,11.7-3.5,16.9
			c-0.6,3.9-1.2,7.7-1.9,11.5c-0.6,3.4-1.2,7-1.7,10.4c-0.7,4.6-1.3,9.3-2,13.8l-0.6,4.3c-0.9,6.7-1.6,13.4-2.3,19.7
			c-1,10.1-1.8,17.9-2.3,25.1c-0.1,0.9-0.1,1.8-0.3,2.7c1.1,0.2,2.1,0.5,3.2,0.8c0.5,0.1,1,0.3,1.5,0.4c2.5,0.6,3.4,2,3.1,4.6
			c-0.5,4-1.5,7.7-2.9,11.4l2.4-0.5c0.3-0.1,0.6-0.1,0.9-0.2c0.3-0.1,0.6-0.1,0.8-0.1c1.1,0,2,0.5,2.7,1.4c0.5,0.7,1.1,2.1-0.1,3.9
			c-1.6,2.4-2.9,4.5-4,6.5c-2.1,3.7-4.3,8.1-5.2,12.9c-0.6,3.1-0.7,5.5-0.3,7.7c0.4,2.9-0.4,4.2-3.2,5.1c-5.1,1.6-10.6,2.7-16.7,3.5
			C58.4,515.1,51.7,515.5,45.2,515.5z M156.4,264.1c0,0,0,0.1-0.1,0.2c-1.1,3.1-2.1,6.2-2.9,9.1c-0.4,1.7-0.8,3.3-1.1,4.8
			c2.9-2.5,5.6-5.3,8-8.5c2-2.6,4.1-5.3,4.9-8.5c1.4-5.6,2.1-11.4,1.9-17.5c0,0,0-0.1,0-0.1c-1.4,2.1-2.6,4-3.8,5.9
			c0,0,0,0.8-0.1,1.1c0,0.9-0.1,1.8-0.2,2.7C162.4,258.3,160.2,261.9,156.4,264.1C156.4,264.1,156.4,264.1,156.4,264.1z M68.2,245
			c-0.1,1.6,0,3.3,0.3,5.3c0.7,5,2,10.2,4,17c0.1,0.4,0.2,0.8,0.4,1.1c2.3-5.3,3.8-10.6,5-15.3C73.6,251.4,70.4,248.7,68.2,245z"/>
		<path class="st0" d="M48.6,3c0.6,0,1.1,0.3,1.5,0.8c4.2,5.6,9.9,8.7,16.4,10.9c3.2,1.1,6.5,1.6,9.7,1.6c3.1,0,6.2-0.4,9.4-1.1
			c5.4-1.1,10.8-2.4,16.2-3.1c4.2-0.6,8.4-0.9,12.7-0.9c2,0,4.1,0.1,6.1,0.2c4.7,0.3,9.3,0.8,13.9,2c7.9,2,15,5.5,20.6,11.7
			c0.3,0.3,0.6,0.4,0.9,0.4c0.3,0,0.5-0.1,0.8-0.1c0.5-0.1,0.9-0.1,1.4-0.1c0.9,0,1.8,0.2,2.7,0.6c1.7,0.7,2.6,2.2,3,3.9
			c0.1,0.5,0.3,0.7,0.7,0.7c0.1,0,0.1,0,0.2,0c3.4-0.3,6.8-0.5,10.3-0.5c2.5,0,5,0.1,7.5,0.2c7.9,0.5,15.6,1.9,23.2,4.3
			c9.4,3,18.4,6.9,26.8,12.1c2.5,1.5,4.8,3.1,6.8,5.2c3.2,3.3,2.8,6.5-1.1,8.9c-2.4,1.5-5.2,2.3-7.9,3c-0.3,0.1-0.5,0.1-0.8,0.3
			c1.4,1.8,2.8,3.5,4.1,5.3c8.9,12.1,14.7,25.5,18,40.1c2.4,10.8,3.1,21.8,2.5,32.9c-1,16.8-4.8,32.9-11.7,48.3
			c-3.9,8.6-8.6,16.8-14.8,23.9c-1.6,1.8-3.3,3.6-5.4,4.9c-0.9,0.6-1.7,0.8-2.4,0.8c-1.1,0-1.9-0.7-2.8-2.1c-1.9-3.2-3.2-6.6-4.7-10
			c-2.6-6-5.2-12.1-8.5-17.7c-0.2-0.3-0.4-0.6-0.7-0.9c0.1,1.1,0.2,2.2,0.3,3.3c0.4,5.3-0.4,10.5-2.7,15.3c-1.2,2.5-2.9,4.8-4.7,6.9
			c-1.5,1.6-3,3.2-4.7,4.6c-0.4,0.3-0.5,0.7-0.3,1.2c0.9,3.4,2,6.7,2.7,10.2c1.1,5.6,2.6,11.1,2.7,16.9c0,1.5,0.2,3.1,0.4,4.6
			c0.7,5.7,0,11.3-1.2,16.9c-1.8,8.7-4.4,17.1-8.6,25c-2.8,5.4-5.9,10.6-10,15.2c-1,1.2-2.2,2.2-3.3,3.2c-0.5,0.4-0.7,0.8-0.7,1.5
			c0.1,3-0.1,6-1.2,8.9c-2,5.1-5.4,8.9-10.5,11.1c-2.3,1-4.8,1.3-7.4,1.3c-0.1,0-0.2,0-0.3,0c1.5,3.4,2.8,6.9,3.9,10.3
			c1.5,4.5,2.5,9.1,3.5,13.7c0.7,3,1.4,6,2,9c1,3.2,1.5,6.5,2,9.8c0.3,1.9,0.9,3.6,1.3,5.5c0.6,3.1,1.1,6.2,1.6,9.3
			c0.3,3,1,6,1.5,8.9c0.8,4.4,1.6,8.8,2.5,13.2c1,5,1.3,10.1,1.8,15.2c0.5,5.8,0.9,11.6,1.4,17.4c0,0.4,0.1,0.6,0.4,0.6
			c0.1,0,0.2,0,0.4-0.1c4.2-0.9,8.4-1.8,12.5-2.7c0.3-0.1,0.6-0.1,0.9-0.1c0.5,0,1,0.2,1.4,0.7c0.6,0.8,0.4,1.6,0,2.4
			c-3.1,6-6.4,12-10.5,17.4c-0.1,0.2-0.2,0.3-0.4,0.6c0.9-0.1,1.7-0.1,2.4-0.2c0.7-0.1,1.4-0.1,2.1-0.1c4.6,0,8.8,1.3,12.8,3.8
			c2.8,1.8,4.5,4.4,5.3,7.5c2.5,9.6,1.3,18.7-3.5,27.4c-2,3.6-5.3,5.3-9.4,5.9c-7.9,1.1-15.7,1.6-23.7,1.6c-1.9,0-3.7,0-5.6-0.1
			c-4.9-0.1-9.9-0.5-14.8-0.9c-4.1-0.4-8.2-0.9-12.2-1.4c-1.3-0.2-1.9-0.9-2-2.4c-0.1-4.7-0.5-9.3-1.4-13.9
			c-1.2-6.7-3.4-13.1-5.8-19.5c-0.2-0.5-0.4-1-0.5-1.4c-0.3-0.7-0.2-1.4,0.4-2c0.4-0.4,0.8-0.5,1.2-0.5c0.2,0,0.5,0,0.8,0.1
			c1,0.3,2,0.7,3,1.1c0.2,0.1,0.4,0.2,0.6,0.2c0.1,0,0.1,0,0.2-0.1c0.3-0.2,0.1-0.6,0-0.9c-1.1-3.9-2.6-7.7-4.3-11.4
			c-0.2-0.5-0.5-1-0.5-1.6c0-1,0.6-1.7,1.8-1.9c1.4-0.2,2.8-0.3,4.2-0.4c0.7-0.1,0.9-0.1,0.6-1c-3.3-9.1-6.5-18.2-9.6-27.4
			c-3.5-10.4-6.8-20.9-9.9-31.4c-2.6-8.5-5-17.1-7.5-25.7c-1.9-6.6-3.8-13.2-5.8-19.8c-0.3-1.1-0.5-2.2-1.1-3.3
			c-0.8,1.6-1.3,3.2-1.7,4.8c-1.4,5.6-2.7,11.3-3.5,17c-1.1,7.3-2.5,14.6-3.6,22c-0.9,6-1.7,12.1-2.5,18.1
			c-0.9,6.6-1.6,13.2-2.3,19.8c-0.9,8.4-1.7,16.8-2.3,25.2c-0.1,1-0.2,2-0.3,3c-0.1,0.7,0,1.1,0.9,1.3c1.7,0.3,3.3,0.8,5,1.2
			c1.8,0.4,2.2,1.1,2,2.9c-0.6,4.7-1.9,9.2-3.8,13.6c1.6-0.3,3.1-0.6,4.6-0.9c0.5-0.1,0.9-0.2,1.4-0.3c0.2,0,0.4-0.1,0.5-0.1
			c0.6,0,1.1,0.2,1.5,0.8c0.5,0.7,0.4,1.5-0.1,2.2c-1.4,2.1-2.8,4.3-4,6.6c-2.3,4.2-4.5,8.5-5.4,13.3c-0.5,2.7-0.8,5.4-0.3,8.2
			c0.3,2.2,0,2.8-2.2,3.5c-5.4,1.7-10.9,2.7-16.4,3.5c-6.5,0.8-13.1,1.3-19.7,1.3c-1.3,0-2.5,0-3.8-0.1c-5.6-0.1-11.2-0.6-16.7-2.1
			c-7.4-2.1-11.8-7.4-12.4-15.2c-0.8-10.8,5.6-20.5,16-23.9c2.2-0.7,4.3-1,6.5-1c2.3,0,4.6,0.4,6.9,1c0.1,0,0.2,0.1,0.3,0.1
			c0.1,0,0.2,0,0.3-0.1c-0.5-1.7-1.3-3.4-2-5.1c-3.8-8.9-8.7-17.3-13.5-25.7c-0.1-0.2-0.2-0.3-0.3-0.5c-0.4-0.8-0.5-1.6,0.1-2.3
			c0.4-0.4,0.8-0.6,1.3-0.6c0.3,0,0.7,0.1,1,0.2c1.8,0.8,3.7,1.7,5.5,2.5c2.7,1.2,5.4,2.3,8,3.4c0.3,0.1,0.5,0.2,0.6,0.2
			c0.2,0,0.3-0.2,0.3-0.8c-0.5-5.9-1-11.7-1.4-17.6c-0.3-4.3-0.5-8.6-0.7-12.8c-0.4-8.2-0.5-16.4-0.4-24.7c0.1-8.1,0.5-16.2,1-24.2
			c0.3-4.9,0.8-9.8,1.2-14.7c0.2-2.7,0.3-5.5,0.6-8.3c0.3-2.4,0.6-4.7,1.1-7c0.1-0.7-0.1-0.8-0.6-0.9c-2-0.6-4-1.4-5.8-2.4
			c-0.5-0.3-0.6-0.5-0.3-1c0.4-0.7,0.7-1.4,1.1-2.1c0.3-0.4,0.2-0.7-0.2-1c-6.1-4.3-7.4-10.3-6-17.2c0.4-1.9,0.8-3.8,1.6-5.5
			c0.6-1.4,0.7-2.9,0.5-4.4c-1.6-16.3-1.2-32.6,2.1-48.7c1.4-7.2,3.5-14.1,6.5-20.8c2.1-4.6,5.1-8.6,8.3-12.4
			c9.4-11.4,20.8-20.6,32.5-29.3c0.4-0.3,0.7-0.5,1.2-0.9c-1.6-0.9-3.1-1.7-4.4-2.7c-2-1.5-3.9-3.2-5-5.5c-1.6-3.4-0.8-6.8,2.2-9.1
			c2.2-1.7,4.8-2.6,7.5-3.2c0.9-0.2,0.9-0.4,0.5-1.1c-5.1-8.4-8.8-17.3-10.8-27c-1.1-5.3-1.4-10.6-1.2-16c0.1-3,0.2-6.1,0.7-9.1
			c0.1-0.6-0.1-0.8-0.7-1c-1.1-0.3-2.2-0.6-3.3-1.1c-0.2-0.1-0.3-0.1-0.4-0.1c-0.3,0-0.4,0.2-0.5,0.5c-2.3,4.3-3.6,8.9-4.1,13.8
			c-0.7,6.3,0,12.6,0.8,18.8c0.6,4.8,1.1,9.6,0.9,14.5c-0.3,5.6-2.3,10.4-5.6,14.8c-7,9.4-16.5,14.4-28.1,15.5c-0.4,0-0.8,0-1.2,0.1
			c-0.1,0-0.2,0-0.3,0c-0.9,0-1.6-0.3-1.9-1.2c-0.4-1,0.1-1.7,0.8-2.3c1.7-1.4,3.2-3,4.6-4.7c2.4-2.7,4.4-5.7,5.8-9
			c1.7-4,1.9-8,0.5-12.1c-2.4-7-6.2-13-10.9-18.6c-4-4.8-8.3-9.4-12.3-14.3c-7.5-9.2-12.3-19.7-14.8-31.3
			c-1.3-6.4-1.8-12.9-1.1-19.4c0.5-5.5,2.3-10.5,4.5-15.5c4-9,9.5-16.7,17.5-22.6c5.8-4.3,12.2-7,19.2-8.5c3.1-0.6,6.2-0.9,9.5-1.1
			c-0.6-0.7-1.1-1.2-1.6-1.7c-5-5.4-6.7-11.8-6.2-18.9c0.1-1.4,0.2-2.8,0.5-4.2c0.2-0.8,0.6-1.4,1.4-1.6C48.3,3,48.5,3,48.6,3
			 M75.6,107.1c0.6,0,0.6-0.6,0.7-2.2c-0.6,0.6-1.3,1.2-2,1.8C74.9,107,75.3,107.1,75.6,107.1 M150.3,281.5c0.6-0.1,0.6-0.1,1-0.4
			c3.9-3,7.3-6.5,10.3-10.4c2.1-2.8,4.3-5.6,5.2-9c1.5-5.9,2.1-11.9,1.9-17.9c0-1.3,0.1-2.7-0.5-4.1c-2.2,3-4.2,6-6.1,9.2
			c-0.1,0.3-0.1,0.5-0.2,0.8c-0.1,1.1-0.1,2.3-0.2,3.4c-0.6,4.1-2.3,7.6-6,9.8c-0.4,0.2-0.6,0.6-0.7,1c-1.1,3-2.1,6.1-2.9,9.3
			C151.3,275.8,150.7,278.6,150.3,281.5 M72.6,272.5c0.3-0.5,0.4-0.8,0.6-1.1c2.8-5.8,4.6-11.8,6.2-18c0.2-1,0-1.2-0.9-1.6
			c-4.1-1.7-7.4-4.3-9.5-8.3c-0.5-1-0.9-2.1-1.4-3.4c-1.2,3.6-1.2,7-0.7,10.4c0.8,5.9,2.4,11.6,4.1,17.2
			C71.6,269.3,72.1,270.8,72.6,272.5 M48.6,0c-0.3,0-0.7,0-1,0.1C45.7,0.5,44.3,2,43.8,4c-0.4,1.7-0.5,3.3-0.6,4.6
			C42.8,15.6,44.4,21.8,48,27c-1.3,0.2-2.7,0.4-4.1,0.7c-7.6,1.6-14.5,4.6-20.4,9C15.6,42.5,9.6,50.2,5.1,60.4
			c-1.9,4.3-4.2,10-4.8,16.4c-0.6,6.7-0.3,13.5,1.2,20.3c2.6,12.3,7.7,23.2,15.4,32.6c2.3,2.8,4.7,5.5,7,8.2c1.8,2,3.6,4.1,5.3,6.1
			c4.9,5.9,8.3,11.6,10.3,17.6c1.1,3.4,1,6.6-0.4,10c-1.2,2.8-3,5.5-5.3,8.3c-1.4,1.6-2.8,3.1-4.3,4.4c-2.6,2.3-2,4.7-1.6,5.7
			c0.8,1.9,2.5,3.1,4.7,3.1c0.2,0,0.3,0,0.5,0c0.1,0,0.3,0,0.4,0c0.3,0,0.6,0,0.9,0c12.7-1.2,22.9-6.8,30.2-16.6
			c3.8-5.1,5.9-10.7,6.2-16.5c0.3-5.2-0.3-10.4-0.9-14.9c-0.7-5.6-1.4-12-0.8-18.2c0.4-3.8,1.3-7.4,2.8-10.7
			c-0.2,2.4-0.3,4.8-0.4,7.3c-0.2,6.1,0.2,11.6,1.2,16.7c1.8,8.7,5,17.2,9.7,25.4c-1.9,0.6-3.9,1.5-5.7,3c-4.1,3.2-5.3,8.1-3.1,12.8
			c1.5,3.1,3.9,5.2,5.9,6.6c0.3,0.2,0.5,0.4,0.8,0.6c-10.7,8-21.7,17-30.7,28c-3,3.7-6.4,8-8.7,13.1c-2.9,6.4-5.1,13.4-6.7,21.5
			c-3.2,15.7-3.9,32-2.1,49.6c0.1,1.3,0,2.1-0.3,2.9c-1,2.2-1.5,4.4-1.8,6.2c-1.6,8.1,0.3,14.4,5.7,19c-0.1,0.1-0.1,0.2-0.2,0.3
			c-0.7,1.2-0.6,2.2-0.5,2.8c0.4,1.4,1.5,2.1,1.9,2.3c1.5,0.8,3,1.5,4.6,2.1c-0.3,1.9-0.6,3.7-0.7,5.4c-0.2,1.8-0.3,3.6-0.4,5.4
			c-0.1,1-0.1,1.9-0.2,2.9c-0.1,1.7-0.3,3.4-0.4,5.1c-0.3,3.2-0.5,6.4-0.8,9.6c-0.6,9.3-1,17.1-1,24.4c-0.1,8,0,16.1,0.4,24.8l0,1
			c0.2,3.9,0.3,8,0.6,11.9c0.3,4.6,0.7,9.2,1,13.7c-0.4-0.2-0.7-0.3-1.1-0.4c-1.1-0.5-2.2-0.9-3.3-1.4c-1-0.4-2-0.9-3-1.3
			c-0.9-0.4-1.7-0.8-2.6-1.1c-0.7-0.3-1.5-0.5-2.2-0.5c-1.3,0-2.6,0.6-3.5,1.6c-1.4,1.6-1.6,3.7-0.5,5.7c0.1,0.1,0.2,0.3,0.3,0.4
			l0.1,0.2l0.5,0.8c4.6,7.9,9.3,16.1,12.9,24.6l0,0.1c-0.9-0.1-1.8-0.1-2.7-0.1c-2.5,0-5,0.4-7.4,1.2c-11.7,3.8-18.9,14.7-18,27
			c0.7,9.1,5.9,15.4,14.6,17.9c6,1.7,12.2,2.1,17.4,2.2c1.3,0,2.6,0.1,3.9,0.1c6.5,0,13.3-0.4,20.1-1.3c6.2-0.8,11.7-2,16.9-3.6
			c3.5-1.1,4.8-3.1,4.3-6.8c-0.3-2-0.2-4.3,0.3-7.2c0.8-4.1,2.6-7.9,5-12.4c1.1-1.9,2.3-4,3.9-6.4c1.2-1.8,1.2-3.9,0-5.6
			c-0.9-1.3-2.3-2-3.9-2c-0.4,0-0.8,0-1.2,0.1c-0.2,0-0.4,0.1-0.6,0.1c1-3,1.7-6.1,2.1-9.3c0.4-3.3-1-5.4-4.2-6.3
			c-0.5-0.1-1-0.3-1.5-0.4c-0.6-0.2-1.2-0.3-1.9-0.5c0-0.5,0.1-1,0.1-1.5c0.5-7.2,1.2-15,2.3-25.1c0.7-6.3,1.4-13,2.3-19.7
			c0.2-1.4,0.4-2.8,0.6-4.2c0.6-4.5,1.2-9.2,2-13.8c0.5-3.5,1.1-7,1.7-10.4c0.6-3.8,1.3-7.7,1.9-11.6c0.6-3.8,1.3-7.7,2.3-12.1
			c1.3,4.5,2.7,9.1,4,13.7c2.6,9.2,5,17.6,7.5,25.7c3.3,11.1,6.6,21.4,10,31.5c2.8,8.4,5.7,16.7,8.6,24.7c-0.5,0.1-0.9,0.1-1.4,0.2
			c-2.6,0.3-4.4,2.3-4.4,4.8c0,1.2,0.4,2.1,0.7,2.7l0.1,0.2c1.1,2.4,2,4.6,2.8,6.7c-0.1,0-0.2,0-0.2,0c-1.3,0-2.5,0.5-3.4,1.5
			c-1.3,1.4-1.7,3.2-1,5.1c0.1,0.3,0.3,0.7,0.4,1l0.2,0.5c1.9,5.1,4.3,11.9,5.6,19c0.8,4.2,1.2,8.8,1.4,13.4c0.1,3,1.8,5,4.6,5.3
			c1,0.1,2,0.3,3,0.4c3,0.4,6.2,0.8,9.3,1.1c5.8,0.5,10.5,0.8,15,0.9c1.9,0,3.8,0.1,5.6,0.1c8.8,0,16.7-0.5,24.1-1.6
			c5.5-0.8,9.2-3.2,11.6-7.4c5.2-9.4,6.5-19.3,3.8-29.6c-1.1-4.1-3.3-7.3-6.6-9.3c-4.1-2.5-8.4-3.9-12.9-4.2c3-4.5,5.5-9.2,7.6-13.4
			c1.4-2.8,0.4-4.7-0.3-5.6c-0.9-1.2-2.3-1.8-3.8-1.8c-0.6,0-1.2,0.1-1.6,0.2c-1.3,0.3-2.5,0.5-3.8,0.8c-2,0.4-4.1,0.9-6.1,1.3
			c0-0.4-0.1-0.8-0.1-1.2c-0.3-4.4-0.7-9-1.1-13.5c-0.1-1-0.2-2-0.3-3c-0.4-4.1-0.7-8.3-1.6-12.6c-0.9-4.6-1.8-9.2-2.5-13.1
			c-0.2-0.9-0.3-1.8-0.5-2.7c-0.4-2.1-0.8-4-1-6l0-0.1l0-0.1c-0.4-3-0.9-6.2-1.6-9.4c-0.2-0.9-0.4-1.7-0.6-2.5
			c-0.3-1-0.5-1.9-0.7-2.8l-0.1-0.3c-0.5-3.2-1.1-6.5-2-9.8c-0.2-0.9-0.4-1.8-0.6-2.7c-0.5-2.1-0.9-4.1-1.4-6.2
			c-1-4.5-2.1-9.3-3.6-14c-0.7-2.2-1.5-4.5-2.4-6.7c1.4-0.2,3-0.6,4.5-1.3c5.7-2.5,9.8-6.8,12.1-12.7c1-2.7,1.5-5.7,1.4-9.5
			c1.1-1,2.2-2,3.3-3.2c4.5-5.2,7.8-10.9,10.4-15.8c3.9-7.4,6.7-15.6,8.8-25.8c1.5-7.1,1.9-12.5,1.2-17.8l-0.1-0.7
			c-0.2-1.3-0.3-2.4-0.3-3.6c-0.1-4.8-1.1-9.3-2-13.8c-0.3-1.2-0.5-2.4-0.8-3.7c-0.5-2.6-1.2-5-1.9-7.5c-0.2-0.6-0.3-1.2-0.5-1.8
			c1.5-1.3,2.8-2.7,4.1-4.1c2.1-2.4,3.9-5,5.2-7.6c1.3-2.6,2.2-5.4,2.7-8.4c1.1,2.5,2.2,5,3.3,7.4l0.3,0.8c0.3,0.7,0.6,1.4,0.9,2.1
			c1.1,2.7,2.3,5.6,4,8.3c1.4,2.3,3.2,3.5,5.3,3.5c1.3,0,2.6-0.4,4-1.3c2.4-1.5,4.4-3.5,6-5.5c5.8-6.7,10.8-14.8,15.3-24.7
			c6.9-15.3,11-31.9,12-49.3c0.7-11.7-0.1-23.1-2.5-33.7c-3.4-15.3-9.6-29.2-18.5-41.2c-0.5-0.7-1-1.3-1.5-2
			c1.7-0.6,3.5-1.3,5.2-2.4c3.4-2.1,4.4-4.6,4.6-6.3c0.2-1.7-0.1-4.3-2.9-7.2c-2.4-2.4-5.1-4.2-7.4-5.7c-8.1-5-17.1-9.1-27.5-12.4
			c-7.7-2.4-15.7-3.9-23.9-4.4c-2.6-0.2-5.2-0.2-7.7-0.2c-3,0-5.9,0.1-8.8,0.3c-1-2.4-2.8-3.6-4.1-4.2c-1.2-0.5-2.6-0.8-3.9-0.8
			c-0.5,0-1,0-1.5,0.1c-5.4-5.7-12.4-9.6-21.4-11.9c-5-1.3-10.1-1.8-14.4-2.1c-2.1-0.2-4.2-0.2-6.3-0.2c-4.2,0-8.6,0.3-13,0.9
			c-4.3,0.6-8.5,1.5-12.7,2.3c-1.3,0.3-2.5,0.5-3.8,0.8c-3.3,0.7-6.1,1-8.8,1c-3.1,0-6-0.5-8.7-1.4c-7.1-2.4-11.7-5.5-15-9.9
			C51.5,0.7,50.1,0,48.6,0L48.6,0z M164.9,250c0.2-0.4,0.5-0.8,0.7-1.2c-0.2,4.2-0.8,8.2-1.8,12.2c-0.7,2.9-2.6,5.3-4.6,7.9
			c-1.3,1.7-2.8,3.4-4.3,4.9c0.7-2.8,1.7-5.7,2.7-8.7c3.9-2.5,6.2-6.3,7-11.6c0.1-1,0.2-1.9,0.2-2.8
			C164.9,250.5,164.9,250.2,164.9,250L164.9,250z M73.1,263.9c-1.5-5.3-2.5-9.7-3.1-13.8c0-0.1,0-0.3-0.1-0.4
			c1.7,1.8,3.8,3.2,6.2,4.3C75.3,257.1,74.3,260.5,73.1,263.9L73.1,263.9z"/>
	</g>
	<path class="st1" d="M167.8,393.3c-0.4-2.3-0.8-4.6-1.3-6.9c-0.6-2.6-1.3-5.1-1.8-7.7c-0.7-3.3-1.2-6.7-1.8-10
		c1.2,2.5,1.9,5.2,2.5,8c0.7,3.5,1.2,6.9,1.7,10.4c0.2,1.6,0.5,3.1,0.7,4.7C167.9,392.3,167.8,392.8,167.8,393.3z"/>
	<path class="st2" d="M15.5,44.3c1.5-1.5,3-3,4.5-4.5c-0.1-0.1-0.1-0.1-0.2-0.2c-1.5,1.5-3,3-4.5,4.5C15.4,44.2,15.4,44.3,15.5,44.3
		z"/>
	<path class="st3" d="M106.1,96.2c3.1,5,6.7,9.5,12.3,12c0.9,0.4,1.9,0.7,2.8,0.9c0.4,0.1,0.5,0.2,0.5,0.6
		c-0.1,4.4,0.3,8.8,0.8,13.3c-1.9-0.7-3.6-1.6-5.2-2.6c-6.9-3.9-13-8.7-17.6-15.2c-4.3-6-6.6-12.8-7-20.2c-0.3-5.5,0.3-10.9,2-16.2
		c0.2-0.6,0.3-1.2-0.1-1.8c-0.4-0.6-0.9-0.9-1.6-0.8c-0.8,0.1-1.3,0.5-1.5,1.2c-0.6,1.5-1,3.1-1.3,4.7c-1.1,5.2-1.3,10.4-0.8,15.6
		c0.1,1.3,0.4,2.6,0.7,3.9c0.2,0.7,0,0.9-0.7,1.1c-6.7,2.2-12.6,5.7-17.4,10.9c-0.2,0.2-0.5,0.5-0.7,0.8c-0.8,1.5-1.9,1.4-3.2,0.9
		c-3.3-1.1-6.6-2.4-9.7-4.1c-0.2-0.1-0.4-0.2-0.8-0.4c1.5,2.7,3.4,4.7,5.5,6.5c1.1,0.9,2.3,1.8,3.5,2.5c0.5,0.3,0.6,0.5,0.3,1
		c-2.6,4.9-4,10.2-4.5,15.8c-0.4,4.9-0.1,9.8,0.4,14.8c0.5,5.1,1.2,10.2,1.4,15.3c0.1,5.9-1.7,11.2-5.3,15.8
		c-5.5,7.2-12.8,11.5-21.6,13.2c-0.1,0-0.1,0-0.3,0c0.8-0.9,1.6-1.8,2.3-2.8c2.8-3.5,5.1-7.2,6.5-11.5c1.5-4.7,0.8-9.3-0.9-13.9
		c-2.8-7.4-7.2-13.8-12.4-19.8c-4.6-5.3-9.3-10.3-13.4-16c-6.3-8.7-10-18.4-11.9-28.9C6.8,89.6,6.5,86,6.5,82.4
		c0-6,1.4-11.8,3.7-17.4c3.1-7.4,7.1-14,13-19.6c6.8-6.5,14.9-10.3,24.2-11.8c3.8-0.6,7.7-0.8,11.6-0.4c1,0.1,1.8-0.1,2.2-1.1
		c0.4-1-0.1-1.7-1-2.4c-3.6-2.5-6.6-5.5-8.5-9.6c-1.7-3.5-2.1-7.3-1.9-11.1c0.5-0.1,0.6,0.3,0.8,0.4c8,7,17.1,10.6,27.8,10.2
		c0.8,0,1.5-0.1,2.3-0.2c0.2,0,0.6-0.3,0.7,0.1c0,0.4-0.3,0.6-0.7,0.5c-0.9-0.1-1.7,0.2-2.5,0.5c-1.4,0.6-2.3,1.5-2.8,3
		c-0.1,0.3-0.2,0.5-0.8,0.5c-4.6-0.1-8.1,2.7-7.3,7.9c0.1,0.5,0,0.8-0.6,0.9c-2.1,0.5-4.6,3.5-4.1,6.1c0,0.2,0,0.3-0.2,0.4
		c-3.4,1.5-4.1,3.5-2.2,6.9c-0.6,0.2-1.1,0.4-1.7,0.7c-2.1,1.1-2.8,2.9-2,5.1c0.3,0.7,0.1,0.9-0.5,1.2C48,58,42.5,64.6,39.2,73
		c-1.1,2.7-1.8,5.6-2.3,8.5c0,0.1,0,0.3,0,0.4c-0.1,0.9,0,1.7,0.8,2.2c0.8,0.5,1.6,0.2,2.3-0.2c2.6-1.7,5.2-3.2,7.8-4.7
		c3.1-1.7,6.2-3.2,9.6-4.4c-0.4,1.8-0.9,3.4-1.1,5.1c-0.3,2.4-0.5,4.8-0.6,7.3c0,0.9,0.2,1.7,1.2,2.1c0.9,0.4,1.6-0.1,2.2-0.7
		c2.3-2.4,4.8-4.7,7.5-6.7c1.6-1.2,3.4-2.3,5.1-3.3c0.4-0.2,0.8-0.4,1.1-0.7c0.7-0.6,0.9-1.5,0.5-2.2c-0.4-0.8-1.3-1.1-2.2-0.7
		c-1.7,0.7-3.2,1.7-4.7,2.7c-2.2,1.4-4.2,3-6.1,4.7c-0.2,0.2-0.5,0.4-0.9,0.7c-0.1-1.6,0.2-3.1,0.5-4.5c0.4-1.9,1-3.6,1.7-5.4
		c0.3-0.8,0.5-1.7-0.2-2.4c-0.7-0.7-1.5-0.6-2.4-0.3c-6.1,1.8-11.8,4.7-17.2,8c-0.2,0.1-0.5,0.3-0.7,0.4c-0.1,0-0.1,0-0.3,0.1
		c0.1-1.2,0.5-2.3,0.9-3.3c3.7-10.2,10.4-17.4,20.5-21.3c4.7-1.8,9.5-2.7,14.5-3c3.5-0.2,7-0.1,10.6,0.2c0.4,0,0.6,0.2,0.9,0.5
		c2.2,2.2,5.9,1.2,6.7-1.8c0.1-0.2,0.1-0.4,0.2-0.6c0-0.3,0.1-0.5,0.4-0.5c0.3,0,0.4,0.1,0.5,0.4c1.4,2.9,4.1,3.4,6.5,1.2
		c0.2-0.2,0.4-0.5,0.7-0.1c2.2,2.8,6.1,2.6,8.7,0.8c0.9-0.7,1.6-1.3,3.1-1c2.4,0.6,4.1-0.8,5-3.4c0.4,1.8,1.5,3,3.2,3.2
		c1.7,0.3,3.3-0.1,4.4-1.7c0.7,1.6,1.6,2.9,3.6,3.1c-1.4,1.5-2.2,3.1-1.1,4.9c0.9,1.4,2.2,1.9,3.9,1.8c0,0.6,0,1.1,0,1.7
		c0,4.7,4,7.6,8.5,6.3c0.2-0.1,0.5-0.1,0.7-0.2c1.2-0.7,2.3-1.1,3.5,0.3c0.5,0.6,1.6,0.5,2.4,0.5c0,0.5-0.3,0.6-0.6,0.8
		c-3.8,3-7.6,5.9-11.3,8.9c-5.3,4.4-9.7,9.5-12.4,15.9c-1.2,2.9-2,6-2.5,9.1c-0.1,0.9-0.5,0.9-1.2,0.8c-5.3-0.9-10-3.1-14.4-6.2
		c-0.2-0.1-0.3-0.2-0.5-0.3C106.1,95.8,106.1,96,106.1,96.2z"/>
	<path class="st4" d="M154.7,241.8c-1.4-1.4-2.8-2.9-4.4-4.2c-1.1-1-2.2-2-3.3-3c-4.2-3.9-8.5-7.7-13-11.3c-1.4-1.1-2.7-2.4-4.2-3.5
		c-0.4-0.3-0.5-0.6-0.3-1.1c0.2-0.4,0.2-0.9,0.4-1.4c0.3-0.8,0.1-1.5-0.4-2.2c-1.4-1.7-3-3.2-4.7-4.6c-3-2.6-6.2-4.9-9.6-7
		c-1.6-0.9-3.2-1.8-4.8-2.8c-1.6-0.9-2.4-0.5-3.5,0.9c-0.9,1.2-0.9,1.2-2.1,0.4c-3.9-2.5-7.9-5-12-7.3c-0.1-0.1-0.2-0.1-0.3-0.2
		c-2.2-1.3-3.2-1.2-5.1,0.5c-2.1,1.8-3.5,4-4.6,6.4c-0.7,1.4-0.4,2.3,1,3.1c0.6,0.4,1,0.5,0.1,1.2c-5.2,3.8-9,8.8-12.2,14.3
		c-2.1,3.5-3.5,7.3-4.3,11.3c-0.3,1.4-1.2,2.4-1.8,3.7c-1,2.2-1.7,4.4-2.3,6.8c-0.9,3.6-1.3,7.3-1.1,11.1c0.2,3.3,0.3,6.7,0.5,10
		c0.3,4.8,0.8,9.5,1.3,14.3c0.2,2.2,0.6,4.4,0.9,6.6c0.1,0.5,0.1,1-0.2,1.4c-2.3,3.1-3.7,6.6-4.1,10.5c0,0.4-0.2,0.5-0.5,0.7
		c-0.8,0.5-1,1.3-0.8,2.2c1,3.7,1.3,7.5,1,11.3c-0.3,4.2-1.8,7.9-4.4,11.2c-1.2,1.5-2.6,2.9-4.3,3.9c-3.2,1.9-6.3,2-9.6,0.2
		c-4.7-2.5-6.5-6.6-6.3-11c0.1-3.6,1.2-7,2.6-10.3c1.7-4.1,4.2-7.7,7.3-10.9c0.6-0.6,0.7-1.8,0.1-2.4c-0.7-0.7-1.8-0.8-2.6,0
		c-1.8,1.6-3.3,3.4-4.6,5.5c-0.1,0.2-0.2,0.5-0.5,0.4c-0.3-0.1-0.2-0.4-0.2-0.6c-0.4-6.4-0.6-12.9-0.4-19.3
		c0.1-3.4,0.3-6.8,0.7-10.2c0.3-2.5,0.5-4.9,0.8-7.4c0.4-3.1,1-6.3,1.7-9.3c0.8-3.4,1.7-6.7,2.8-9.9c2.3-7,5.7-13.3,10.4-18.9
		c2.5-3,5.1-6,8-8.7c3.6-3.4,7.2-6.8,11-9.9c5.1-4.2,10.3-8.2,15.6-12.1c0.4-0.3,0.6-0.1,0.9,0c1.6,0.6,3.1,1.3,4.7,1.7
		c1.2,0.3,2.1-0.1,2.4-1.2c0.3-0.9-0.2-1.7-1.4-2.1c-3.8-1.3-7.5-2.9-11-5c-1.8-1.2-3.5-2.5-4.7-4.3c-1.6-2.3-1-4.6,1.4-6
		c2.7-1.6,5.8-2.3,8.8-2.7c3.6-0.6,7.2-0.8,10.9-0.9c2-0.1,4-0.2,5.9-0.1c4.3,0.1,8.6,0.3,12.9,0.6c5.3,0.5,10.6,1,15.8,1.8
		c5.6,0.8,11.2,1.8,16.8,2.9c0.1,0,0.3,0,0.4,0c0.4,0.5,0.4,1.1,0.5,1.7c0.3,3.3,0.4,6.6-0.2,9.9c-0.1,0.4-0.2,0.9-0.5,1.2
		c-3.7,0.5-7.3,1.1-10.9,2.1c-0.4,0.1-0.7,0.2-1.1,0.3c-0.9,0.4-1.3,1.2-1,2.1c0.3,0.9,1.1,1.4,2.1,1.2c1.7-0.3,3.3-0.8,5-1.1
		c2.7-0.5,5.5-1,8.3-1.2c1.5-0.1,3-0.1,4.5-0.2c0.7,0,1,0.2,1.2,0.9c1.2,4.1,2.4,8.2,2.7,12.6c0.3,4.2,0,8.2-2,11.9
		c-1.7,3.2-4.2,5.7-7.1,7.8c-2.1,1.5-4.3,2.8-6.7,3.8c-0.9,0.4-1.3,1.1-1.2,2c0.1,0.8,1,1.4,2,1.5c3,0.4,6,0.1,9-0.1
		c2.4-0.1,4.8-0.3,7.1-0.7c0.3-0.1,0.5,0,0.8,0c0.1,0.6-0.3,0.8-0.7,1.1c-3.4,2.6-6,5.8-8.5,9.2c-0.3,0.4-0.6,0.8-0.9,1.1
		C155.2,241.9,155,242,154.7,241.8z"/>
	<path class="st5" d="M115.1,343.9c2.8-0.2,5.6-0.5,8.4-0.8c4.5-0.5,8.9-1.3,13.3-2.3c4.2-0.9,8.1-2.4,12.1-3.9
		c0.7-0.3,1-0.2,1.3,0.6c1.9,5,3.5,10,4.9,15.1c2.2,7.8,4.1,15.7,5.6,23.6c0.7,3.9,1.6,7.9,2.2,11.8c0.4,2.5,0.9,5.1,1.3,7.6
		c0.9,5.8,2.2,11.6,3.3,17.4c0.7,3.8,1.2,7.6,1.8,11.4c0.5,3.3,1,6.5,1.3,9.8c0.2,3.1,0.4,6.3,0.6,9.4c0.1,1.7,0.2,3.4,0.4,5.1
		c0.1,0.6-0.1,0.9-0.8,1c-5.3,0.9-10.6,2-15.9,2.8c-5.1,0.8-10.2,1.5-15.3,2.2c-1.2,0.2-2.4,0.2-3.6,0.4c-0.7,0.1-0.8-0.4-0.9-0.8
		c-1.9-5.2-3.7-10.4-5.6-15.7c-1.3-3.7-2.6-7.4-3.8-11.2c-3.6-11.2-7.3-22.4-10.6-33.7c-1.8-6.3-3.7-12.5-5.5-18.8
		c-1.5-5.2-3.1-10.4-4.5-15.6c-1.2-4.6-2.2-9.2-3.3-13.8c-0.1-0.6,0-0.6,0.5-0.6c3.5-0.3,7-0.5,10.5-0.8
		C113.5,343.9,114.3,343.9,115.1,343.9z"/>
	<path class="st5" d="M49.6,336c1.3,0.4,2.5,0.8,3.7,1.2c5.6,2,11.4,3.3,17.2,4.8c4.4,1.1,8.8,2.1,13.3,2.7c2.7,0.3,5.3,0.6,8.1,0.6
		c2.7,0,2.7,0,1.7,2.5c-1.5,3.9-2.2,8.1-3.1,12.2c-1.9,8.2-3.1,16.6-4.5,25c-0.9,5.7-1.7,11.4-2.5,17.1c-1,6.9-1.8,13.8-2.6,20.7
		c-0.5,4.6-0.9,9.3-1.3,13.9c-0.6,6.5-1.1,13-1.6,19.4c-0.1,1-0.5,0.8-1.2,0.7c-6.8-1.9-13.5-4-20.1-6.4c-3-1.1-6-2.3-9-3.4
		c-0.5-0.2-0.8-0.4-0.8-1c-0.3-3.9-0.7-7.8-1-11.7c-0.2-2.3-0.3-4.6-0.4-6.9c-0.3-5.8-0.6-11.6-0.8-17.4c-0.4-8.7-0.4-17.4-0.2-26.1
		c0.2-6.8,0.5-13.6,1.1-20.4c0.3-3.4,0.4-6.7,1-10.1c1-5.5,1.4-11.2,2.7-16.7C49.2,336.3,49.2,336,49.6,336z"/>
	<path class="st6" d="M185.1,91.5c0.1,1-0.4,1.8,0,2.6c0.1,0.2-0.2,0.3-0.3,0.4c-0.3,0.2-0.5,0.3-0.8,0.5c-1.7,0.9-2.4,2.4-2.1,4.3
		c0.3,1.7,1.4,3,3,3.6c0.6,0.2,0.7,0.5,0.7,1.1c-0.2,3,0.3,5.8,2.3,8.2c0.7,0.8,1.5,1.5,2.4,2c1.1,0.6,1.1,2.6,0,3.2
		c-1.1,0.7-1.9,1.6-2.3,2.9c-0.5,1.5,0,2.8,1.2,3.7c0.5,0.4,0.6,0.8,0.4,1.4c-0.6,2.4-1.4,4.8-2,7.2c-0.9,3.2-2.2,6.2-3.5,9.3
		c-0.4,0.9-0.8,1.1-1.8,1.1c-9.1,0.2-20.1,4.6-23.7,17.5c-0.9,3.4-1.6,6.7-1.7,10.2c0,0.8-0.2,0.9-0.9,0.7c-10.4-2.3-20.9-4-31.5-5
		c-8-0.7-15.9-1.1-23.9-0.9c-3,0.1-6,0.3-9,0.7c-0.5,0.1-0.9,0-1.2-0.5c-4.8-7.7-8.5-15.9-10.7-24.7c-1.7-6.9-2-13.8-1.6-20.8
		c0.1-1.8,0.3-3.6,0.5-5.4c0-0.2,0-0.5,0.1-0.5c0.9-0.5,1.7,0.2,2.5,0.1c0.5,0,0.5,0.2,0.5,0.6c0,1.5-0.1,2.9,0,4.4
		c0.1,5.7,0.8,11.3,3.2,16.5c1.5,3.4,3.8,6.3,7.5,7.6c5.6,2,10.8,0.1,13.9-5c2.3-3.8,3.3-8,3.9-12.3c0.3-1.9,0.4-3.8,0.6-5.8
		c2,1.3,3.9,2.5,6,3.6c2.2,1.2,4.5,2.3,6.9,3.2c2.2,0.8,3.4-0.2,3-2.5c-0.8-4.6-1.2-9.3-1.2-14c0-0.8,0.1-1.3,1.1-1.2
		c0.7,0.1,1.4,0,2.1-0.2c0.6-0.1,0.8,0,0.9,0.7c0.5,5.3,1.6,10.6,3.2,15.6c1.2,3.7,2.9,7.2,5.3,10.4c8,11,22.9,8.1,28.6-1
		c2.2-3.5,3.5-7.3,4.2-11.3c1.5-8.1,1.1-16.2,0.1-24.3c-0.3-2.6-0.8-5.3-1.3-7.9c-0.1-0.6-0.2-0.9-0.9-0.7c-9.5,2.1-18.7,5-27.9,8.1
		c-4.3,1.5-8.8,2.6-13.3,3.2c-0.5,0.1-0.9,0.2-1.4,0c0.8-5.8,3-11.1,6.6-15.7c3.3-4.3,7.5-7.7,11.7-11c2.9-2.3,5.9-4.4,8.6-7
		c0.4-0.4,0.7-0.4,1.1-0.1c0.8,0.7,1.8,1.1,2.8,1.3c0.4,0.1,0.5,0.2,0.5,0.6c-0.1,2,1.3,3,2.8,3.9c0.5,0.3,0.7,0.4,0.7,1
		c0.2,2.7,3.1,4.7,5.3,3.8c0.5-0.2,0.8-0.2,1.1,0.2c0.2,0.3,0.5,0.5,0.8,0.7c0.5,0.3,0.5,0.5,0.4,1.1c-0.7,2.9,0,5.5,1.8,7.7
		c1.7,2.1,3.9,2.4,6.3,1.7c1-0.3,1.6-0.4,2.3,0.6c1.3,1.7,3.7,1.9,5.7,0.6C184.8,91.8,184.9,91.7,185.1,91.5z"/>
	<path class="st4" d="M134.3,288.1c-3.5-0.7-7-1.4-10.5-2c-3.7-0.6-7.4-1.4-11.2-1.8c-1.4-0.2-2.8-0.4-4.2-0.6
		c-0.5-0.1-0.5-0.3-0.6-0.7c-0.2-1.6-0.6-1.9-2.1-2.3c-4.1-0.9-8.2-1.4-12.4-1.7c-3.1-0.2-6.2-0.1-9.3-0.2c-1.5,0-2.3,0.5-2.5,2.1
		c-0.1,0.9-0.5,1-1.3,1c-2.5,0-4.9,0-7.4,0c-0.3,0-0.8,0.2-0.9-0.2c-0.1-0.3,0.2-0.6,0.4-0.9c1.6-2.6,3-5.2,4.3-7.9
		c1.8-3.8,3.3-7.7,4.5-11.7c0.7-2.5,1.5-4.9,2.1-7.5c0.1-0.5,0.4-0.7,0.9-0.6c0.7,0.1,1.4,0.2,2.1,0.4c0.9,0.2,1.7,0,2.2-0.7
		c0.8-1,0.3-2.5-1.1-2.8c-2-0.4-4.1-0.6-6.1-1.3c-4-1.5-7.3-3.8-9.1-7.9c-1.3-3-1.4-6.1-0.9-9.2c1.1-5.9,4.1-11,7.6-15.7
		c2.4-3.3,5.2-6.2,8.7-8.3c0.6-0.4,1-0.5,1.7,0c3.6,2.2,7.2,4.6,10.8,7c0.6,0.4,0.9,0.7,0.6,1.5c-1.4,3.4,0.6,5.8,2.6,8.2
		c4.2,5,9.8,7.7,15.8,10c1.5,0.6,2.3,0.3,3.4-1.2c0.8-1,0.8-1,1.8-0.1c3.2,2.9,6.5,5.8,9.6,8.7c2.9,2.7,5.6,5.5,8.4,8.3
		c1.5,1.5,2.9,3.2,4.3,4.8c0.3,0.5,0,0.9-0.2,1.2c-2.5,5.7-4.8,11.4-6.7,17.3c-1.5,4.6-2.7,9.2-3.9,13.8
		C135.3,287.7,135.2,288.4,134.3,288.1z"/>
	<path class="st4" d="M141.8,336.2c-2.4,0.7-4.7,1.6-7.2,2.1c-3,0.5-5.9,1.1-8.8,1.6c-1.3,0.2-2.6,0.2-3.9,0.4
		c-0.5,0.1-0.4-0.2-0.5-0.5c-0.3-1-1-1.2-1.8-1c-3.4,0.7-6.8,1.5-10.3,2.1c-2.5,0.4-5.1,0.1-7.6,0.1c-0.5,0-0.9-0.3-1.2-0.7
		c-0.5-0.7-1.2-0.6-1.5,0.2c-0.2,0.6-0.4,0.4-0.9,0.5c-2.2,0.1-4.4-0.4-6.7-0.3c-1.9,0.1-3.9-0.3-5.8-0.4c-1.7-0.1-3.3-0.4-5-0.6
		c-3.9-0.3-7.7-1-11.5-1.7c-7.2-1.3-13.9-3.8-20.8-6.2c-1.7-1.7-4.4-1-6.3-2.6c1.2-0.1,2.2,0.3,3.2,0.5c2.2,0.3,4.2,0,6.2-0.6
		c3.5-1.1,5.9-3.7,8-6.5c0.8-1.1,1.7-2,2.4-3.2c1.1-1.9,1.1-4,1.6-6.1c0.7-3.3,0.8-6.6,0.3-9.9c-0.1-0.9-0.2-1.9-0.4-2.8
		c-0.1-0.5,0.2-0.7,0.6-0.7c2.2,0,4.4-0.3,6.5-0.4c3-0.1,6-0.1,9-0.4c0.5-0.1,0.8,0,0.9,0.7c0.1,1.6,1,2.5,2.6,2.7
		c3.3,0.6,6.6,1.2,9.9,1.4c1.8,0.1,3.6,0.2,5.4,0.1c2.2-0.1,4.4-0.2,6.6-0.4c1-0.1,1.8-0.9,1.9-1.8c0-0.1,0-0.2,0-0.3
		c0.1-1.4,0.1-1.4,1.4-1.3c2.4,0.2,4.7,0.6,7.1,0.8c2.6,0.2,5.3,0.7,7.9,1c3.1,0.4,6.1,0.9,9.2,1.4c0.2,0,0.3,0,0.5,0
		c0.2,0.2,0.3,0.5,0.3,0.9c-0.2,6,1.5,11.6,3.3,17.2c1.5,4.7,3.1,9.4,5,13.9C141.8,335.4,142,335.8,141.8,336.2z"/>
	<path class="st7" d="M128.5,475.4c0.3,0.1,0.5,0.2,0.7,0.2c1.4,0.2,1.9,1,1.9,2.4c0.1,1.4,0.8,2.1,2,2c1.1-0.1,1.8-1,1.6-2.4
		c-0.2-2-0.7-3.9-1.1-5.9c-0.8-3.9-2.3-7.7-3.9-11.3c-0.4-0.9-0.2-1.1,0.7-1.2c8.2-0.9,16.4-1.9,24.6-3.2
		c10.2-1.6,20.3-3.6,30.3-5.8c0.1,0,0.1,0,0.3,0c-0.6,1.4-1.4,2.7-2.1,3.9c-2.7,4.8-5.9,9.4-9.5,13.6c-0.4,0.5-0.9,0.9-1.5,1.2
		c-2.6,1.2-5,2.7-7.2,4.4c-0.6,0.5-1.2,0.9-1.3,1.9c-0.1,1.4,0.8,2.3,2.2,2c0.4-0.1,0.8-0.4,1.2-0.7c4.1-3.3,8.6-5.7,13.9-6.4
		c5.5-0.7,10.7,0.5,15,4.1c2,1.7,2.7,4.2,3.2,6.8c1,5.6,0.5,11-1.1,16.4c-0.2,0.6-0.4,0.8-1,1c-5.9,1.4-11.9,2.6-17.9,3.3
		c-7.5,0.9-15,0.9-22.6,0.6c-7.1-0.3-14.2-1.1-21.2-2c-1-0.1-1.3-0.5-1.4-1.4c-0.8-8.1-3.1-15.8-5.8-23.3
		C128.5,475.6,128.5,475.5,128.5,475.4z"/>
	<path class="st7" d="M88,479.1c-1.5,2.6-2.9,4.9-4,7.3c-1.7,3.5-3.2,7.2-3.8,11.1c-0.1,0.6-0.5,0.8-1,1c-3.6,1.2-7.4,2.1-11.1,2.8
		c-5.9,1.1-11.8,1.9-17.8,2.2C40,504.2,29.8,503.7,20,500c-1-0.4-2-0.9-3-1.3c-0.6-0.2-0.8-0.7-0.9-1.2c-1.5-11.2,6.7-21,16.9-22
		c3.8-0.4,7.3,0.4,10.7,1.8c0.2,0.1,0.4,0.2,0.6,0.3c0.8,0.3,1.6,0.4,2.3-0.2c0.7-0.6,0.7-1.4,0.4-2.3c-1-3.2-2.3-6.4-3.6-9.5
		c-3-6.9-6.7-13.6-10.4-20.2c-0.2-0.3-0.4-0.5-0.4-1c2.1,0.9,4.2,1.8,6.3,2.7c13.5,5.7,27.2,10.6,41.4,14.3c1.5,0.4,3,0.8,4.6,1.2
		c0.7,0.1,0.7,0.4,0.6,1c-0.9,5.4-2.8,10.5-5.5,15.3c-0.5,0.8-1,1.7-1.4,2.5c-0.5,1.1-0.3,2.1,0.6,2.6c0.9,0.5,2,0.2,2.6-0.8
		c0.1-0.2,0.2-0.3,0.3-0.5c0.5-0.8,0.7-2.1,1.6-2.5C84.8,479.6,86.3,479.5,88,479.1z"/>
	<path class="st8" d="M171.8,255c0.2-2.7,0.5-5.4,0.6-8.2c0.1-1.9-0.1-3.7-0.3-5.6c-0.1-1.9-0.4-3.7-0.9-5.5
		c-0.1-0.3,0.1-0.6,0.3-0.8c2.1-2.6,3.8-5.4,5.7-8.1c0.9-1.4,2.6-1.5,4-1.9c1.4-0.5,2.7-1,3.9-1.7c1.4-0.8,1.6-0.7,2.1,0.8
		c0.8,2.5,1.4,5.1,2,7.7c1.1,4.6,1.9,9.3,2.5,14c0.3,2.1,0.3,4.3,0.5,6.4c0.2,2.8,0.1,5.7,0.2,8.5c0.1,2-0.3,3.9-0.4,5.8
		c-0.1,3.5-1,6.9-1.9,10.2c-1.8,6.7-4.4,13-7.8,19c-1.7,3-3.5,6-5.6,8.8c-1.1,1.5-2.3,2.9-3.7,4.3c-0.6,0.6-0.8,0.5-1-0.3
		c-1-4.1-3.3-7.5-6.1-10.5c-1.3-1.4-2.9-2.4-4.5-3.4c-1.1-0.7-1.9-0.6-2.6,0.4c-0.5,0.7-0.2,2,0.6,2.6c1.3,1,2.8,1.7,3.9,3
		c2.4,2.6,4.2,5.5,5.3,9c0.6,2,0.7,3.9,1.1,5.9c0.1,0.5-0.2,1.1-0.3,1.7c-0.3,1.4-0.5,2.9-0.8,4.3c-0.4,2.1-1.6,3.8-2.9,5.5
		c-2.7,3.4-6.2,5-10.3,5.7c-1.2,0.2-2.6-0.1-3.7-0.5c-2.4-0.8-4.6-2.2-6.1-4.4c-1.4-2.2-2.2-4.6-2.7-7.1c-0.1-0.7-0.6-1.3-0.4-2
		c-0.3-0.4,0.1-0.9-0.2-1.2l0,0c0-1.2,0.1-2.4,0.1-3.6c0.1-2.3,0.4-4.6,0.7-6.9c0.8-3.4,2.3-6.5,4.5-9.3c1-1.2,2-2.4,3.4-3.2
		c0.8-0.5,1.1-1.2,0.7-2.1c-0.1-0.6,0.3-0.8,0.7-1c9-7.2,14.8-16.3,17.8-27.4C170.9,260.7,171.4,257.9,171.8,255z"/>
	<path class="st3" d="M155.2,227.6c0.9-0.6,1.6-1.2,2.2-1.7c4.2-3.4,7.5-7.4,8.8-12.8c1-4.2,1-8.5,0.3-12.7
		c-0.8-5.4-2.7-10.5-4.2-15.7c-1.5-5.4-2.4-10.9-1.7-16.5c0.7-5.2,1.9-10.2,5.4-14.3c3-3.6,7-5.5,11.5-6.6c1.3-0.3,2.7-0.4,4.1-0.6
		c0.9-0.1,1.7,0.4,1.9,1.4c0.4,1.8,0.5,3.7,1,5.6c0.7,3.1,2,5.9,3.8,8.5c4.7,7,8.2,14.6,10.2,22.8c1.1,4.5,1.7,9.1,1.2,13.7
		c-0.8,7-4,12.7-9.2,17.4c-5.4,4.8-11.8,7.6-18.8,9.3c-4.4,1.1-8.8,1.8-13.4,2.1C157.4,227.5,156.4,227.7,155.2,227.6z"/>
	<path class="st9" d="M237,122.7c1.7-1.9,2.8-4.1,2.9-6.7c0-2.2-0.7-4.2-2.1-5.8c-0.1-0.1-0.2-0.3-0.3-0.4c0-0.1,0-0.2-0.1-0.4
		c1.8,0,3.2-0.7,3.7-2.5c0.6-2-0.7-4.6-2.8-5.4c-0.2-0.1-0.3-0.1-0.5-0.2c-0.4-0.4-0.3-0.9-0.3-1.4c0-1.3,0.1-2.5-0.1-3.8
		c0.5-1.6,0.6-3.2,0-4.7c0-1.8-0.4-3.6-0.3-5.4c0-1.1,0.1-2.2-0.1-3.4c-0.1-0.3-0.1-0.7,0.2-1c1.4,2.4,2.8,5,3.9,7.6
		c1.6,3.7,3.1,7.4,4.3,11.2c1.8,5.6,3.1,11.3,4,17.1c0.5,3.2,0.7,6.4,1,9.6c0.2,2.4,0.3,4.9,0.3,7.3c0,3.5-0.1,7-0.4,10.5
		c-0.3,2.9-0.5,5.8-0.9,8.7c-0.4,3.2-1.1,6.3-1.7,9.4c-1.7,8.3-4.3,16.2-7.6,24c-3.4,8-7.5,15.5-12.8,22.3c-1.9,2.4-3.8,4.9-6.4,6.7
		c-0.6,0.4-0.8,0.4-1.1-0.2c-1.9-3.6-3.4-7.5-5-11.2c-2.3-5.3-4.6-10.6-7.6-15.6c-0.2-0.3-0.3-0.7-0.5-1.1c0.6-0.2,1,0.2,1.4,0.5
		c2.5,1.5,5.1,2.6,8.1,2.8c0.8,0.1,1.4-0.2,2-0.8c2.8-3,4.9-6.4,6.7-10c4.3-8.7,6.9-17.9,8.8-27.3c1.2-6.1,1.9-12.2,2.5-18.4
		C236.5,130.8,236.7,126.8,237,122.7z"/>
	<path class="st4" d="M237.2,81.8c0.4,2.9,0.1,5.7,0.4,8.6c0,0.3,0.1,0.8-0.2,1.1c-1.5-4.5-4.7-7.3-9.3-8.4
		c-1.7-0.4-3.4-0.2-4.9,0.9c-0.7,0.5-0.8,0.2-1-0.4c-0.4-1.3-0.8-2.7-1-4.1c-0.3-1.9-1.1-2.5-2.9-2c-0.3,0.1-0.5,0-0.8,0
		c-2.2-0.5-4,0.5-4.8,2.6c-0.2,0.6-0.4,0.5-0.8,0.2c-0.3-0.3-0.6-0.5-1-0.7c-0.6-0.3-0.7-0.6-0.7-1.3c0.1-1.3-0.4-2.8-1.9-3.6
		c-0.7-0.4-1.5-0.8-2.5-0.8c0.7-1,1.4-2,1.7-3.2c1.2-4.3-0.8-8.1-5.1-9.5c-3.1-1.1-6.2-1.1-9.6,0c0.9-1.7,0.7-3.4,0.7-5
		c0-3.6-3.2-7.8-6.7-8.7c-2.5-0.7-5.2,0.3-6.8,2.6c-0.4,0.5-0.6,1.2-1.1,1.5c-0.6,0.3-1-0.5-1.6-0.6c-0.5-0.1-1.2-0.2-1.5-0.5
		c-0.4-0.4,0.2-1,0.3-1.5c0.5-2.9-1-4.9-3.1-6.5c-0.6-0.4-0.8-0.6-0.4-1.4c0.8-1.4,0.5-3.5-0.6-4.6c-1-1.1-3.2-1.5-4.6-0.9
		c-0.1,0-0.1,0-0.2,0.1c-1,1.4-1.8,0.6-2.7-0.2c-0.2-0.2-0.6-0.3-0.5-0.7c0.1-0.4,0.4-0.5,0.7-0.5c0.7,0,1.4-0.2,2.1-0.2
		c3.8-0.2,7.7-0.4,11.5-0.2c4,0.2,8,0.5,12,1.1c5.8,0.9,11.4,2.3,17,4.2c8.4,2.9,16.5,6.5,23.9,11.4c2,1.3,3.9,2.6,5.5,4.3
		c1.2,1.2,1.2,1.6-0.1,2.7c-1.3,1.1-2.9,1.6-4.4,2.1c-1.6,0.6-3.3,0.9-4.9,1.3c-0.7,0.2-1.1,0-1.5-0.5c-1.2-1.2-2.4-2.3-3.6-3.4
		c-1-0.9-1.9-1-2.6-0.2c-0.9,0.9-0.8,2,0.1,2.9c2.9,2.5,5.4,5.2,7.8,8.1c3.3,3.9,6.2,8.1,8.7,12.5C236.7,80.7,236.9,81.2,237.2,81.8
		z"/>
	<path class="st4" d="M237,122.7c0.3,0.2,0.2,0.6,0.2,0.9c-0.2,2.5-0.4,5.1-0.6,7.6c-0.1,1.7-0.3,3.5-0.4,5.2
		c-0.2,2.1-0.4,4.1-0.7,6.2c-0.4,2.7-0.7,5.3-1.2,8c-0.5,3-1.1,6-1.9,9c-1.2,5.2-2.7,10.2-4.7,15.1c-1.9,4.8-4.1,9.4-7.2,13.5
		c-0.8,1-1.6,2-2.5,3c-1,1.2-2.2,0.5-3.3,0.4c-2.6-0.3-4.9-1.5-7.1-2.9c-0.3-0.2-0.7-0.3-1-0.5c-1.2-1.6-2.1-3.4-3.2-5
		c-0.7-1.1-1.4-2.1-2.3-3.1c-0.9-1-1-2.4-1.4-3.6c-0.1-0.2,0.2-0.4,0.4-0.6c1-0.9,2.1-1.8,3.1-2.8c2.5-2.4,5-4.8,7.4-7.4
		c1.8-2,3.7-4,5.3-6.2c3-3.9,5.8-7.9,6.8-12.8c0.5-2.4,0.2-4.8-0.4-7.2c-0.6-2.1-1.5-3.9-2.7-5.8c-0.3-0.5-0.5-0.7,0.2-1.1
		c0.6-0.3,1.1-0.8,1.4-1.5c0.2-0.4,0.4-0.4,0.7-0.1c2.3,1.8,4.7,1.3,6.1-1.3c0.5-0.9,0.8-2,0.8-3c0-0.5,0.1-0.8,0.6-0.8
		C232.5,126.1,234.9,124.8,237,122.7z"/>
	<path class="st10" d="M109.7,204.4c0.1,0.1,0.3,0.2,0.5,0.3c5.7,3.2,11,6.9,15.6,11.6c0.5,0.5,0.6,0.9,0.4,1.6
		c-1.4,4.4-3.6,8.5-6.3,12.3c-0.2,0.3-0.3,0.7-0.9,0.4c-4.2-1.7-8.3-3.6-11.6-6.8c-1.2-1.2-2.3-2.5-3.2-3.9
		c-0.5-0.8-0.7-1.5-0.4-2.4c1.1-4.4,2.4-8.7,5.2-12.4C109.3,204.5,109.4,204.4,109.7,204.4z"/>
	<path class="st9" d="M204.7,148.6c3.2,1.2,6.1-0.8,6.2-4.2c0-0.7,0.2-1,1-1c2.3,0,4-1.8,4-4c0-2.3-1.8-4-4.1-4
		c-0.7,0-1.5,0.2-1.6-0.8c-0.1-0.5,0-0.8,0.6-0.8c1.1-0.1,2.2-0.2,3.2-0.4c0.8-0.1,1.2,0.3,1.6,0.8c2.4,3,3.8,6.3,3.8,10.2
		c-0.1,2.9-1.3,5.4-2.8,7.8c-2.1,3.5-4.6,6.6-7.3,9.6c-1.6,1.8-3.4,3.6-5.1,5.4c-1.7,1.8-3.7,3.5-5.5,5.2c-0.3,0.2-0.5,0.6-0.7-0.1
		c-1.1-2.7-2.5-5.2-3.9-7.8c1.1-1.6,2.3-3.1,3.4-4.6c2.5-3.4,4.8-7,7-10.7C204.5,149,204.5,148.8,204.7,148.6z"/>
	<path class="st4" d="M204.7,148.6c-0.2,1.3-1,2.2-1.7,3.3c-2.4,4-5.2,7.9-8,11.6c-0.3,0.4-0.7,0.6-1,1c-1.9-3.2-4.3-6.2-5.5-9.8
		c-0.5-1.7-0.9-3.3-1.1-5.1c-0.1-1-0.2-2-0.6-2.9c-0.3-0.9-0.3-1.7,0.2-2.5c0.9-2,1.8-4,2.6-6c0.2-0.4,0.3-0.6,0.8-0.5
		c2.2,0.6,3.9-0.2,5.3-1.9c0.2-0.2,0.2-0.7,0.7-0.3c1.9,1.4,3.7,1.3,5.6-0.2c0.3,0.9,0.5,1.9,1.3,2.6c1,0.9,2.1,1.3,3.5,1.2
		c0.4,0,0.7-0.2,0.7,0.4c0,0.7-0.4,0.4-0.8,0.4c-1.9,0-3.5,0.7-4.4,2.5c-0.8,1.6-0.7,3.3,0.4,4.8C203.4,147.9,204,148.3,204.7,148.6
		z"/>
	<path class="st10" d="M104.3,290.1c0,3-0.4,6-0.6,9c-0.1,0.6-0.3,0.8-0.9,0.8c-6.1,0.4-12.1,0.2-18.1-1.1c-0.5-0.1-0.7-0.2-0.8-0.8
		c-0.3-3.2-0.5-6.4-0.2-9.5c0.2-1.7,0.5-3.4,0.7-5.2c0.1-0.6,0.4-0.8,1-0.8c6.1-0.1,12.1,0.4,18.1,1.5c0.5,0.1,0.8,0.3,0.7,0.8
		C104.3,286.6,104.5,288.4,104.3,290.1z"/>
	<path class="st11" d="M158.4,250.9c-0.3,2.9-0.8,5.6-3,7.7c-0.6,0.6-0.9,0.5-1.4-0.1c-6.1-7.7-13-14.7-20.2-21.4
		c-2.8-2.6-5.6-5.1-8.5-7.5c-0.5-0.4-0.6-0.8-0.2-1.4c0.9-1.4,1.6-2.8,2.3-4.3c0.5-1.1,0.5-1.1,1.4-0.4c3,2.6,6.1,5.1,9.1,7.7
		c6.8,5.9,13.3,12,19.7,18.4C158.1,250,158.6,250.4,158.4,250.9z"/>
	<path class="st9" d="M134.3,288.1c0.5,0.1,0.7-0.3,0.8-0.7c0.8-3.5,1.8-7,2.8-10.4c1.5-5.2,3.3-10.4,5.4-15.4
		c1-2.3,1.9-4.5,2.9-6.8c1.9,2,3.6,4.2,5.4,6.3c0.4,0.4,0.3,0.9,0.1,1.3c-1.1,3-2.2,6-2.9,9c-0.9,3.6-1.8,7.2-2.1,11
		c-0.2,2.5-0.6,4.9-0.6,7.4c0,0.7-0.3,0.8-0.9,0.7c-2.5-0.6-5-1.1-7.5-1.7C136.6,288.6,135.5,288.3,134.3,288.1z"/>
	<path class="st11" d="M107.6,294.9c0.3-2.3,0.2-4.6,0.2-6.9c0-0.6,0.2-0.8,0.8-0.7c5.5,0.7,11,1.6,16.4,2.6
		c6.4,1.2,12.7,2.5,19,3.9c0.6,0.1,0.6,0.4,0.3,0.8c-1.3,1.8-2.3,3.7-3.1,5.7c-0.2,0.6-0.7,0.6-1.2,0.5c-2.8-0.5-5.7-1-8.5-1.5
		c-5.1-0.8-10.1-1.6-15.2-2.2c-2.7-0.3-5.3-0.6-8-0.8C107.4,296.2,107.6,295.6,107.6,294.9z"/>
	<path class="st5" d="M18.1,503.2c3.7,1.4,7.2,2.3,10.8,3c7,1.2,14,1.5,21.1,1c5.2-0.3,10.3-0.9,15.4-1.7c4.5-0.7,8.9-1.7,13.2-2.9
		c1.1-0.3,1.1-0.3,1.1,0.8c0,0,0,0.1,0,0.1c0,2.5,0,2.5-2.4,3.1c-7.4,1.9-15,3-22.7,3.4c-5.6,0.4-11.3,0.5-16.9,0.1
		c-5-0.3-9.9-0.8-14.6-2.7C21.2,506.7,19.5,505.4,18.1,503.2z"/>
	<path class="st3" d="M126.3,22.5c0.1-2.8-0.7-5.1-2.8-7.2c9.4,0.9,18,3.1,25.3,9c-0.7,0.1-1.3,0-1.9,0.1c-2.8,0.6-4,2.9-2.8,5.5
		c0.6,1.2-0.5,0.9-0.9,1.3c-0.6,0.6-0.6-0.1-0.8-0.4c-1.3-1.9-2.9-2.4-5.1-1.4c-0.6,0.3-0.8,0.4-1.2-0.4c-0.7-1.6-2.1-2.4-3.9-2.3
		C132.6,23.3,130,21.4,126.3,22.5z"/>
	<path class="st5" d="M196.2,502.6c-1.5,3.3-4.2,4.5-7.5,4.9c-9.8,1.5-19.6,1.7-29.4,1.4c-7.9-0.2-15.8-1-23.6-2
		c-0.5-0.1-0.8-0.2-0.8-0.8c-0.2-2.2-0.2-2.2,2-1.9c5.9,0.7,11.8,1.4,17.7,1.7c6.2,0.4,12.5,0.5,18.7,0.1c7.2-0.5,14.3-1.6,21.3-3.1
		C195,502.9,195.5,502.8,196.2,502.6z"/>
	<path class="st12" d="M229.9,106.6c3.1,1.4,5.5,3.7,7,6.6c1.4,2.8,0.4,5.4-1.5,7.7c-3.1,3.7-8,2.9-11,0.4c-0.8-0.7-1.6-1.5-2.1-2.5
		c-0.3-0.5,0.2-0.7,0.5-1c3.5-2.6,5.6-6,6.4-10.2C229.1,107.2,229,106.4,229.9,106.6z"/>
	<path class="st11" d="M80.5,286.3c-0.4,3-0.5,5.8-0.3,8.6c0,0.5-0.3,0.5-0.6,0.5c-3,0.1-6.1,0.2-9.1,0.4c-1.7,0.1-3.5,0.2-5.2,0.3
		c-0.7,0.1-1.1,0-0.9-0.9c0.6-3.2,1.8-6,3.9-8.5c0.4-0.4,0.7-0.8,1.3-0.8c3.3-0.2,6.7-0.2,10.1-0.2
		C80.3,285.6,80.6,285.7,80.5,286.3z"/>
	<path class="st9" d="M64.8,285.2c-0.3-2.4-0.6-4.8-0.9-7.2c-0.2-1.5-0.4-3-0.5-4.5c-0.3-2.7-0.5-5.4-0.8-8.1
		c-0.1-1.1-0.1-2.2-0.2-3.4c-0.1-2-0.2-3.9-0.3-5.9c-0.1-2.3-0.2-4.6-0.1-6.8c0.1-2.5,0.5-5.1,1.4-7.5c-0.1,1.2-0.4,2.4-0.4,3.5
		c-0.1,3.3,0.5,6.6,1.1,9.8c0.7,3.9,1.7,7.6,2.8,11.4c0.9,3,1.8,6.1,3,9c0.4,0.9,0.4,1.7-0.3,2.6c-0.8,1.1-1.4,2.4-2,3.6
		C66.9,283,65.7,284,64.8,285.2z"/>
	<path class="st12" d="M220.3,89.8c1.4-2,3.2-3.5,5.5-4.4c1-0.3,1.8-0.1,2.7,0.2c2.9,1,5.1,2.9,6.3,5.7c0.9,2,0.8,3.9-0.6,5.7
		c-1.4,1.7-3.1,3-5.1,3.9c-0.5,0-0.5-0.4-0.5-0.7c-1.3-4.1-3.8-7.3-7.6-9.4C220.7,90.6,220.1,90.5,220.3,89.8z"/>
	<path class="st12" d="M216,121.1c-0.7,3.2-2.3,5.9-4.8,8c-3.2,2.6-7.9,1.5-9.7-2.3c-1.6-3.4-1.2-6.7,0.6-9.9c0.4-0.2,0.7,0.1,1,0.3
		c3.5,2.9,7.5,3.9,12,3.5C215.5,120.7,215.9,120.5,216,121.1z"/>
	<path class="st9" d="M141.8,336.2c-1.8-4.3-3.4-8.7-4.8-13.2c-1.1-3.5-2.3-7.1-3.1-10.7c-0.3-1.4-0.5-2.9-0.6-4.3
		c-0.1-1.6-0.2-3.3-0.2-4.9c1.8,0.3,3.7,0.7,5.5,1c0.9,0.1,1.2,0.4,0.8,1.2c-1,2.8-1.2,5.7-1.2,8.6c0,1.3,0.3,2.6,0.5,3.8
		c0.5,2.6,1.2,5.2,1.6,7.9c0.2,1.3,0.9,2.5,1.7,3.6c1.3,1.9,2.7,3.7,5.1,4.8C145.3,334.9,143.6,335.7,141.8,336.2z"/>
	<path class="st13" d="M220.8,104.4c0.1,3.2-2.7,6.2-6.3,6.2c-3.5-0.1-6.3-3-6.1-6.7c0.2-2.7,3.1-6.1,6.4-5.9
		C217.9,98.2,221,100.8,220.8,104.4z"/>
	<path class="st12" d="M199.2,113.1c-2.6,0.8-5.1,0.4-7.5-0.8c-2.2-1.1-3.1-3.1-3.7-5.4c-0.7-2.8,0.4-4.8,2.5-6.4
		c2.3-1.7,4.8-2.9,7.8-2.5c0.3,0.4,0.1,0.7,0,1.1c-1.6,4.4-1.3,8.7,0.6,12.9C199.1,112.3,199.3,112.7,199.2,113.1z"/>
	<path class="st6" d="M96.7,107.1c-1.1-0.1-2.2-0.2-3.2-0.2c-4.3,0-8.5,0.4-12.7,0.4c-1,0-1.2-0.2-1-1.2c0.3-1,0.6-2,0.6-3
		c0.1-1.6,1-2.5,2.3-3.3c2.5-1.3,5-2.5,7.7-3.5c0.6-0.2,0.9-0.2,1.2,0.5c1.1,3.4,2.8,6.6,4.8,9.6C96.4,106.7,96.5,106.8,96.7,107.1z
		"/>
	<path class="st12" d="M201.2,93.7c-1-2.8-1.9-5.6-1.1-8.7c1-3.6,3.7-4.9,7.1-4.1c4,0.9,6.2,3.8,7.5,7.5c-0.2,0.7-0.8,0.5-1.2,0.5
		c-2.9,0-5.7,0.7-8.2,2.1c-1.2,0.6-2.2,1.5-3.2,2.4C201.9,93.4,201.7,93.8,201.2,93.7z"/>
	<path class="st14" d="M171.8,255c0,3.4-0.8,6.6-1.7,9.8c-1.6,5.3-3.7,10.3-6.8,14.8c-2.5,3.6-5.3,6.8-8.5,9.8
		c-1,0.9-2.2,1.5-3.1,2.6c-0.4-0.4-0.8-0.7-1.3-0.6c-0.7,0.2-0.9-0.3-0.9-0.8c0-1.2-0.2-2.3-0.4-3.4c-0.1-0.4,0.2-0.5,0.5-0.7
		c4.6-2.6,8.3-6.1,11.8-10c2.2-2.4,4.1-5,6-7.5c1.8-2.4,2.6-5.3,3.2-8.2C171,258.8,171.2,256.9,171.8,255z"/>
	<path class="st15" d="M199.2,113.1c-1.9-3.2-2.4-6.8-2.1-10.4c0.1-1.3,0.5-2.5,1-3.7c0.1-0.3,0.3-0.6,0.2-0.9
		c1.5-0.1,2.8,0.1,3.9,1.2c1,1,2.3,1.4,3.6,1.7c0.5,0.1,0.6,0.2,0.5,0.7c-0.7,2.3-0.4,4.5,0.6,6.6c0.2,0.4,0.1,0.5-0.2,0.7
		c-0.3,0.1-0.6,0.4-1,0.5c-1.7,0.6-3,1.8-4.5,2.8C200.6,112.7,199.9,113,199.2,113.1z"/>
	<path class="st11" d="M104.1,206.1c-0.1,0.1-0.1,0.3-0.2,0.5c-0.7,1.4-1.4,2.8-1.9,4.3c-0.2,0.6-0.4,0.8-1,0.4
		c-4.5-3.1-9.1-6-13.8-8.8c-0.5-0.3-0.6-0.5-0.3-1c0.8-1.3,1.7-2.5,2.8-3.5c0.5-0.4,0.8-0.5,1.4-0.1c4.2,2.5,8.4,5,12.5,7.7
		C103.8,205.6,104.1,205.7,104.1,206.1z"/>
	<path class="st15" d="M216,121.1c-1.1,0-2.1,0-3.2,0c-3.7,0-7-1.3-9.8-3.6c-0.3-0.2-0.6-0.4-0.9-0.5c1.3-2.5,3.3-4.5,5.8-5.9
		c0.4-0.2,0.7-0.4,1.2,0c1.8,1.5,4,2,6.3,1.8c0.6-0.1,0.9,0,1,0.8C216.8,116.1,216.9,118.6,216,121.1z"/>
	<path class="st16" d="M193.6,63.5c3.2-1.2,6.3-1.1,9.3,0.5c2.6,1.4,3.4,5,1.6,7.6c-1.9,2.6-5.2,3.7-8.3,3c-0.2,0-0.3,0-0.5-0.1
		c-0.3-0.4-0.2-0.8-0.1-1.2c0.6-3.1-0.2-6-1.6-8.7C193.8,64.3,193.5,64,193.6,63.5z"/>
	<path class="st16" d="M195.1,77c1.6,1.4,2.4,3.4,2.3,5.3c-0.1,3.1-0.8,6.2-3.9,7.9c-1.9,1.1-3.8,1-5.5-0.4c-1-0.9-2-1.8-2.8-2.8
		c-0.6-0.8-0.7-1.7-0.3-2.7c0.3-0.3,0.8-0.4,1.2-0.6c3.5-0.9,6.1-3.1,8-6.2C194.3,77.3,194.4,76.8,195.1,77z"/>
	<path class="st15" d="M201.2,93.7c1.9-1.8,3.9-3.3,6.4-4.1c1.9-0.7,3.9-1.1,5.9-1c0.4,0,0.9,0.2,1.3-0.2c1.1,2.3,0.7,4.6,0,6.9
		c-0.2,0.5-0.7,0.4-1.1,0.5c-2.2,0.2-4.1,1.1-5.5,2.8c-0.4,0.5-0.9,0.4-1.4,0.3C204,98.1,202,96.6,201.2,93.7z"/>
	<path class="st15" d="M80.4,29.4c3,2.5,5.1,5.6,5.6,9.6c0.1,0.4,0.1,0.7-0.3,0.8c-4.2,0.9-8.3,1.4-12-1.4c-0.1-0.1-0.1-0.1-0.2-0.2
		c0.8-3.6,2.6-6.5,5.9-8.3C79.7,29.6,80,29.4,80.4,29.4z"/>
	<path class="st12" d="M149.4,35.5c0.1-3.1,3.1-6.6,6.4-7.4c1-0.3,2.1-0.3,3.1-0.2c1.3,0.1,2,0.9,2.3,2.1c0.8,3,0.7,6-0.8,8.8
		c-0.4,0.5-0.7,0.1-0.9-0.1c-2-1.5-4.2-2.3-6.6-2.6c-0.9-0.1-1.8-0.1-2.7,0C149.9,36.1,149.2,36.3,149.4,35.5z"/>
	<path class="st9" d="M154.7,241.8c0.6-0.2,0.9-0.7,1.2-1.2c2-2.8,4.2-5.4,6.6-7.8c0.9-0.9,2.1-1.5,2.9-2.6c2-0.4,4-0.8,6.1-1.2
		c-0.3,0.8-0.9,1.4-1.4,2.1c-0.2,0.4-0.5,0-0.7-0.1c-0.7-0.4-1.4-0.6-2.1,0c-0.7,0.6-0.9,1.4-0.5,2.2c0.6,1.3,0.1,2.1-0.6,3.1
		c-2.3,3-4.4,6.1-6.3,9.3c-0.3,0.6-0.5,0.5-1,0.1C157.5,244.5,156.1,243.2,154.7,241.8z"/>
	<path class="st12" d="M164.2,43.1c2.9-1.2,8.8,0.4,9.5,3.9c0.1,0.6,0.1,1.1,0,1.7c-1.1,3.4-4.9,6.2-8.4,6.1c-0.5,0-1-0.2-1.5-0.2
		c-0.3-0.4-0.1-0.7,0-1.1c1-3.1,1-6.1-0.1-9.1C163.5,43.8,163.1,43.2,164.2,43.1z"/>
	<path class="st15" d="M229.9,106.6c-0.5,0-0.4,0.4-0.5,0.8c-0.7,4-2.6,7.3-5.6,10c-0.5,0.5-1.4,0.6-1.6,1.5c-1.4-1.8-2.3-3.8-3-6
		c-0.2-0.6-0.1-1.2,0.5-1.7c1.8-1.3,3-3.1,3.3-5.3c0.1-0.9,0.4-1.2,1.5-1C226.3,105.4,228.2,105.6,229.9,106.6z"/>
	<path class="st16" d="M179.8,58.1c0-2.6,0.8-5,2.4-7c1.2-1.5,2.9-2.1,4.9-1c3.7,2,5.1,6.8,3.5,10.3c-0.5,0.3-0.8-0.1-1.2-0.3
		c-2.6-1.4-5.4-2.2-8.3-1.7C180.7,58.4,180.2,58.4,179.8,58.1z"/>
	<path class="st13" d="M157,49.6c0,2.7-2.4,5.1-5.1,4.9c-2.9-0.1-4.8-2.2-4.9-5c-0.1-2.7,2.5-5.2,5-5C155,44.8,156.8,46.8,157,49.6z
		"/>
	<path class="st17" d="M172,79.5c1.2-1.8,2.7-3.3,4.8-4.2c1.4-0.6,2.1-0.5,3,0.6c0.9,1.1,2.3,1.6,3.7,1.7c1,0.1,1.2,0.5,1,1.3
		c-0.5,2.2-1.4,4.3-3.1,6c-2.6-0.4-5.1-1.2-7.2-2.9C173.4,81.2,172.5,80.5,172,79.5z"/>
	<path class="st13" d="M184.6,65.5c2.5-0.2,4.9,2.3,4.8,4.9c0,2.8-2.1,4.9-5,4.9c-3,0-4.9-2.5-4.9-5C179.6,67.8,182,65.2,184.6,65.5
		z"/>
	<path class="st17" d="M173,61.8c2.1,0.8,3.8,2.3,5.1,4c0.2,0.3,0.2,0.5,0,0.8c-0.8,1.5-1.3,3.1-0.9,4.9c0.2,0.8-0.6,1.4-1.9,1.7
		c-2.1,0.5-4.2,0.1-6.2-0.6c-0.5-1.2-0.2-2.4,0-3.6C169.8,66.3,170.8,63.8,173,61.8z"/>
	<path class="st15" d="M220.3,89.8c0.4,1,1.4,1.1,2.2,1.6c3.3,2.3,5.5,5.5,6.6,9.4c0,0.1,0.1,0.1,0.1,0.1c-1.8,1.2-3.8,1.5-5.9,1
		c-0.3-0.1-0.4-0.3-0.5-0.5c-0.6-1.8-1.9-3.1-3.4-4.4c-0.8-0.7-1-2-0.8-3.2C218.8,92.3,219.3,90.9,220.3,89.8z"/>
	<path class="st16" d="M173,61.8c0,0.6-0.6,0.9-0.9,1.3c-2.1,2.8-3,5.9-2.7,9.4c0,0.1-0.1,0.1-0.1,0.2c-3.2-0.6-6.1-3.8-6.5-6.9
		c-0.2-1.6,1.1-3.6,2.8-4.4C168.1,60.3,170.6,60.6,173,61.8z"/>
	<path class="st12" d="M83.1,28.7c-0.3-0.2-0.5-0.4-0.5-0.7c-0.2-2.8-0.5-5.6,1-8.2c0.2-0.3,0.3-0.6,0.5-0.8c1.4-1.5,2.5-2,3.9-0.2
		c1.2,1.5,1.8,3.3,2.1,5.2c0.3,1.9,0.6,3.7,0.2,5.6c-0.4,0.1-0.7,0-1-0.1c-1.8-0.6-3.5-1-5.4-0.7C83.6,28.9,83.4,28.8,83.1,28.7z"/>
	<path class="st12" d="M80.4,29.4c-0.8,0.7-1.8,1.1-2.6,1.8c-2.1,1.7-3.4,3.9-4,6.5c-0.1,0.3-0.1,0.5-0.4,0.5
		c-2.6-1.9-4.1-4.4-4.1-7.7c0-1.9,1.4-3.5,3.3-3.9C75.8,25.9,78.2,27.5,80.4,29.4z"/>
	<path class="st17" d="M107.9,19.4c1.6,1.7,2.3,3.8,2.4,6.1c0,0.4-0.1,0.7-0.7,0.8c-1.8,0.3-3.4,1.1-4.7,2.5
		c-0.5,0.6-1.8,0.4-2.6-0.4c-1.2-1.3-2.2-2.7-2.7-4.4c1-1.7,2.7-2.6,4.3-3.4C105.2,19.9,106.5,19.6,107.9,19.4z"/>
	<path class="st15" d="M149.4,35.5c0.1,0.5,0.4,0.4,0.8,0.4c3.6-0.5,6.8,0.6,9.6,2.7c0.2,0.2,0.4,0.4,0.7,0.2
		c-0.7,1.8-1.8,3.4-3.1,4.8c-0.3,0.3-0.5,0.5-1,0.2c-1.7-1.4-3.7-1.7-5.9-1.3c-0.5,0.1-0.5-0.2-0.7-0.4c-0.4-0.7-0.5-1.6-0.6-2.4
		C149.1,38.2,149,36.8,149.4,35.5z"/>
	<path class="st13" d="M114.8,33.3c0,2.4-2.1,4.5-4.4,4.5c-2.5,0-4.6-2.1-4.6-4.5c0-2.8,2.5-4.6,4.6-4.5
		C112.9,28.8,114.8,30.7,114.8,33.3z"/>
	<path class="st12" d="M76.5,48c-3.4,1.1-6.6,0.6-9.5-1.6c-1.3-1-1.3-2.6-0.3-4c0.9-1.2,2.1-2,3.5-2.6c0.8-0.3,1.5-0.2,2.1,0.4
		c0.3,0.3,0.7,0.5,1,0.8c0.2,0.2,0.4,0.4,0.5,0.8c0.3,2,1.1,3.8,2.4,5.5C76.4,47.5,76.6,47.7,76.5,48z"/>
	<path class="st16" d="M113.9,20.2c1.1-1.5,2.3-2.7,4-3.5c3-1.4,5.3,0.8,5.9,3.5c0.6,2.7-0.2,4.9-1.8,7c-0.5,0.3-0.6-0.1-0.8-0.4
		c-1.5-2.9-3.8-4.9-6.8-6.2C114.2,20.6,114,20.5,113.9,20.2z"/>
	<path class="st9" d="M152.7,187.3c0.3-2.4,0.7-4.8,0.6-7.2c-0.1-1.9-0.3-3.7-0.4-5.6c1.1,0.3,2.2,0.6,3.4,0.8
		c0.7,0.1,0.9,0.5,0.9,1c0.3,3.3,1.1,6.5,2,9.7c0.2,0.7,0.1,0.9-0.7,0.9C156.5,187,154.6,187.2,152.7,187.3z"/>
	<path class="st17" d="M113.9,20.2c3.3,1.2,5.9,3.3,7.5,6.5c0.1,0.2,0.2,0.5,0.6,0.5c-1.1,1.6-2.7,2.7-4.5,3.3
		c-0.5,0.2-0.7,0.2-0.9-0.3c-0.7-1.5-1.8-2.6-3.3-3.4c-0.3-0.1-0.5-0.3-0.5-0.6C112.4,24.1,112.2,22,113.9,20.2z"/>
	<path class="st15" d="M143.6,38.1c1.9,1.2,2.8,3.2,3.7,5.2c0.1,0.3,0,0.5-0.2,0.7c-1.3,1.1-2.1,2.6-2.4,4.2
		c-0.1,0.5-0.2,0.5-0.7,0.4c-2-0.4-4-0.8-5.7-1.9c-0.1-1.1,0.4-2.1,0.8-3.1C140.1,41.4,141.6,39.5,143.6,38.1z"/>
	<path class="st15" d="M139.3,54.8c1.4-1.4,3-2.4,4.7-3.2c0.6-0.3,0.8-0.2,1,0.5c0.7,2,2.1,3.5,4.1,4.3c0.7,0.3,0.7,0.5,0.4,1.2
		c-0.8,1.7-2,2.9-3.3,4.1c-2.9-1.3-5.1-3.3-6.7-6.1C139.5,55.3,139.3,55.1,139.3,54.8z"/>
	<path class="st12" d="M139.3,54.8c1.1,1.2,1.8,2.8,3.1,3.9c1,0.8,1.9,1.7,3.1,2.2c0.3,0.1,0.7,0.2,0.8,0.7
		c-1.5,1.5-3.3,2.5-5.3,2.8c-2.2,0.4-4.4-1.6-4.6-3.9C136.1,58,137.5,56.3,139.3,54.8z"/>
	<path class="st15" d="M164.2,43.1c-0.2,0.2-0.6,0.2-0.4,0.7c1.5,3.6,1.3,7.2,0,10.7c-1.6-0.2-3.1-0.9-4.6-1.6
		c-0.4-0.2-0.5-0.4-0.3-0.9c0.5-1.4,0.6-2.9,0.2-4.3c-0.2-0.8,0-1.3,0.4-1.9C160.6,44.1,162.1,43.2,164.2,43.1z"/>
	<path class="st17" d="M117.9,43.5c-1.5-0.7-2.1-2.2-2.8-3.6c-0.4-0.8-0.4-1.4,0.3-2.1c1-0.9,1.6-2.1,1.7-3.5
		c0.1-0.9,0.5-1.2,1.3-1.3c1.7-0.2,3.3,0.2,4.7,1.2c-0.2,3-1.4,5.5-3.4,7.7C119.2,42.5,118.7,43.2,117.9,43.5z"/>
	<path class="st16" d="M172,79.5c1,0.8,1.8,1.8,2.9,2.6c1.8,1.3,3.7,2,5.9,2.3c0.3,0,0.6,0,0.7,0.4c-1.3,1.4-2.9,2.6-4.7,3.2
		c-3.5,1.3-4.8,0.1-6-3.2C170.1,83,170.9,81.2,172,79.5z"/>
	<path class="st17" d="M103.9,44.9c0-2.1,0.6-4,1.8-5.7c0.3-0.4,0.5-0.5,0.9-0.2c1.6,1.1,3.4,1.1,5.3,0.9c0.3,0,0.4-0.1,0.4,0.3
		c0.1,1.9,0.6,3.7,0.4,5.6c-0.2,0.4-0.6,0.5-0.9,0.5c-2.5,0.4-4.8,0.1-7.2-0.8C104.3,45.4,104.1,45.3,103.9,44.9z"/>
	<path class="st17" d="M97.1,32c2-0.9,4-1.1,6.1-0.6c0.4,0.1,0.3,0.3,0.3,0.5c-0.1,1.6-0.1,3.3,0.8,4.7c0.2,0.3,0,0.5-0.2,0.6
		c-1.7,1.2-3.4,2.5-5.5,2.9c-0.4-0.3-0.7-0.7-0.8-1.1c-0.8-2.1-1-4.2-0.8-6.4C96.9,32.4,97,32.2,97.1,32z"/>
	<path class="st17" d="M179.8,58.1c1.8,0,3.5-0.4,5.3,0.1c1.8,0.4,3.5,1,5,2c0.2,0.1,0.4,0.1,0.6,0.2c-0.6,1.4-1.9,2.1-2.9,3.2
		c-0.2,0.2-0.5,0.1-0.8,0c-1.9-0.7-3.7-0.6-5.5,0.2c-0.5,0.3-0.6,0-0.8-0.4C179.7,61.7,179.7,59.9,179.8,58.1z"/>
	<path class="st12" d="M143.6,38.1c-0.5,0.8-1.3,1.3-1.9,2c-1.7,1.7-2.7,3.8-3.2,6.2c0,0.2,0,0.4-0.2,0.6c-1.1-0.4-1.9-1.1-2.7-2
		c-0.9-1-1.1-2.2-0.6-3.5c0.5-1.3,1.3-2.4,2.3-3.3C139.4,36.2,141.3,36.2,143.6,38.1z"/>
	<path class="st12" d="M160.3,59.3c0.8,1.3,1.4,2.5,0.5,4.1c-0.5,0.8-0.3,1.8-0.3,2.7c0,1.1-0.3,1.6-1.5,1.7c-0.9,0.1-1.8,0-2.7-0.5
		c-1.9-1.1-3.2-2.6-3.7-4.8c-0.1-0.6,0.4-0.5,0.7-0.5c2.2-0.3,4.2-1.2,6.1-2.4C159.6,59.4,159.9,59.1,160.3,59.3z"/>
	<path class="st17" d="M195.1,77c-0.9,0.4-1,1.3-1.5,2c-2.2,2.9-5.1,4.8-8.7,5.4c0.8-1.7,1.7-3.4,2-5.3c0-0.1,0.1-0.3,0.1-0.4
		c-0.5-1.4,0.5-1.7,1.4-2.1c0.1,0,0.2-0.1,0.3-0.2c1-1.3,2.1-1.1,3.4-0.4C193,76.5,194.1,76.7,195.1,77z"/>
	<path class="st17" d="M193.6,63.5c1.6,2.5,2.4,5.2,2.4,8.1c0,1-0.3,1.9-0.4,2.9c-1.3-0.2-2.6-0.6-3.8-1.2c-0.4-0.2-0.5-0.4-0.4-0.8
		c0.5-2.2,0.5-4.4-1-6.3c-0.3-0.3-0.1-0.5,0.1-0.8C191.5,64.6,192.4,63.8,193.6,63.5z"/>
	<path class="st16" d="M117.9,43.5c1-1.2,2.2-2.2,3.1-3.6c1-1.6,1.5-3.3,1.8-5.1c0-0.2,0.1-0.4,0.2-0.5c1.6,1,2.8,2.3,3.2,4.2
		c0.3,1.3-0.4,2.4-1.2,3.4C123.2,43.9,120.1,44.7,117.9,43.5z"/>
	<path class="st15" d="M76.5,48c-1.6-1.9-2.6-4-2.9-6.5c0-0.2-0.1-0.3-0.2-0.5c3.5,1.8,7.2,1.9,11,1.3C82.3,44.8,79.8,47,76.5,48z"
		/>
	<path class="st15" d="M160.3,59.3c-0.7,0.4-1.4,0.9-2.2,1.3c-1.6,0.9-3.2,1.5-5.1,1.6c-0.1,0-0.3,0.2-0.4,0.3
		c-0.6-1.7-0.6-3.5,0.3-5.1c0.1-0.2,0.2-0.5,0.5-0.5c1.1-0.3,2.2-0.7,3.1-1.5c0.2-0.2,0.4-0.1,0.5,0.1
		C158.4,56.6,159.6,57.7,160.3,59.3z"/>
	<path class="st16" d="M107.9,19.4c-0.1,0.2-0.3,0.4-0.6,0.4c-3.1,0.4-5.5,2-7.7,4.2c-0.7-1.9-1.4-3.7-0.1-5.6c1.2-1.8,3-2.4,5-1.5
		C105.8,17.4,107,18.2,107.9,19.4z"/>
	<path class="st16" d="M97.1,32c0,1.9-0.1,3.7,0.4,5.5c0.2,0.9,0.7,1.8,1,2.6c-1.1,0.3-2.3,0.4-3.4,0c-2.1-0.7-3.1-2.9-2.1-4.9
		C93.9,33.7,95.3,32.6,97.1,32z"/>
	<path class="st16" d="M103.9,44.9c2.8,1.2,5.7,1.7,8.8,0.8c0,2.9-3,5.2-6,4.4c-1.4-0.4-2.7-2.6-2.8-4.4
		C103.9,45.5,103.9,45.2,103.9,44.9z"/>
	<path class="st3" d="M98.2,16.2c-2,2.3-1.9,4.8-1.2,7.2c-0.3,0.1-0.4-0.1-0.4-0.2c-0.8-1.5-2.1-2-3.7-1.8c-0.8,0.1-1.2-0.1-1.4-0.9
		c-0.2-0.9-0.8-1.7-1.3-2.7C92.8,17.3,95.3,16.8,98.2,16.2z"/>
	<path class="st15" d="M83.1,28.7c2.5-0.5,4.9-0.1,7.2,1c-0.2,2.4-1.3,4.5-2.5,6.7C87,33.2,85.2,30.9,83.1,28.7z"/>
	<path class="st18" d="M116.5,14.8c-2.3,1.4-4,3.1-5.2,5.2c-1.1-1.9-2.6-3.5-4.6-4.8C109.9,14.8,113,14.7,116.5,14.8z"/>
	<path class="st19" d="M199.3,95.7c-1.2-0.3-2.4-0.3-3.5-0.1c-1.1,0.2-1.4-0.5-1.7-1.2c-0.3-0.8-0.4-1.6,0.5-2
		c0.8-0.5,1.6-1.1,2.2-1.8c0.6-0.6,0.9-0.4,1,0.3C198.2,92.5,198.8,94,199.3,95.7z"/>
	<path class="st20" d="M191.7,135.7c-1.2,0-2.2-0.9-2.2-1.9c0-1,1.5-2.6,2.6-2.6c1.2,0,2.4,1,2.3,2.1
		C194.4,134.5,193.1,135.7,191.7,135.7z"/>
	<path class="st19" d="M206.5,146.8c-1.2,0-2.3-1-2.4-2.2c-0.1-1.2,1-2.3,2.2-2.3c1.5,0,2.4,1.1,2.4,2.2
		C208.8,145.6,207.9,146.8,206.5,146.8z"/>
	<path class="st19" d="M133.7,37.9c0,1.4-1.1,2.6-2.4,2.5c-1.1,0-2.2-1.2-2.2-2.2c0.1-1.2,1.4-2.3,2.7-2.3
		C133,35.9,133.7,36.7,133.7,37.9z"/>
	<path class="st21" d="M219,118.5c0.9,1.3,1.6,2.6,2.6,3.5c0.4,0.4,0.1,0.7,0,1c-0.4,1.5-1.9,2.4-3.1,2c-0.7-0.2-1-0.6-0.7-1.4
		C218.4,122.1,218.8,120.4,219,118.5z"/>
	<path class="st21" d="M217,131.1c-0.7-0.2-1.4-0.3-1.9-0.8c-0.5-0.5-0.8-1.1-0.1-1.7c0.1-0.1,0.2-0.2,0.3-0.3
		c0.4-0.5,0.7-1.3,1.2-1.5c0.4-0.2,1.1,0.3,1.6,0.5c0,0,0.1,0,0.1,0c0.4,0.3,1.3-0.4,1.4,0.5c0.1,1-0.2,1.9-1,2.6
		C218.1,130.9,217.5,130.9,217,131.1z"/>
	<path class="st21" d="M69.6,37.6c-1.2,0.4-2.2,1.1-3.2,1.8c-0.3,0.2-0.5,0.8-1,0.5c-0.5-0.3-1-0.9-0.8-1.5c0.3-1.5,1.1-2.6,2.5-3.3
		c0.6-0.2,0.9-0.2,1.2,0.5C68.7,36.4,69.2,37,69.6,37.6z"/>
	<path class="st20" d="M195.7,128.7c-0.6,0.1-1.1-0.2-1.6-0.5c-0.3-0.2-0.5-0.4-0.5-0.8c0-1.1,0.8-1.8,1.6-2.4
		c0.7-0.5,1.5-0.7,2.3-0.2c0.5,0.3,0.7,0.6,0.7,1.2C198.1,127.4,197,128.7,195.7,128.7z"/>
	<path class="st21" d="M173.7,56.6c-0.1-0.4-0.2-0.8-0.3-1.2c-0.3-0.8-0.1-1.5,0.4-2.1c0.6-0.5,1.4-0.8,2.3-0.5
		c0.6,0.2,1.2,0.5,1.6,1c0.5,0.6,0,1.2,0,1.7c-0.1,0.5-0.6,0.2-0.9,0.2C175.7,55.8,174.7,56.1,173.7,56.6z"/>
	<path class="st19" d="M186.1,100.9c-1,0-2.1-1.2-2.2-2.2c0-0.8,1.2-1.9,2.1-1.9c1,0,2,1.2,2,2.2C188,99.8,186.9,100.9,186.1,100.9z
		"/>
	<path class="st21" d="M192.5,119.2c1,0,1.7,0.6,1.7,1.5c0,1-1.2,2.4-2.2,2.4c-0.9,0-2-1-2-1.8C190.1,120.2,191.3,119.2,192.5,119.2
		z"/>
	<path class="st21" d="M201,132.5c0,1-0.9,1.9-2,1.9c-0.9,0-1.7-1-1.7-2.1c0-1.1,0.8-2.1,1.6-2C199.8,130.4,201,131.6,201,132.5z"/>
	<path class="st21" d="M222.8,127.9c0-1,1.2-2.5,2-2.5c0.7,0,1.7,0.8,1.7,1.4c0,1.3-1.1,3-2.1,3
		C223.7,129.7,222.8,128.7,222.8,127.9z"/>
	<path class="st21" d="M147.7,26.6c1.2,0,2.1,0.7,2,1.8c0,1-1,1.9-1.9,1.9c-1,0-2.1-1.2-2-2.3C145.9,27.1,146.5,26.6,147.7,26.6z"/>
	<path class="st21" d="M132.5,45.6c0.8,0,1.5,1,1.5,1.9c0,0.8-1.6,2-2.5,1.9c-0.7,0-1.6-1-1.5-1.8C130,46.6,131.4,45.5,132.5,45.6z"
		/>
	<path class="st21" d="M209.8,139.5c0-1,0.8-2,1.8-2c1,0,1.9,0.9,1.9,2c0,1-0.9,1.9-1.9,1.9C210.7,141.4,209.9,140.5,209.8,139.5z"
		/>
	<path class="st21" d="M130,26.1c0,0.8-1.1,2-1.9,2c-0.9,0-1.8-1-1.8-1.9c0-0.9,1.3-2.1,2.2-2C129.2,24.2,130.1,25.3,130,26.1z"/>
	<path class="st21" d="M146.6,37.5c-0.9-0.9-1.9-1.6-3-2.2c-0.2-0.1-0.5-0.2-0.3-0.5c0.4-0.9,1-1.4,1.9-1.8c0.7-0.3,1.2,0.1,1.7,0.4
		c0.5,0.3,0.4,0.8,0.3,1.2C146.9,35.5,146.8,36.4,146.6,37.5z"/>
	<path class="st21" d="M95.1,43.3c1,0,1.6,0.5,1.6,1.4c0,1.1-1,2.3-1.8,2.2c-0.8,0-1.9-0.7-1.9-1.3C93,44.6,94.2,43.3,95.1,43.3z"/>
	<path class="st21" d="M216.5,79.7c1.1,0,1.8,0.7,1.8,1.8c0,0.8-1.2,1.7-2.2,1.7c-1.1,0-1.3-0.8-1.4-1.9
		C214.5,80.3,215.3,79.7,216.5,79.7z"/>
	<path class="st21" d="M238.9,105.8c0.2,0.9-0.4,1.3-1.7,1.4c-1,0-1.8-0.8-1.8-1.6c0-0.9,1.1-2.1,1.9-2.1
		C238.1,103.6,238.9,104.7,238.9,105.8z"/>
	<path class="st4" d="M237.4,96.2c0.6,0.1,0.4,0.5,0.4,0.9c0,1.4,0,2.8,0,4.3c-0.7-0.1-1.4,0-2,0.4c-0.5,0.3-0.6,0.1-0.8-0.4
		c-0.4-1-0.1-1.7,0.7-2.3C236.6,98.2,237.1,97.2,237.4,96.2z"/>
	<path class="st21" d="M63.4,45.8c-1.1,0-1.6-0.6-1.9-1.4c-0.4-0.7-0.3-1.4,0.2-2c0.6-0.7,1.3-0.9,2.2-0.8c0.2,0,0.7,0.1,0.5,0.6
		c-0.4,0.9-0.3,1.9-0.3,2.8C64,45.6,63.9,45.9,63.4,45.8z"/>
	<path class="st21" d="M132.9,32.6c-1.1,0-2.1-0.9-2.1-1.7c0.1-0.9,1-1.8,1.8-1.8c0.9,0,1.7,1.1,1.7,2.3
		C134.4,32.4,134.1,32.6,132.9,32.6z"/>
	<path class="st21" d="M138.3,34.7c-0.7,0-1.4-0.7-1.4-1.3c0-0.9,1.2-2,2.3-2c0.7,0,1.5,0.7,1.5,1.4
		C140.7,33.7,139.4,34.6,138.3,34.7z"/>
	<path class="st21" d="M206.2,136.9c-1,0-1.7-0.7-1.7-1.6c0-0.9,0.9-1.8,1.7-1.8c0.8,0,1.8,0.9,1.8,1.8
		C208,136.1,207.1,136.9,206.2,136.9z"/>
	<path class="st21" d="M169.1,40.4c-0.8,0-1.8,0-1.9-0.9c-0.2-1.1,0.9-2.2,1.9-2.2c1,0,1.8,0.7,1.8,1.6
		C170.9,39.9,170.3,40.4,169.1,40.4z"/>
	<path class="st22" d="M61.9,48.7c-0.1,0.2-0.1,0.5-0.2,0.8c-0.1,0.6,0.3,1.3-0.2,1.6c-0.7,0.4-1.5,0.6-2.3,0.9
		c-0.3,0.1-0.7,0-0.8-0.4c-0.2-0.6-0.4-1.2,0.1-1.7C59.1,49.1,60.8,48.3,61.9,48.7z"/>
	<path class="st22" d="M200.2,115.4c-0.7,1.2-1.2,2.2-1.5,3.4c-0.2,0.6-0.5,0.5-0.8,0.3c-0.7-0.3-1.3-0.8-1.6-1.5
		c-0.4-0.9-0.1-1.5,0.9-1.7C198.2,115.8,199.2,115.6,200.2,115.4z"/>
	<path class="st23" d="M121.7,30.9c0.8-0.7,1.5-1.3,2-2c0.4-0.5,0.7-0.4,1.1-0.2c1,0.6,1.2,2.7,0.5,3.6c-0.2,0.3-0.4,0.2-0.6,0
		C123.8,31.8,122.9,31.4,121.7,30.9z"/>
	<path class="st24" d="M141.1,50.5c-0.9,0.6-1.6,1.2-2.3,1.7c-0.2,0.1-0.3,0.2-0.6,0.1c-1.1-0.3-2-1.9-1.7-2.9
		c0.1-0.4,0.2-0.7,0.8-0.4c0.6,0.3,1.2,0.6,1.9,0.9C139.7,50,140.3,50.2,141.1,50.5z"/>
	<path class="st23" d="M90.6,42c-0.8-0.2-1.7-0.4-2-1.3c-0.4-0.9,0.3-1.6,0.9-2.2c0.4-0.4,0.9-0.6,1.2,0.3c0.2,0.7,0.6,1.3,1,1.9
		c0.6,0.7,0.5,1.1-0.5,1.3C91,41.9,90.8,41.9,90.6,42z"/>
	<path class="st25" d="M127.6,43.9c0-0.5,0.1-0.8,0.1-1c0.5-1.3,0.5-1.3,1.6-0.6c0.8,0.5,1.7,0.5,2.6,0.5c0.2,0,0.6-0.1,0.6,0.3
		c0,0.4-0.3,0.3-0.5,0.3c-1.1,0.3-2.1,0.6-2.9,1.4c-0.8,0.7-1.1,0.6-1.4-0.4C127.6,44,127.6,43.8,127.6,43.9z"/>
	<path class="st22" d="M125.4,44.7c0.1,0.4,0.2,0.7,0.4,1c0.5,1,0.3,1.6-0.5,2.1c-0.8,0.5-2.1,0.3-2.6-0.4c-0.4-0.5-0.2-1.3,0.4-1.6
		C123.8,45.5,124.6,45.2,125.4,44.7z"/>
	<path class="st21" d="M171.4,57.3c0,1.3-0.1,1.3-1.3,1.1c-0.8-0.2-1.6-0.1-2.3,0c-0.7,0.1-0.5-0.4-0.6-0.7
		c-0.2-0.3-0.1-0.6,0.3-0.7c1.1-0.2,2.2-0.6,3.2-1.2c0.3-0.2,0.4,0,0.4,0.2C171.3,56.4,171.5,56.9,171.4,57.3z"/>
	<path class="st23" d="M187.5,92.4c1.1,0.6,2.3,1.1,3.6,1.1c0.4,0,0.4,0.3,0.5,0.6c0.1,0.4,0,0.6-0.3,0.8c-0.8,0.5-1.6,0.9-2.5,0.4
		C187.7,94.7,187.3,93.9,187.5,92.4z"/>
	<path class="st24" d="M91.3,47.4c2.3,2.1,1.9,2,1.2,2.8c-0.7,0.8-1.8,0.9-2.4,0.2C89.3,49.5,89.2,49.3,91.3,47.4z"/>
	<path class="st22" d="M115,44.3c0.8,0.7,1.5,1.3,2.4,1.6c0.2,0.1,0.4,0.2,0.4,0.4c0,0.7-0.5,1.2-1,1.6c-0.5,0.3-1,0.7-1.6,0.3
		c-0.3-0.1-0.6-0.3-0.5-0.7C115.1,46.6,115,45.5,115,44.3z"/>
	<path class="st24" d="M162.2,72.7c-1.1-0.1-1.9-0.7-2.5-1.6c-0.3-0.4-0.2-0.9,0.4-1.2c0.9-0.4,1.5-0.5,1.9,0.5
		c0.2,0.4,0.5,0.7,0.8,1.1c0.2,0.3,0.7,0.4,0.4,0.8C163.1,72.7,162.7,72.8,162.2,72.7z"/>
	<path class="st24" d="M165.2,77.2c-0.8,0-1.9-0.8-2.1-1.6c0-0.1,0-0.1,0-0.2c0.2-1.1,1.5-0.9,2-1.7c0.3-0.4,0.7,0.2,1,0.3
		c0.4,0.2,0.1,0.4,0,0.7c-0.3,0.6-0.5,1.1-0.4,1.7C165.9,77.2,165.6,77.3,165.2,77.2z"/>
	<path class="st23" d="M207.9,78c0,0.5-0.2,0.5-0.6,0.5c-1.1-0.3-2.3-0.3-3.4,0c-0.3,0.1-0.5,0-0.5-0.4c0.1-0.8,1.3-1.8,2.3-1.8
		C206.8,76.2,207.9,77.1,207.9,78z"/>
	<path class="st24" d="M99.7,28.8c-0.6,0.1-1,0.2-1.5,0.3c-1.1,0.2-1.6,0-1.9-1.1c-0.2-0.8,0.5-2,1.2-2.3c0.4-0.1,0.4,0.1,0.5,0.3
		c0.2,0.5,0.5,1,0.8,1.4C99,27.9,99.3,28.3,99.7,28.8z"/>
	<path class="st24" d="M182.6,87.3c0.3,0.5,0.6,1,1,1.4c0.6,0.6,0.3,1-0.2,1.4c-0.6,0.5-1.4,0.5-2,0.3c-0.5-0.1-0.9-0.5-1-1
		c-0.1-0.5,0.4-0.6,0.7-0.9C181.5,88.1,182,87.7,182.6,87.3z"/>
	<path class="st23" d="M80.4,22.4c-0.3,1.3-0.1,2.6-0.2,3.9c-0.9-0.5-1.6-1-2.5-1.3c-0.6-0.2-0.4-0.5-0.2-0.9
		C78.1,23,79.2,22.7,80.4,22.4z"/>
	<path class="st24" d="M101.6,47.8c0,1-1,1.9-2,1.8c-0.6,0-1.3-0.1-1.3-1c0-0.8,1.1-2,1.9-1.8C100.8,47,101.7,46.8,101.6,47.8z"/>
	<path class="st23" d="M135,54.2c0,1-1,2.1-1.6,2c-0.7-0.1-1.4-0.5-1.5-1.3c-0.1-0.8,1-1.8,1.9-1.7C134.7,53.2,135.1,53.7,135,54.2z
		"/>
	<path class="st23" d="M171.8,75.8c-0.8,0.7-1.3,1.5-1.8,2.2c-0.1,0.2-0.2,0.5-0.4,0.4c-0.7-0.4-1.2-1-1.4-1.8
		c-0.2-0.5,0.3-0.9,0.6-1.3c0.1-0.1,0.3-0.1,0.4-0.1C170,75.4,170.8,75.6,171.8,75.8z"/>
	<path class="st24" d="M177.6,61.8c-1.1-0.8-1.9-1.4-2.9-1.9c-0.4-0.2-0.4-0.4-0.2-0.8c0.5-0.7,1.2-1,2.1-1c0.5,0,0.7,0.3,0.7,0.8
		C177.3,59.8,177.3,60.7,177.6,61.8z"/>
	<path class="st21" d="M88.5,43.9c0.8-0.1,1.2,0.3,1.2,1.2c0,0.9-0.5,1.5-1.4,1.5c-0.9,0-1.5-0.6-1.5-1.3
		C86.8,44.4,87.4,43.9,88.5,43.9z"/>
	<path class="st23" d="M92.6,26.9c-0.1-0.7-0.1-1.3-0.2-2c0-0.5-0.4-1,0.3-1.3c0.6-0.2,1.2,0,1.6,0.5c0.3,0.4,0.6,0.9,0.2,1.5
		c-0.4,0.5-0.3,1.5-1.4,1.2C93.1,26.8,92.9,26.9,92.6,26.9z"/>
	<path class="st26" d="M127.8,35.6c-0.9-0.8-1.1-1.6-0.3-2.5c0.4-0.4,0.1-1.4,0.8-1.5c0.7-0.1,0.4,0.9,0.8,1.3
		c0.3,0.3,0.5,0.6,0.8,1C129.1,34.3,128.4,34.9,127.8,35.6z"/>
	<path class="st27" d="M161.5,56.5c0.8,0.2,1.5,0.4,2.3,0.5c0.4,0.1,1-0.1,1,0.7c0,0.7,0.3,1.5-0.7,1.8c-0.3,0.1-0.5,0.3-0.8,0.4
		c-0.3-0.6-0.5-1.1-0.8-1.7C162.2,57.7,161.9,57.2,161.5,56.5z"/>
	<path class="st24" d="M199.8,80.5c-0.4-1.2-0.7-2.3-1.5-3.5c1,0.1,2.1-0.6,2.6,0.7C201.4,79.2,201.6,79.4,199.8,80.5z"/>
	<path class="st27" d="M149.9,61.4c0.1,0.6,0.2,1.1,0.3,1.5c0.1,0.4,0.5,0.9-0.1,1.3c-0.7,0.4-1.3,0.7-2.1,0.4
		c-0.5-0.2-0.8-0.5-0.2-1.1C148.5,62.9,149.1,62.1,149.9,61.4z"/>
	<path class="st28" d="M229.2,103.7c1.3-0.6,2.4-1.3,3.6-2.1c0,0.6,0.1,1.1-0.1,1.6c-0.4,1.2-1.2,1.5-2.4,1
		C230,104,229.7,103.8,229.2,103.7z"/>
	<path class="st29" d="M217.7,89.2c-0.3-0.8-0.6-1.5-0.8-2.3c-0.2-0.7,0.4-0.8,0.8-1c0.7-0.2,1.3,0.2,1.7,0.7c0.5,0.6-0.3,0.7-0.5,1
		C218.5,88.2,218.1,88.6,217.7,89.2z"/>
	<path class="st30" d="M64.1,50.4c-0.1-0.6-0.1-1.1,0.2-1.5c0.5-0.9,1.1-1,1.9-0.4c0.4,0.3,1.3,0.4,1.1,1c-0.1,0.6-1,0.3-1.5,0.5
		C65.2,50.2,64.7,50.3,64.1,50.4z"/>
	<path class="st31" d="M92.1,32.4c0.2-1.1,0.3-1.9,0.5-2.7c0.1-0.4,0.6-0.6,1.1-0.6c0.7,0,0.8,0.6,1,1c0.3,0.5-0.3,0.5-0.6,0.7
		C93.5,31.3,92.9,31.8,92.1,32.4z"/>
	<path class="st23" d="M102.1,41.4c-0.1,0.9-0.2,1.7-0.5,2.5c-0.1,0.4-0.7,0.2-1,0.2c-0.5-0.1-0.9-0.3-1-0.9
		c-0.1-0.5,0.1-0.9,0.6-1.1C100.7,41.9,101.3,41.7,102.1,41.4z"/>
	<path class="st32" d="M143,306.6c-0.2,3.5-0.3,7-0.8,10.5c-0.2-1.3-0.3-2.5-0.2-3.8c0.2-2.1,0.4-4.3,0.8-6.4
		C142.8,306.8,142.9,306.7,143,306.6z"/>
	<path class="st28" d="M162,41.2c0.7-1.4,1.2-2.6,1.6-3.8c1,0.7,0.9,1.7,0.7,2.6C164.1,41,163,40.6,162,41.2z"/>
	<path class="st33" d="M81.6,48.1c0.9-0.8,1.8-1.5,2.7-2.2c0.1-0.1,0.2-0.2,0.3,0c0.3,0.5,0.3,1,0.1,1.6c-0.1,0.4-0.4,0.7-0.9,0.7
		C83.1,48.1,82.4,48.1,81.6,48.1z"/>
	<path class="st34" d="M198.3,121.8c0,0.5,0,1-0.5,0.8c-0.5-0.2-1.3,0-1.6-0.7c-0.1-0.2,0-1,0.5-0.9
		C197.3,121.2,198.2,121.2,198.3,121.8z"/>
	<path class="st35" d="M106.1,96.2c-0.2-0.2-0.5-0.4-0.2-0.6c0.2-0.1,0.4,0.1,0.5,0.3C106.3,96,106.2,96.1,106.1,96.2z"/>
	<path class="st32" d="M142.2,317.1c0.4,0.4,0.1,0.8,0.2,1.2C142,318,142.2,317.5,142.2,317.1z"/>
	<path class="st36" d="M151.8,27.2c0-0.1-0.1-0.1-0.1-0.2c0-0.1,0-0.2,0.2-0.2c0.1,0,0.1,0.1,0.2,0.2
		C152,27.1,151.9,27.2,151.8,27.2z"/>
	<path d="M120.1,145.7c2.1-0.1,2.1-0.1,2.3-1.8c0.4-2.6,1.5-4.8,3.3-6.7c0.6-0.6,1.2-1,2.1-0.7c1.3,0.4,1.6,1.9,0.6,3
		c-1.4,1.5-2.3,3.2-2.5,5.3c-0.5,3.7,0.8,8.1,5.1,9.6c1.1,0.4,1.5,1.4,1.2,2.3c-0.3,0.9-1.4,1.4-2.5,1c-3.5-1.3-5.7-3.8-6.8-7.3
		c-0.2-0.8-0.5-1-1.4-1.1c-2.7-0.1-5.1,0.8-7.3,2.3c-1.4,1-2.5,0.9-3.1-0.1c-0.6-1-0.2-2,1.2-2.9
		C114.7,146.9,117.3,145.7,120.1,145.7z"/>
	<path d="M129.6,257.4c-7.1-0.2-13.4-2.1-18.6-6.6c-4-3.5-6.5-8-7.2-13.3c-0.1-0.9-0.1-1.7,0.6-2.2c1.2-0.9,2.7-0.2,2.9,1.4
		c0.9,7.2,5,11.9,11.4,14.9c4.2,2,8.6,2.5,13.1,2.2c1.1-0.1,2.3-0.4,3.4-0.6c1.1-0.2,1.9,0.2,2.2,1.2c0.3,0.8-0.2,1.6-1.1,2.1
		c-1.1,0.5-2.4,0.6-3.6,0.8C131.7,257.4,130.6,257.4,129.6,257.4z"/>
</g>
</svg>
