<?xml version="1.0" encoding="utf-8"?>
<!-- Generator: Adobe Illustrator 22.0.1, SVG Export Plug-In . SVG Version: 6.00 Build 0)  -->
<svg version="1.1" id="Layer_1" xmlns="http://www.w3.org/2000/svg" xmlns:xlink="http://www.w3.org/1999/xlink" x="0px" y="0px"
	 viewBox="0 0 245.4 508.5" style="enable-background:new 0 0 245.4 508.5;" xml:space="preserve">
<style type="text/css">
	.st0{fill:#FFFFFF;}
	.st1{fill:#ECECEC;}
	.st2{fill:#5A5A5A;}
	.st3{fill:#EEFEED;}
	.st4{fill:#404040;}
	.st5{fill:#EFFEEE;}
	.st6{fill:#5F5F5F;}
	.st7{fill:#F0FEEF;}
	.st8{fill:#9A4E4E;}
	.st9{fill:#823737;}
	.st10{fill:#BAD2B7;}
	.st11{fill:#C0C0C0;}
	.st12{fill:#FE2E30;}
	.st13{fill:#EEE8EE;}
	.st14{fill:#A81E1E;}
	.st15{fill:#1A191A;}
	.st16{fill:#936A48;}
	.st17{fill:#1A1A1A;}
	.st18{fill:#121112;}
	.st19{fill:#FAC298;}
	.st20{fill:#A5A6A8;}
	.st21{fill:#121212;}
	.st22{fill:#A4A5A7;}
	.st23{fill:#A3A4A6;}
	.st24{fill:#A2A3A5;}
	.st25{fill:#191819;}
	.st26{fill:#A0A1A3;}
	.st27{fill:#A1A2A4;}
	.st28{fill:#100F10;}
	.st29{fill:#F3F3F3;}
	.st30{fill:#A23131;}
	.st31{fill:#929294;}
	.st32{fill:#171617;}
	.st33{fill:#6E6B6E;}
	.st34{fill:#181718;}
	.st35{fill:#3E0C0D;}
	.st36{fill:#5E1213;}
	.st37{fill:#AD2325;}
	.st38{fill:#1B1A1B;}
	.st39{fill:#1C1B1C;}
	.st40{fill:#262526;}
	.st41{fill:#020202;}
</style>
<g>
	<g>
		<path d="M42.5,507c-1.1,0-2.1,0-3.2,0c-4.9-0.1-10.6-0.5-16.2-2c-7.8-2.2-12.2-7.6-12.8-15.7c-0.8-10.7,5.7-20.5,15.9-23.8
			c2.1-0.7,4.4-1,6.6-1c1.5,0,3.1,0.2,4.7,0.5c-2.7-6.7-6.1-13.1-9.2-18.6c-1.4-2.6-2.9-5.2-4.4-7.6c-0.4-0.8-1.5-2.6,0-4.3
			c0.6-0.7,1.4-1.1,2.3-1.1c0.7,0,1.4,0.2,2,0.5c3.6,1.6,7.3,3.2,10.9,4.7c-0.7-7.3-1.2-15-1.6-23.7c-0.7-14.8-0.7-29.3,0.1-43.1
			l0.1-2c0.2-3.2,0.4-6.5,0.7-9.7l0-0.4c0.4-4.2,0.8-8.6,1.5-12.9c0.1-0.9,0.1-1.2-0.2-1.5c-0.8-0.9-1.6-2.6-0.7-5.1
			c0.3-0.9,0.2-1.1-0.1-1.4c-1.3-1.4-1.1-3.3-1-4.1c0-0.4,0.1-0.7,0.2-1.1c0.1-0.3,0.2-0.7,0.2-0.9c-0.2-0.1-0.4-0.1-0.5-0.2
			c-0.4-0.1-0.9-0.3-1.3-0.5c-4-2.2-6.5-5.8-7.2-10.7c-0.7-5,0.8-9.5,2.3-13.5c0.2-0.4,0.2-0.7,0.2-0.9c-1-8.7-1.3-17.8-0.8-26.8
			c0.8-14.5,3.3-26.9,7.7-38c2.4-6,6.1-11,9.2-14.6c8.8-10.6,19.4-19.2,29.8-26.9c-7-4.4-12.1-9.3-16-15.1c-1.7,2.9-3.7,5.4-6.1,7.6
			c-6.5,6.2-14.6,9.7-23.9,10.4c-0.2,0-0.4,0-0.5,0l-0.4,0c-1.5,0-2.6-0.7-3.1-2c-0.5-1.3-0.2-2.7,1-3.7c1.3-1.1,2.4-2.2,3.4-3.3
			c3.4-3.7,5.5-7.1,6.7-10.7c0.9-2.8,0.9-5.6-0.1-8.7c-1.8-5.4-4.6-10.4-8.6-15.4c-2.2-2.7-4.6-5.4-6.9-8c-1.5-1.7-3.1-3.5-4.6-5.3
			c-6.8-8-11.6-17-14.2-26.6c-2.3-8.3-3.1-16.1-2.3-23.7c0.7-7.1,3.5-13.4,5.9-18.1c4.1-8.1,9.6-14.6,16.4-19.3
			C31,53.4,39,50.6,47.7,50C43.4,45,41.6,39.1,42,31.8c0.1-1.2,0.2-2.7,0.5-4.2c0.3-1.4,1.1-2.3,2.4-2.6c0.3-0.1,0.6-0.1,0.8-0.1
			c1,0,1.9,0.5,2.6,1.4c3.6,4.8,8.8,8,16.2,10.2c0.5,0.1,1.1,0.3,1.6,0.4c0.3,0.1,0.5,0.1,0.8,0.2c1.5-3.1,3.8-5.3,7.1-6.5
			c1.4-0.6,2.2-1.4,2.7-2.8c1.8-5.1,5.1-9.3,9.9-12.5c7.3-4.9,13.6-8.1,19.9-10.1c3.9-1.2,8.1-2.1,12.8-2.7c2.8-0.4,5.5-0.5,8.2-0.7
			c0.8,0,1.5-0.1,2.3-0.1c1-0.1,2.1-0.1,3.3-0.1c2.8,0,5.5,0.2,8.2,0.4l1.6,0.1c5.7,0.4,11.3,1.5,16.7,2.6l0.6,0.1
			c2.1,0.4,4.2,1.1,6.2,1.7c0.9,0.3,1.7,0.6,2.6,0.8c4.7,1.4,8.4,2.7,11.8,4.2c0.4,0.2,0.7,0.3,1.1,0.5c0.5,0.3,1,0.5,1.5,0.6l0.1,0
			l0.1,0c2,0.9,3.7,1.8,5.3,2.7c0.3,0.2,0.7,0.4,1,0.6c0.5,0.3,1.1,0.7,1.6,1.1c0.6,0.3,1.1,0.7,1.6,1.1c0.3,0.2,0.6,0.4,0.9,0.6
			c4.3,3.2,8,6.5,11.3,10c3.4,3.6,6.3,7.6,8.5,10.6c0.3,0.5,0.6,1,0.9,1.4c0.1,0.2,0.2,0.4,0.3,0.5c0.4,0.6,0.8,1.1,1.2,1.7
			c0.3,0.5,0.6,0.9,1,1.4c1.5,1.9,2.5,3.9,3.7,6.2c1,2.2,2.3,4.3,3.5,6.4l0.4,0.8c2,3.7,3.8,7.5,5.5,11.3c0.7,1.5,1.4,3,2.1,4.4
			c1.5,2.9,3,5.9,4,9c0.3,0.9,0.6,1.9,1,2.8c1.2,3.6,2.5,7.4,3.3,11.3c0.8,4.2,1.4,8,1.8,11.6c0.1,1.2,0.3,2.3,0.5,3.5
			c0.4,2.5,0.8,5.1,0.8,7.8c0,1.6,0,3.1,0.1,4.7c0.1,4.8,0.2,9.7-0.2,14.6c-0.5,6.9-1.6,13.6-2.4,18.6c-2.1,12.3-5.7,25.1-10.9,39.1
			c-1.2,3.3-1.8,6.9-2.3,10.4l-0.2,1c-0.3,2.1-0.7,4.1-1,6.2c-0.2,1.1-0.4,2.2-0.6,3.3c-0.4,2.2-0.6,4.5-0.7,6.7
			c-0.1,1.1-0.1,2.2-0.2,3.3c1-0.4,2.1-0.5,3.2-0.5c1.3,0,2.6,0.2,4.1,0.7c4.5,1.3,6.6,5.7,5.2,10.7c-0.7,2.3-1.9,4.3-3.6,5.9
			c1.1,2.8,0.8,5.9-0.6,8.6c-1.6,2.9-4.3,4.8-7.4,5.3c-0.7,0.1-1.3,0.2-2,0.2c-1,0-2.1-0.1-3.4-0.3c-1.6,2.9-4.7,4.6-8.3,4.6
			c-0.9,0-1.9-0.1-2.8-0.3c-3.7-0.9-6-3-6.9-6.3c-0.7-2.4-0.3-4.8,0.2-7l0.1-0.4l0.1-0.1l0-0.1c0.4-1.3,0.4-1.3-0.4-1.7
			c-1.9-1-2.8-3.1-2.4-6c0.5-3.6,1.9-6.8,4-9.5c0.6-0.7,1.3-1.5,2.3-2.1c-1.6-2.7-3.3-5.9-4.2-9.5c-0.8-3.1-1.5-6.5-2-10.7
			c-0.8-5.8-0.7-11.7-0.6-17.1c0.1-3.8,0.4-7.1,0.9-10c-3.3,3.4-7,6.7-11.2,9.8c1.6,5.1,2.5,9.7,2.7,14.1c0.3,5.7-0.7,10.4-2.8,14.5
			c-2.2,4.2-5.1,7.8-8.8,10.8c-0.1,0-0.1,0.1-0.1,0.1c0,0,0,0.1,0.1,0.2c1.9,6.8,4,14.5,4.8,22.3c0.1,0.7,0.1,1.4,0.2,2.1
			c0.5,4.9,1,10,0.3,15.2c-2,14.1-6.3,26.2-13.2,37.1c-2.4,3.7-5.1,7.6-8.9,10.7c0,0,0,0.1,0,0.2c0.1,3.3-0.3,6-1.1,8.4
			c-1.5,4.5-4.5,8.1-9,10.8c-1,0.6-2,0.8-3,1c0.2,0.8,0.3,1.5,0.3,2.1c0,2.3-1.2,3.4-2.3,4c0.7,3.7,1.6,7.4,2.5,11
			c1,3.9,2,8,2.7,12.1c0,0.1,0.1,0.2,0.1,0.4l0.1,0.3c0.8,2.8,1.3,5.7,1.8,8.4l0.3,1.4c0.2,1,0.4,2,0.7,3c0.3,1.3,0.7,2.7,0.9,4
			c0.1,0.9,0.3,1.7,0.4,2.6c0.2,1,0.4,2,0.5,3c0.4,3.8,1.2,7.5,1.9,11.2l0.1,0.3c1.5,7.4,3.1,16.1,3.7,25.1c0.2,3.1,0.5,6.2,0.7,9.2
			c0.2,1.9,0.3,3.8,0.5,5.7c1.9-0.4,3.7-0.8,5.6-1.2c1.7-0.4,3.3-0.7,5-1.1c0.4-0.1,0.9-0.2,1.4-0.2c1.3,0,2.1,0.7,2.5,1.2
			c1.3,1.6,0.4,3.3,0.1,4c-2.8,5.4-5.4,10-8.4,14.3c0.3,0,0.7,0,1,0c4,0,7.8,1,11.7,3c3.9,2,6.3,5.5,7.3,10.4
			c1.7,8.4,0.6,16.5-3.3,24.1c-2.1,4.1-5.5,6.5-10.2,7.2c-7.1,1-14.5,1.5-22.5,1.5c-1.8,0-3.7,0-5.5-0.1c-6-0.2-12.6-0.7-20.7-1.6
			c-1.6-0.2-3.3-0.4-4.6-0.6c-2-0.3-3-1.6-3.1-3.9c-0.1-5-0.6-9.6-1.6-14c-1.1-5.1-2.8-10.6-5.3-17.3l0-0.1c-0.1-0.3-0.2-0.6-0.3-1
			c-0.2-1.1,0-2.1,0.6-2.8c0.6-0.7,1.4-1.1,2.4-1.1c0.3,0,0.6,0,0.9,0.1c0.5,0.1,0.9,0.3,1.4,0.4c-0.9-3-2.2-5.9-3.4-8.6l-0.1-0.3
			c-0.1-0.2-0.2-0.4-0.3-0.7c-0.4-1.1-0.4-2.1,0.1-3c0.5-0.8,1.3-1.4,2.4-1.6c0.9-0.1,1.8-0.2,2.6-0.3c0.2,0,0.3,0,0.5,0
			c-3.6-9.8-7-19.6-10.1-29.2c-4.2-12.7-8-25.3-11.5-37.6c-1.7-5.9-3.6-12.6-5.1-19.1c-0.3-1.2-0.5-2.4-0.8-3.7
			c-0.2-0.9-0.4-1.8-0.6-2.7c0-0.1-0.1-0.2-0.1-0.3c-0.1,0-0.2,0-0.4,0c-0.7,0-1.4-0.1-2.1-0.1c-0.2,1.2-0.5,2.4-0.7,3.6
			c-0.3,1.5-0.6,2.9-0.8,4.4c-0.4,2.1-0.9,4.3-1.3,6.4c-0.7,3.2-1.4,6.5-1.9,9.7c-0.4,2.5-0.8,5.1-1.2,7.6c-0.4,2.5-0.8,5-1.2,7.5
			c-1,6.7-1.8,12.6-2.5,18.3c-0.6,4.7-1,9.3-1.5,14.1c-0.5,5.3-1,10.7-1.5,16l-0.3,2.9c-0.1,0.8-0.1,1.6-0.2,2.4
			c-0.1,0.8-0.1,1.5-0.2,2.3c1,0.2,2.1,0.5,3.1,0.8l1.3,0.3c2.3,0.6,3.2,2,2.9,4.3c-0.5,3.8-1.4,7.3-2.7,10.7l1.5-0.3
			c0.4-0.1,0.9-0.2,1.3-0.3c0.3-0.1,0.6-0.1,0.9-0.1c1.1,0,2,0.5,2.6,1.3c0.8,1.1,0.8,2.5,0,3.8c-1.5,2.2-2.7,4.2-3.7,6.1
			c-1.9,3.5-4,7.5-4.8,12c-0.5,2.9-0.6,5.2-0.3,7.4c0.4,2.5-0.4,3.8-2.9,4.6C71.7,504,66,505.2,59,506C53.3,506.7,47.7,507,42.5,507
			z M156.9,252.3c-7.9,10.2-11.5,21.9-13.7,31.9c2.9-2.6,5.6-5.5,8-8.7c2.1-2.9,3.6-5.4,4.2-8.3c0.4-2.1,0.9-4.9,1.1-7.8l0.1-0.7
			C156.9,256.4,157,254.4,156.9,252.3z M64.2,253.6c0,0.3,0,0.6,0,0.9c0.2,4.9,1.3,9.8,2.6,14.4c0.6,2.2,1.2,4.2,1.8,6.1
			c2.1-4.8,3.5-9.7,4.6-14C69.2,259.3,66.2,256.9,64.2,253.6z"/>
		<path class="st0" d="M133,3c3.2,0,6.5,0.3,9.7,0.5c5.8,0.4,11.4,1.6,17.1,2.7c3,0.6,5.8,1.6,8.7,2.5c4,1.2,7.9,2.4,11.6,4.1
			c0.9,0.4,1.7,0.9,2.7,1.2c1.8,0.8,3.5,1.6,5.1,2.7c0.8,0.6,1.7,1,2.5,1.6c0.9,0.5,1.7,1.2,2.5,1.7c4,2.9,7.6,6.2,11,9.8
			c3.1,3.3,5.8,6.8,8.4,10.4c0.5,0.6,0.8,1.3,1.3,2c0.8,1,1.5,2.1,2.3,3.1c1.5,1.8,2.5,3.9,3.5,5.9c1.2,2.5,2.6,4.8,3.9,7.2
			c2,3.6,3.7,7.4,5.4,11.2c2,4.4,4.5,8.6,6.1,13.2c1.5,4.6,3.3,9.1,4.2,13.9c0.7,3.8,1.4,7.6,1.8,11.5c0.4,3.7,1.2,7.4,1.2,11.1
			c0.1,6.4,0.4,12.8-0.1,19.2c-0.4,6.2-1.4,12.3-2.4,18.4c-2.3,13.3-6.1,26.2-10.8,38.8c-1.4,3.8-1.9,7.8-2.6,11.7
			c-0.5,3.2-1,6.3-1.6,9.5c-0.4,2.3-0.6,4.6-0.8,6.9c-0.1,1.9-0.3,3.9-0.5,6c1.6-1.2,3.3-1.6,4.9-1.6c1.2,0,2.4,0.2,3.7,0.6
			c3.7,1.1,5.4,4.8,4.2,8.9c-0.6,2.1-1.7,3.9-3.4,5.4c-0.4,0.4-0.5,0.7-0.3,1.2c2.2,5.1-1.3,11.2-6.8,12.1c-0.6,0.1-1.2,0.1-1.8,0.1
			c-1.1,0-2.2-0.1-3.3-0.3c-0.2,0-0.4-0.1-0.5-0.1c-0.3,0-0.5,0.1-0.7,0.5c-1.3,2.7-4,4.3-7.1,4.3c-0.8,0-1.6-0.1-2.4-0.3
			c-3-0.7-5-2.3-5.9-5.2c-0.6-2.2-0.2-4.4,0.3-6.6c0,0,0-0.1,0-0.1c0.4-1.4,0.9-2.7-1.1-3.6c-1.6-0.8-1.8-2.8-1.6-4.5
			c0.4-3.2,1.7-6.2,3.7-8.7c0.7-0.9,1.5-1.6,2.5-2c0.8-0.3,0.6-0.7,0.3-1.2c-1.8-3.1-3.5-6.3-4.4-9.8c-0.9-3.5-1.5-7-2-10.5
			c-0.8-5.6-0.7-11.3-0.5-16.9c0.2-4.6,0.6-9.2,1.6-13.7c0-0.1,0-0.3,0-0.4c0.1-0.2,0.2-0.5-0.1-0.5c0,0-0.1,0-0.1,0
			c-4.3,5-9.1,9.4-14.4,13.3c-0.5,0.3-0.5,0.6-0.3,1.1c1.5,4.6,2.5,9.2,2.7,14.1c0.2,4.8-0.4,9.5-2.6,13.7c-2.1,4-4.9,7.4-8.4,10.3
			c-0.7,0.6-0.8,1.1-0.6,1.9c2,7.2,4,14.5,4.7,22c0.5,5.6,1.3,11.2,0.5,16.9c-1.8,13.1-5.9,25.3-13,36.5c-2.4,3.8-5.1,7.5-8.6,10.4
			c-0.5,0.4-0.5,0.8-0.5,1.3c0.1,2.7-0.1,5.4-1,7.9c-1.5,4.4-4.4,7.6-8.3,9.9c-1,0.6-2.2,0.8-3.3,1c-0.6,0.1-0.8,0.3-0.6,1
			c0.3,0.8,0.5,1.6,0.5,2.5c0,1.2-0.4,2.1-1.6,2.6c-0.7,0.3-0.9,0.7-0.7,1.5c1.5,7.8,3.9,15.4,5.3,23.2c0,0.3,0.1,0.5,0.2,0.8
			c1,3.2,1.5,6.5,2.1,9.7c0.4,2.4,1.2,4.6,1.6,7c0.3,1.9,0.7,3.7,0.9,5.5c0.5,3.9,1.2,7.7,2,11.6c1.7,8.2,3.1,16.5,3.6,24.9
			c0.3,5.3,0.8,10.5,1.2,15.8c0,0.5,0.1,0.8,0.5,0.8c0.1,0,0.2,0,0.4-0.1c3.8-0.9,7.6-1.7,11.4-2.5c0.4-0.1,0.7-0.1,1-0.1
			c0.5,0,0.9,0.1,1.3,0.6c0.6,0.8,0.3,1.6-0.1,2.4c-2.9,5.6-6,11.2-9.9,16.2c-0.1,0.1-0.1,0.2-0.3,0.5c0.8-0.1,1.6-0.1,2.3-0.2
			c0.6-0.1,1.2-0.1,1.8-0.1c3.9,0,7.5,1,11,2.9c3.8,2,5.7,5.3,6.6,9.3c1.7,8.1,0.6,15.8-3.1,23.1c-1.9,3.7-4.9,5.8-9.1,6.4
			c-7.4,1.1-14.8,1.5-22.3,1.5c-1.8,0-3.7,0-5.5-0.1c-6.9-0.2-13.8-0.8-20.6-1.5c-1.5-0.2-3.1-0.4-4.6-0.6c-1.3-0.2-1.8-0.9-1.8-2.4
			c-0.1-4.8-0.6-9.6-1.6-14.3c-1.3-6-3.2-11.8-5.4-17.6c-0.1-0.3-0.2-0.6-0.3-0.9c-0.3-1.2,0.4-2.1,1.5-2.1c0.2,0,0.4,0,0.5,0.1
			c1,0.2,1.9,0.7,2.9,1c0.2,0.1,0.4,0.2,0.6,0.2c0.1,0,0.2,0,0.3-0.1c0.2-0.2,0-0.5-0.1-0.8c-1-3.7-2.5-7.1-4-10.6
			c-0.1-0.3-0.3-0.6-0.4-0.8c-0.5-1.3,0.1-2.3,1.4-2.5c1.2-0.2,2.4-0.3,3.6-0.4c1.4-0.1,1.4-0.1,0.9-1.4c-3.6-9.8-7-19.7-10.3-29.7
			c-4.1-12.4-7.9-24.9-11.5-37.5c-1.8-6.3-3.6-12.7-5.1-19.1c-0.5-2.1-0.9-4.3-1.3-6.4c-0.3-1.3-0.5-1.5-1.9-1.5
			c-0.9,0-1.8-0.1-2.7-0.2c0,0-0.1,0-0.1,0c-0.4,0-0.6,0.2-0.7,0.7c-0.5,2.9-1.1,5.7-1.6,8.6c-1,5.4-2.4,10.7-3.2,16.2
			c-0.7,5-1.6,10.1-2.3,15.1c-0.9,6.1-1.7,12.2-2.5,18.3c-0.6,4.7-1,9.4-1.5,14.1c-0.6,6.3-1.2,12.6-1.8,18.9
			c-0.2,1.7-0.3,3.5-0.4,5.2c-0.1,0.6,0.1,0.8,0.7,0.9c1.6,0.4,3.3,0.8,4.9,1.2c1.6,0.4,2,1.1,1.8,2.7c-0.6,4.4-1.7,8.6-3.6,12.9
			c1.5-0.3,2.9-0.6,4.2-0.8c0.4-0.1,0.9-0.2,1.3-0.3c0.2,0,0.4-0.1,0.6-0.1c0.5,0,1,0.2,1.4,0.7c0.5,0.7,0.4,1.4-0.1,2.1
			c-1.3,2-2.6,4.1-3.8,6.2c-2.2,3.9-4.2,7.9-5,12.4c-0.5,2.6-0.7,5.2-0.3,7.9c0.3,1.8-0.1,2.4-1.9,3c-5.8,1.8-11.8,2.9-17.8,3.6
			c-5.4,0.6-10.9,1-16.4,1c-1,0-2.1,0-3.1,0c-5.3-0.1-10.7-0.5-15.9-2c-7.1-2-11.1-6.9-11.7-14.4c-0.8-10,5.4-19.2,14.9-22.3
			c2-0.7,4.1-1,6.2-1c2.3,0,4.6,0.4,6.8,1c0.2-0.4-0.1-0.8-0.2-1.1c-2.7-7-6.2-13.7-9.9-20.2c-1.4-2.6-2.9-5.1-4.4-7.7
			c-0.5-0.8-0.9-1.7-0.1-2.6c0.4-0.4,0.8-0.6,1.2-0.6c0.4,0,0.9,0.2,1.4,0.4c4,1.8,8,3.5,12.1,5.3c0.4,0.2,0.7,0.3,0.9,0.3
			c0.3,0,0.2-0.3,0.2-1.1c-0.8-8.3-1.3-16.6-1.7-24.9c-0.7-14.3-0.7-28.6,0.1-43c0.2-3.9,0.4-7.8,0.8-11.7c0.4-4.4,0.8-8.8,1.5-13.2
			c0.1-0.9,0.2-1.8-0.5-2.7c-0.9-1.1-0.9-2.4-0.4-3.7c0.4-1,0.4-2-0.4-2.9c-0.7-0.8-0.7-1.9-0.6-2.9c0.1-1,0.6-2.1,0.3-2.9
			c-0.3-0.8-1.7-0.8-2.5-1.3c-3.8-2.1-5.8-5.4-6.4-9.6c-0.6-4.5,0.7-8.6,2.2-12.7c0.2-0.5,0.3-1,0.3-1.6c-1-8.8-1.2-17.7-0.8-26.6
			c0.7-12.9,2.8-25.5,7.6-37.5c2.1-5.3,5.3-9.9,8.9-14.2c8.7-10.6,19.4-19.2,30.3-27.3c0.3-0.2,0.5-0.4,0.9-0.7
			c-7.6-4.5-14.2-10.1-18.7-17.9c-1.9,3.6-4.2,6.8-7,9.5c-6.4,6.2-14.2,9.3-23,9.9c-0.1,0-0.3,0-0.4,0c-0.1,0-0.3,0-0.4,0
			c0,0,0,0,0,0c0,0,0,0,0,0c-0.8,0-1.4-0.3-1.7-1.1c-0.3-0.8-0.1-1.5,0.6-2c1.2-1.1,2.4-2.2,3.5-3.4c3-3.3,5.6-6.9,7.1-11.2
			c1.1-3.2,0.9-6.4-0.1-9.7c-2-5.9-5-11.1-8.9-15.9c-3.7-4.6-7.7-8.9-11.5-13.3c-6.5-7.7-11.2-16.3-14-26.1
			c-2.1-7.6-3-15.3-2.3-23.2c0.6-6.3,2.9-12,5.7-17.6c3.8-7.5,8.9-14,15.9-18.8c7-4.8,14.8-7.4,23.2-8c0.8-0.1,1.6-0.1,2.5-0.2
			c0,0,0,0,0.1-0.1c-0.5-0.5-1-1.1-1.5-1.6c-4.6-5-6.1-10.9-5.7-17.6c0.1-1.3,0.2-2.7,0.5-4c0.2-0.7,0.5-1.3,1.3-1.5
			c0.2,0,0.3-0.1,0.5-0.1c0.5,0,1,0.3,1.4,0.8c4.3,5.7,10.3,8.8,17,10.7c1,0.3,1.9,0.4,2.9,0.7c0.1,0,0.2,0,0.3,0
			c0.3,0,0.5-0.2,0.7-0.6c1.3-3,3.4-5,6.5-6.2c1.7-0.7,2.9-1.7,3.6-3.6c1.8-4.9,5-8.8,9.4-11.8c6.1-4.1,12.4-7.7,19.5-9.9
			c4.1-1.2,8.3-2.1,12.6-2.6c3.5-0.5,6.9-0.6,10.4-0.8C130.9,3,132,3,133,3 M141.1,287.5c0.5,0,0.7-0.2,0.9-0.4
			c4-3.1,7.5-6.7,10.5-10.8c2-2.7,3.8-5.5,4.5-8.9c0.5-2.6,0.9-5.3,1.2-8c0.2-2.5,0.5-5,0.3-7.6c-0.1-1.1,0.1-2.2-0.4-3.3
			c-9.8,11.2-14.2,24.6-16.9,38.9C141,287.5,141.1,287.5,141.1,287.5 M68.3,279c0.3-0.6,0.5-1,0.7-1.4c2.5-5.3,4.1-10.8,5.6-16.4
			c0.2-0.9,0-1.2-0.9-1.6c-4.8-2-8.2-5.2-9.9-10.2c-0.1-0.2,0-0.4-0.4-0.5c-0.6,1.8-0.9,3.7-0.8,5.6c0.2,5,1.3,9.9,2.6,14.7
			C66.2,272.5,67.1,275.7,68.3,279 M133,0c-1.2,0-2.3,0-3.4,0.1c-0.8,0-1.5,0.1-2.3,0.1c-2.7,0.2-5.5,0.3-8.3,0.7
			c-4.8,0.6-9.1,1.5-13,2.7c-6.5,2-12.9,5.2-20.3,10.3c-5,3.4-8.6,7.9-10.5,13.3c-0.3,1-0.8,1.5-1.8,1.9c-3.2,1.3-5.7,3.4-7.3,6.2
			c-0.4-0.1-0.8-0.2-1.1-0.3c-7.1-2-12-5.1-15.4-9.6c-0.9-1.3-2.3-2-3.8-2c-0.4,0-0.8,0.1-1.2,0.2c-1.8,0.5-3,1.8-3.5,3.7
			c-0.4,1.6-0.5,3.1-0.6,4.4c-0.4,6.5,1,12.3,4.3,17c-7.9,1-15.2,3.8-21.6,8.2c-7,4.8-12.7,11.5-16.9,19.9c-2.4,4.8-5.3,11.3-6,18.6
			c-0.8,7.8,0,15.8,2.4,24.3c2.8,9.9,7.6,19,14.5,27.2c1.5,1.8,3.1,3.6,4.6,5.3c2.3,2.6,4.6,5.3,6.8,8c3.9,4.9,6.6,9.8,8.4,15
			c0.9,2.8,1,5.3,0.1,7.7c-1.2,3.4-3.2,6.6-6.4,10.2c-1,1.1-2.1,2.1-3.3,3.2c-1.6,1.4-2.2,3.5-1.4,5.4c0.7,1.8,2.4,2.9,4.5,2.9
			l0.2,0l0.2,0c0.2,0,0.4,0,0.6,0c9.7-0.7,18.1-4.3,24.9-10.8c1.9-1.8,3.6-3.8,5.1-6c3.4,4.6,7.8,8.7,13.3,12.4
			c-9.9,7.4-19.9,15.7-28.3,25.9c-3.1,3.7-6.9,8.8-9.4,15c-4.4,11.2-7,23.8-7.8,38.5c-0.5,9.1-0.2,18.2,0.8,27c0,0,0,0.1-0.1,0.2
			c-1.5,4.1-3.1,8.9-2.4,14.2c0.8,5.4,3.4,9.4,7.9,11.9c0.3,0.2,0.6,0.3,0.8,0.4c-0.1,0.3-0.1,0.5-0.1,0.8c-0.1,0.9-0.4,3.3,1.2,5.2
			c0,0,0,0,0,0.1c-1.1,3.3,0,5.4,0.9,6.5c0,0.1,0,0.2,0,0.4c-0.7,4.3-1.1,8.7-1.5,13l0,0.4c-0.3,3.3-0.5,6.6-0.7,9.8l-0.1,2
			c-0.8,13.8-0.8,28.4-0.1,43.3c0.4,7.7,0.8,14.7,1.4,21.3c-2.9-1.2-5.7-2.5-8.6-3.7c-0.7-0.3-1.6-0.6-2.6-0.6
			c-1.3,0-2.5,0.6-3.4,1.6c-1.5,1.7-1.5,3.7-0.2,6c1.4,2.5,2.9,5.1,4.4,7.6c2.7,4.8,5.6,10.2,8.1,16c-0.8-0.1-1.5-0.1-2.3-0.1
			c-2.4,0-4.8,0.4-7.1,1.1c-10.9,3.5-17.8,13.9-17,25.4c0.7,8.6,5.6,14.7,13.9,17c5.8,1.6,11.6,2,16.6,2.1c1.1,0,2.1,0,3.2,0
			c5.3,0,11-0.3,16.7-1c7.1-0.8,12.9-2,18.3-3.7c3.2-1,4.4-3,4-6.3c-0.3-2-0.2-4.2,0.3-6.9c0.8-4.2,2.8-8.1,4.7-11.5
			c1-1.9,2.2-3.8,3.7-6c1.2-1.8,1.2-3.9,0-5.5c-0.9-1.2-2.3-1.9-3.8-1.9c-0.4,0-0.8,0-1.2,0.1c-0.1,0-0.2,0-0.2,0
			c0.9-2.7,1.5-5.5,1.9-8.5c0.4-3.1-1-5.2-4-6l-1.3-0.3c-0.6-0.2-1.2-0.3-1.9-0.5c0-0.3,0-0.7,0.1-1c0.1-0.8,0.1-1.6,0.2-2.4
			l0.3-2.9c0.5-5.2,1-10.7,1.5-16c0.5-4.7,0.9-9.4,1.5-14c0.7-5.6,1.5-11.6,2.4-18.3c0.4-2.5,0.8-5,1.2-7.5c0.4-2.5,0.8-5.1,1.2-7.6
			c0.5-3.2,1.2-6.5,1.8-9.6c0.4-2.1,0.9-4.2,1.3-6.4c0.3-1.5,0.6-2.9,0.8-4.4c0.1-0.8,0.3-1.5,0.4-2.3c0,0,0,0,0,0
			c0.1,0.6,0.3,1.3,0.4,1.9c0.2,1.2,0.5,2.5,0.8,3.7c1.5,6.6,3.4,13,5.1,19.2c3.5,12.3,7.4,24.9,11.5,37.6c2.9,9,6.1,18.2,9.5,27.4
			c-0.4,0-0.8,0.1-1.3,0.2c-1.5,0.2-2.8,1-3.5,2.3c-0.7,1.2-0.8,2.8-0.2,4.3c0.1,0.3,0.2,0.6,0.3,0.8c0,0.1,0.1,0.2,0.1,0.2
			c0.9,1.9,1.7,3.9,2.5,6c-1.4,0-2.7,0.6-3.5,1.7c-0.9,1.1-1.2,2.6-0.9,4.1c0.1,0.5,0.3,0.9,0.4,1.2l0,0.1c2.6,6.7,4.2,12,5.3,17.1
			c0.9,4.3,1.4,8.8,1.5,13.8c0.1,4.2,3.1,5.1,4.4,5.3c1.4,0.2,3,0.4,4.7,0.6c8.1,0.9,14.8,1.4,20.8,1.6c1.9,0.1,3.8,0.1,5.6,0.1
			c8.1,0,15.6-0.5,22.7-1.5c5.2-0.8,9-3.4,11.3-8c4.1-8,5.2-16.4,3.4-25.1c-1.1-5.3-3.8-9.1-8.1-11.4c-3.5-1.8-7-2.9-10.6-3.1
			c2.4-3.7,4.6-7.6,6.9-12.1c1.1-2.1,1-4-0.2-5.6c-0.9-1.2-2.2-1.8-3.7-1.8c-0.6,0-1.2,0.1-1.7,0.2c-1.7,0.4-3.3,0.7-5,1.1
			c-1.3,0.3-2.6,0.6-4,0.9c-0.1-1.3-0.2-2.7-0.3-4c-0.2-3-0.5-6.1-0.7-9.2c-0.6-9.1-2.2-17.9-3.7-25.3l-0.1-0.4
			c-0.7-3.6-1.5-7.3-1.9-11l0,0l0,0c-0.1-1-0.3-2.1-0.5-3c-0.2-0.9-0.3-1.7-0.4-2.5c-0.2-1.5-0.6-2.9-0.9-4.2c-0.3-1-0.5-2-0.7-2.9
			l-0.3-1.4c-0.5-2.8-1-5.7-1.9-8.6c0-0.1-0.1-0.2-0.1-0.3c0-0.1,0-0.1-0.1-0.2c-0.8-4.1-1.8-8.2-2.8-12.1c-0.8-3.3-1.7-6.6-2.3-10
			c1.4-1.1,2.1-2.7,2.1-4.7c0-0.3,0-0.7-0.1-1c0.7-0.2,1.3-0.5,2-0.9c4.7-2.8,8-6.7,9.6-11.6c0.8-2.5,1.2-5.1,1.2-8.4
			c3.7-3.2,6.3-7,8.7-10.6c7-11.1,11.4-23.4,13.4-37.7c0.7-5.3,0.2-10.5-0.3-15.5c-0.1-0.7-0.1-1.4-0.2-2.1
			c-0.7-7.7-2.8-15.2-4.6-21.8c3.5-3,6.4-6.6,8.5-10.7c2.3-4.3,3.3-9.3,3-15.3c-0.2-4.2-1-8.7-2.4-13.5c2.7-2,5.2-4.1,7.5-6.3
			c-0.2,1.8-0.3,3.8-0.4,5.9c-0.2,5.5-0.2,11.5,0.6,17.4c0.6,4.2,1.2,7.6,2.1,10.8c0.9,3.3,2.3,6.2,3.7,8.7
			c-0.6,0.5-1.1,1.1-1.5,1.6c-2.4,2.9-3.8,6.4-4.4,10.2c-0.5,3.4,0.6,6,2.8,7.4c0,0,0,0.1,0,0.1l0,0.1c0,0.1-0.1,0.3-0.1,0.5
			l-0.1,0.3c-0.4,2.3-0.9,4.9-0.1,7.7c1.1,3.8,3.8,6.3,8,7.3c1.1,0.3,2.1,0.4,3.2,0.4c3.8,0,7-1.7,9-4.5c0.9,0.1,1.8,0.2,2.6,0.2
			c0.8,0,1.5-0.1,2.3-0.2c3.6-0.6,6.7-2.8,8.5-6.1c1.5-2.8,1.9-6,1-8.9c1.6-1.7,2.7-3.6,3.3-5.9c1.6-5.7-1-11-6.2-12.6
			c-1.6-0.5-3.1-0.7-4.5-0.7c-0.5,0-1,0-1.5,0.1c0-0.4,0.1-0.9,0.1-1.3c0.1-2.2,0.4-4.4,0.7-6.6c0.2-1.1,0.4-2.2,0.5-3.2
			c0.3-2,0.7-4.2,1-6.3l0.2-1c0.6-3.6,1.1-7,2.2-10.1c5.2-14.1,8.8-26.9,11-39.3c0.9-5.1,2-11.8,2.5-18.7c0.4-5,0.3-9.9,0.2-14.8
			c0-1.6-0.1-3.1-0.1-4.7c0-2.7-0.4-5.4-0.8-8c-0.2-1.2-0.3-2.3-0.5-3.4c-0.4-3.6-1-7.4-1.8-11.7c-0.8-4-2.1-7.8-3.3-11.5
			c-0.3-0.9-0.6-1.9-1-2.8c-1.1-3.3-2.6-6.3-4.1-9.2c-0.7-1.4-1.4-2.9-2.1-4.3l0-0.1c-1.7-3.7-3.5-7.6-5.5-11.3l0,0l0,0l-0.4-0.7
			c-1.2-2.1-2.4-4.1-3.4-6.3c-1.2-2.4-2.3-4.5-3.9-6.5c-0.3-0.4-0.6-0.8-0.9-1.3c-0.4-0.5-0.8-1.1-1.2-1.7c-0.1-0.1-0.2-0.3-0.3-0.4
			c-0.3-0.5-0.6-1-1-1.5c-2.4-3.2-5.2-7-8.6-10.7c-3.4-3.6-7.1-7-11.4-10.2l-0.1-0.1l-0.1,0c-0.3-0.2-0.6-0.4-0.9-0.6
			c-0.5-0.4-1-0.7-1.6-1.1c-0.6-0.4-1.2-0.8-1.7-1.1c-0.3-0.2-0.6-0.4-0.9-0.5l0,0l0,0c-1.6-1-3.4-1.9-5.5-2.8l-0.2-0.1l-0.2-0.1
			c-0.3-0.1-0.7-0.3-1.2-0.5c-0.3-0.2-0.7-0.4-1.1-0.6c-3.5-1.5-7.3-2.8-12-4.2c-0.9-0.2-1.7-0.5-2.6-0.8c-2-0.6-4.2-1.3-6.4-1.7
			l-0.6-0.1C154.4,2,148.7,0.9,143,0.5l-1.6-0.1C138.7,0.2,135.9,0,133,0L133,0z M145.9,279.6c1.9-7.3,4.7-15.1,9.4-22.4
			c0,0.5-0.1,0.9-0.1,1.4l-0.1,0.7c-0.2,2.8-0.7,5.6-1.1,7.7c-0.5,2.6-1.9,5-3.9,7.7C148.7,276.3,147.3,278,145.9,279.6L145.9,279.6
			z M68.7,270.4c-0.2-0.6-0.3-1.3-0.5-1.9c-0.9-3.3-1.7-6.8-2.2-10.3c1.5,1.4,3.3,2.6,5.4,3.6C70.6,264.6,69.8,267.5,68.7,270.4
			L68.7,270.4z"/>
	</g>
	<path class="st1" d="M157.4,391.2c-0.5-2.4-0.9-4.9-1.5-7.3c-1.3-4.9-2.1-10-3-15c1.1,2.6,2,5.3,2.5,8.2c0.7,4.2,1.4,8.5,2,12.8
		C157.4,390.3,157.4,390.7,157.4,391.2z"/>
	<path class="st2" d="M182.9,14c-1.4-0.3-2.6-1.1-4-1.6c-6.1-2.4-12.4-4.3-18.8-6c-0.1,0-0.2-0.1-0.3-0.2c0.8,0,1.5,0.2,2.2,0.4
		c6.6,2,13.2,3.7,19.5,6.6C182,13.5,182.6,13.6,182.9,14z"/>
	<path class="st3" d="M47.7,24c2.2,1.5,3.3,4.3,5.7,5.6C52.2,29.2,50,27.2,47.7,24z"/>
	<path class="st4" d="M223.5,58.4c-1.6-2.3-3-4.6-3.9-7.2C220.9,53.6,222.3,55.9,223.5,58.4z"/>
	<path class="st5" d="M187,462.4c1.3,1.3,2.7,2.4,3.7,3.9c-1.3-1.2-2.7-2.4-4.1-3.6C186.8,462.6,186.9,462.5,187,462.4z"/>
	<path class="st5" d="M181.6,445.6c-0.7,1.4-1.5,2.8-2.2,4.2c-0.1,0-0.1-0.1-0.2-0.1c0.7-1.4,1.4-2.8,2.2-4.2
		C181.4,445.5,181.5,445.6,181.6,445.6z"/>
	<path class="st3" d="M188.7,499.1c0.6-1.2,1.3-2.2,1.9-3.3C190.3,497.1,189.6,498.2,188.7,499.1z"/>
	<path class="st6" d="M216,45.3c-1-0.9-1.7-1.9-2.3-3.1C214.8,43,215.4,44.1,216,45.3z"/>
	<path class="st3" d="M18.4,61.3c-0.8,0.8-1.6,1.6-2.4,2.4c0,0,0.1,0.1,0.1,0.1c0.8-0.8,1.6-1.6,2.4-2.4
		C18.5,61.4,18.5,61.4,18.4,61.3z"/>
	<path class="st5" d="M6.8,75.9c0.5-0.9,1.1-1.8,1.6-2.8c-0.2,1.1-0.8,2-1.4,2.9C7,76,6.9,76,6.8,75.9z"/>
	<path class="st7" d="M5.8,78.5c-0.3,1-1,1.9-1.3,3.3C4.5,80.7,4.9,79.7,5.8,78.5z"/>
	<path class="st8" d="M193.1,20c-1-0.4-1.7-1.1-2.6-1.6c-0.1-0.1-0.1-0.1-0.1-0.2c0-0.1,0-0.1,0.1-0.1
		C191.4,18.6,192.3,19.2,193.1,20z"/>
	<path class="st9" d="M190.5,18.1c0,0.1,0,0.2,0,0.2c-0.8-0.6-1.8-0.9-2.5-1.7C189,16.9,189.7,17.5,190.5,18.1z"/>
	<path class="st10" d="M119.3,447.7c0.1,0,0.2,0.1,0.2,0.1c0,0.1-0.1,0.3-0.2,0.3c-0.1,0-0.2-0.1-0.2-0.1
		C119,447.8,119.1,447.7,119.3,447.7z"/>
	<path class="st5" d="M186.8,462.5c-0.4,0-0.6-0.2-0.8-0.6C186.5,462,186.6,462.2,186.8,462.5z"/>
	<path class="st11" d="M202.8,176.9c0.1-0.2,0.3-0.4,0.4-0.3c0.2,0.2,0.1,0.5-0.1,0.8C203,177.2,203,177,202.8,176.9z"/>
	<path class="st12" d="M54.7,119.2c2,3.1,4.6,5.5,7.7,7.4c0.7,0.5,0.8,0.8,0.4,1.5c-2.3,4.5-3.5,9.2-4,14.2
		c-0.6,5.9,0.1,11.7,0.7,17.5c0.5,5.1,1.3,10.1,0.6,15.3c-0.6,4.4-2.7,8-5.4,11.4c-5,6.2-11.5,9.9-19.2,11.4c-0.1,0-0.3,0-0.6,0
		c0.8-1,1.6-1.8,2.3-2.7c2.7-3.4,5-7,6.2-11.2c1.1-3.9,0.6-7.6-0.7-11.4c-2.6-7.4-6.9-13.7-12-19.5c-4.2-4.8-8.5-9.5-12.3-14.6
		c-6.5-9-10.3-19-11.7-30C6,102.6,5.9,96.8,7.5,91.1c3.2-11.2,8.7-21,18.2-28.1c6.6-5,14.1-7.5,22.3-8.2c2.4-0.2,4.9-0.2,7.3,0
		c1,0.1,1.8,0,2.2-1.1c0.4-1-0.3-1.7-1-2.2c-3-2.2-5.7-4.7-7.5-8.1c-1.8-3.4-2.3-7.1-2.2-11c0-0.1,0.1-0.2,0.1-0.2
		c0.4,0,0.5,0.3,0.8,0.5c7.5,6.5,16.1,9.9,26.1,9.4c4-0.2,7.9-1.1,11.7-1.9c8.6-1.9,17.2-3.1,26-2.6c7.5,0.4,14.8,1.4,21.7,4.6
		c9,4.3,14.9,11.2,16.7,21.2c1.3,7.4-0.9,13.9-5.8,19.5c-3.2,3.7-7.1,6.4-10.9,9.3c-3.7,2.9-7.3,5.9-10.3,9.5
		c-4.2,5-6.8,10.7-7.7,17.1c-0.1,0.9-0.5,0.9-1.2,0.8c-4.7-0.8-8.9-2.7-12.8-5.3c-0.4-0.2-0.7-0.5-1.1-0.7c-0.1-0.1-0.3-0.2-0.4-0.3
		c0,0,0,0,0,0s0,0.1,0,0.1c0.1,0.2,0.1,0.4,0.2,0.6c2.3,3.6,4.9,6.8,8.4,9.3c1.7,1.2,3.5,2,5.5,2.5c0.5,0.1,0.8,0.3,0.7,0.9
		c-0.1,3.8,0.2,7.7,0.7,11.5c0.1,0.6,0,0.8-0.6,0.5c-9.9-4.7-18.4-11.1-23.5-21.1c-2.3-4.4-3.5-9.2-3.8-14.2
		c-0.3-5.2,0.3-10.2,1.9-15.2c0.2-0.7,0.3-1.4-0.3-2c-0.4-0.4-1-0.5-1.5-0.4c-0.7,0.2-1.1,0.8-1.3,1.5c-1.2,3.7-1.8,7.4-2,11.3
		c-0.2,3.7,0,7.4,0.8,11c0.1,0.6,0,0.9-0.7,1.2c-7,2.3-12.9,6.1-17.6,11.8c-0.3,0.3-0.5,0.5-1,0.4c-3.6-1.1-7.1-2.4-10.4-4.2
		C54.5,118.6,54.6,118.9,54.7,119.2z"/>
	<path class="st13" d="M216.4,154.1c0.6-2,1.6-3.9,2.1-6c0.6-2.2,0.5-4.4,0.1-6.6c-0.7-4.3-1.6-8.5-2.9-12.6
		c-2.7-9-6.9-17.2-11.6-25.3c-4.5-7.8-9.6-15.1-15.1-22.2c-4.4-5.6-9.5-10.4-15-14.9c-4-3.2-8-6.5-12.5-9.1
		c-3.7-2.1-7.4-4.2-11.4-5.9c-0.6-0.2-0.9-0.6-1.2-1.1c-4.7-7.9-11.6-12.8-20.5-14.7c-2.7-0.6-5.6-0.7-8.4-1.1
		c-3.4-0.5-6.8-0.3-10.2-0.4c-2.2-0.1-4.3-0.3-6.4,0c-2.8,0.4-5.7,0.5-8.5,1c-4,0.8-8,1.9-12,2.6c-3.4,0.5-6.9,1-10.5,0.7
		c0.9-1.5,2.3-2.6,3.7-3.7c3.5-2.8,7.6-4.7,11.8-6.4c5.6-2.4,11.6-3.8,17.5-5.1c2.9-0.6,5.8-0.8,8.7-1c2-0.2,4-0.4,6-0.5
		c7.7-0.2,15.3,0.9,22.9,1.9c2.9,0.4,5.8,0.8,8.8,1.2c0.9,0.2,1.8,0.2,2.6,0.3c1,0.1,1.9,0.3,2.7,0.8c3.7,1.2,7.3,2.4,10.9,3.7
		c12.1,4.4,23.5,10.1,34,17.7c6.4,4.6,11.6,10.3,15.6,17.1c4.2,7.2,8.2,14.5,11.1,22.4c1.9,5,3.4,10.2,4,15.5
		c0.4,3.2,0.7,6.5,0.9,9.8c0.2,3,0.4,6.1,0.4,9.1c0,7.9-1.8,15.4-5.3,22.4c-1.7,3.6-3.8,6.9-6.4,9.9c-1,1.1-2.1,2.1-3.4,3
		c-0.5,0.4-1.1,0.8-1.8,0.7c-1.5-0.6-1.5-0.7-0.8-2.2C216.4,154.7,216.6,154.4,216.4,154.1z"/>
	<path class="st13" d="M152.3,75.3c0.8,4,2.9,6.8,6,9c2.2,1.6,4.8,2.2,7.4,2.5c1,0.1,1.1,0.5,1,1.3c-0.5,3.5-0.2,6.9,0.8,10.3
		c1.2,4.1,3.7,7.1,7.6,9c0.8,0.4,0.8,0.6,0.4,1.3c-1.6,3-1.9,6.3-1.7,9.7c0.2,2.8,1.3,5.2,3,7.4c0.4,0.5,0.5,0.9,0,1.4
		c-2.1,2.3-2.7,5.1-2.9,8c-0.1,2.5,0.1,5,1.4,7.3c0.3,0.6,0,0.8-0.3,1.1c-2.2,2.4-4,5-4.2,8.4c-0.1,1.5-0.4,3.1,0,4.6
		c0.2,0.8,0,1.1-1,1.2c-7,0.7-13,3.3-17.2,9.2c-2.6,3.6-3.7,7.8-4.5,12.1c-0.4,2.1-0.6,4.2-0.4,6.5c-1.6-0.6-3.2-0.6-4.8-0.5
		c-3,0.2-5.5,1.8-7.9,3.4c-0.8,0.6-1.7,1.2-2.4,1.9c-1.7,1.6-3.7,1.8-5.8,1.7c-1.3-0.1-2.5,0.2-3.5,0.9c-1.2,0.8-2.4,1.6-3.5,2.5
		c-1.1,0.8-3.6,0.5-4.5-0.6c-1.2-1.5-2.4-3-3.9-4.2c-3.7-3.1-7.7-3.6-12.1-1.6c-0.5,0.2-0.7,0.3-0.9-0.3c-1.3-3.5-5.7-6.4-9.4-6.4
		c-0.8,0-1.2-0.4-1.6-0.9c-3.7-3.8-5.8-8.5-8-13.2c-2.5-5.4-4.3-11.1-5.2-17c-0.8-5-0.9-10-0.5-15c0.1-1.7,0.3-3.3,0.4-5
		c0-0.5,0.2-0.6,0.7-0.5c2.2,0.3,2.2,0.3,2.2,2.5c-0.1,5.5,0.4,11,2.2,16.2c0.9,2.7,2.3,5.2,4.6,7.1c3.9,3.4,12,4.3,16.2-2.8
		c2.1-3.5,3-7.3,3.6-11.3c0.2-1.6,0.3-3.1,0.5-4.7c0.1-1.1,0.1-1.1,1-0.5c3.3,2.1,6.7,4,10.4,5.4c1,0.4,2,1,3.1,0.2
		c1-0.8,0.6-1.9,0.4-2.9c-0.7-4.2-1-8.4-1-12.6c0-0.7,0.2-1,0.9-0.9c0.9,0,2.1-0.4,2.7,0c0.6,0.4,0.3,1.7,0.4,2.5
		c0.9,6.4,2.3,12.7,5.3,18.5c1.5,2.9,3.4,5.4,5.9,7.5c6.7,5.5,17.8,3.5,22.9-3.7c2.4-3.5,3.7-7.4,4.5-11.5
		c1.4-7.5,1.1-15.1,0.1-22.6c-0.3-2.4-0.7-4.9-1.2-7.3c-0.1-0.7-0.3-0.8-1-0.7c-8.4,2-16.7,4.4-24.9,7.2c-4.4,1.5-9,2.8-13.6,3.4
		c-1.3,0.2-1.3,0.2-1.1-1.1c1.4-8.5,6.1-14.9,12.4-20.3c2.5-2.1,5.1-4.1,7.7-6C146.2,86.3,148.1,84.1,152.3,75.3z"/>
	<path class="st13" d="M108.1,355.8c2.6,0,5.1,0,7.7,0c4.4-0.1,8.9-0.6,13.3-1.1c4.4-0.5,8.7-1.4,12.9-2.7c0.6-0.2,1.3-0.4,1.8-0.6
		c0.6-0.3,0.9-0.2,1.1,0.5c1.4,4.2,2.5,8.5,3.5,12.8c1,4.3,2,8.6,2.8,13c0.7,3.9,1.5,7.7,2.2,11.6c0.9,5.2,1.6,10.4,2.7,15.6
		c1.2,5.5,2.2,11.1,2.8,16.7c0.3,2.9,1,5.8,1.1,8.7c0.2,3.3,0.4,6.6,0.6,9.8c0.1,1.3,0.1,2.6,0.3,3.9c0.1,0.9-0.2,1.1-1.1,1.3
		c-10.5,2-21.1,3.7-31.8,5c-0.9,0.1-1.1-0.2-1.4-0.9c-4.3-12-8.5-24-12.4-36.2c-4-12.5-7.9-25.1-11.3-37.8c-1.7-6.1-3.8-12-5.3-18.1
		c0-0.2-0.1-0.4-0.1-0.6c-0.3-0.7,0-0.8,0.6-0.8c2.6,0,5.1,0,7.7,0C106.6,355.8,107.4,355.8,108.1,355.8z"/>
	<path class="st14" d="M227.5,191.2c-1.3,3.6-1.9,7.3-2.7,10.9c-1.2,5.2-2.2,10.5-2.9,15.9c-0.4,3.2-0.5,6.3-0.9,9.5
		c-0.2,2-0.1,4-0.4,5.9c-0.2,1.4-0.9,2.5-2,3.4c-0.9,0.8-1.4,0.8-2.2,0c-0.9-0.8-1.4-1.9-2-3c-1.9-3.3-3.8-6.5-5.5-9.9
		c-2-3.8-2.8-8-3.7-12.1c-1.4-6.8-1.3-13.8-1.1-20.7c0.1-4.6,0.8-9.2,1.8-13.8c0.4-2.1,0.8-4.2,2.1-5.9c2.2-3.1,4-6.4,5.7-9.9
		c0.5-1.1,1.1-1.9,2.6-2c3.2-0.2,5.5-2.2,7.5-4.5c5.8-6.7,9.5-14.5,11.6-23c1.3-5,1.8-10.2,1.1-15.4c-0.2-1.4-0.1-2.8-0.2-4.2
		c-0.2-3.6-0.6-7.2-1.3-10.8c-0.7-3.8-1.2-7.6-2.3-11.3c-1.7-5.8-3.7-11.3-6.7-16.6c-2.7-4.7-5.3-9.4-8.1-13.9
		c-3.7-6.1-8.9-10.7-14.6-14.9c-9.5-7-20-12.3-31-16.6c-5.9-2.3-11.8-4.4-18-5.7c-3.8-0.8-7.6-1.4-11.5-2c-4.2-0.7-8.5-0.9-12.8-1.2
		c-1.6-0.1-3.3-0.1-4.9-0.2c-3.6-0.3-7.2,0-10.7,0.2c-8.7,0.5-17,2.5-25.1,5.6c-2.5,1-5,1.5-7.5,2.6c0.8-1.7,1.1-3.6,2.5-5
		c2.7-2.5,5.8-4.5,8.8-6.6c4.6-3.2,9.7-5.4,15-6.9c4.5-1.3,9-2.1,13.6-2.6c5.1-0.5,10.2-0.8,15.3-0.6c3.5,0.1,7.1,0.1,10.6,0.8
		c8.5,1.7,17,3.5,25.3,6.2c7.1,2.4,13.5,6.1,19.6,10.4c10.8,7.8,18.6,18,25.2,29.3c2.5,4.3,4.7,8.8,6.6,13.4
		c1.3,3.3,3.2,6.3,4.6,9.5c1.7,4.3,3.3,8.6,4.7,13c1.5,4.9,2.9,9.7,3.8,14.7c0.7,3.8,1.4,7.6,1.9,11.4c0.4,3.1,0.6,6.2,0.5,9.3
		c0,4.2-0.1,8.5-0.4,12.7c-0.6,10.1-2.3,20-4.6,29.8c-1.3,5.7-2.8,11.3-4.7,16.8c-0.2,0.5-0.4,1.1-0.6,1.6
		C228.9,187,228,189,227.5,191.2z"/>
	<path class="st15" d="M60.9,290.9c-1.4,2.2-2.7,4.4-3.3,6.9c-0.2,0.7-0.3,1.3-0.4,2c-0.1,0.7-0.3,1.5-0.9,2
		c-0.5,0.4-0.6,0.9-0.4,1.6c0.7,3,1.2,6,1.1,9c-0.1,5.8-2.2,10.7-6.6,14.6c-1.9,1.6-4,2.8-6.6,2.6c-0.4,0-0.7,0-0.9-0.5
		c-0.3-1.1-0.9-1.3-1.8-0.7c-0.5,0.3-0.8,0.3-1.3,0c-3.3-1.8-5.4-4.4-5.9-8.2c-0.5-3.7,0.6-7.1,1.8-10.5c1.6-4.4,4.1-8.2,7.4-11.5
		c0.7-0.7,0.6-1.5,0.2-2.1c-0.5-0.7-1.3-0.9-2.1-0.4c-1.3,0.8-2.2,2-3.1,3.2c-0.7,0.8-1.3,1.7-2,2.7c-0.1-0.6-0.3-1.2-0.3-1.7
		c0-1.8-0.3-3.6-0.2-5.4c0.1-2.5-0.3-5.1-0.2-7.6c0.2-4.2,0.3-8.4,0.7-12.6c0.5-5.5,1.2-10.9,2.5-16.2c1.6-6.7,3.5-13.2,6.8-19.3
		c1.6-3,3.7-5.8,5.9-8.4c2.8-3.4,5.8-6.6,9.1-9.6c3.1-2.9,6.2-5.6,9.5-8.3c4.2-3.5,8.5-6.7,12.9-10c0.9-0.7,1.7-0.8,2.8-0.4
		c2.8,1.2,5.6,2.2,8.4,3.3c0.2,0.1,0.4,0.2,0.5,0.2c-1.5,2.7-2.5,5.6-3.4,8.5c-1,3.1-2,6.1-2.5,9.3c-0.2,1.5-0.6,3.1-0.5,4.7
		c0,1.6,0.1,3.2,0,4.7c-0.2,4.1,0.5,8,1.3,12c0.7,3.5,1.5,7,2.1,10.5c0.2,1-0.2,2-0.4,3c-0.9,5.2-2,10.4-2.8,15.7
		c-0.7,4.3-1.4,8.7-2.1,13c0,0.3,0,0.5,0,0.8c0,0.3-0.1,0.5-0.5,0.5c-5.6-0.3-11.3-0.1-17-0.2c-0.4,0-0.7,0.1-1.2-0.1
		c0.7-1.3,1.4-2.5,2.1-3.8c2.8-5,5.1-10.2,6.7-15.7c0.6-2.2,1.3-4.3,1.8-6.5c0.2-0.8,0.6-0.9,1.3-0.8c0.6,0.1,1.2,0.3,1.8,0.4
		c1.1,0.1,2-0.5,2.2-1.5c0.2-0.7-0.5-1.6-1.6-1.8c-2.8-0.5-5.5-1-8-2.3c-4.1-2.2-6.5-5.4-7-10.1c-0.4-3.7,0.5-7.2,2-10.5
		c2.4-5.5,5.9-10.2,10.2-14.4c0.7-0.7,1.4-1.5,2.2-2.2c0.4-0.3,0.7-0.7,0.9-1.1c0.4-0.6,1-1.3,0.3-2c-0.6-0.7-1.4-0.1-2,0.2
		c-2.5,1.3-4.4,3.2-6.3,5.2c-2.7,2.9-5,6.1-6.8,9.6c-1.6,3-3,6.1-3.6,9.5c-0.1,0.7-0.4,1.3-0.8,1.9c-1.4,2.5-2.3,5.2-3.1,7.9
		c-0.8,3.7-1.3,7.5-1.1,11.3c0.3,4.7,0.5,9.3,0.9,14c0.5,4.9,1,9.9,1.6,14.8C61.1,290.2,61.1,290.6,60.9,290.9z"/>
	<path class="st13" d="M41.7,392.5c-0.1-5.5,0.2-12.4,0.5-19.3c0.2-4.7,0.4-9.4,0.8-14.2c0.3-3.8,0.9-7.5,1.1-11.3
		c0-0.8,0.5-0.4,0.8-0.3c5.2,1.7,10.6,2.9,15.9,4.1c4.9,1.1,9.9,2,14.8,2.7c3.5,0.5,7,0.9,10.5,1.1c0.5,0,0.5,0.2,0.4,0.6
		c-0.4,2.9-1,5.8-1.6,8.6c-0.9,4.4-1.6,8.9-2.7,13.3c-1.8,7.3-2.6,14.8-3.7,22.3c-0.8,5.5-1.5,10.9-2.1,16.4
		c-0.9,7.4-1.6,14.8-2.2,22.2c-0.3,4.1-0.7,8.2-1,12.3c-0.1,0.8-0.3,0.9-1,0.7c-9.2-2.6-18.3-5.6-27.2-9.2c-0.6-0.2-0.8-0.6-0.9-1.2
		c-0.5-5.8-1-11.6-1.4-17.4C42.2,413.9,41.7,403.9,41.7,392.5z"/>
	<path class="st16" d="M174.2,445.7c-0.1,0.9-0.6,1.5-1,2.1c-2.8,5.1-6,10-9.8,14.4c-0.4,0.4-0.8,0.8-1.4,1
		c-2.4,1.1-4.7,2.5-6.7,4.1c-0.6,0.5-1.2,0.9-1.3,1.8c-0.1,0.6,0,1.2,0.5,1.6c0.5,0.5,1.2,0.5,1.8,0.2c0.7-0.3,1.3-0.9,1.9-1.4
		c4.5-3.3,9.4-5.4,15.1-5.2c3.8,0.1,7.2,1.3,10.3,3.5c2.3,1.6,3.1,4.2,3.6,6.8c1,5.1,0.4,10.1-0.9,15c-0.2,0.8-0.6,1.2-1.5,1.4
		c-6.5,1.5-13,2.7-19.6,3.3c-5.7,0.5-11.4,0.5-17.1,0.3c-7-0.3-14-1-20.9-2c-0.7-0.1-1-0.3-1.1-1.1c-0.7-7.5-2.8-14.6-5.3-21.7
		c-0.1-0.2-0.1-0.3-0.2-0.5c1.7,0,2.2,0.5,2.4,2c0,0.3,0.1,0.5,0.2,0.8c0.3,0.9,1,1.4,1.8,1.3c0.9-0.1,1.5-0.8,1.4-1.8
		c-0.1-1-0.2-2-0.4-2.9c-0.8-4.6-2.2-9-4.1-13.2c-0.6-1.3-0.6-1.4,0.9-1.5c8.6-0.9,17.2-2,25.7-3.4c8.4-1.4,16.8-3.1,25.2-4.9
		C173.9,445.7,174,445.7,174.2,445.7z"/>
	<path class="st15" d="M127.6,289.1c-3-0.8-6.1-1.3-9.2-1.7c-2.6-0.4-5.2-1.1-7.9-1c-0.8,0-1.3,0.3-1.6,1c-0.3,0.8-0.7,1.5-1,2.3
		c-0.2,0.6-0.4,0.7-0.9,0.7c-0.2,0-0.4,0-0.6-0.1c-0.8-0.4-2.2,0.3-2.6-0.8c-0.2-0.8,0.2-1.9,0.4-2.8c0.9-5.1,1.8-10.2,2.6-15.3
		c0.4-2.7,0.8-5.4,0.9-8.1c0-0.6,0.3-1.1,0.1-1.9c1.8,0.9,3.5,1.7,5.3,2.3c2.2,0.7,4.4,1.1,6.7,1.3c2.6,0.2,5.2-0.1,7.7-0.7
		c1.2-0.3,1.9-1.1,1.7-2c-0.2-1-1.2-1.5-2.5-1.2c-1.9,0.5-3.9,0.6-5.9,0.6c-4.3-0.1-8.3-1.3-12-3.6c-0.6-0.3-0.7-0.8-0.8-1.4
		c-0.2-1.8-0.6-3.5-0.9-5.2c-0.5-3-1.2-6-1.1-9.1c0-0.9,0.3-1.8,0.2-2.8c-0.5-4.8,0.4-9.4,1.7-13.9c1-3.7,2.7-7.1,4.5-10.5
		c0.4-0.7,1.1-1,1.8-1.4c3.3-1.8,6.5-3.6,9.8-5.3c2.7-1.4,5.5-2.9,8.5-3.6c3-0.7,6-1.4,9.1-1.8c2.7-0.4,5.5-0.6,8.3-0.6
		c0.6,0,0.9,0.2,1.1,0.8c1,3.2,1.9,6.5,2.3,9.8c0.5,3.4,0.3,6.7-0.4,10.1c-0.1,0.6-0.4,0.8-1,0.5c-3.4-1.2-6.9-2-10.5-2.5
		c-1.9-0.3-3.8-0.3-5.7-0.4c-5.7-0.3-11.3-0.5-17-0.4c-1.2,0-2.5,0-3.6,0.8c-0.6,0.5-0.8,1-0.8,1.9c0,1.7,0.5,3.6-0.6,5.2
		c-0.2,0.4-0.3,0.8-0.4,1.3c-0.3,0.9,0.1,1.6,0.9,1.9c1.7,0.7,3.6,0.6,5.4,0.5c1.1-0.1,1.8-1.5,1.6-2.6c0-0.2-0.1-0.4-0.2-0.6
		c-0.2-0.7-0.6-1.3-0.6-2c0.7,0,1.4-0.1,2.1,0c3.7,0.2,7.4,0.4,11.1,0.8c4.4,0.4,8.7,1.4,13,1.7c0.8,0.1,1.7,0,2.6,0.5
		c-1.4,1.6-2.9,3-4.7,4.2c-0.3,0.2-0.6,0.3-0.8,0.6c-1.4,1.3-3.1,1.4-4.9,1c-2.4-0.5-4.8-0.5-7.2-0.8c-2.1-0.2-4.2-0.5-6.3-0.8
		c-3.2-0.4-6.5-0.6-9.7-0.5c-1.4,0.1-2.3,1.1-2.3,2.5c0,1.3-0.1,2.6,0.4,3.9c0.2,0.4,0,0.8-0.2,1.2c-0.4,0.8-0.9,1.6-1.1,2.4
		c-0.3,1,0.2,1.9,1.1,2.1c1.6,0.4,3.1,0.7,4.7,0.7c2-0.1,3.2-1.8,2.8-3.7c-0.1-0.5-0.2-0.9-0.3-1.5c1.4,0.1,2.7,0.1,4.1,0.3
		c1.8,0.2,3.5,0.4,5.3,0.6c2.9,0.3,5.7,0.7,8.6,1.1c2.6,0.4,5.1,1,7.8,1.1c0.1,0.1,0.3,0.1,0.5,0.1c0.3,0.1,0.8-0.2,1,0.2
		c0.2,0.4-0.1,0.8-0.4,1.1c-1.3,1.8-2.6,3.7-3.9,5.6c-4,5.9-6.9,12.3-9.6,18.9c-1.5,3.7-2.4,7.6-3.6,11.4c-0.7,2.3-1.4,4.6-2,6.9
		C128.2,288.6,128.3,289.3,127.6,289.1z"/>
	<path class="st16" d="M30.8,440.3c1.9,0.8,3.8,1.6,5.7,2.4c13.9,5.9,28.2,10.8,42.9,14.4c0.8,0.2,1,0.5,0.8,1.3
		c-1,5.7-3.2,10.8-6,15.7c-0.2,0.3-0.3,0.6-0.5,0.9c-0.4,0.9-0.1,1.8,0.7,2.2c0.8,0.4,1.7,0.2,2.3-0.6c0.5-0.8,1-1.6,1.5-2.5
		c0.2-0.4,0.5-0.6,1-0.7c1.1-0.2,2.2-0.5,3.6-0.7c-1,1.7-1.8,3.2-2.6,4.8c-2.1,3.9-3.9,8-4.6,12.4c-0.1,0.7-0.4,0.9-1,1.1
		c-5.8,1.9-11.7,3-17.8,3.7c-4.9,0.6-9.7,1-14.6,1.1c-8.6,0.1-17-1-25-4.3c-1.4-0.6-1.8-1.4-1.9-2.8c-0.7-11.6,8.9-20.5,19.4-19.5
		c2.3,0.2,4.5,0.8,6.6,1.8c0.3,0.2,0.7,0.3,1,0.4c1.2,0.3,2.2-0.5,2.2-1.8c0-1-0.5-1.9-0.8-2.9c-3-8.4-7.1-16.2-11.5-24
		c-0.4-0.8-0.9-1.6-1.3-2.3C30.7,440.5,30.7,440.4,30.8,440.3z"/>
	<path class="st17" d="M161.1,263.8c0.2-2.8,0.8-5.6,0.6-8.4c-0.3-3.6-0.6-7.1-0.6-10.7c0-0.7,0.2-1.3,0.6-1.9
		c1.6-2.3,3.4-4.5,4.9-7c0.5-0.7,1.4-0.7,2.1-1c1.9-0.8,3.9-1.3,5.7-2.5c0.6-0.4,0.9-0.2,1.1,0.4c0.6,2.1,1.5,4.1,1.8,6.3
		c0.3,2.3,1,4.5,1.5,6.8c0.6,2.9,1,5.9,1.4,8.9c0.4,3.3,0.2,6.6,0.4,9.8c0.3,3.9-0.3,7.8-0.5,11.6c-0.2,2.4-1.1,4.7-1.7,7
		c-1.5,5.6-3.6,11-6.4,16.1c-2.6,4.8-5.4,9.4-9.1,13.3c-1,1-1,1-1.4-0.3c-1.1-3.7-3.1-6.9-5.9-9.7c-1.2-1.3-2.8-2.2-4.3-3.2
		c-0.8-0.5-1.7-0.2-2.3,0.7c-0.4,0.7-0.1,1.7,0.7,2.3c1.3,0.9,2.6,1.8,3.7,2.9c3,3.1,4.8,6.8,5.5,11.1c0.6,3.6,0,7-1.4,10.3
		c-1.1,2.7-3.2,4.8-5.7,6.4c-2,1.2-4.1,1.9-6.4,2.1c-2.3,0.1-4.5-0.7-6.4-2.2c-3.1-2.4-4.2-5.8-5.1-9.3c-0.5-1.8-0.5-3.7-0.6-5.5
		c-0.1-1.1,0.3-2.3,0.4-3.4c0.2-2.4,0.6-4.9,1.6-7.2c0.9-2.2,2.3-4,3.7-5.8c1-1.2,2.3-2,3.3-3.2c0.2-0.3,0.2-0.7,0-1l0,0
		c-0.3-0.5,0.1-0.8,0.4-1c3.7-2.7,6.5-6.1,9.3-9.7c2.4-3.1,4.1-6.6,5.6-10.2c1.4-3.4,2.3-6.9,3.1-10.5
		C160.9,265.3,160.8,264.5,161.1,263.8z"/>
	<path class="st15" d="M174.3,74.6c0,0.8-0.1,1.2,0,1.7c0.1,0.8,0.5,1.6,1.5,1.5c3.2-0.3,5.7,1.5,8,3.3c4.2,3.3,5.8,8,6.7,13
		c0.2,0.8-0.2,1.7-0.4,2.5c-0.1,0.4-0.2,0.7-0.3,1.1c-0.4,1.6,0.2,2.2,1.8,2c1.6-0.3,4.2,2.1,3.8,3.6c-0.2,0.8-0.8,1.6-1.3,2.3
		c-0.6,0.8-0.6,1.4,0.2,2c3.8,2.4,5.1,6.1,5.6,10.2c0.3,2.3-0.5,4.6-1.8,6.6c-0.6,0.9-0.7,1.6-0.4,2.6c1.2,4.4,0.6,8.6-1.9,12.5
		c-0.9,1.5-2.4,2.3-3.8,3.2c-1.1,0.7-1.3,1.1-0.9,2.4c0.2,0.8,0.7,1.5,1,2.4c1.2,3.9,0.5,7.4-2.3,10.5c-1.1,1.2-2.2,2.3-3.5,3.1
		c-1,0.6-1.6,1.5-2.3,2.3c-0.4,0.4-0.2,1-0.1,1.5c0.2,0.6,0.5,1.1,0.4,1.8c-0.3,1.4-1.1,2-2.7,1.8c-1.8-0.3-2.2,0-3,1.5
		c-0.2,0.5-0.3,1.3-0.9,1.2c-0.5-0.1-0.6-0.8-0.8-1.4c-1.5-4-2.5-8.1-3.1-12.3c-0.4-2.8-0.9-5.7,0.8-8.3c1-1.6,2-3.3,3.7-4.3
		c1.3-0.7,1.2-1.6,0.1-2.5c-1.1-0.9-1.3-2.2-1.6-3.5c-0.6-2.7-0.1-5.3,0.9-7.8c0.4-1,1.1-1.8,2.2-2.4c1.2-0.6,1.3-2,0.3-2.9
		c-2.1-2-3.4-4.5-3.6-7.5c-0.2-3.4,0.6-6.5,2-9.5c0.1-0.2,0.2-0.3,0.3-0.4c0.9-1.2,0.6-2.1-0.9-2.6c-1.6-0.4-2.8-1.3-4.1-2.2
		c-2-1.5-3-3.7-3.6-5.9c-1-3.2-1.2-6.6-0.4-9.9c0-0.2,0-0.4,0-0.6c0-2.4-0.3-2.7-2.7-2.8c-4.5-0.2-8.2-1.8-10.7-5.8
		c-1-1.6-1.2-3.5-1.7-5.2c-0.3-1-0.4-2.1-1.2-2.9c-0.2-0.2-0.2-0.5-0.2-0.8c0.5-4.2-0.3-8.1-1.7-12c-0.1-0.4-0.5-0.8-0.2-1.1
		c0.3-0.3,0.8-0.1,1.3,0c2.4,0.5,3.2,2.3,3.9,4.3c0.6,1.8,1.3,2.3,3,1.5c2.2-1,3.8-0.3,5.5,1c2.5,2,5,3.9,7.5,5.8
		c0.6,0.5,0.9,1.1,1.1,1.8C173.9,72,174.5,73.4,174.3,74.6z"/>
	<path class="st12" d="M145.8,236.9c0.6-0.5,1.2-0.9,1.8-1.3c4.4-3.5,7.7-7.7,8.7-13.4c0.7-4.1,0.5-8.3-0.3-12.4
		c-0.9-5-2.8-9.7-4-14.6c-1.2-4.6-1.8-9.2-1.2-13.9c0.4-3.3,1.2-6.6,2.6-9.7c2.6-5.4,7.1-8.4,12.7-9.8c1.3-0.3,2.6-0.5,4-0.6
		c0.7-0.1,1.1,0.1,1.3,0.9c0.6,2.6,1.5,5.1,2.3,7.6c1,3,2.8,5.5,4.4,8.1c3.7,6,6.5,12.4,8.2,19.3c1.1,4.5,1.7,9.1,1,13.8
		c-0.9,6.2-3.9,11.3-8.5,15.4c-3.8,3.5-8.4,5.8-13.3,7.4c-6.1,2.1-12.5,3-18.9,3.4C146.3,237,146.1,237.1,145.8,236.9z"/>
	<path class="st15" d="M133.1,343.6c-3.8,0.7-7.6,1.4-11.5,2c-2.5,0.4-4.9,0.5-7.4,0.9c-4.1,0.6-8.3,0.7-12.4,1
		c-1.2,0.1-2.8,0.5-3.3-0.2c-0.6-0.7-0.2-2.3-0.1-3.4c0.1-0.7,0.1-1.4,0.1-2c0-4.2,0.4-8.5,0.5-12.7c0.1-3.6,0.5-7.3,0.8-10.9
		c0.2-2.7,0.7-5.3,1-8c0.1-0.8,0-1.6,0.3-2.4c0.2-0.4,0.6-0.5,1.1-0.5c0.8,0,1.6,0.2,2.4,0.3c0.6,0.1,0.9,0.5,1,1
		c0.4,1.2,1.3,1.6,2.4,1.7c2.8,0.3,5.5,0.5,8.3,0.6c2.7,0.2,5.3,0.5,8,0.4c0.8,0,1.1,0.4,1.1,1.1c0.3,4,1.1,7.8,1.9,11.7
		c1.2,5.8,3.7,11.1,5.5,16.8c0.2,0.5,0.4,1,0.6,1.5C133.5,343,133.6,343.3,133.1,343.6z"/>
	<path class="st15" d="M68.1,176.7c-0.1-0.6,0.3-1.3,0.5-2c0.4-1.3,0-2.1-1.2-2.6c-1.1-0.4-2.1-0.9-3-1.4c-0.7-0.4-1.1-1-1.1-1.8
		c-0.1-4.2-0.4-8.4-1.2-12.5c-0.8-4.1-0.6-8.3-0.4-12.4c0.1-3.1,0.6-6.2,1.6-9.1c0.6-1.9,1.3-3.8,1.9-5.7c0.2-0.7,0.5-1,1.3-0.6
		c1.2,0.5,2.5,1.2,3.9,1.2c0.5,0,0.7,0.3,0.6,0.9c-0.7,3.3-0.7,6.6-0.8,9.9c-0.1,3.1,0.4,6.1,0.6,9.1c0.1,2.7,0.7,5.3,1.2,7.9
		c0.5,2.6,1.6,5.1,2.5,7.7c2,5.3,4.8,10.1,8.2,14.6c1.3,1.7,2.6,3.4,4.2,4.9c0.3,0.3,0.6,0.6,1.1,0.6c2.2-0.1,3.9,0.9,5.5,2.4
		c1.3,1.2,2.5,2.5,2.8,4.4c0.2,1.1,1,1.3,2.2,0.9c1-0.4,1.9-0.9,2.9-1.3c3-1.3,5.6-0.5,7.9,1.5c2.2,1.9,4,4.1,5.3,6.7
		c0.2,0.4,0.4,0.7,0.1,1.1c-1.7,2.2-2.1,4.9-2.8,7.5c-0.5,1.9-0.5,1.9-2.1,0.8c-4.3-2.7-8.8-5.2-13.6-6.8c-2.2-0.8-4.6-1.3-6.7-2.4
		c-2.5-1.2-5.4-1.7-7.5-3.6c-1.9-1.7-3.8-3.3-4.4-5.9c-0.2-1-0.4-1.9-0.3-2.9c0-1.1-0.4-1.4-1.5-1.6c-2.9-0.6-5.7-2-6.6-5
		C68.7,179.6,68.1,178.3,68.1,176.7z"/>
	<path class="st15" d="M82.5,305.9c-0.2,1.7-0.5,3.4-0.7,5.2c-0.2,1.9-0.4,3.7-0.6,5.6c-0.2,2.2-0.5,4.5-0.8,6.7
		c-0.3,2.5-0.6,5.1-0.9,7.6c-0.3,2.8-0.7,5.7-1,8.5c-0.2,1.6-0.1,3.3-0.4,4.9c-0.2,1.1-0.7,1.2-1.6,1.1c-3-0.5-5.9-0.9-8.9-1.5
		c-4.3-0.8-8.7-1.5-12.9-2.7c-3.4-1-7-1.8-10.2-3.4c-0.1-0.1-0.3-0.1-0.4-0.2c-2.5-1.5-2.4-1.5-1.9-4.5c0.1-0.9,1.1-1,1.8-1.1
		c0.6-0.1,1.2-0.1,1.7,0.1c1.3,0.5,2.4,0.1,3.5-0.5c3.4-1.8,5.9-4.6,7.8-7.9c2.7-4.6,3.2-9.6,3-14.7c0-0.6-0.2-1.3-0.2-1.9
		c-0.2-1.1-0.1-1.2,0.9-1.4c1-0.2,2-0.2,3-0.1c2.1,0.2,4.2,0.1,6.2,0c3.7-0.1,7.4-0.4,11.1-0.3C81.7,305.4,82.2,305.4,82.5,305.9z"
		/>
	<path class="st15" d="M103.3,274.7c-0.3,1.4-0.6,2.9-0.8,4.3c-0.5,2.6-0.9,5.3-1.3,8c0,0.1-0.1,0.2-0.1,0.3c0,0.6,0.1,1.5-0.4,1.8
		c-0.4,0.3-1.2-0.1-1.8-0.2c-3-0.5-6.1-0.6-9.2-0.6c-0.7,0-1-0.1-0.9-0.9c0.6-3.4,1.2-6.8,1.7-10.2c0.4-2.5,0.7-5.1,1.2-7.7
		c0.5-2.7,1-5.5,1.5-8.2c0.3-1.6,0.6-3.3,0.9-4.9c0.2-1.3-0.2-2.5-0.4-3.7c-0.8-4.1-1.9-8.2-2.5-12.3c-0.7-4.3-0.6-8.7-0.3-13.1
		c0.4-6.4,2.8-12.3,4.8-18.2c0.2-0.7,0.7-1.3,0.9-2c0.2-0.6,0.6-0.2,0.8-0.1c1.6,0.7,3.1,1.4,4.6,2.2c2,1.1,3.9,2.1,5.9,3
		c0.2,0.1,0.4,0.2,0.7,0.2c1.4,0.5,1.4,0.5,0.7,1.9c-2.2,4.2-4.2,8.5-5.2,13.2c-0.5,2.3-0.7,4.6-1,7c-0.5,3-0.5,6.1-0.7,9.2
		c-0.2,2.5,0.2,4.9,0.7,7.3c0.1,0.4,0.2,0.7,0.1,1.3c-1-1.4-1.5-2.9-2-4.4c-0.2-0.7-0.3-1.5-0.4-2.3c-0.2-1.1-0.8-1.8-1.8-1.7
		c-0.9,0.1-1.5,0.7-1.5,1.9c0,1.9,0.6,3.8,1.4,5.5c1.2,2.9,2.9,5.5,5.4,7.5c1,0.8,0.9,1.7,0.8,2.6c-0.5,3.7-1.1,7.5-1.6,11.2
		c0,0.3,0,0.6,0,0.9c-0.5,0-0.4-0.4-0.5-0.6c-0.3-1-0.7-1.9-1.3-2.8c-1-1.5-2.5-2-4.3-1.3c-1.6,0.5-2.8,2.1-2.6,3.7
		c0.1,1,0.2,1.9,0.9,2.7c2.2,2.6,5,1.6,6.7-0.4c0.3-0.3,0.4-0.8,0.9-1C103.4,274,103.5,274.3,103.3,274.7z"/>
	<path class="st18" d="M185.8,185.2c-1.9-3.8-3.7-7.6-6.1-11.1c-0.1-0.1-0.3-0.4-0.2-0.4c0.5-0.8,1-1.5,1.5-2.3
		c0.3-0.5,0.8-0.4,1.3-0.4c1.3,0,2.5-0.3,3.4-1.3c1.3-1.4,1.9-3.1,1.2-5c-0.2-0.7,0.1-1,0.6-1.3c2.1-1.3,3.9-2.9,5.3-4.9
		c2.9-4.1,3.6-8.4,1.6-13c-0.3-0.8-0.1-1.1,0.5-1.5c3.6-2.3,5.2-5.7,5.9-9.8c0.5-2.7,0.6-5.3-0.3-7.9c-0.1-0.4,0.1-0.8,0.3-1
		c1.4-2.1,1.8-4.4,2-6.8c0.2-2.2-0.3-4.3-1.2-6.3c-0.8-1.8-1.6-3.8-3-5.1c-1.2-1.1-1.1-1.9-0.4-3.1c0.4-0.6,0.2-1.5,0-2.3
		c-0.7-2.1-2.1-3.7-4.2-4.5c-0.7-0.3-1-0.7-0.8-1.4c0.4-1.3,0.2-2.6,0.1-3.9c3.7,4.9,6.9,10,9.8,15.3c0.5,1.8,1.2,3.5,1.6,5.3
		c1.3,5,2.1,10.1,2.2,15.3c0.1,4.6-0.5,9.2-1.1,13.8c-0.7,5.3-2.2,10.5-3.9,15.5c-2.3,6.7-5.3,13.1-8.9,19.2c-1.8,3.1-4,6-6.6,8.5
		C186.1,185,186,185.1,185.8,185.2z"/>
	<path class="st15" d="M185.8,185.2c0-0.5,0.4-0.7,0.7-1c3.2-3.2,5.8-6.9,7.8-10.9c1.7-3.3,3.5-6.7,4.9-10.1
		c1.9-4.5,3.4-9.1,4.7-13.8c1.1-4.4,1.7-8.8,2.3-13.2c0.5-3.8,0.5-7.6,0.3-11.4c-0.3-4.5-1-8.9-2.4-13.2c-0.4-1.3-0.8-2.6-1.1-3.8
		c-0.1-0.2-0.1-0.3,0.1-0.4c1.7,2.9,3.3,5.8,4.7,8.8c3.6,7.5,6.3,15.3,7.6,23.6c0.1,0.9,0.3,1.8,0.6,2.7c0.6,2.1-0.2,4-0.8,6
		c-2.3,7.7-6.1,14.7-10.6,21.3c-1.1,1.6-2.7,2.9-3.9,4.5c-1.5,2-2.8,4.1-4.7,5.8c-2.6,2.4-5.2,4.8-8,7c-1,0.8-1.3,0.7-1.8-0.5
		C186.1,186,185.9,185.6,185.8,185.2z"/>
	<path class="st13" d="M206.7,252.9c0.1-2.1,0.5-4.2,1.2-6.3c0.6-1.8,0.2-2.5-1.6-3.1c-1.5-0.4-2-1.3-1.8-2.9
		c0.4-2.7,1.5-5.1,3.2-7.2c0.3-0.3,0.6-0.6,0.9-0.8c0.9-0.7,1.6-0.6,2.2,0.5c1,1.8,2,3.6,3,5.4c0.8,1.4,2,2.4,3.7,2.3
		c1.2-0.1,2.1-0.7,3-1.5c1.4-1.4,2.3-3.1,2.7-5c0.1-0.3,0.1-0.6,0.3-0.7c1.4-0.9,2.6-2.4,4.4-2.5c1.8-0.2,3.5,0.1,4.9,1.3
		c1.4,1.1,1.4,2.7,1,4.2c-0.4,2.1-1.6,3.8-3.4,5.1c-1.6,1.1-1.7,1.9-0.5,3.4c0.9,1.1,0.7,2.5,0.5,3.6c-0.9,4.5-3.9,5.5-7.7,5.1
		c-0.8-0.1-1.6-0.2-2.4-0.5c-1.4-0.5-2.1-0.2-2.7,1.2c-0.7,1.7-1.8,2.9-3.6,3.5c-2.9,0.9-6.4-0.8-7.1-3.4
		C206.7,254,206.8,253.4,206.7,252.9z"/>
	<path class="st18" d="M127.6,289.1c0.2,0,0.3-0.1,0.4-0.4c1-3.9,2.4-7.7,3.4-11.5c1.2-4.8,3.3-9.3,5.1-13.8c1.7-4.2,4-8,6.4-11.9
		c1.3-2.1,2.8-4,4.2-6c0.7-1.1,0.7-1.1-0.5-1.2c-0.1,0-0.2-0.1-0.3-0.2c1.1,0.1,2.2,0.2,3.4,0.2c1.2,0,2.3-0.5,2.3-1.7
		c0.2-2.8,2.2-2.9,4.1-3.2c1.3-0.2,2.7-0.5,4-0.8c0.2,0,0.5-0.2,0.6,0.1c0.1,0.2-0.1,0.4-0.2,0.5c-1.2,1.2-1.9,2.9-3,4.2
		c-3.4,3.9-6,8.3-8.4,12.8c-1.1,2.1-2.7,3.8-3.7,6c-1.1,2.5-2,5.1-2.9,7.7c-0.7,2.1-1.7,4.1-2.3,6.2c-0.9,3.1-1.7,6.2-2.2,9.3
		c-0.5,3.3-0.9,6.6-0.8,10c0,0.6-0.2,0.8-0.8,0.7c-2.1-0.5-4.2-1.1-6.3-1.4c-0.5-0.1-0.7-0.3-0.7-0.8c0-0.8,0-1.6-0.1-2.3
		C129.1,290.3,128.5,289.5,127.6,289.1z"/>
	<path class="st15" d="M97.9,307.2c0,2.7-0.5,5.3-0.8,8c-0.2,2.3-0.5,4.7-0.6,7c-0.2,3.1-0.5,6.3-0.5,9.4c0.1-1.1-0.4-1.8-1.2-2.4
		c-0.8-0.6-1.7-1.1-2.6-1c-1.9,0.1-3.5,0.9-4.8,2.4c-2.6,3.3-0.1,6.3,2.4,7.2c2.3,0.8,4.1,0.2,5.9-1.4c0.4,0.8-0.1,1.5-0.1,2.2
		c0.1,2.7-0.2,5.4-0.3,8.1c0,0.6-0.2,0.5-0.6,0.5c-2.6,0-5.1-0.3-7.6-0.5c-1.9-0.2-3.7-0.5-5.6-0.7c-0.7-0.1-0.8-0.4-0.6-0.9
		c0.7-2.6,0.8-5.4,0.9-8.1c0.1-2.3,0.5-4.6,0.8-6.9c0.2-2.1,0.5-4.1,0.7-6.2c0.2-2,0.4-4,0.7-6c0.2-2.2,0.5-4.3,0.8-6.5
		c0.2-1.4,0.2-2.8,0.6-4.1c0.1-0.2,0.1-0.4,0.1-0.6c-0.1-0.7,0.3-0.9,0.9-0.9c2.1,0,4.3-0.1,6.4,0c1.4,0.1,2.9,0.1,4.3,0.1
		C98.1,306,98.1,306.1,97.9,307.2z"/>
	<path class="st18" d="M53.1,346.3c-1.7-0.2-3.3-0.8-5-1.2c-1-0.3-2-0.6-3-0.9c-1-0.3-1.4-1.1-1.4-2c-0.1-0.8,0.6-1.3,1.3-1
		c5.3,2.2,10.8,3.4,16.4,4.6c4.6,0.9,9.3,1.6,13.9,2.4c4,0.7,7.9,1.1,11.9,1.6c2.1,0.3,4.3,0.3,6.4,0.4c2.4,0.2,4.8,0.3,7.2,0.2
		c3.9-0.2,7.8-0.4,11.7-0.8c4.5-0.4,9-1.1,13.5-1.7c0.8-0.1,1.5-0.4,2.3-0.6c5.1-0.8,10.2-1.6,15.2-2.9c0.6-0.2,0.9,0,1,0.6
		c0.1,0.5,0.3,0.9,0.4,1.4c0.3,1.2-0.4,2.4-1.5,2.7c-3.6,1.1-7.3,1.8-11,2.5c-3.4,0.6-6.8,1-10.3,1.4c-0.7,0.1-1.2-0.4-1.9-0.4
		c-4,0-8,0.5-12,0.6c-3.4,0.1-6.8,0.2-10.3-0.1c-1.7-0.1-3.4-0.3-5.1-0.1c-1.4,0.1-2.8-0.3-4.3-0.4c-2-0.2-4-0.4-6-0.6
		c-5.6-0.3-11.2-1.1-16.6-2.5c-0.7-0.2-1.5-0.2-2.2-0.6c0.2-0.3,0.8-0.2,0.7-0.6c-0.1-0.5-0.6-0.5-1-0.6c-2.4-0.7-5-1.1-7.4-1.6
		c-0.5-0.1-1-0.2-1.5-0.3C53.9,345.4,53.5,345.7,53.1,346.3z"/>
	<path class="st18" d="M133.1,343.6c0.4-0.9-0.3-1.5-0.5-2.2c-1.5-4.7-3.5-9.2-4.8-13.9c-0.9-3.3-1.6-6.6-2.1-10
		c-0.2-1.7-0.7-3.4-0.6-5.2c0-0.5-0.3-0.6-0.7-0.6c-1.5,0-3.1,0-4.6-0.2c-3.6-0.3-7.1-0.4-10.7-0.8c-0.5-0.1-1.1,0-1.6-0.1
		c-1.1-0.3-2-0.8-2.3-2.1c0-0.3-0.1-0.6-0.4-0.6c-1.2,0-2.5-0.6-3.7-0.1c0.1-0.8,0.2-1.6,0.3-2.3c0.1-0.5,0.4-0.8,1-0.8
		c1.2,0.2,2.4,0.3,3.6,0.4c0.3,0,0.4,0.2,0.4,0.5c0.1,0.5,0.2,1,0.2,1.5c0,0.9,0.6,1.4,1.4,1.5c1.4,0.3,2.8,0.4,4.3,0.4
		c3.8,0,7.5,0.4,11.3,0.2c0.5,0,1,0.1,1.4-0.3c0,0,0.1-0.1,0.1,0c1.8,0.9,3.5-1.3,5.4-0.2c0.6,0.3,0.7,0.4,0.5,1
		c-0.7,2.7-1.1,5.5-1.1,8.3c0,1.9,0.6,3.6,0.9,5.4c0.3,1.9,0.6,3.9,1.5,5.6c1,2,2,3.9,3.9,5.4c2.1,1.8,4.5,2.8,7.1,3.5
		c0.6,0.2,1.2,0.2,1.8,0.3c0.4,0.1,0.9-0.2,1.1,0.3c0.3,0.6,0.5,1.3,0.4,2c0,0.3-0.2,0.4-0.5,0.4c-4,0.8-7.9,1.6-11.9,2.5
		C133.8,343.5,133.4,343.5,133.1,343.6z"/>
	<path class="st15" d="M63.6,292.7c0.5-1,1-1.4,2.1-1.4c2.3,0.1,4.6-0.3,6.9-0.2c6.9,0.3,13.8,0.1,20.6,0.3c2.9,0.1,5.9,0.4,8.8,0.9
		c1.3,0.2,2.6,0.3,4,0.5c0.6,0.1,0.8,0.3,0.7,0.9c-0.1,0.6,0,1.2-0.4,1.9c-0.6-1.2-1.6-2-2.9-2.1c-1.1-0.1-2.1,0.2-2.9,0.9
		c-1.4,1.2-1.5,4.1-0.1,5.4c1.8,1.6,4,1.4,6-0.9c0,1,0,1.9,0,2.8c0,0.6-0.4,0.5-0.8,0.5c-2.3-0.2-4.6-0.4-6.9-0.6
		c-2.1-0.2-4.3-0.5-6.4-0.7c-0.2,0-0.4-0.1-0.6-0.1c-2.7-0.1-5.3-0.1-8-0.1c-3.2-0.1-6.5,0.4-9.7,0.5c-1.3,0-2.7-0.2-4.1-0.1
		c-3,0.1-5.9,0.3-8.9,0.5c-0.5,0-0.9-0.2-0.9-0.6c0.3-1.8,0.6-3.5,1.6-5.2c0,1.5,0.3,3,1.6,4c1.3,1,2.7,1,4.2,0.6
		c2.2-0.6,3-3.5,2.4-5.2C69.1,292.4,67,291.6,63.6,292.7z"/>
	<path class="st15" d="M142,199.4c-9.9,1.2-18.8,4.8-27.4,10.3c0.9-4.1,2.1-7.7,5.3-10.3c0.9-0.7,1.7-1.5,2.5-2.2
		c0.3-0.3,0.6-0.5,1-0.7c2.2-0.7,4.4-1.3,6.7-1.6c1.5-0.2,2.7-0.9,3.8-1.9c2.1-1.8,4.3-3.4,6.9-4.5c0.8-0.3,1.6-0.5,2.4-0.5
		c0.6-0.2,0.6,0.3,0.7,0.6c0.4,3.3,0.4,6.5-0.2,9.8c-0.1,0.3-0.2,0.6-0.5,0.7l0,0C142.8,199.4,142.3,199.1,142,199.4z"/>
	<path class="st19" d="M17.2,495.5c1.7,0.5,3.2,1,4.6,1.4c8,2.2,16.2,2.8,24.6,2.3c7.1-0.4,14.1-1.3,21.1-2.7c2.2-0.5,4.3-1,6.5-1.7
		c0.8-0.3,1.2-0.2,1.1,0.7c0,0,0,0.1,0,0.1c0,2.4,0,2.4-2.3,3c-6.9,1.8-13.8,2.7-20.9,3.2c-6,0.4-12,0.5-18,0
		c-3.6-0.3-7.2-0.8-10.7-2C20.5,498.9,19.2,498,17.2,495.5z"/>
	<path class="st19" d="M184.1,494.8c-1.3,2.8-3.5,4.1-6.4,4.5c-8.1,1.2-16.2,1.6-24.3,1.5c-7.7-0.1-15.3-0.7-23-1.6
		c-1-0.1-2-0.3-3-0.4c-0.7,0-0.9-0.4-0.9-1c-0.1-1.9-0.1-1.8,1.8-1.6c4.8,0.7,9.6,1.2,14.4,1.5c6.5,0.4,13.1,0.7,19.6,0.3
		c6.8-0.4,13.5-1.4,20.2-2.9C183,495,183.5,494.9,184.1,494.8z"/>
	<path class="st20" d="M122.7,307.4c-3.9-0.1-7.9-0.3-11.8-0.5c-0.4,0-0.7-0.2-1.1-0.2c-0.7-0.1-1-0.5-0.9-1.2c0.1-2,0.1-4,0.2-5.9
		c0.1-2.8,0.4-5.7,0.8-8.5c0.4-2.5,1-2.5,3.3-2.3c2.7,0.2,5.3,0.5,7.9,0.8c1.7,0.2,3.3,0.5,4.9,0.9c0.7,0.2,0.6,0.8,0.6,1.3
		c0.3,1.8,0.3,3.6,0.2,5.4c-0.1,2.1-0.2,4.2-0.4,6.2c-0.1,1-0.3,2-0.5,3c-0.1,0.6-0.5,0.9-1.1,0.8
		C124.2,307.4,123.4,307.4,122.7,307.4C122.7,307.4,122.7,307.4,122.7,307.4z"/>
	<path class="st18" d="M60.9,290.9c-0.4-3.2-0.9-6.3-1.2-9.5c-0.2-1.7-0.3-3.5-0.5-5.2c-0.2-3.2-0.5-6.3-0.8-9.5c0-0.1,0-0.2,0-0.3
		c0.1-3-0.4-6-0.2-9c0.2-2.6,0.6-5.2,1.4-7.7c0.1,1.2-0.4,2.3-0.4,3.5c0,5.4,1.1,10.6,2.4,15.7c1.1,4.2,2.3,8.4,3.8,12.4
		c0.5,1.3,0.4,2.3-0.3,3.4C63.9,286.9,62.8,289.2,60.9,290.9z"/>
	<path class="st13" d="M90.9,124c-5.2-0.4-10.2,0.3-15.2,0.3c-0.7,0-0.8-0.2-0.7-0.9c0.3-1.4,0.6-2.8,0.9-4.2
		c0.1-0.5,0.3-0.9,0.7-1.2c2.7-1.7,5.4-3,8.4-4c0.4-0.1,0.7-0.4,1,0.3C87.1,117.6,88.6,120.8,90.9,124z"/>
	<path class="st21" d="M161.1,263.8c0.2,2.8-0.8,5.4-1.5,8.1c-1.4,5-3.5,9.8-6.5,14c-2.9,4.1-6.1,8-10.2,10.9
		c-0.3,0.2-0.5,0.4-0.5,0.7c-0.4-0.5-0.9-1-1.6-0.7c-0.4,0.1-0.4-0.2-0.4-0.5c0-1.2-0.2-2.3-0.4-3.4c-0.1-0.4,0.1-0.6,0.4-0.7
		c2.6-1.4,4.8-3.2,7-5.2c3-2.6,5.4-5.7,8-8.8c2.9-3.5,4.4-7.6,5.2-12.1C160.6,265.3,160.5,264.5,161.1,263.8z"/>
	<path class="st18" d="M82.5,305.9c-0.4-0.3-0.9-0.2-1.3-0.2c-3.6-0.1-7.2,0.2-10.8,0.3c-1.7,0.1-3.5,0.2-5.2,0.1
		c-1.4-0.1-2.8-0.2-4.3,0c-0.8,0.1-1,0.4-0.9,1.1c-0.4-0.9-0.4-1.9-0.6-2.9c-0.1-0.7,0.6-0.8,1.2-0.8c2.3,0.1,4.6-0.3,6.9-0.2
		c2.6,0.1,5.2,0,7.8,0c2.1,0,4.2,0.3,6.3,0.2c0.8,0,1.4,0.2,1,1.3C82.6,305.1,82.6,305.5,82.5,305.9z"/>
	<path class="st20" d="M125,222.7c4.8,0.1,9.7,0.4,14.5,0.9c3.8,0.4,7.5,0.7,11.1,2.1c0.3,0.1,0.9,0,0.7,0.6
		c-0.1,0.4-0.4,0.8-1.1,0.8c-4.8-0.5-9.6-1.3-14.4-1.9c-2.6-0.3-5.2-0.6-7.8-0.6c-2.3-0.1-4.7-0.3-7-0.4c-0.5,0-0.6-0.2-0.6-0.6
		c0-0.5,0.1-0.8,0.7-0.8C122.4,222.7,123.7,222.7,125,222.7z"/>
	<path class="st18" d="M143.2,199.2c0.4-1.4,0.5-2.9,0.6-4.3c0.2-2.1,0-4.1-0.2-6.2c0-0.3-0.1-0.5-0.4-0.6c0.7-0.2,1.4-0.5,2.2-0.4
		c1.9,0.2,2.1,0.5,2.3,2.8c0.3,2.4,0.9,4.7,1.5,7c0.4,1.3,0.3,1.5-1,1.5C146.5,199,144.9,199,143.2,199.2z"/>
	<path d="M103.3,274.7c0-0.3,0-0.5,0-0.8c-0.6,1-1.5,1.8-2.5,2.4c-2.9,1.8-5.8-0.8-6.2-3c-0.5-3.2,1.7-4.9,4.1-5.2
		c1.6-0.2,3.2,1,3.9,2.9c0.3,0.8,0.6,1.6,0.9,2.5C103.4,273.8,103.7,274.3,103.3,274.7z"/>
	<path class="st18" d="M75.4,193.5c-1.4-0.8-2.3-1.6-3.2-2.5c-3.1-2.9-5.9-6-8-9.7c-0.7-1.1-1.3-2.3-1.5-3.6
		c-0.1-1.3,0.2-2.6,0.3-3.8c0-0.1,0.1-0.2,0.2-0.2c0.7-0.1,1.3,0.3,1.9,0.6c0.4,0.1,0.5,0.4,0.5,0.9c-0.3,3.3,0.2,6.5,2.1,9.4
		c0.7,1.1,1.7,1.9,2.9,2.6c0.7,0.4,1.5,0.9,2.3,1.1c1.2,0.4,1.9,1.1,1.9,2.4c0,0.5,0.1,0.9,0.2,1.4
		C75.1,192.3,75.2,192.8,75.4,193.5z"/>
	<path class="st20" d="M132.3,239.5c-3.9-0.3-7.9-0.7-11.8-1.3c-1-0.2-0.6-1.3-0.7-2c-0.1-0.7,0.5-0.5,0.9-0.5
		c2.2,0.2,4.4,0.4,6.6,0.6c2.1,0.2,4.2,0.5,6.4,0.7c1.2,0.1,2.4,0.3,3.5,0.4c0.3,0,0.5,0.1,0.4,0.4c-0.2,0.7,0.3,1.2,0.5,1.8
		c0.1,0.5-0.3,0.4-0.5,0.4C135.8,239.8,134,239.7,132.3,239.5z"/>
	<path class="st18" d="M97.9,307.2c0.1-0.7-0.1-0.9-0.9-0.9c-3.2,0.1-6.5-0.3-9.7-0.2c-1,0-1.9,0-2,1.3c0-0.8,0.1-1.7,0.1-2.5
		c0.1-1.3,0.9-1.5,1.9-1.6c3.3-0.1,6.7,0.3,10,0.2c0.3,0,0.7,0.1,0.7,0.5C98.1,305,98.4,306.1,97.9,307.2z"/>
	<path class="st22" d="M94,333.6c0,1.2-1.2,2.4-2.4,2.3c-1.2,0-2.3-1.3-2.3-2.6c0-1.3,1.1-2.4,2.4-2.3C93.1,331.1,94,332.2,94,333.6
		z"/>
	<path class="st15" d="M53.1,346.3c-0.1-0.8,0.3-1.2,1.1-1c2.9,0.8,6,1.2,9,2c0.4,0.1,0.8,0.2,1.2,0.4c0.4,0.1,0.7,0.2,0.7,0.7
		c0,0.6-0.5,0.6-0.9,0.6c-0.1,0-0.2,0-0.3,0c-3.2-0.7-6.5-1.3-9.7-2.2C53.7,346.6,53.4,346.4,53.1,346.3z"/>
	<path class="st23" d="M68.3,296.4c0,1.4-1,2.3-2.4,2.3c-1.2,0-2.3-1.1-2.3-2.4c0-1.3,1.2-2.4,2.6-2.4C67.5,294,68.3,295,68.3,296.4
		z"/>
	<path class="st23" d="M132.3,239.5c1.7-0.1,3.3,0.3,4.9,0.5c0.3,0,0.7,0.2,0.9-0.2c0.7,0.3,1.3,0.4,2.1,0.5c2.7,0.1,5.5,0.4,8.2,0
		c0.6-0.1,1.1-0.4,1.7-0.1c-0.3,1.7-0.4,1.8-2.1,1.6c-3.2-0.4-6.4-0.9-9.6-1.4c-1.8-0.3-3.6-0.5-5.4-0.7
		C132.7,239.7,132.4,239.7,132.3,239.5z"/>
	<path class="st23" d="M104.7,297.1c0,1.1-0.8,2-1.8,2c-1,0-1.9-0.9-1.9-2c0-1.1,0.8-1.9,1.9-1.9
		C104.1,295.2,104.7,295.9,104.7,297.1z"/>
	<path class="st24" d="M118.4,242.5c0.1,1-0.3,1.2-1,1.1c-0.8-0.1-1.9,0.3-2.2-0.7c-0.3-0.9,1.2-2.4,2.3-2.3
		C118.7,240.7,118,242,118.4,242.5z"/>
	<path class="st23" d="M133.7,301.3c0,1-0.7,1.7-1.8,1.7c-0.9,0-1.7-0.8-1.7-1.6c0-0.8,1-1.8,1.9-1.8
		C133,299.5,133.7,300.3,133.7,301.3z"/>
	<path class="st25" d="M129.3,303.6c1.1,0.7,2.2,1.5,3.7,1c-0.3,1.5-0.3,1.5-1.7,1.2c-0.4-0.1-0.7-0.1-1.1-0.2
		C128.7,305.3,128.6,305.1,129.3,303.6z"/>
	<path class="st26" d="M117.4,229.4c-0.1,0-0.2,0-0.3,0c-1.3-0.1-1.4-0.2-0.8-1.4c0.2-0.5,0.2-1.3,0.8-1.3c0.8,0,0.7,0.9,1,1.4
		c0.1,0.1,0.1,0.2,0.1,0.3C118.5,229.5,118.5,229.5,117.4,229.4z"/>
	<path class="st25" d="M72.3,121.2c-0.3,1.1-0.5,1.9-0.7,2.7c-0.1,0.4-0.4,0.5-0.7,0.4c-0.5-0.1-1.1-0.2-1.4-0.6
		c-0.2-0.3,0.3-0.5,0.5-0.7C70.6,122.3,71.3,121.8,72.3,121.2z"/>
	<path class="st27" d="M116.2,238.3c-0.9-0.1-0.4-0.9-0.6-1.4c-0.2-0.6,0.1-1,0.8-1.1c1.2-0.2,0.9,0.9,1,1.4
		C117.8,238.2,116.9,238.1,116.2,238.3z"/>
	<path class="st28" d="M179.8,75.3c-0.5-0.1-0.8-0.3-1-0.3c-1.6,0.2-1.7-0.8-1.5-2C178.3,73.6,178.7,74,179.8,75.3z"/>
	<path class="st29" d="M216.4,154.1c0.3,0,0.5,0.2,0.3,0.6c-0.1,0.2-0.3,0.5-0.4,0.7c-0.4,0.7-0.7,1.4,0.6,1.4
		c0.3,0,0.1,0.2,0.1,0.4c-2.2,0.1-2.2,0.3-1.3-1.7C216,155,216.2,154.6,216.4,154.1z"/>
	<path class="st30" d="M227.5,191.2c-0.1-0.9,0.2-1.7,0.6-2.5c0.5-1.2,0.8-2.5,1.5-3.7C229.2,187.1,228.4,189.1,227.5,191.2z"/>
	<path class="st31" d="M117.4,222.7c0.3,0.1,0.7-0.1,0.6,0.4c-0.1,0.6-0.2,1.2-1,1.2c-0.6,0-0.5-0.5-0.6-0.9
		C116.4,222.7,116.9,222.7,117.4,222.7z"/>
	<path class="st32" d="M134.4,298.7c1.5,0.1,1.9,0.5,1.4,1.2c-0.1,0.1-0.2,0.3-0.3,0.4c-0.3,0.1-0.3-0.2-0.4-0.4
		C134.9,299.5,134.6,299.1,134.4,298.7z"/>
	<path class="st33" d="M157,26c-1.7-0.7-3.6-0.6-5.4-1c1.4-0.1,2.9,0.1,4.3,0.4C156.3,25.4,156.7,25.5,157,26z"/>
	<path class="st34" d="M129.5,298.9c-0.2-0.5-0.3-1.1,0-1.2c0.3-0.2,0.8-0.1,1.3,0.2C130.4,298.3,129.9,298.4,129.5,298.9z"/>
	<path class="st35" d="M99.8,114c-0.1-0.2-0.3-0.4-0.4-0.6c0-0.2,0-0.3,0.2-0.2c0.1,0.1,0.4,0.2,0.4,0.4
		C99.9,113.7,99.8,113.9,99.8,114z"/>
	<path class="st18" d="M142,199.4c0.4-0.4,0.8-0.1,1.2-0.2C142.8,199.5,142.4,199.3,142,199.4z"/>
	<path class="st36" d="M54.7,119.2c-0.2-0.2-0.5-0.4-0.3-0.7c0.2-0.2,0.4,0,0.6,0.2C54.8,118.8,54.8,119,54.7,119.2z"/>
	<path class="st21" d="M142.4,297.5c0.3,0.3,0.3,0.7,0,1C142.4,298.2,142.4,297.8,142.4,297.5z"/>
	<path d="M38.6,97.7c1.8-1,3.5-2,5.2-3c3.8-2.1,7.8-3.8,11.9-5c0.8-0.2,1.6-0.3,2.2,0.4c0.6,0.7,0.4,1.4,0.2,2.1
		c-1,2.4-1.6,4.9-2,7.4c-0.1,0.5-0.1,1.1-0.1,1.7c0.5,0,0.8-0.4,1-0.7c2.8-2.6,5.9-4.7,9.2-6.5c0.3-0.2,0.6-0.3,0.9-0.4
		c0.8-0.2,1.4,0,1.8,0.8c0.4,0.7,0.3,1.3-0.3,1.9c-0.2,0.2-0.5,0.4-0.8,0.5c-4.6,2.4-8.6,5.7-12.1,9.4c-0.3,0.3-0.6,0.6-0.9,0.8
		c-1.2,0.6-2.4-0.2-2.4-1.7c0-2.3,0.2-4.5,0.5-6.8c0.2-1.3,0.5-2.6,0.8-3.9c0.1-0.3,0.3-0.6,0.1-0.9c-0.3-0.2-0.6,0-0.8,0.1
		c-3.7,1.4-7.1,3.2-10.5,5.1c-1.5,0.9-3,1.9-4.6,2.8c-0.8,0.5-1.5,1-2.5,0.4c-1-0.6-0.8-1.6-0.7-2.5c0.9-6.1,3.2-11.7,7-16.7
		c5.4-7.1,12.6-11.3,21.2-13.4c6-1.5,12.2-1.8,18.4-1.3c0.3,0,0.6,0.1,0.9,0.2c1,0.2,1.5,0.9,1.4,1.8c-0.1,0.8-0.8,1.4-1.8,1.3
		c-1,0-1.9-0.2-2.9-0.2c-7.7-0.3-15.3,0.5-22.4,3.7c-9.5,4.4-15.4,11.9-18.1,21.9C38.5,97.4,38.6,97.5,38.6,97.7z"/>
	<path class="st37" d="M99.6,113.2c-0.1,0.1-0.2,0.2-0.2,0.2c-0.2-0.2-0.4-0.4-0.2-0.5C99.3,112.7,99.5,113,99.6,113.2z"/>
	<path d="M121.1,152.9c0,0.7-0.4,1.1-0.8,1.6c-2.6,2.8-3.1,7.6-1,10.9c0.8,1.3,2,2.2,3.4,2.8c1.2,0.5,1.7,1.3,1.3,2.3
		c-0.4,0.9-1.3,1.2-2.5,0.8c-3.1-1.2-5.1-3.5-6.1-6.6c-0.2-0.8-0.6-1.1-1.5-1.1c-2.4-0.1-4.4,0.7-6.4,1.9c-0.2,0.1-0.5,0.3-0.7,0.5
		c-1,0.7-2,0.6-2.6-0.2c-0.6-0.8-0.3-1.8,0.6-2.5c2.6-1.9,5.5-3.1,8.8-3c0.8,0,1-0.2,1.1-1c0.2-2.8,1.3-5.2,3.3-7.1
		c1-1,2.3-0.8,2.8,0.3C121,152.6,121.1,152.8,121.1,152.9z"/>
	<path d="M94,229.5c0-2.6,1.9-4.3,4.4-4.5c3-0.2,4.6,2.6,4.6,4.6c0,1.9-2.5,4.4-4.5,4.2C96,233.8,93.8,232.6,94,229.5z"/>
	<path d="M75.1,296.4c0-2.2,1.6-3.8,3.7-3.8c2,0,3.9,1.8,3.9,3.8c0,2.2-1.7,3.8-3.8,3.8C76.6,300.2,75.1,298.7,75.1,296.4z"/>
	<path d="M90.9,300c-2.7,0-3.6-1.8-3.7-3.7c-0.1-2,1.7-3.7,3.6-3.7c2.5,0.1,3.8,2,3.8,3.8C94.6,298.6,93.2,300,90.9,300z"/>
	<path d="M120.5,305.3c-2.3,0.1-4.7-0.4-7.2-0.4c-1.4,0-1.8-0.7-1.6-2.6c0.3-2,0-4,0.3-5.9c0.2-1.2,0.3-2.5,0.3-3.8
		c0-0.6,0.3-0.9,0.9-0.9c3.5,0.3,7,0.4,10.4,1.4c0.5,0.1,0.7,0.3,0.7,0.8c0,3.5-0.2,6.9-0.4,10.3c0,0.7-0.5,1-1.2,1
		C122.1,305.3,121.4,305.3,120.5,305.3z"/>
	<path class="st22" d="M98.7,274.5c-1.1,0-1.9-0.6-1.9-1.7c0-1.2,1-2.3,2.3-2.3c0.8,0,1.6,1,1.7,2
		C100.8,273.6,99.9,274.4,98.7,274.5z"/>
	<path class="st38" d="M67.1,296.4c0.1,0.9-0.5,1.1-1.2,1.1c-0.7,0-1-0.5-1.1-1.1c-0.1-0.6,0.6-1.4,1.3-1.3
		C66.8,295.1,67.1,295.7,67.1,296.4z"/>
	<path class="st39" d="M102.9,296.4c0.6-0.1,0.7,0.3,0.8,0.7c0,0.5-0.3,0.8-0.8,0.9c-0.4,0-0.6-0.3-0.6-0.6
		C102.2,296.7,102.4,296.4,102.9,296.4z"/>
	<path class="st40" d="M132.2,300.6c0.4,0.1,0.6,0.3,0.6,0.7c0,0.5-0.3,0.7-0.7,0.7c-0.4,0-0.7-0.1-0.7-0.5
		C131.3,301,131.7,300.8,132.2,300.6z"/>
	<path class="st22" d="M98.2,231.4c-1,0-1.7-0.8-1.7-1.9c0-1,0.8-1.8,1.9-1.8c1,0,2.1,0.9,2.1,1.8
		C100.5,230.6,99.5,231.4,98.2,231.4z"/>
	<path class="st24" d="M81,296.4c0,1.2-0.9,2.2-2.1,2.2c-1.3,0-2.2-0.8-2.2-2.1c0-1.2,1-2.2,2.2-2.2C80,294.2,81,295.2,81,296.4z"/>
	<path class="st23" d="M93,296.4c0,1.1-1,2.1-2,2.1c-1.1,0-2.1-1-2.1-2.1c0-1.1,1-2.1,2.1-2.1C92.1,294.3,93,295.2,93,296.4z"/>
	<path class="st15" d="M114.2,300.3c0-1.6,0.2-3.2,0.4-4.8c0.1-0.7,0.4-0.8,0.9-0.7c2.1,0.5,4.2,0.7,6.2,1c0.6,0.1,0.9,0.3,0.9,1.1
		c0,1.9-0.4,3.8-0.5,5.7c-0.1,0.8-0.5,1.2-1.3,1c-2-0.2-3.9-0.4-5.9-0.6c-0.5-0.1-0.8-0.3-0.8-0.9
		C114.2,301.6,114.2,300.9,114.2,300.3z"/>
	<path class="st41" d="M77.7,296.6c0-0.8,0.4-1.2,1.1-1.2c0.7,0,1,0.4,1,1.1c0,0.7-0.4,1.1-1,1.1C78.2,297.6,77.7,297.4,77.7,296.6z
		"/>
	<path class="st39" d="M90.8,297.5c-0.7,0-0.9-0.5-0.9-1.1c0-0.7,0.4-1,1.1-1c0.7-0.1,0.9,0.4,0.9,0.9
		C91.9,297,91.6,297.5,90.8,297.5z"/>
</g>
</svg>
