<?xml version="1.0" encoding="utf-8"?>
<!-- Generator: Adobe Illustrator 22.0.1, SVG Export Plug-In . SVG Version: 6.00 Build 0)  -->
<svg version="1.1" id="Layer_1" xmlns="http://www.w3.org/2000/svg" xmlns:xlink="http://www.w3.org/1999/xlink" x="0px" y="0px"
	 viewBox="0 0 2217.7 2217.8" style="enable-background:new 0 0 2217.7 2217.8;" xml:space="preserve">
<style type="text/css">
	.st0{fill:#282828;}
	.st1{fill:#1A191A;}
	.st2{fill:#FFFFFF;}
	.st3{fill:#1A1A1A;}
	.st4{fill:#121112;}
	.st5{fill:#121212;}
	.st6{fill:#FF2E30;}
	.st7{fill:#EFE9EF;}
	.st8{fill:#F8E021;}
	.st9{fill:#A24E1D;}
	.st10{fill:#FFA1C3;}
	.st11{fill:#FF5B99;}
	.st12{fill:#FF8CB7;}
	.st13{fill:#FFB0CE;}
	.st14{fill:#FF97BE;}
	.st15{fill:#FE8CB7;}
	.st16{fill:#FEB0CE;}
	.st17{fill:#FEAFCD;}
	.st18{fill:#FE8BB6;}
	.st19{fill:#FD2E30;}
	.st20{fill:#FC2D2F;}
	.st21{fill:#FCD5E4;}
	.st22{fill:#FBD4E3;}
	.st23{fill:#FBD5E3;}
	.st24{fill:#FBD5E4;}
	.st25{fill:#FAD4E3;}
	.st26{fill:#F9D3E2;}
	.st27{fill:#F9D3E1;}
	.st28{fill:#191919;}
	.st29{fill:#F8D2E1;}
	.st30{fill:#F9D4E2;}
	.st31{fill:#F8D3E1;}
	.st32{fill:#F2CEDD;}
	.st33{fill:#F6D2E0;}
	.st34{fill:#F82D2F;}
	.st35{fill:#F4D0DE;}
	.st36{fill:#FAD4E2;}
	.st37{fill:#F7D2E0;}
	.st38{fill:#F5D1DF;}
	.st39{fill:#F7D2E1;}
	.st40{fill:#F5D1E0;}
	.st41{fill:#F7D1E0;}
	.st42{fill:#F6D1E0;}
	.st43{fill:#F3CFDD;}
	.st44{fill:#F42C2E;}
	.st45{fill:#F3CFDE;}
	.st46{fill:#F0CEDC;}
	.st47{fill:#EFCBD9;}
	.st48{fill:#F2CFDD;}
	.st49{fill:#EECCDA;}
	.st50{fill:#E9C7D5;}
	.st51{fill:#F0CDDB;}
	.st52{fill:#E9C6D4;}
	.st53{fill:#171617;}
	.st54{fill:#D9DADA;}
	.st55{fill:#B71E20;}
	.st56{fill:#751617;}
	.st57{fill:#3B0D0D;}
	.st58{fill:#586063;}
	.st59{fill:#292929;}
</style>
<g>
	<path class="st0" d="M396,2217.8c-132,0-264,0-396,0C0,1478.6,0,739.4,0,0c739.1,0,1478.2,0,2217.7,0c0,739.2,0,1478.5,0,2217.8
		c-194.4,0-389,0-583.7,0c-3.1-3.6-1.9-7.6-1-11.4c8.3-35.8,11.4-72.3,15.8-108.7c2.4-19.7-3-39.1-4.4-58.6c-0.2-3.3-1.3-6.6-1-9.9
		c2.7-37.2-8.2-72.6-13.6-108.7c-4.7-31.7-14.9-62.1-22-93.2c-1.4-6.3-0.3-10.3,4.5-14.8c36.8-34.9,65.7-75,79-124.8
		c0.3-1,0.4-2,0.8-2.9c1.1-2.6,1.4-6.4,5.1-6.5c3-0.1,4.2,3,5.4,5.3c6.4,11.7,11,24.3,16.3,36.5c12.3,28.4,23.3,57.4,38.4,84.6
		c3.8,6.8,9,12.3,14.1,18.1c14.8,16.9,37.3,15.6,52.4,4.9c18.4-13,33.9-29,48.7-45.7c39.9-45,70.7-96,97.2-149.6
		c20.2-40.9,36.7-83.4,51.7-126.6c13.4-38.5,23.8-77.7,32.1-117.4c9.2-44,15.5-88.4,18.3-133.4c2.1-33.6,5-67.2,3.2-100.7
		c-1.8-33.2-3.4-66.4-8.3-99.4c-6.7-45.3-16.9-89.5-30-133.3c-16.8-55.8-40.7-108.4-68.5-159.3c-15.8-29-33.6-56.8-54.3-82.6
		c-1.7-2.1-3-4.4-4.4-6.7c-2.9-4.7-2-8.1,3-10.5c3.6-1.7,7.3-3.3,11.1-4.6c19.1-6.5,33.3-19.4,45.7-34.5
		c13.4-16.2,14.2-36.4,2.3-53.7c-13.1-19.2-30.4-34.3-49.2-47.8c-43.1-30.9-90.9-52.8-139.1-74.2c-30.2-13.4-61.4-23.9-92.7-34.1
		c-36.7-12-74.4-20-112.8-25.3c-41.1-5.7-82.2-7.1-123.5-7.1c-19.9,0-39.9,1.8-59.9,1.9c-6.3,0-12.5,1.7-18.6,3.7
		c-2.2-0.2-3.4-1.8-4.6-3.4c-6.7-8.9-15.9-12.5-26.8-12.6c-4.9,0-10,1-14.5-2.2c0.1-6.3,5.9-3.5,9.7-6.8
		c-17.1-14.8-31.3-32.8-49.5-46.6c-34.2-26-72.9-42.4-113.7-54.8c-36.6-11.1-74.5-13.8-112.2-17.6c-43.6-4.3-87-1.5-130.5,3.2
		c-47.5,5.1-93.6,17.2-140.4,25.5c-20.6,3.6-41.1,8.1-62.4,7.5c-57-1.6-107.3-21.1-152-55.8c-11.1-8.6-19.8-19.8-28.9-30.3
		c-18.2-21.2-39.2-12.6-52.3,7.6c-8.9,13.7-7.9,29.5-8.8,44.6c-2.9,44.7,5.9,86.8,31.2,124.6c5,7.4,3.8,10.1-6,11.4
		c-29.6,4-57.7,13.2-85.5,23.8C368,427.5,319.4,467,276.7,515c-35.2,39.7-60.4,85.3-79.9,134.1c-12.6,31.5-24.4,63.5-27.5,97.8
		c-2.3,25.2-3.7,50.3-1.5,75.7c2.3,26.9,6.1,53.6,11.5,79.9c5.4,26.1,13.1,51.6,22.6,76.5c13.3,34.6,28.1,68.4,48.2,99.7
		c20.7,32.3,44.6,62.1,69.7,91.1c36.5,42.3,75.8,82.5,105,130.7c15.6,25.7,29.9,52.2,37.8,81.3c7.9,29.4,4,58.2-10.6,85.1
		c-12.9,23.8-28.7,45.7-47.1,65.6c-6.5,7.1-14.1,13.2-21.1,19.8c-21.8,20.7-12.8,38.6,8.5,52.7c7.4,4.9,15.7,5.4,24.8,4.7
		c49.5-4,94.9-19.6,137.7-44.4c26.1-15.1,47-35.9,67.7-57.2c28-28.9,49-62.4,60.2-101.2c4.3-14.6,6.3-29.8,6.7-45.3
		c1-45.8-5.3-90.9-9.2-136.4c-3.1-35.9-8.5-71.9-1.9-108.5c3.2-17.6,5.4-35.5,10.4-52.7c0.9-3.2,1.3-6.6,4.4-8.7
		c1-0.4,2.1-0.4,3.1,0.1c3,4.2,2.4,8.9,1.9,13.5c-4.2,41.7-1,83,5,124.3c3.8,26.2,9.2,51.9,17.8,76.7c9.3,27,17.8,54.5,31,80
		c7.6,14.8,14.1,30.1,22.2,44.7c5.1,9.2,4.2,11.7-5.5,16.3c-14.9,7-29.2,14.7-40.4,27c-32.7,35.9-28.8,63.7-4.4,97.7
		c8.7,12.1,20.5,21.8,31.6,31.9c8.2,7.4,8.2,10.5-0.5,17.3c-37.3,29-74.6,58.2-109.5,90.1c-33.6,30.8-67.8,61.4-96.5,96.8
		c-24.9,30.6-52.2,59.7-69.9,95.8c-13.4,27.3-24.1,55.5-33.9,84.2c-10.3,30-19,60.4-24.9,91.4c-5.8,30.7-11,61.5-14,92.7
		c-2.4,25.5-4.5,51-7.9,76.4C398.1,2214.5,397.4,2216.3,396,2217.8z"/>
	<path d="M1330.1,367.8c3.9,0.1,7.9,0.5,11.8,0.2c15.2-1.3,26.6,4.4,34.2,17.7c4.8,0.3,5.8,4.3,6.6,7.6c1.7,7.1,6,8.5,12.6,7.9
		c33.6-3.2,67.2-2.8,100.8-2c58.9,1.3,116.8,9.8,173.4,26.2c85.3,24.7,166.6,58.3,240.7,107.9c13.1,8.7,25.1,18.6,36.1,29.9
		c21.7,22.5,18.7,49.4-7.5,66.8c-16,10.6-34,16.8-52.3,22c-12,3.4-12.1,3.6-4.5,12.9c56.3,69.2,98.1,146.4,127.8,230.5
		c22.8,64.5,36.5,130.7,43.2,198.7c4.2,42.6,5.2,85.2,3.2,127.7c-6,127.3-33.5,250-85.1,366.9c-29.1,65.8-64.4,128-111.4,182.9
		c-11.5,13.4-23.7,26.2-38.1,36.6c-21.1,15.2-36.5,11.8-48.9-11.3c-15.9-29.7-28.1-61.1-41.6-92c-9.4-21.7-18.8-43.4-29.6-64.5
		c-7.5-14.5-14.1-29.5-23.6-43.5c0.5,23.3,2.1,46.2-1.2,69c-6.2,42.6-25.4,78.9-53.4,110.9c-10.1,11.5-19.7,23.5-32.2,32.7
		c-5.4,3.9-5.2,9.4-3.5,15.3c8.3,29.9,16.1,59.8,22.5,90.1c8.1,38.5,15,77,16.8,116.5c0.9,20.9,4.5,41.7,3.7,62.7
		c-1.6,39.1-6.8,77.6-17.4,115.3c-0.9,3.3-2,6.4-5.3,8.1c-8.7,0-17.3,0-26,0c-3.3-3.9-1.9-8.3-0.8-12.4c7.1-25.5,8.5-51.8,9.9-78
		c4.5-79.1-5.2-156.7-23.8-233.5c-4-16.5-6.6-33.3-12.5-49.3c-3.9-10.5-5.4-11.7-14.9-6.6c-13.6,7.3-28.3,11.6-42.7,17
		c-7.2,2.7-12.5,7.2-16.5,13.7c-10,16.2-20.7,31.9-32.9,46.5c-5.3,6.4-7.1,13-5.4,21.2c9.5,44.6,7.8,89.3,1.5,134.1
		c-3.1,17.9-6.7,35.8-10.6,53.6c-6.5,30-22.9,54.7-41.5,78.3c-4.3,5.5-8.2,11.3-14,15.4c-12,0-24,0-36,0c-1.1-4.9,2.8-7.1,5.3-10
		c17.1-20.5,33.7-41.3,46.2-65.1c10.7-20.4,14.9-42.9,17.4-65.4c3-26.8,7.3-53.5,6.6-80.6c-0.3-11.4-3.6-22.7-1.9-35.1
		c-13.8,20-27.3,39.4-39.4,59.7c-5,8.4-4.7,17.9-5.6,27.1c-2.1,23.3-8.4,45.1-23.2,63.9c-3.1,3.9-6.3,8-10.6,10.5
		c-12.2,7.2-18.8,18.1-23.1,31.3c-5.6,17.4-11.1,34.9-15.7,52.7c-1.1,4.1-1.4,8.7-5.9,11c-8.7,0-17.3,0-26,0
		c-3.5-4-1.6-8.2-0.5-12.3c6.1-23.8,12.7-47.5,21.8-70.3c4.1-10.1,3.1-17.8-4.2-26.3c-10.8-12.6-22-24.8-32.5-37.6
		c-17.2-20.8-36.3-39.9-55.2-59.1c-34.6-35-71-68.3-108.2-100.6c-5.3-4.6-9.1-5.5-13.8,0.8c-7,9.6-16.3,11.3-27.5,7.1
		c-43.2-16.2-83.7-36.3-114.8-71.9c-6.4-7.3-11.5-15.5-17.1-23.3c-7.8-11-10.9-22.8-5.8-35.8c3-7.8,0.8-12.8-6.4-17.4
		c-23.8-15.4-47.5-30.8-71.3-46.1c-6.3-4-11.1-3.8-17.3,0.2c-23,14.9-41.4,34.4-57.9,56c-25.5,33.3-47.3,68.6-57,110.1
		c-4.5,19.3-5.9,38.8-1.3,58.4c7.9,33.4,29.2,55.3,59.6,69.3c16.8,7.7,34.7,11.5,52.9,14.3c11.8,1.9,17.5,8,16.5,17.3
		c-1,9.1-8,14-19.9,13.8c-1.3,0-2.7-0.1-4-0.2c-16.7-1.7-16.6-1.7-20.8,14.8c-11,42.7-24.9,84.3-43.4,124.4
		c-2.5,5.3-4.2,11.4-10,14.6c-15.3,0-30.7,0-46,0c-3.3-2.6-4.7-6.3-6-10.2c-17.4-52.2-32.7-105-41-159.5
		c-3.5-22.7-5.8-45.6-1.6-68.5c4.1-21.7,10.9-42.6,21.2-62.2c6.2-11.9,10.7-24.2,14-37.2c11.4-45.5,35.3-84.6,63.8-121
		c15.2-19.4,31.5-37.9,52-52.2c4.5-3.2,5.2-5.8,0.8-10.2c-8.9-8.8-9.6-14.6-4.3-25.9c9.5-20.2,22.1-37.9,40.7-50.9
		c10-7,19.3-8.2,30.4-1.6c31.2,18.6,62.5,37,92.7,57c6.8,4.5,10.7,3.6,15.8-2.3c10.3-11.7,15.1-12.5,28.7-5.4
		c51.9,27.3,99.3,60.8,139.4,104.1c6.3,6.8,7.2,14.5,4.6,22.2c-3.5,10.1,0.5,15.7,8.1,21.9c39.1,31.6,77.3,64.2,114.1,98.5
		c20.7,19.3,42,37.9,61.9,58c9,8.4,18.7,16,27,25.1c4,4.4,6.9,3.5,10-1.4c14.7-23,30.1-45.6,46.7-67.2c3.7-4.8,4.1-9.5,2.2-14.9
		c-2.2-6.2-2.5-12.5,1.6-18.2c3.7-5.1,9.2-7.9,14.8-5.6c8.1,3.3,11.7-0.3,15.5-7.9c-17.2,5.3-34.3,6.2-51,9.5
		c-31,4.3-62.3,5.7-93.5,6.7c-8.4,0.3-16.6-1.3-24.8-2.5c-6.4-0.9-11.3-4.1-13.2-10.6c-1.9-6.5,1-11.7,5.4-16.2
		c3.1-3.2,7.2-4.7,11-6.7c29.9-15.2,57.6-33.3,78.9-59.9c18.8-23.5,28-50.2,29.4-80.1c1.8-39.6-6.5-77.4-17.6-115
		c-2.4-8.1-6.4-11.1-14.8-11.3c-37.3-0.9-73.5,6.6-109.7,14c-5.5,1.1-11,2.8-16.7,3.2c-8.3,0.7-15.9-4.3-17.7-11.6
		c-2-8.1,2.7-13.2,8.8-17.4c1.9-1.3,4.2-2,6.5-2.6c25.6-6.2,51.3-11.9,77.4-15.1c15.1-1.9,30.4-2.4,45.5-3.9c4.9-0.5,6.3-2.5,5-7.2
		c-5.6-21.5-11.5-43-13.4-65.3c-0.5-5.5-4.4-8-9.3-8.9c-7.8-1.5-15.4-4-23.3-5.1c-49-9.9-98.2-18.6-147.8-24.9
		c-32-4-64.2-6.7-96.3-9.6c-49.2-4.4-98.5-3.7-147.7-3.5c-35.7,0.2-71.1,4.4-105.7,13.9c-10.9,3-21.6,6.8-31,13.6
		c-15.9,11.6-18.2,24-7.4,40.5c9.6,14.6,23.8,24.1,38.2,33.1c21.3,13.3,44.3,23.1,68.1,31c5.1,1.7,10.3,3.2,14.3,6.9
		c4.9,4.5,8.2,9.8,5.4,16.8c-2.6,6.7-7.8,9.8-14.8,9.7c-10.6-0.1-20.4-3.6-29.6-8.2c-9.6-4.7-17.2-3.4-25.7,2.7
		c-49.3,35.5-96.9,73-142,113.6c-18.8,16.9-38.1,33.4-55.5,51.8c-30.4,32.2-60.4,64.8-84.2,102.5c-23.9,37.9-39,79.4-51.3,122.1
		c-15.6,54.3-25.8,109.5-30.6,165.8c-1.5,17.9-3.6,35.7-3.8,53.7c0,3.4-0.1,6.7-2.6,9.4c-9.3,0-18.7,0-28,0
		c-2.2-2.4-2.5-5.3-2.2-8.4c4.2-53.8,8.9-107.5,19.9-160.4c11.3-53.9,26-106.9,48.7-157.2c14.2-31.5,34.6-59.1,55.8-86.2
		c28.8-37,61.8-69.9,95.8-101.8c46.2-43.3,96-82.4,147.1-120c10.9-8,14.1-7.8-0.8-16.6c-15.3-9-29.4-19.7-40.9-33.3
		c-15.3-18.1-24.6-38-16.9-62.5c5.1-16.4,16.9-26.8,31-35c12.2-7.1,25.5-11.4,38.9-15.6c10.1-3.2,10.3-3.7,5-12.9
		c-30-52.2-54.6-106.8-69.7-165.3c-8.3-32-12.4-64.6-14.9-97.6c-2-26.4,0.1-52.5,0.5-78.8c0.2-11.3,1.7-22.6,3-33.8
		c0.9-7.2-1.5-10.5-8.2-12.2c-22-5.7-20.5-12.6-31.8,14.3c-12.8,30.7-19.2,62.8-22.1,95.9c-3.9,44.6,2.8,88.3,7.6,132.2
		c3,27.1,5.6,54.4,6.2,81.6c1.3,58.1-20.3,107.8-58.7,150.8c-41.5,46.6-92.8,76.1-153.5,90.1c-16.3,3.8-32.9,5.2-49.5,6.8
		c-8.1,0.8-15.5-2.1-19.4-9.7c-4.2-8.3,0.2-14.6,6-20.3c21.3-20.7,42.1-41.8,58.2-67c6.3-9.8,12.1-19.9,17.1-30.5
		c17.4-36.6,14.3-72.6-0.8-109.2c-21.7-52.5-54.1-97.7-91.2-140c-35.6-40.5-72.3-80.2-102.8-125c-48.7-71.6-77-151-88.3-236.6
		c-7.1-54-6.5-107.8,10.1-160.2c29.3-92.4,77-172.7,157.1-230.5c51.9-37.4,110.3-58.6,173.9-65.7c9.5-1.1,19.1-1.4,29.3-2.7
		c-2.9-6-7.1-9.9-10.6-14.1c-25.6-30.3-39.3-65-42.3-104.7c-1.5-19.5,0.1-38.5,2.9-57.6c0.5-3.6,1.4-7.2,3.2-10.5
		c5.6-10.1,15.3-12,24.2-4.8c2.6,2.1,4.8,4.6,7,7.1c43.2,50.9,99.8,75.9,164.6,85.5c29,4.3,57.1-1,85.3-5.8
		c34.8-5.9,69.1-14.4,103.9-20.5c49.1-8.6,98.6-12,148.3-9.6c51.9,2.6,103.5,8.7,153.1,26.3c44,15.6,83.2,38.9,115.7,72.7
		C1319.5,363.2,1325.3,364.5,1330.1,367.8z"/>
	<path class="st1" d="M1294,1569.8c-22.7,3-45.1,7-67.2,12.9c-4.2,1.1-8.5,1-12.6,2.7c-2.9,1.2-5.4,2.5-7.4,4.8
		c-4.6,5-5.4,8.6-2.8,13.4c3.1,5.8,8.9,9.2,14.8,7.8c21.2-5.2,42.7-9.1,64.2-12.8c23-4,46.1-5.4,69.4-4.8c4.2,0.1,6.8,1.5,8,5.8
		c3,11.2,6.6,22.3,9.6,33.5c4.5,16.6,7.5,33.6,9.6,50.6c1.3,10.9,0.4,22,0.6,32.9c0.8,30.7-8.1,58.2-26,83.1
		c-12.2,16.9-27.5,30.4-44.5,42.3c-13.9,9.7-28.3,18.5-44,25.1c-3.2,1.3-5.8,3.4-7.8,6.1c-2.9,3.8-4.9,7.8-2.6,12.9
		c2.2,4.8,5.9,7.1,10.8,7.6c17.8,1.8,35.6,4,53.5,0.3c2.6-0.5,5.3-0.2,8-0.2c15.9,0.1,31.8-1.4,47.5-3.8c3.6-0.5,7.3-0.2,11-0.3
		c1.8-1.3,4-1.5,5.5-0.2c1.9,1.6,0.4,3.6-0.7,5.3c-1.3,2-2.9,3.7-4.7,5.1c-23.7,19-42.3,42.6-60.6,66.5c-2.4,3.1-3.9,8-9.4,7.4
		c-2.8-1.3-4.8-3.6-6.8-5.8c-14-15.2-30-28.3-44.9-42.5c-18.9-18.1-38.5-35.6-58.5-52.5c-14.4-12.2-28.7-24.6-43.4-36.5
		c-10.3-8.3-20.6-16.8-30.6-25.4c-3.4-2.9-4.4-5.4-2.8-9.4c1-2.5,1.3-5.1,2-7.7c2.4-8.6,1-15.5-5.9-22.5
		c-26.1-26.7-54.1-51.1-85.6-71.2c-16.8-10.7-33.7-21.3-51.4-30.4c-13.1-6.7-15.6-6.2-25.9,4.7c-0.2,0.2-0.5,0.5-0.7,0.7
		c-8,8.8-8,8.8-17.7,2.4c-31.7-20.7-64.2-40-96.8-59.3c-6.8-4-13.3-3.2-19.8,0.8c-13.7,8.6-25,19.7-33.6,33.4
		c-3.9,6.2-7.4,12.6-10.6,19.2c-5.8,11.5-4.4,17.3,5.4,25.1c6.2,4.9,6.1,4.8-0.3,10.1c-10.6,8.6-21.7,16.5-30.9,26.7
		c-20.3,22.4-38.9,46.2-54.3,72.3c-11.4,19.2-21,39.3-28.1,60.5c-2.9,8.8-5.4,17.8-6.7,27c-0.6,4.1-2.5,7.6-4.4,11.1
		c-12.6,23.2-22.3,47.5-27.7,73.4c-6.5,32.1-7.9,64.3-5.6,97.1c1.7,25.5,2.4,51.2,4.6,76.7c1.5,18.2,3.2,36.5,4.7,54.7
		c0.3,4,1.4,8-1.6,11.5c-63.3,0-126.7,0-190,0c-0.4-20.6,1.8-41,3.6-61.5c1.4-15.2,3.3-30.3,4.7-45.4c1.6-16.4,4.7-32.8,8.1-48.9
		c7.9-37.7,16.9-75.1,29.7-111.4c11.1-31.4,23.9-62.2,42.7-89.8c10.8-15.9,22.2-31.4,34.8-46c19.5-22.7,38.8-45.6,60.8-65.9
		c18.5-17.1,36.7-34.6,56-50.9c17.7-15,35.2-30.3,53.4-44.7c18.7-14.8,37.8-29.2,56.8-43.6c7.4-5.6,15.5-10.3,22.7-16.2
		c6-5,11.4-4.9,18.1-1.8c8.4,3.8,17,7.4,26.2,9.4c3,0.6,5.9,1,8.9,1c6.3,0.1,9.6-3.4,11.9-8.8c2.3-5.4-1-9.1-3.9-12.5
		c-3.1-3.6-7.8-5-12.2-6.4c-18.5-5.7-36.1-13.4-53.4-21.9c-16.8-8.3-32.1-18.8-46.2-31c-9.6-8.2-15.9-18.9-18.1-31.3
		c-1.3-7.1,2.3-13.5,7.2-18.9c10.3-11.4,24.1-16.7,38.1-20.7c25.5-7.2,51.7-10.7,78.3-12.8c43.6-3.4,87.2-2,130.7-1.2
		c23,0.4,46.2,2.7,69.3,4.9c16.8,1.6,33.6,3.2,50.4,4.9c17.7,1.8,35.4,4.5,53.1,7c22.6,3.3,45.1,7.3,67.6,10.8
		c17,2.7,33.8,6.5,50.7,9.8c4.2,1.3,6.3,4.1,6.9,8.6c3.1,25.4,3.7,50.8-0.6,76.1C1303.2,1564.5,1301,1569.4,1294,1569.8z"/>
	<path class="st1" d="M728,2217.8c23.3-45.9,39.4-94.3,52-144.1c0.4-1.6,1.1-3.2,1.3-4.8c0.9-10.1,4.7-10,14-8.7
		c5.3,0.8,10.5,1.8,15.8,1.5c8-0.5,12.7-5.3,12.9-12.5c0.2-7.2-4.2-12.4-12.1-13.3c-19.2-2.2-38-6.4-55.6-14.4
		c-30.2-13.7-52-35-60.8-68.1c-6-22.6-4-44.7,1.3-66.9c6.1-25.9,18.2-49.3,32-71.7c15.1-24.7,32.5-47.8,53.3-68
		c10.5-10.2,22.1-19,34.5-26.8c4-2.5,7-2.4,10.9,0.1c27.1,17.4,54.3,34.7,81.1,52.7c4,2.7,5.7,4.9,3.7,9.6c-1.2,2.7-1.2,5.9-2.2,8.6
		c-4.2,11.1-1.2,20.8,4.8,30.2c17.7,27.6,40.6,49.8,68.9,66.5c20.1,11.9,41.4,21.2,63.2,29.3c12.3,4.6,18.2,2.6,25.9-7.5
		c6.2-8.1,6.9-8.3,14.9-0.9c14.6,13.6,29.8,26.4,44.4,40c24.1,22.4,49.2,43.9,71.3,68.2c16.1,17.7,34.5,33.2,48.5,52.9
		c2.9,4,0.9,7.6-0.8,11.3c-19.2,40.7-34.9,82.8-49.1,125.5c-1.4,4.1-2.5,8.3-6.1,11.2C1040,2217.8,884,2217.8,728,2217.8z"/>
	<path class="st2" d="M1330.1,367.8c-6.8,1.5-11.5-0.9-16.4-6.2c-34.9-37.6-78.2-61.6-126.6-77c-31.2-9.9-63.4-15.4-95.9-18.8
		c-33.2-3.4-66.4-5-99.8-3.8c-36.7,1.4-73,5.9-109.1,12.5c-33.7,6.2-67.1,14-100.8,20.2c-77.7,14.2-146.3-6.4-208.6-52.6
		c-12.6-9.4-23.5-20.7-32.9-33.4c-0.8-1.1-1.6-2.2-2.4-3.2c-3.5-4-7.8-6.3-13.3-5.2c-5.8,1.3-9.2,5.2-10.6,10.8
		c-1.1,4.5-1.9,9.1-2.6,13.8c-4.9,35.9-2.8,71.1,10.4,105.2c8.5,22.1,22.2,40.8,38.2,58.1c2.2,2.3,5.3,4,6.1,8.2
		c-11.1,0.9-21.9,1.7-32.6,2.8c-51.4,5.2-99.6,20.4-144.6,45.9c-63,35.7-109.6,87.2-144.5,149.9c-20.3,36.5-36.4,74.8-46.7,115.4
		c-8.9,35.2-10.7,71.1-8.4,107.2c7.6,120.6,50.1,227.4,128,319.8c27.5,32.6,55.9,64.5,83.4,97c30.1,35.5,55.7,74,72.6,117.7
		c3.9,10.2,7.5,20.7,10.6,31.2c8.5,29.1,2.6,56.8-9.8,83.4c-14.5,31.2-35.5,57.8-59.8,81.9c-4.7,4.7-9.7,9.2-14.6,13.7
		c-7.3,6.8-9.3,12.1-6.5,18.2c3.6,7.7,10.4,8.7,17.7,8.3c23.7-1.3,47-5.2,69.7-12.1c72.2-22.1,126.9-66,164.7-131.2
		c15.2-26.3,22.2-54.7,23.6-84.8c1.8-38.8-3.5-77.1-7.7-115.5c-4.2-38.1-8.2-76.2-5.6-114.6c2.8-39.6,11.6-77.6,30-113.1
		c4.5-8.7,2.2-8.3,12.5-4.9c6.3,2.1,12.7,4,19,6c7.2,2.2,7.3,2.2,6.3,9.6c-3.4,26.8-4.5,53.8-4.9,80.8
		c-1.3,87.1,20.5,168.7,58.1,246.6c9.4,19.5,19.7,38.6,31,57c1.2,1.9,3.1,3.6,2.4,6.6c-9,2.7-18.3,5.2-27.4,8.3
		c-12.1,4-23.5,9.4-33.6,17.3c-23.3,18.1-29,44.1-15.5,70.3c6.2,12,15.2,21.8,25.4,30.6c10.4,8.9,21.9,16.3,33.7,23.2
		c2.8,1.6,6.1,2.6,8.5,6c-11.9,8.8-23.7,17.5-35.3,26.3c-69,52.1-135.3,107.4-193,172c-26.1,29.3-51.5,59.5-70.9,94
		c-19.2,34.2-32.4,70.8-43.4,108.3c-16.3,55.4-26.9,112-32.4,169.6c-2.3,24.2-4,48.4-6,72.7c-8,0-16,0-24,0c2-7.8,1.4-15.8,2.1-23.7
		c0.9-10.2,1.8-20.5,2.2-30.7c0.6-14.8,2.8-29.6,4.9-44.3c3.2-21.9,6.5-43.8,10.5-65.5c2.7-14.3,5.8-28.5,9.3-42.6
		c2.4-9.9,5.1-19.8,7.7-29.6c2.4-9.1,5.8-18.2,8.8-27.2c9.1-26.8,18.4-53.4,30.8-78.8c11.4-23.2,24.9-45.1,42.1-64.9
		c9.9-11.3,20.1-22.6,28.2-35.5c5.5-8.8,13.4-15.6,20.3-23c16.8-18.1,34-35.8,52.2-52.3c13.9-12.6,27.3-25.9,41.8-37.9
		c13.6-11.3,26.8-23.2,40.6-34.3c16.1-12.9,32.4-25.7,48.5-38.6c2.3-1.8,4.4-4,6.8-5.7c9.3-7.1,9.3-7.1,0.1-14.5
		c-12.2-9.8-23.5-20.6-32.9-33c-11.5-15-18.9-32.2-17.4-51.7c1.2-15.5,7.2-29.5,17.9-41c11.8-12.7,24.3-24.6,40.7-31.3
		c4.9-2,10.1-3.5,14.7-7.1c-5.9-11.7-11.6-23.5-17.7-35.2c-12.2-23.6-21.8-48.4-31.1-73.3c-11-29.5-19.6-59.6-25-90.5
		c-2.9-16.6-4.2-33.4-5.9-50.2c-2.6-24.3-0.7-48.5-1.4-72.8c-0.3-9,2.8-17.8,1.2-26.8c-0.7-0.5-0.8-1-0.3-1.6
		c-1.4-0.4-1,1.3-1.9,1.6c-6.2,20.2-11,40.6-12.9,61.8c-1.5,16.5-3.6,33-2.8,49.6c0.5,9.9,1.5,19.8,2.7,29.6
		c1,8.9,0.3,17.9,1.5,26.8c3.4,24.9,5.4,50,8.1,74.9c2.8,25.9,2,51.9,1,77.7c-0.8,20.1-6.9,39.7-15.4,58.2
		c-9.9,21.6-22,41.8-37.2,59.9c-13.9,16.4-29.1,31.6-45.4,45.9c-18.6,16.4-38.8,30.1-61.1,40.5c-21,9.8-42.5,18.1-65.2,23.7
		c-18.5,4.6-37.1,6.1-55.7,8.6c-10.7,1.4-20.1-3.4-27.7-10.7c-4.3-4.1-8.9-7.8-11.6-13.5c-6.4-13.6-5.1-23.8,5.9-34.1
		c7.2-6.8,14.7-13.5,21.6-20.5c15-15.3,28.9-31.8,39.7-50.5c5.3-9.2,11.2-18.1,15.3-28c13-31.1,11.5-61.8-1.1-92.7
		c-15.9-39.1-37.7-74.5-64.1-107.4c-14-17.5-28.9-34.1-43.4-51.2c-14.7-17.3-29.7-34.4-44.4-51.7c-24.8-29.1-47.1-59.8-65.9-93.1
		c-12.1-21.4-22.6-43.7-31.2-66.8c-8.9-23.8-17.6-47.6-23.5-72.5c-5.6-23.5-10-47.1-13.2-71c-3.4-25.1-4-50.3-3-75.5
		c1-24.1,3.3-48.2,10.6-71.4c4.6-14.5,9.7-28.9,14.9-43.3c13.5-37.7,31.6-73.1,53.8-106.4c8.8-13.1,18.9-25.4,29.1-37.5
		c12.7-15,27-28.5,41.1-42.1c9.2-8.8,19.4-16.8,29.6-24.7c16.4-12.7,34.2-22.9,52.5-32.3c14.8-7.6,30.5-13.1,45.8-19.3
		c23.2-9.4,47.3-14.4,71.7-19c2.2-0.4,4.5-0.4,6.8-0.6c0.8-3.4-1.7-5.2-3.2-7.2c-8.5-12.1-14.5-25.4-19.3-39.2
		c-4.1-11.9-8.8-23.4-10.1-36.2c-2-19.8-3.6-39.6-1.2-59.5c0.7-5.9,0.9-11.9,1.7-17.8c2-16,11.7-27.3,23.7-36.5
		c9.3-7.1,25.4-4.5,33.8,4.2c7.4,7.6,14.5,15.3,21,23.7c8.1,10.6,20,17.2,30.8,24.7c20.6,14.4,43.3,25.1,67.2,32.2
		c21.8,6.4,44.3,11.1,67.3,10.7c15.2-0.3,30.3-2.3,45.4-4.8c33.9-5.6,67.1-14.6,101-20.3c24.1-4.1,48.4-7.2,72.8-9.9
		c30.2-3.3,60.4-2.5,90.6-2.9c11-0.2,21.7,2.1,32.6,2.9c10.9,0.8,21.8,1.9,32.7,3.1c21.4,2.3,42.5,6,63.4,11.4
		c28.7,7.4,55.7,19.1,82,32.4c22.3,11.3,42.3,26,60.1,43.5c8.1,8,15.9,16.2,24.2,23.8c3.2,3,4.3,7.2,8.1,9.8
		C1339.9,367.5,1334.5,364.3,1330.1,367.8z"/>
	<path class="st2" d="M1608,2217.8c2.9-5.3,3.2-11.4,4.7-17.1c9.4-34.5,13.4-69.9,15.5-105.5c1.1-17.7-1.3-35.3-3-52.8
		c-1.2-12.3-2.2-24.6-2.5-36.9c-0.6-20.8-5.8-40.8-9.4-61.2c-7.4-41.6-18.2-82.4-29.5-123c-1.5-5.5-0.5-8.5,3.6-11.9
		c26.8-22,48.4-48.6,65.5-78.7c11.1-19.5,17.6-40.9,20.9-63.2c3.6-24.2,3.7-48.4,0.6-72.7c-0.3-2.1-1.2-4.4,0.7-7
		c2.7,1.8,3.6,4.7,5.1,7.1c24.5,41,43.2,84.8,62,128.6c8.4,19.6,17.1,39,25.8,58.5c3.5,7.9,7.5,15.6,12.7,22.6
		c8.3,11.1,18.2,13.3,30.7,7c8.1-4.1,15.1-9.8,21.7-15.9c15.8-14.4,29.6-30.7,42.5-47.7c32.7-42.8,59.6-89,82.6-137.7
		c27.3-57.7,48.6-117.5,64.4-179.3c16.6-65.4,26.7-131.9,30.3-199.3c3.8-70.8,0.2-141.2-12.6-211c-15-81.9-41.7-159.6-80.6-233.3
		c-24-45.6-52.6-88-85.5-127.6c-1.3-1.5-2.4-3.1-3.7-4.7c1.5-3.2,4.4-2.9,6.9-3.5c15.9-3.9,31.4-8.7,46.2-15.9
		c9-4.4,17.6-9.5,24.5-16.9c12.9-13.7,14.1-30.1,3.2-45.5c-6.2-8.8-14.1-16-22.4-22.7c-25.2-20.5-53.1-36.8-81.8-51.7
		c-67.9-35.4-139-62.7-213.7-79.8c-64.7-14.9-130.3-19.5-196.5-17.3c-15.6,0.5-31.3,1.4-46.9,2.9c-5.8,0.6-7.5-1.1-8.4-6.4
		c-0.8-4.5-2.2-9.1-5.5-12.6c-0.1-2.1,0-3.7,2.9-3.9c17.2-1.3,34.4-2.5,51.6-3.2c15-0.7,29.9-1.5,44.9-1.1
		c21.2,0.6,42.6,0.9,63.7,2.9c35.9,3.4,71.5,8.5,106.6,17.1c25.7,6.3,50.6,15.3,75.7,23.4c40.9,13.2,80,30.5,118.5,49.2
		c26.3,12.8,52.1,26.6,76.1,43.6c12.5,8.8,24.5,18,35,29.1c5.3,5.6,11.1,10.6,16.3,16.2c19.8,21.1,19.7,49.4-0.7,71.2
		c-14.8,15.8-32,26.7-52.1,33.6c-1.9,0.6-3.6,1.8-5.8,2.9c5.5,10,13.1,18.2,19.5,27.3c14.7,20.6,28.3,41.8,40.5,63.9
		c19.3,35,36.4,70.9,51.2,108.1c5.9,14.7,12.1,29.4,16.5,44.6c9.1,31.6,18.8,63.1,24.9,95.6c3.8,20.1,7,40.4,9.7,60.6
		c1.8,14,2.3,28.4,3.7,42.6c3.1,31.9,3.2,63.7,2.5,95.6c-0.5,26.5-2.6,52.9-5.3,79.3c-2.2,21.7-4.7,43.4-8.3,64.9
		c-3,18.5-6.6,37-11,55.3c-3.1,13.1-6.4,26.3-9.4,39.4c-6,26.2-16,51.1-24.5,76.5c-13,39.2-29,77.1-47.2,114
		c-18.8,38.2-40.6,74.8-65.6,109.5c-17.9,24.8-38.4,47.2-60.1,68.6c-9.3,9.2-19.5,17-31.3,22.6c-10.9,5.2-31.3,2.9-42.4-7.5
		c-17.3-16.3-25.3-37.2-34.7-57.6c-13-28.4-24.9-57.2-37.3-85.8c-0.8-1.8-1.8-3.5-3.7-6.9c-2.8,14.8-8.4,26.8-12.6,39.4
		c-8.1,24-22.7,44.3-38.2,63.7c-10.2,12.8-20.5,26-34.1,35.7c-3.7,2.6-2.5,5.5-1.7,8.8c4,15.7,7.6,31.4,11.9,47
		c9.1,33.2,12.8,67.4,20,100.9c2.5,11.6,3.7,23.5,3.5,35.5c-0.4,16.9,3.1,33.6,4.2,50.4c1,15.8,3.1,31.5,0.7,47.6
		c-2.9,18.9-3.2,38.2-6.5,57.1c-2.8,15.9-6,31.8-9,47.7c-0.4,2.3-0.6,4.6-0.8,6.9C1625.3,2217.8,1616.6,2217.8,1608,2217.8z"/>
	<path class="st3" d="M1442,2071.8c0-12,1.9-23.7,3.5-35.5c0.4-3,0.5-6,0.5-8.9c0.1-12.3-0.3-24.7,0.1-37c0.4-15-1.8-29.8-4.6-44.4
		c-1.1-5.5-1-11.2-3.1-16.6c-1.2-3.2-0.2-6.4,2.2-9.2c10.8-12.6,20-26.4,29.7-39.9c4.2-5.9,8-12.2,11.7-18.5
		c2.2-3.7,5.3-5.9,9.1-7.4c18.6-7,37.8-12.8,55.3-22.6c4.6-2.6,6.6-1.7,8.6,4.3c3.9,11.3,8.4,22.5,10.6,34.1
		c4.6,24.7,11.7,49,15.8,73.7c2.7,16.3,5.9,32.5,7.3,49.1c1.1,13.7,2.4,27.6,5.1,41.3c0.2,1,0.2,2,0.2,3c0.2,18.9,0.8,37.8,1.7,56.7
		c1.1,22.8-0.7,45.7-5.4,68.2c-1,4.7,0.6,9.1,0.2,13.8c-1,11.4-4.9,22-7.2,33c-0.6,3-1.2,5.8-1.2,8.8c-60,0-120,0-180,0
		c-3.5-4.8-0.5-9,1.5-13c13.4-28,23.4-57.2,30.9-87.3C1438.1,2102.5,1439.8,2087.1,1442,2071.8z"/>
	<path class="st2" d="M1292,2217.8c7.3-25.6,14.3-51.2,23.6-76.2c2.3-6.2,5.4-10.8,11.1-14.5c20.5-13.4,32.3-33,37.8-56.6
		c2.8-12.1,4.2-24.3,4.5-36.6c0.1-3.4,0.5-6.5,2.3-9.5c13.1-22,27.2-43.5,42.5-64c0.3-0.5,1.1-0.6,1.7-1c1.9,3.2,2.4,6.7,2.7,10.3
		c1.1,20.5,2.2,40.9,0.3,61.6c-2.4,25.8-4.7,51.5-10.3,76.8c-3.8,17.3-9.7,33.8-19.6,48.8c-12.8,19.5-26.5,38.3-42.3,55.5
		c-1.6,1.7-2.8,3.7-4.3,5.5C1325.3,2217.8,1308.6,2217.8,1292,2217.8z"/>
	<path class="st4" d="M1196,2217.8c10-31.8,21-63.3,33.9-94.1c6.6-15.9,13.1-31.8,20.8-47.2c1.1-2.2,1.4-4.4,1.4-6.7
		c13.1,13.5,25.1,28,37.1,42.5c4.3,5.2,5.8,10.5,2.9,17.3c-7.1,16.4-11.9,33.7-17,50.7c-3.7,12.3-7.9,24.5-9,37.5
		C1242.6,2217.8,1219.3,2217.8,1196,2217.8z"/>
	<path class="st4" d="M638,2217.8c-1.9-18.4-4-36.7-5.8-55.1c-0.8-8.5-1.3-17.2-1.7-25.7c-0.8-16.2-3-32.3-2.7-48.6
		c0.4-18.8-3.3-37.7-1.7-56.6c1.6-18.3,2.5-36.8,9.9-54.1c-0.7,10.6-2.7,21-2.1,31.7c0.9,15.2,2.4,30.3,4.8,45.3
		c3.9,24.5,10.2,48.5,15.7,72.6c2.8,12.2,6.9,24.2,10.6,36.2c5.6,18.1,11.3,36.1,17,54.1C667.3,2217.8,652.6,2217.8,638,2217.8z"/>
	<path class="st5" d="M1442,2071.8c0,23-5.4,45-11.2,67.2c-4.4,17-10.8,33.3-16.8,49.7c-2.5,6.8-6.1,13.2-9.2,19.7
		c-1.4,3-3.1,5.9-2.7,9.4c-8,0-16,0-24,0c1.9-7,8-11.1,11.9-16.8c12.2-17.6,26.8-33.7,33.9-54.6c5.3-15.7,9.8-31.5,12.4-47.9
		C1437.5,2089.6,1440,2080.7,1442,2071.8z"/>
	<path class="st6" d="M955.9,895.9c15,23,31.7,44.5,52.6,62.5c16.2,13.9,34.3,24.1,55,29.4c4.2,1.1,7.1,2.3,7,7.7
		c-0.7,30,2,59.9,5.5,89.7c0.2,1.6,0,3.3,0,4.6c-1.9,1.7-3.5,0.7-4.8,0.1c-66.5-31.3-124.9-72.9-167-134.3
		c-29.7-43.3-45.5-91.4-48.9-143.9c-2.7-41.1,2.2-81,14.5-120.2c0.2-0.6,0.4-1.3,0.6-1.9c2.4-9-0.4-15.8-7.5-18
		c-7.3-2.3-13.6,1.1-16.8,10.1c-6.5,18.2-10.8,37.1-13.4,56.2c-5.4,39.9-5.6,79.7,2.8,119.2c2,9.3,1.8,9.5-7.4,12.6
		c-46.5,15.9-87.5,40.5-122.1,75.6c-4.4,4.5-8.9,9.1-12.6,14.2c-3.9,5.3-7.7,6.6-14.3,4.6c-25.3-7.6-49.7-17.1-73.1-29.3
		c-2.8-1.5-5.4-3.7-9-4c-0.7,3.2,1.7,5,3,7.1c15.4,23.1,35.6,41.2,58.9,56.1c7.1,4.5,7.1,4.6,3.3,12c-20.5,40.5-30.5,83.5-33,128.7
		c-2.4,43.2,2.9,85.8,7.6,128.5c2.7,24.5,5.2,49,6.4,73.6c2.4,48-11.7,90.5-41.7,128.1c-40.1,50.3-91.8,81.3-154.7,93.8
		c-1.2,0.2-2.5,0.3-5.4,0.6c6.8-8.2,12.7-15.3,18.6-22.4c16.8-20.5,30.9-42.6,41.3-67c17-40,14.8-79.5-1-119.5
		c-18.1-46.1-43.5-87.6-74.7-125.8c-20.2-24.8-41.9-48.4-62.8-72.6c-28.8-33.3-56.7-67.2-79.1-105.4c-28.9-49.3-48-102.4-59.7-158.2
		c-5.8-27.8-9.1-55.9-9.8-84.2c-1-40.3,3.7-79.7,17.5-117.9c19.8-54.7,46.2-105.5,85.1-149.3c49-55.1,109.7-90.1,181.8-105.5
		c34.8-7.4,69.8-10,105.3-6.4c7.8,0.8,13.5-2.3,15.6-8.1c2.2-6,0.4-11.8-6-16.5c-14.9-10.8-28.7-22.7-41-36.5
		c-22.2-25.1-34.3-54.3-36.9-87.7c-0.8-9.9-2-19.7-0.1-30.9c67.3,58.5,143.5,88,233,78c0,4.3-2.3,5-5,4.9c-6.9-0.3-13,2-19.1,4.9
		c-8.9,4.1-15.5,10.4-18.8,19.7c-1.4,3.9-2.9,5.5-7.7,5.2c-6.2-0.3-12.6,0.8-18.7,2.4c-25.5,6.5-37.5,29.4-34.9,53.3
		c0.9,7.9,1.1,7.9-5.6,10.4c-16,5.9-29.1,24.3-29.2,41.8c0,3.2,0.5,5.5-3.6,6.7c-19.3,5.3-28.3,28.9-16.2,47c0.5,0.8,0.9,1.8,1.5,3
		c-2.7,3.1-7,3.3-10.4,5.1c-8.5,4.6-15.2,10.5-18.2,20.2c-2,6.6-0.6,12.8,1.8,18.5c2.2,5.4,0.5,7.5-4,10.1
		c-57.1,32.1-97.1,79.3-122,139.5c-8.7,21-14.6,42.9-18.1,65.3c-0.5,3.3-0.8,6.7-0.7,10c0.5,10.5,9.5,15.9,19.1,11.5
		c3-1.4,5.7-3.4,8.5-5.2c35-22,70.5-43.2,109.1-58.3c4.6-1.8,9.3-3.5,13.8-5.2c2.7,2.3,1.2,4.6,0.6,6.7c-7.8,27.1-10,54.9-11.2,82.9
		c-0.1,3-0.2,6,0.9,8.9c3,7.8,11.7,11,18.8,6.7c2.8-1.7,5.3-4.1,7.6-6.5c27.9-29,58.7-54.3,94.3-73.3c2.3-1.2,4.6-2.7,6.6-4.5
		c4.3-3.9,5.5-9.7,3.2-14.5c-2.5-5.2-8.4-8.2-14.3-6.5c-3.8,1.1-7.4,3-10.9,4.9c-25.1,14-48.6,30.3-69.9,49.7
		c-2.1,1.9-3.7,4.7-7.8,4.8c-0.9-12.3,2.2-23.8,4.6-35.3c2.5-11.7,6.5-23.1,10.8-34.3c1-2.5,2-5,2.3-7.6
		c1.4-10.5-5.9-17.6-16.3-15.2c-7.4,1.7-14.7,4.3-21.9,6.8c-38,12.9-73.4,31.4-107.8,52c-2.3,1.4-4.6,2.7-6.9,4
		c-0.6,0.3-1.3,0.3-2,0.4c-2.2-3,0.1-5.7,0.9-8.3c23.8-81.9,74.1-140.5,153.5-172.9c34.2-14,70.1-20.9,106.9-23.8
		c27.3-2.2,54.6-1.2,81.8,0.8c3.7,0.3,6,1.7,8.6,4.1c16.9,15.6,42.1,8.7,49.5-13.4c1-2.9,0-7.6,4.3-8.1c4.7-0.5,4,4.5,5.4,7.2
		c7.5,14.3,28.7,18.4,42.6,8.1c2.3-1.8,4.5-3.8,7-6c6.9,7.8,14.5,14,24.7,16.2c17.6,3.8,33-1,46.4-12.1c4.8-4,7.9-6.2,15.3-3.7
		c11.7,4,23-0.3,31.6-9.7c3.2-3.4,5.5-7.4,7.7-12.8c4.3,7.1,7.5,14.1,14.5,18c7.1,3.9,14.6,4.9,22.2,3.7c7.7-1.2,14.4-5,20.2-11.9
		c6,10.8,12.5,20.3,25,22.2c0.8,3.5-1.9,4.5-3.1,6.2c-13.3,18.5-4.8,39.5,17.8,43.9c2.5,0.5,5.7-0.9,7.5,1.4
		c1.9,2.5,1.1,5.8,0.9,8.7c-1.1,17.3,5.4,31.2,18.3,42.3c11.6,10,25.2,11.1,39.5,8.6c7.6-1.3,14.7-4.1,21.5-7.8
		c2.5-1.3,4.8-2.4,7.1,0.3c6.8,8,15.7,10.8,25.9,10.1c0,3.9-2.9,4.8-4.8,6.4c-23.6,20.1-49.2,37.7-73.2,57.3
		c-22,18-42.4,37.5-60.6,59.3c-32.5,38.9-52.1,83.4-59.5,133.3c-1.2,8.2-3.3,8.2-10.4,7c-40-6.6-75.3-23.9-107.9-47.3
		c-0.7-0.6-1.4-1.2-2.2-1.7l0,0c-2.6-1.3-2.6,0.1-2.2,2.1c0.2,0.5,0.5,1,0.8,1.5C954.6,894.6,955.2,895.2,955.9,895.9z"/>
	<path class="st7" d="M1542.2,859.9c-0.8,5.2-3.6,10.1-1.1,15.6c0.9,2,0,3.8-2,5c-2.3,1.3-4.6,2.7-6.8,4.1
		c-10.9,6.6-16.7,15.7-15.3,29c1.3,12.8,8.4,21.3,19.1,27.5c1.4,0.8,3.1,1.4,4.7,1.8c3.4,0.9,4.3,2.3,4,6.3
		c-1.2,14.3-0.1,28.5,5.3,42.2c5.8,14.8,15.1,26.5,28.8,34.7c3.2,1.9,8.3,2.6,7.2,8.2c-1.2,6.2,0.9,13.5-7.2,17.2
		c-6.5,3-10.9,8.7-14,15.1c-5.9,11.9-4.1,24,5.9,32.6c4.3,3.7,5,6.8,3.7,11.9c-4.3,16.7-8.8,33.4-14.1,49.9
		c-5.2,16.1-10,32.3-16.5,48c-3.7,8.9-7.9,17.6-11.7,26.5c-1.8,4.3-4.2,5.4-9.1,5.4c-47.6,0.5-90.5,14.3-127,45.6
		c-23.4,20-38.7,45.5-48.3,74.6c-9.2,27.7-14.9,56-16,85.2c-0.3,7.5-0.4,7.5-8.1,5.9c-56.3-12.3-113.1-22.3-170.3-29.6
		c-50.6-6.4-101.4-10.9-152.4-12.8c-26.3-1-52.6-1.7-79-1.1c-24.7,0.6-49.3,1.6-73.8,5c-6.2,0.9-9.6-1-12.8-6.2
		c-38.9-62.5-67.5-129.2-82-201.6c-7.7-38.4-9.3-77.4-7.8-116.4c0.7-19,1.6-38,4.1-56.8c0.3-1.9-0.1-4.1,1.6-5.6
		c0.7-0.1,1.4-0.4,1.9-0.2c6.1,1.5,14.2-0.5,18.2,3.8c4,4.3,1.1,12.1,1,18.3c-0.3,36.1,2.6,71.9,11.8,106.9
		c5.5,20.7,13.3,40.5,26,58c23.8,32.9,65,45.9,101.9,32.4c15.9-5.8,28-16.6,37.7-30.1c14.7-20.4,22.5-43.7,28-67.9
		c4.6-20.2,7.8-40.6,8.9-61.2c0.2-4,0.8-7.9,1.2-12c4.1-0.6,6.4,2.3,9,4c25.3,16.2,51.8,30.2,79.5,41.7c3.7,1.5,7.4,3.1,11.2,4.1
		c11.6,3.2,20.2-3.8,18.7-15.8c-1.6-13.2-4-26.4-5.7-39.6c-3-23.2-3.8-46.5-3.8-69.8c0-4.9,1.2-7.3,6.7-7.2c5.6,0.2,11.4-0.2,16.9-1
		c5-0.7,6.4,1.3,6.7,5.8c1,16,3.5,31.8,6.6,47.5c8.1,42,19.4,83,40.5,120.7c10.5,18.7,23.1,35.8,39.8,49.7
		c28.1,23.4,60.3,31.3,96.2,26c55.5-8.3,89.7-42,109.6-92.4c13.5-34.1,18.8-69.9,20.5-106.4c3-60.9-3.2-121.1-14.8-180.8
		c-1.4-7.2-1.5-7.4-8.7-5.7c-57.5,12.9-114.2,29-170,47.9c-32.2,10.9-64.4,21.6-97.6,29c-13.3,3-26.8,5.1-40.4,6.8
		c-7,0.9-7.4,0.1-6.3-7c8.1-50.2,30.5-93.3,64.8-130.5c18.8-20.4,40-38.2,61.8-55.2c24.5-19,49.7-37.1,72.6-58.1
		c2.9-2.7,5.2-3.2,8.5-0.5c5.7,4.7,12.5,7.6,19.6,9.6c2.8,0.8,5.2,1.3,5.1,4.9c-0.6,14.2,8.8,21.8,19.4,27.8c5,2.8,6.6,5.4,7.2,11
		c1.8,15.9,20.6,32.1,39.1,25.6c3.7-1.3,6.3-0.9,8.7,2.1c1.2,1.5,2.7,3.1,4.4,4c4.5,2.3,4.8,5.5,3.6,9.9
		c-4.7,18.6-0.6,35.4,9.8,51.2c8.9,13.5,23.4,23.7,47.7,18c2.3-0.5,4.7-0.8,6.7-1.8c5.1-2.6,7.9-1.3,11.2,3.5
		c11.3,16.2,33.6,15.2,46.9,4.1C1541.9,857.3,1542.7,857.9,1542.2,859.9z"/>
	<path class="st6" d="M1319.5,1868c6.8-5.2,12.1-9.1,17.2-13.2c26.9-21.7,48.8-47.3,60.4-80.4c8.5-24.2,10.5-49.4,9.5-74.8
		c-1.6-42.4-13.8-82.5-26.2-122.6c-8.1-26.1-15.6-52.3-19.6-79.4c-7.4-50-1.8-98.4,18.4-144.7c17.5-40.1,49.5-64.2,90.5-77.4
		c14.7-4.7,29.7-7.2,45.1-8.2c8.8-0.6,13.5,3.1,15.1,12.1c1.4,7.8,2.7,15.7,3.8,23.6c4,29.3,15.3,55.6,31.7,80
		c26.9,40,48.1,82.9,63.4,128.6c13,39,21.7,78.8,21.7,120.3c0,47.4-15.9,88.7-45,125.3c-26.1,32.8-60,55.5-97.9,72.2
		c-42.1,18.6-86.3,29-131.8,34.6c-12.9,1.6-25.8,2.7-38.7,3.8C1331.9,1868.4,1326.7,1868,1319.5,1868z"/>
	<path class="st4" d="M1926,1089.8c4.9-6.3,10.2-12.2,13.8-19.4c12.1-24.1,10.4-47.3-4-69.8c-1.1-1.7-2.1-3.4-3.3-5
		c-1.1-1.6-2.9-2.7-3.1-5.4c10.4-0.2,19.1-3.4,24.6-12.5c6.6-11,4.5-24.9-5-35.9c-4.7-5.4-10.5-9.1-17-11.9
		c-5.5-9.6-2.4-20-2.6-30.1c0-2.6,1.2-5.2,0.6-7.9c2.9-13.5,3.9-27-2-40c-2.4-19.2,0.4-38.5-2.2-57.7c-0.4-3-0.2-6,2.2-8.3
		c10.1,15.7,18.7,32.2,26.3,49.1c13.2,29.1,25,58.7,34.6,89.1c10.6,33.5,19.2,67.5,25.4,102.2c3.7,20.9,6.6,41.8,9.1,62.8
		c1.3,10.8,1.8,21.8,2.8,32.7c2.7,29.2,2.1,58.5,1.4,87.8c-0.4,16.5-1,33.1-3.4,49.5c-2.1,14.7-2.7,29.7-4.4,44.4
		c-1.7,14.8-3.6,29.6-6.3,44.2c-4.2,22.8-8.4,45.6-14.1,68c-6,23.4-12.8,46.7-20.1,69.8c-17.4,55.4-40.4,108.4-68.1,159.3
		c-17.1,31.4-36.3,61.7-58.6,90c-9.1,11.5-19.3,21.9-28.4,33.3c-4.7,5.9-11.2,10.4-17.2,15c-4.5,3.5-5.8,2.9-9.4-2.1
		c-7.6-10.3-11.3-22.6-16.6-34c-10.4-22.3-19.7-45-29.1-67.7c-9.3-22.5-20-44.3-31.1-65.9c-5.6-10.9-11.9-21.5-17.9-32.2
		c-1.3-2.3-2.8-4.6-2.9-7.4c5.6-1.1,9.4,2.7,13.5,5.2c15.6,9.4,32.3,15.4,50.1,19c11.6,2.4,19.8-1,26.9-10.1
		c24.5-31.4,44.6-65.3,59.8-102.2c32-77.5,50-158.5,61-241.2c5.6-42.5,10.1-85.1,12.3-128C1924,1107.7,1925,1098.7,1926,1089.8z"/>
	<path class="st1" d="M1928,785.8c2.8,18.8,1.9,37.7,1.9,56.6c0,3.2,1.1,6.7-1.9,9.4c-5.8-12-11.8-23.7-21.9-33
		c-13.3-12.3-28.8-20.5-46.2-24.4c-12-2.7-23.8,0.3-34.8,5.9c-6.7,3.4-6.6,3.5-9.3-3.7c-3.8-10-5.7-20.4-7.8-30.8
		c-2.4-11.8-8.1-16-19.7-13c-5.3,1.4-10.6,0.8-15.9,0.9c-14.9,0.2-21.8,5-27,18.8c-0.5,1.2-1.2,2.4-2.1,4.3c-3.6-2.4-6.9-4.9-10.5-7
		c-4.2-2.5-5.8-4.8-5.5-10.8c0.7-15.4-9.7-27.3-25.5-31.1c-1.6-0.4-3.3,0-4.8-1.3c-0.8-3.3,1.5-5.5,3.1-7.9
		c11.9-18.1,13-37.1,4.8-57c-3.7-9-10.2-15.9-17.9-21c-10.5-6.9-22.2-11.4-35.1-13.2c-14.4-2-28.3-2.8-42.3,1.9
		c-2.7,0.9-5.7,0.6-9,0.9c4.3-16.1,5.2-31.9,1.5-47.7c-5.8-24.2-20.2-41.2-43.3-51c-19.2-8.1-34.9-2.2-49,11.3
		c-4.5,4.4-9.4,8.6-11.8,14.7c-1.3,3.3-3.5,3.4-6.4,1.9c-5.3-2.6-10.4-5.7-16.7-6.3c-3.7-0.3-3.2-3.9-2.3-6.4
		c5.2-14,1.1-26.6-5.5-38.9c-3.7-7-9.4-11.9-16-16.1c-4.1-2.6-5.5-4.6-2.8-10.2c11.3-23.1-3.6-42-27.5-43.7
		c-6.2-0.4-12.4,2.3-17.2,7c-3.3,3.2-6.1,3.6-8.8-0.9c-0.8-1.4-2.2-2.5-3.5-3.5c-2.3-1.7-5.9-2.7-4.9-6.6c0.9-3.4,4.5-1.9,6.8-3.1
		c2.1-1.1,4.5-1.1,6.8-1.3c28.5-2.3,57.2-2,85.8-2c17.9,0,35.7,2.4,53.5,3.6c16.6,1.1,32.9,3.8,49.2,6.1c24,3.4,47.5,9.1,70.9,15.2
		c38,10.1,74.6,23.8,110.8,39.1c21.8,9.2,43.1,19.3,64.1,30.2c26.2,13.7,51.9,28.4,75.1,46.9c7.2,5.7,14.8,11.2,20,19.2
		c2.9,4.4,3.3,7.8-0.4,11.5c-3.7,3.8-7.5,7.4-12.4,9.9c-19.4,10.1-40.2,15.4-61.3,20c-4.4,1-8,0.1-11.2-4.1
		c-7.8-10-18.6-17-27.7-25.8c-6.1-5.9-14.4-5-19.8,0.6c-4.2,4.4-3.7,12.2,1.2,18.3c1.5,1.8,3.2,3.4,4.9,5
		c11.4,10.2,22.4,20.6,32.6,32.1c11.9,13.4,23.4,27.1,34.5,41.2c21.5,27.1,39.9,56.3,57.5,86.1
		C1927.8,783.7,1927.8,784.8,1928,785.8z"/>
	<path class="st1" d="M1926,1089.8c3.8,6.2,1.9,12.8,1.2,19.3c-0.2,1.6-1.2,3.3-1.1,4.8c1.1,13.4-2.3,26.4-2.4,39.7
		c-0.1,11.2-2.1,22.3-3.2,33.5c-0.7,7.2-1.6,14.5-2.3,21.7c-2,20.7-5.1,41.3-8,61.9c-4.4,30.1-10.8,59.9-17.2,89.6
		c-5.7,26.3-13.5,51.9-21.6,77.5c-6.6,20.8-15.2,41.1-23.8,61.3c-8,19-18.5,36.6-28.9,54.2c-8.6,14.5-19.2,27.8-29.9,40.9
		c-6.5,8-14.4,8.5-23.3,7.1c-24.1-3.8-45.5-14.1-65.6-27.5c-3.1-1.3-3.9-4.4-5.4-6.9c-9.6-15.2-19.1-30.3-28.7-45.5
		c-0.5-0.8-1-1.8-1.7-2.4c-9-6.7-9.8-17.7-14.3-26.8c-2.4-4.8-0.2-7.6,3.1-10.2c25.4-20.1,47.8-43.4,70.2-66.6
		c15.5-16,29.6-33.1,43.6-50.4c13.4-16.6,25.2-34.3,35.6-52.8c12.2-21.7,21-44.8,19.5-70.1c-1.5-24.2-9-46.9-22-67.5
		c-1.2-2-2.5-3.9-3.8-5.8c-1.3-1.8-2-3.4,0.4-5c5.8-4,10-9.5,14.3-15.1c3.3,2.2,6.2,4.6,9.4,6c17.8,7.8,32.4,1.9,41.1-17.6
		c2.7-6,5.4-12.3,4.9-19.2c-0.4-5,2.4-6.1,6.8-6.2c5.6,0,11.2,0.4,16.9-0.7c12.5-2.5,23.2-7.9,31.7-17.5
		C1922.6,1092.1,1924.4,1091.1,1926,1089.8z"/>
	<path class="st8" d="M935.3,1798.8c1.5-5.9,3.1-12.7,4.9-19.4c7.4-27.8,17.4-54.5,34.5-78c4.6-6.2,4.6-6.3,11-2.8
		c41.2,23,79.6,49.7,113,83.2c5.3,5.3,6,9.7,3.7,16.6c-10.8,31.8-26.4,61-45.6,88.4c-2,2.9-3.5,5-7.9,3.3
		c-31.6-12.7-62.2-27.2-87.1-51.4c-9.3-9.1-17.5-19.2-23.9-30.5C936.4,1805.5,934.6,1803,935.3,1798.8z"/>
	<path class="st4" d="M1686,1281.9c16.4,6.1,35.8-0.7,42.1-13c2.5-4.9,4-9.7,4-15.2c0.1-9.4,0.2-9.4,9-9.8
		c14.5-0.8,29.2-15.2,28.6-29.6c-0.6-14.6-12.2-30.5-28.5-30.4c-2.3,0-4.7-0.2-7,0c-4.2,0.4-5.8-1.9-7-5.5c-1.4-4.1-0.8-6.1,4-6.6
		c8.2-0.9,16.4-2.1,24.5-3.6c4.3-0.8,7.2,0.9,9.5,3.9c16.8,21.6,28.8,44.8,29.2,73.4c0.3,20.6-7,38.1-16.4,55.5
		c-10.9,20.3-24.9,38.3-39,56.4c-5.3,6.8-11.4,12.9-17,19.5c-18.1,21.4-38.9,40.1-58.2,60.3c-6.9,7.2-15.5,12.5-22.2,20
		c-2.9,3.2-5.1,2.3-6.6-1.4c-8-20.1-18.7-38.9-29-57.9c29.7-34.2,53.6-72.4,76.6-111.1C1683.6,1285,1684.4,1283.2,1686,1281.9z"/>
	<path class="st1" d="M1686,1281.9c0.4,8.1-5.4,13.4-9.1,19.4c-16.6,27-33.7,53.7-53.1,78.9c-3.4,4.4-6.9,8.9-10.4,13.2
		c-1.9,2.3-4,4.6-7.4,4.5c-9.3-14.6-19-28.9-27.7-43.7c-11.6-19.7-17.4-41.5-20.2-64.1c-1.1-8.5-1.8-17.2-4.8-25.3
		c-1.7-4.8-1.2-8.9,0.9-13.4c6.4-14.2,12.5-28.6,18.6-42.9c3.1-7.3,3-7.3,11.4-6.6c12.9,1.1,24.3-1.6,33.2-12.1
		c5-5.9,5.3-5.3,12.6-1.3c7.6,4.2,15.8,4.5,24.2,2.3c4.5-1.2,8.8-2.8,12.3-5.8c2.3,1.4,2.8,3.4,3.4,5.2
		c5.9,16.1,16.2,22.6,33.7,20.8c2.3-0.2,4-0.4,4.3,2.3c0.2,2.2-0.6,4-3.1,4.3c-1.6,0.2-3.3,0.1-5,0.2c-20.4,0.9-28.9,11.6-32.8,25.4
		c-3.4,12.2,0,27,16.5,37.3C1684.2,1281,1685.1,1281.4,1686,1281.9z"/>
	<path class="st9" d="M1118.3,1834.3c8.4,6.8,17.3,13.7,25.9,21c27.7,23.5,55.2,47.1,82.1,71.4c36.8,33.3,72.8,67.4,108.3,102.1
		c6.5,6.3,8.8,12.6,7.4,21.2c-2.7,16.9-6.3,33.4-18.8,46.3c-7.4,7.6-7.6,7.7-14.1-0.4c-39.2-48.5-82-93.6-127.1-136.7
		c-26.7-25.5-54.1-50.3-82.2-74.3c-6.8-5.7-6.8-5.9-2.2-13.7c5.9-10,11.1-20.5,16.2-31C1114.7,1838.2,1115.1,1835.8,1118.3,1834.3z"
		/>
	<path class="st6" d="M1270.4,359.4c-3,0-5.9,0-8.9,0c-19.2,0-33,16.5-27.3,35.9c1,3.4,4.8,7,2.8,10c-2,3-6.4,4.4-9.4,6.3
		c-2.9-1.2-3.5-3.7-4.8-5.5c-8.5-11.9-18.1-15.3-32-10.9c-2.5,0.8-5,1.7-7.4,2.9c-2.7,1.4-4.2,0.6-5.5-2
		c-5.2-11-13.4-18.1-26.2-18.5c-3.3-0.1-3.5-2-3.5-4.7c0-5-1-9.9-3.3-14.5c-6.7-13.8-19-19.4-33.8-15.4c-1.9,0.5-3.8,1.1-6.6,1.9
		c0.2-20.1-5-37.8-19.2-52.4c67.7,5.9,131.5,21.8,185.7,64.8C1270.9,358,1270.7,358.7,1270.4,359.4z"/>
	<path class="st2" d="M705.1,2200c-16-47.3-29.7-93.9-38.2-141.8c-3.5-19.7-6.5-39.5-5.4-59.6c0.6-12.2,2.5-24.3,7.4-36.9
		c1.1,2.6,1.9,4,2.4,5.6c12.8,39.1,40.1,64.3,77,80.3c9.5,4.1,9.7,4,7.2,14c-11.1,43.6-24.4,86.5-43.5,127.3
		C710.2,2192.4,709.1,2196.3,705.1,2200z"/>
	<path class="st10" d="M1872.3,969.5c10.7,3.5,19.2,10.4,27.4,17.7c7,6.2,13.2,13.2,19,20.5c13.5,17.1,15.2,38.3,3.7,56.7
		c-8.7,14.1-19.5,26.3-37.1,29.5c-18.2,3.3-34.9-1.3-49.8-11.9c-8.1-5.8-15-13.1-19.6-22.2c-1-4.6,2.7-6.4,5.4-8.6
		c23.9-19.3,39.9-43.3,45.6-73.9C1867.6,974.3,1866.7,969.5,1872.3,969.5z"/>
	<path class="st10" d="M1770.2,1078.3c-4.8,23.7-16.8,43.4-35.3,58.5c-23.3,19.1-58.7,10.7-71.5-17c-11.7-25.2-9.4-50.2,4.8-74.1
		c5-0.7,7.9,3,11.3,5.4c24.5,16.5,51,25.6,81,22.6C1764.2,1073.5,1769.7,1071.1,1770.2,1078.3z"/>
	<path class="st10" d="M1803.8,843.7c8.6-13.2,20.7-22.3,34.4-29.5c6-3.2,12.7-3.8,19.4-2c26.6,7.1,45.5,23,54.8,49.1
		c4.4,12.4,3.2,24.9-5.3,35.9c-9.8,12.5-21.8,22.2-36.2,28.9c-5.1,2-6.3-1.6-7.5-5.2c-10.2-30.2-28.5-53.7-56.7-69.2
		c-2.2-1.2-5.1-2.2-4.5-5.7l0.2-0.2C1802.8,845.1,1803.3,844.4,1803.8,843.7z"/>
	<path class="st11" d="M1806,953c-0.1,25.4-21.6,46.8-46.5,46.3c-25.5-0.5-45-21.4-45.7-47.2c-0.5-21.9,22.2-47.1,46.7-46.2
		C1786.5,906.8,1807.4,928.6,1806,953z"/>
	<path class="st7" d="M884.5,973.3c-39.2-3.9-76.3,1.8-113.5,1.6c-3,0-6,0.1-9,0.1c-2.9,0-4.5-1.2-3.8-4.2c2.6-13,5.3-26,8-39.1
		c0.7-3.3,3.3-4.8,5.8-6.4c20.5-13.2,42.4-23.5,65.5-31.3c2.8-1,6.2-3.2,7.9,2.1C854.5,923,867.3,948.1,884.5,973.3z"/>
	<path class="st10" d="M1635.9,1019.8c-14.8,2-29.1,0.3-42.7-6.2c-12.9-6.2-22-15.8-26.9-29.3c-2.4-6.6-4-13.4-4.7-20.3
		c-1.1-10.7,1.3-20.5,8.7-28.7c12.8-14.2,28.5-23.8,46.9-28.7c7.3-2,15.2-1,22.8-0.3c1.3,3.4,0.1,6.5-0.9,9.7
		c-10.1,31.2-9.2,61.8,4.8,91.7c1.6,3.3,2.8,6.8,0.2,10.3l0,0C1641.7,1019.8,1638.3,1017.7,1635.9,1019.8z"/>
	<path class="st10" d="M1660.1,871.8c-5.5-12.9-8.8-26.5-10-40.4c-1-11.7,1.6-23.3,7.1-33.7c8.7-16.5,27.3-23.8,48.1-19.5
		c12.9,2.6,23.4,9.3,32.6,18.3c10,9.9,18.3,21,22.2,34.9c1.7,6.3-2.9,6.4-6.8,6.8c-6.9,0.7-13.9,0.1-20.9,1.2
		c-24.5,3.6-45.4,14.3-63.8,30.6C1666.4,872.1,1664.2,876.8,1660.1,871.8z"/>
	<path class="st12" d="M1644.1,1018c0.3-4.2-1.9-7.7-3.7-11.2c-7.1-14.2-10-29.3-10.6-45.2c-0.7-19.3,2.2-37.7,10.1-55.3
		c10.3-1.3,19.3,0.7,27.1,8.4c7.2,7,16.7,10.7,26.5,13.1c4.5,1.1,5.8,2.9,4.5,7.6c-4.4,15.6-2.4,30.9,4.4,45.4
		c1.6,3.3,1.8,5.3-2,7.1c-14.1,6.6-27.2,15-39.8,24.1C1655.9,1015.6,1650.3,1017.9,1644.1,1018z"/>
	<path class="st9" d="M838.8,1644.7c0.9,0.5,2.3,1.3,3.7,2.1c31.3,17.7,61.6,37.1,92.1,56.1c4.8,3,5.4,5.6,2.7,10.3
		c-5.3,9.3-9.1,19.2-12.8,29.2c-2.8,7.7-2.9,7.7-10.1,3c-20.7-13.4-41.3-26.9-62-40.2c-12.3-7.9-24.8-15.6-37.4-23
		c-4.3-2.5-5.5-4.8-2.8-9.5c5.7-10,12.9-18.6,21.7-25.9C835.1,1645.9,836.3,1644.7,838.8,1644.7z"/>
	<path class="st12" d="M1770.2,1078.3c-2.3-3.5-6.2-3.2-9-2.2c-11,4-21.7,0.5-32.2-1.1c-23-3.6-43-14.3-60.8-29.2
		c9.5-18.5,23.8-32.4,41.7-42.7c3.6-2.1,6.8-3.2,10.8,0c12.8,10.1,27.5,13.7,43.8,12.9c10.9-0.5,8.8-1.9,10,8.7
		C1776.8,1042.7,1777.3,1060.9,1770.2,1078.3z"/>
	<path class="st13" d="M1603.9,650c23.8-9.9,47.1-8.3,69.8,3.5c18.7,9.7,24.3,36,12.7,53.6c-8.5,12.8-20,21.3-35,24.3
		c-9,1.7-18.2,4.2-27.3,0.3c-4.5-1.2-6.7-3.9-5.9-8.7c3.8-23.7-1-45.7-12.8-66.4C1604.2,654.7,1603.1,652.5,1603.9,650z"/>
	<path class="st13" d="M1614,749.6c17.1,15.2,21.3,34.3,16.8,55.9c-1,4.9-2.8,9.6-4.1,14.4c-4.1,15.4-14.8,25.1-28.5,31.5
		c-10.6,4.9-21.5,4.2-31.2-2.8c-9.5-6.8-17.7-15.1-25-24.3c-4.4-5.6-5.3-11.9-2.4-18.5c3.2-3.8,7.6-5.2,12.1-6.6
		c23.6-7.3,41.9-21.4,54.6-42.7C1608,753.4,1609.2,749.3,1614,749.6z"/>
	<path class="st12" d="M1660.1,871.8c1.2,0.3,2.5,1.4,3.6,0.2c19.1-21,43.6-31.5,71.1-35.8c5.8-0.9,11.9-0.3,17.9-0.3
		c3.4,0,6.8,0.2,7.5-4.4c9.3,17.5,6.8,35.3,1.5,53.1c-0.5,1.8-1.4,2.9-3.3,3.2c-2.3,0.4-4.5,1.1-6.8,1.4
		c-14.8,1.5-27.7,7.5-37.7,18.4c-4.4,4.8-8.9,5.2-14.3,3.7C1679,905.6,1665.3,893,1660.1,871.8z"/>
	<path class="st12" d="M762.3,395.5c23.8,18.5,38.8,42.2,43,72.3c0.4,2.8-0.1,4.7-2.8,5.3c-31.4,6.4-62.5,10.4-90.4-11.1
		c-0.8-0.6-1.2-1.5-1.9-2.3c5-12.3,8.4-25.2,16.8-35.9C736.6,411.6,747.5,401.1,762.3,395.5z"/>
	<path class="st4" d="M1316,1973.8c6-4.8,9.7-11.6,14.2-17.6c13.5-17.7,28.1-34.3,44.1-49.8c5.4-5.2,12.8-8.3,16.4-15.5
		c-1.4-1.5-3.1-1-4.7-1.1c4.7-4.1,10.9-2.4,16.2-3.2c11.2-1.7,22.1-3.9,33.1-6.6c0.9-0.2,1.9,0.2,3.4,0.4c-0.9,6.6-6.4,10-9.3,14.9
		c-1.3,2.2-3.4,1.6-5-0.1c-4.5-4.8-9.6-4-14.5-1.1c-5.3,3.1-6.1,8.3-5.7,13.9c0.1,1,0.1,2.1,0.6,2.9c5.5,9,1.8,16-4,23.2
		c-17,21.3-32.1,44-46.4,67.1c-2,3.2-3.8,5.9-7.6,2.3C1336.5,1993.6,1326.2,1983.7,1316,1973.8z"/>
	<path class="st10" d="M1275.7,441.5c1.8-28.4,28.9-55,57.5-56.4c22.6-1.1,29.1,3.6,33,26c3.3,19,1.3,37.6-8.4,54.8
		c-3.6,2.5-6.5,0.2-9.1-1.6c-19.1-13-40-19.3-63.2-17.8C1282,446.6,1276.4,448.2,1275.7,441.5z"/>
	<path class="st10" d="M1385.7,498.3c22.7-6.3,43.7-2.5,61,13.3c12.7,11.5,13.8,23.7,5.3,37.6c-11.8,19.1-27.8,31.9-50.4,35.5
		c-4.6,0.7-9.2,1.6-13.6-0.8c-5.4-1-7.7-3.2-5.7-9.3c7.6-22.4,6.8-44.9-0.6-67.3C1380.3,503,1380,499.3,1385.7,498.3z"/>
	<path class="st12" d="M1872.3,969.5c-3.9,3.5-3,8.7-3.9,13c-6.5,30.4-23.5,53.7-47.8,72.2c-1.9,1.4-3.6,3-4.6,5.2
		c-10-12.7-16.8-27-21.5-42.4c-1.8-5.9-0.8-10.2,4.8-14.5c12.7-9.5,20.6-22.4,23.5-38.2c1.6-9,1.9-8.9,10.9-7.2
		C1847,960,1860.4,962.2,1872.3,969.5z"/>
	<path class="st13" d="M1502.2,607.9c-0.5-2.1-0.6-4.1,0.1-6.2c0.9-1.3,0.8-3,1.3-4.4c1-14.7,6.7-27.8,15.8-39.1
		c8.9-11.2,21.8-14.8,33.9-9.5c29.5,12.8,42.2,51.6,28.7,77.3c-4.4,2.8-7.6-0.6-10.9-2.4c-18.7-9.9-38.4-14.6-59.5-12.2
		C1507.9,611.7,1504.2,612.2,1502.2,607.9z"/>
	<path class="st11" d="M1332,546.1c0.2,19.5-16.9,37-36.8,37.6c-19,0.6-37.4-17.2-37.8-36.6c-0.4-19.6,18-38.5,37.4-38.3
		C1314.3,509.1,1331.8,526.6,1332,546.1z"/>
	<path class="st11" d="M1537.7,664.5c17-1,35.2,15,35.8,36.7c0.6,19.2-18.3,37.2-37.4,36.7c-19.8-0.6-36.4-18-36.1-37.8
		C1500.5,678.5,1520,662.5,1537.7,664.5z"/>
	<path class="st14" d="M1444.3,767.9c5.4-12,16-19.5,25.9-26.9c5.2-3.9,13.1-4.3,19-8c2.4-1.5,3.7,0.2,4.9,1.7
		c9.8,11.7,22.1,18.8,37.6,20c3.7,0.3,5.2,2.5,5.1,6c0,1,0.1,2-0.1,3c-4.1,16.6-9.8,32.3-22.7,44.4c-27.4-2.7-50-14.6-67.7-35.6
		C1445.2,771,1444.4,769.6,1444.3,767.9z"/>
	<path class="st14" d="M1452.2,637.7c15.2,5.5,26.4,16.1,36.4,28.3c2.5,3.1,2.1,5.8,0.1,9c-4.3,7-5,15-6.6,22.8
		c-0.7,3.3,0.3,6.5,1,9.8c1.5,7.2,0.8,8-5.9,11.6c-6,3.2-12.7,4.7-19.2,4.6c-13.9-0.2-27.7-1.8-40.5-7.9c2.8-3.9,3.6-8.3,3.9-13.1
		c1.1-19.3,6.6-37.3,17.7-53.4C1442.5,644.6,1445.8,639.4,1452.2,637.7z"/>
	<path class="st12" d="M1802,846c4.8,2.9,9.5,5.9,14.3,8.8c24.7,15.5,40,38.1,49.3,65.2c1,3,1.3,5.9,5.2,6.1
		c-13.5,9.2-28.2,12.4-44.3,9.1c-3.4-0.7-5.3-2-6.4-5.1c-4.6-12.9-12.9-23-24.2-30.7c-2.7-1.8-3.3-4.2-4.3-7.2
		C1785.8,874.5,1791.3,859.7,1802,846z"/>
	<path class="st13" d="M1452.2,637.7c-5.8,7.2-12.1,13.8-16.4,22.2c-7.6,15-11.7,30.8-11.7,47.6c0,4.7-0.2,8.8-6.5,8.5
		c-20.6-6.6-33.3-21.2-40.5-40.8c-6.8-18.6,5.7-35,17.8-40.9c11.9-5.8,24.4-6,37-3.9C1438.9,631.6,1446.1,633.2,1452.2,637.7z"/>
	<path class="st10" d="M779.9,381.8c-2-18.9-2.7-37.7,6.8-55.2c3.2-5.9,6.7-11.4,13-14.6c7.3-3.8,9.9-3.5,16,1.9
		c5.3,4.7,9.2,10.5,12.1,16.9c8.1,18.2,10.2,37.4,10.1,57.1c-1.9,12-1.9,12-14,8.6c-9.6-2.7-19.4-4.3-29.4-3.8
		C786.6,393,780.9,390.7,779.9,381.8z"/>
	<path class="st10" d="M762.3,395.5c-3.3,5.9-10,7.4-15,11.2c-15.6,12-26.3,26.9-31.4,45.9c-0.9,3.2-1.4,6.7-5.7,7.2
		c-18.3-13.8-29.1-31.7-28.9-55.2c0.1-13.9,9-24.9,22.3-28.5c9.9-2.6,19.6-2.3,29.3,1.2C744,381.4,753.8,387.4,762.3,395.5z"/>
	<path class="st14" d="M966.5,321.2c12.9,12.5,17.5,28.3,18.7,45.6c0.2,2.8-0.6,5.2-4,5.8c-14.2,2.3-26.3,8.4-36,19.4
		c-3.6,4.1-13.3,2.2-18.7-3.6c-9.3-10-17.2-21-20.8-34.5C921.7,335,942.5,325.2,966.5,321.2z"/>
	<path class="st12" d="M1275.7,441.5c2.7,3.6,6.6,2.1,10.1,2.3c7.9,0.5,15.8-0.5,23.7,0.8c15,2.3,27.9,9.4,40.6,17.3
		c2.5,1.5,4.4,4.2,7.8,4c-4.8,12.9-12.6,24-21.4,34.4c-2.9,3.4-5.4,5.2-9.9,1.7c-11.9-9.4-25.9-11.5-40.5-9.6
		c-4.3,0.6-6.3-0.5-7.5-4.1C1273.6,472.9,1272,457.3,1275.7,441.5z"/>
	<path class="st11" d="M1018.8,424.2c0.1,18.8-15,34.2-33.3,34c-18.4-0.1-33.8-15.6-33.8-33.9c0-18.1,14.9-33,33.1-33
		C1004.2,391.2,1018.7,405.3,1018.8,424.2z"/>
	<path class="st10" d="M734.1,534.2c-24.7,8.6-47.6,4.1-68.6-10.6c-9.4-6.6-11.3-16-5.9-26.4c7.2-13.8,19.7-21.1,34.3-25
		c2.4-0.6,4.5,0.3,6.5,1.8c4.5,3.4,9,6.7,13.6,10c2.5,2.6,2.5,6,3.1,9.2c2.1,11.5,6.5,22,13.2,31.6
		C732.3,527.5,735.7,529.9,734.1,534.2z"/>
	<path class="st4" d="M1294,1569.8c4-2,6.4-5,6.9-9.7c1-8.1,3.3-16.1,3.1-24.4c-0.3-10.9-0.4-21.9,0-32.8c0.3-8-3-15.6-2.3-23.6
		c0.3-2.7-2.7-3.5-3.8-5.5c9,2,18,4.3,27.1,5.7c5.9,0.9,8.3,4.6,8.6,9.3c1.5,25.6,9,50,15.4,74.6c0.1,0.3-0.2,0.6-0.5,1.6
		C1330.6,1566.6,1312.3,1568.2,1294,1569.8z"/>
	<path class="st13" d="M1013.9,326.1c8.2-11.2,18-20.4,31.5-24.9c12.9-4.3,24.8-0.8,32.6,10.3c9.3,13.1,12.3,27.7,7.9,43.4
		c-2.6,9.3-6.5,18.1-13.5,25.1c-3.9,1.3-5.5-1.6-6.9-4.1c-11.1-19.8-27-34.3-47.8-43.3C1015.2,331.4,1011.7,330.3,1013.9,326.1z"/>
	<path class="st14" d="M1013.9,326.1c0.4,2.2,1.7,3.1,3.8,4c22.1,9,38.8,24,49.9,45.1c1.1,2.1,2.4,4,4.8,4.8
		c-7.7,12.4-19.3,19.6-32.4,24.9c-4.1,1.6-6.5,1.3-8.6-3.2c-4.7-10.3-12.6-17.9-22.4-23.2c-3.7-2-5.6-4.4-5.4-8.5
		c0.1-1.3,0.1-2.7-0.3-3.9C998.4,350.4,1003.7,337.6,1013.9,326.1z"/>
	<path class="st12" d="M1232.1,460.4c14.9,8.8,21.6,23.7,28.2,38.6c1.1,2.5,0.4,4.3-1.6,6.1c-9.3,8.2-14.9,18.5-17.5,30.5
		c-0.8,3.7-2.6,4.7-6.3,3.9c-15.6-3.1-31.1-6.7-44.5-15.8c1.6-4.3,4-8.4,5.2-12.9C1201.2,489.3,1215.4,473.9,1232.1,460.4z"/>
	<path class="st12" d="M1200.2,585.8c9.5-10.5,21.5-17.5,34.1-23.5c6.4-3,6.9-2.6,9.4,3.8c5.7,14.3,15.6,24.6,29.7,30.5
		c6.9,2.9,6.3,3.7,3.7,9.5c-5.1,11.4-13.1,20.5-23,28.1c-13.2-1.5-22.9-9.8-32-18.1C1212.8,607.6,1205.6,597.2,1200.2,585.8z"/>
	<path class="st10" d="M1200.2,585.8c1.7,0.3,3.1,1,3.9,2.6c11.1,20.8,27.4,36,49.3,45c0.3,0.1,0.4,0.5,0.6,0.8
		c-10.1,11.3-22.8,18.1-37.3,21.7c-18.6,4.5-35.4-8.4-37.5-27.5C1177.2,609.4,1186.6,596.7,1200.2,585.8z"/>
	<path class="st12" d="M1385.7,498.3c-1.6,1.9-3.9,2.8-2.4,6.6c9.4,23.8,9.9,47.9,0.9,71.9c-2,5.3,2.5,4.8,3.8,7.1
		c-14.2-0.7-26.9-6.3-39.5-12.5c-3-1.5-3.3-3.6-2.4-6.5c4-11.7,3.6-23.5,0.6-35.3c-0.5-2-0.6-3.7,0.5-5.7
		C1355.6,508.6,1367.5,498.7,1385.7,498.3z"/>
	<path class="st13" d="M1444.3,767.9c8.8,6.5,14.8,16.1,24.3,21.7c11.1,6.6,22.6,12.3,35.6,14.4c3.5,0.5,7.2,1.1,9.8,4
		c-10.7,11.7-23.4,21-38.5,25.8c-19.5,6.1-27.3,0.2-35.3-13C1428.9,801.9,1432.1,784.6,1444.3,767.9z"/>
	<path class="st14" d="M1044,501.9c-6.5-1.2-10.1-6.2-13.6-10.8c-3.2-4.2-5.4-9.1-8.1-13.7c-4.4-7.4-5.3-13.5,2.4-20.4
		c6.9-6.1,10-15.3,11.3-24.8c1-7.6,1.4-7.3,9.2-8.7c12.8-2.4,24,1.1,34.4,8.4c2,10.7-1.9,20.2-5.9,29.6
		C1067,477.2,1056.7,490.5,1044,501.9z"/>
	<path class="st14" d="M939.7,524.3c-3.8-8.4-1.8-16.8-0.3-25.2c1.9-10.6,5.5-20.5,11.6-29.4c2-2.9,3.9-3.9,7.3-1.7
		c12.6,8.4,26.8,8.2,41.5,6.3c1.6,14.2,5,28.1,3.9,42.4c-0.2,2.6,0.8,5.4-1.6,7.5c-7.8-3-15.8-1.6-23.7-1.5
		c-12.1,0.2-23.9-1.2-35-6.3C941.4,518.8,942.7,522.6,939.7,524.3z"/>
	<path class="st14" d="M887.9,415.5c12.9-6.1,26.4-7.6,40.4-5.5c4.8,0.7,7.2,2.5,6.6,8.2c-1,10.6-0.3,21.3,5.4,30.9
		c1.1,1.8,1.8,3.6-0.5,5.1c-13.1,9-25.5,19.3-42,21.7c-2.3-1.4-4.4-3.1-5.4-5.6C885.3,452.5,882,434.3,887.9,415.5z"/>
	<path class="st14" d="M1502.2,607.9c1.8,0.8,3.5,2,5.6,1.6c25.7-5.1,48.8,1.7,70.5,15.2c1.1,0.7,2.5,0.7,3.7,1.1
		c-3.7,10.6-13.5,15.9-20.7,23.6c-1.4,1.6-3.7,1.1-5.6,0.4c-14-5.4-27.9-4.6-41.4,1.4c-3.4,1.5-4.6-0.2-6.1-2.8
		C1500.7,635.7,1501.1,621.9,1502.2,607.9z"/>
	<path class="st10" d="M1232.1,460.4c-0.6,4.4-4.1,6.7-7,9.2c-14.4,12.4-23.9,27.8-28.8,46.1c-0.9,3.4-1.3,7.4-6,8
		c-6.9-2.9-12.3-7.8-17.2-13.2c-6.7-7.5-7.8-16.3-4.4-25.2c4.5-11.7,11.9-21.5,22.4-28.7c11-7.5,22.1-8.4,33.6-1.3
		C1227.2,456.9,1230.1,458,1232.1,460.4z"/>
	<path class="st10" d="M1355.9,617.8c3.4,4.2,5.1,9.2,7,14.1c1.4,3.6,1.7,7-0.1,10.6c-4.5,8.9-5.6,18.4-4.6,28.1
		c0.5,5.3-1.6,7.8-6.3,9.5c-5.5,2-11.3,2.5-16.6,0.6c-16.1-5.6-28.1-15.8-33.4-32.7c-1.7-1.7,0.1-4.6-2.1-6.2l0,0.1
		c-0.7-2.7,1.3-3.7,3.2-3.9c18.2-2.2,34-10,49-19.9C1353.2,617.4,1354.6,617.4,1355.9,617.8z"/>
	<path class="st14" d="M1614,749.6c-5.6,5.3-8.5,12.5-13,18.6c-13.1,17.6-30.7,27.6-51,33.9c-3.5,1.1-6.9,2.3-10.3,3.5
		c5.7-12.9,12.1-25.5,14.9-39.7c1-4.8-2.3-10.3,1.4-13.9c3.2-3.1,8.9-3.7,11.8-6.9c7.5-8.1,14.6-8.4,23.9-3.1
		C1598.4,745.8,1606.5,747.2,1614,749.6z"/>
	<path class="st14" d="M1603.9,650c15.2,22.3,21.7,46.5,16.4,73.3c-0.8,4.1,1.4,6.1,3.7,8.4c-11.5,0.1-21.9-4.1-32.2-8.6
		c-3.5-1.5-4.1-3.5-3-7c3-9.3,2.3-18.9,0.9-28.4c-1-6.2-3.4-12.1-7.6-17c-2.2-2.6-1.6-4.6,0.6-6.8
		C1588.8,657.8,1595,651.8,1603.9,650z"/>
	<path class="st13" d="M1044,501.9c-0.4-1.5-1.4-2.8,0.4-4.3c19.3-17.1,31.5-38.1,34.2-64.1c0.1-0.6,0.7-1.1,1.1-1.6
		c8.4,4,14.4,10.5,19.1,18.2c7.8,12.8,8,23.8-3.9,38.2C1082.4,503.3,1060.7,508.8,1044,501.9z"/>
	<path class="st15" d="M734.1,534.2c-8.6-11.3-16.2-23.1-19-37.5c-0.8-4.3-1.1-8.4-1.1-12.7c11,4.4,22.1,8.5,34.1,9.7
		c7.6,0.7,15,2.1,22.6,0.3c7-1.6,14.6,1,22.1-2.9C787.1,505.6,753.6,529.8,734.1,534.2z"/>
	<path class="st15" d="M1355.9,617.8c-12.6,10.6-27.4,16.7-42.9,21.5c-4.3,1.3-9.4-1.4-13.1,2.7c-4.5-12-4.4-23.9,0.7-35.8
		c1.5-3.5,3.6-6.1,7.8-7c6.6-1.4,12.7-4.1,18-8.3c3.4-2.6,5.6-1.9,8.5,0.8C1343.4,599.2,1351.6,606.9,1355.9,617.8z"/>
	<path class="st16" d="M966.5,321.2c-2.1,2.9-5.1,3.9-8.5,4.6c-17,3.2-31.5,11.3-44.1,23.1c-2.4,2.2-4.4,5.1-8.2,5
		c-4.3-9.8-7.2-19.9-4.4-30.5c4.9-18.8,23.3-28.1,41-20.6C951.9,306.9,960.3,312.7,966.5,321.2z"/>
	<path class="st16" d="M887.9,415.5c0.1,13.2-0.3,26.3,2.1,39.4c0.9,5.2,2.3,10.3,5.2,14.8c1.2,1.9,2.9,3.6,2.7,6.2
		c-8.7,3.4-17.5,3.3-26.2,0.3c-14.2-4.9-21.1-19.9-15-33.6C862.7,428.8,873.6,420,887.9,415.5z"/>
	<path class="st17" d="M939.7,524.3c0.7-3.5-0.6-7.3,1-10.7c18.6,7.2,38,7.3,57.4,5.8c4.7-0.3,3.5,2.5,4,4.8
		c-3.9,18.5-24.1,31.6-42.1,27c-5.5-1.4-10.5-4.5-13.4-9.7C943.4,536.2,939.5,531,939.7,524.3z"/>
	<path class="st18" d="M779.9,381.8c2.7,5.9,6.7,8.9,13.7,8.1c14.1-1.5,27.5,2.3,40.5,6.8c3.3-2.3,0.3-6.9,3.7-8.8
		c-0.5,21.1-7.7,40.1-18.7,57.8c-3.1-1-2.9-3.6-3.6-5.7c-6.5-18.2-17.4-33.5-30.8-47.1C781.7,389.8,778.5,386.9,779.9,381.8z"/>
	<path class="st19" d="M882.4,349.5c-5.9-8.8-14-12.5-24.6-11.8c-9.5,0.5-9.5,0.1-13.2-9.2c-1.1-2.8-2.3-5.5-3.7-8.2
		c-1.3-2.7-2.8-5.3-4.9-9.1c18.8-5.1,37.5-8,55.9-11.8c1.4,3.5-1.2,4.8-2.2,6.7c-5.6,10.5-9.1,21.3-5.9,33.4c0.5,1.9,0.2,4,0.3,5.9
		C884.7,347.4,886.2,349.7,882.4,349.5z"/>
	<path class="st20" d="M1030.1,288.2c-16.1,11-28.1,22.7-37.9,38c-8.9-14.2-19.6-25.3-34.3-35.2
		C982.3,288.2,1004.9,287.4,1030.1,288.2z"/>
	<path class="st21" d="M1633.4,846.5c4.9,14.3,7.6,27.6,13,40.9c-10.5,0.9-20.3-0.5-30,0.8c-2.1,0.3-3.6-1.4-5-2.9
		c-6.5-7.5-5.4-17.3,3-22.8C1620.9,858.4,1626,852.7,1633.4,846.5z"/>
	<path class="st21" d="M1590.1,1185.6c-6.2,0.3-10.8-2.7-14-7.8c-3.4-5.5-2-10.7,1.6-15.6c0.6-0.8,1.1-1.6,1.7-2.4
		c5.7-7,12-9,18.8-6c9.7,4.3,13,8.6,11.8,15.7c-1.2,7.5-9.3,15.1-16.9,16.1C1592.1,1185.7,1591.1,1185.6,1590.1,1185.6z"/>
	<path class="st21" d="M1700.1,1267.9c-9.3,0.2-17.7-7.7-17.7-16.6c-0.1-8.9,8.3-17.2,17.3-17.1c9.1,0.1,17.5,8.4,17.3,17.2
		C1716.8,1259.8,1708.7,1267.8,1700.1,1267.9z"/>
	<path class="st21" d="M1159.6,458.6c0.2,10.2-7.9,19.4-17,19.4c-8.1,0-16.3-7.7-16.6-15.5c-0.3-8.5,9.6-17.9,19.2-18.2
		C1153.2,444.1,1159.4,450.2,1159.6,458.6z"/>
	<path class="st21" d="M1777.4,1151.5c-4.6-1.2-9.5-1.9-13.2-5.7c-4.9-4.9-5.1-6.9-1-12.5c0.2-0.3,0.4-0.5,0.6-0.8
		c2.9-4,5-9.1,8.8-11.8c4.5-3.2,8.7,3.2,13.6,3c0.6,0,1.3,0.3,1.9,0.3c10,1.4,10.7,2.5,7.9,12.4
		C1793.5,1145.6,1786.2,1151.6,1777.4,1151.5z"/>
	<path class="st21" d="M1792.7,1058.7c7.3,9.6,12.3,18.5,19.3,25.9c0.4,0.5,0.9,1.2,0.9,1.8c-0.4,7.4-3.5,13.3-9.7,17.5
		c-6.7,4.5-12.6,5-17.6,1.4c-3.3-2.4-3.3-5.2-1.9-8.7C1788,1085,1790.9,1073.1,1792.7,1058.7z"/>
	<path class="st22" d="M682.8,457.2c-9.1,4.7-18.3,9.2-25.9,16.4c-2.6,2.5-4.7,1.8-6.7-0.6c-3.4-4-5.3-8-3.1-13.6
		c3.4-8.7,8.6-15.6,17-19.9c4.1-2.1,7.3-2,9.7,2.9C676.4,447.5,679.7,452.2,682.8,457.2z"/>
	<path class="st23" d="M1617.3,1133.6c0.8,0-0.2,0.2-1.2-0.1c-13.2-3.4-16.1-9.8-7.5-20.4c3.6-4.5,8-8,13.7-9.5
		c5.5-1.5,10,0.6,13.6,4.2c3.1,3.2,2.2,7.3,0.8,11.2C1633,1129.4,1627.7,1133.9,1617.3,1133.6z"/>
	<path class="st22" d="M1562.8,912.6c0.1,6.1-7.8,14.7-13.7,14.8c-7.2,0.2-16.9-9.8-16.6-17.2c0.2-5.9,8.6-13.5,15.3-13.7
		C1554.6,896.4,1562.6,904.9,1562.8,912.6z"/>
	<path class="st21" d="M1457.2,598.3c-2.3-3.4-3-6.7-3.6-9.9c-2-11,6.4-20,17.4-18.4c4.2,0.6,8.3,2.2,11.8,4.9
		c5.4,4.3,6.4,9.9,3.1,15.9c-1,1.9-2.5,2-4.1,1.8C1473.1,591.9,1464.7,593.5,1457.2,598.3z"/>
	<path class="st21" d="M1596.5,1063.1c7.5,0.2,12.3,4.7,12.1,11.4c-0.3,8.1-9.3,17.7-16.3,17.4c-6.7-0.3-14.4-7.3-14.2-12.9
		C1578.3,1070.8,1587.5,1062.9,1596.5,1063.1z"/>
	<path class="st24" d="M1631.7,1161.1c0-8,5.3-15,11.6-15.1c7-0.1,16.2,9.4,16,16.6c-0.2,7.3-7,13.6-14.6,13.4
		C1637.6,1176,1631.7,1169.1,1631.7,1161.1z"/>
	<path class="st25" d="M1143.6,544.4c-5.7,0.1-12-6.3-12.1-12.2c-0.1-7.3,10.3-16.3,18.7-16c5.3,0.2,10.5,6.6,11,13.5
		C1161.6,535.5,1151.2,544.3,1143.6,544.4z"/>
	<path class="st25" d="M1752.2,1213.6c0,7.5-6.5,14.3-13.7,14.4c-7.3,0.1-13.9-6.6-13.8-14.1c0-7.7,6.5-14.6,13.6-14.5
		C1745.8,1199.6,1752.2,1206.1,1752.2,1213.6z"/>
	<path class="st22" d="M1848.2,1120.8c-1.1,5.1-2.6,10.6-6.3,15.1c-3.9,4.8-7.7,6.2-12,4.4c-5.5-2.3-9.5-8-8.7-13.3
		c1.1-6.9,4.8-12.3,10.4-16.4c4.6-3.3,8.1,0,11.9,1.8C1847,1114,1848.9,1116.4,1848.2,1120.8z"/>
	<path class="st24" d="M1263.6,375.7c9.1,0.1,15.3,5.7,14.9,13.5c-0.3,7.1-7.4,14.2-14.1,14.1c-7.3-0.1-15-9.1-14.7-17.2
		C1250,379.3,1254.9,375.6,1263.6,375.7z"/>
	<path class="st26" d="M1255.2,456c-7.7-6.6-14.7-12.1-22.6-16.3c-3.1-1.7-3-3.7-1.4-6.5c2.9-5.2,7.2-8.8,12.6-10.8
		c7.9-3,15.7,3.3,14.6,11.6C1257.5,440.8,1256.4,447.7,1255.2,456z"/>
	<path class="st22" d="M1104,372.9c-0.1-6.7,8.5-15,15.8-15.2c5.5-0.2,11.9,6.9,12.2,13.5c0.2,6-7.5,14.8-13.4,15.1
		C1111.7,386.7,1104.1,379.7,1104,372.9z"/>
	<path class="st25" d="M1940.2,963.4c0.1,7.4-3.8,11-11.9,11c-7.4,0-14.3-5.9-14.2-12c0.1-6.5,7.4-14.8,13.4-15.1
		C1934.2,946.9,1940.2,954.4,1940.2,963.4z"/>
	<path class="st26" d="M1771.3,795.9c-6.7,0-10.9-5.3-11-13.8c-0.1-7.7,5-12.3,13.6-12.3c7.9,0,13.3,5,13.6,12.7
		C1787.7,788.7,1778.8,796,1771.3,795.9z"/>
	<path class="st24" d="M871.9,499.6c9.5-0.1,14,5.4,12.3,14.1c-1.6,7.8-8.7,13.6-15.3,12.5c-11.3-1.9-14-7.2-8.7-17.3
		C862.8,504,865,498.3,871.9,499.6z"/>
	<path class="st26" d="M637.1,487.4c6.1,0.1,7.3,1.4,5.6,6.8c-1.8,5.9-1.2,11.9-1,17.9c0.2,5.3-2.3,5.9-6.7,5.9
		c-8.4-0.1-14.6-10.6-14.6-16.6C620.5,493.7,628.6,487.2,637.1,487.4z"/>
	<path class="st27" d="M1193.2,435.5c-4.8,0.1-7.4-2.9-9.7-6.2c-2.3-3.2-1.3-6.2,0.5-9.3c2.5-4.2,6.3-6.7,10.8-8.3
		c6.9-2.4,12.2-0.2,14.8,5.9c2,4.8-1.8,13.8-7,15.7C1199.6,434.5,1196.3,434.8,1193.2,435.5z"/>
	<path class="st26" d="M1153.6,420c-8.2-0.1-15.7-6.2-15.4-12.5c0.3-6.3,7.1-13.4,12.8-13.5c6.6-0.1,13.2,8.8,13,17.6
		C1163.9,418.4,1161.7,420.1,1153.6,420z"/>
	<path class="st28" d="M1930,891.8c2.8,2.3,1.9,5.4,2,8.3c0.1,9.9,0,19.8,0,29.7c-4.4-0.6-8.4,1.2-12.5,2.4
		c-6.4,1.8-5.8,1.7-7.7-4.2c-1.8-5.6-0.3-9.1,3.7-12.9C1922.4,908.7,1925.9,900.1,1930,891.8z"/>
	<path class="st21" d="M1698.1,1194.5c-7.8,0.2-12.9-4.5-13-11.9c-0.1-6.8,6.7-14.1,13-13.9c6,0.2,12.7,7.1,12.9,13.3
		C1711.1,1188.5,1705.1,1194.3,1698.1,1194.5z"/>
	<path class="st29" d="M1095,419.8c-7.6-3.7-14.4-9.2-25.2-11.3c6.9-6.3,12-11.6,16.7-17.3c1.6-2,3.4-1.2,5.3-0.2
		c5.2,2.7,7.6,7.3,8,12.8C1100.3,409.6,1099.6,415.1,1095,419.8z"/>
	<path class="st30" d="M1422.4,478.1c-6.4,0-11.6-0.6-14.5-5.3c-2-3.3,2.7-12.4,7.1-15.5c4.5-3.2,12.2-2.5,16.6,1.6
		c3.9,3.7,4.5,9.7,1.7,14.6C1430.5,478.3,1425.9,478.3,1422.4,478.1z"/>
	<path class="st26" d="M624.7,539.6c1.6,2.2-0.1,3.8,0.2,5.2c2.2,11.5-4.4,15.8-14.2,18c-3.6,0.8-7,2.9-10-0.7
		c-3-3.6-3-10.2,0.4-13.9C607.5,541.1,615.6,538.3,624.7,539.6z"/>
	<path class="st31" d="M1653,1035.2c-5.6,10-8.6,19.1-12,28.3c-7.6-1-12.3-5.6-15.8-11.4c-4-6.7-1.3-12.1,6.4-13.5
		C1638.1,1037.5,1644.6,1036.5,1653,1035.2z"/>
	<path class="st29" d="M1182.7,540.1c9.6,4.9,19.6,8.9,31,12.6c-6.3,4.6-11.8,8.6-17.3,12.6c-1.5,1.1-2.9,1-4.6,0.5
		C1181.5,562.8,1176.9,550.2,1182.7,540.1z"/>
	<path class="st32" d="M1439.2,603.7c0,8.7-0.8,9.5-9.1,8.2c-6-1-11.9-0.8-17.9-0.4c-3.2,0.2-3.9-1.5-4.5-4
		c-0.6-2.8-1.1-5.6,2.4-6.5c8-2.1,16-4.4,23.3-8.5c1.9-1.1,3.3,0.1,3.9,1.8C1438.4,597.3,1439.5,600.5,1439.2,603.7z"/>
	<path class="st26" d="M850.4,484c-8.5,6.7-17.6,6.3-24.1-0.6c-3.3-3.6-4-7.8-1.7-11.9c2.3-4.2,4.2-9.3,10.1-10
		c1.9-0.2,3.2,0.3,3.8,2.2C840.9,471.3,845.2,478,850.4,484z"/>
	<path class="st30" d="M1097.3,510.6c1.2,2.8,2.3,5.2,3.4,7.6c3.2,7.2,0.2,14-7.4,16c-3.9,1-7.9,1.3-11.7-0.5
		c-3.1-1.5-5.8-3.5-6-7.3c-0.2-4,1.7-6.9,5.5-8.6C1086.2,515.6,1091.3,513.3,1097.3,510.6z"/>
	<path class="st33" d="M1559.1,864.5c8.5,4.1,16.3,7.7,25.2,7.8c3.2,0,4.3,2.5,5.1,5.2c1,3.4-1.1,4.9-3.5,6.3
		c-5.6,3.2-11.5,5.9-17.6,1.5C1561.7,880.5,1555.8,875.1,1559.1,864.5z"/>
	<path class="st34" d="M1151,498.2c-4.9,1.6-8.6,2.7-12.3,3.9c-5.5,1.8-10.2,4.7-14.6,8.4c-5.2,4.4-7.4,3.8-9.6-2.6
		c-2.2-6.5-0.1-12.4,3.1-18.1c0.9-1.6,2.7-2.4,4.2-1.2c7.8,6.4,17,7,26.4,7.1C1148.7,495.8,1149.1,496.5,1151,498.2z"/>
	<path class="st35" d="M1020.2,507.3c6.9,5.3,12.3,9.5,18.8,12c2.6,1,3.3,3,2.2,5.6c-2.7,6.6-7.6,10.7-14.5,12.2
		c-4.7,1-8.5-2.5-7.6-7.2c0.7-3.6,1.2-7.1,1.1-10.8C1020.2,515.9,1020.2,512.6,1020.2,507.3z"/>
	<path class="st36" d="M843.5,556c-5.6,0.2-8.8-2.5-11-6.5c-2.1-3.8-0.5-7,2.1-10c0.7-0.7,1.4-1.4,2.1-2.1c7.2-7.5,7.3-7.6,14.5-0.6
		c2.8,2.7,6.2,5.4,4.8,10.1C854.6,551.4,848,555.9,843.5,556z"/>
	<path class="st37" d="M1389.4,751.4c-2.8-0.3-9.8-6.3-11-11c-0.9-3.3,0.1-5.8,3.6-7c3.5-1.2,6.6-3.2,9.1-5.8
		c3.2-3.4,5.9-1.2,8.8,0.3c3.4,1.8,2.1,4.1,1,6.6c-1.6,3.6-3.1,7.4-2.8,11.4C1398.5,751.4,1395.4,752,1389.4,751.4z"/>
	<path class="st38" d="M762.1,373.3c-7-3.5-12.4-7.4-18.6-9.6c-4.2-1.5-2.9-4.7-1.3-7.4c4.4-7.6,11.9-10.1,19.9-11.8
		C762.1,353.9,762.1,362.9,762.1,373.3z"/>
	<path class="st39" d="M1369.5,717.9c-6.2-0.5-12.3-4.9-16.7-11.4c-2.3-3.5-1-7,2.8-8.9c1.8-0.9,3.8-1.3,5.5-2.3
		c2.9-1.7,4.7-1.1,6.5,1.7c2.9,4.4,6.1,8.6,9.3,12.9c3.7,5,2.7,7.3-3.4,8.1C1372.9,718,1372.2,717.9,1369.5,717.9z"/>
	<path class="st40" d="M1694.3,743.8c7,0,14.4,5.4,15.7,11.5c0.7,3.1,0.2,5.7-3.6,5.1c-8.6-1.4-17.2-1.3-25.8-0.1
		c-2.8,0.4-3.3-1.8-2.8-3.9C1679.2,750.2,1687.7,743.8,1694.3,743.8z"/>
	<path class="st41" d="M905.8,391.1c-3.3,2.4-6.6,2.6-9.8,3.1c-4,0.6-8,3.9-11.3-1.7c-3.2-5.4-5.1-10.8-1.3-16.6
		c1.1-1.6,2.3-3.2,3.7-4.6c3-2.8,5.5-3.2,7.4,1.4c1.4,3.3,3.4,6.4,5.3,9.5C901.6,385.1,903.6,387.8,905.8,391.1z"/>
	<path class="st42" d="M1522,826.4c3.1,4.3,5.3,8,8.1,11.2c2.6,3,2,5.1-0.5,7.5c-4.7,4.6-10.6,5.5-16.5,4c-3.8-1-7.3-3.9-8.1-8
		c-0.7-3.5,3.1-4.6,5.4-6.3C1514.1,832,1517.8,829.4,1522,826.4z"/>
	<path class="st29" d="M1169,582.3c0,5.2-6.9,13.2-11.6,13.3c-4.9,0.1-11.8-6.3-11.5-10.7c0.4-6,7.6-12.2,14-12.1
		C1165.6,572.9,1169,576.3,1169,582.3z"/>
	<path class="st39" d="M906.4,546.9c-3.5-0.1-7.6-0.8-9.4-5c-1.7-3.8,0.5-7,2.9-9.9c4.6-5.7,10.2-7.2,16.7-4.9
		c3.9,1.4,4.9,4.1,4.4,7.7C920.1,541.1,913.5,546.7,906.4,546.9z"/>
	<path class="st38" d="M1441.4,740.8c-5.5,7.3-10,13.3-14.7,19.5c-5.4-2.4-8.1-6.8-10.7-11.5c-2.2-3.9,0-7,1.9-10.1
		c2.1-3.4,4.9-2.2,7.8-1.4C1430.4,738.7,1435.3,739.5,1441.4,740.8z"/>
	<path class="st35" d="M1484.5,635.8c-7.6-5.2-13.7-9.6-20.4-12.9c-3.5-1.7-2.5-4-0.9-6.4c2.3-3.6,5.9-5.3,9.8-6.3
		c7.5-2.1,10.4,0.2,10.6,7.9c0.1,2.6-0.1,5.3,0,7.9C1483.7,628.5,1484.1,631.1,1484.5,635.8z"/>
	<path class="st43" d="M854.1,376.8c-0.6-5.6-0.2-11.2-1.7-16.7c-1.3-5,1.6-7.4,6.7-7c8.3,0.6,12.4,7.6,9.5,15.6
		C866.2,375.2,863,379.8,854.1,376.8z"/>
	<path class="st39" d="M823.5,503.9c6.9,0.1,9,2.2,8.9,9c-0.1,6.8-4,11-10.2,11c-6.4,0-11.3-4.5-11.2-10.2
		C811.2,507.5,815.9,503.8,823.5,503.9z"/>
	<path class="st35" d="M1366,597.8c6.8,1.5,12.2,2.9,17.7,3.8c3.2,0.5,6.4,0.8,6.3,4.7c-0.1,4.3,2.4,9.4-3.3,12.3
		c-2.3,1.2-4.6,2.5-7.6,4.1C1374.8,614.6,1370.8,606.9,1366,597.8z"/>
	<path class="st44" d="M1130.6,430.1c-5.8,3.8-10.8,7.1-14.5,11.8c-8.5-7.3-8.5-7.3-4.1-16.2c1.6-3.3,2.8-6.7,4.1-10.1
		c0.5-1.3,1.3-2.5,2.7-2.7c1.9-0.2,2.8,1.2,3.5,2.8c1,2.4,2,4.9,3.3,7.2C1126.8,425.2,1128.5,427.2,1130.6,430.1z"/>
	<path class="st45" d="M1638.7,749.9c9.5,0.6,17.6-3.2,20.8,7.3c2.7,8.8,1.8,11.3-8.7,18.5C1647.1,767.5,1646,758.5,1638.7,749.9z"
		/>
	<path class="st46" d="M1279.1,634.9c1.1,4,2,7,2.7,10.1c0.9,3.7,2.9,7.4-2,10.4c-5.3,3.2-11.9,4.2-15.9,1.4c-2.4-1.7-3.9-3.6-1-6.3
		C1268.2,645.5,1273.3,640.4,1279.1,634.9z"/>
	<path class="st47" d="M669.8,546.4c-10.1,2.2-18.3,4-27,5.8c-3.1-5.6-0.9-10.1,2.8-14.1c2.9-3.1,6.2-4.4,10.3-1
		C659.7,540.3,664.1,542.6,669.8,546.4z"/>
	<path class="st48" d="M1868.9,947.5c10.1-4.7,17.9-9.6,26.1-14.6c2.1,6,0.9,10.7-1.8,15c-3.9,6.1-8.1,7.1-14.8,4.1
		C1875.8,950.8,1873.2,949.5,1868.9,947.5z"/>
	<path class="st49" d="M849.7,419.1c1.5-7.1,2.9-12.5,3.7-18.1c0.6-4.5,3.6-6.1,7.3-7c4-0.9,5.8,2,7.7,4.9c2.1,3.2,1.7,5.1-1.5,7.2
		C861.4,409.9,856.3,414.1,849.7,419.1z"/>
	<path class="st32" d="M1783,839.9c-1.9-5.1-3.5-9.3-5-13.5c-2.4-6.6,1.5-11.5,8.5-10.7c4,0.4,6.4,3.1,8.9,5.8
		c1,1.1,0.9,2.4-0.1,3.5C1791.4,829.8,1787.4,834.6,1783,839.9z"/>
	<path class="st50" d="M1381.9,455.4c7,6.2,6.8,13.6,4.7,19.9c-2.2,6.7-9.4,5.7-15.8,6.3C1374.5,472.8,1378,464.7,1381.9,455.4z"/>
	<path class="st51" d="M924.4,485.3c-1.2,6-2.2,10.5-2.9,14.9c-0.5,3.1-0.7,5.8-5,5.6c-4.6-0.3-8.6-1.6-10.3-6.1
		c-1.2-3.2-0.5-6.9,3-8.5C913.6,489.1,918.3,487.6,924.4,485.3z"/>
	<path class="st52" d="M771.4,535.4c8.2-6.6,14.7-11.9,21.6-17.5c3.8,3.5,3.3,7.8,2.5,11.8c-0.7,3.4-2.7,5.9-6.8,5.8
		C783.7,535.3,778.8,535.4,771.4,535.4z"/>
	<path class="st53" d="M1635.6,1088.7c-3.6-0.9-5.8-1.4-8-2c-2.5-0.7-5.2-1-3.9-5.1c1.1-3.2,2-5.6,6-4c2.1,0.8,4.3,1.6,6.6,2.1
		c3.4,0.8,4,3.2,3.3,6.1C1638.9,1088.5,1637,1089.3,1635.6,1088.7z"/>
	<path class="st54" d="M718.3,971.1c3.9-5.7,8.4-10.6,14.2-14.4c1.4,2.8,0.2,5-0.1,7.2C730.8,975.2,730.1,975.5,718.3,971.1z"/>
	<path class="st55" d="M882.4,349.5c1.4-1,1.3-2.6,1.8-4c0.6,1.1,1.4,2.2,1.8,3.4c0.4,1.2,0.4,3.2-0.7,3.5
		C883.3,353.1,882.7,351.3,882.4,349.5z"/>
	<path class="st56" d="M953.7,892c-0.7-0.6-1.6-1.1-2.1-1.9c-0.5-0.8-1.2-2.1-0.8-2.6c1-1.7,2.3-0.2,3.3,0.3
		c0.8,0.4,1.3,1.4,1.9,2.2C955.1,890.7,954.4,891.3,953.7,892z"/>
	<path class="st57" d="M1295.5,378.6c-0.2,0.7-0.4,1.3-0.6,1.8c-0.7-0.4-1.6-0.7-2.1-1.3c-0.6-0.7-0.5-1.9,0.6-2
		C1294.1,377.1,1294.8,378.1,1295.5,378.6z"/>
	<path class="st58" d="M1542.2,859.9c-0.7-0.7-1.4-1.3-2.2-2c0.3-1.9,2-3.7,3.1-2.8C1545,856.4,1544.3,858.6,1542.2,859.9z"/>
	<path class="st12" d="M1635.9,1019.8c2.2-2.8,5.3-1.9,8.2-1.8C1641.6,1019.6,1638.8,1019.9,1635.9,1019.8z"/>
	<path class="st15" d="M1299.8,641.9c2.6,1.4,2.2,3.9,2.1,6.2C1299.9,646.4,1299.7,644.2,1299.8,641.9z"/>
	<path class="st14" d="M1503.7,597.3c0.4,1.7,0.3,3.3-1.3,4.4C1501.9,600,1502.3,598.5,1503.7,597.3z"/>
	<path class="st56" d="M955.9,895.9c-1.1-0.4-1.6-1.1-1.5-2.3C955.5,894,956,894.7,955.9,895.9z"/>
	<path class="st56" d="M955.9,890c1.2,0,1.9,0.6,2.2,1.7C956.9,891.7,956.2,891.1,955.9,890z"/>
	<path class="st12" d="M1803.8,843.7c-0.1,1-0.6,1.7-1.6,2.1C1802.1,844.6,1802.6,843.9,1803.8,843.7z"/>
	<path d="M1128.1,2089.9c-48-0.9-90.3-13.7-127.5-41.1c-25.7-18.9-43.9-43.8-54.9-74.1c-4.6-12.6-7.9-25.2-7.8-38.7
		c0.1-8.3,4-13.3,10.9-14.1c6.2-0.7,13.5,5.2,14.8,12.4c0.8,4.2,0.7,8.5,1.6,12.8c5.9,27.9,19.5,51.5,40,70.8
		c20,18.7,44.3,29.9,70.3,38.1c24.1,7.6,48.6,5.7,73.1,5.6c6.5,0,13-2.3,19.5-3.5c10.4-1.9,15.4,0.1,18.5,7.3
		c2.4,5.5,1.5,9.2-2.8,13.5c-4,4-9.2,5.8-14.3,6.5C1155.2,2087.2,1140.9,2090.6,1128.1,2089.9z"/>
	<path class="st59" d="M1385.4,2085.2c0.2-0.7,0.4-1.5,0.5-2.2c0.1-0.8,8.2-41,9.4-40.6c1.3,0.4-6.7,43.3-6.9,44.2
		c-1,5.8-3.7,11.3-4.8,17.1c-1.3,6.6-2,13.3-4,19.8c-3.3,11-8.3,21.5-15.5,30.6c-7.6,9.6-13,20.7-21.1,29.9
		c-6.1,6.9-12,13.9-18.7,20.2c-2.2,0.4-3.3-0.2-2.6-2.6c1.1-12.6,6.9-23.9,10.2-35.9c0.5-1.9,1.5-3.6,1.8-5.6
		c1.3-7.6,4.5-13.3,10.8-19c8.2-7.4,16.2-14.9,23.1-23.5c4.1-5.1,7.4-10.7,10.4-16.6C1380.6,2096,1383.9,2090.6,1385.4,2085.2z"/>
	<path d="M1062.9,1285.9c-17.4-0.6-32.7,6.5-47.3,15.6c-3.1,1.9-6.1,4.2-9.4,5.6c-5.8,2.4-11.7,0.5-15.1-4.3
		c-3.4-4.8-3.2-10.8,0.8-15.7c1.5-1.8,3.3-3.3,5.2-4.6c20.5-14.1,42.5-23.5,67.9-22.8c1.3,0,2.7-0.1,4,0c3.3,0.2,4.8-1.2,5-4.6
		c0.3-4.3,1-8.6,1.8-12.9c2.9-15.7,9.6-29.7,20-41.9c1.5-1.8,3.1-3.5,4.8-5c6.9-6.1,14.3-6.4,19.7-1.1c5.4,5.4,5.2,12.6-1.3,19.5
		c-20,21.5-22.9,46.5-15.1,73.5c4.8,16.6,15.7,28.3,31.6,35.3c2.1,0.9,4.4,1.7,6.3,2.9c5.7,3.6,7.8,9.9,5.5,15.6
		c-2.1,5.5-8.4,9-14.7,7.7c-3.9-0.8-7.7-2.2-11.3-4c-20.5-9.9-34.2-26-41.8-47.4C1075.4,1285.8,1075.4,1285.8,1062.9,1285.9z"/>
	<path class="st59" d="M708.3,2131.2c-9.3-31.7-16.2-63.4-21.4-98c13.3,12.1,25.2,22,39.1,28.9c3.2,1.6,3.8,3.3,2.9,7
		c-2.6,11.3-5.9,22.4-9.4,33.4c-2.4,7.9-3.1,16.3-7.3,23.6C711.4,2127.9,711,2130,708.3,2131.2z"/>
</g>
</svg>
