<?xml version="1.0" encoding="utf-8"?>
<!-- Generator: Adobe Illustrator 22.0.1, SVG Export Plug-In . SVG Version: 6.00 Build 0)  -->
<svg version="1.1" id="Layer_1" xmlns="http://www.w3.org/2000/svg" xmlns:xlink="http://www.w3.org/1999/xlink" x="0px" y="0px"
	 viewBox="0 0 249.8 500.2" style="enable-background:new 0 0 249.8 500.2;" xml:space="preserve">
<style type="text/css">
	.st0{fill:#FFFFFF;}
	.st1{fill:#070707;}
	.st2{fill:#030303;}
	.st3{fill:#EDF1FE;}
	.st4{fill:#515151;}
	.st5{fill:#1A1A1A;}
	.st6{fill:#CCB47F;}
	.st7{fill:#FE3030;}
	.st8{fill:#FAC698;}
	.st9{fill:#936B48;}
	.st10{fill:#4F4839;}
	.st11{fill:#FE2F2F;}
	.st12{fill:#EEEEEE;}
	.st13{fill:#BE1C1C;}
	.st14{fill:#121212;}
	.st15{fill:#ECAE78;}
	.st16{fill:#2B2B2B;}
	.st17{fill:#ECAE77;}
	.st18{fill:#4E4738;}
	.st19{fill:#EAEAEA;}
	.st20{fill:#E8E8E8;}
	.st21{fill:#F8C496;}
	.st22{fill:#674A31;}
	.st23{fill:#B6B6B6;}
	.st24{fill:#151515;}
	.st25{fill:#8C8C8C;}
	.st26{fill:#801919;}
	.st27{fill:#5A5A5A;}
	.st28{fill:#C7C7C7;}
	.st29{fill:#404040;}
	.st30{fill:#543C28;}
	.st31{fill:#9B7A46;}
	.st32{fill:#9D7B47;}
	.st33{fill:#111111;}
</style>
<g>
	<g>
		<path d="M42.3,498.5c-1.1,0-2.2,0-3.4,0c-6.1-0.2-11.2-0.6-16.3-2.1c-7.2-2.1-11.4-7.2-12.2-14.6c-1.2-10.9,5.4-21.2,15.8-24.5
			c2.1-0.7,4.3-1,6.5-1c1.3,0,2.7,0.1,4.1,0.4c-3.2-8-7.6-15.5-11.8-22.9l-0.2-0.3c-0.4-0.7-0.8-1.4-1.2-2.1l-0.1-0.2
			c-1.3-2.2-0.2-3.7,0.3-4.3c0.7-0.7,1.5-1.1,2.4-1.1c0.6,0,1.1,0.1,1.7,0.4c3.5,1.5,7,3.1,10.5,4.6c-1.5-17.1-2.2-32.6-2.1-47.2
			c0-7.1,0.4-14.9,1-23.8c0.2-3.6,0.6-7.2,0.9-10.7l0.1-1.5c-0.5-0.2-0.9-0.5-1.3-0.7c-0.6-0.3-1.2-0.7-1.8-0.9
			c-1.7-0.6-2.5-2-2.2-3.8c0.1-0.4,0.1-0.8,0.2-1.1c0.2-1,0.4-2,0.7-3.1c1.5-5.3,3.3-10.8,6.2-15.9c-3.3-2-6.4-4.7-9.9-8.3
			c-1.3-1.3-2.6-2.7-3.6-4.3c-1.6-2.6-1.7-5.1-0.2-7.8c1.7-3,3.8-5.7,5.9-8.2c0.5-0.6,1-1.2,1.5-1.9c0.1-0.1,0.1-0.1,0.1-0.1
			c-0.7-3.8-1.2-7.4-1.5-11c-0.2-2.9-0.3-5.8-0.4-8c-0.1-4.1,0-8.3,0.3-12.9c0.2-3.3,1.1-6.5,1.9-9.6l0.2-0.8
			c1.4-5.5,3.4-11.8,7.1-17.7c4.5-7.2,10.4-13.1,15-17.5c4.4-4.1,9.1-8.2,14.1-12.1c-5.5-4.1-8.5-10-8.8-17.5c0-0.9-0.1-1.8-0.1-2.6
			c-1.6,3.2-3.8,6.2-6.7,9c-6.4,6.2-14.4,9.7-23.8,10.3c-0.1,0-0.2,0-0.3,0l-0.3,0c-2.3,0-3.2-1.4-3.5-2.2c-0.4-1-0.5-2.6,1.2-4.1
			c1.4-1.2,2.7-2.5,4.1-4.1c2.2-2.5,3.9-5.1,5.1-7.9c1.4-3.2,1.5-6.4,0.4-9.8c-2-6-5.5-11.8-11.1-18.2c-1-1.1-1.9-2.2-2.9-3.3
			c-3.3-3.8-6.8-7.7-9.8-12c-5.7-8-9.5-17.2-11.3-27.5c-0.9-4.9-1.2-9.9-0.9-14.7c0.3-5.4,1.8-10.8,4.9-17.4
			c3.4-7.4,7.7-13.3,13.1-18c-3.2-2.8-5.5-6-6.8-9.5c-1.9-5-0.1-10,4.5-13c3.6-2.3,7.6-3.8,13.3-4.8c3.6-0.6,7.1-0.9,10.4-0.9l0.3,0
			c11.8,0.1,23.6,1.2,35,3.3c0.5,0.1,1.1,0.2,1.6,0.2c0.6,0.1,1.3,0.1,1.9,0.3c0.2-0.8,0.4-1.7,0.7-2.6c0.2-0.7,0.4-1.4,0.7-2.1
			c1.4-4.4,2.9-9,5.4-13.2c2.1-3.4,4.8-6.6,8.2-9.8c0.4-0.4,0.9-0.7,1.3-1c0.2-0.1,0.3-0.2,0.5-0.3L97,8.3l0.2-0.1
			c0.6-0.3,1.1-0.7,1.5-1.3c0.3-0.5,0.8-0.8,1.1-1l0.3-0.2l0.1-0.1c2.9-1.7,6-2.8,9.3-3.3c2.9-0.4,5.8-0.6,9.1-0.6
			c2.7,0,5.6,0.1,8.8,0.4c7.2,0.6,14.7,2.1,23.7,4.7c6.2,1.8,13.5,4.1,20.3,7.7c10.6,5.5,20.2,13,28.3,22.2c2.3,2.6,4.6,5.3,6.3,8.6
			c0.1,0.3,0.3,0.5,0.4,0.8l0.2,0.4c0.1,0.3,0.3,0.7,0.4,1c0.5,1.3,1.1,2.7,1.4,4.2c0.6,2.8,0.8,5.7,0.7,8.7c-0.1,2-0.3,4.1-0.7,6
			c-0.7,4-1.8,7.4-3.2,10.6c-0.4,0.8-1,1.2-1.4,1.4l-0.2,0.1c-1.2,0.7-1.6,0.9-1.7,1.5c-0.1,0.6-0.3,1.1-0.7,1.6
			c0.4,0.3,0.7,0.5,1.1,0.8c0.3,0.3,0.7,0.5,1,0.8c0.3,0.2,0.5,0.4,0.8,0.6c1.1,0.8,2,1.4,3.1,1.8c1.6,0.5,2.9,1.4,4.2,2.2
			c0.5,0.3,1,0.7,1.5,1c1,0.6,2,1.2,2.9,1.9c0.2-0.1,0.4-0.1,0.6-0.1c0.8,0,1.4,0.5,1.7,0.7l0.1,0.1c4,2.6,7.7,5.5,12.1,8.9
			c1.7,1.3,3.2,2.8,4.7,4.2c4.4,4.2,7.9,7.9,11,11.5c1.2,1.5,2,3.4,2.1,5.7c0.2,2.6-0.4,5-1.8,7.2c-0.9,1.5-2.3,2.2-3.4,2.8
			l-0.1,0.1c-3.9,2-8.1,2.9-11.6,3.4c-2.2,0.4-4.5,0.5-7.1,0.5c-2.6,0-5.1-0.2-7.4-0.4c0.9,6.8,0.1,13.7-2.6,21.1
			c-3.4,9.6-8.1,17.5-14.2,24.2c-3.7,4-7.8,8-12.9,11c1.2,3.5,1.5,7,1.8,10.5l0.1,0.8c0.4,4.9-0.4,9.5-2.5,13.8
			c-0.8,1.6-1.7,3-2.7,4.3l-0.4,0.6c1,2.5,1.6,5.1,2.3,7.6c0.3,1,0.5,2,0.8,3c1.8,6.6,3,12.5,3.7,18.1c0.8,6.6,0.1,13.1-0.7,18.5
			c-1.1,7.4-3.9,14.5-8.8,21.8c-3.7,5.6-7.2,10.4-10.7,14.7c0.8,1,1.5,2,2.2,3l0.4,0.6c1.7,2.4,1.8,5.1,0.2,7.7
			c-1.9,3.1-4.4,5.5-6.9,7.7c1.1,1.7,1.1,3.5,0,5.5c-2.2,4.3-4.9,7.7-8.1,10.3c-0.6,0.5-1.3,1.1-1.9,1.6c-2.6,2.2-5.2,4.4-8.3,6.2
			c0.5,3.4,1.4,6.8,2.2,10.1c0.9,3.5,1.4,6.9,1.6,10.6c0.1,2.2,0.4,4.4,0.7,6.5c0.1,1,0.3,2,0.4,3.1c0.1,0.7,0.2,1.4,0.2,2.1
			c0.2,1.8,0.4,3.7,0.6,5.5c0.1,1.8,0.2,3.6,0.3,5.4c0.1,2.4,0.3,4.8,0.5,7.2c0.4,4.3,0.7,8.9,1,14c0,0.7,0,1.4,0,2
			c0,0.6,0,1.2,0,1.8c0.3,6,0.3,12.1,0.2,17.8l0,0.7c0,0.5,0,0.9,0,1.4c0.6-0.1,1.2-0.2,1.7-0.3c3.1-0.6,6.3-1.2,9.3-2
			c1.5-0.4,3.1-0.7,4.6-1.1c0.6-0.1,1.3-0.3,1.9-0.4c0.2,0,0.4-0.1,0.6-0.1l0.1,0c0.3-0.1,0.6-0.1,0.8-0.1c1.4,0,2.2,0.7,2.7,1.3
			c0.5,0.6,1.2,2,0.2,3.9c-2.3,4.6-4.9,9.3-8.1,13.9c0.2,0,0.3,0,0.5,0c4.7,0,9.2,1.4,13.2,4.1c2.8,1.9,4.6,4.8,5.5,8.8
			c1.8,8.1,0.8,16.2-2.9,23.9c-2.2,4.5-6,7-11.7,7.7c-6.7,0.8-13.7,1.3-20.9,1.3c-3.4,0-6.9-0.1-10.5-0.3
			c-6.1-0.3-12.3-0.9-19.1-1.8c-2.7-0.4-3.9-1.7-3.9-4.4c-0.1-8.3-1.8-16.8-5.1-26.1c-0.6-1.6-1.1-3.1-1.7-4.7
			c-0.7-1.9-0.1-3.1,0.6-3.8c0.7-0.7,1.5-1,2.4-1c0.5,0,0.9,0.1,1.4,0.3c0.1,0,0.2,0.1,0.3,0.1c-0.6-1.8-1.3-3.6-2-5.3
			c-0.2-0.5-0.5-1.1-0.7-1.6c-0.2-0.5-0.5-1.1-0.7-1.6c-0.7-1.6-0.4-2.8,0-3.4c0.4-0.7,1.2-1.5,3-1.7c0.7-0.1,1.5-0.2,2.3-0.3
			c-3.6-9.8-6.9-19.5-10-28.9c-4.8-14.7-9.6-30.6-14.6-48.7c-0.2-0.8-0.4-1.5-0.5-2.1c-1.9-0.1-3.8-0.3-5.7-0.5c-1,3.4-2,6.6-2.5,10
			c-0.3,1.9-0.6,3.7-0.9,5.6c-0.8,4.7-1.5,9.6-2.3,14.5c-0.7,4.6-1.3,9.4-1.9,14.7c-0.9,8.1-1.7,15.4-2.4,22.3
			c-0.3,3.3-0.6,6.8-0.9,10.1c-0.1,1.8-0.3,3.6-0.4,5.4c0.7,0.2,1.4,0.4,2.2,0.5c0.7,0.2,1.4,0.3,2,0.5c2.4,0.6,2.9,2.3,2.8,3.7
			c-0.1,3.9-1.2,7.5-2.4,10.9c0.1,0,1.8-0.4,1.8-0.4c0.4-0.1,0.9-0.2,1.4-0.2c1.5,0,2.3,0.8,2.8,1.4c1.4,1.9,0.2,3.6-0.3,4.4
			l-0.1,0.2c-2.5,3.8-4.5,7.3-6,10.7c-2.1,4.6-2.8,9.2-2.3,13.9c0.3,2.9-1.5,3.9-3.2,4.4c-4.9,1.5-10.1,2.6-15.9,3.3
			C53.9,498.1,48,498.5,42.3,498.5z M159.9,242.4c-4.8,6.8-9,13.7-12.3,19.1c-1.3,2.1-2.4,4.4-3.5,6.6c-0.6,1.2-1.2,2.5-1.8,3.7
			c-0.1,0.2-0.2,0.4-0.3,0.6c-0.9,1.6-1.2,2.3-0.7,3.3c0.2,0.5,0.2,1,0.2,1.3l0,1c1.7-0.8,3.6-1.7,5.4-2.9c4.6-3,7.4-7.8,9.8-12.3
			c1.6-3,2.3-6.3,3-9.9l0-0.1C160.4,249.4,160.2,246,159.9,242.4z M63.3,251.6c-0.3,1.5-0.6,2.9-0.6,4.2c0.1,2.2,0.2,4.7,0.7,7.1
			c0.4,2.1,1,4.2,1.7,6.2c0.5-1.2,1-2.2,1.5-3.1c0.6-1,1.6-2.7,3.6-2.9c0.6-1.6,1.1-3.4,1.6-5.5c0,0,0,0,0,0
			c-3.7-1.6-6.4-3.9-8.3-6.8C63.5,251,63.3,251.6,63.3,251.6z M63.4,139.3c-0.4,2.7-0.6,5.7-0.4,9c0.1,3.7,0.6,7.5,1,11.2
			c0.2,1.7,0.4,3.4,0.6,5.2c0.9-2.6,2.2-5.6,4.6-8.2c0.6-0.9,1.4-1.1,1.8-1.1c0.4,0,1.1,0.1,1.6,0.7c0.3-0.1,0.6-0.2,1-0.2
			c0.3,0,0.5,0,0.8,0.1l0.3,0.1l0.3,0.2c0.8,0.7,1.5,1.4,2.1,2.1c0.5,0.6,1,1.1,1.6,1.6c2.6,2.3,5.8,3.5,9.1,3.5
			c1.8,0,3.6-0.4,5.2-1.2c3-1.4,5.1-3.8,6.7-7.4c1.1-2.5,1.7-5.2,1.6-8.3c0-1.2,0.2-2.4,0.3-3.5c0.1-0.8,0.2-1.6,0.3-2.4
			c0.1-1.4-0.2-2.8-0.7-4.1c-0.3-0.7-1.1-1.2-2-1.3c-2-0.2-4.1-0.3-6.5-0.3c-2.5,0-4.9,0.1-6.8,0.2c-4.3,0.2-8.7,0.6-13,1.1
			c-0.9,0.1-1.8,0.3-2.8,0.5c0.3,0.4,0.6,1,0.6,2c0,0.8,0,1.6,0.1,2.4c0.1,0.8,0.1,1.6,0.1,2.5l0,0.1l0,0.1
			c-0.1,0.6,0.1,1.2,0.2,1.9l0,0.2c0.1,0.3,0.1,0.7,0,1l-0.1,0.4l-0.2,0.3c-0.6,0.9-1.4,1.1-1.9,1.1c-0.6,0-1.5-0.3-2.1-1.5
			c-0.3-0.6-0.5-1.2-0.7-1.8l-0.1-0.3c-1-0.4-1.5-1.5-1.4-2.9c0-0.3,0-0.6-0.1-1c0-0.3-0.1-0.6-0.1-0.9
			C64.1,140,63.7,139.7,63.4,139.3z M66.3,130c-0.3,0.7-0.7,1.4-0.9,2.1c0.1,0,0.2-0.1,0.4-0.1c0.7-0.1,1.4-0.2,2-0.3
			c0-0.3,0.1-0.5,0.1-0.7c0-0.2,0.1-0.5,0.1-0.7c-0.1,0-0.3-0.1-0.4-0.1C67.1,130.2,66.7,130.1,66.3,130z M45.3,41
			c-1.2,0-2.4,0-3.6,0l-2.1,0c-3.5,0-7,0.3-10.3,0.9c-2.5,0.4-4.6,1.2-6.4,2.3c-1,0.7-1.9,1.6-2.7,2.5c-0.7,0.8-0.7,1.8-0.3,3.6
			c0.3,1,1,2,1.7,2.8c1.5,1.8,3.3,3.3,5.2,4.8l0.4,0.3c3.7,3.1,8,6,13.5,9.2c1.3,0.7,2.5,1.5,3.7,2.3c3,1.9,6.2,3.8,9.4,5.3
			c1.8,0.8,3.6,1.7,5.3,2.5c2.1,1,4.3,2.1,6.5,3c2.4,1,4.8,2,7.1,3c1.5,0.6,2.9,1.2,4.4,1.8c1.3,0.6,2.7,1.2,3.9,1.8
			c1.8,0.8,3.5,1.6,5.2,2.3c5.2,1.9,10.8,4,16.2,6.4c6,2.7,12.2,5.1,18.4,7.2c2.4,0.8,4.8,1.7,7.2,2.5c6.3,2.2,12.8,4.5,19.3,6.2
			c1.8,0.5,3.6,1.1,5.4,1.7c1.6,0.6,3.2,1.1,4.8,1.6c3.4,0.9,6.7,1.9,10,2.9c3,0.9,6.1,1.8,9.1,2.6c5.3,1.4,10.7,2.3,14.8,2.9
			c3,0.4,6,1.1,8.9,1.7c1.5,0.3,3,0.6,4.5,0.9c3.3,0.6,6.8,0.9,10,1.1l0.2,0c0.3,0,0.6,0,0.8,0.1c2.7,0.4,5.5,0.6,8.4,0.6
			c2.7,0,5.5-0.2,8.6-0.5c2.1-0.2,4.1-1,6.4-2.5c2.1-1.3,1.1-3.7,0.9-4.2c-0.9-2-2.3-4-4.2-5.9l-1-1.1c-2.8-2.8-5.4-5.5-8.5-7.7
			c-0.8-0.5-1.3-1.2-1.5-1.9l-0.1-0.4l0-0.4c0,0,0,0,0,0c0,0-0.1-0.1-0.3-0.3c-0.1-0.1-0.1-0.1-0.2-0.2c-0.1,0-0.2,0-0.3,0l-0.2,0
			l-0.2,0c-1.2-0.2-2-1-2.5-1.5c-0.1-0.1-0.3-0.3-0.4-0.4c-3.7-3-7.7-5.7-11.5-8.2c-2.7-1.8-5.5-3.6-8.6-5.5
			c-2,3.6-4.2,7.1-6.1,10.2c-0.1,0.2-0.2,0.3-0.3,0.5c-0.1,0.1-0.2,0.3-0.3,0.4c-1.2,2.1-3,3.4-5.7,4.2c-4,1.2-8,1.8-12,1.8
			c-0.9,0-1.7,0-2.6-0.1c-3.5-0.2-6.9-0.8-10.9-1.6l-1.1-0.2c-5.7-1.1-11.7-2.3-17.4-4c-2-0.6-4-1.2-6-1.7
			c-5.6-1.6-11.3-3.2-16.8-5.5l-0.3-0.1c-2.6-1.1-5.3-2.3-7.9-3.6c-1-0.5-2-1-3.1-1.5c-3.5-1.8-7.2-3.6-10.7-5.5
			c-4.8-2.6-9-5.3-12.6-8.2c-2.4-1.9-4.6-4.3-6.9-7.7c-1.2-1.7-1.4-3.7-1.6-5.5l-0.1-1.3c-0.2-2.1-0.5-4.3-0.4-6.5
			c0-2.1,0.3-4.2,0.5-6.1l0-0.2c-3.6-1-7.3-1.8-11-2.3c-1.9-0.3-4-0.5-5.9-0.7c-1.6-0.2-3.1-0.3-4.7-0.5C52.8,41.1,48.8,41,45.3,41z
			"/>
		<path class="st0" d="M118.5,3.5c2.9,0,5.8,0.2,8.7,0.4c7.9,0.7,15.7,2.4,23.4,4.7c6.9,2,13.6,4.3,20,7.6
			c10.6,5.5,19.9,12.9,27.8,21.8c2.3,2.5,4.5,5.2,6.1,8.2c0.2,0.3,0.3,0.7,0.5,1c0.6,1.6,1.4,3.2,1.7,4.9c0.6,2.7,0.8,5.5,0.6,8.2
			c-0.1,1.9-0.3,3.9-0.7,5.8c-0.7,3.5-1.6,7-3.1,10.3c-0.1,0.3-0.3,0.4-0.6,0.6c-1.3,0.7-2.6,1.3-2.8,3c-0.1,0.4-0.3,0.7-0.7,0.9
			c-0.7,0.3-0.6,0.8-0.2,1.4c0.2,0.3,0.4,0.5,0.7,0.7c0.8,0.6,1.6,1.2,2.4,1.8c1.4,1,2.7,2,4.4,2.6c1.9,0.6,3.6,2,5.4,3
			c4.5,2.6,8.4,6.1,12.1,9.7c0.2,0.2,0.4,0.4,0.5,0.6c0.2,0.4,0,0.6-0.4,0.6c-0.9-0.2-1.5-0.9-2.2-1.5c-3.7-3-7.6-5.7-11.6-8.3
			c-3.1-2-6.2-4-9.3-5.9c-0.3-0.2-0.5-0.3-0.7-0.3c-0.3,0-0.5,0.2-0.7,0.6c-2,3.7-4.2,7.2-6.4,10.8c-0.2,0.3-0.4,0.6-0.6,0.9
			c-1.1,1.8-2.7,2.8-4.7,3.4c-3.8,1.1-7.6,1.7-11.5,1.7c-0.8,0-1.7,0-2.5-0.1c-3.6-0.2-7.1-0.9-10.7-1.6c-6.2-1.2-12.3-2.4-18.3-4.2
			c-7.6-2.3-15.3-4-22.6-7.2c-2.7-1.2-5.4-2.3-8.1-3.6c-4.6-2.3-9.2-4.6-13.7-7c-4.3-2.4-8.5-5-12.4-8.1c-2.6-2.1-4.7-4.6-6.6-7.3
			c-1-1.4-1.1-3.2-1.3-4.9c-0.3-2.4-0.6-4.8-0.5-7.3c0-2.3,0.3-4.5,0.6-6.8c0.1-0.7-0.1-1-0.8-1.2c-3.9-1.1-7.8-1.9-11.8-2.5
			c-3.5-0.5-7.1-0.8-10.6-1.2c-3.9-0.5-7.9-0.6-11.8-0.6c-1.9,0-3.8,0-5.7,0c-3.6,0-7.1,0.3-10.6,0.9c-2.5,0.4-4.9,1.2-7,2.6
			c-1.2,0.8-2.2,1.8-3.1,2.9c-1.3,1.6-1.1,3.4-0.6,5.2c0.3,1.3,1.2,2.4,2.1,3.5c1.7,2.1,3.8,3.7,5.9,5.4c4.3,3.5,9,6.6,13.7,9.4
			c4.4,2.6,8.6,5.6,13.4,7.7c4,1.7,7.8,3.9,11.8,5.6c3.8,1.6,7.6,3.2,11.5,4.8c3.1,1.3,6.1,2.9,9.2,4.1c5.4,2,10.8,4,16,6.4
			c6.1,2.7,12.3,5.2,18.6,7.3c8.9,3,17.6,6.4,26.7,8.7c3.4,0.9,6.7,2.3,10.2,3.3c6.4,1.7,12.7,3.8,19.1,5.5c4.9,1.3,10,2.2,15,2.9
			c4.5,0.6,8.9,1.7,13.3,2.6c3.4,0.7,6.8,0.9,10.2,1.1c0.3,0,0.6,0,0.9,0.1c2.9,0.5,5.8,0.7,8.7,0.7c2.9,0,5.9-0.2,8.8-0.5
			c2.6-0.3,4.9-1.4,7.1-2.8c2.4-1.5,2.5-4.3,1.6-6.4c-1.1-2.4-2.7-4.5-4.6-6.4c-3.1-3.2-6.1-6.4-9.7-9c-0.4-0.3-0.7-0.6-0.9-1.1
			c0.1-0.7-0.3-1.1-0.7-1.6c-2.9-3-6-5.9-9.3-8.5c-0.3-0.2-1-0.5-0.6-1c0.1-0.1,0.2-0.1,0.2-0.1c0.3,0,0.6,0.4,0.8,0.5
			c4.2,2.7,8.1,5.8,12.1,8.9c1.6,1.3,3.1,2.7,4.6,4.1c3.8,3.6,7.4,7.4,10.8,11.4c1.1,1.3,1.6,3,1.7,4.7c0.2,2.2-0.3,4.3-1.5,6.2
			c-0.7,1.1-1.8,1.7-2.9,2.2c-3.5,1.8-7.3,2.7-11.1,3.3c-2.3,0.4-4.5,0.5-6.8,0.5c-2.8,0-5.6-0.2-8.3-0.5c-0.2,0-0.4,0-0.5,0
			c-0.5,0-0.6,0.2-0.5,1c1.2,7.3,0.1,14.5-2.3,21.4c-3.1,8.7-7.5,16.7-13.8,23.6c-3.8,4.1-7.8,8-12.7,10.8c-0.8,0.4-0.9,0.8-0.6,1.7
			c1.3,3.6,1.6,7.4,1.9,11.2c0.4,4.5-0.3,8.8-2.3,12.9c-0.8,1.7-2,3.3-3.1,4.8c-0.2,0.3-0.5,0.5-0.3,0.9c1.5,3.6,2.2,7.3,3.2,11
			c1.6,5.9,2.9,11.8,3.7,17.9c0.7,6,0.2,12-0.7,18c-1.1,7.7-4.2,14.6-8.5,21c-3.4,5.1-6.9,10-10.8,14.8c-0.5,0.7-0.5,1.1,0,1.7
			c1,1.2,1.8,2.5,2.7,3.7c1.3,1.9,1.3,3.8,0.1,5.7c-1.8,3-4.3,5.3-6.9,7.6c-0.7,0.6-0.7,1-0.2,1.6c1,1.3,1,2.6,0.2,4.1
			c-1.9,3.8-4.4,7.1-7.7,9.8c-3.4,2.8-6.7,5.8-10.5,8c-0.5,0.3-0.4,0.6-0.3,1c0.5,3.6,1.4,7.1,2.3,10.7c0.8,3.4,1.3,6.8,1.6,10.3
			c0.2,3.2,0.7,6.4,1.1,9.7c0.3,2.5,0.6,5.1,0.8,7.6c0.3,4.2,0.5,8.4,0.8,12.7c0.4,4.6,0.7,9.3,1,13.9c0.1,1.3-0.1,2.5,0,3.8
			c0.3,5.9,0.3,11.8,0.2,17.7c0,1.1,0,2.3-0.2,3.4c-0.1,0.6,0.1,0.8,0.5,0.8c0.1,0,0.2,0,0.4,0c4.2-0.8,8.4-1.5,12.5-2.6
			c2.2-0.6,4.3-1,6.5-1.5c0.2,0,0.4-0.1,0.6-0.1c0.2,0,0.4-0.1,0.5-0.1c0.5,0,1,0.2,1.3,0.6c0.5,0.7,0.4,1.3,0.1,2
			c-2.8,5.4-5.6,10.7-9.3,15.5c-0.2,0.3-0.5,0.7-0.9,1.2c0.9-0.1,1.6-0.1,2.4-0.2c0.6,0,1.2-0.1,1.8-0.1c4.4,0,8.5,1.3,12.2,3.8
			c2.7,1.8,4.1,4.7,4.8,7.8c1.8,7.9,0.7,15.5-2.8,22.8c-2.1,4.3-5.7,6.2-10.3,6.7c-6.9,0.9-13.8,1.3-20.7,1.3
			c-3.5,0-6.9-0.1-10.4-0.3c-6.3-0.3-12.6-1-18.9-1.8c-1.8-0.2-2.3-0.8-2.4-2.7c-0.1-9.2-2.2-18.1-5.2-26.7
			c-0.6-1.6-1.1-3.2-1.7-4.7c-0.3-0.7-0.3-1.4,0.3-2c0.3-0.4,0.7-0.5,1.2-0.5c0.3,0,0.6,0.1,0.8,0.2c0.8,0.3,1.7,0.6,2.5,0.9
			c0.2,0.1,0.4,0.2,0.5,0.2c0.1,0,0.1,0,0.2-0.1c0.2-0.2,0-0.5,0-0.8c-0.7-2.7-1.7-5.2-2.8-7.7c-0.5-1.1-1-2.1-1.4-3.2
			c-0.6-1.5-0.1-2.6,1.6-2.8c1.1-0.1,2.2-0.3,3.4-0.3c0.9,0,1.1-0.3,0.8-1.2c-3.6-9.9-7.1-19.9-10.4-29.9
			c-5.3-16.1-10.1-32.3-14.6-48.6c-0.2-0.8-0.4-1.6-0.5-2.4c-0.1-0.7-0.4-0.9-1-1c-2.3-0.2-4.7-0.4-7-0.6c0,0-0.1,0-0.1,0
			c-0.4,0-0.5,0.2-0.6,0.5c-1.1,3.6-2.2,7.2-2.8,11c-1.1,6.7-2.2,13.4-3.2,20.1c-0.7,4.9-1.4,9.8-1.9,14.8
			c-0.9,7.5-1.7,14.9-2.4,22.4c-0.5,5.4-0.9,10.8-1.4,16.2c-0.1,0.6,0.1,0.9,0.7,1c1.6,0.4,3.3,0.8,4.9,1.2c1,0.3,1.5,0.8,1.5,1.9
			c-0.1,4.3-1.5,8.2-3,12.1c-0.1,0.3-0.5,0.7-0.3,0.9c0.1,0.1,0.2,0.1,0.3,0.1c0.2,0,0.5-0.1,0.7-0.2c1.2-0.2,2.4-0.5,3.5-0.7
			c0.4-0.1,0.9-0.2,1.3-0.2c0.5,0,1,0.2,1.4,0.7c0.7,1,0.1,1.8-0.5,2.6c-2.3,3.5-4.4,7.1-6.1,10.9c-2.1,4.7-3,9.7-2.4,14.8
			c0.2,1.5-0.3,2-1.9,2.5c-5.1,1.6-10.3,2.6-15.6,3.2c-5.9,0.7-11.7,1.1-17.6,1.1c-1.1,0-2.2,0-3.3,0c-5.3-0.1-10.7-0.5-15.9-2
			c-6.4-1.9-10.2-6.4-11-13.2c-1.2-10.1,5-19.6,14.6-22.7c2-0.6,4-0.9,5.9-0.9c2,0,4.1,0.3,6.1,0.8c0.2,0,0.3,0.1,0.5,0.1
			c0,0,0,0,0,0c0,0,0.1,0,0.1-0.1c0.1-0.4-0.1-0.7-0.3-1c-3.4-8.9-8.1-17.1-12.8-25.3c-0.4-0.8-0.9-1.5-1.3-2.3
			c-0.4-0.7-0.6-1.5,0.1-2.2c0.3-0.4,0.7-0.5,1.1-0.5c0.3,0,0.7,0.1,1,0.3c4,1.8,8,3.5,12.1,5.2c0.4,0.2,0.7,0.3,0.9,0.3
			c0.3,0,0.2-0.3,0.2-1.1c-1.5-16.2-2.3-32.4-2.2-48.7c0.1-7.9,0.4-15.8,1-23.7c0.3-4.2,0.7-8.4,1.1-12.6c0.1-0.6-0.1-1-0.6-1.2
			c-1.3-0.5-2.4-1.3-3.7-1.8c-0.8-0.3-1.2-0.9-1-1.8c0.3-1.4,0.5-2.8,0.9-4.1c1.6-5.6,3.4-11.2,6.5-16.2c0.4-0.6,0.3-0.9-0.3-1.3
			c-3.9-2.3-7.2-5.2-10.3-8.4c-1.2-1.3-2.4-2.5-3.4-4c-1.3-2-1.3-3.9-0.2-6.1c2-3.6,4.7-6.7,7.2-9.8c0.4-0.5,0.5-0.9,0.4-1.6
			c-0.6-3.6-1.1-7.2-1.4-10.8c-0.2-2.6-0.3-5.3-0.4-7.9c-0.1-4.2,0-8.5,0.3-12.7c0.2-3.4,1.2-6.7,2-10c1.6-6,3.5-11.9,6.9-17.2
			c4-6.4,9.2-11.9,14.7-17.1c4.8-4.5,9.8-8.7,15-12.7c0.7-0.5,0.8-0.8,0-1.3c-6-4-8.8-9.8-9.1-16.8c-0.3-6.2,0.4-12.4,2.3-18.4
			c1-3.1,2.3-6.1,4.6-8.5c0.1-0.3,0.3-0.4,0.4-0.4c0.2,0,0.3,0.1,0.5,0.4c0.1,0.2,0.2,0.5,0.4,0.7c0.2,0.4,0.4,0.6,0.6,0.6
			c0.2,0,0.3-0.2,0.5-0.5c0.2-0.3,0.3-0.6,0.7-0.6c0.1,0,0.2,0,0.3,0c1.3,1.1,2.4,2.5,3.6,3.6c2.9,2.6,6.6,4,10.2,4
			c2,0,4.1-0.4,6-1.3c3.7-1.8,6-4.7,7.6-8.3c1.3-2.9,1.8-5.9,1.8-9c0-2,0.5-3.9,0.6-5.8c0.1-1.7-0.3-3.3-0.9-4.8
			c-0.6-1.4-2-2.3-3.5-2.4c-2.2-0.2-4.4-0.3-6.6-0.3c-2.3,0-4.6,0.1-6.8,0.2c-4.4,0.2-8.7,0.6-13.1,1.1c-1.9,0.2-3.8,0.8-5.8,1
			c-0.3,0-0.6,0.2-0.8,0.4c-0.5,0.5-0.4,1,0.2,1.3c0.3,0.2,0.7,0.2,1.1,0.2c0.1,0,0.2,0,0.3,0c0,0,0,0,0,0c0.8,0,1.2,0.3,1.2,1.2
			c-0.1,1.7,0.3,3.3,0.2,5c-0.1,0.9,0.1,1.7,0.3,2.6c0,0.1,0,0.2,0,0.3c-0.2,0.2-0.3,0.3-0.4,0.3c-0.2,0-0.4-0.3-0.5-0.5
			c-0.2-0.5-0.4-1-0.6-1.5c-0.2-0.6-0.2-1.1-1-1.4c-0.4-0.1-0.4-0.8-0.4-1.2c0.1-1-0.3-1.9-0.2-2.9c0-0.3-0.1-0.6-0.4-0.6
			c-0.9-0.1-1.4-0.8-1.8-1.4c-0.9-2.3-0.4-3.2,1.9-3.6c0.8-0.2,1.6-0.2,2.3-0.3c0.6-0.1,1-0.3,1-1c0-1,0.5-2.2,0.1-3
			c-0.4-0.9-1.8-0.7-2.7-1.1c-0.5-0.2-0.8-0.3-1.1-0.3c-0.4,0-0.6,0.3-1,1.2c-3,6.1-3.8,12.5-3.5,19.2c0.2,6.1,1.2,12.1,1.7,18.1
			c0.8,9.2-2.5,16.8-9,23.1c-6.3,6.1-14,9.2-22.7,9.8c-0.1,0-0.2,0-0.3,0c-0.1,0-0.1,0-0.2,0c-0.8,0-1.5-0.2-1.9-1.1
			c-0.4-0.9,0.1-1.6,0.8-2.2c1.5-1.3,2.9-2.8,4.3-4.3c2.2-2.5,4-5.3,5.3-8.4c1.6-3.6,1.7-7.2,0.4-11c-2.4-7.1-6.5-13.1-11.4-18.8
			c-4.3-5-8.8-9.8-12.6-15.2c-5.7-8.1-9.3-17-11.1-26.8c-0.9-4.7-1.2-9.5-0.9-14.3C4,91.5,5.9,86,8.3,80.6c3.2-7,7.6-13.2,13.6-18.2
			c0.7-0.6,0.3-0.8-0.1-1.1c-3.1-2.6-5.7-5.7-7.1-9.5c-1.6-4.3-0.1-8.4,3.8-11c3.9-2.5,8.2-3.7,12.6-4.5c3.4-0.6,6.7-0.9,10.1-0.9
			c0.1,0,0.2,0,0.3,0c11.6,0.1,23.2,1.1,34.7,3.2c1.5,0.3,3,0.3,4.4,0.7c0.1,0,0.2,0.1,0.3,0.1c0.4,0,0.5-0.3,0.6-0.7
			c0.3-1.1,0.5-2.3,0.9-3.4c1.7-5.1,3.1-10.3,5.9-14.9c2.1-3.5,4.9-6.6,7.9-9.4c0.5-0.4,1-0.8,1.6-1.2c0.9-0.4,1.6-1.1,2.2-1.9
			c0.2-0.3,0.6-0.5,0.9-0.8c2.7-1.6,5.6-2.6,8.6-3C112.6,3.7,115.5,3.5,118.5,3.5 M70.1,123.4c0.5,0,0.6-0.5,0.6-2.2
			c-0.7,0.6-1.2,1.1-1.7,1.8C69.5,123.2,69.8,123.4,70.1,123.4 M139.6,280.7c0.5-0.2,1-0.4,1.4-0.6c2.3-1,4.6-2.1,6.7-3.5
			c4.9-3.2,7.8-8,10.4-13c1.7-3.3,2.5-6.9,3.2-10.5c0.9-4.2,0.4-8.5,0.1-12.8c-0.1-0.8,0-1.7-0.4-2.7c-0.3,0.3-0.5,0.5-0.6,0.8
			c-5.2,7.1-9.9,14.6-14.4,22.1c-2,3.3-3.5,6.9-5.3,10.4c-0.9,1.7-2.1,3.4-1.1,5.4c0.1,0.2,0,0.4,0,0.6
			C139.6,278.2,139.6,279.4,139.6,280.7 M65.7,275.5C65.7,275.5,65.7,275.5,65.7,275.5c0.4-0.1,0.3-0.5,0.3-0.8
			c-0.3-2.8,0.7-5.4,2.1-7.7c0.6-1,1.2-2.1,2.6-2.1c0.1,0,0.3,0,0.4,0c0,0,0.1,0,0.1,0c0.4,0,0.4-0.4,0.5-0.7c0.7-2,1.3-4.1,1.8-6.2
			c0.4-1.5,0.3-1.5-1-2.1c-3.6-1.6-6.5-3.9-8.3-7.4c-0.5-1-0.9-2-1.4-3.1c-0.7,1.8-0.7,3.7-1.1,5.5c-0.4,1.6-0.7,3.3-0.7,4.9
			c0.1,2.5,0.2,5,0.7,7.4c0.8,4,2.2,7.8,3.5,11.6C65.3,275.1,65.5,275.5,65.7,275.5 M118.5,0L118.5,0c-3.3,0-6.4,0.2-9.4,0.6
			c-3.5,0.5-6.9,1.7-10,3.5L99,4.2l-0.2,0.1l-0.1,0.1c-0.4,0.3-1,0.7-1.5,1.4c-0.3,0.5-0.6,0.6-0.8,0.7l-0.3,0.1l-0.3,0.2
			c-0.1,0.1-0.3,0.2-0.4,0.3c-0.4,0.3-0.9,0.6-1.4,1.1c-3.6,3.3-6.4,6.6-8.5,10.2c-2.6,4.4-4.1,9.1-5.6,13.6
			c-0.2,0.7-0.4,1.4-0.7,2.1c-0.1,0.4-0.2,0.8-0.4,1.2c-0.2,0-0.3,0-0.5-0.1c-0.5-0.1-1.1-0.1-1.5-0.2c-11.5-2.1-23.3-3.2-35.3-3.3
			l-0.3,0c-3.5,0-7.1,0.3-10.7,1c-5.9,1-10.2,2.6-13.9,5c-5.3,3.5-7.3,9.3-5.2,15.1c1.2,3.2,3.1,6.2,5.8,8.9
			c-4.9,4.7-8.9,10.4-12.1,17.3C2,86,0.4,91.6,0.1,97.3c-0.3,5,0,10.1,0.9,15.2c1.9,10.5,5.8,20,11.6,28.2c3.1,4.3,6.6,8.3,9.9,12.1
			c1,1.1,2,2.2,2.9,3.3c5.4,6.2,8.8,11.8,10.7,17.6c1,3,0.9,5.7-0.3,8.5c-1.1,2.6-2.7,5.1-4.8,7.5c-1.3,1.5-2.6,2.8-3.9,4
			c-2.8,2.4-2.1,5.1-1.7,6.1c0.4,1,1.7,3.3,5.1,3.3c0.1,0,0.2,0,0.3,0c0,0,0,0,0,0c0.1,0,0.3,0,0.4,0c9.8-0.7,18.2-4.3,24.9-10.8
			c1.5-1.5,2.9-3,4.1-4.6c0.8,5.9,3.3,10.7,7.5,14.4c-4.4,3.5-8.6,7.1-12.5,10.8c-4.7,4.4-10.6,10.4-15.2,17.8
			c-3.8,6-5.8,12.6-7.3,18.2l-0.2,0.8c-0.8,3.2-1.7,6.4-2,9.9c-0.3,4.6-0.4,8.9-0.3,13c0.1,2.2,0.2,5.1,0.4,8
			c0.3,3.4,0.7,6.9,1.3,10.4c-0.4,0.4-0.7,0.9-1.1,1.3c-2.1,2.6-4.3,5.3-6,8.5c-1.8,3.3-1.7,6.5,0.3,9.6c1.1,1.8,2.5,3.2,3.8,4.5
			l0,0c3.1,3.2,6,5.7,8.9,7.7c-2.6,4.8-4.2,10-5.6,14.8c-0.3,1.1-0.5,2.2-0.7,3.3c-0.1,0.4-0.1,0.7-0.2,1.1
			c-0.5,2.6,0.8,4.9,3.3,5.8c0.4,0.1,0.9,0.4,1.5,0.7c0.1,0.1,0.2,0.1,0.3,0.2l0,0.4c-0.3,3.5-0.7,7.1-0.9,10.7
			c-0.6,9-0.9,16.8-1,23.9c-0.1,13.8,0.5,28.4,1.9,44.4c-2.6-1.1-5.2-2.3-7.8-3.4c-0.8-0.4-1.6-0.5-2.4-0.5c-1.4,0-2.7,0.6-3.7,1.6
			c-1.6,1.8-1.8,4.1-0.5,6.3l0.1,0.2c0.4,0.7,0.8,1.4,1.2,2.1l0.2,0.3c3.7,6.4,7.5,13.1,10.5,19.9c-0.4,0-0.9,0-1.3,0
			c-2.4,0-4.7,0.4-7,1.1c-11.2,3.6-18.4,14.7-17,26.4c0.9,8.1,5.7,13.8,13.5,16.1c5.6,1.7,11.4,2,16.8,2.2c1.1,0,2.3,0,3.4,0
			c5.8,0,11.7-0.4,18-1.2c5.9-0.7,11.2-1.8,16.2-3.4c3.3-1,4.7-3.1,4.4-6.3c-0.5-4.4,0.2-8.7,2.1-13c1.5-3.3,3.4-6.7,5.8-10.5
			l0.1-0.2c0.6-0.9,2.3-3.5,0.3-6.4c-1-1.4-2.5-2.2-4.2-2.2c-0.2,0-0.4,0-0.6,0c0.8-2.7,1.4-5.5,1.5-8.5c0.1-2.7-1.5-4.8-4.2-5.4
			c-0.7-0.2-1.3-0.3-2-0.5c-0.2-0.1-0.5-0.1-0.7-0.2c0.1-1.3,0.2-2.6,0.3-3.9c0.3-3.3,0.5-6.7,0.9-10c0.7-7,1.5-14.3,2.4-22.3
			c0.6-5.3,1.2-10.1,1.9-14.7c0.7-4.8,1.5-9.7,2.2-14.4c0.3-1.9,0.6-3.8,0.9-5.6c0.4-2.8,1.2-5.5,2-8.4c1,0.1,2,0.2,3,0.2
			c0.1,0.3,0.2,0.6,0.3,1c5.1,18.1,9.9,34.1,14.7,48.7c2.9,8.7,6,17.8,9.3,26.8c0,0-0.1,0-0.1,0c-2.6,0.3-3.8,1.8-4.3,2.6
			c-0.5,0.8-1.1,2.6-0.1,5c0.2,0.5,0.5,1.1,0.7,1.6c0.2,0.5,0.5,1,0.7,1.6c0.3,0.8,0.7,1.7,1,2.5c-1.1,0.2-2.1,0.7-2.8,1.5
			c-0.7,0.7-2.1,2.7-1,5.7c0.6,1.5,1.1,3.1,1.7,4.7c3.3,9.1,4.9,17.5,5,25.6c0.1,3.6,1.9,5.6,5.4,6.1c6.8,0.9,13.1,1.5,19.2,1.8
			c3.6,0.2,7.1,0.3,10.6,0.3c7.3,0,14.4-0.4,21.1-1.3c6.3-0.8,10.6-3.6,13-8.7c3.9-8.1,5-16.6,3.1-25.1c-1-4.5-3.1-7.8-6.3-9.9
			c-3.5-2.4-7.4-3.8-11.5-4.2c2.4-3.8,4.5-7.7,6.4-11.4c1-2,0.9-4.1-0.4-5.8c-1-1.3-2.4-2-4.1-2c-0.4,0-0.7,0-1.1,0.1l-0.1,0
			c-0.2,0-0.4,0.1-0.7,0.1c-0.7,0.1-1.3,0.3-2,0.4c-1.5,0.3-3.1,0.7-4.7,1.1c-2.9,0.8-5.8,1.3-8.8,1.9c0,0,0,0,0,0
			c0.1-5.7,0.1-11.9-0.2-17.9c0-0.5,0-1,0-1.6c0-0.7,0-1.4,0-2.2c-0.3-5.1-0.6-9.7-1-14.1c-0.2-2.4-0.4-4.8-0.5-7.1
			c-0.1-1.8-0.2-3.6-0.3-5.5c-0.1-1.9-0.4-3.8-0.6-5.6c-0.1-0.7-0.2-1.4-0.3-2.1c-0.1-1-0.2-2.1-0.4-3.1c-0.3-2.2-0.5-4.3-0.7-6.4
			c-0.2-3.8-0.8-7.4-1.7-10.9c-0.7-2.9-1.5-5.9-2-8.8c2.7-1.7,5.1-3.8,7.5-5.8c0.6-0.5,1.3-1.1,1.9-1.6c3.4-2.8,6.2-6.4,8.5-10.9
			c1.2-2.4,1.1-4.4,0.6-5.9c2.2-2,4.5-4.3,6.2-7.2c1.9-3.2,1.8-6.6-0.3-9.6l-0.4-0.6c-0.5-0.6-0.9-1.3-1.4-2
			c3.2-4.1,6.5-8.6,9.9-13.7c5-7.4,7.9-14.8,9-22.5c0.8-5.5,1.5-12.1,0.7-18.9c-0.7-5.7-1.9-11.7-3.8-18.4c-0.3-1-0.5-2-0.8-3
			c-0.6-2.3-1.2-4.6-2-7c1-1.4,1.9-2.8,2.7-4.4c2.2-4.6,3.1-9.5,2.6-14.7l-0.1-0.8c-0.3-3.1-0.6-6.3-1.5-9.6
			c4.8-3,8.6-6.8,12.1-10.6c6.3-6.8,11-14.9,14.6-24.8c2.5-6.9,3.4-13.4,2.9-19.8c1.7,0.1,3.6,0.2,5.4,0.2c2.7,0,5.1-0.2,7.4-0.6
			c3.7-0.6,8.1-1.5,12.2-3.6l0.1-0.1c1.3-0.6,3-1.5,4.1-3.4c1.5-2.5,2.2-5.3,2-8.2c-0.2-2.7-1.1-5-2.6-6.7
			c-3.1-3.7-6.7-7.4-11.1-11.6l-0.1-0.1c-1.5-1.4-3-2.9-4.8-4.3c-4.4-3.5-8.2-6.3-12.2-9c-0.4-0.3-1.4-1.2-2.8-1.2
			c-0.1,0-0.1,0-0.2,0c-0.8-0.5-1.6-1-2.4-1.5c-0.5-0.3-1-0.6-1.5-0.9c-1.3-0.9-2.8-1.8-4.6-2.4c-0.9-0.3-1.7-0.9-2.6-1.5
			c-0.3-0.2-0.5-0.4-0.8-0.6c-0.3-0.2-0.6-0.4-0.9-0.6c0.1-0.2,0.1-0.4,0.2-0.6c0.2-0.1,0.5-0.3,0.8-0.4l0.2-0.1
			c1-0.5,1.7-1.3,2.2-2.3c1.5-3.3,2.6-6.9,3.3-11c0.4-2,0.6-4.1,0.7-6.3c0.1-3.1-0.1-6.2-0.7-9.1c-0.3-1.7-1-3.2-1.5-4.5
			c-0.1-0.3-0.3-0.7-0.4-1l0-0.1l0-0.1l-0.1-0.3c-0.1-0.3-0.3-0.6-0.4-0.9c-1.8-3.4-4.2-6.3-6.6-8.9c-8.3-9.4-18-17-28.8-22.6
			c-7-3.6-14.3-6-20.6-7.8c-9.1-2.7-16.7-4.2-24-4.8C124.1,0.1,121.2,0,118.5,0L118.5,0z M224.5,126.3c-2.9,0-5.6-0.2-8.2-0.6
			c-0.4-0.1-0.8-0.1-1-0.1c-0.1,0-0.1,0-0.2,0c-3.2-0.2-6.5-0.5-9.8-1.1c-1.5-0.3-3-0.6-4.4-0.9c-2.9-0.6-6-1.3-9.1-1.7
			c-4.1-0.6-9.4-1.4-14.6-2.8c-3-0.8-6.1-1.7-9.1-2.6c-3.3-1-6.6-2-10-2.9c-1.5-0.4-3.1-0.9-4.7-1.5c-1.8-0.6-3.6-1.3-5.5-1.7
			c-6.5-1.7-12.9-3.9-19.2-6.1c-2.4-0.8-4.8-1.7-7.2-2.5c-6.2-2.1-12.3-4.5-18.2-7.2c-5.4-2.4-11-4.6-16.3-6.5
			c-1.7-0.6-3.3-1.4-5.1-2.2c-1.3-0.6-2.6-1.2-4-1.8c-1.5-0.6-2.9-1.2-4.4-1.8c-2.3-1-4.7-2-7.1-3c-2.1-0.9-4.2-1.9-6.4-3
			c-1.7-0.9-3.5-1.7-5.4-2.6c-3.2-1.4-6.1-3.2-9.2-5.2c-1.2-0.8-2.5-1.6-3.8-2.3c-5.4-3.2-9.6-6.1-13.3-9.1L28,56.7
			c-1.9-1.5-3.6-2.9-5-4.6c-0.6-0.7-1.2-1.5-1.4-2.1c-0.4-1.7-0.2-1.9-0.1-2.1c0.7-0.8,1.4-1.6,2.2-2.1c1.6-1,3.5-1.7,5.7-2.1
			c3.2-0.6,6.6-0.8,10.1-0.9c0.7,0,1.4,0,2.2,0c1.2,0,2.4,0,3.6,0c3.4,0,7.4,0.1,11.4,0.6c1.6,0.2,3.2,0.4,4.7,0.5
			c1.9,0.2,3.9,0.4,5.8,0.7c3.1,0.5,6.3,1.1,9.3,1.9c-0.2,1.6-0.3,3.3-0.4,5c0,2.3,0.2,4.6,0.4,6.7l0.1,1l0,0.3
			c0.2,1.9,0.4,4.2,1.9,6.3c2.4,3.5,4.7,6,7.3,8c3.7,3,7.9,5.7,12.9,8.4c3.6,1.9,7.2,3.8,10.8,5.5c1,0.5,2,1,3.1,1.5
			c2.6,1.3,5.3,2.5,8,3.6l0.3,0.1c5.6,2.4,11.4,4,17,5.6c2,0.6,4,1.1,6,1.7c5.8,1.7,11.8,2.9,17.6,4.1l1.1,0.2
			c4.1,0.8,7.6,1.4,11.1,1.6c0.9,0.1,1.8,0.1,2.7,0.1c4.2,0,8.4-0.6,12.5-1.8c3.1-0.9,5.3-2.5,6.7-5c0.1-0.1,0.2-0.2,0.2-0.4
			c0.1-0.2,0.2-0.3,0.3-0.5c1.6-2.6,3.4-5.5,5.2-8.6c2.5,1.6,4.8,3,7,4.5c3.7,2.4,7.7,5.1,11.3,8.1c0.1,0.1,0.2,0.2,0.3,0.3
			c0.6,0.6,1.7,1.6,3.4,1.9l0,0.1c0.4,1.1,1.1,1.9,2.2,2.7c3,2.1,5.5,4.7,8.2,7.5l1.1,1.1c1.8,1.8,3,3.6,3.9,5.4
			c0.2,0.5,0.5,1.5-0.3,2c-2,1.3-3.8,2-5.6,2.2C229.9,126.1,227.1,126.3,224.5,126.3L224.5,126.3z M72.4,138.1
			c0.2,0,0.5-0.1,0.7-0.1c4.3-0.5,8.6-0.9,12.8-1.1c1.8-0.1,4.3-0.2,6.7-0.2c2.3,0,4.4,0.1,6.3,0.3c0.3,0,0.6,0.2,0.6,0.3
			c0.4,1.1,0.7,2.2,0.6,3.3c0,0.7-0.1,1.4-0.3,2.2c-0.2,1.1-0.4,2.4-0.3,3.8c0,2.8-0.4,5.2-1.5,7.5c-1.5,3.3-3.3,5.3-5.9,6.6
			c-1.4,0.7-2.9,1-4.5,1c-2.9,0-5.7-1.1-7.9-3.1c-0.5-0.4-1-0.9-1.5-1.5c-0.7-0.7-1.4-1.5-2.3-2.2l-0.5-0.4l-0.6-0.2
			c-0.5-0.2-0.9-0.2-1.4-0.2c-0.2,0-0.4,0-0.7,0.1c-0.8-0.5-1.5-0.5-2-0.5c-0.6,0-2.1,0.2-3.2,1.7c-0.8,0.9-1.6,1.9-2.2,2.8
			c-0.4-3.3-0.7-6.6-0.8-9.9c0-0.7,0-1.4,0-2c0,0,0,0,0,0c0.2,0.5,0.4,1.1,0.7,1.6c1.1,2.3,2.9,2.6,3.7,2.6c0.8,0,2.2-0.2,3.3-1.9
			l0.4-0.6l0.1-0.7c0.1-0.5,0.1-1,0-1.6l0-0.2c-0.1-0.5-0.2-1.1-0.2-1.3l0-0.2l0-0.2c0-1-0.1-1.9-0.1-2.7c-0.1-0.8-0.1-1.5-0.1-2.2
			C72.5,138.6,72.5,138.4,72.4,138.1L72.4,138.1z M143,275.3c0-0.1-0.1-0.2-0.1-0.3c-0.1-0.2,0.1-0.7,0.7-1.7
			c0.1-0.2,0.2-0.5,0.4-0.7c0.6-1.2,1.3-2.5,1.8-3.7c1.1-2.3,2.1-4.4,3.4-6.5c2.6-4.3,5.8-9.5,9.4-14.8c0,1.7-0.1,3.3-0.4,4.8l0,0.1
			c-0.7,3.4-1.4,6.6-2.9,9.4c-2.3,4.4-5,8.9-9.3,11.7C144.9,274.3,143.9,274.8,143,275.3L143,275.3z M65.5,264.4
			c-0.1-0.6-0.3-1.2-0.4-1.8c-0.4-2.3-0.6-4.8-0.6-6.9c0-0.3,0-0.6,0-0.9c1.5,1.4,3.2,2.7,5.2,3.7c-0.3,1.1-0.6,2.2-0.9,3.1
			C67.2,262.2,66.2,263.5,65.5,264.4L65.5,264.4z"/>
	</g>
	<path class="st1" d="M224.2,101.2c0.6-0.1,0.2-0.3,0.1-0.5c-1.8-1.9-3.7-3.6-5.7-5.3c-1-0.8-2.1-1.7-3.1-2.5c-2.8-2-5.7-4-8.8-5.3
		c-2.7-1.1-4.5-3.2-6.9-4.5c-0.5-0.3-0.7-0.7-1-1.2c-0.3-0.5-0.2-1,0.4-1.3c0.4-0.1,0.7-0.3,0.8-0.7c0-1.4,0.9-2.4,2-2.8
		c2.4-0.9,2.6-3.2,3.2-5c1.1-3.3,1.9-6.8,2.1-10.3c0.2-3.2,0.2-6.4-0.5-9.5c-0.3-1.4-1-2.8-1.5-4.2c-0.1-0.3-0.3-0.6-0.2-1
		c1.3,2.1,1.9,4.4,2.2,6.8c0.9,6.4-0.1,12.7-2.1,18.8c-0.9,2.8-2.1,5.5-3.3,8.2c-0.3,0.6-0.2,0.8,0.3,1.2c4.4,3.4,9.3,6.2,13.8,9.5
		c4.4,3.2,8.9,6.2,13.1,9.6c5.7,4.8,11.1,10.1,15.8,15.8c2.6,3.2,2.3,8.4,0.1,11c0.3-1,0.8-2,1.1-3c0.7-3.2,0.1-5.9-2-8.3
		c-2.9-3.3-5.8-6.4-8.9-9.5c-4.2-4.2-8.9-7.8-13.6-11.3c-1.7-1.2-3.4-2.4-5.3-3.3c0.5,0.4,0.9,0.8,1.4,1.2c3.4,2.5,6.3,5.5,9.2,8.4
		c0.4,0.4,0.4,0.7,0.2,1.2C225.6,103.1,224.8,102.2,224.2,101.2z"/>
	<path class="st2" d="M64.1,137.4c0.6,0.5,1,1.3,1.9,1.3c0.4,0,0.3,0.5,0.4,0.8c0.1,1.1,0.2,2.2,0.3,3.2c0,0.4,0.1,0.8,0.6,0.6
		c0.3-0.1,0.7,0.1,0.6,0.5c-0.1,0.9,0.6,1.6,0.7,2.4c0.1,0.4,0.2,0.8,0.6,0.1c0.5,0,0.5,0.5,0.6,0.8c0.7,3.4,1.9,6.5,3.6,9.5
		c0.2,0.3,0.3,0.6,0.2,1c-0.5,0-0.4,0.5-0.6,0.7c-0.1,0.3-0.1,0.6-0.5,0.7c-0.4,0-0.6-0.2-0.8-0.5c-0.2-0.3-0.4-0.7-0.5-1
		c-0.2-0.6-0.5-0.2-0.8-0.1c0.1-0.9-0.4-1.6-0.6-2.4c-1.3-4-2.8-8-3.4-12.3c0-0.3,0-0.6-0.1-0.9c-0.3-1.2,0.5-2.9-1.6-3.4
		C64.4,138.4,64.1,137.9,64.1,137.4z"/>
	<path class="st3" d="M7.4,483.6c-0.3-0.4-0.4-0.8-0.4-1.2c0-2.4,0-4.8,0.1-7.2C7.3,478,7,480.8,7.4,483.6L7.4,483.6z"/>
	<path class="st4" d="M101,7.1c-0.9,1.1-1.6,2.3-3.1,2.7C99,9,99.6,7.6,101,7.1z"/>
	<path class="st3" d="M33.5,373.9c0,1.8,0,3.7,0,5.5C33.4,377.6,33,375.7,33.5,373.9L33.5,373.9z"/>
	<path class="st3" d="M33.5,373.9c0-1.6,0-3.1,0-4.7C33.6,370.8,33.9,372.4,33.5,373.9C33.5,373.9,33.5,373.9,33.5,373.9z"/>
	<path class="st3" d="M7.4,483.6c0.2,0.5,0.2,0.5,0,1C7.4,484.2,7.4,483.9,7.4,483.6C7.4,483.6,7.4,483.6,7.4,483.6z"/>
	<path class="st5" d="M135.5,300.5c-1.1,2.9-2.8,5.4-4.1,8.2c-0.5,1-1,2-1.4,3c-0.7,1.6,0.2,2.9,1.2,4.1c1.6,1.8,3.2,3.8,5.3,5.1
		c2.2,1.4,3.7,3.5,5.6,5.2c1.1,1,2.2,2,3.8,2c1.6,1.2,2.6,3,3.8,4.6c0.3,0.4,0.7,0.9,0.9,1.4c0.2,0.3,0.3,0.7,0.1,1.1
		c-0.3,0.7-0.6,1.5-0.8,2.2c-0.7,2.1-2.4,3.1-4.1,4.1c-1.1,0.7-2.3,1.3-3.4,2c-0.6,0.4-1.3,0.4-2,0.4c-4.6,0.4-8.3-1.3-11.1-4.9
		c-0.2-0.3-0.3-0.6-0.4-0.9c-0.2-0.5-0.5-1-1.2-1c-0.6,0.1-1,0.5-1.1,1.1c-0.2,1.3-0.4,2.7-0.6,4c-0.6,3.8-2.2,7.2-4.4,10.3
		c-0.2,0.2-0.4,0.5-0.7,0.6c-1.7,0.4-3.3,1-5,1.1c-4.7,0.3-7.9-2.1-10.2-6c-0.9-1.5-1.7-3.1-1.8-5c0-0.4-0.3-0.8-0.7-0.9
		c-0.4-0.1-0.8-0.1-1.1,0.3c-0.4,0.5-0.8,1.1-1,1.8c-1.8,4.6-5.3,7.3-9.7,9.2c-4.8,2-9.8-0.4-11.9-4.5c-1.2-2.5-2.3-4.9-2.5-7.7
		c0-0.6-0.3-1-0.8-1.2c-0.6-0.2-0.9,0.1-1.3,0.4c-1.4,1.4-2.7,2.9-4.5,3.9c-2.1,1.2-4.4,1.9-6.8,2.4c-1.5,0.3-2.9,0.2-4.4,0
		c-1.4-0.2-2.4-1.2-3.2-2.2c-1.8-2.3-3.2-4.9-3.8-7.7c-0.1-0.5-0.1-1-0.2-1.5c-0.3-1.3-1-1.6-2-0.8c-1.6,1.2-3.2,2.3-5,3.2
		c-1.4,0.8-2.9,1.6-4.5,2.1c-0.2,0.1-0.5,0.1-0.7,0.2c-1.4,0.1-1.4,0-1-1.3c0.5-1.4,1-2.7,1.5-4c0.2-0.5,0.4-0.6,0.9-0.6
		c4.9,0,6.6-4.5,5.8-8c-0.2-1-0.5-2-1-3.1c2.6,0.1,4.7-1,6.7-2.4c0.2-0.2,0.5-0.3,0.8-0.2c2.4,0.3,3.9-1.2,5.6-2.6
		c0.6-0.5,1.2-1.1,1.6-1.8c1.1-1.6,2.4-2.8,3.9-4c1.6-1.4,3-3.1,4.4-4.7c1-1.2,0.9-2.5,0.2-3.8c-1.9-3.8-3.9-7.6-6-11.3
		c-0.6-1-0.8-1.8-0.2-2.9c2-3.6,4-7.3,6-11c0.4-0.3,0.8-0.3,1.3-0.3c4.9-0.1,9.8,0.3,14.7,0.6c6.1,0.4,12.2,1,18.3,1.7
		c7.3,0.9,14.6,1.7,21.8,3.3c1.4,0.3,2.8,0.8,4.3,0.9c0.7,0,1.1,0.6,1.2,1.2c0.6,4.1,2,8,3.4,11.8c0.3,0.8,0.7,1.5,1.3,2.1
		C135.4,299.6,135.7,300,135.5,300.5z"/>
	<path class="st6" d="M224.2,101.2c0.9,0.8,1.8,1.5,2.7,2.3c1.4,1.5,3.2,2.5,4.7,4c3.4,3.4,7,6.4,9.6,10.5c1,1.6,1.8,3.2,1.6,5.2
		c-0.1,1.1-0.5,2-1.3,2.7c-2.2,2.1-4.9,3.1-7.8,3.6c-3.7,0.7-7.4,0.6-11.2,0.6c-2,0-4-0.2-6-0.5c-2.1-0.3-4.2-0.5-6.3-0.6
		c-3.2-0.2-6.3-0.8-9.4-1.5c-5.3-1.1-10.6-2-15.9-2.9c-5.3-0.9-10.5-2.2-15.6-3.9c-5.3-1.7-10.8-2.9-16.1-4.7
		c-7.5-2.7-15.4-4.3-22.8-7.2c-7.2-2.9-14.8-4.9-22-8c-5.1-2.2-10.1-4.5-15.3-6.4c-6.8-2.5-13.4-5.6-20.1-8.4c-8.1-3.3-16.1-7-24-11
		c-3.2-1.6-6.1-3.8-9.2-5.5c-5.8-3.3-11.2-7.2-16.3-11.4c-2-1.6-3.8-3.5-5.1-5.8c-1.4-2.5-1.5-5.2,0.8-7.7c2.1-2.3,4.8-3.5,7.7-4.2
		c3-0.8,6-1,9.1-1.2c4-0.3,8.1-0.1,12.1-0.2c4.8,0,9.5,0.7,14.2,1.2c2.7,0.3,5.5,0.6,8.2,1.1c3.1,0.5,6.2,1.3,9.3,2.1
		c0.5,0.1,0.7,0.4,0.6,1c-0.6,3.5-0.6,7-0.5,10.4c0.1,2.4,0.3,4.8,0.9,7.2c0.5,1.7,1.7,2.9,2.8,4.3c3.7,4.6,8.5,7.7,13.4,10.7
		c6.5,3.9,13.3,7.2,20.2,10.4c6.6,3.1,13.5,5.5,20.6,7.3c4.5,1.1,8.9,2.7,13.4,3.7c7.2,1.6,14.4,3.4,21.8,4
		c5.6,0.5,11.2-0.2,16.6-2.2c0.8-0.3,1.3-0.8,1.8-1.5c2.9-4.1,5.5-8.5,7.9-13c0.5-0.8,0.7-1,1.6-0.4c3.6,2.4,7.2,4.6,10.8,6.9
		C216.2,94.9,220.2,97.9,224.2,101.2z"/>
	<path class="st6" d="M192.9,77.6c-3.1-0.2-6.3-0.5-9.4-0.7c-3.7-0.3-7.4-0.9-11-1.5c-2.4-0.4-4.7-1-6.9-1.7
		c-6.6-2-13.2-4.2-19.7-6.5c-9.2-3.3-18-7.5-26.7-12.2c-6.4-3.5-12.7-6.9-18.7-11.1c-4.1-2.8-8.3-5.5-12.1-8.8
		c-0.9-0.7-1.2-1.5-0.9-2.7c0.6-2.9,1.5-5.6,2.6-8.3c2-4.8,4.9-8.8,9-12c4.2-3.3,9.2-4.9,14.5-5.4c5-0.5,10-0.2,15,0.7
		c5.2,0.9,10.2,2.2,15.3,3.5c6.6,1.6,13,4.1,19.3,6.6c4.4,1.7,8.5,4.3,12.5,6.8c5.1,3.2,10,6.6,14.7,10.3c2,1.6,3.6,3.5,5.2,5.4
		c1.9,2.3,3.7,4.8,5.2,7.4c1.7,2.9,2.2,6.1,2.5,9.4c0.3,3.8-0.1,7.6-0.8,11.4c-0.4,2.1-1.2,4.1-2,6.1c-0.6,1.7-1.9,2.7-3.8,2.9
		C195.5,77.5,194.2,77.8,192.9,77.6z"/>
	<path class="st7" d="M185.5,186.5c-1.1,0.8-2.2,1.5-3.5,1.9c-0.6,0.2-0.9,0.4-0.6,1.2c1.5,4.5,2.4,9.1,2.7,13.8
		c0.4,8.6-3.1,15.4-9.5,20.8c-5.1,4.2-11.1,6.5-17.4,8c-3.9,0.9-7.8,1.5-11.8,1.7c-0.6,0-1.3,0-2.1,0c1.1-0.9,2.1-1.7,3-2.5
		c6.1-5.1,8.2-11.7,7.6-19.5c-0.4-5.2-2-10.1-3.5-15c-1.6-5.1-2.8-10.3-2.4-15.7c0.3-5.1,1.3-10,4.4-14.2c3.2-4.4,7.7-6.4,12.9-7.3
		c1.6-0.3,3.3-0.2,4.9-0.2c1.5,0,2.5-0.5,3.3-1.9c3.4-6.1,5.2-12.8,6.7-19.6c0.2-1.1,0.3-2.2,0.5-3.3c0.6-0.5,1.2-0.3,1.9-0.2
		c4.4,0.7,8.7,1.8,13.1,2.8c1.5,0.3,3,0.6,4.4,0.8c0.5,0.1,0.9,0.2,1.4,0.3c1.3,0.5,1.4,0.7,1.5,2.1c0.4,5.6-0.2,11.2-1.5,16.7
		c-0.7,3.3-1.8,6.5-3.1,9.7c-1.6,3.7-3.2,7.3-5.3,10.8c-1.8,2.9-3.9,5.6-6.5,7.9C186.4,185.9,185.9,186.1,185.5,186.5z"/>
	<path class="st5" d="M129.8,271.5c-2.6-0.7-5.2-1.5-7.8-1.9c-3.8-0.7-7.5-1.7-11.4-1.8c-4-0.1-8-1-12.1-1c-2.5-0.1-5.1-0.6-7.6-0.9
		c-0.5-0.1-1,0-1.4,0c-2.9,0.1-5.7-0.3-8.6-0.6c-1.6-0.1-3.3-0.1-4.9,0c-0.8,0-1-0.2-0.7-0.9c0.6-1.8,1.1-3.6,1.5-5.5
		c0.2-0.8,0.5-1.4,1.5-1c0.6,0.2,1.3,0.2,1.9,0.2c1,0,1.7-0.6,1.8-1.4c0.1-1-0.3-1.6-1.5-1.8c-1.1-0.2-2.3-0.4-3.4-0.6
		c-4.4-1.1-8.2-3.2-10.2-7.5c-1.6-3.3-1.4-6.7-0.6-10.1c1.2-5,3.9-9.3,7-13.4c1.6-2.2,3.3-4.2,5.3-6.1c2-1.9,4.2-3.4,6.5-4.8
		c0.5-0.3,0.8-0.1,1.2,0.1c3.3,1.5,5.6,4.1,7.4,7.2c1.8,3,3.3,6.2,5,9.2c1.1,2,1.1,2,3,1.3c3.9-1.3,7.8-2.8,11.7-4.2
		c4.1-1.4,8.1-3,12.4-4c0.7-0.2,1.3-0.2,2-0.3c1.3-0.2,2.2,0.3,3.2,1.2c2.9,2.7,4.8,6,6.7,9.4c0.6,1.1,0.5,1.3-0.7,1.8
		c-0.8,0.3-1.5,0.7-1.6,1.7c-0.1,1.1,0.5,1.7,1.6,1.8c2.3,0.2,2.2,0.2,3,2.3c0.8,1.9,1,4,1.9,5.8c0.2,0.4,0.5,0.7,0.7,1.1
		c0.3,0.5,0,0.9-0.3,1.3c-1.7,2.7-3.5,5.3-5.1,8.1c-2.4,4.4-4.7,8.8-6.3,13.6C130.6,270.1,130.6,271,129.8,271.5z"/>
	<path class="st8" d="M145.2,360.9c0.8,3.9,1.2,7.9,1.5,11.9c0.3,3.7,0.5,7.5,0.9,11.2c0.3,2.8,0.4,5.7,0.6,8.6
		c0.3,3.4,0.5,6.9,0.8,10.3c0.2,2.5,0.4,5,0.4,7.6c0.1,3.5,0.2,7,0.3,10.5c0.1,2.9,0.1,5.7,0.1,8.6c0,2.8,0.2,5.7,0.2,8.5
		c0,0.7-0.2,1-0.9,1.1c-7.7,1.4-15.5,2.5-23.3,3.4c-0.7,0.1-0.9-0.2-1.2-0.8c-3.5-9.8-7-19.7-10.3-29.6c-4.6-13.9-8.8-28-12.8-42.1
		c0-0.1,0-0.3,0-0.4c-0.1-0.6,0.4-0.5,0.7-0.5c0.6-0.1,1.2-0.1,1.7,0c3.6,0.2,7.1-0.5,10.6-1.3c7.1-1.6,13.9-4,20.6-6.7
		c2.7-1.1,5.4-2.4,7.9-3.9c1.3-0.7,1.4-0.7,1.6,0.8C144.9,359,145,360,145.2,360.9z"/>
	<path class="st8" d="M81.7,366.5c-0.7,4.5-1.5,9-2.2,13.5c-1.2,7.4-2.2,14.9-3.2,22.4c-1.1,8.8-2,17.7-2.8,26.6
		c-0.4,4.8-0.8,9.6-1.2,14.4c-0.1,0.7-0.1,1-0.9,0.7c-9-2.5-17.8-5.5-26.5-8.9c-0.8-0.3-1-0.7-1.1-1.5c-0.2-2.7-0.4-5.4-0.6-8.1
		c-0.1-2.5-0.3-5-0.5-7.4c-0.2-3.2-0.4-6.5-0.6-9.7c-0.1-2-0.2-4.1-0.3-6.1c-0.2-4.3-0.2-8.7-0.3-13c-0.1-4.3,0-8.6,0.1-12.9
		c0.1-3.6,0.2-7.3,0.5-11c0.1-1.6,0.3-3.1,0.3-4.7c-0.1-1.2,0.3-2.4,0.2-3.6c-0.1-0.7,0.4-0.6,0.8-0.5c0.8,0.2,1.5,0.6,2.3,1
		c8.7,3.8,17.7,6.2,27,7.9c2.3,0.4,4.7,0.3,7.1,0.3c0.4,0,0.8,0,1.2,0.1C81.4,365.9,81.9,366,81.7,366.5z"/>
	<path class="st7" d="M7.4,109.2c0-0.1,0-0.2,0-0.3c-0.1-0.9-0.2-1.8-0.3-2.7c0-0.3,0-0.7-0.1-1c-0.2-0.3,0-0.7-0.1-1.1
		c0-0.1,0-0.2,0-0.2c0.1-1.8,0-3.6,0.1-5.3c0-0.4-0.1-0.8,0.1-1.1c0-0.3,0-0.6,0.1-1c0.2-0.3,0-0.7,0.2-1.1c0-0.5-0.1-1.1,0.2-1.6
		c0.2-0.6,0.3-1.2,0.4-1.9l0,0c0.2-0.8,0.5-1.5,0.6-2.3l0,0c0.9-2.2,1.6-4.4,2.5-6.6c0-0.3,0.2-0.6,0.3-0.8c0.4-0.2,0.3-0.7,0.5-1
		c0-0.2,0-0.3,0.1-0.4c1.2-1.9,2.2-3.9,3.3-5.8l0,0c0.3-0.2,0.4-0.5,0.6-0.8c0.1-0.1,0.2-0.3,0.4-0.2c0.2,0.1,0.2,0.3,0.1,0.5
		c-0.1,0.3-0.2,0.6-0.4,0.9c-2.1,3.8-3.9,7.7-5.4,11.8c-0.9,2.5-1.3,5-1.6,7.6C8.2,100.5,9,106,10,111.5c0.6,3.4,2,6.7,3.2,10
		c1.5,4,3.6,7.7,6,11.3c0.7,1,0.8,1,1.6,0.1c3-3.5,6-6.9,9-10.4c2.6-2.9,5.2-5.8,7.9-8.7c3.7-3.9,7.3-7.9,11.1-11.7
		c0.6-0.6,0.7-1.2,0.7-2c-0.1-1.6,0.3-3.1,0.4-4.7c0-0.2,0.1-0.4,0.2-0.6c0.8-0.5,1.7-0.8,2.6-1.1c0.5-0.2,0.7-0.1,0.5,0.5
		c-1,3.2-1.3,6.4-1.4,9.7c0,0.3,0,0.6,0,0.9c0,0.8,0.2,1.5,1,1.9c0.8,0.3,1.5,0,2-0.6c1.6-1.7,3.4-3.3,5.2-4.8
		c2.2-1.8,4.6-3.4,7.1-4.7c0.3-0.2,0.6-0.4,0.9-0.7c1,0,1.7,0.6,2.5,1c3.6,2.1,7.3,4.1,11.1,5.9c0.5,0.2,0.9,0.5,1.1,1.1
		c0.3,1.8,0.6,3.7,0.9,5.5c0.1,0.8-0.4,0.8-0.8,0.9c-4.1,1.3-7.8,3.3-11.3,5.9c-2.1,1.6-4,3.3-5.6,5.4c-0.5,0.7-1,0.7-1.8,0.5
		c-3.4-1.1-6.7-2.3-9.8-4.1c-0.1,0-0.2,0-0.4-0.1c0.6,1.3,1.5,2.3,2.4,3.3c1.7,1.9,3.5,3.4,5.7,4.7c0.5,0.3,0.6,0.6,0.3,1.1
		c-3.4,6.6-4.5,13.6-4.3,20.9c0.2,5,0.9,10,1.4,14.9c0.5,5.3,1,10.6-1.4,15.6c-3,6.3-7.6,11-13.8,14.2c-2.6,1.3-5.3,2.3-8.1,2.9
		c-0.3,0.1-0.7,0.2-1.2,0c2-2.4,4.1-4.8,5.6-7.6c0.3-0.3,0.4-0.7,0.6-1c1.4-2.7,2.3-5.5,2.6-8.6c0.2-2.6-0.5-5-1.3-7.4
		c-0.8-2.4-1.9-4.7-3-7c-0.5-1.3-1.2-2.4-1.9-3.5c-1.1-1.7-2.2-3.5-3.6-5l0,0c-1.1-1.7-2.5-3.2-3.9-4.7l0,0
		c-0.9-1.4-2.1-2.5-3.2-3.7c-2.3-2.6-4.5-5.3-6.7-8c-0.1-0.2-0.2-0.3-0.4-0.4l0,0c-1.5-2-2.8-4.2-4.2-6.2c-0.1-0.1-0.2-0.3-0.2-0.4
		c-0.8-1.7-1.6-3.3-2.5-4.9l0,0c-0.1-0.3-0.1-0.6-0.4-0.9l0,0c-0.2-0.3-0.2-0.7-0.4-1l0,0c-0.2-0.3-0.1-0.8-0.5-1
		c-0.3-0.6-0.7-1.3-0.7-2c-0.7-2.5-1.6-5.1-2.2-7.6c-0.2-0.6-0.2-1.3-0.5-1.9l0,0c-0.2-0.7-0.1-1.4-0.4-2.1c0-0.1,0-0.1,0-0.2
		C7.5,110,7.5,109.6,7.4,109.2z"/>
	<path class="st9" d="M171.3,438.2c-1.1,2.3-2.3,4.2-3.4,6.2c-2.2,3.6-4.7,7.1-7.5,10.3c-0.3,0.3-0.7,0.6-1.1,0.8
		c-2.4,1.1-4.6,2.4-6.7,4.1c-0.3,0.2-0.5,0.4-0.8,0.7c-0.6,0.7-0.7,1.8-0.2,2.4c0.5,0.7,1.6,0.8,2.4,0.2c1.3-1,2.7-2,4.1-2.9
		c3.7-2.2,7.7-3.5,12-3.4c3.7,0.1,7.1,1.2,10.1,3.3c2.6,1.9,3.4,5,3.8,8c0.7,4.4,0.1,8.8-1,13.1c-0.3,1.1-0.8,1.6-1.9,1.9
		c-4.8,1.1-9.6,2.1-14.4,2.7c-6.3,0.8-12.7,1.1-19.1,0.8c-3.6-0.2-7.2-0.4-10.9-0.7c-4-0.3-8-0.8-12-1.4c-0.5-0.1-0.7-0.3-0.7-0.8
		c-0.7-7.3-2.7-14.2-5.1-21.1c-0.1-0.3-0.4-0.6-0.2-0.8c0.3-0.3,0.6,0.1,0.8,0.1c0.9,0.2,1.4,0.7,1.3,1.6c0,0.3,0.1,0.6,0.2,0.9
		c0.2,1,0.9,1.4,1.9,1.3c0.9-0.1,1.3-0.8,1.4-1.6c0-1.1-0.3-2.2-0.5-3.3c-0.8-4.4-2.2-8.6-4-12.7c-0.5-1.1-0.5-1.1,0.8-1.3
		c8.8-1,17.6-2.1,26.3-3.6c7.3-1.3,14.6-2.7,21.9-4.3C169.6,438.5,170.3,438.3,171.3,438.2z"/>
	<path class="st8" d="M58.8,285.1c-1.7-0.1-2.3,0.8-1.9,2.3c0.9,3.5,3,6.3,4.6,9.4c1.3,2.4,2.6,4.8,3.9,7.2c0.4,0.7,0.5,1.4,0.1,2.1
		c-0.9,1.4-1.9,2.7-3.4,3.6c-0.7,0.4-1.1,0.3-1.6-0.3c-2.3-3-4.8-5.7-7.1-8.7c-1.5-1.9-2.7-4-4.4-5.8c-0.4-0.4-0.8-0.8-1.2-1.1
		c-0.5-0.4-1.1-0.3-1.5,0c-0.5,0.3-0.5,0.8-0.5,1.3c0.1,1,0.5,1.9,1.1,2.6c2.7,3.5,5,7.4,7.9,10.7c1.1,1.2,2.1,2.5,3.1,3.8
		c0.7,0.9,0.5,1.7-0.1,2.4c-0.8,1.2-2,1.9-3.3,2.3c-0.5,0.2-0.9,0-1.3-0.3c-3.9-2.8-7.3-6.1-10.5-9.6c-0.8-0.8-1.5-1.7-2.4-2.4
		c-1-0.8-1.9-0.9-2.5-0.3c-0.6,0.6-0.6,1.7,0.2,2.6c2.3,2.9,4.8,5.6,7.6,8.1c1.2,1,2.4,2,3.6,3c0.5,0.4,0.4,0.6-0.1,0.9
		c-1.4,0.9-2.7,0.9-4-0.1c-4.5-3.3-8.8-6.6-12.6-10.7c-0.8-0.8-1.2-1.8-1.7-2.8c-0.3-0.8-0.2-1.5,0.2-2.1c1.7-3,4-5.6,6.1-8.3
		c3.3-4.3,7.4-7.8,11.1-11.7c0.9-0.9,1-1.6,0.3-2.3c-0.7-0.7-1.4-0.4-2.1,0.2c-2.1,1.6-3.9,3.5-5.7,5.4c-0.4,0.4-0.7,0.8-1.2,1.3
		c-0.3-1.7-0.7-3.3-1-4.9c-0.8-5.1-1.2-10.2-1.2-15.4c0-4.8,0.4-9.7,1.2-14.5c0.7-4.2,2.2-8.1,3.6-12.1c2-5.7,5.5-10.5,9.4-15.1
		c2.9-3.4,6-6.5,9.2-9.5c4.3-4,8.8-7.7,13.4-11.4c2.8-2.3,5.9-4.4,8.9-6.4c2.3-1.6,4.7-3.3,7.6-3.5c1.3-0.1,2.6-0.2,3.7,0.7
		c0.7,0.5,1.6,0.9,2.3,1.3c0.5,0.3,0.7,0.6,0.3,1.1c-1.6,2.7-3.2,5.5-4.8,8.2c-0.3,0.6-0.6,0.8-1.3,0.8c-1.8-0.1-3.5,0.5-5,1.3
		c-2.9,1.6-5.8,3.3-8.2,5.5c-2.7,2.4-5.2,5-7.4,7.9c-2.7,3.6-4.8,7.5-6.3,11.8c-0.4,1.2-0.7,2.4-0.9,3.7c0,0.2-0.1,0.5-0.2,0.7
		c-0.9,1.7-1.8,3.3-2.6,5c-1.5,4.5-3.3,8.8-3.8,13.6c-0.4,4-0.6,8-0.4,12c0.4,5.4,1.3,10.6,3.5,15.6c0.1,0.3,0.3,0.7,0,1
		C59.2,285.4,59,285.1,58.8,285.1z"/>
	<path class="st8" d="M163.3,258.9c0.8-3.1,1.2-6.3,1.4-9.5c0.3-5,0.1-9.9-0.5-14.9c-0.2-1.6-0.3-1.5,1.2-2.1
		c4.1-1.8,8.2-3.7,11.5-6.9c0.5-0.5,1-1,1.7-1.4c1,2.1,1.5,4.4,2.2,6.7c1.5,5.4,2.6,11,3.7,16.5c1.2,5.9,0.8,11.6,0.1,17.5
		c-0.4,3-0.7,6.1-1.6,9c-1.1,3.4-2.9,6.4-4.6,9.5c-3.5,6.6-8.1,12.3-12.8,18c-0.5,0.6-0.8,0.5-1.2,0c-1.1-1.5-2.4-2.8-3.5-4.3
		c-2.4-3.1-5.4-5.4-8.6-7.6c-0.6-0.4-1.4-0.8-2-0.1c-0.6,0.6-0.4,1.7,0.4,2.4c1.9,1.5,3.9,3,5.7,4.7c3,2.9,5.6,6.1,8.2,9.4
		c1.3,1.7,2.6,3.4,3.7,5.2c0.6,1,0.6,1.9,0.1,2.9c-0.9,1.7-2.1,3.2-3.5,4.4c-3.3,2.8-6.5,5.7-10.1,8.1c-1.7,1.2-3.4,1.3-5.3,0.1
		c1.1-0.9,2.2-1.7,3.3-2.6c3-2.4,5.5-5.4,8-8.2c0.5-0.6,0.9-1.2,0.6-2.1c-0.4-1.4-2-1.8-3.1-0.6c-1,1-1.9,2.1-2.8,3.1
		c-2.6,3-5.5,5.7-8.7,8c-1.6,1.2-2.1,1.2-3.5-0.2c-0.7-0.6-1.3-1.3-2-2c-0.7-0.6-0.6-1.1,0-1.7c2.5-3,5.1-6,7.4-9.2
		c0.9-1.3,1.8-2.6,2.7-3.9c0.6-1,0.5-2-0.2-2.6c-0.8-0.7-1.9-0.5-2.7,0.4c-0.5,0.5-0.9,1.1-1.3,1.7c-2.3,3.8-5.3,7-8,10.4
		c-1,1.2-1,1.3-2.5,0.2c-1.1-0.8-1.9-1.9-2.7-3c-0.5-0.8-0.4-1.6,0-2.4c3.5-6.4,6.9-12.7,10.3-19.1c0.4-0.7,0.7-1.5,0.6-2.3
		c-0.3-0.5,0.1-0.8,0.4-1c5.5-4.4,9.6-9.8,13-15.9c1.6-2.9,2.6-6,3.6-9.2C162.5,262.4,162.9,260.6,163.3,258.9z"/>
	<path class="st9" d="M74.2,464c-0.5,0.8-0.9,1.7-1.3,2.5c-0.6,1.1-0.4,2.1,0.4,2.6c0.9,0.5,1.9,0.2,2.4-0.9
		c0.9-2.1,2.4-3.1,4.7-3.2c0.3,0,0.5-0.2,0.9,0c-0.7,1.2-1.4,2.4-2,3.6c-2.2,4.1-4.2,8.3-5,13c-0.1,0.6-0.4,0.9-1,1.1
		c-5,1.6-10.1,2.6-15.3,3.4c-5.5,0.8-11.1,1.3-16.7,1.3c-5.4,0.1-10.8-0.4-16.1-1.6c-2.9-0.7-5.8-1.6-8.6-2.8
		c-0.9-0.4-1.3-0.9-1.3-1.8c-0.4-5,0.8-9.6,4.1-13.5c3.9-4.5,8.9-6.8,14.9-6.2c2.2,0.2,4.3,0.8,6.3,1.7c0.2,0.1,0.4,0.2,0.6,0.3
		c0.7,0.2,1.5,0.3,2.1-0.3c0.7-0.6,0.6-1.3,0.4-2.1c-1.2-3.8-2.7-7.5-4.4-11.1c-2.5-5.4-5.4-10.7-8.4-15.9c0-0.1,0-0.1,0-0.2
		c-0.2-0.7,0.3-0.6,0.7-0.5l0,0c0.5,0.2,0.9,0.4,1.4,0.6c2.6,1.1,5.1,2.1,7.7,3.2c6.8,2.7,13.6,5.3,20.6,7.5
		c5.5,1.7,11.1,3.3,16.7,4.7c0.8,0.2,1,0.5,0.9,1.4c-0.8,4.4-2.3,8.5-4.4,12.5C74.5,463.4,74.5,463.8,74.2,464z"/>
	<path class="st10" d="M83.8,52.9c0.1-5.4,0.6-9.8,1.8-14c0.1-0.5,0.1-1.1,0.7-1.3c0.6-0.1,0.8,0.5,1.1,0.8c1.6,1.8,3.6,3.1,5.4,4.7
		c4.4,3.6,9.2,6.5,13.9,9.6c4.1,2.6,8.4,4.7,12.6,7.1c6.3,3.6,13.1,6.3,19.9,9.1c3,1.2,5.9,2.7,9,3.7c3.5,1.1,7,1.9,10.4,3.1
		c2.2,0.8,4.5,1.4,6.8,1.9c0.7,0.2,0.7,0.4,0.5,1c-1,2.7-2,5.5-3.3,8.1c-1.3,2.7-2.7,5.2-3.7,8c-0.2,0.5-0.5,0.6-0.9,0.5
		c-4.2-1.1-8.6-1.6-12.7-3.1c-3.9-1.4-7.9-2.5-11.8-3.7c-4.6-1.3-8.9-3.3-13.3-5.1c-4.1-1.7-8.2-3.3-12.1-5.4
		c-3.5-1.8-6.9-3.7-10.3-5.5c-4.3-2.3-8.2-5.2-11.6-8.8c-1.3-1.4-1.9-2.9-2-4.8C84.1,56.5,83.7,54.2,83.8,52.9z"/>
	<path class="st11" d="M50.2,95c0,2-0.6,4-0.4,6c0,0.6-0.3,1.1-0.8,1.5c-2.5,2.5-5,5-7.4,7.6c-2.6,2.8-5.2,5.7-7.8,8.5
		c-3.1,3.3-6,6.8-9,10.2c-1.4,1.6-2.8,3.2-4.2,4.9c-0.5,0.6-0.8,0.5-1.2,0c-1.2-1.9-2.5-3.7-3.6-5.7c-2.7-5.1-4.8-10.5-6.1-16.1
		c-0.6-2.7-1-5.5-1.2-8.4c-0.2-2.1-0.3-4.2-0.1-6.2c0.3-4.7,1.1-9.4,3.3-13.7c1-2.1,2-4.3,2.9-6.4c0.4-1,1.3-1.7,1.5-2.9
		c-0.5,0.3-0.5,0.9-1,0.9c2.1-3.4,4.6-6.4,7.7-9c0.4-0.3,0.7-0.1,1,0.2c2,1.8,4.2,3.3,6.1,5.2c0.7,0.7,1.6,1.2,2.4,1.8
		c3.2,2.4,6.6,4.7,9.9,7.1c0.4,0.3,1,0.4,0.7,1.1c-2.4,3.1-4.6,6.3-6,10c-1.1,2.8-1.9,5.6-2.3,8.5c-0.2,1,0,1.9,1,2.5
		c0.5,0.3,0.6,0.3,1.2,0c0.1-0.2,0.3-0.2,0.4-0.2c0.3-0.1,0.5-0.2,0.6-0.4c0.3-0.3,0.6-0.5,1-0.6c0.3,0,0.5-0.1,0.6-0.4
		c0.5-0.3,0.9-0.7,1.4-0.9c0.5-0.1,0.9-0.4,1.3-0.8c0.2-0.2,0.5-0.4,0.8-0.5c0.4-0.1,0.7-0.3,1-0.6C45.9,96.8,48,95.7,50.2,95z"/>
	<path class="st12" d="M148.7,166.7c-2.6,4.9-3.8,10.2-3.9,15.7c0,0.6-0.1,1.2,0.1,1.7c0.3,1.1-0.2,1.7-1,2.3
		c-1.7,1.3-3.7,2.2-5.8,2.9c-4.2,1.4-8.5,2.6-13,2.9c-2.5,0.2-5.1,0-7.6-0.4c-5.2-0.7-10.3-1.3-15.2-3.3c-8.4-3.5-15.7-8.3-21-16
		c-1.6-2.3-3-4.8-4-7.6c1.4,0.7,2.8,1.4,4.2,1.8c2.9,0.9,5.9,1.2,8.9,0.6c1.8-0.3,3.5-0.6,5.1-1.4c2.2-1.1,3.8-3,5.3-4.9
		c2.8-3.5,4-7.7,4.8-12.1c0.3-1.8,0.4-3.6,0.4-5.4c0-0.8,0.4-1.4,1.1-1.5c1.1-0.2,2.2-0.4,3.4-0.3c0.6,0.1,0.9,0.3,1,1
		c0.4,3.1,0.8,6.2,2.2,9c0.4,0.9,0.5,1.6,0.1,2.5c-0.5,1-0.8,2.2-0.8,3.4c0,0.7-0.3,0.9-0.9,0.8c-3.1-0.1-5.9,1-8.5,2.7
		c-0.3,0.2-0.5,0.4-0.7,0.6c-0.6,0.6-0.6,1.4-0.1,2.1c0.5,0.7,1.2,0.8,1.9,0.4c0.4-0.2,0.8-0.5,1.1-0.7c1.9-1.2,3.9-1.9,6.2-1.9
		c0.8,0,1.2,0.2,1.5,1.1c0.9,3,2.8,5.3,5.8,6.5c0.4,0.2,0.8,0.3,1.3,0.2c0.7-0.1,1.2-0.4,1.4-1.1c0.2-0.7,0-1.2-0.5-1.7
		c-0.3-0.2-0.6-0.4-1-0.5c-3-1.3-4.8-4.7-4.2-8.2c0.9,1.2,1.6,2.4,2.5,3.4c3.5,4.3,8,7,13.5,7.7c3.8,0.5,7.6,0.6,11.3-0.4
		c1.8-0.5,3.3-1.6,4.9-2.6C148.9,166.3,148.8,166.5,148.7,166.7z"/>
	<path class="st8" d="M127.9,200.7c0,0.3,0,0.5,0,0.8c0,1.2,0.7,1.7,1.9,1.4c1.4-0.4,2.8-0.9,4.2-1.4c0.1,0.6-0.1,1-0.3,1.5
		c-1.2,2.2-2.3,4.5-3.3,6.8c-0.2,0.5-0.5,0.6-1,0.6c-2.1-0.1-3.9,0.8-5.6,2c-0.8,0.6-1.4,1.3-1.7,2.3c-0.2,0.7-0.5,0.7-1,0.5
		c-1.5-0.4-3-0.6-4.6-0.4c-2.3,0.3-4,1.6-5,3.7c-0.3,0.6-0.6,0.9-1.3,0.7c-2.3-0.5-4.4,0.1-6.3,1.3c-0.6,0.4-0.7,0.3-0.9-0.3
		c-0.6-2.4-2-4.2-4.4-5c-0.4-0.1-0.6-0.3-0.6-0.7c0-2.6-1.6-4.4-3.6-5.8c-0.6-0.5-0.7-0.8-0.3-1.4c1.5-2.5,3-5,4.4-7.5
		c0.4-0.8,0.9-0.8,1.5-0.3c0.1,0.1,0.2,0.2,0.3,0.3c1.9,1.3,2.4,1.3,3.7-0.6c0.4-0.5,0.8-0.3,1.2-0.1c4.6,1.8,9.4,2.5,14.3,2.5
		c2.3,0,4.6-0.4,6.8-0.8C127,200.6,127.5,200.3,127.9,200.7z"/>
	<path class="st13" d="M185.5,186.5c1-1.1,2-2,3-3.1c4-4.4,6.7-9.5,9-14.8c1.5-3.5,2.9-7,3.7-10.7c0.7-3,1.2-6,1.4-9.1
		c0.1-1.7,0.3-3.3,0.4-5c0-1.3-0.3-2.7-0.2-4c0-0.5-0.2-0.6-0.6-0.8c-1.2-0.7-2.6-0.7-4-1c-3.1-0.5-6.1-1.4-9.2-2
		c-2.7-0.5-5.4-1.3-8.3-1.3c-0.1-1.9,0.5-3.7,0.4-5.5c0-0.6,0.3-0.4,0.6-0.3c4.1,0.8,8.2,1.3,12.3,1.9c5.2,0.8,10.4,1.5,15.5,2.2
		c0.7,0.1,0.9,0.3,1,1c0.5,3.3,0.7,6.6,0.6,9.9c0,2.8-0.8,5.5-1.5,8.3c-1,3.9-2.5,7.6-4.2,11.3c-1.3,2.8-2.9,5.4-4.5,8
		c-1.8,2.8-3.9,5.4-6.4,7.6c-2.7,2.4-5.4,4.8-8.2,6.9C186.1,186.2,185.8,186.4,185.5,186.5z"/>
	<path class="st7" d="M85.3,193.3c-2.9,1.5-5.4,3.6-7.9,5.7c-0.7,0.6-1.2,0.6-2.1,0.1c-5.2-3.3-7.9-8.1-8.5-14.1
		c-0.3-3.1-0.1-6.2,0.3-9.2c0.5-3.9,1.1-7.9,2.8-11.5c0.6-1.3,1.3-2.6,2.1-4c1.9,6.4,4.3,12.5,8.7,17.6c0.6,1.5,0.5,3.1,0.7,4.6
		c0.4,2.7,0.9,5.4,2.3,7.8c0.4,0.7,0.8,1.4,1.3,2C85.3,192.6,85.6,192.9,85.3,193.3z"/>
	<path class="st7" d="M113.7,115.1c-0.2,1.1-0.4,2.2-0.6,3.2c-0.1,0.6-0.3,0.7-0.9,0.7c-1.4-0.2-2.8-0.5-4.1-0.9
		c-1.8-0.6-3.6-1.3-5.3-2.2c-1.7-0.9-3.3-2-4.8-3.1c-0.3,0.3,0,0.5,0.1,0.6c2.1,3.3,4.4,6.3,7.5,8.7c1.8,1.4,3.9,2.5,6.1,3
		c0.6,0.1,0.8,0.4,0.8,1c-0.1,3.7,0.2,7.3,0.6,11c0.1,0.7,0,0.9-0.7,0.6c-10.6-5.1-19.4-12-24.1-23.2c-1.2-2.9-1.9-5.9-2.2-8.9
		c0.4-0.2,0.8,0,1.2,0.2c8.1,3.8,16.6,6.3,25.3,8.3C113.3,114.1,114.1,114.1,113.7,115.1z"/>
	<path class="st14" d="M145.6,133c2.5-0.1,5,0.3,7.5,0.7c2.3,0.3,3.8,2.8,3.6,5.2c-0.4,4.4-1.4,8.6-2.5,12.8
		c-0.5,2.1-1.7,3.8-3.1,5.3c-2,2.2-4.2,4.1-7,5.2c-2,0.8-4,1.3-6.2,1.5c-1.6,0.1-3.3,0-4.9,0.3c-0.1,0-0.2-0.1-0.3-0.2
		c1.9-3.6,3.5-7.3,5.2-10.9c2.7-5.7,5.4-11.4,8.5-16.8c0.3-0.6,0.6-1.2,1-1.8c0.4-0.6,0.2-0.8-0.5-0.8
		C146.4,133.5,145.8,133.7,145.6,133z"/>
	<path class="st15" d="M145.2,360.9c-0.5-1-0.5-2.1-0.6-3.2c-0.1-0.7-0.2-1-1.1-0.6c-4.9,2.9-10.2,4.9-15.4,6.9
		c-5.6,2.1-11.3,3.5-17.1,4.8c-2.7,0.6-5.5,0.5-8.3,0.5c-0.4,0-0.8-0.2-1.1,0.3c-1.1-2.9-1.6-5.9-2.3-8.9c-0.1-0.6,0.2-0.4,0.5-0.4
		c0.9,0,1.8,0,2.7,0c7.2,0,14.2-0.9,21-3.5c2.9-1.1,6-1.7,8.9-3c3.1-1.4,6.2-2.8,9.2-4.3c1.2-0.6,1.2-0.6,1.6,0.7
		C144.1,353.7,144.8,357.3,145.2,360.9z"/>
	<path class="st15" d="M81.7,366.5c-0.1-0.3-0.3-0.5-0.6-0.4c-0.3,0-0.6,0-0.9,0c-5.2,0.3-10.2-0.7-15.2-2c-6-1.6-12-3.2-17.7-5.6
		c-1.2-0.5-2.3-1-3.5-1.6c-0.6-0.3-0.9-0.3-1,0.6c-0.2,4.5-0.4,8.9-0.7,13.4c-0.6,8.9-0.3,17.8-0.3,26.7c0,3.3,0.3,6.5,0.4,9.8
		c0.2,4.8,0.5,9.6,0.8,14.4c0.1,1.3,0.2,2.5,0.1,3.8c-0.2-2.2-0.4-4.5-0.6-6.7c-0.7-10.9-1.2-21.8-1.2-32.7c0-9,0.4-17.9,1-26.8
		c0.2-3.3,0.2-6.6,0.8-9.8c0.3-2.1,0.1-2.1,2-1.3c5.8,2.3,11.7,4,17.7,5.7c4.2,1.2,8.3,2.7,12.6,3.4c2.3,0.4,4.5,1.1,6.8,1.3
		c0.7,0.1,1.1,0.3,0.8,1.2c-0.6,2-0.9,4.2-1.3,6.3C81.8,366.3,81.7,366.4,81.7,366.5z"/>
	<path class="st16" d="M145.6,133c0.6,0.4,1.2,0.2,1.8,0.2c0.7,0,0.8,0.3,0.5,0.8c-1.4,2.4-2.7,4.9-4,7.3c-2,3.7-3.7,7.5-5.6,11.3
		c-1.6,3.3-3.1,6.7-4.7,10c-0.2,0.4-0.1,1.2-0.9,1.2c-3.6-0.7-6.5-2.6-8.8-5.4c-0.2-0.3-0.4-0.5-0.6-0.8l0,0
		c-0.2-0.6-0.1-1.1,0.1-1.7c2.1-4.4,4.2-8.8,6.3-13.3c1.4-2.8,2.7-5.6,4.2-8.3c0.2-0.4,0.4-0.7,0.7-1c0.3-0.2,0.6-0.2,0.9-0.2
		C138.8,133.3,142.2,132.9,145.6,133z"/>
	<path class="st5" d="M128.9,278.7c-1.8-0.4-3.6-1-5.5-1.3c-2.5-0.4-5-0.7-7.5-1c-2.6-0.3-5.1-0.5-7.7-0.8c-1.1-0.1-2.1-0.1-3.2-0.2
		c-3-0.2-5.9-0.3-8.9-0.5c-8.6-0.5-17.2-0.3-25.9-0.4c-1.5,0-2-0.7-1.8-2.2c0.2-1.2,0.6-2.3,1.2-3.3c0.6-1.1,1.5-1.6,2.6-1.6
		c4.3,0,8.6-0.1,12.9,0.6c1,0.1,2,0,3,0c2.4,0.1,4.7,0.4,7,0.7c0.9,0.1,1.8,0.3,2.7,0.3c2.9,0,5.8,0.4,8.7,0.8
		c0.9,0.1,1.9,0.2,2.8,0.2c3.2,0,6.3,0.8,9.5,1.4c3.5,0.7,6.9,1.8,10.3,2.8c0.6,1.3,0.3,2.7,0.2,4.1
		C129.6,278.6,129.4,278.9,128.9,278.7z"/>
	<path class="st8" d="M145.8,227.9c-0.4-3.4-1.7-5.9-4.2-7.8c-0.2-0.2-0.5-0.4-0.8-0.5c-1.8-0.5-2.5-1.7-2.9-3.5
		c-0.5-2.3-2.1-3.8-4.2-4.7c-0.8-0.3-0.8-0.6-0.5-1.3c1.5-2.9,2.9-5.9,4.3-8.8c0.3-0.5,0.6-0.8,1.2-0.9c1.5-0.3,3-0.4,4.4-0.6
		c1.3-0.1,2.7-0.1,4-0.2c0.8-0.1,1.2,0.3,1.4,1c1,3.7,2.1,7.4,2.4,11.2c0.3,3,0.1,5.8-0.7,8.7C149.6,223.3,148,225.6,145.8,227.9z"
		/>
	<path class="st13" d="M82.7,104c-0.3-0.3-0.5-0.6-0.9-0.8c-4.7-2.2-9.1-4.9-13.7-7.3c0.1-2-0.5-2.5-2.4-1.8
		c-0.2,0.1-0.4,0.1-0.7,0.2c-2-0.8-3.8-2.1-5.6-3.1c-0.5-0.3-0.9-0.6-1.5-0.6c-0.1-0.8-0.6-1-1.3-1.1c-3.6-2.1-7.1-4.5-10.7-6.6
		c1-1.5,2.5-2.4,4-3.4c0.5-0.3,1.1,0.1,1.5,0.3c4.4,1.8,8.7,3.6,13,5.5c6,2.6,11.9,5.4,17.9,8c0.8,0.4,1,0.7,0.8,1.6
		C82.6,98,82.6,101,82.7,104z"/>
	<path class="st13" d="M113.7,115.1c0-0.5-0.2-0.7-0.8-0.9c-8.2-1.8-16.3-4.1-24-7.6c-0.9-0.4-1.9-0.8-2.8-1.2
		c-0.5-1.7-0.4-3.5-0.5-5.3c0-1.3,0-2.6,0.3-4c0.2-0.8,0.4-0.9,1.1-0.6c3,1.4,6.1,2.8,9.2,4.2c3,1.4,6.3,2.3,9.3,3.7
		c3.2,1.5,6.4,2.9,9.6,4.2c0.9,0.4,1,0.8,0.7,1.7C115.1,111.3,114.4,113.3,113.7,115.1z"/>
	<path class="st14" d="M135.5,300.5c0-0.1,0-0.3-0.1-0.4c-2.3-2-2.6-5-3.5-7.6c-0.8-2.3-1.5-4.7-1.8-7.1c0-0.4-0.1-1-0.7-0.9
		c-2,0.1-3.9-0.7-5.8-1.1c-3.7-0.7-7.4-1.3-11.1-1.8c-3.5-0.5-7.1-1-10.6-1.4c-2.3-0.3-4.5-0.4-6.8-0.7c-2.7-0.3-5.3-0.5-8-0.8
		c-1.2-0.1-2.3-0.1-3.5-0.2c-4.9-0.3-9.8-0.6-14.7-0.4c0.3-1.2,1.3-1.2,2.2-1.2c1.6,0,3.2,0,4.8,0.2c1.8,0.2,3.6-0.2,5.4-0.2
		c4-0.1,7.9,0.2,11.9,0.3c2.8,0.1,5.7,0.2,8.5,0.4c4.1,0.3,8.2,0.6,12.3,1c4.3,0.5,8.7,0.8,12.9,2c2.7,0.8,5.3,2.1,8,2.8
		c2.5,0.6,3.3,2.1,3.7,4.2c0.3,1.3,0.7,2.6,1.3,3.8c0.5,1.1,0.1,1.9-0.4,2.6C137.8,295.8,136.7,298.2,135.5,300.5z"/>
	<path class="st12" d="M155.9,158.9c2.3-2.8,3.7-6.1,4.4-9.6c0.7-3.5,1.8-6.9,2.3-10.4c0.1-1.1,1.4-2.4,2.4-2.4
		c3.3,0,6.6,0.1,9.8,0.6c0.6,0.1,0.6,0.3,0.5,0.7c-1.1,6.2-3,12.1-5.7,17.8c-0.3,0.6-0.5,0.8-1.2,0.8c-4.3-0.1-8.3,1-12,3
		C155.9,159.5,155.7,159.3,155.9,158.9z"/>
	<path class="st5" d="M90.1,209.8c2.4,0,4.4,1.5,5.1,3.8c0.3,0.8,0.4,1.7,0.6,2.6c0.1,0.6,0.4,1,1.1,1.2c3,0.8,3.7,2.3,4.1,5.2
		c0,0.3,0,0.6,0.1,0.8c0.3,1.5,1.5,1.9,2.7,0.8c0.9-0.8,1.7-1.6,2.9-2.1c1.5-0.6,3-0.4,4.5-0.2c1.2,0.2,2.2-0.3,2.6-1.4
		c0.8-2.9,3-3.4,5.1-3.1c1.2,0.1,2.3,0.4,3.5,0.7c0.9,0.2,1.8-0.3,2.1-1.2c0.3-0.9,0.3-1.9,1.2-2.5c1.3-0.8,2.7-1.5,4.3-1.3
		c2.7,0.3,4.9,1.6,5.7,4.2c0.2,0.8,0.1,1.6,0.3,2.3c0.2,0.9,0.5,1.3,1.3,1.4c2.8,0.3,5.4,3.2,5.9,6.5c0.1,0.7-0.3,1.4,0.1,2.1
		c0,0-0.1,0.2-0.1,0.3c-0.9,0.6-1.8,1.3-2.7,1.8c-0.4,0.2-0.5-0.2-0.6-0.5c-1.2-2.3-2.6-4.5-4-6.6c-1.2-1.8-2.7-3.3-4.4-4.7
		c-0.6-0.4-1.2-0.6-1.9-0.6c-2.6-0.1-5.2,0.3-7.6,1.1c-6.5,2.2-12.9,4.5-19.3,6.9c-1.6,0.6-1.6,0.6-2.3-1c-1.9-3.9-3.9-7.7-6.5-11.1
		c-1.3-1.7-2.8-3.1-4.6-4.2c-0.3-0.2-0.8-0.3-0.8-0.7c0.1-0.4,0.6-0.4,1-0.4C89.4,209.7,89.8,209.8,90.1,209.8z"/>
	<path class="st16" d="M115.9,136.6c-0.5-1.3-0.3-2.4-0.3-3.5c0-0.3,0.3-0.4,0.6-0.4c3.7-1,7.5-1.8,11.4-1.9c3.3-0.1,6.7-0.5,10-0.8
		c1.4-0.1,2.8-0.1,4.2-0.2c5.1-0.3,10.1-0.4,15.2-0.2c1.8,0.1,3.5-0.1,5.3-0.1c2.4,0.1,3.1,1.1,2.3,3.3c-0.4,1.1-1.2,1.8-2.1,2.2
		c-1.6,0.7-1.9,2.1-2.2,3.6c-1.1,5.4-1.6,11-4.3,15.9c-2.9,5.2-6.8,9.4-12.5,11.7c-2.6,1.1-5.5,1.4-8.3,0.9c-0.6-0.1-1.2,0-1.8-0.1
		c-3.3-0.4-6.3-1.6-8.9-3.6c-2.1-1.6-3.8-3.4-4.9-5.9c-1.3-3-3.1-5.8-3.7-9.1c-0.3-1.5-0.8-3-0.9-4.6c0-0.4-0.3-1,0.3-1.1
		c0.5-0.1,0.5,0.6,0.5,1c0.7,3,1.4,6.1,2.7,8.9c1.4,3.1,3,6.2,5.5,8.6c2.4,2.3,5.4,3.6,8.5,4.2c4.8,0.9,9.6,0,13.9-2.3
		c3.8-2,7.1-4.8,8.7-8.9c1.3-3.4,2.5-6.9,3-10.5c0.1-1,0.4-2.1,0.6-3.1c0.5-2-0.1-3.9-0.7-5.8c-0.6-1.9-2.1-2.7-3.9-3
		c-2.2-0.4-4.3-0.4-6.5-0.5c-2.4-0.1-4.7-0.2-7.1-0.1c-3.7,0.2-7.4,0.2-11.1,0.7c-2.1,0.3-4.3,0.3-6.4,0.7
		C120.1,133.1,117.6,134,115.9,136.6z"/>
	<path class="st14" d="M134.5,133.4c-0.3,1.1-1,1.9-1.5,2.9c-2.9,6.1-5.9,12.2-8.8,18.3c-0.5,1-1.2,1.9-1.1,3.1
		c-1.7-2.6-3.1-5.4-4-8.3c-0.7-2-1.7-4-1.7-6.2c-0.1-2.1-0.5-4.4,0.8-6.3c0.8-1.2,1.8-2,3.2-2.2c2.6-0.3,5.2-0.6,7.8-0.9
		C131.1,133.6,132.8,133.4,134.5,133.4z"/>
	<path class="st10" d="M170,97.2c-1.8-0.3-4.4-0.8-6.9-1.3c-1.5-0.3-1.5-0.3-0.8-1.8c2.3-4.9,4.8-9.7,6.4-14.9
		c0.2-0.6,0.4-0.8,1.1-0.6c3.4,0.6,6.8,1.5,10.2,1.7c0.6,0,0.4,0.4,0.3,0.7c-0.8,2.7-2.2,5.2-3.5,7.7c-1.2,2.3-2.4,4.6-3.6,6.9
		C172.6,97.2,172.4,97.3,170,97.2z"/>
	<path class="st14" d="M129.8,271.5c0.9-2.3,1.8-4.5,2.7-6.8c0.6-1.5,1.4-2.8,2-4.2c1.6-3.5,3.7-6.8,5.7-10c0.6-1,1.3-2,2-3
		c0.2-0.3,0.5-0.6,0.4-1c1.3,1.5,2.6,3,3.9,4.5c0.8,0.8,0.6,1.6,0.1,2.4c-1.1,1.6-2.2,3.2-2.8,5c-1.4,3.8-3.9,7-5.1,10.8
		c-0.4,1.3-0.9,2.7-1.3,4c-0.2,0.6-0.4,0.7-1,0.5C134.1,272.8,132,272.2,129.8,271.5z"/>
	<path class="st8" d="M17.6,487.2c0.4-0.2,0.6,0,0.9,0.1c8.4,3,17.1,3.8,25.9,3.4c6.5-0.3,13-1,19.4-2.2c3.1-0.6,6.2-1.3,9.3-2.2
		c0.7-0.2,0.9-0.2,0.9,0.7c0,2.5,0,2.5-2.4,3.1c-6.1,1.6-12.4,2.5-18.7,3c-5,0.4-9.9,0.6-14.9,0.4c-5.3-0.2-10.5-0.6-15.6-2.5
		C20.5,490.2,18.8,489,17.6,487.2z"/>
	<path class="st16" d="M73.6,157.7c-2-3.4-3.4-7.1-4.1-11c0-0.1-0.1-0.2-0.2-0.3c0,0,0,0,0,0c-0.2-0.9-0.3-1.8-0.4-2.7
		c0-1.7-0.4-3.5-0.2-5.2c0-0.6-0.2-0.8-0.8-0.7c-0.4,0-0.8,0-1.1,0c-0.6-0.1-1.3-0.3-1.3-1c-0.1-0.8,0.5-1.2,1.2-1.4
		c0.7-0.2,1.4-0.2,2.1-0.4c3.3-0.7,6.6-1,10-1.3c5.9-0.6,11.8-0.7,17.7-0.6c1.1,0,2.1,0.1,3.2,0.2c1.5,0.2,3.3,2,3.7,3.5
		c0.7,2.4,0.7,4.9,0.2,7.4c-0.3,1.5-0.2,3-0.3,4.5c-0.4,5.4-2.3,10.2-6.5,13.7c-3,2.5-6.7,3.6-10.8,3.1c-4.1-0.5-7.1-2.6-10.1-5.2
		C75,159.5,74.4,158.5,73.6,157.7z"/>
	<path class="st8" d="M180.8,486.5c-1.1,1.7-2.2,3.3-4.3,3.8c-3.7,0.9-7.4,1.2-11.2,1.5c-11.2,0.8-22.5,0.4-33.7-0.8
		c-2-0.2-4.1-0.5-6.1-0.7c-0.6-0.1-1-0.2-1-0.9c0-2.3-0.3-1.9,1.8-1.6c9.2,1.3,18.5,2,27.8,1.9c8.7-0.1,17.3-1.3,25.8-3.2
		C180.1,486.5,180.3,486.3,180.8,486.5z"/>
	<path class="st15" d="M58.8,285.1c0.6,0.1,0.7,0,0.5-0.6c-1.5-3.4-2.5-6.9-3.1-10.6c-0.6-4-0.8-7.9-0.6-11.9c0.3-5,1-10,2.8-14.8
		c0.5-1.4,0.9-2.9,1.7-4.1c-0.6,2.5-1.4,5.1-1.5,7.7c-0.2,2.6-0.6,5.2-0.1,7.8c0.5,2.7,0.8,5.4,1.2,8c0.7,4.4,1.8,8.7,3.9,12.6
		c0.2,0.4,0.1,0.6-0.1,0.9c-1.2,1.8-2.4,3.7-3.7,5.4C59.2,286.2,59.2,285.2,58.8,285.1z"/>
	<path class="st15" d="M127.9,200.7c-2.1,0.4-4.3,0.7-6.4,0.9c-1.6,0.1-3.2,0.1-4.8,0c-2.4-0.2-4.9-0.5-7.2-1.1
		c-1.5-0.3-3-0.8-4.4-1.4c-0.3-0.2-0.6-0.1-0.9,0c0.5-1.6,1-3.2,1.5-4.9c0.2-0.5,0.5-0.3,0.8-0.2c2.3,0.6,4.6,1,7,1.4
		c3.2,0.5,6.4,0.6,9.7,0.7c1.5,0.1,3.1,0,4.6,0c0.5,0,0.8,0.1,0.8,0.7C128.5,198.1,128.3,199.4,127.9,200.7z"/>
	<path class="st15" d="M163.3,258.9c-0.1,1.9-0.5,3.7-1.1,5.5c-1.2,3.9-2.5,7.8-4.8,11.3c-2.1,3.3-4.5,6.5-7.2,9.4
		c-1.5,1.6-3.1,3-4.8,4.4c-0.3,0.2-0.4,0.4-0.5,0.8c-0.8-0.4-1.5-1.1-2.5-0.8c-0.4,0.1-0.6-0.3-0.7-0.6c-0.4-1.2-0.8-2.3-1.2-3.5
		c-0.3-0.7,0.3-1,0.7-1.3c2.1-1.4,4.4-2.5,6.4-4c3.7-2.8,7.3-5.8,9.9-9.7c2.3-3.5,4.2-7.2,5.5-11.2C163.2,259,163.2,259,163.3,258.9
		z"/>
	<path class="st13" d="M85.3,193.3c-0.7-1.2-1.5-2.2-2.2-3.4c-1.2-2.4-1.6-4.9-2-7.4c-0.2-1.5-0.4-3-0.4-4.6c3,3.1,6.1,6.1,9.7,8.5
		c3.2,2.2,6.4,4.4,10.2,5.7c0.6,0.2,0.7,0.6,0.6,1.1c-0.2,0.8-0.3,1.6-0.6,2.4c-0.4,0.7-1,0.4-1.6,0.1c-1.2-0.7-2.4-1.5-3.6-2.2
		c-3-1.8-6.1-1.6-9.2-0.5C85.9,193.1,85.6,193.2,85.3,193.3z"/>
	<path class="st7" d="M45.8,83c1.3,0.1,2.3,1,3.3,1.7c2.3,1.5,4.6,2.9,7,4.3c0.2,0.1,0.5,0.3,0.5,0.6c-3.2,0.5-6.2,1.7-9.1,3
		c-2.8,1.3-5.5,2.8-8.1,4.4c-0.3,0.2-0.5,0.4-1.1,0.4C39.6,92,42.1,87.2,45.8,83z"/>
	<path class="st13" d="M43,81.4c-0.7-1.2-2-1.8-3.1-2.6c-3.4-2.3-6.8-4.6-9.9-7.2c-2.1-1.8-4.3-3.5-6.3-5.4
		c-0.2-0.2-0.5-0.3-0.8-0.3c0.5-0.8,1.3-1.1,2.1-1.6c0.4-0.3,0.7,0,1,0.1c2.3,1.2,4.5,2.8,6.7,4.2c4.3,2.8,8.8,5.5,13,8.4
		c1.2,0.8,1.2,0.8,0.1,1.8C44.7,79.7,43.9,80.5,43,81.4z"/>
	<path class="st12" d="M89.5,123.3c-5-0.5-9.8,0.2-14.6,0.2c-1,0-1.2-0.2-0.9-1.2c0.3-1.3,0.6-2.6,0.8-3.9c0.1-0.5,0.3-0.9,0.8-1.1
		c2.6-1.6,5.3-2.9,8.2-3.9c0.3-0.1,0.6-0.3,0.8,0.2C85.8,117,87.4,120.2,89.5,123.3z"/>
	<path class="st10" d="M181.3,97c-0.7,0-0.5-0.4-0.3-0.8c1-1.8,2-3.6,3-5.4c1.7-2.8,3.1-5.8,4.1-8.9c0.3-0.8,0.5-1.1,1.6-1
		c1.9,0.2,3.8,0.1,5.7,0.1c0.3,0,0.7-0.2,0.8,0.2c0.1,0.3-0.1,0.5-0.3,0.7c-2.8,4.1-5.5,8.3-8.5,12.3c-1.3,1.7-3,2.3-4.9,2.6
		C182.2,96.9,181.8,96.9,181.3,97z"/>
	<path class="st12" d="M133,115.1c-4,1.3-7.9,2.6-12,3.4c-1.3,0.3-2.6,0.5-4,0.6c-0.5,0-0.7-0.1-0.6-0.6c0.5-2.8,1.2-5.5,2.4-8.1
		c0.3-0.6,0.6-0.5,1.1-0.3c4.2,1.5,8.4,3,12.6,4.5C132.8,114.7,133.4,114.6,133,115.1z"/>
	<path class="st14" d="M75,343.3c1,3.9,2.6,7.4,5.4,10.4c-6.5-0.7-12.6-2.8-18.9-4.8C66.9,348.5,71.2,347.1,75,343.3z"/>
	<path class="st14" d="M92.2,355.3c4.5-2.1,8-4.7,10.1-9.3c0.9,1.9,1.5,3.7,2.8,5.2c1.2,1.4,2.6,2.7,4.4,3.7
		C107.5,355.6,101.2,355.9,92.2,355.3z"/>
	<path class="st17" d="M150.5,236.7c2.4-0.4,4.9-0.8,7.4-1.7c-1.2,1.9-2.3,3.6-3.4,5.3c-1.9,2.9-3.7,5.7-5.6,8.6
		c-0.4,0.6-0.6,0.7-1.1,0.1c-0.5-0.7-1.4-1.3-1.6-2.1c-0.3-0.8,0.7-1.4,1.1-2.1c0.9-1.8,1.8-3.7,1.8-5.8
		C149.1,237.9,150.1,237.5,150.5,236.7z"/>
	<path class="st13" d="M147.4,196.4c0,0.3-0.2,0.6-0.7,0.6c-3.2-0.2-6.2,0.6-9.3,0.9c-1.2,0.1-2.2,0.6-3.4,0.8c-0.8,0.1-1,0.2-1-0.8
		c0.1-1.7,0.9-2.4,2.6-2.7c3.4-0.6,6.4-2.3,9.3-4.2c1-0.6,1-0.6,1.3,0.5C146.6,193,147,194.6,147.4,196.4z"/>
	<path class="st14" d="M55.2,347c-5-1.6-9.7-2.9-14.4-5c1.4-0.8,2.8-1.1,4-1.9c1.4-0.9,3-1.6,4.4-2.6c0.4-0.3,0.9-0.6,1,0.1
		C50.9,341.1,52.9,344,55.2,347z"/>
	<path class="st14" d="M124.3,352c0.6-1.1,1-2,1.5-2.8c1.3-2.3,1.6-4.8,2.1-7.3c0.1-0.4,0.1-0.8,0.6-0.3c1.2,1.1,2.6,2.1,4.1,2.9
		c1.5,0.8,3,1.2,4.9,1.6C133.1,348.2,128.9,350.2,124.3,352z"/>
	<path class="st12" d="M158.3,124.4c-0.1-2-0.1-2,1.8-1.5c4.2,1.1,8.4,2.3,12.6,3.4c0.9,0.2,1.9,0.4,2.9,0.6
		c0.3,0.1,0.5,0.1,0.7,0.3c0.2,0.2,0.1,0.5,0.1,0.8c-0.1,0.4-0.4,0.1-0.6,0.1c-4.7-0.3-9.5-0.7-14.2-1c-0.7-0.1-1.5-0.2-2.2-0.2
		c-0.8,0-1.3-0.3-1.2-1.2C158.3,125.3,158.3,124.9,158.3,124.4z"/>
	<path class="st7" d="M57.8,90.6c0.2-0.1,0.3-0.5,0.6-0.3c2.1,1.3,4.3,2.5,6.4,3.8c0.1,0,0.1,0.1,0.1,0.2c-3.4,1.9-6.6,4.2-9.6,7
		C55.3,97.4,56.8,94.1,57.8,90.6z"/>
	<path class="st14" d="M128.9,278.7c0.6-0.1,0.4-0.5,0.4-0.9c0-1.2,0-2.4,0-3.6c2.1,0.5,4.1,1.1,6.2,1.6c1.2,0.3,1.8,1.1,1.8,2.3
		c0,0.8,0,1.5,0,2.3c0,0.9-0.6,1.3-1.5,1C133.6,280.4,131.3,279.5,128.9,278.7z"/>
	<path class="st18" d="M176.3,97.2c-0.9,0.1-0.9-0.2-0.5-0.8c2.1-3.6,3.8-7.3,5.7-11c0.6-1.3,1.1-2.7,1.6-4c0.2-0.5,2.1-0.9,2.4-0.5
		c0.3,0.4,0,0.8-0.2,1.2c-1.2,3-2.6,5.9-4.2,8.6c-1.1,1.9-2.2,3.8-3.3,5.8C177.4,97,177,97.4,176.3,97.2z"/>
	<path class="st16" d="M169.1,130.5c2.5,0.3,4.7,0.3,6.9,0.7c0.9,0.1,1.2,0.5,1,1.4c-0.5,2-0.5,2-2.7,1.9c-2.2-0.2-4.3-0.4-6.5-0.6
		c-0.8-0.1-0.7-0.4-0.4-0.9c0.2-0.5,0.5-0.9,0.6-1.4C168.1,130.7,168.5,130.3,169.1,130.5z"/>
	<path class="st5" d="M143.7,237.1c0.1,0,0.1,0,0.2,0c2,0,2.6,0.6,2.5,2.6c-0.1,1.6-0.5,3-1.5,4.4c-0.5,0.7-0.7,0.5-1-0.1
		c-0.6-1-0.8-2.2-1.2-3.3c-0.3-0.8-0.5-1.7-0.9-2.5c-0.3-0.8-0.1-1.2,0.8-1.1C143,237.1,143.4,237.1,143.7,237.1z"/>
	<path class="st14" d="M152.3,336.5c0.5-1.9,0.7-3.8,0.2-5.6c-0.1-0.5,0.1-0.8,0.5-0.5c1.4,0.8,2.5-0.2,3.7-0.5
		c0.6-0.1,1.2-0.5,2.1-0.8C157,332,154.8,334.4,152.3,336.5z"/>
	<path class="st14" d="M44.3,324.4c1.7,2.3,1.1,5.7-1.2,7.1c-0.1,0.1-0.2,0.2-0.3,0.2c-0.5,0-1,0.5-1.4,0.2
		c-0.3-0.3,0.1-0.7,0.2-1.1C42.4,328.6,43.1,326.4,44.3,324.4z"/>
	<path class="st19" d="M119.7,128c0.1,0.4-0.1,0.7-0.7,0.7c-0.8,0.1-1.7,0.2-2.5,0.5c-0.6,0.2-0.7-0.1-0.7-0.6
		c-0.2-2.8-0.2-2.8,2.6-3.1c0.9-0.1,1.2,0.1,1.2,1C119.5,126.9,119.6,127.4,119.7,128z"/>
	<path class="st14" d="M150.6,335c0-1.2-0.9-1.9-1.5-2.8c-1-1.5-2.1-2.8-3.2-4.2c1.3,0.4,2.4,1.2,3.7,1.5c0.2,0,0.4,0.2,0.5,0.4
		C150.7,331.5,151.1,333.2,150.6,335z"/>
	<path class="st20" d="M75.7,131.1c0,0.9-1.3,1.7-2.5,1.7c-0.4,0-0.6-0.2-0.4-0.6c0.4-0.7-0.6-2.1,0.8-2.3
		C75.3,129.7,75.7,130.1,75.7,131.1z"/>
	<path class="st11" d="M19.7,138.6c1.2,0.7,1.8,1.9,2.6,2.9c2,2.4,4.1,4.8,6.2,7.2c0.6,0.6,1.2,1.2,1.5,2c-3.1-3.2-6-6.6-8.8-10.1
		C20.6,140,20,139.4,19.7,138.6z"/>
	<path class="st11" d="M33.9,155.5c0.6,0.3,1,0.9,1.3,1.4c1.4,2,2.9,4,4.1,6.2c0.2,0.3,0.2,0.6,0.2,0.9
		C37.7,161,35.8,158.2,33.9,155.5z"/>
	<path class="st11" d="M8,112.7c0.7,1.8,1.1,3.7,1.6,5.6c0.4,1.3,1,2.6,1,3.9C9.4,119.1,8.5,115.9,8,112.7z"/>
	<path class="st11" d="M15.4,132.4c0.4,0.1,0.6,0.5,0.8,0.8c1.1,1.6,2.3,3.3,3.4,5c0.1,0.1,0.1,0.3,0.1,0.5
		C18,136.7,16.7,134.6,15.4,132.4z"/>
	<path class="st11" d="M10.9,83c-0.7,2.3-1.3,4.6-2.5,6.6C8.9,87.3,9.8,85.1,10.9,83z"/>
	<path class="st11" d="M15.2,75c-0.5,1.7-1.6,3.1-2.4,4.6c-0.2,0.4-0.3,1-0.9,1.2C12.8,78.7,13.8,76.7,15.2,75z"/>
	<path class="st21" d="M150.5,236.7c0.3,0.4-0.1,0.7-0.3,0.8c-0.6,0.3-0.8,0.9-1.1,1.5c-0.1-0.4-0.1-0.7-0.2-1.1
		c-0.1-0.4-0.2-0.7-0.3-1.2C149.3,236.7,149.9,236.7,150.5,236.7z"/>
	<path class="st11" d="M30,150.7c1.6,1.3,3,2.8,3.9,4.7C32.5,153.9,31.2,152.4,30,150.7z"/>
	<path class="st11" d="M12.7,127.1c1.1,1.5,2,3.1,2.5,4.9C14.2,130.4,13.3,128.8,12.7,127.1z"/>
	<path class="st11" d="M6.9,97.3c0,1.9,0,3.9,0,5.8c0,0.2,0,0.5-0.2,0.7C6.7,101.6,6.5,99.5,6.9,97.3z"/>
	<path class="st2" d="M68.9,143.7c0.3,0.9,0.4,1.8,0.4,2.7C68.9,145.5,68.9,144.6,68.9,143.7z"/>
	<path class="st11" d="M7,106.1c0.4,0.9,0.4,1.8,0.3,2.7C7.1,107.9,7,107,7,106.1z"/>
	<path class="st11" d="M8.4,89.6c0,0.8-0.3,1.6-0.6,2.3C7.8,91.1,8,90.3,8.4,89.6z"/>
	<path class="st7" d="M36.7,102.3c-0.4,0.5-0.9,0.6-1.4,0.1c0,0,0-0.1,0-0.1c0.1,0,0.1,0,0.2,0C36,102.3,36.4,102.3,36.7,102.3z"/>
	<path class="st22" d="M31.7,433.3c-0.3,0-0.6,0-0.7,0.5c-0.2-0.3-0.7-0.6-0.4-0.9C30.9,432.7,31.4,433.1,31.7,433.3z"/>
	<path class="st23" d="M155.9,158.9c0,0.3,0.2,0.5,0.5,0.5c-0.3,0.2-0.6,0.4-0.9,0.6c-0.4,0-0.3-0.2-0.2-0.4
		C155.5,159.3,155.7,159.1,155.9,158.9z"/>
	<path class="st7" d="M42.1,99.1c-0.2,0.6-0.6,0.9-1.3,0.8C41.2,99.5,41.7,99.3,42.1,99.1z"/>
	<path class="st11" d="M7.6,110.6c0.5,0.6,0.4,1.3,0.4,2.1C7.7,112,7.7,111.3,7.6,110.6z"/>
	<path class="st24" d="M83.5,466.1c0.4-0.5,0.6-0.9,0.9-1.3C84.4,465.4,84.2,465.8,83.5,466.1z"/>
	<path class="st11" d="M7.8,91.9c0,0.7-0.1,1.3-0.4,1.9C7.4,93.1,7.4,92.4,7.8,91.9z"/>
	<path class="st7" d="M44,98c-0.3,0.5-0.5,0.7-1,0.6C43.2,98.3,43.6,98.1,44,98z"/>
	<path class="st22" d="M33.1,434c-0.6,0-1-0.2-1.4-0.6C32.2,433.4,32.7,433.6,33.1,434z"/>
	<path class="st11" d="M7.4,109.2c0.2,0.4,0.4,0.8,0.2,1.2C7.3,110,7.4,109.6,7.4,109.2z"/>
	<path class="st25" d="M148.7,166.7c-0.1-0.1-0.1-0.3-0.2-0.4c0.1-0.2,0.5-0.4,0.5-0.2C149.2,166.4,149,166.6,148.7,166.7z"/>
	<path class="st26" d="M41.1,186.9c0,0.4-0.2,0.8-0.6,1C40.6,187.5,40.7,187.1,41.1,186.9z"/>
	<path class="st27" d="M133,115.1c0.2-0.4-0.3-0.4-0.4-0.6c0.3-0.1,0.7,0,0.8,0.4C133.5,115.1,133.3,115.1,133,115.1z"/>
	<path class="st7" d="M39.5,100.7c0,0.5-0.2,0.5-0.6,0.4C39,100.9,39.2,100.7,39.5,100.7z"/>
	<path class="st7" d="M37.8,101.7c0.1,0.6-0.3,0.5-0.6,0.4C37.3,101.9,37.5,101.8,37.8,101.7z"/>
	<path class="st11" d="M11.7,81.2c0,0.4,0,0.8-0.5,1C11.3,81.8,11.4,81.5,11.7,81.2z"/>
	<path class="st28" d="M106.2,138.2c0.1,0.2-0.1,0.2-0.2,0.2c-0.2,0.1-0.3,0-0.3-0.2c0-0.1-0.1-0.3,0.1-0.3
		C106,137.8,106.1,138,106.2,138.2z"/>
	<path class="st29" d="M155.3,159.6c0.1,0.1,0.1,0.3,0.2,0.4c-0.1,0.2-0.4,0.4-0.5,0.2C154.8,159.9,155.1,159.7,155.3,159.6z"/>
	<path class="st11" d="M11.9,125.2c0.4,0.2,0.5,0.6,0.4,1C12,126,11.9,125.6,11.9,125.2z"/>
	<path class="st11" d="M11.4,124.2c0.5,0.2,0.5,0.6,0.5,1C11.6,124.9,11.5,124.5,11.4,124.2z"/>
	<path class="st14" d="M123.2,157.7c0.3,0.2,0.6,0.4,0.6,0.8C123.5,158.3,123.2,158.1,123.2,157.7z"/>
	<path class="st11" d="M7.1,95.3c0,0.4,0.2,0.8-0.2,1.1C7,96,7,95.6,7.1,95.3z"/>
	<path class="st11" d="M12.3,126.2c0.4,0.2,0.5,0.5,0.4,0.9C12.4,126.9,12.3,126.6,12.3,126.2z"/>
	<path class="st11" d="M6.8,104c0.3,0.3,0.1,0.7,0.1,1.1C6.8,104.8,6.7,104.4,6.8,104z"/>
	<path class="st30" d="M74.2,464c0.1-0.3,0.1-0.6,0.4-0.8C74.7,463.5,74.6,463.9,74.2,464z"/>
	<path d="M108.3,340.8c0.2-2.9,1.3-5.4,3.7-7.1c2-1.4,5.2-1,7,0.7c0.8,0.7,1.4,1.6,2,2.5c0.9,1.4,1.2,2.9,0.5,4.5
		c-1.1,2.4-2.6,4.6-5.2,5.5C113.2,347.9,108,345.2,108.3,340.8z"/>
	<path d="M90,333.6c2.5,0,5.6,2.6,5.6,5c0,2-0.8,3.7-2.1,5.2c-0.9,1-1.8,1.9-3.2,2c-2.2,0.2-4-0.4-5.5-2.1c-1.2-1.5-1.2-3.2-0.6-4.9
		c0.6-1.9,1.7-3.6,3.5-4.6C88.4,333.7,89.2,333.5,90,333.6z"/>
	<path d="M133.7,332.2c0-4.2,2.1-6.6,6-6.4c2.6,0.1,5.5,2.5,5.4,5.3c-0.1,3.3-2.7,6.5-5.6,6.3C136.2,337.3,133.6,335.9,133.7,332.2z
		"/>
	<path d="M68.7,335.3c0,3.1-3,6.2-5.9,5.9c-2.3-0.2-4-1.2-4.7-3.5c-0.3-1.1,0.1-2.1,0.4-3.1c0.6-1.7,1.9-2.9,3.2-3.9
		c1.8-1.4,3.5-1.3,5.1,0.4C67.9,332.2,68.8,333.6,68.7,335.3z"/>
	<path d="M77.7,323.9c-0.1,1.1-1,1.8-1.8,2.5c-1.3,1.1-2.9,1.5-4.5,1.6c-0.9,0-1.6-0.4-2-1.2c-0.4-0.8-0.3-1.5,0.3-2.1
		c1.6-1.6,3.4-3,5.8-3C76.7,321.7,77.7,322.6,77.7,323.9z"/>
	<path d="M128.9,320.2c1,0.3,2,0.3,2.9,0.7c1,0.4,1.1,1.3,1.7,1.9c0.2,0.2,0.1,0.5-0.1,0.8c-0.7,0.9-1.7,1.7-2.9,1.6
		c-1.8-0.2-3.7-0.5-5.1-2c-0.9-0.9-0.7-1.8,0.5-2.3C126.8,320.3,127.9,320.6,128.9,320.2z"/>
	<path d="M112.3,330c0,1.1-1.1,2-2.2,1.9c-2.1-0.3-3.9-1.3-5-3.2c-0.7-1.2-0.2-2.4,1.2-2.2c2,0.2,4,0.5,5.4,2.3
		C112,329.2,112.3,329.7,112.3,330z"/>
	<path d="M98.4,325.4c1.7,0,2.4,1.2,1.8,2.8c-0.7,1.9-3.4,2.9-5.3,2.6c-1.3-0.2-1.6-0.8-1.2-2C94.2,327.1,96.6,325.4,98.4,325.4z"/>
	<path d="M90.3,327.5c0,0.3-0.1,0.7-0.2,1c-0.6,1.8-1.8,2.1-3.1,0.8c-1.2-1.2-1.8-2.7-1.8-4.4c0-1.3,0.9-1.9,2.1-1.5
		C88.8,323.8,90.3,325.8,90.3,327.5z"/>
	<path d="M115.2,327.8c0.4-1.7,1.3-3.6,3.3-4.7c0.7-0.4,1.4-0.3,2,0.2c0.7,0.6,1.2,1.3,0.8,2.3c-0.6,1.7-1.7,3.1-3.3,4.1
		C116.6,330.7,115.2,329.9,115.2,327.8z"/>
	<path d="M60.1,319.2c0.7,0.1,1.5,0.6,2.1,1.2c0.7,0.7,1.2,1.5,1.8,2.4c0.6,1,0.6,1.9-0.1,2.5c-0.8,0.7-1.7,0.9-2.7,0.3
		c-1.8-1.2-2.5-3-2.9-5C58.1,319.8,58.9,319.2,60.1,319.2z"/>
	<path class="st31" d="M62.6,62.8c2.3,1.5,4.5,2.9,6.6,4.3c0.4,0.2,0.7,0.1,1-0.1c0.8-0.4,1.6-1,2.3-1.6c1.1-1,2.1-1.1,2.9-0.3
		c0.8,0.7,0.7,2.1-0.1,3.1c-0.1,0.1-0.2,0.2-0.3,0.3c-1.4,1.2-1.4,1.2,0.2,2.1c6.1,3.4,12,6.9,18.2,10.2c6.4,3.4,13,6.4,19.7,9.2
		c6.8,2.9,13.8,5.5,20.8,7.9c7.1,2.4,14.2,4.5,21.4,6.5c4.1,1.1,8.2,2.5,12.3,3.5c2.3,0.5,4.6,1.1,6.9,1.4c1.4,0.2,2.2,1.2,2,2.5
		c-0.2,1.1-1.3,1.5-2.7,1.3c-4.9-0.7-9.7-2-14.5-3.4c-6.1-1.8-12.2-3.5-18.3-5.3c-5.4-1.7-10.7-3.4-16-5.4c-5.2-1.9-10.3-4-15.4-6.2
		c-6-2.5-11.8-5.3-17.5-8.3c-6.8-3.5-13.3-7.4-19.9-11.2c-2.8-1.6-2.7-1.6-5.1,0.6c-1.1,1-2,1.1-2.9,0.2c-0.8-0.8-0.9-1.7-0.2-2.5
		c0.4-0.5,0.8-1.1,1.4-1.5c0.5-0.3,0.5-0.6,0-0.9c-2.6-1.6-5.1-3.3-7.7-5c-0.7-0.5-1.4-0.1-2,0c-2.8,0.8-5.8,1.1-8.6,1.9
		c-1.2,0.4-2.4-0.4-2.7-1.5c-0.2-1.2,0.5-2.1,1.9-2.4c1.8-0.4,3.6-0.6,5.3-1.2c0.2-0.1,0.5,0,0.5-0.2c0-0.2-0.2-0.3-0.4-0.4
		c-0.3-0.2-0.6-0.5-0.8-0.7c-0.6-0.6-0.8-1.4-0.3-2.2c0.5-0.8,1.2-1.2,2.2-0.9c1.2,0.3,2.1,1.1,3.1,1.8c1.4,1.1,2.8,1.3,4.5,0.8
		c2.8-0.8,5.6-1.2,8.4-1.8c1.1-0.2,2.3,0.5,2.5,1.4c0.3,1.1-0.4,2.1-1.6,2.4C67.4,61.7,65.1,62.2,62.6,62.8z"/>
	<path class="st31" d="M203,117.9c0.5,0.8,0.9,1.5,1.2,2.1c0.6,1.2,0.5,2.4-0.4,2.9c-1,0.6-2.2,0.2-2.9-0.9
		c-0.9-1.5-1.7-2.9-2.6-4.4c-0.3-0.6-0.7-0.9-1.4-1.1c-3.2-0.6-6.3-1.6-9.4-2.5c-0.7-0.2-1.3-0.4-1.7-1c-0.8-1.4,0-2.8,1.5-2.8
		c1.5,0,2.9,0.6,4.4,1c1.1,0.3,2.2,0.6,3.5,0.9c-0.4-1.3-1.2-2.3-1.8-3.4c-0.3-0.6-0.6-1.1-0.7-1.8c0-1,0.4-1.7,1.3-1.9
		c0.9-0.3,1.6,0.1,2.1,0.8c1.1,1.7,2,3.4,2.9,5.2c0.1,0.2,0.2,0.4,0.2,0.6c0.7,2.4,2.9,2.1,4.6,2.6c1.2,0.3,2.5,0.4,3.7,0.6
		c0.3,0,0.6,0.2,0.8-0.1c0.2-0.2-0.1-0.5-0.2-0.7c-0.9-1.5-1.8-3-2.7-4.6c-0.8-1.4-0.5-2.9,0.6-3.4c0.9-0.4,1.9-0.2,2.5,0.8
		c1.5,2.7,3.2,5.3,4.8,8c0.3,0.5,0.6,0.8,1.2,0.8c2.9-0.1,5.9,0.3,8.8-0.4c0.9-0.2,1-0.4,0.4-1.1c-3.1-3.7-6.8-6.7-10.9-9.3
		c-3.6-2.3-7.2-4.5-10.9-6.5c-1-0.5-1.4-1.6-1-2.5c0.3-0.8,1.4-1.3,2.4-0.9c1.2,0.4,2.3,1.1,3.4,1.7c4.3,2.5,8.5,4.9,12.4,8
		c3.5,2.7,6.8,5.6,9.2,9.4c0.9,1.4,0.6,2.8-0.8,3.7c-1.5,1-3.1,1.4-4.9,1.6c-1.9,0.3-3.9,0.1-5.9,0.2c0.2,0.6,0.5,1,0.9,1.5
		c0.9,1.1,0.9,2.3-0.1,3.1c-0.9,0.7-2,0.4-2.9-0.6c-0.9-1.1-1.8-2.2-2.5-3.5c-0.7-1.2-1.8-1-2.7-1.1c-2.1-0.3-4.2-0.7-6.3-1.1
		C203.4,117.8,203.3,117.8,203,117.9z"/>
	<path class="st31" d="M120.7,49.9c-0.2-0.9,0.2-2,0.2-3.2c0-0.5-0.2-0.9-0.7-1.1c-1.9-1.1-3.7-2.2-5.4-3.5
		c-0.2-0.1-0.3-0.3-0.5-0.2c-0.2,0.1-0.2,0.4-0.2,0.5c0,0.5,0,1,0.1,1.5c0.2,1.3-0.4,2.4-1.6,2.5c-1.1,0.1-2.2-0.9-2.2-2.1
		c0-1.5-0.2-3,0.2-4.5c0.2-0.6,0-1-0.5-1.4c-2.2-2-4.4-4-6.5-6.1c-1.6-1.6-3-3.3-4.3-5.2c-0.7-1-0.6-2.1,0.3-2.8
		c0.9-0.7,2.1-0.5,2.8,0.5c2,2.8,4.4,5.1,6.8,7.5c0.7,0.7,1.5,1.3,2.2,2c0.3,0.3,0.5,0.3,0.7-0.2c0.5-1.6,1-3.3,1.8-4.8
		c0.2-0.4-0.1-0.6-0.3-0.9c-2.5-2.6-4.7-5.3-6.9-8.1c-0.3-0.4-0.6-0.8-0.8-1.3c-0.5-0.9-0.3-2,0.5-2.6c0.7-0.6,1.7-0.5,2.4,0.3
		c1.2,1.4,2.4,3,3.6,4.5c0.9,1.1,1.9,2.2,2.8,3.4c0.3,0.4,0.5,0.4,0.8-0.1c1-1.7,1.8-3.6,2.9-5.2c0.7-1,1.8-1.4,2.7-0.9
		c1,0.5,1.3,1.6,0.6,2.8c-1.2,1.9-2.1,4-3.2,6c-0.3,0.6-0.2,0.9,0.2,1.3c1.6,1.3,3.2,2.5,4.8,3.8c0.6,0.4,0.7,0.1,0.8-0.4
		c0.6-1.6,1.2-3.3,2.1-4.8c0.4-0.8,1-1.5,1.6-2.1c0.6-0.6,1.7-0.7,2.4-0.2c0.7,0.5,1,1.4,0.7,2.3c-0.2,0.6-0.6,1.1-1,1.6
		c-1.2,1.7-1.6,3.8-2.4,5.6c-0.2,0.5-0.1,0.8,0.4,1.2c5.8,3.9,12,7,18.3,9.8c3.3,1.5,6.6,3,10,4.4c4,1.6,8.1,3,12.2,4.5
		c0.8,0.3,1.6,0.6,1.8,1.5c0.4,1.6-1,2.8-2.7,2.3c-2.6-0.9-5.2-1.8-7.7-2.7c-6-2-11.7-4.7-17.4-7.3c-5.4-2.4-10.6-5.1-15.5-8.4
		c-0.8-0.5-1.1-0.5-1.3,0.5c-0.2,1.1-0.6,2.2-0.9,3.3c-0.2,0.5-0.1,0.8,0.4,1.1c6.3,3.2,12.5,6.5,19.1,9.1c0.9,0.4,1.8,0.8,1.8,2.1
		c0,1.4-1.1,2.3-2.5,1.9c-1.7-0.5-3.3-1.4-4.9-2c-4.7-2-9.2-4.5-13.8-6.8c-1.1-0.5-1.1-0.5-1.1,0.7c0,0.9-0.1,1.8-0.3,2.6
		c-0.1,0.9-1.1,1.7-2,1.6c-1-0.1-1.7-0.9-1.7-2C120.7,51.1,120.7,50.6,120.7,49.9z"/>
	<path class="st32" d="M176,56.1c1.1,0,1.7,0.7,1.7,1.8c0,0.9-0.9,1.8-1.7,1.8c-0.8,0-2-1.2-1.9-2C174.1,56.9,175,56.1,176,56.1z"/>
	<path d="M119.3,261.2c-5.9,0.1-11.2-1.7-15.8-5.3c-4.1-3.2-6.6-7.4-7.4-12.6c-0.1-0.8-0.3-1.6,0.4-2.3c1-0.9,2.3-0.7,2.6,0.6
		c0.3,0.9,0.3,1.8,0.6,2.7c1.2,4.8,4.1,8.2,8.4,10.6c4,2.2,8.3,3.2,12.9,2.9c1-0.1,2.1-0.3,3.1-0.5c0.4-0.1,0.9-0.1,1.3-0.1
		c0.9-0.1,1.4,0.4,1.6,1.2c0.2,0.8-0.1,1.4-0.9,1.8c-1.5,0.7-3.1,0.8-4.7,1C120.8,261.2,120,261.2,119.3,261.2z"/>
	<path d="M87.5,134.2c2.1,0.4,4.3,0.1,6.5,0c1.7-0.1,3.3,0.5,4.9,0.5c1.6,0.1,2.5,1.3,3,2.8c0.5,1.4,0.6,2.9,0.4,4.4
		c-0.2,1.7-0.1,3.4-0.3,5.1c-0.3,4.1-1,8.1-3.5,11.6c-2.7,3.9-6.5,5.9-11.1,6c-2.9,0.1-5.4-1.3-7.8-2.8c-2.9-1.8-4.9-4.4-6.5-7.4
		c-1.9-3.4-2.8-7.2-3.4-11.1c-0.6-3.2,1-5.6,3.9-7.1c2.4-1.3,5-1.4,7.6-1.6C83.4,134.5,85.4,134.4,87.5,134.2z"/>
	<path class="st14" d="M110.4,341.1c0-2.3,0.9-3.9,2.2-5.2c1.8-1.8,4.3-1.3,6,1.1c0.3,0.4,0.5,0.8,0.8,1.2c0.5,0.8,0.6,1.7,0.2,2.6
		c-0.7,1.4-1.6,2.6-2.8,3.6c-1.5,1.3-3.1,0.5-4.5-0.2C111,343.6,110.3,342.3,110.4,341.1z"/>
	<path class="st14" d="M85.9,340.7c0.2-2.1,1.3-3.6,2.9-4.8c0.7-0.5,2.2-0.3,2.9,0.3c2.4,2,2.3,3.5,0.2,6.3c-1.5,1.9-3.8,1.8-5.4,0
		C86,342,85.9,341.4,85.9,340.7z"/>
	<path class="st14" d="M139,328c2.4,0,3.9,1.3,3.9,3.2c0,2-1.8,4.2-3.5,4.2c-2.3,0-3.7-1.2-3.7-3.2C135.7,329.4,136.8,328,139,328z"
		/>
	<path class="st14" d="M66.6,335.5c-0.2,1.4-1,2.7-2.5,3.4c-1.2,0.6-2.3-0.1-3.3-0.7c-0.6-0.4-0.9-1-0.7-1.8c0.4-1.9,1.6-3.2,3-4.3
		c0.7-0.6,1.5-0.5,2.2,0.3C65.9,333.3,66.6,334,66.6,335.5z"/>
	<path class="st14" d="M75.1,323.1c0.4,0,0.8,0.1,1,0.4c0.2,0.4-0.1,0.7-0.3,1c-1.1,1.2-2.5,1.8-4,2.1c-0.5,0.1-1,0-1.2-0.5
		c-0.2-0.4,0.3-0.6,0.5-0.9C72.3,324.2,73.6,323.4,75.1,323.1z"/>
	<path class="st14" d="M129,321.9c0.5,0,1.4-0.1,2.1,0.3c0.3,0.1,0.7,0.3,0.7,0.6c0,0.3-0.4,0.4-0.6,0.6c-1.1,0.7-2.1,0.1-3.1-0.2
		c-0.5-0.2-1.5-0.4-1.4-0.9c0.1-0.6,1.1-0.3,1.6-0.4C128.5,321.8,128.6,321.9,129,321.9z"/>
	<path class="st33" d="M106.4,328c1.5,0,2.8,0.3,3.8,1.3c0.3,0.2,0.7,0.5,0.4,0.9c-0.2,0.3-0.7,0.4-1.1,0.2
		C108.3,329.9,107.2,329.3,106.4,328z"/>
	<path class="st33" d="M95.7,329.4c-0.3,0.1-0.5,0.1-0.5-0.1c0-0.1,0-0.4,0.1-0.5c0.7-0.9,1.6-1.6,2.7-1.9c0.3-0.1,0.6-0.1,0.8,0.1
		c0.3,0.3,0,0.5-0.1,0.7C98.1,329.1,96.8,329.1,95.7,329.4z"/>
	<path class="st33" d="M88.8,327.6c0,0.3,0,0.7-0.5,0.8c-0.4,0.1-0.6-0.2-0.8-0.5c-0.5-0.8-0.9-1.6-1-2.5c0-0.4,0.1-0.7,0.6-0.4
		C88,325.3,88.9,326.6,88.8,327.6z"/>
	<path class="st14" d="M120.1,325c0,1.2-1.7,3.4-2.7,3.8c-0.3,0.1-0.7,0.2-1-0.1c-0.3-0.3-0.3-0.8-0.1-1.2c0.6-1.1,1.3-2.2,2.2-3.2
		c0.3-0.3,0.6-0.6,1.1-0.4C120,324.2,120.2,324.6,120.1,325z"/>
	<path class="st14" d="M63.1,324c0,0.8-0.6,1.2-1.3,0.7c-1.2-0.9-2-2-2.4-3.4c-0.1-0.3,0-0.6,0.2-0.7c0.2-0.1,0.5-0.2,0.7,0
		c1,0.9,2.1,1.8,2.7,3.1C63.1,323.8,63.1,323.9,63.1,324z"/>
	<path class="st6" d="M117.4,32.1c0.3,0.2,0.8,0.4,1.1,0.8c1.4,1.2,2.8,2.3,4.3,3.3c0.4,0.3,0.6,0.6,0.4,1.2c-0.5,1.3-0.8,2.7-1.2,4
		c-0.2,0.5-0.4,0.5-0.8,0.3c-1.8-1.2-3.6-2.3-5.3-3.6c-0.5-0.4-0.7-0.8-0.4-1.4c0.5-1.4,0.9-2.7,1.4-4.1
		C116.9,32.2,117,32.1,117.4,32.1z"/>
	<path class="st16" d="M83.3,162.4c-2-0.9-3.8-2-5.4-3.5c-1.4-1.3-2.5-2.8-3.5-4.5c-0.2-0.6-0.1-1.2,0.1-1.8
		c2.1-5.1,4.2-10.1,6.2-15.2c0.2-0.5,0.5-0.8,0.9-1.1c4,0.1,7.9-0.2,11.9-0.2c0.8-0.3,0.9,0.2,0.7,0.7c-0.2,0.6-0.4,1.2-0.6,1.7
		c-3,7.6-6.2,15.2-9.3,22.8C84.2,161.9,84.2,162.6,83.3,162.4z"/>
	<path class="st14" d="M83.3,162.4c0.4,0,0.5-0.3,0.7-0.7c3.3-8.3,6.8-16.6,10.1-24.9c0.2-0.5,0.2-0.8-0.5-0.8
		c1.6-0.4,3.2-0.4,4.7,0c2.1,0.5,2.8,2.3,2.8,4.2c0.1,4.3-0.1,8.6-1.2,12.8c-0.8,3.2-2.8,5.7-5.4,7.8c-1.8,1.4-3.9,2.4-6.2,2.7
		c-1.3,0.2-2.6-0.3-3.9-0.6C84.1,162.8,83.7,162.6,83.3,162.4z"/>
	<path class="st14" d="M81.6,136.3c-1,1.5-1.5,3.3-2.2,5c-1.6,3.9-3.2,7.8-4.8,11.7c-0.2,0.5-0.3,0.9-0.3,1.4
		c-1.7-3.4-2.6-7.1-3.4-10.8c-0.4-1.7,1.1-4.6,2.5-5.4c2.1-1.2,4.3-1.6,6.7-1.6C80.7,136.5,81.2,136.4,81.6,136.3z"/>
</g>
</svg>
