<?xml version="1.0" encoding="utf-8"?>
<!-- Generator: Adobe Illustrator 22.0.1, SVG Export Plug-In . SVG Version: 6.00 Build 0)  -->
<svg version="1.1" id="Layer_1" xmlns="http://www.w3.org/2000/svg" xmlns:xlink="http://www.w3.org/1999/xlink" x="0px" y="0px"
	 viewBox="0 0 2217.6 2217.8" style="enable-background:new 0 0 2217.6 2217.8;" xml:space="preserve">
<style type="text/css">
	.st0{fill:#282828;}
	.st1{fill:#1A191A;}
	.st2{fill:#FFFFFF;}
	.st3{fill:#279B9B;}
	.st4{fill:#1A1A1A;}
	.st5{fill:#121112;}
	.st6{fill:#137979;}
	.st7{fill:#F4C394;}
	.st8{fill:#F4C496;}
	.st9{fill:#65503E;}
	.st10{fill:#FF2E30;}
	.st11{fill:#EFE9EF;}
	.st12{fill:#A24E1D;}
	.st13{fill:#1B96A7;}
	.st14{fill:#E6E9E9;}
	.st15{fill:#631213;}
</style>
<g>
	<path class="st0" d="M398,2217.8c-132.6,0-265.3,0-398,0C0,1478.6,0,739.4,0,0c739.1,0,1478.2,0,2217.6,0
		c0,739.2,0,1478.5,0,2217.8c-93,0-186.4,0-279.7,0c-3.4-1.7-4-5-5.2-8.1c-28.2-74.7-64.4-145.5-105-214
		c-36.4-61.5-81.2-117-126.5-172c-13.3-16.2-26.7-32.3-40.2-48.3c-3.5-4.1-4.7-8.1-1.3-12.5c17.1-22,26.3-47.6,34.7-73.6
		c0.6-1.9,1.9-3.5,3.8-4.4c1.6-0.5,3.1-0.3,4.6,0.4c4.2,3.2,6,8,7.9,12.5c13.4,30.5,25.7,61.5,40,91.6c6.7,14.2,14,28,26.2,38.5
		c12,10.4,27.5,12.7,41.8,5.5c8.9-4.5,16.9-10.4,24.4-17.2c50-46,87-101.3,118.4-161c25.5-48.5,45.7-99,63.7-150.8
		c12.3-35.3,21.7-71.3,30-107.6c7.7-33.7,12.5-68,16.2-102.5c5-45.8,6.6-91.7,5.7-137.6c-0.6-30.6-2.3-61.1-6.4-91.6
		c-3.7-27.4-7.5-54.8-14-81.6c-5.1-21-10.8-41.8-17.4-62.5c-7.9-25.1-17-49.7-27.3-73.9c-18.4-43.3-39.2-85.3-65-124.8
		c-10-15.4-20.6-30.3-31.7-44.9c-7.1-9.3-6.3-12.6,4.7-16.8c17.8-6.7,33.5-16.1,46.5-30.2c21.1-22.8,20.2-49.3-0.6-72.2
		c-30.9-34-69.1-57.1-109.1-78.1c-54.5-28.6-111.4-51.2-170.1-69.3c-43.3-13.4-87.7-22-133-26.8c-43.6-4.6-87.2-3.4-130.8-3.4
		c-16.9,0-33.8,2.6-50.7,4.6c-8,1-13.3-1.3-18-7.6c-18.7-25.4-41-47.1-66.1-66.3c-16.1-12.2-33.5-21.8-51.7-30.2
		c-24.9-11.4-50.3-21.6-77.2-26.8c-24.8-4.8-49.7-8.6-75-10.6c-27.3-2.1-54.4-4.1-81.8-3.4c-43.7,1.1-86.9,6.1-129.9,14.3
		c-34,6.5-67.5,15.8-101.9,20.4c-28.1,3.7-56.1,3.8-84.2-2.6c-40.1-9.2-75.7-26.8-107.8-52.2c-12.1-9.6-20.7-22.5-31.8-33.1
		c-11.2-10.7-23.6-11.7-35.6-1.9c-12.7,10.4-19.5,24.2-20,39.9c-0.9,26.5-3.9,53.3,2.9,79.6c5.1,19.7,11.9,38.8,22.2,56.5
		c1.7,2.9,3.5,5.7,5,8.7c3,6.1,1,9.4-5.7,10.3c-43.9,5.8-84.4,21.6-123.6,41.2c-30,15-57,34.4-80.1,58.9
		c-16.6,17.7-34.9,33.6-49.7,53.2c-23,30.6-42.2,63.1-57.1,98.2c-12,28.2-23.5,56.6-29.8,86.8c-6.8,32.8-8.2,66-6.3,99.4
		c1.4,25.2,4.1,50.4,9.3,75.2c5,23.8,10.4,47.4,18.9,70.3c10.2,27.5,20.4,55,33.9,81c16.8,32.3,37.4,62.1,59.9,90.7
		c34.4,43.7,74,83,107.7,127.3c24.4,32.1,44.8,66.2,59.5,103.7c14.6,37.4,11.8,73.3-8.6,108.3c-15.3,26.2-33.3,49.8-55.8,70
		c-3.5,3.1-6.7,6.5-9.9,9.8c-20,20.4-11.8,39.7,11.3,53.3c5,2.9,10.7,3.4,16.5,3.4c29.4,0.2,57.5-6.8,85-16
		c63.4-21.4,113-61.7,152.3-115c21.7-29.4,37.2-62.2,40.9-98.7c2.9-29.4,1.9-59.1-1.1-88.8c-3.6-35.1-8.3-70-10.3-105.3
		c-1.4-23.8-0.9-47.3,0.9-70.7c1.5-19.9,6.2-39.4,13.2-58.3c0.5-1.3,1.5-2.2,2.6-2.9c1.1-0.4,2.1-0.3,3.1,0.3
		c2.6,3.5,2.2,7.6,1.8,11.6c-4,40-1,79.7,3.3,119.5c3.5,31.7,11.2,62.3,21.3,92.2c12.9,38.1,27.7,75.7,47.6,110.9c1.6,2.9,3,6,4.4,9
		c2.8,5.7,0.9,9.5-4.3,12.3c-2.4,1.3-4.6,2.7-7.2,3.5c-19.6,5.9-25.2,19.9-24.2,43.9c1.5,35.2,9,69.3,20.2,102.6
		c1.3,3.8,1.7,7.8,2.4,11.7c0.9,5-0.5,9-4.8,12.2c-28.2,20.7-55.6,42.5-82,65.4c-44.1,38.1-88.6,76.1-125.5,121.4
		c-25.2,30.8-52.5,60.4-70.5,96.7c-11.4,23-21.1,46.7-29.7,70.9c-8.9,25.1-17,50.5-23.1,76.5c-6.6,28.2-11.6,56.7-16,85.3
		c-5.7,36.6-6.8,73.6-11.7,110.2C400.2,2213.8,399.6,2216,398,2217.8z"/>
	<path d="M850,2217.8c-8.7,0-17.3,0-26,0c-2.4-2.8-2-6.1-1.7-9.5c6.6-68.8,13.2-137.6,28.3-205.3c0.6-2.1,0.8-4.3,1.5-6.5
		c0.4-1.5,1-3,1.3-4.6c2.7-10,4.6-20.3,6.8-30.4c2.3-12,4-24.1,7.8-35.8c4.3-23.4,9.8-46.6,15.6-69.7c0.2-1,0.5-2,0.9-2.9
		c10.4-30.5,20.6-61.2,32.9-91.1c7-17,16.2-32.8,24.3-49.2c4.8-9.6,4-12.2-5.8-15.9c-40.9-15.4-80-34.5-118-55.9
		c-1.7-1-3.5-2-5.1-3.1c-15.6-9.9-16-10.2-27,5c-15,20.5-26,43.4-38.1,65.6c-9.8,17.8-18.3,36.3-25.8,55.2
		c-36.6,75.9-64.4,155-84.3,236.9c-14.6,60-22.1,121.2-30.9,182.2c-1.7,11.8-1.4,24-6.6,35.1c-10,0-20,0-30,0
		c-1.8-1.7-2.5-4-2.2-6.3c1.7-10.2-3.4-7.3-8.6-4.6c-8.2,4.2-16.2,8.6-25.2,10.9c-13.3,0-26.7,0-40,0c-0.4-6.3,5.1-7.1,8.9-9.2
		c17.1-9.7,35-17.6,53.5-24.4c18.4-6.7,18.4-8.6,19.1-27.9c1.1-31.6,2.8-63.7,11.3-94c14.5-51.9,23.9-105.1,41.7-156.1
		c15.9-45.4,35.4-89.1,54.8-133c15.3-34.5,33.2-67.6,50.6-101c2.9-5.5,6-11,9.8-14.3c-45.1,36.8-90.3,75.5-131.5,118.5
		c-33.5,35-64.3,72.2-87.7,114.8c-16.6,30.3-27,63.1-36.9,96c-18.3,60.8-28.7,123.2-33.2,186.5c-0.7,9.3-1.7,18.5-2,27.9
		c-0.2,5.6-0.7,11.4-4.4,16.1c-8.7,0-17.3,0-26,0c-3.2-3.6-2.8-8.1-2.4-12.4c3.6-41.1,6.7-82.3,13.9-123
		c11.6-66.6,28.4-131.6,56.7-193.2c15.6-34,38.3-63.2,61.7-91.8c16.7-20.4,33.8-40.4,52.7-58.7c51.7-50.2,106.1-97.2,164.3-139.8
		c8.9-6.5,13.7-13.6,12.6-25c-2.2-22.5-4.6-45-9.5-67.1c-2.3-10.4-4.9-20.8-6.9-31.2c-5.1-26.2,3.2-42,27.7-52.8
		c14.3-6.3,14.5-6.4,6.9-19.8c-28.3-50.1-51.3-102.4-65.8-158.3c-7.8-30.1-12.6-60.5-14.7-91.6c-1.1-16.3-1.6-32.6-1.7-48.9
		c-0.1-23.7,1.9-47.2,4.5-70.7c0.8-6.8-0.6-10.6-7.6-12.5c-24.1-6.5-21.5-10.8-31.9,14c-20.5,49-26,100-22.5,152.7
		c3.7,55.8,14.1,110.9,13.2,167.2c-0.7,40-11.2,76.2-33.3,109.2c-50.6,75.6-122,117.1-211.7,128.1c-7,0.9-14,0.4-21,0.2
		c-6.6-0.2-11.7-3-14.2-9.2c-2.4-5.9-1.7-11.8,2.5-17c3.2-3.9,6.9-7.2,10.6-10.6c30.7-27.9,55.9-59.9,71.5-98.7
		c10.6-26.5,11.4-53.3,2.4-81c-17.4-53.6-47.2-99.7-83-142.5c-32.9-39.3-68.4-76.5-99.6-117.3c-51.6-67.5-84.1-143.2-100.8-226.3
		c-8.3-41.1-10.9-82.6-8.8-124.3c2-37.9,11.6-74.2,26.1-109.4c18.8-45.6,41.7-88.6,73.1-126.8c63.7-77.4,145.8-120.6,245-132.5
		c9.5-1.1,19.1-1.7,29.7-2c-2.9-7.4-8.2-11.6-12.3-16.5c-24.3-29.1-37.1-62.4-40.5-100.2c-1.9-20.9,0-41.2,2.8-61.6
		c1.1-8.2,3.8-15.9,12.9-18.5c8.9-2.5,14.6,3.2,19.6,9.2c41,50.1,95.9,75.2,157.8,86.5c30.8,5.6,61.7,1.8,92.3-4.1
		c44.8-8.6,89.2-19.7,134.6-25.4c46.1-5.8,92.2-6.6,138.6-3.6c41.1,2.7,81.6,8,120.9,20.4c66.3,20.8,121.8,56.6,159.4,116.6
		c4,6.4,8.9,8.4,15.8,7.3c43.7-6.8,87.6-6.3,131.6-5.8c62.7,0.6,124.1,10.6,184.2,28c58.4,16.9,114.7,39.5,168.6,67.6
		c32.9,17.1,64.8,35.7,93,60.1c6.4,5.5,11.9,11.8,16.5,18.6c11.5,16.9,8.1,37.2-8.3,50.8c-17.9,14.9-39.3,22.3-61.2,28.3
		c-10.7,3-10.9,3.1-3.8,11.7c34.9,42,64.1,87.8,88.4,136.5c39.3,78.7,65.8,161.6,78.2,248.8c5.3,37.3,7.6,74.7,8.5,112.4
		c2.9,123-16.8,242.2-57.4,358c-27.6,78.7-64,153-113.1,220.8c-16.5,22.8-35.1,43.5-55.7,62.7c-4.9,4.6-10.5,8.2-16.3,11.5
		c-13.9,7.8-25.4,5.4-35.2-7.2c-10.8-13.9-16.6-30.3-23.8-46.1c-16.6-36.7-31.1-74.4-48.9-110.6c-9-18.2-19.5-35.6-29.4-53.3
		c-1.2,1.9,0.7,3.3,0.6,5c5.8,54.4-5,105.9-28.4,154.8c-5.6,11.7-5.5,19.3,3.4,29.1c21.7,23.9,38.9,51.5,58.7,77
		c47.2,60.8,87.9,126,125.7,193c27,47.9,50.3,97.6,70.4,148.7c1.5,3.9,4.2,7.7,2.3,12.3c-8.7,0-17.3,0-26,0
		c-5.3-2.8-6.2-8.3-8.2-13.1c-5-12.2-5.1-12.5-16.7-5.6c-11.4,6.8-23.3,12.6-35.9,16.6c-3.2,0.2-6.3,0.3-9.1,2.1
		c-32.7,0-65.3,0-98,0c1.7-6.4,7.6-5.3,12-6.2c29.4-6.2,58.7-12.4,86.4-24.3c12.3-5.2,24.1-11.3,35.5-18.3c6.9-4.3,7.3-8.7,4.1-15.8
		c-25-54.6-54.5-106.8-86.6-157.5c-41-64.8-85.3-127.2-133.7-186.7c-1.3-1.6-2.5-3.1-3.8-4.6c-3.9-4.4-7.6-4.6-11.6,0.1
		c-29.4,34.1-67.3,54.8-109.2,69.2c-11.5,4-11.4,3.9-4.4,13.6c54.2,74.6,96.8,155.4,128.8,241.8c9.4,25.3,16.7,51.3,24.1,77.2
		c1,3.7,3.2,7.6,0.4,11.5c-8.7,0-17.3,0-26,0c-3.8-4.5-4.6-10.3-6.1-15.7c-29.2-105.4-77.2-201.8-140.2-290.9
		c-7.5-10.6-8.1-10.3-16.5-0.8c-12.1,13.8-22.4,29-33.1,43.8c-4.1,5.7-4.9,11.6-4.6,18.7c1,23.3,3.7,46.4,5.1,69.6
		c1.7,28.2,4.6,56.4,9.3,84.2c4.5,26.6,9.5,53.1,15.6,79.3c0.9,3.8,2.2,7.8,0.3,11.7c-7.3,0-14.7,0-22,0c-3.7-1.9-4.7-5.4-5.5-9
		c-10.4-49.4-20.8-98.9-23.4-149.6c-0.9-17.6-3-35.1-4.8-52.6c-0.4-3.5-1.7-7.1,0.7-10.1c-10.4,5.7-17.2,15.4-23.2,25.8
		c-23.5,41-48.2,81.2-71,122.7c-11,20-20.2,40.5-24.8,62.9c-0.7,3.6-1.5,7.2-4.1,10c-8.7,0-17.3,0-26,0c-0.9-1-1.8-2.2-1.5-3.6
		c5-22.1,4.6-46,23.1-63.4c6-5.7,9.4-13.7,13.5-20.9c33.6-58.2,67.6-116.2,102.7-173.5c12.5-20.4,23.3-41.8,38.5-61.9
		c-25.4-0.5-49.5-0.7-73.4,3.3c-30.2,3.9-60.4,3.9-90.7,1.1c-8.5-0.8-15.8-3.4-17.6-13.2c-1.4-7.5,3.3-15,12.9-19.3
		c23-10.3,43.6-24.1,62.6-40.6c35.9-31.3,52.1-70.6,49.2-118c-0.4-6.9-3.2-5.8-7.5-3.3c-41.2,23.1-86.2,35.3-132.3,43.7
		c-28.8,5.3-58.5,4.8-87.3,9.1c-44.5,6.5-84.9-9.3-126.6-17.9c-14.5-3-27.2-12.3-41-18.3c-9.5-4.1-11.1-4-15.7,5
		c-17.1,33.9-34,67.9-49.1,102.8c-9.5,21.9-11.9,45.7-18.3,68.5c-15.8,55.6-23.8,112.6-31.5,169.7c-6.2,45.9-11.6,91.8-15.3,137.9
		C854.2,2209.7,853.6,2214.3,850,2217.8z"/>
	<path class="st1" d="M850,2217.8c2.7-13,2.2-26.4,3.9-39.5c2.2-16.4,4.5-32.8,5.6-49.2c1.2-18.9,4.8-37.4,6.7-56.2
		c2.1-20,5.9-39.9,9-59.8c2.9-19.3,5.7-38.6,8.8-57.8c1.2-7.1,2.4-14.2,5.5-21c4.8-10.2,5.8-21.7,8.3-32.6
		c4.8-20.6,9.1-41.4,14.6-61.9c2.7-9.9,7.3-19.2,11.8-28.5c14.1-29.4,28.5-58.6,42.9-87.8c0.7-1.5,1.4-3,2.3-4.4
		c3.3-5.7,4.1-6,10.3-3.2c11.2,5.2,22.3,10.4,33.4,15.7c6.6,3.2,13.1,5.9,20.4,7.4c20.1,4.1,40.1,9,60,13.9
		c12,2.9,24.7,5.4,36.3,3.9c13.2-1.7,26.4-1.7,39.5-3.1c14.2-1.5,28.4-2,42.5-3.9c18.7-2.5,37.4-5.1,55.6-10
		c20.1-5.5,40.6-9.8,60.1-17.8c16.9-6.9,34-13.4,49.2-23.8c1.1-0.7,2.1-1.7,4.1-0.8c1.9,1.4,1.1,3.9,1.1,6.1
		c0,16.9,0.4,33.7-3.4,50.5c-4.4,19.3-13.6,36-25.2,51.5c-16.1,21.7-37.6,37.3-60.4,51c-8,4.8-16,9.4-24.8,12.7
		c-9.7,3.6-13.1,11.5-10.4,19.5c1.4,4.1,4.3,6.4,7.8,6.8c6.9,0.7,13.6,2.8,20.7,2.7c17-0.3,34-0.2,51,0c9,0.1,17.7-3.3,26.7-2
		c5.2,1.4,5.6,1.9,2.6,7.1c-7.3,12.7-15.6,24.8-23.9,36.9c-36,52.5-72,105.1-98.3,163.3c-15.5,34.2-32,68.2-42.7,104.4
		c-1.1,3.8-2.4,7.7-5.7,10.3C1080.6,2217.8,965.3,2217.8,850,2217.8z"/>
	<path class="st2" d="M1912,2217.8c-15.6-40-32.5-79.5-52.3-117.7c-28.4-54.7-59.1-108.1-94.4-158.8c-11.8-16.9-21.7-35.2-34.5-51.4
		c-28.6-36-54.4-74.1-84-109.3c-5.6-6.6-5.4-6.6-1.5-14.5c25.5-51.9,38.1-106.3,32.6-164.3c-0.5-2.8-2.7-6,1.8-7.7
		c25.1,39.5,44.3,82,62.4,124.9c10,23.6,19.6,47.4,31.2,70.3c3,6,6.1,11.9,10.1,17.2c8.4,11,18.3,13.2,30.7,6.9
		c7.2-3.7,13.5-8.6,19.5-13.9c16.8-14.9,31.2-32,44.8-49.7c32.7-42.8,59.6-89.1,82.6-137.7c28.2-59.5,50-121.3,65.8-185.2
		c12.3-49.6,20.8-99.8,25.7-150.6c4.8-49.5,6.1-99.1,3.2-148.8c-6.9-119.7-36.9-233.2-93.1-339.5c-24.1-45.6-52.6-88.1-85.4-127.7
		c-1.5-1.8-3.4-3.2-3.8-5.8c2.1-2.6,5.3-2.4,8.1-3.1c16.8-4.4,33.3-9.5,48.7-17.6c7.4-3.9,14.4-8.4,20.2-14.5
		c13.5-14,14.7-30.5,3.4-46.2c-7.3-10.1-16.6-18.2-26.3-25.8c-21.9-17.1-45.6-31.3-70-44.3c-74.8-39.9-153.2-70-236.3-87.3
		c-58.3-12.2-117.4-15.9-176.9-14.4c-28.7,0.7-57.2,2.9-85.6,6.9c-4.6,0.6-7.9,0.4-10.7-4.4c-36.8-61.5-92.2-98.4-159.2-119.8
		c-37.7-12-76.5-17.4-115.8-20.5c-26.3-2-52.5-2.8-78.9-1.9c-36.4,1.2-72.4,5.6-108.1,12.1c-35.4,6.4-70.3,15.1-105.8,21.1
		C700,308.3,630,285.8,567.5,236c-9.7-7.7-17.9-16.9-25.3-26.8c-1.4-1.9-2.7-3.8-4.4-5.4c-7.3-6.8-17.2-4.8-21.5,4.2
		c-2.2,4.6-2.5,9.7-3.2,14.6c-5.6,39-3.2,77.1,12.7,113.7c8.5,19.5,21.1,36.2,35.4,51.7c2.2,2.4,5.2,4.2,6.6,8.1
		c-5.5,1.7-11.2,1.2-16.6,1.6c-117.9,8.8-211.7,60.8-280.3,157.2c-33.7,47.4-57.4,99.8-72.1,156.1c-10.1,38.5-10.9,77.9-7.8,117.2
		c7.3,91.3,35.1,176,84.9,253.1c21.2,32.8,46.5,62.5,72.1,92c24.5,28.2,49.8,55.7,72.4,85.4c26,34.2,46.2,71.4,60.8,111.9
		c12.3,34.2,9.3,66.7-6.1,98.8c-12.5,26.1-29.2,49.3-49,70.2c-7.8,8.2-16.1,15.9-24.2,23.8c-1.2,1.2-2.5,2.2-3.7,3.4
		c-4.5,4.4-6,9.6-3.6,15.5c2.2,5.5,6.8,8.2,12.6,8.1c7-0.1,14-0.2,21-1c82.8-10.1,150.6-46.8,200.6-114.4c19.2-26,34-54.1,39-86.6
		c4.3-27.9,3.5-55.8,1.2-83.8c-3.2-37.8-8.8-75.4-11.5-113.3c-3.5-51.1,0.1-101.2,19.1-149.4c3.5-9,8.1-17.5,11.9-26.4
		c1.9-4.4,4.5-4.8,8.7-3.2c7.1,2.7,14.5,4.8,21.8,7.1c7,2.2,7,2.2,6.1,9.7c-3.1,25.5-4.3,51.1-4.8,76.8
		c-1.9,88.8,20,172.1,58.5,251.5c9.9,20.4,20.7,40.2,32.4,59.3c-0.9,3.5-3.8,2.9-5.8,3.7c-5.2,2.3-10.4,4.4-15.6,6.6
		c-17,7.3-25.6,19.1-22.9,41.8c0.8,6.9,1.9,13.9,3.9,20.6c6.2,20.8,8.9,42.3,11.5,63.8c1.1,9.6,2.6,19,2.4,28.8
		c-0.1,6.3-2.2,9.8-6.8,13.2c-23.4,17.2-46.2,35-68.6,53.4c-48,39.4-94.5,80.4-135.5,127.1c-24.3,27.8-48.3,56.1-67.2,88.1
		c-20.6,35-34.3,72.9-45.8,111.6c-16.4,55.4-27,112-32.9,169.5c-2.5,24.2-4.4,48.4-5.6,72.7c-8,0-16,0-24,0
		c2.2-27.7,3.3-55.5,6.8-83.1c4.1-32.4,9.1-64.6,15.9-96.6c4-19,8.4-38,14-56.5c7.8-25.9,16.6-51.6,26.9-76.7
		c12.5-30.5,27.5-59.6,48.2-85.4c9.1-11.3,19-21.9,27.7-33.6c7.1-9.6,14.5-18.8,22.6-27.7c2.4-2.7,4.8-5.5,7.3-8
		c15.2-15.4,30.2-31.1,46-45.9c15.2-14.2,30.5-28.4,46.2-42.1c20.7-18,41.7-35.5,63.3-52.4c12.2-9.6,23.6-20.2,37-28.1
		c2.6-1.5,2.7-3.5,2.2-5.9c-1.4-6.8-2.6-13.7-4.9-20.3c-8.8-25.2-14.6-51.1-17-77.6c-1.1-12-4-24.1-0.7-36.5
		c2.9-11.4,6.6-21.1,18.4-26.2c6.6-2.9,13.8-4.7,19.7-9.6c-14.3-27-28.4-54-39-82.5c-9.2-24.7-18.6-49.4-25.3-75
		c-5.8-21.8-10.6-43.8-12.9-66c-2.1-20.3-4.7-40.8-3.9-61.5c0.8-21.6-0.2-43.2,1.5-64.7c-1-1.5,0.3-2.6,0.5-3.9
		c-0.9,1.2-1.3,2.7-2.3,3.9c-4.4,12.1-7.8,24.5-10,37.1c-4.3,24.5-7.8,49.2-6.1,74.1c1.5,21.4,1.8,42.9,5.4,64.2
		c2.9,17.2,2.3,35.1,5.1,52.3c4.7,29.5,3,59,2.9,88.5c-0.1,17.6-4.5,34.6-10.6,51.2c-9.7,26.1-23.6,49.7-41.1,71.2
		c-13.8,17-29.3,32.3-45.7,46.9c-19,16.9-39.9,30.9-62.8,41.5c-20.9,9.8-42.4,18-65.1,23.4c-18.2,4.3-36.5,6-54.8,8.1
		c-19.7,2.3-38.4-15.3-43-32c-2.8-10.1,1.9-19.1,8.9-26.2c7.2-7.3,15.2-14,22.2-21.3c16.8-17.3,31.5-36.4,44-57.3
		c10.5-17.6,17.2-36.4,20.1-56.6c0.8-5.2,0.9-10.7,0.2-15.9c-2.6-19.9-8.8-38.7-17.2-56.8c-16.5-35.7-37.9-68.2-62.9-98.6
		c-12.4-15-25.4-29.4-37.9-44.3c-14.4-17.1-29.3-33.9-43.8-51c-15.8-18.7-30.4-38.2-44.4-58.3c-16.9-24.1-30.4-50-42.7-76.5
		c-5.4-11.7-11-23.5-14.9-35.8c-6.4-20.1-14.5-39.6-19.2-60.4c-4.1-18-8-36.1-10.9-54.3c-1.9-12.1-3.2-24.3-4.2-36.5
		c-1.1-14.3-1.6-28.5-1.5-42.7c0.2-29.2,2.2-58.3,10.2-86.6c4.2-15,9.9-29.6,15.1-44.3c13.3-37,30.8-71.9,52.5-104.7
		c9.2-14,19.8-27.1,30.7-39.9c12.7-15,27-28.4,41.1-42.1c8.9-8.7,18.8-16.5,28.7-24.1c11.1-8.5,23-15.6,34.9-22.9
		c17.1-10.5,35.4-18.1,53.8-25.6c23.4-9.5,47.4-16.6,72.3-21c5.5-1,10.9-1.7,16.1-2.5c1.2-2.4-0.3-3.7-1.2-4.9
		c-9.9-13.9-16.4-29.5-22.2-45.5c-3.9-10.6-7-21.3-8.5-32.5c-2.5-19.2-3.1-38.4-1.4-57.6c0.6-6.6,1.1-13.2,2-19.7
		c2-15.6,11.4-26.5,22.7-36.1c7.7-6.5,27.7-5.5,34.9,3.3c7.1,8.7,14.7,17,22.2,25.3c11.1,12.3,25.3,21.2,39.4,29.9
		c16.5,10.2,34.1,18.2,52.3,24.4c17.2,5.8,35.1,9,53.2,11.2c27.1,3.3,53.4-1.5,79.7-6.5c31.8-6,63.3-13.5,95.2-19
		c20.8-3.6,41.9-6,62.9-8.3c29.9-3.3,59.7-2.4,89.6-2.8c12-0.2,23.7,1.9,35.6,2.8c11.6,0.8,23.1,1.7,34.6,3.2
		c21,2.7,41.9,5.9,62.3,11.7c6.3,1.8,12.8,3.3,18.9,5.5c30.4,10.9,60.1,23.2,87,41.4c12.5,8.5,24.5,17.8,35.2,28.7
		c15.1,15.4,31,29.9,42.9,48.2c2,3.2,4.7,4.5,8.4,3.9c13.1-2.1,26.3-2.4,39.5-3.5c23.9-2.1,47.8-2.9,71.7-2.4
		c23.8,0.5,47.6,1.8,71.4,4c32.7,3,64.9,8.2,96.8,15.7c25.1,5.9,49.3,14.5,73.8,22.4c50,16.2,97.7,37.7,144.3,61.8
		c23.9,12.4,47.1,26.1,68.3,42.7c16.2,12.7,31.4,26.6,43.5,43.5c14.8,20.4,8.3,46.3-5.6,62c-13.8,15.6-30.4,26.5-50,33.4
		c-2.2,0.8-4.3,1.8-6.4,2.8c-0.8,0.4-1.5,1-2.6,1.7c5.8,9.9,13.3,18.4,19.8,27.5c23.7,33.3,43.9,68.7,62,105.3
		c12.1,24.4,22.8,49.5,32.8,74.7c5.6,14.2,10.8,28.8,14.8,43.9c3.3,12.9,8,25.7,11.5,38.7c5.6,20.6,10.5,41.5,13.7,62.7
		c2.1,13.7,4.7,27.3,6.2,41.1c1.7,16.1,3.5,32.2,4.9,48.3c3.2,34.2,3,68.5,2.2,102.7c-0.6,24.7-2,49.5-5.3,74.2
		c-1.9,14-2.9,28.3-5,42.3c-2.2,15-4.4,30-7.3,44.9c-3.2,16.8-6.9,33.6-10.9,50.2c-3.8,15.7-7.4,31.5-12.4,46.8
		c-12.5,38.4-25.1,76.7-41.1,113.9c-15.6,36.3-32.6,71.8-53,105.7c-15.6,25.9-32.1,51.1-50.6,75c-17,21.8-36,41.7-57,59.7
		c-3.8,3.2-8.2,5.6-12.2,8.5c-10.2,7.5-22,7-33.6,6c-6.4-0.5-11.3-5.1-16.2-9.2c-11.4-9.7-19.1-22-25.1-35.4
		c-11-24.5-21.5-49.2-32.3-73.7c-5.2-11.8-10.5-23.6-15.8-35.3c-1.4-1.5-2.8-1.7-4.1,0.1c-5.2,18.1-12.2,35.5-19.9,52.7
		c-4.9,11-13.1,19.9-19.4,30.6c10.2,12.1,20.5,24.3,30.6,36.6c39.9,48.2,80.3,96.1,114.7,148.5c50.8,77.2,93,159,127.2,244.9
		c2.5,6.2,4.5,12.5,6.7,18.8C1929.3,2217.8,1920.6,2217.8,1912,2217.8z"/>
	<path class="st3" d="M600,2217.8c-1.4-6.4,1-12.5,1.9-18.7c3.9-28,8.2-55.9,11.6-84c5.5-45.7,15.4-90.5,26.5-135.1
		c18.3-73.3,44.5-143.7,76.7-212c1-2.1,2.2-4.1,3.3-6.1c3.1-1.2,5.2,0.8,7,2.7c9.6,10.2,22.1,16,34.3,22
		c32.6,16,64.3,33.9,98.1,47.3c8.4,3.3,15.5,9.1,23.2,13.7c2.3,1.4,4.5,3.1,3.7,6.4l0,0c-7.4,23.5-13.1,47.4-16.2,71.9
		c-2.6,12.2-5.1,24.4-7.7,36.6c-2.8-2.4-0.5-5.5-1.4-8c-0.2,15.9-6.8,31.1-7.5,47.2c-4.1,22.2-8.9,44.3-12.3,66.6
		c-3.7,24-6.2,48.1-9,72.2c-1.8,15.9-3.2,31.8-4.9,47.6c-1,9.9-2.2,19.8-3.3,29.7C749.3,2217.8,674.6,2217.8,600,2217.8z"/>
	<path class="st4" d="M1660,2217.8c-31.7-124.4-87.5-237.3-163.6-340.8c6.5-4.2,13.2-5.2,19.4-7.4c30.2-11.1,58.2-25.8,82.7-46.9
		c7.9-6.8,15-13.9,21.6-21.8c5.2-6.3,6.2-6.3,11.6-0.2c8.7,10,16.8,20.5,25,30.9c20.3,25.8,40.2,51.9,58.9,78.9
		c11.3,16.4,22,33.2,33.1,49.7c15.7,23.1,30.5,46.6,45,70.4c9.5,15.6,18.6,31.5,27.3,47.5c9.1,16.6,17.7,33.5,26.3,50.4
		c4.6,9.2,8.8,18.6,13,28c3,6.6,2.5,7.7-3.8,12.2c-15.3,10.8-32.3,18.5-49.7,25.1c-24.9,9.5-50.7,15.1-76.8,20.1
		c-4.1,0.8-8.6,0.8-12,3.9C1698.6,2217.8,1679.3,2217.8,1660,2217.8z"/>
	<path class="st1" d="M448,2217.8c2.6-13.7,1.3-27.7,3.6-41.5c1.3-7.8,1.5-15.8,2.1-23.7c3.1-41,10.4-81.3,19.5-121.4
		c9.6-42.2,23-83.2,39.9-122.9c10.4-24.6,25.6-46.5,41.4-67.9c27.3-37.1,58.7-70.4,92.2-101.8c20.1-18.8,40.5-37.3,61.8-54.7
		c13.3-10.9,26.7-21.7,40.2-33.2c1.4,3.2-1.1,4.6-2.2,6.2c-10.2,13.3-16.5,28.9-24.3,43.5c-17.8,33.1-33.7,67.2-48.6,101.7
		c-9.1,21-18.8,41.8-27.1,63.2c-10,25.4-18.4,51.2-26.1,77.4c-4.6,15.6-9.1,31.2-12.9,47c-3.2,13.2-6.5,26.3-7.5,40
		c-0.4,5.1-1.8,10.2-4.7,15c-6.1,9.8-7,21.4-8.9,32.4c-2.5,14.7-4.3,29.5-5.6,44.2c-1.3,14.5-3.8,29-2.5,43.7
		c0.8,8.8-2.9,14-11,17.9c-11.1,5.3-23.1,8.3-34.2,13.5c-12.6,5.9-24.8,12.8-37.1,19.4c-0.8,0.4-1.2,1.6-1.7,2.4
		C478.6,2217.8,463.3,2217.8,448,2217.8z"/>
	<path class="st0" d="M1606,2217.8c-39.3,0-78.7,0-118,0c-3.7-2.9-4.7-7.2-5.6-11.4c-9-41-16.7-82.2-23.6-123.6
		c-4.3-25.3-6.9-50.7-9.1-76.2c-2.2-25,4-46.7,22.1-64.7c6.3-6.3,9.8-6.3,14.7,2c8.8,14.9,17.1,30.1,25.3,45.3
		c27.1,50.5,51.9,102.1,71.1,156.2c7.1,20.1,15.1,39.9,22.2,60C1606.3,2209.4,1608.9,2213.5,1606,2217.8z"/>
	<path class="st5" d="M1196,2217.8c5.1-18.6,11.6-36.6,19.2-54.3c10.4-24,20-48.3,31.5-71.8c5.8-11.8,12.3-23.5,18.6-35.1
		c17.5-32.4,38.7-62.5,58.2-93.6c9.9-15.7,21.1-30.5,31.6-45.7c3.9-5.7,6.4-12.3,10.8-17.7c1.6-1.9,1-3.7-1.9-3.9
		c1.1-1.4,2.6-1.8,4.4-2c19.5-1.5,39.1-2.6,58.7-2.1c4.3,0.1,8.6,0.8,13.5-0.7c-4.5,7.4-8.1,15.5-13.6,22.1
		c-7.8,9.3-12.4,20.4-18.7,30.5c-14.7,23.7-28.9,47.7-43.1,71.7c-11.5,19.4-22.7,39-34.2,58.4c-5.2,8.9-10.4,17.8-16.2,26.2
		c-9.5,13.7-15.7,29.3-24.6,43.3c-2.1,3.4-3.7,7.5-6.7,9.8c-10.3,7.9-13.9,19.1-16.5,30.8c-2.5,11.3-4.7,22.6-7,34
		C1238.6,2217.8,1217.3,2217.8,1196,2217.8z"/>
	<path class="st6" d="M1286,2217.8c2.6-25.2,11.7-48.3,24.1-70.2c15.3-27.2,30.5-54.5,46.7-81.2c10.5-17.3,20.1-35.2,31.1-52.2
		c2.7-4.2,4.5-9.3,8.7-12c4.2-2.7,8-5.7,12.7-10.9c1,8.9,2.1,16.2,2.7,23.5c1.9,22.8,3.5,45.5,5.7,68.3c2.8,28.4,7.1,56.5,12.8,84.4
		c3.4,16.8,5.6,34,11.4,50.3C1390,2217.8,1338,2217.8,1286,2217.8z"/>
	<path class="st2" d="M1606,2217.8c-11.3-35.2-25-69.5-38.5-103.9c-1.6-4-3.3-8-4.8-12.1c-9.1-25.5-21.1-49.5-33.9-73.3
		c-13.2-24.6-25.4-49.8-39.2-74.1c-3.1-5.5-6-11.1-10.6-16.3c-10,9.4-16.6,21-24.3,31.8c-1.4,2-0.9,4.5-1.1,6.8
		c-2.2,27.7-0.6,55.2,4,82.6c7.4,44.2,14.6,88.5,24.3,132.3c1.9,8.8,4,17.5,6.1,26.2c-8,0-16,0-24,0c-9.6-39.8-17.7-79.8-22.6-120.5
		c-5.1-42.7-7.7-85.5-10.8-128.3c-0.3-3.6-0.6-7.3,1.7-10.6c14.4-21.2,29.1-42.2,46.7-60.6c3.3-0.1,4.1,2.5,5.4,4.2
		c67.7,93.9,118.3,196,148.4,308.1c0.7,2.5,1.9,5,1.1,7.8C1624.6,2217.8,1615.3,2217.8,1606,2217.8z"/>
	<path class="st7" d="M1824.2,2214.2c14.9-5.4,28.8-13.1,42.4-21.1c7.3-4.3,7.2-4.3,10.6,3.8c2.9,7,5.8,14,8.8,20.9
		c-21.3,0-42.7,0-64,0C1820.8,2215.4,1822.7,2214.9,1824.2,2214.2z"/>
	<path class="st8" d="M534,2217.8c10.8-8.3,23.7-12.4,36.4-19.2c2.2,7.3-2,13.3-0.4,19.2C558,2217.8,546,2217.8,534,2217.8z"/>
	<path class="st9" d="M1824.2,2214.2c-0.8,1.2-1.5,2.4-2.3,3.7c-2,0-4,0-6,0C1818.3,2215.6,1820.8,2213.9,1824.2,2214.2z"/>
	<path class="st10" d="M956.2,893.6c13.5,22,29.3,42.1,48.1,59.8c17.2,16.3,36.8,28.5,59.9,34.7c8.2,2.2,8.3,2.4,8.2,10.7
		c-0.2,27,1.6,53.9,5,80.7c0.5,3.9,1.6,7.8,0.2,11.7c-1.9,0.7-3.4,0-4.9-0.7c-65.3-30.7-122.5-71.6-164.5-131.3
		c-30.6-43.5-47.1-92.1-50.9-145.2c-3-41.7,1.9-82.4,14.4-122.2c0.8-2.5,1.5-5.2,1.6-7.8c0.3-5.2-3-10.1-7.5-11.9
		c-5-2-11-0.5-14.5,3.6c-2.6,3.1-3.8,7-5,10.8c-8.6,27.8-13.6,56.2-15,85.3c-1.4,29.4,0.1,58.6,6.4,87.4c1.7,7.8,1.4,7.9-7.3,10.9
		c-45.8,15.6-86.4,39.8-120.8,74.1c-5.2,5.2-10.3,10.5-14.7,16.3c-3.8,4.9-7.3,6.2-13.5,4.4c-26.6-7.8-52.2-18-76.7-31.1
		c-1.7-0.9-3.5-1.8-5.4-2.7c-2,2.9,0.5,4.6,1.6,6.2c14.1,21.5,32.4,38.8,53.5,53.3c2.5,1.7,5,3.3,7.5,4.9c5.8,3.8,5.9,3.8,2.9,9.8
		c-6.5,12.8-12.1,25.9-16.8,39.5c-13.4,39.2-18.3,79.7-17.6,121c0.6,34.7,4.9,69.1,8.9,103.5c3.5,30.5,6.6,60.9,5.3,91.7
		c-1.2,27.1-7.7,52.5-21.6,76c-38.8,65.7-95.8,105.9-169.9,122.6c-2.5,0.6-5.2,0.8-7.9,1.2c-0.8-3.7,2.1-4.9,3.6-6.7
		c18.9-21.7,35.9-44.7,48.7-70.5c20.1-40.6,23-81.6,7.2-124.7c-19.4-52.7-48.6-99.1-84.4-141.8c-28-33.5-57.6-65.6-85.5-99.2
		c-54.5-65.7-90.2-140.3-108.1-223.6c-10-46.5-13.7-93.5-8.8-141c3-29.4,11.6-57.3,22.3-84.7c20.1-51.4,47.2-98.4,85.2-138.9
		c53.1-56.5,118.4-89.6,194.6-101.8c28.4-4.5,57-5.5,85.7-2.8c7.8,0.7,13.4-2.1,15.8-7.8c2.4-5.8,0.7-11.9-5.8-16.5
		c-16.3-11.8-31.3-24.8-44.2-40.3c-19.9-23.8-30.9-51-33.6-81.8c-1-10.6-1.9-21.1-0.8-31.7c3.8-1.5,5.1,1.5,6.8,3.1
		c41.2,37.8,90.3,59.8,144.3,71.2c26.6,5.6,53.6,5.1,80.6,1.9c35.4-4.3,70-13,105-19.9c31.4-6.1,62.9-11,94.9-13.5
		c27.3-2.2,54.6-2.7,81.9-1.1c53.4,3,106.1,9.5,156.2,29.9c55.7,22.7,99.4,59,127,113.1c14.8,28.9,23.3,59.8,23.5,92.2
		c0.2,24.7-5.8,48.9-15.5,71.8c-11.7,27.5-29.5,50.5-51.2,70.7c-20.7,19.4-43.5,36.3-66,53.4c-29.7,22.6-58.3,46.5-82.7,75.1
		c-34,39.8-55.2,85.4-63,137.1c-1.2,7.6-1.4,9.3-10.9,7.8c-36.9-6.1-69.8-21.4-100.5-42.3c-2.5-1.7-4.9-3.5-7.3-5.2
		c-1.1-1.5-2.7-1.8-4.1-0.9C954.9,891.6,955.3,892.9,956.2,893.6z"/>
	<path class="st11" d="M990.4,1075.2c4.2,0.9,6.7,3.3,9.4,5.1c25.6,16.4,52.4,30.4,80.6,41.9c3.4,1.4,6.8,2.8,10.4,3.6
		c11.5,2.4,19.1-4.4,17.7-16.2c-1.6-13.2-4-26.3-5.7-39.6c-2.9-23.2-3.8-46.5-3.8-69.8c0-4.8,1-7.3,6.6-7.1c6,0.2,12-0.6,17.9-1.3
		c3.9-0.5,5.3,1,5.7,4.8c0.8,9,1.7,17.9,3,26.8c6.2,42,16.3,83,33.6,122c8.4,19,19.2,36.5,32.3,52.7c58.8,72.1,157.3,50,198.1-2.7
		c19.2-24.8,30.5-53,37.4-83.2c9.9-43.6,11.2-87.8,9-132.2c-1.9-39.7-7-78.9-14.7-117.9c-1.5-7.6-1.6-7.8-9.5-6
		c-54.2,12.5-107.8,27.3-160.5,45c-40.4,13.5-80.6,27.7-122.7,35.3c-10,1.8-20.1,4.1-31.2,3.2c1.8-15.1,5.3-29.2,9.6-43.1
		c12.9-42.2,37.9-76.7,68.8-107.5c16.8-16.7,35.3-31.4,54.1-45.9c23.7-18.4,48-36.1,70.1-56.4c30.7-28.3,54.3-61.2,66.4-101.7
		c2-6.8,2.3-6.9,9-3.9c26.5,11.7,49.6,28.5,70.5,48.4c38.9,37.1,67.3,81.5,88.9,130.5c26.4,60,42.6,122.5,47.1,188
		c6.8,98-10.7,191.7-50.8,281.2c-0.5,1.2-1.3,2.4-1.6,3.6c-2,7.2-6.4,8.8-13.9,9c-56.1,1.7-104.8,20.6-142.1,64.2
		c-18.6,21.8-28.6,47.8-36,75.1c-5.9,21.6-9.3,43.6-10.3,66c-0.3,7.8-0.5,7.8-8.1,6.1c-65.1-14.4-130.8-25.4-197-32.9
		c-41-4.7-82.3-7.7-123.6-9.5c-43.7-1.9-87.3-1.4-130.9,0.7c-9,0.4-17.9,0.6-26.9,0.9c-5.9,0.2-9-2.1-11.9-6.8
		c-21.9-35.6-40.5-72.7-55.2-111.8c-15.5-41.3-26.9-83.7-31-127.8c-3-32.3-3.4-64.6-1-96.9c0.9-12,2.2-23.9,3-35.8
		c0.3-4.4,1.3-6.4,6.5-5.8c16.5,1.9,16.7,1.6,16.4,18.6c-0.6,37.5,2.3,74.6,11.9,110.9c5.4,20.4,13.1,39.8,25.6,57.1
		c22.4,31.1,58,44.5,95.1,35.3c17.5-4.4,31.1-14.8,42.1-28.8c11.9-15.1,19.5-32.5,25.2-50.7c8.2-26.2,12.6-53.1,14.5-80.5
		C988.8,1084.9,988.8,1080.2,990.4,1075.2z"/>
	<path class="st1" d="M1702,1575.8c-9.4-14.8-18.8-29.7-28.3-44.5c-3.2-5-6.5-10-11.2-14c-2.6-2.2-4.2-5-5.1-8.3
		c-1.4-5.1-2.5-10.3-5.1-15c-2.3-4.2-0.7-7.4,2.9-10.3c26-20.9,49.5-44.4,72.3-68.7c28.1-30,54.6-61.6,75.4-97.4
		c9.7-16.7,17.6-34.5,20.5-53.7c1.8-12,1.5-24.4-0.9-36.7c-3.9-19.9-11.5-38-22.2-55.1c-2.6-4.1-8.2-7.2-7.3-12.5
		c0.7-4.6,5.8-7,8.9-10.4c4.1-4.5,7.2-9.5,10-14.8c9.6-17.7,14.2-37.1,18-56.7c2.3-11.7,4-23.5,4.1-35.5c0-5.1,2.8-7,6.7-8.6
		c12-5,23.4-11,33.8-18.8c26.5-19.8,38.2-54.1,23.1-85.9c-7.3-15.4-17.1-29.2-27.9-42.3c-14.8-18-28.9-36.5-39-57.6
		c-9-18.9-16-38.6-18.8-59.5c-0.4-2.6-1.3-5.1-2.1-7.7c-1.7-5.6-5.4-9.2-11.3-9.8c-5.8-0.5-10.4,1.6-13,7.2
		c-0.4,0.9-0.9,1.8-1.3,2.7c-3.3,9.5-3.7,19.6-4.5,29.3c-2.9,38.4-1.7,76.3,15.8,112.1c6.9,14.2,13.6,28.8,13.5,45.5
		c-0.3,34.2-26,68.2-58.8,77c-15.6,3.9-31.7,2-47.5,3.4c-18.1,1.6-36.5,2.1-54.7-0.8c-7.5-1.2-15.3-0.4-22.9-0.5
		c-8.6-0.2-8.7-0.2-8.8-9.1c-0.1-21.3-0.4-42.7,0.1-64c0.2-9.1-1.6-17.8-2.4-26.7c-2.4-27.4-7.6-54.4-14.3-81.1
		c-11.9-47.6-28.8-93.3-52.3-136.4c-14.5-26.5-31.4-51.5-51.4-74.4c-8.1-9.3-16.3-18.5-25.3-26.8c-24.3-22.4-50.8-41.7-81.7-54.2
		c-7.4-3-7.4-3-6.7-12.3c2.6-35.6-2.7-70-16.1-103.1c-0.6-1.5-1.6-3-0.4-5.2c14.4-1.9,29.1-3.5,43.9-5c30.6-3.1,61.2-0.9,91.8-1.6
		c14.6-0.3,29,2.2,43.5,3.5c12.6,1.1,25,2.5,37.5,4.5c30.4,4.8,60.6,10.8,90.2,19.7c29,8.7,57.6,18.4,85.5,30
		c34.1,14.1,67.3,30.1,99.7,48c21.9,12,42.5,25.9,62,41.4c4.1,3.3,8,7.1,11.3,11.3c5.3,6.8,4,12.5-2.9,17.7
		c-15.5,11.7-33.9,16.5-52.1,21.6c-3.8,1.1-8,1.3-11.6,2.7c-8.7,3.5-15.3,1.2-21-6c-6.9-8.6-16.1-14.9-24.2-22.2
		c-6.1-5.5-14-5.5-19-0.7c-5.3,5-5.7,13.7,0.6,19.7c8.4,8,17.4,15.4,25.5,23.8c15.8,16.6,30.6,34,44.7,52
		c17,21.7,32.8,44.3,47.1,67.8c5,8.2,9.5,16.8,14.2,25.2c1.9,4.3,2.8,8.9,2.8,13.6c0,29,3.4,57.8,2.1,86.8
		c-0.6,14.3,0.8,28.6,1.9,42.9c1.2,15.3-2.4,30.5-2,45.9c1,50-2.6,99.8-5.5,149.6c-2.8,47.2-7.6,94.3-14.5,141
		c-10.1,67.3-24.6,133.7-49,197.5c-16.9,44.1-37.5,85.9-66.6,123.5c-11.2,14.4-22.6,20.3-40.9,15.9c-20.8-5.1-39.9-12.5-56.1-26.6
		l0,0C1703.3,1577.2,1702.7,1576.4,1702,1575.8z"/>
	<path class="st10" d="M1322.8,1869.1c5-3.7,10.1-7.4,14.9-11.3c30.2-24.3,54.4-53.1,64.7-91.4c6-22.6,7.6-45.8,6.3-69.3
		c-2.3-40.3-13.8-78.6-25.5-116.8c-8.4-27.4-16.5-54.8-20.5-83.3c-7.1-50.7-1.2-99.9,20.4-146.4c18-39,50.2-62,90.5-74.6
		c14.4-4.5,29.2-6.4,44.1-7.9c7.1-0.7,12.5,3.4,14.1,11c1.7,8.1,2.8,16.4,4,24.6c4.2,29.6,15.5,56.2,32.1,81
		c34.5,51.7,59.8,107.6,74.8,168c8.2,32.9,12,66.2,9.3,100c-2.9,35.7-16.2,67.8-36.9,96.8c-27.1,38-63.9,63.7-106.1,82.3
		c-41.5,18.3-85.1,28.5-129.9,34.2C1360.6,1868.4,1342.1,1869.8,1322.8,1869.1z"/>
	<path class="st3" d="M1322,1695.7c-27.8,11.6-56.9,18.5-86.4,23.9c-33.2,6.1-66.7,8.7-100.4,7.6c-33-1.1-65.6-5.1-96.7-17.8
		c-25.8-10.6-53-17.7-78.2-29.9c-38.6-18.7-79-33.9-116.1-55.7c-7.2-4.2-14.6-8.2-21-13.4c-8.9-7.2-15.6-16.1-17.5-28
		c-3.5-21.1-3.3-42.4-3.9-63.7c-0.3-9.8-1.9-19.2-4.5-28.4c-2.2-7.7-3.6-15.6-4.8-23.5c-1.6-10.1-0.1-12.7,9.5-17
		c13.8-6.2,28.3-10,43.1-12.1c30.4-4.2,60.9-7.1,91.6-5.1c36.9,2.3,73.9,1.8,110.7,4.9c9.6,0.8,19.3,1.5,28.9,1.5
		c20,0,39.8,3.8,59.8,2.6c10.3-0.6,20.4,2.3,30.6,4c23.9,4,48,7.1,71.7,12.3c1.9,0.4,3.8,1.1,5.7,1.7c6.3,0.9,9.5,4.8,11.5,10.6
		c10.8,32.5,21.2,65.1,33.2,97.2c2.1,5.6,4.4,11.1,5.9,16.9c1,3.8,2.5,7.8-1.5,11c-12,4.6-24.8,4.9-37.3,5.4
		c-52.7,2.1-105-2.6-157.3-8.9c-16.8-2-33.7-3.9-50.6-5.9c-0.7-0.1-1.3-0.2-2-0.2c-4.9-0.3-10.3,0-11,5.8c-0.7,5.6,4.6,6.6,8.9,7.4
		c13.4,2.5,27,4.4,40.6,5.5c30.2,2.4,60.1,7,90.4,8.9c37.6,2.3,75.1,2.7,112.6-1.5c4.6-0.5,9.2-1.4,13.8,0.5
		c3.5,1.9,4.8,5.4,5.9,8.9c6.3,20.9,12.9,41.7,16.6,63.3C1324.2,1688.4,1325,1692.3,1322,1695.7z"/>
	<path class="st5" d="M1703.9,1577.8c5.6,2.8,11.6,5,16.7,8.5c16.5,11.3,35.4,14.4,54.4,17.4c4.9,0.8,8.9-0.6,12.5-4.4
		c12.7-13.7,23.7-28.7,33.5-44.4c14.6-23.4,27-48,37-73.9c6.5-17.1,13.4-34,18.9-51.4c8.5-26.5,15.2-53.5,21.3-80.6
		c3.8-16.8,7.3-33.6,10.2-50.6c2.8-16.9,7-33.6,7.7-50.9c0.6-13.1,3.4-26.2,5.3-39.2c1-6.9,1.6-13.9,1.9-20.7
		c0.5-10.9,1.4-22,3-32.6c1.9-12.9-0.6-26,3.3-38.6c0.2-0.6,0.2-1.3,0.1-2c-1.3-20,1.3-39.9,2.5-59.7c1.9-32.3,0.6-64.5,1.8-96.7
		c0.4-9.2,2.7-18.5,1.6-27.7c-3.4-29.9-0.1-59.9-2.3-89.7c-1.3-17.6-1-35.2-1.6-52.7c9.6,14.8,16.8,30.9,24.2,46.9
		c7.2,15.6,14.2,31.4,20.3,47.6c12.5,33.3,23.4,67,31.6,101.7c5.9,25.1,10.9,50.4,14.2,76c2.6,20,4.5,40.1,6.2,60.2
		c3.1,36.3,1.9,72.5,1.1,108.7c-0.4,20.3-2.8,40.9-5.1,61.2c-3.9,35.2-9.9,70.1-17.2,104.7c-7.8,36.7-18,72.7-30.5,108.1
		c-10,28.2-20.5,56.1-32.7,83.4c-21,47.2-46.8,91.7-76.4,134c-9.1,13-19.5,25.1-29.8,37.2c-8.5,9.9-17.4,19.1-27.6,27.2
		c-5.4,4.3-7.3,4.2-10.7-2c-9.6-17.9-17.2-36.7-25.3-55.3c-7.9-17.9-15.8-35.8-23.3-53.9c-7.9-19.1-16.5-37.8-26.2-56
		c-5.9-11.2-12.3-22-18.4-33.1C1705.1,1582.4,1703.9,1580.3,1703.9,1577.8z"/>
	<path class="st6" d="M886.2,1853.9c-8.7-7.7-18.4-14.2-29.2-18.4c-26.4-10.2-51-24.2-76.4-36.4c-14.7-7.1-29.1-14.6-43.3-22.5
		c-6.8-3.8-10.8-10.8-17.4-14.7c2.2-9.1,7-17.2,11-25.5c14.1-29.4,29.7-58,46.4-86c3.9-6.6,9.2-12.2,13.6-18.4
		c3.8-5.5,8.2-5.9,13.8-2.2c35.5,23.1,73.9,40.6,112.4,57.8c7.5,3.4,15.8,4.9,23.3,8.7c9,4.6,9.4,5.5,4.9,14.4
		c-10.8,21.3-21.8,42.5-30.7,64.8c-9.4,23.8-17.3,48.2-25.6,72.4C888.3,1849.9,888.2,1852.3,886.2,1853.9z"/>
	<path class="st1" d="M1608,1397.8c-10.3-17-22.5-32.9-31.4-50.8c-9.9-19.9-15.1-41-16.6-63.1c-0.4-6-2-11.8-4.1-17.4
		c-1.9-5-1.5-9.3,0.6-14.3c5.4-12.5,11.3-24.8,16.4-37.4c6.3-15.4,10.9-31.4,16.8-46.9c0.7-1.9,1.5-3.7,1.9-5.7
		c0.8-3.7,2.6-4.7,6.5-3.6c8.3,2.2,16.7,4.4,25.2,5.7c20.6,3.1,41,8,62,7.6c8.9-0.2,17.7,2.7,26.8,1.8c3.3,3.3,4.1,7.4,4.5,11.8
		c2,28.7-2.4,56.2-15.5,82.1c-17.6,34.7-37.9,67.8-61.1,99c-6.7,9.1-13,18.4-20.1,27.2C1617,1397.3,1614.1,1403.7,1608,1397.8z"/>
	<path class="st5" d="M1608,1397.8c3.6,2.4,5.4-0.4,7.5-2.5c6-5.8,10.4-13,15-19.7c9.1-13.4,19.6-25.8,28.1-39.5
		c14.3-23.1,28.7-46.1,40.7-70.5c12.7-25.7,16.4-52.8,14.7-81.1c-0.2-3.7-2.5-6.9-2-10.7c14.1-2.2,28.4-1,42.4-3.7
		c6.1-1.1,10.6,0,15.4,5.8c16.4,20,24.8,42.9,28,68c1.2,9-1.2,17.8-3.7,26.4c-7.1,24.3-20.1,45.5-35.1,65.4
		c-13.2,17.4-27.3,34.1-41.8,50.5c-17.2,19.5-36,37.3-54.4,55.5c-6.7,6.7-14.1,12.9-21.5,19.5c-4.2-3.2-5.6-7.8-7.3-11.9
		c-6.8-17.1-15.9-32.8-25.3-48.5C1608.1,1399.9,1608.2,1398.8,1608,1397.8z"/>
	<path class="st12" d="M1706.2,1146.3c-33.4,0.9-66.8-4.6-100-12.5c-6.3-1.5-7-2.4-5.5-9c5.1-21.7,9.2-43.6,11.3-65.8
		c0.4-4.6,2.9-5.4,6.7-5.1c11.6,1,23.2,1.9,34.9,1.9c21.7-0.2,43.4,0.6,65-0.6c27.6-1.5,55.1-4.2,82.1-10c6.9-1.5,6.7-1.3,6.1,5.4
		c-2.2,22-6.2,43.5-14.7,64c-2.2,5.3-4.9,10.2-8,14.9c-4.7,7.1-11.2,10.9-19.5,12.7C1745.6,1146.1,1726.4,1146.6,1706.2,1146.3z"/>
	<path class="st5" d="M1750,1025.8c17.8-8.8,33.3-20.7,44.1-37.4c13.4-20.8,16.2-42.9,6.2-66.3c-6.8-15.8-12.4-32.1-18.5-48.2
		c-4.1-11-5.8-22.3-5.8-34c0.1-13.6,0.1-27.3,0-40.9c0-11,3.1-21.5,4.8-32.3c0.3-1.9,1.4-3.8,3.2-4.9c0.5,19.2,6.6,37,12.6,54.9
		c8.1,24.1,20.4,46,36,66.1c11.2,14.4,22.8,28.4,32.9,43.5c4.6,6.9,8.6,14.1,10.6,22.3c3.7,15.6-3.2,33-15.7,43.1
		c-14.3,11.6-31,17.5-48.1,22.9C1792,1021,1771,1023.5,1750,1025.8z"/>
	<path class="st6" d="M1293.9,1593.7c-1.3-11.3-6.6-21.4-10.2-32c-8.2-24.1-17.6-47.8-24.3-72.4c-2.1-7.6-5.6-14.9-7.9-22.4
		c-1.3-4.1-5.3-4.6-7.6-7.3c9.2-0.5,17.5,3.4,26.3,5c20.6,3.8,40.9,9,61.3,13.6c4.4,1,6.6,3,7,8c1.9,19.8,4.6,39.4,10.4,58.6
		c3.5,11.3,4.8,23.3,7.1,35c-0.1,4.4-3.9,5-6.8,5.9c-14.4,4.7-29.5,7-44.3,10.3C1301.2,1596.9,1297.1,1597.1,1293.9,1593.7z"/>
	<path class="st11" d="M884.1,973.8c-38.2-4-75.9,2.3-113.8,1.9c-11.7-0.1-11.7,0-9.2-11.6c1.8-8.8,3.7-17.6,5.3-26.4
		c1.1-5.9,3.8-10,9.2-13.3c19.7-11.9,40.3-21.9,62.1-29.4c7.8-2.7,7.9-2.6,10.6,4.8c8.9,24.5,20.3,47.7,34.9,69.3
		C883.8,970.2,884.8,971.3,884.1,973.8z"/>
	<path class="st5" d="M1293.9,1593.7c5.3,0.4,10.5-0.1,15.7-1.4c12.2-3,24.4-5.5,36.6-8.4c3.4-0.8,7.2-1.1,9.9-4
		c2.6,0.1,5.2-0.3,7.6,1.1c6,3.5,7.3,7.7,3.8,13.7c-1.4,2.5-3.7,4.6-3.9,7.7c-17,1.8-33.2,6.9-49.8,10.3c-3.9,0.8-7.7,2.2-11.8,0.9
		c-27.1,3.2-54.4,5-81.7,4.8c-30-0.2-59.8-2.6-89.6-6.2c-20.5-2.5-41-4.3-61.5-6.5c-9.9-1.1-19.8-2.3-29.7-3.8
		c-6.3-1-10.2-5.6-9.6-10.8c0.5-5,5.4-9.3,11.5-8.8c11.6,0.9,23.1,2.5,34.7,3.8c23.8,2.6,47.6,5,71.4,7.9
		c35.2,4.2,70.4,4.9,105.7,3.8C1266.9,1597.4,1280.5,1595.9,1293.9,1593.7z"/>
	<path class="st6" d="M1302,1613.5c17.7-6.3,36.5-8.5,54.5-13.6c2.8-0.8,5.1,0.5,7.1,2.5c0.6,6.7,3.8,12.7,5.7,19
		c4.1,14,7.8,28.1,11.9,42.2c1,3.4,0.4,5.8-2.8,7.5c-2.9,1.6-5.7,3.4-8.7,4.8c-15.5,7.5-31,15.2-47.7,19.9
		c-0.2-10.9-3.1-21.4-5.8-31.9C1311.7,1647,1306.7,1630.3,1302,1613.5z"/>
	<path class="st6" d="M870,1925.9c-1.1-15.2,3.6-29.5,7.1-44c2.3-9.5,3.2-19.6,9.1-28c-0.4,9.3-4,17.9-6,26.9
		c-3.2,13.8-6.5,27.5-8.5,41.6C871.4,1923.6,870.6,1924.7,870,1925.9z"/>
	<path class="st13" d="M853.4,2001.7c-3.4-4.6-0.3-8.9,0.5-13.3c2-11.6,3.4-23.4,7-35.3c1.8,3.4,0.7,6.5,1.5,9.4
		c-1,10.9-4.5,21.2-7.3,31.6c-0.2,0.8-0.5,1.5-0.9,2.2C854.4,1998.1,854.3,2000,853.4,2001.7z"/>
	<path class="st14" d="M733.5,957.2c1.4,3.3,0.8,5.3,0.6,7.2c-1.4,10.9-1.8,11.1-14.1,7.5C723.4,966.1,728.3,962.2,733.5,957.2z"/>
	<path class="st15" d="M956.2,893.6c-2.3-1.5-3.6-3.5-3.4-6.6c3.1,0.9,5.4,2.4,6.9,5C958.3,892.2,956.9,892.2,956.2,893.6z"/>
	<path class="st5" d="M1702,1575.8c0.7,0.7,1.3,1.3,2,2C1703.3,1577.2,1702.6,1576.5,1702,1575.8z"/>
	<path class="st3" d="M854.1,1996.3c0.3-0.7,0.6-1.4,0.9-2.2C854.7,1994.8,854.4,1995.5,854.1,1996.3z"/>
	<path d="M1134.8,2092.1c-50.3-0.4-91.3-12.2-127.6-37.8c-37.5-26.4-60.7-62.4-67.3-108.4c-0.5-3.8-2.4-7.3-0.5-11.6
		c2.7-6,6.4-9.7,12.3-9.9c5.6-0.2,10.2,3.5,12.7,9.3c2.3,5.3,1.9,11,3.2,16.5c7.3,31.2,23.1,56.6,48.2,76.8
		c25.1,20.2,54,31.2,85,35.9c13.3,2,27.2,4.5,41.5,1.4c9.2-2,19-2.1,28.4-4.2c6.3-1.4,12.8-1.1,17.1,5.1c5.4,7.9,0.9,17.8-9.7,20.4
		C1161.9,2089.7,1145.6,2092.6,1134.8,2092.1z"/>
	<path d="M610.1,795.6c7.6-6.6,13.9-12.1,20.2-17.4c18.4-15.5,38.5-28.5,59.5-40.2c2.3-1.3,4.7-2.5,7.2-3.4
		c6.4-2.1,12.4,0.3,15.4,5.8c2.9,5.3,1.8,10.8-3.2,15.3c-2,1.7-4.3,3.2-6.6,4.4c-35.1,18.7-65.4,43.4-92.8,71.9
		c-2.1,2.2-4.1,4.4-6.4,6.3c-9.5,7.3-21,2.6-21.7-9.4c-0.6-9.3,0.3-18.6,1-27.9c1.6-22.2,4.8-44.2,11.7-66.5
		c-6.6,0.9-11.3,3.2-16.1,5.1c-38.6,15.2-74.1,36.3-109.1,58.3c-3.1,1.9-6.1,4.2-9.4,5.6c-9.2,4.1-17.9-1.2-18.4-11.3
		c-0.2-4.6,0.2-9.4,1-13.9c15.1-82,55.8-147.7,126-193.6c38.8-25.4,82.1-39.3,127.7-46.6c25.7-4.1,51.6-6,77.6-5.8
		c12.3,0.1,24.6,1.2,36.9,2c3,0.2,6,0.8,8.9,1.5c7.2,1.8,11.1,7.2,10.3,13.8c-0.7,6.2-5.4,10.6-12.4,10.6c-8,0-15.9-1-23.9-1.4
		c-64.8-3-128,4.3-186.7,33.6c-70.4,35.1-113.6,92.6-134.6,167.7c-0.3,1.2-0.2,2.6-0.4,4.4c4.3,0,6.9-2.8,9.9-4.5
		c39-23.3,79.2-43.9,123-56.8c6.9-2,13.7-4.3,19.6,1.6c6.4,6.5,3.3,13.5,0.5,20.4c-6.9,17.1-11.5,34.8-14.2,52.9
		C609.9,783.4,609.2,788.7,610.1,795.6z"/>
	<path d="M1135.6,1350.2c-3.9-0.3-8.2-2.1-12.4-4.1c-21.2-10.3-35.2-27-42.4-49.3c-3.4-10.6-2.3-9.3-13.7-9.7
		c-18.5-0.8-34.5,5.9-49.7,15.5c-3.1,1.9-6.1,4.2-9.4,5.6c-5.7,2.4-11.7,0.6-15.1-4.1c-3.5-4.7-3.4-10.8,0.6-15.7
		c1.7-2,3.8-3.8,5.9-5.3c20.2-13.9,42-22.8,67-22.5c8.6,0.1,8.7-0.1,9.8-9.1c2.3-19,9.2-36,21.7-50.6c2.4-2.8,4.9-5.5,8.1-7.4
		c5.7-3.3,12.3-2.5,16.4,2c4,4.4,4.5,10.2,1.2,15.7c-1,1.7-2.5,3.1-3.8,4.6c-21.3,24.3-22.7,51.5-11.1,80.2
		c5,12.5,14.7,21.2,26.9,26.9c2.7,1.3,5.6,2.2,8.1,3.8c5.3,3.4,7.4,9.1,5.7,14.7C1148,1346.8,1142.7,1350.3,1135.6,1350.2z"/>
</g>
</svg>
