<?xml version="1.0" encoding="utf-8"?>
<!-- Generator: Adobe Illustrator 22.0.1, SVG Export Plug-In . SVG Version: 6.00 Build 0)  -->
<svg version="1.1" id="Layer_1" xmlns="http://www.w3.org/2000/svg" xmlns:xlink="http://www.w3.org/1999/xlink" x="0px" y="0px"
	 viewBox="0 0 257.2 517" style="enable-background:new 0 0 257.2 517;" xml:space="preserve">
<style type="text/css">
	.st0{fill:#FFFFFF;}
	.st1{fill:#EDEDED;}
	.st2{fill:#F2FEF1;}
	.st3{fill:#FE2E30;}
	.st4{fill:#1A191A;}
	.st5{fill:#FAC298;}
	.st6{fill:#EEE8EE;}
	.st7{fill:#936A48;}
	.st8{fill:#1A1A1A;}
	.st9{fill:#121112;}
	.st10{fill:#F7DF21;}
	.st11{fill:#A14E1D;}
	.st12{fill:#121212;}
	.st13{fill:#111011;}
	.st14{fill:#3A0B0C;}
</style>
<g>
	<g>
		<path d="M45.2,515.5c-1.3,0-2.5,0-3.8,0c-5.2-0.1-11.2-0.5-17.1-2.2c-8.1-2.3-12.8-8.1-13.5-16.5c-0.9-11.6,6-21.9,17-25.4
			c2.2-0.7,4.6-1.1,6.9-1.1c1.7,0,3.4,0.2,5.2,0.5c-0.3-0.8-0.6-1.5-1-2.3l-0.1-0.3c-3.7-8.6-8.4-16.8-13-24.7l-0.4-0.7l-0.3-0.4
			c-1.3-2.1-0.4-3.6,0.2-4.2c0.6-0.7,1.4-1.1,2.4-1.1c0.6,0,1.2,0.1,1.8,0.4l0.7,0.3c1.5,0.7,3.1,1.4,4.6,2c1.1,0.5,2.3,1,3.4,1.5
			c1.1,0.5,2.2,0.9,3.2,1.4l-0.1-1.4c-0.4-4.8-0.8-9.8-1.1-14.6c-0.3-4.1-0.5-8.3-0.6-12.4l0-0.6c-0.4-8.6-0.5-16.9-0.4-24.8
			c0.1-7.3,0.4-15,1-24.3c0.2-3.2,0.5-6.5,0.8-9.6c0.1-1.7,0.3-3.4,0.4-5.2c0.1-1,0.1-2,0.2-2.9c0.1-1.8,0.2-3.6,0.4-5.4
			c0.2-2,0.5-4.1,1-6.5c-2-0.6-3.8-1.4-5.6-2.4c-0.3-0.1-1-0.5-1.2-1.4c-0.2-0.8,0.2-1.5,0.3-1.7c0.2-0.3,0.3-0.6,0.5-0.9
			c0.1-0.2,0.2-0.4,0.3-0.5c-5.7-4.3-7.7-10.3-6.1-18.3c0.3-1.6,0.8-3.8,1.7-5.8c0.5-1,0.6-2.1,0.4-3.6c-1.7-17.5-1.1-33.6,2.1-49.2
			c1.6-7.9,3.8-14.8,6.6-21.1c2.2-4.8,5.3-8.9,8.4-12.6c8.8-10.8,19.3-19.4,29.4-27c0.9-0.7,1.9-1.4,2.9-2.2
			c-0.9-0.5-1.8-1.1-2.6-1.7c-2.6-1.9-5-4.2-6-7.8c-0.8-3.1-0.1-5.9,2-8.2c2.1-2.3,4.8-3.3,7.4-4.1c0,0,0.7-0.2,0.9-0.3
			c-5.1-8.6-8.6-17.5-10.4-26.5c-1-4.9-1.4-10.2-1.2-16.1c0.1-2.9,0.2-5.9,0.6-9c-0.8-0.2-1.5-0.4-2.1-0.6c-0.1,0-0.2-0.1-0.2-0.1
			c0,0.1-0.1,0.1-0.1,0.2c-1.9,4-3.1,8.1-3.5,12.7c-0.6,6.2,0.1,12.5,0.8,18.1c0.6,4.9,1.1,9.9,0.9,15c-0.3,5.5-2.2,10.5-5.9,15.4
			c-7.1,9.5-16.9,14.9-29.2,16c-0.4,0-0.8,0-1.3,0.1l-0.5,0c-1.5,0-2.7-0.8-3.2-2.1c-0.5-1.4-0.2-2.8,1-3.8c1.8-1.6,3.3-3.1,4.7-4.7
			c3.1-3.7,5.1-7,6.3-10.5c0.9-2.9,0.8-5.9-0.2-9.1c-2-6.1-5.5-12-10.5-18c-1.8-2.1-3.6-4.2-5.4-6.2c-2.4-2.7-4.8-5.5-7.1-8.3
			c-7.4-9.1-12.4-19.9-14.9-31.8c-1.4-6.6-1.8-13.3-1.1-19.9C2.4,70.7,4.6,65.1,6.5,61c4.4-9.9,10.3-17.5,18-23.2
			c5.7-4.2,12.4-7.2,19.8-8.7c2-0.4,4.2-0.7,6.6-0.9c-4.6-5.2-6.6-11.8-6.1-19.4c0.1-1.2,0.2-2.8,0.5-4.4c0.4-2,1.7-2.6,2.5-2.8
			c0.3-0.1,0.6-0.1,0.9-0.1c0.7,0,1.8,0.3,2.7,1.4c3.2,4.4,7.7,7.4,14.5,10c3.3,1.2,6.7,1.8,10.4,1.8c2.8,0,5.7-0.3,9-1
			c1-0.2,2.1-0.4,3.1-0.7c4.3-0.9,8.8-1.9,13.2-2.5c4.4-0.6,8.7-0.9,12.8-0.9c2.1,0,4.2,0.1,6.2,0.2c4.5,0.3,9.3,0.8,14.2,2
			c10.5,2.7,18.2,7.6,23.7,15.1c0.5,0.7,1,1.5,1.6,2.4c4.7-0.7,9.7-1,14.7-1c2.7,0,5.5,0.1,8.3,0.3c8.2,0.6,16.3,2.2,24.2,4.8
			c9.8,3.2,18.3,7.1,25.9,11.8c2.2,1.4,4.8,3.1,7.1,5.4c2.5,2.5,2.8,4.7,2.6,6.1c-0.2,1.4-1,3.5-4,5.3c-2.2,1.3-4.5,2.1-6.8,2.7
			c9.5,11.7,16.3,25.5,20.3,40.9c3,11.5,4.1,23.9,3.3,36.8c-1,17.2-5,33.6-11.9,48.8c-4.4,9.7-9.3,17.7-15,24.3
			c-1.6,1.9-3.5,3.8-5.8,5.3c-1.1,0.7-2.1,1-3.1,1l0,0c-1.6,0-2.9-0.9-4-2.7c-1.6-2.6-2.8-5.4-3.9-8.1c-0.3-0.7-0.6-1.4-0.9-2.2
			l-0.4-0.8c-1.8-4.1-3.6-8.3-5.7-12.4c0,4.8-1,9.3-3,13.3c-1.2,2.5-2.9,4.9-5,7.2c-1.4,1.6-2.9,3.2-4.6,4.6
			c0.3,0.9,0.5,1.8,0.8,2.7c0.7,2.4,1.4,4.8,1.9,7.3c0.2,1.2,0.5,2.5,0.8,3.7c0.9,4.3,1.9,8.8,2,13.5c0,1.2,0.2,2.5,0.3,3.8l0.1,0.7
			c0.6,5.1,0.2,10.5-1.2,17.3c-2.1,10.1-4.9,18.2-8.7,25.4c-2.5,4.8-5.7,10.4-10.2,15.5c-1.1,1.2-2.3,2.3-3.5,3.3
			c-0.1,0.1-0.1,0.1-0.1,0.1l0,0c0,0,0,0,0,0.2c0.1,3.8-0.3,6.8-1.3,9.5c-2.1,5.5-5.9,9.5-11.3,11.9c-1.2,0.5-2.5,0.8-3.7,1
			l-0.3,0.1c-0.6,0.1-1.3,0.2-2,0.3c1.2,2.8,2.2,5.6,3.1,8.4c1.5,4.6,2.6,9.3,3.6,13.8c0.5,2,0.9,4.1,1.4,6.1l0.6,2.8
			c0.9,3.2,1.5,6.4,2,9.6l0.1,0.4c0.2,1,0.4,1.9,0.7,3c0.2,0.8,0.4,1.6,0.6,2.5c0.7,3.2,1.1,6.3,1.6,9.3c0.2,2.1,0.6,4.1,1,6.2
			c0.2,0.9,0.3,1.8,0.5,2.6c0.7,3.9,1.5,8.5,2.5,13.2c0.8,4.1,1.2,8.3,1.5,12.4c0.1,1,0.2,2,0.3,3c0.4,4.5,0.8,9.1,1.1,13.6l0.2,2.9
			c2.6-0.6,5.2-1.1,7.7-1.7l3.8-0.8c0.3-0.1,0.8-0.2,1.3-0.2c1.3,0,2.2,0.7,2.6,1.2c0.9,1.1,0.9,2.5,0.1,4
			c-2.5,4.9-5.5,10.4-9.1,15.5c0.5,0,0.9,0,1.4,0c4.7,0,9.3,1.3,13.6,4c3,1.9,5,4.7,6,8.4c2.6,9.9,1.4,19.5-3.6,28.5
			c-2.1,3.7-5.5,5.9-10.5,6.6c-7.3,1.1-15.2,1.6-23.9,1.6c-1.9,0-3.7,0-5.6-0.1c-4.4-0.1-9.1-0.4-14.9-0.9c-3.1-0.3-6.2-0.7-9.2-1.1
			c-1-0.1-2-0.3-3-0.4c-1.2-0.1-3.2-0.8-3.3-3.9c-0.1-4.7-0.6-9.3-1.4-13.6c-1.3-7.2-3.7-14.1-5.7-19.2l-0.2-0.5
			c-0.1-0.3-0.2-0.5-0.3-0.8c-0.7-1.9,0.1-3.1,0.7-3.7c0.6-0.7,1.4-1,2.3-1c0.4,0,0.9,0.1,1.3,0.2c0.4,0.1,0.8,0.3,1.2,0.4
			c-0.9-2.8-2.1-5.9-3.7-9.5c-0.1-0.2-0.2-0.5-0.3-0.7c-0.6-1.5-0.3-2.6,0.1-3.3c0.4-0.6,1.2-1.5,2.8-1.7c1.1-0.1,2.1-0.3,3.2-0.3
			c-3.1-8.5-6.2-17.4-9.3-26.5c-3.4-10.1-6.6-20.3-9.9-31.4c-2.4-8.2-4.9-16.6-7.5-25.7c-1.8-6.3-3.7-12.7-5.5-18.9l0-0.1
			c-0.1,0.2-0.1,0.5-0.2,0.7c-1.6,6.3-2.7,11.7-3.5,16.8c-0.6,3.8-1.2,7.7-1.9,11.4c-0.6,3.5-1.2,7.1-1.7,10.6
			c-0.7,4.6-1.3,9.3-2,13.8l-0.6,4.2c-0.9,6.7-1.6,13.4-2.3,19.7c-1,10.1-1.8,17.9-2.3,25.1c-0.1,1.1-0.2,1.9-0.3,2.7
			c1.2,0.3,2.3,0.6,3.4,0.8l1.4,0.4c2.3,0.6,3.3,2.1,3,4.5c-0.5,4.1-1.5,7.9-2.9,11.5l2.4-0.5c0.3-0.1,0.6-0.1,0.8-0.2
			c0.3-0.1,0.6-0.1,0.8-0.1c1.1,0,2.1,0.5,2.7,1.4c0.5,0.7,1.1,2.1-0.1,3.9c-1.6,2.4-2.8,4.5-4,6.5c-2.6,4.6-4.4,8.5-5.2,12.9
			c-0.6,3.1-0.7,5.5-0.3,7.7c0.4,2.9-0.4,4.2-3.1,5.1c-5.2,1.6-10.7,2.8-16.8,3.5C58.4,515.1,51.7,515.5,45.2,515.5z M163.4,250.5
			c0,0.8-0.1,1.7-0.2,2.5c-0.4,3-1.4,7.2-5.1,9.8c-1.3,0.9-2.1,2.1-2.6,3.8c0,0.1-0.1,0.2-0.1,0.4l0,0.1c-1.3,4-2.3,7.6-3,11.1
			c2.9-2.5,5.7-5.5,8.8-9.4c3.2-4,5-8.8,5.5-14.6c0-0.5,0.1-1,0.1-1.5c0.1-1.2,0.2-2.5,0.3-3.7c0.2-1.7,0.2-3.5,0.1-5.2
			c-1.3,1.9-2.6,3.8-3.7,5.8C163.4,249.6,163.4,250.5,163.4,250.5z M68.2,245c-0.1,1-0.1,2,0,3.1c0.4,4.3,1.3,8.8,2.9,14.3
			c0.6,2.2,1.2,4.2,1.8,6.1c2.3-5.3,3.8-10.6,5-15.3C73.5,251.3,70.3,248.6,68.2,245z"/>
		<path class="st0" d="M48.6,3c0.6,0,1.1,0.3,1.5,0.8c3.9,5.2,9.3,8.3,15.2,10.5c3.6,1.4,7.3,1.9,10.9,1.9c3.1,0,6.2-0.4,9.3-1
			c5.4-1.1,10.8-2.4,16.2-3.1c4.2-0.6,8.4-0.9,12.6-0.9c2,0,4.1,0.1,6.1,0.2c4.7,0.3,9.3,0.8,13.9,2c9.2,2.3,17.1,6.7,22.8,14.5
			c0.6,0.8,1.2,1.7,1.7,2.6c0.2,0.4,0.4,0.5,0.8,0.5c0.1,0,0.1,0,0.2,0c4.9-0.7,9.9-1,14.9-1c2.7,0,5.5,0.1,8.2,0.3
			c8.1,0.6,16.1,2.1,23.8,4.7c8.9,3,17.5,6.7,25.6,11.6c2.4,1.5,4.8,3.1,6.8,5.2c3.3,3.3,2.9,6.6-1.2,9.1c-2.5,1.5-5.2,2.3-8,3
			c-0.2,0-0.4,0.1-0.7,0.2c0.4,0.5,0.8,1,1.2,1.5c9.8,12,16.4,25.6,20.2,40.6c3.1,11.9,4,24.1,3.3,36.3c-1,16.8-4.8,32.9-11.7,48.3
			c-3.9,8.6-8.6,16.8-14.8,23.9c-1.6,1.9-3.3,3.7-5.4,5c-0.9,0.5-1.6,0.8-2.3,0.8c-1,0-1.9-0.6-2.7-2c-1.9-3.2-3.2-6.7-4.7-10.1
			c-2.6-6-5.2-12.1-8.5-17.7c-0.2-0.3-0.4-0.6-0.7-0.9c0.1,1.1,0.2,2.2,0.3,3.3c0.4,5.3-0.4,10.5-2.7,15.3c-1.2,2.5-2.9,4.8-4.7,6.9
			c-1.5,1.6-3,3.2-4.7,4.6c-0.4,0.3-0.5,0.7-0.3,1.2c0.9,3.4,2,6.7,2.7,10.2c1.1,5.6,2.6,11.1,2.7,16.9c0,1.5,0.2,3.1,0.4,4.6
			c0.7,5.7,0,11.3-1.2,16.9c-1.8,8.7-4.4,17.1-8.6,25c-2.8,5.4-5.9,10.6-10,15.2c-1,1.2-2.2,2.2-3.3,3.2c-0.5,0.4-0.7,0.8-0.7,1.5
			c0.1,3-0.1,6-1.2,8.9c-2,5.1-5.4,8.8-10.5,11.1c-1.2,0.5-2.5,0.7-3.7,1c-1,0.2-2,0.3-3.1,0.3c-0.3,0-0.6,0-0.9,0
			c1.5,3.5,2.8,6.9,3.9,10.4c1.5,4.5,2.5,9.1,3.5,13.7c0.7,3,1.4,6,2,9c1,3.2,1.5,6.5,2,9.8c0.3,1.9,0.9,3.6,1.3,5.5
			c0.6,3.1,1.1,6.2,1.6,9.3c0.3,3,1,6,1.5,8.9c0.8,4.4,1.6,8.8,2.5,13.2c1,5,1.3,10.1,1.8,15.2c0.5,5.8,0.9,11.6,1.4,17.4
			c0,0.4,0.1,0.6,0.4,0.6c0.1,0,0.2,0,0.4-0.1c4.2-0.9,8.4-1.8,12.5-2.7c0.3-0.1,0.6-0.1,0.9-0.1c0.5,0,1,0.2,1.4,0.7
			c0.6,0.8,0.4,1.6,0,2.4c-3.1,6-6.4,12-10.5,17.4c-0.1,0.2-0.2,0.3-0.4,0.6c0.9-0.1,1.7-0.1,2.4-0.2c0.7-0.1,1.4-0.1,2.1-0.1
			c4.6,0,8.8,1.3,12.8,3.8c2.8,1.8,4.5,4.4,5.3,7.5c2.5,9.6,1.3,18.7-3.5,27.4c-2,3.6-5.3,5.3-9.4,5.8c-7.9,1.1-15.7,1.6-23.7,1.6
			c-1.9,0-3.7,0-5.6-0.1c-4.9-0.1-9.9-0.5-14.8-0.9c-4.1-0.4-8.2-0.9-12.2-1.4c-1.3-0.2-1.9-0.9-2-2.4c-0.1-4.7-0.5-9.3-1.4-13.9
			c-1.2-6.7-3.4-13.1-5.8-19.5c-0.2-0.4-0.4-0.9-0.5-1.3c-0.3-0.8-0.3-1.5,0.3-2.1c0.4-0.4,0.8-0.5,1.3-0.5c0.3,0,0.6,0.1,0.8,0.1
			c1,0.3,1.9,0.7,2.9,1c0.2,0.1,0.4,0.2,0.6,0.2c0.1,0,0.1,0,0.2-0.1c0.3-0.2,0-0.6,0-0.9c-1.1-3.9-2.6-7.7-4.3-11.4
			c-0.1-0.2-0.2-0.4-0.3-0.7c-0.6-1.5,0-2.7,1.7-2.9c1.4-0.2,2.7-0.3,4.1-0.4c0.7-0.1,0.9-0.2,0.6-1c-3.3-9.1-6.5-18.2-9.6-27.4
			c-3.5-10.4-6.8-20.9-9.9-31.4c-2.6-8.5-5-17.1-7.5-25.7c-1.9-6.6-3.8-13.2-5.8-19.8c-0.3-1.1-0.5-2.2-1.1-3.3
			c-0.8,1.6-1.3,3.2-1.7,4.8c-1.4,5.6-2.7,11.2-3.5,16.9c-1.1,7.4-2.5,14.7-3.6,22.1c-0.9,6-1.7,12.1-2.5,18.1
			c-0.9,6.6-1.6,13.2-2.3,19.8c-0.9,8.4-1.7,16.8-2.3,25.2c-0.1,1-0.2,2-0.3,3.1c-0.1,0.7,0.1,1,0.8,1.1c1.7,0.4,3.5,0.9,5.2,1.3
			c1.6,0.4,2.1,1.2,1.9,2.8c-0.6,4.7-1.9,9.2-3.9,13.7c1.6-0.3,3.1-0.6,4.6-0.9c0.5-0.1,0.9-0.2,1.4-0.3c0.2,0,0.4-0.1,0.5-0.1
			c0.6,0,1.1,0.3,1.5,0.8c0.5,0.7,0.4,1.5-0.1,2.2c-1.4,2.1-2.8,4.3-4,6.6c-2.3,4.2-4.5,8.5-5.4,13.3c-0.5,2.7-0.8,5.4-0.3,8.2
			c0.3,2.1-0.1,2.8-2.1,3.4c-5.4,1.7-10.9,2.8-16.5,3.5c-6.5,0.8-13.1,1.3-19.7,1.3c-1.2,0-2.5,0-3.7,0c-5.7-0.1-11.3-0.6-16.8-2.1
			c-7.4-2.1-11.8-7.4-12.4-15.2c-0.8-10.8,5.6-20.5,16-23.9c2.2-0.7,4.3-1,6.5-1c2.3,0,4.6,0.4,6.9,1c0.1,0,0.3,0.1,0.4,0.1
			c0,0,0,0,0,0c0,0,0.1,0,0.2-0.1c-0.5-1.7-1.3-3.4-2-5.1c-3.8-8.9-8.7-17.3-13.5-25.6c-0.1-0.1-0.2-0.3-0.3-0.4
			c-0.5-0.8-0.7-1.7,0-2.5c0.4-0.4,0.8-0.6,1.2-0.6c0.4,0,0.8,0.1,1.2,0.3c1.8,0.8,3.6,1.6,5.3,2.4c2.7,1.2,5.4,2.3,8.1,3.5
			c0.2,0.1,0.4,0.2,0.5,0.2c0.2,0,0.3-0.2,0.3-0.7c-0.5-5.9-1-11.7-1.4-17.6c-0.3-4.3-0.5-8.6-0.7-12.9c-0.4-8.2-0.5-16.4-0.4-24.7
			c0.1-8.1,0.5-16.2,1-24.2c0.3-4.9,0.8-9.8,1.2-14.7c0.2-2.7,0.3-5.5,0.6-8.3c0.3-2.4,0.6-4.7,1.1-7c0.1-0.6-0.1-0.8-0.5-0.9
			c-2.1-0.6-4-1.4-5.9-2.5c-0.5-0.3-0.6-0.5-0.3-1c0.4-0.7,0.7-1.4,1.1-2.1c0.3-0.4,0.2-0.7-0.2-1c-6.1-4.3-7.4-10.3-6-17.2
			c0.4-1.9,0.8-3.8,1.6-5.5c0.6-1.4,0.7-2.9,0.5-4.4c-1.6-16.3-1.2-32.6,2.1-48.7c1.4-7.2,3.5-14.1,6.5-20.8
			c2.1-4.5,5.1-8.4,8.2-12.3c8.4-10.3,18.6-18.8,29.1-26.8c1.5-1.2,3.1-2.3,4.7-3.5c-1.6-0.9-3.1-1.7-4.4-2.7
			c-2.4-1.8-4.6-3.9-5.5-7c-0.7-2.5-0.2-4.8,1.7-6.7c1.9-2,4.3-2.9,6.8-3.7c0.6-0.2,1.2-0.4,1.9-0.5c0.9-0.1,0.8-0.4,0.4-1
			c-5.1-8.4-8.8-17.3-10.8-27c-1.1-5.2-1.4-10.5-1.2-15.7c0.1-3.2,0.2-6.3,0.7-9.4c0.1-0.6-0.2-0.8-0.7-1c-0.8-0.2-1.7-0.4-2.5-0.7
			c-0.6-0.2-0.9-0.3-1.2-0.3c-0.4,0-0.6,0.3-1,1.2c-2,4.2-3.2,8.6-3.7,13.3c-0.6,6.2,0.1,12.3,0.8,18.4c0.6,4.9,1.1,9.8,0.9,14.8
			c-0.3,5.5-2.4,10.3-5.6,14.6c-7,9.4-16.5,14.4-28.1,15.4c-0.5,0-1,0-1.5,0.1c0,0,0,0-0.1,0c-0.8,0-1.5-0.4-1.8-1.2
			c-0.3-0.8,0-1.6,0.6-2.1c1.7-1.5,3.4-3.1,4.9-4.9c2.8-3.3,5.2-6.9,6.5-11.1c1.1-3.4,0.9-6.7-0.3-10.1c-2.3-6.9-6.1-13-10.8-18.5
			c-4.1-4.9-8.4-9.6-12.4-14.5C11.6,118.5,6.8,108,4.4,96.5C3.1,90.1,2.7,83.6,3.3,77c0.5-5.4,2.3-10.5,4.5-15.5
			c4-9,9.5-16.7,17.5-22.6c5.8-4.3,12.2-7,19.2-8.4c3.1-0.6,6.2-0.9,9.5-1.1c-0.7-0.8-1.3-1.4-1.8-2c-4.8-5.3-6.5-11.6-6-18.6
			c0.1-1.4,0.2-2.8,0.5-4.2c0.2-0.8,0.6-1.4,1.4-1.6C48.3,3,48.5,3,48.6,3 M75.5,107.1c0.7,0,0.8-0.6,0.9-2.4
			c-0.8,0.8-1.5,1.4-2,2.1C74.8,107,75.2,107.1,75.5,107.1 M150.6,281.5c0.3,0,0.5-0.3,0.7-0.4c4.2-3.3,7.7-7.1,11-11.3
			c3.6-4.5,5.3-9.7,5.8-15.4c0.1-1.7,0.3-3.5,0.5-5.2c0.4-3.2,0-6.3-0.3-9.4c-2.3,2.9-4.3,5.9-6.1,9.1c-0.1,0.3-0.2,0.5-0.2,0.8
			c-0.1,1.1-0.1,2.1-0.2,3.2c-0.5,3.4-1.5,6.7-4.5,8.8c-1.7,1.2-2.6,2.8-3.1,4.7c0,0.1-0.1,0.3-0.1,0.4c-1.6,4.8-2.9,9.7-3.6,14.8
			C150.4,281.5,150.5,281.5,150.6,281.5 M72.6,272.4c0.2-0.5,0.4-0.7,0.5-1c2.8-5.8,4.7-11.9,6.3-18.1c0.3-1-0.1-1.2-0.9-1.6
			c-5.2-2.1-8.9-5.7-10.6-11.1c-0.1-0.2,0-0.4-0.3-0.4c0,0,0,0,0,0c-0.8,2.6-1.1,5.2-0.9,7.9c0.5,4.9,1.6,9.8,2.9,14.6
			C70.5,265.9,71.5,269.1,72.6,272.4 M48.6,0c-0.4,0-0.8,0.1-1.3,0.2c-1.8,0.5-3.1,1.9-3.6,3.9c-0.4,1.7-0.5,3.3-0.6,4.6
			c-0.5,7,1.1,13.2,4.8,18.3c-1.4,0.2-2.8,0.4-4.1,0.7c-7.6,1.6-14.5,4.6-20.4,9c-7.9,5.8-14,13.6-18.5,23.8
			c-1.9,4.3-4.2,10-4.8,16.4C-0.3,83.5,0,90.3,1.5,97.1c2.6,12.2,7.7,23.1,15.2,32.5c2.3,2.9,4.8,5.7,7.1,8.4c1.8,2,3.6,4.1,5.3,6.2
			c4.9,5.9,8.3,11.6,10.3,17.5c1,3,1.1,5.6,0.2,8.2c-1.1,3.3-3,6.5-6,10c-1.3,1.6-2.8,3.1-4.6,4.6c-1.7,1.5-2.2,3.5-1.4,5.5
			c0.7,1.9,2.5,3.1,4.6,3.1l0.1,0l0.4,0c0.4,0,0.9,0,1.4-0.1c12.7-1.2,22.9-6.8,30.2-16.6c3.9-5.2,5.9-10.5,6.2-16.3
			c0.3-5.2-0.3-10.3-0.9-15.2c-0.6-5.6-1.4-11.8-0.8-17.8c0.4-3.9,1.3-7.5,2.8-11c-0.3,2.6-0.4,5.1-0.4,7.6
			c-0.2,6.1,0.2,11.4,1.3,16.4c1.8,8.6,5,17.1,9.7,25.3c-2.4,0.8-5,2-7.1,4.2c-2.5,2.7-3.4,6-2.4,9.6c1.1,4,3.9,6.6,6.6,8.6
			c0.3,0.2,0.6,0.4,0.8,0.6c-0.4,0.3-0.8,0.6-1.1,0.9c-10.1,7.7-20.8,16.4-29.6,27.3c-3.1,3.8-6.3,7.9-8.6,12.9
			c-2.9,6.4-5.1,13.4-6.8,21.5c-3.2,15.7-3.9,32-2.1,49.6c0.1,1.3,0,2.1-0.3,2.9c-1,2.2-1.5,4.4-1.8,6.2c-1.6,8.1,0.3,14.5,5.7,19
			c-0.1,0.1-0.1,0.2-0.2,0.3c-0.6,1-0.7,1.9-0.5,2.9c0.3,1,0.9,1.7,1.9,2.3c1.5,0.8,3,1.5,4.6,2.1c-0.3,1.9-0.6,3.7-0.7,5.4
			c-0.2,1.8-0.3,3.6-0.4,5.4c-0.1,1-0.1,2-0.2,2.9c-0.1,1.7-0.3,3.4-0.4,5.1c-0.3,3.2-0.5,6.4-0.8,9.6c-0.6,9.3-1,17.1-1.1,24.4
			c-0.1,7.9,0,16.3,0.4,24.8l0,0.6c0.2,4,0.4,8.2,0.6,12.4c0.3,4.5,0.7,9.1,1,13.6c-0.3-0.1-0.6-0.3-1-0.4c-1.1-0.5-2.3-1-3.4-1.5
			c-1.5-0.7-3.1-1.4-4.6-2l-0.7-0.3c-0.9-0.4-1.7-0.6-2.4-0.6c-1.3,0-2.6,0.6-3.5,1.6c-1.5,1.7-1.7,3.9-0.4,6l0.1,0.2
			c0,0.1,0.1,0.1,0.1,0.2l0.4,0.7c4.6,7.9,9.3,16.1,12.9,24.6l0,0.1c-0.9-0.1-1.8-0.1-2.7-0.1c-2.5,0-5,0.4-7.4,1.2
			c-11.7,3.8-18.9,14.6-18,27c0.7,9.1,5.8,15.4,14.5,17.9c6.1,1.7,12.2,2.1,17.5,2.2c1.3,0,2.5,0,3.8,0c6.5,0,13.3-0.4,20.1-1.3
			c6.2-0.8,11.8-2,17-3.6c3.4-1.1,4.7-3.1,4.2-6.7c-0.3-2-0.2-4.3,0.3-7.2c0.8-4.1,2.6-8,5-12.4c1.1-2,2.3-4,3.9-6.4
			c1.2-1.8,1.2-3.9,0-5.6c-0.9-1.3-2.3-2.1-3.9-2.1c-0.4,0-0.8,0-1.2,0.1c-0.2,0-0.4,0.1-0.7,0.1c1-3,1.7-6.1,2.1-9.3
			c0.4-3.2-1-5.4-4.1-6.1c-0.5-0.1-0.9-0.2-1.4-0.4c-0.7-0.2-1.4-0.4-2.1-0.5c0-0.4,0.1-0.9,0.1-1.5c0.5-7.2,1.2-15,2.3-25.1
			c0.7-6.3,1.4-13,2.3-19.7c0.2-1.4,0.4-2.8,0.6-4.3c0.6-4.5,1.2-9.2,2-13.8c0.5-3.5,1.2-7.1,1.7-10.6c0.6-3.8,1.3-7.6,1.9-11.5
			c0.6-3.8,1.3-7.7,2.3-12c1.3,4.5,2.7,9.1,4,13.7c2.6,9.2,5,17.6,7.5,25.7c3.3,11.1,6.6,21.4,10,31.5c2.8,8.4,5.7,16.7,8.6,24.7
			c-0.4,0-0.9,0.1-1.3,0.2c-1.7,0.2-3.1,1.1-3.9,2.4c-0.8,1.3-0.8,2.9-0.2,4.6c0.1,0.3,0.2,0.5,0.3,0.8c1.1,2.5,2.1,4.7,2.8,6.7
			c-0.1,0-0.1,0-0.2,0c-1.3,0-2.5,0.5-3.4,1.5c-1.3,1.4-1.7,3.3-1,5.2c0.1,0.3,0.2,0.6,0.3,0.9c0.1,0.2,0.1,0.3,0.2,0.5
			c1.9,5.1,4.3,11.9,5.6,19c0.8,4.2,1.3,8.8,1.4,13.4c0.1,3,1.8,5,4.6,5.3c1,0.1,2,0.2,3,0.4c3,0.4,6.2,0.8,9.3,1.1
			c5.8,0.5,10.5,0.8,15,0.9c1.9,0,3.8,0.1,5.6,0.1c8.8,0,16.7-0.5,24.1-1.6c5.5-0.8,9.2-3.2,11.6-7.4c5.2-9.4,6.5-19.3,3.8-29.6
			c-1.1-4.1-3.3-7.3-6.6-9.3c-4.1-2.5-8.4-3.9-12.9-4.2c3-4.5,5.5-9.2,7.6-13.4c1.4-2.7,0.4-4.7-0.3-5.6c-0.9-1.2-2.3-1.8-3.8-1.8
			c-0.6,0-1.2,0.1-1.6,0.2c-1.2,0.3-2.5,0.5-3.7,0.8c-2,0.4-4.1,0.9-6.1,1.3c0-0.4-0.1-0.8-0.1-1.2c-0.3-4.4-0.7-9-1.1-13.5
			c-0.1-1-0.2-2-0.3-3c-0.4-4.1-0.7-8.3-1.6-12.6c-0.9-4.6-1.8-9.2-2.5-13.1c-0.2-0.9-0.3-1.8-0.5-2.7c-0.4-2.1-0.8-4-1-6l0-0.1
			l0-0.1c-0.4-3-0.9-6.2-1.6-9.4c-0.2-0.9-0.4-1.7-0.6-2.5c-0.3-1-0.5-1.9-0.7-2.8l-0.1-0.3c-0.5-3.2-1.1-6.5-2-9.8
			c-0.2-0.9-0.4-1.8-0.6-2.7c-0.5-2.1-0.9-4.1-1.4-6.2c-1-4.5-2.1-9.3-3.6-14c-0.7-2.2-1.5-4.5-2.4-6.7c0.1,0,0.1,0,0.2,0l0.3-0.1
			c1.2-0.2,2.6-0.5,4-1.1c5.7-2.5,9.8-6.8,12.1-12.7c1-2.7,1.5-5.7,1.4-9.5c1.1-1,2.2-2,3.3-3.2c4.5-5.2,7.8-10.9,10.4-15.8
			c3.9-7.4,6.7-15.6,8.8-25.8c1.5-7.1,1.9-12.5,1.2-17.8l-0.1-0.7c-0.2-1.3-0.3-2.4-0.3-3.6c-0.1-4.8-1.1-9.4-2-13.8
			c-0.3-1.2-0.5-2.4-0.8-3.7c-0.5-2.6-1.2-5.1-1.9-7.5c-0.2-0.6-0.3-1.2-0.5-1.8c1.5-1.3,2.8-2.7,4.1-4.1c2.1-2.4,3.9-5,5.2-7.6
			c1.3-2.6,2.2-5.4,2.7-8.4c1.1,2.5,2.2,5,3.3,7.4l0.4,0.8c0.3,0.7,0.6,1.4,0.9,2.1c1.2,2.8,2.4,5.6,4,8.3c1.4,2.3,3.2,3.4,5.3,3.4
			c1.2,0,2.5-0.4,3.9-1.2c2.5-1.5,4.4-3.6,6.1-5.6c5.8-6.7,10.8-14.8,15.3-24.7c6.9-15.3,11-31.9,12-49.3c0.8-13-0.3-25.5-3.3-37.2
			c-3.8-14.9-10.2-28.2-19.1-39.7c1.7-0.6,3.4-1.3,5-2.3c3.5-2.1,4.5-4.7,4.8-6.4c0.2-1.7-0.1-4.4-3-7.4c-2.3-2.4-5-4.2-7.3-5.6
			c-7.7-4.8-16.3-8.7-26.2-11.9c-8-2.6-16.3-4.3-24.6-4.8c-2.9-0.2-5.7-0.3-8.4-0.3c-4.8,0-9.5,0.3-14,0.9c-0.4-0.6-0.8-1.2-1.1-1.7
			c-5.6-7.8-13.7-12.9-24.5-15.7c-4.9-1.3-9.8-1.7-14.4-2.1c-2.1-0.2-4.2-0.2-6.4-0.2c-4.2,0-8.5,0.3-13,0.9
			c-4.5,0.6-9,1.6-13.4,2.5c-1,0.2-2,0.4-3.1,0.7c-3.2,0.7-6,1-8.7,1c-3.5,0-6.8-0.6-9.9-1.7c-6.5-2.5-10.8-5.4-13.9-9.5
			C51.5,0.7,50.1,0,48.6,0L48.6,0z M164.9,250c0.2-0.4,0.5-0.8,0.7-1.2c-0.2,1.3-0.3,2.5-0.3,3.7c0,0.5-0.1,1-0.1,1.5
			c-0.5,5.5-2.2,10.1-5.2,13.8c-1.7,2.2-3.4,4.1-5,5.8c0.5-1.9,1.1-3.9,1.8-6.1l0,0c0.1-0.2,0.1-0.3,0.2-0.5c0.4-1.4,1-2.3,2-3
			c4.2-3,5.3-7.6,5.7-10.8c0.1-0.9,0.2-1.8,0.2-2.7C164.9,250.4,164.9,250.2,164.9,250L164.9,250z M73.1,263.9
			c-0.2-0.6-0.4-1.3-0.6-2c-1.3-4.6-2.1-8.6-2.6-12.2c1.7,1.7,3.8,3.2,6.2,4.3C75.3,257.1,74.3,260.5,73.1,263.9L73.1,263.9z"/>
	</g>
	<path class="st1" d="M167.9,393.3c-0.4-2.3-0.8-4.6-1.3-6.9c-0.6-2.6-1.3-5.1-1.8-7.7c-0.7-3.3-1.2-6.7-1.8-10
		c1.2,2.5,1.9,5.2,2.5,8c0.7,3.5,1.2,6.9,1.7,10.4c0.2,1.6,0.5,3.1,0.7,4.7C167.9,392.3,167.8,392.8,167.9,393.3z"/>
	<path class="st2" d="M15.5,44.3c1.5-1.5,3-3,4.5-4.4c-0.1-0.1-0.1-0.1-0.2-0.2c-1.5,1.5-3,3-4.5,4.5C15.3,44.1,15.4,44.2,15.5,44.3
		z"/>
	<path class="st3" d="M106.1,96.2c3.1,5,6.7,9.5,12.3,12c0.9,0.4,1.9,0.7,2.8,0.9c0.4,0.1,0.5,0.2,0.5,0.6
		c-0.1,4.4,0.3,8.8,0.8,13.3c-1.9-0.7-3.6-1.6-5.2-2.6c-7.4-4.1-13.8-9.4-18.5-16.6c-3.8-5.8-5.7-12.1-6.1-19
		c-0.3-5.4,0.4-10.7,2-15.9c0.3-0.9,0.3-1.7-0.5-2.3c-0.9-0.8-2.2-0.3-2.7,1c-0.6,1.5-1,3.1-1.3,4.6c-1.1,5.2-1.3,10.4-0.8,15.6
		c0.1,1.3,0.4,2.6,0.7,3.9c0.2,0.7,0,0.9-0.7,1.1c-5.7,1.9-10.8,4.8-15.3,8.8c-1.2,1.1-2.4,2.3-3.4,3.6c-0.4,0.5-0.8,0.7-1.5,0.5
		c-3.8-1.1-7.4-2.5-10.9-4.5c-0.2-0.1-0.3-0.2-0.7-0.4c1.5,2.7,3.4,4.7,5.5,6.5c1.1,0.9,2.3,1.8,3.5,2.5c0.5,0.3,0.6,0.5,0.3,1
		c-3.7,6.9-4.9,14.3-4.7,22c0.1,5.3,0.8,10.5,1.4,15.7c0.5,5,1,10-0.2,15c-0.9,3.9-3.1,7.2-5.6,10.2c-5.3,6.4-12.2,10.3-20.4,11.9
		c-0.1,0-0.3,0-0.6,0.1c0.9-1,1.6-1.9,2.4-2.8c3-3.6,5.4-7.6,6.7-12.1c1.3-4.5,0.5-8.9-1.1-13.2c-2.8-7.4-7.2-13.8-12.4-19.8
		c-4.6-5.3-9.3-10.3-13.4-16c-6.3-8.7-10-18.4-11.9-28.9c-0.6-3.4-0.9-6.7-0.9-10.1c-0.1-6.4,1.3-12.4,3.8-18.3
		c3.1-7.3,7.1-13.9,12.9-19.4c6.8-6.5,14.9-10.3,24.2-11.8c3.8-0.6,7.7-0.8,11.6-0.4c1,0.1,1.8-0.1,2.2-1.1c0.4-0.9,0-1.6-1-2.3
		c-3.5-2.6-6.6-5.6-8.5-9.6c-1.6-3.4-2-7-1.9-10.7c0-0.2,0-0.3,0.3-0.5c1.4,1.3,2.8,2.6,4.4,3.6c7.3,4.8,15.2,7.6,24.1,7.1
		c4.3-0.3,8.5-1.2,12.7-2.1c5.5-1.2,11.1-2.2,16.7-2.6c8.4-0.7,16.8-0.1,25,1.7c7.5,1.7,14.2,4.9,19.5,10.7
		c4.8,5.4,7.6,11.7,7.7,18.9c0.1,5.7-1.9,11-5.4,15.5c-2.9,3.7-6.5,6.5-10.2,9.3c-4.2,3.2-8.5,6.5-12.1,10.4
		c-5.2,5.7-8.5,12.2-9.6,19.8c-0.1,0.9-0.4,1.1-1.4,1c-5.5-0.9-10.3-3.3-14.8-6.5C106.1,95.8,106.1,96,106.1,96.2z"/>
	<path class="st4" d="M64.8,285.2c-2.3,3.1-3.7,6.6-4.1,10.5c0,0.4-0.2,0.5-0.5,0.7c-0.8,0.5-1,1.3-0.8,2.2c1,3.7,1.3,7.5,1,11.3
		c-0.3,4.2-1.8,7.9-4.4,11.2c-1.2,1.5-2.6,2.9-4.3,3.9c-3.2,1.9-6.3,2-9.6,0.2c-4.7-2.5-6.5-6.6-6.3-11c0.1-3.6,1.2-7,2.6-10.3
		c1.7-4.1,4.2-7.7,7.3-10.9c0.6-0.6,0.7-1.8,0.1-2.4c-0.7-0.7-1.8-0.8-2.6,0c-1.8,1.6-3.3,3.4-4.6,5.5c-0.1,0.2-0.2,0.5-0.5,0.4
		c-0.3-0.1-0.2-0.4-0.2-0.6c-0.4-6.4-0.6-12.9-0.4-19.3c0.1-3.4,0.3-6.8,0.7-10.2c0.3-2.5,0.5-4.9,0.8-7.4c0.4-3.1,1-6.3,1.7-9.3
		c0.8-3.4,1.7-6.7,2.8-9.9c2.3-7,5.7-13.3,10.4-18.9c2.5-3,5.1-6,8-8.7c3.6-3.4,7.2-6.8,11-9.9c5.1-4.2,10.3-8.2,15.6-12.1
		c0.4-0.3,0.6-0.1,0.9,0c1.6,0.6,3.1,1.3,4.7,1.7c1.2,0.3,2.1-0.1,2.4-1.2c0.3-0.9-0.2-1.7-1.4-2.1c-3.8-1.3-7.5-2.9-11-5
		c-1.8-1.2-3.5-2.5-4.7-4.3c-1.6-2.3-1-4.6,1.4-6c2.7-1.6,5.8-2.3,8.8-2.7c3.6-0.6,7.2-0.8,10.9-0.9c2-0.1,4-0.2,5.9-0.1
		c4.3,0.1,8.6,0.3,12.9,0.6c5.3,0.5,10.6,1,15.8,1.8c5.6,0.8,11.2,1.8,16.8,2.9c0.1,0,0.3,0,0.4,0c0.4,0.5,0.4,1.1,0.5,1.7
		c0.3,3.3,0.4,6.6-0.2,9.9c-0.1,0.4-0.2,0.9-0.5,1.2c-3.7,0.5-7.3,1.1-10.9,2.1c-0.4,0.1-0.7,0.2-1.1,0.3c-0.9,0.4-1.3,1.2-1,2.1
		c0.3,0.9,1.1,1.4,2.1,1.2c1.7-0.3,3.3-0.8,5-1.1c2.7-0.5,5.5-1,8.3-1.2c1.5-0.1,3-0.1,4.5-0.2c0.7,0,1,0.2,1.2,0.9
		c1.2,4.1,2.4,8.2,2.7,12.6c0.3,4.2,0,8.2-2,11.9c-1.7,3.2-4.2,5.7-7.1,7.8c-2.1,1.5-4.3,2.8-6.7,3.8c-0.9,0.4-1.3,1.1-1.2,2
		c0.1,0.8,1,1.4,2,1.5c3,0.4,6,0.1,9-0.1c2.4-0.1,4.8-0.3,7.1-0.7c0.3-0.1,0.5,0,0.8,0c0.1,0.6-0.3,0.8-0.7,1.1
		c-3.4,2.6-6,5.8-8.5,9.2c-0.3,0.4-0.6,0.8-0.9,1.1c-0.2,0.2-0.4,0.3-0.6,0.1c-1.4-1.4-2.8-2.9-4.4-4.2c-1.1-1-2.2-2-3.3-3
		c-4.2-3.9-8.5-7.7-13-11.3c-1.4-1.1-2.7-2.4-4.2-3.5c-0.4-0.3-0.5-0.6-0.3-1.1c0.2-0.4,0.2-0.9,0.4-1.4c0.3-0.8,0.1-1.5-0.4-2.2
		c-1.4-1.7-3-3.2-4.7-4.6c-3-2.6-6.2-4.9-9.6-7c-1.6-0.9-3.2-1.8-4.8-2.8c-1.6-0.9-2.4-0.5-3.5,0.9c-0.9,1.2-0.9,1.2-2.1,0.4
		c-3.9-2.5-7.9-5-12-7.3c-0.1-0.1-0.2-0.1-0.3-0.2c-2.2-1.3-3.2-1.2-5.1,0.5c-2.1,1.8-3.5,4-4.6,6.4c-0.7,1.4-0.4,2.3,1,3.1
		c0.6,0.4,1,0.5,0.1,1.2c-5.2,3.8-9,8.8-12.2,14.3c-2.1,3.5-3.5,7.3-4.3,11.3c-0.3,1.4-1.2,2.4-1.8,3.7c-1,2.2-1.7,4.4-2.3,6.8
		c-0.9,3.6-1.3,7.3-1.1,11.1c0.2,3.3,0.3,6.7,0.5,10c0.3,4.8,0.8,9.5,1.3,14.3c0.2,2.2,0.6,4.4,0.9,6.6
		C65,284.3,65,284.8,64.8,285.2z"/>
	<path class="st5" d="M170.5,435.3c0.2,3.3,0.5,6.7,0.7,10.1c0.1,1.1,0.1,2.2,0.3,3.3c0.1,0.5-0.1,0.7-0.6,0.8
		c-7.7,1.4-15.5,2.9-23.3,3.9c-3.7,0.5-7.5,0.9-11.2,1.5c-0.8,0.1-1.1-0.1-1.3-0.8c-4.3-12.1-8.6-24.3-12.6-36.5
		c-4.6-14.1-8.8-28.3-12.9-42.5c-1.5-5.2-3.1-10.4-4.5-15.6c-1.2-4.6-2.3-9.3-3.4-14c-0.1-0.4-0.1-0.5,0.4-0.6
		c1.6-0.1,3.2-0.3,4.8-0.4c3.5-0.3,7-0.6,10.5-0.8c2.9-0.2,5.8-0.5,8.6-0.9c7-1,14-2.3,20.6-5c0.9-0.3,1.7-0.6,2.6-1
		c0.6-0.3,0.8-0.1,1.1,0.5c1.9,4.9,3.6,9.9,4.9,15.1c1.7,6.2,3.2,12.4,4.6,18.7c0.9,4,1.6,8.1,2.3,12.2c0.5,2.8,1,5.6,1.5,8.4
		c0.6,3.5,1.1,7,1.8,10.4c0.6,3,1.2,5.9,1.8,8.9c0.7,3.6,1.3,7.3,1.8,11c0.5,3.8,1.1,7.6,1.6,11.4
		C170.6,434,170.5,434.6,170.5,435.3z"/>
	<path class="st6" d="M110.7,120.6c2.7,1.8,5.3,3.4,8.2,4.7c1.6,0.7,3.2,1.5,4.8,2.1c2,0.8,3.3-0.3,2.9-2.4
		c-0.8-4.7-1.2-9.5-1.2-14.3c0-0.7,0.2-1,0.9-0.9c0.7,0,1.5,0,2.3-0.2c0.7-0.1,0.9,0.1,0.9,0.8c0.7,7.2,2.3,14.3,5.4,20.9
		c1.8,3.7,4.1,6.9,7.5,9.4c6.9,5,18.3,3.1,23.6-4.6c2.6-3.7,4-7.9,4.8-12.2c1.2-6.5,1.1-13,0.6-19.5c-0.3-4.2-1-8.4-1.8-12.6
		c-0.1-0.5-0.2-0.7-0.8-0.6c-9.5,2.1-18.7,5-27.9,8.1c-4.3,1.5-8.8,2.6-13.3,3.2c-0.4,0.1-0.9,0.1-1.4,0.1c0.5-3.5,1.4-6.9,3-10
		c2.7-5.5,6.7-9.9,11.4-13.7c3.8-3.2,7.9-6,11.7-9.2c4.7-4.1,8.5-8.9,10.2-15c0.2-0.9,0.7-0.5,1.1-0.3c4.8,2.2,8.8,5.4,12.2,9.4
		c5.8,6.6,9.5,14.2,12.2,22.5c2.8,8.8,4,17.8,3.5,27c-0.6,10.2-3,20-7.4,29.3c-0.2,0.5-0.4,0.7-1,0.7c-8.9-0.1-20.6,4.2-24.2,17.5
		c-0.9,3.4-1.6,6.8-1.7,10.3c0,0.8-0.3,0.8-0.9,0.7c-11.4-2.5-23-4.3-34.7-5.3c-7.1-0.6-14.3-0.8-21.5-0.6c-2.8,0.1-5.5,0.3-8.3,0.6
		c-0.6,0.1-0.9,0-1.2-0.5c-5.8-9.2-9.9-19-11.6-29.7c-0.8-5.2-0.9-10.5-0.5-15.8c0.1-1.8,0.3-3.6,0.4-5.4c0-0.6,0.3-0.8,0.8-0.6
		c0,0,0.1,0,0.1,0c0.7,0.3,1.7-0.1,2.1,0.5c0.3,0.5,0.1,1.4,0.1,2.1c-0.1,5.4,0.3,10.8,1.9,16c1,3.1,2.4,6,4.8,8.4
		c4.2,4.1,12.7,4.9,17.2-1.6c2.3-3.3,3.4-7,4.1-10.9c0.5-2.4,0.8-4.8,0.9-7.2C110.5,121.3,110.6,121,110.7,120.6z"/>
	<path class="st4" d="M206.6,188.1c-1.2-1.6-2.1-3.4-3.2-5c-0.7-1.1-1.4-2.1-2.3-3.1c-0.9-1-1-2.4-1.4-3.6c-0.1-0.3,0.2-0.5,0.4-0.6
		c1.2-1.1,2.4-2.1,3.6-3.2c2.8-2.8,5.6-5.5,8.3-8.4c3.3-3.7,6.3-7.5,8.7-11.9c3.2-6,3-12-0.5-17.8c-0.4-0.6-0.7-1.3-1.3-1.9
		c-0.3-0.3-0.3-0.5,0-0.8c3.2-2.9,4.1-6.8,4.9-10.8c0.3-1.6,0.6-3.2,0.6-4.8c0-0.7,0.4-0.9,0.9-1.1c2.5-1.1,4.9-2.4,6.6-4.7
		c2.2-3.1,2.5-6.3,0.8-9.6c-1.2-2.5-2.9-4.6-4.6-6.6c-3.6-4.4-6-9.3-6.9-14.9c-0.2-1.1-0.9-2-1.8-2c-0.9-0.1-1.5,0.5-1.9,1.6
		c-0.4,0.7-0.3,1.4-0.4,2.1c-1,5.8-0.6,11.4,2,16.7c0.7,1.4,1.2,2.8,1.5,4.3c0.9,4-0.9,7.1-3.7,9.8c-1.1,1.1-2.4,2-3.9,2.3
		c-3.7,0.5-7.4,0.4-11.2,0.4c-2.1,0-4.2,0-6.3-0.2c-0.5-0.1-0.7-0.2-0.7-0.8c-0.1-1,0.2-1.9,0.2-2.9c0.1-6.9-0.6-13.8-2.3-20.5
		c-1.4-5.6-3.4-11-5.9-16.2c-2.2-4.4-4.8-8.5-8-12.2c-3.3-3.9-7-7.1-11.5-9.5c-0.8-0.4-1.7-0.9-2.6-1.3c-1.5-0.6-1.6-0.7-1.3-2.3
		c0.4-2.3,0-4.6-0.3-6.9c-0.3-2.2-1-4.3-1.8-6.4c-0.2-0.6-0.2-0.8,0.6-0.9c5.5-0.7,11-1,16.6-0.8c4.1,0.2,8.1,0.5,12.2,1.1
		c5.8,0.9,11.4,2.3,17,4.2c8.4,2.9,16.5,6.5,23.9,11.4c2,1.3,3.9,2.6,5.5,4.3c1.2,1.2,1.2,1.6-0.1,2.7c-1.3,1.1-2.9,1.6-4.4,2.1
		c-1.7,0.6-3.4,1-5.1,1.4c-0.5,0.1-0.8,0-1.2-0.4c-1.2-1.2-2.4-2.4-3.6-3.5c-1-0.9-2-1-2.7-0.3c-0.9,0.9-0.8,2,0.1,2.9
		c2.9,2.5,5.4,5.2,7.8,8.1c3.3,3.9,6.2,8.1,8.7,12.5c0.3,0.5,0.6,1,0.8,1.5c0.5,1,0.5,2.1,0.5,3.2c0.2,7.2,0.6,14.3,0.4,21.5
		c-0.2,5.2-0.2,10.4-0.5,15.6c-0.3,4.3-0.5,8.6-0.9,12.9c-0.6,5.8-1.3,11.5-2.3,17.2c-1.1,5.9-2.5,11.8-4.4,17.5
		c-2,6.1-4.6,11.9-8.1,17.3c-1,1.5-2.3,2.9-3.5,4.3c-0.6,0.7-1.3,0.9-2.2,0.8c-3.1-0.2-5.8-1.3-8.4-2.9
		C207.3,188.8,206.9,188.6,206.6,188.1z"/>
	<path class="st5" d="M44.3,391.8c-0.1-4.6,0.2-11.8,0.6-19.1c0.3-5.7,0.7-11.3,1.2-17c0.2-2.5,0.8-5,1.1-7.6
		c0.4-3.3,0.9-6.6,1.5-9.9c0.4-2.5,0.4-2.6,2.7-1.7c8.3,3,16.9,4.9,25.5,6.9c3.5,0.8,7.1,1.3,10.7,1.6c2.1,0.2,4.2,0,6.2,0.3
		c0.5,0.1,0.7,0.2,0.4,0.7c-2.5,5.8-3.3,12-4.7,18.1c-1.1,4.7-1.7,9.6-2.5,14.4c-1,6.5-2.1,13-3,19.6c-1.3,8.5-2.4,17.1-3.2,25.7
		c-0.6,5.9-1.2,11.7-1.8,17.6c-0.4,4.7-0.8,9.4-1.2,14.1c-0.1,1.3-0.1,1.3-1.4,1c-9.7-2.7-19.2-5.9-28.6-9.7c-0.7-0.3-1-0.7-1-1.4
		c-0.8-9-1.4-18-1.9-27C44.6,410.5,44.3,402.5,44.3,391.8z"/>
	<path class="st4" d="M134.3,288.1c-3.5-0.7-7-1.4-10.5-2c-3.7-0.6-7.4-1.4-11.2-1.8c-1.4-0.2-2.8-0.4-4.2-0.6
		c-0.5-0.1-0.5-0.3-0.6-0.7c-0.2-1.6-0.6-1.9-2.1-2.3c-4.1-0.9-8.2-1.4-12.4-1.7c-3.1-0.2-6.2-0.1-9.3-0.2c-1.5,0-2.3,0.5-2.5,2.1
		c-0.1,0.9-0.5,1-1.3,1c-2.5,0-4.9,0-7.4,0c-0.3,0-0.8,0.2-0.9-0.2c-0.1-0.3,0.2-0.6,0.4-0.9c1.6-2.6,3-5.2,4.3-7.9
		c1.8-3.8,3.3-7.7,4.5-11.7c0.7-2.5,1.5-4.9,2.1-7.5c0.1-0.5,0.4-0.7,0.9-0.6c0.7,0.1,1.4,0.2,2.1,0.4c0.9,0.2,1.7,0,2.2-0.7
		c0.8-1,0.3-2.5-1.1-2.8c-2-0.4-4.1-0.6-6.1-1.3c-4-1.5-7.3-3.8-9.1-7.9c-1.3-3-1.4-6.1-0.9-9.2c1.1-5.9,4.1-11,7.6-15.7
		c2.4-3.3,5.2-6.2,8.7-8.3c0.6-0.4,1-0.5,1.7,0c3.6,2.2,7.2,4.6,10.8,7c0.6,0.4,0.9,0.7,0.6,1.5c-1.4,3.4,0.6,5.8,2.6,8.2
		c4.2,5,9.8,7.7,15.8,10c1.5,0.6,2.3,0.3,3.4-1.2c0.8-1,0.8-1,1.8-0.1c3.2,2.9,6.5,5.8,9.6,8.7c2.9,2.7,5.6,5.5,8.4,8.3
		c1.5,1.5,2.9,3.2,4.3,4.8c0.3,0.5,0,0.9-0.2,1.2c-2.5,5.7-4.8,11.4-6.7,17.3c-1.5,4.6-2.7,9.2-3.9,13.8
		C135.3,287.7,135.2,288.4,134.3,288.1z"/>
	<path class="st4" d="M141.8,336.2c-2.4,0.7-4.7,1.6-7.2,2.1c-3,0.5-5.9,1.1-8.8,1.6c-1.3,0.2-2.6,0.2-3.9,0.4
		c-0.5,0.1-0.4-0.2-0.5-0.5c-0.3-1-1-1.2-1.8-1c-3.4,0.7-6.8,1.5-10.3,2.1c-2.5,0.4-5.1,0.1-7.6,0.1c-0.5,0-0.9-0.3-1.2-0.7
		c-0.5-0.7-1.2-0.6-1.5,0.2c-0.2,0.6-0.4,0.4-0.9,0.5c-2.2,0.1-4.4-0.4-6.7-0.3c-1.9,0.1-3.9-0.3-5.8-0.4c-1.7-0.1-3.3-0.4-5-0.6
		c-3.9-0.3-7.7-1-11.5-1.7c-7.2-1.3-13.9-3.8-20.8-6.2c-1.7-1.7-4.4-1-6.3-2.6c1.1-0.1,2.1,0.3,3.2,0.5c2.2,0.3,4.2,0,6.2-0.6
		c3.5-1.1,5.9-3.7,8-6.5c0.8-1.1,1.7-2,2.4-3.2c1.1-1.9,1.1-4,1.6-6.1c0.7-3.3,0.8-6.6,0.3-9.9c-0.1-0.9-0.2-1.9-0.4-2.8
		c-0.1-0.5,0.2-0.7,0.6-0.7c2.2,0,4.4-0.3,6.5-0.4c3-0.1,6-0.1,9-0.4c0.5-0.1,0.8,0,0.9,0.7c0.1,1.6,1,2.5,2.6,2.7
		c3.3,0.6,6.6,1.2,9.9,1.4c1.8,0.1,3.6,0.2,5.4,0.1c2.2-0.1,4.4-0.2,6.6-0.4c1-0.1,1.8-0.9,1.9-1.8c0-0.1,0-0.2,0-0.3
		c0.1-1.4,0.1-1.4,1.4-1.3c2.4,0.2,4.7,0.6,7.1,0.8c2.6,0.2,5.3,0.7,7.9,1c3.1,0.4,6.1,0.9,9.2,1.4c0.2,0,0.3,0,0.5,0
		c0.2,0.2,0.3,0.5,0.3,0.9c-0.2,6,1.5,11.6,3.3,17.2c1.5,4.7,3.1,9.4,5,13.9C141.8,335.4,142,335.8,141.8,336.2z"/>
	<path class="st7" d="M128.4,475.3c0.4,0.1,0.5,0.2,0.7,0.2c1.4,0.2,1.9,1,2,2.4c0,1.3,0.7,2,1.8,2c1.2,0.1,2-0.9,1.9-2.3
		c-0.2-2-0.7-4-1.1-6c-0.9-4-2.3-7.8-4-11.5c-0.3-0.7-0.1-0.9,0.6-1c7.3-0.7,14.5-1.6,21.8-2.7c7.4-1.1,14.8-2.5,22.2-4
		c3.7-0.8,7.4-1.5,11-2.3c0.1,0,0.3,0,0.5,0c-0.9,1.9-1.9,3.6-2.9,5.4c-2.5,4.4-5.5,8.5-8.7,12.3c-0.4,0.5-0.9,0.8-1.5,1.1
		c-2.6,1.2-5,2.7-7.2,4.4c-0.6,0.5-1.2,0.9-1.3,1.9c-0.1,1.5,0.9,2.4,2.3,1.9c0.4-0.1,0.7-0.4,1.1-0.6c4.1-3.3,8.7-5.7,13.9-6.4
		c5.6-0.7,10.7,0.5,15.1,4.2c2,1.7,2.7,4.3,3.1,6.8c1,5.5,0.5,11-1.1,16.3c-0.2,0.6-0.5,0.9-1.1,1c-7.2,1.8-14.5,3.1-21.9,3.7
		c-6.2,0.5-12.3,0.5-18.5,0.2c-7.1-0.3-14.2-1-21.2-2c-0.9-0.1-1.3-0.4-1.4-1.4c-0.4-4.1-1.1-8.1-2.2-12
		C131,483.1,129.8,479.3,128.4,475.3z"/>
	<path class="st7" d="M32.3,444.3c2.8,1.2,5.4,2.3,8,3.4c13,5.4,26.2,10.1,39.8,13.6c1.5,0.4,3,0.8,4.6,1.2c0.7,0.1,0.8,0.4,0.7,1.1
		c-1,5.9-3.2,11.3-6.1,16.4c-0.3,0.5-0.6,0.9-0.8,1.4c-0.5,1-0.2,2,0.6,2.5c0.9,0.5,1.9,0.2,2.5-0.7c0.5-0.8,1-1.6,1.4-2.5
		c0.3-0.6,0.7-0.8,1.2-0.9c1.2-0.2,2.3-0.5,3.7-0.7c-0.9,1.6-1.8,3.1-2.5,4.5c-2.2,4.1-4.3,8.2-5,12.9c-0.2,1.5-1,2.1-2.3,2.4
		c-6,1.8-12.1,2.9-18.3,3.7c-5.1,0.6-10.1,1-15.2,1.1c-8.5,0.1-16.8-0.9-24.8-3.8c-1-0.4-1.9-0.8-2.8-1.2c-0.7-0.3-0.9-0.7-1-1.4
		c-1.2-10.1,4.9-19,14.7-21.5c4.4-1.1,8.7-0.3,12.8,1.4c0.2,0.1,0.4,0.2,0.6,0.3c0.8,0.4,1.7,0.4,2.4-0.3c0.7-0.7,0.7-1.4,0.4-2.3
		c-1-3.1-2.2-6.1-3.4-9c-3-6.9-6.5-13.5-10.3-20C33,445.5,32.7,445,32.3,444.3z"/>
	<path class="st8" d="M171.8,255c0.2-2.7,0.5-5.4,0.6-8.2c0.1-1.9-0.1-3.7-0.3-5.6c-0.1-1.9-0.4-3.7-0.9-5.5
		c-0.1-0.3,0.1-0.6,0.3-0.8c2.1-2.6,3.8-5.4,5.7-8.1c0.9-1.4,2.6-1.5,4-1.9c1.4-0.5,2.7-1,3.9-1.7c1.4-0.8,1.6-0.7,2.1,0.8
		c0.8,2.5,1.4,5.1,2,7.7c1.1,4.6,1.9,9.3,2.5,14c0.3,2.1,0.3,4.3,0.5,6.4c0.2,2.8,0.1,5.7,0.2,8.5c0.1,2-0.3,3.9-0.4,5.8
		c-0.1,3.5-1,6.9-1.9,10.2c-1.8,6.7-4.4,13-7.8,19c-1.7,3-3.5,6-5.6,8.8c-1.1,1.5-2.3,2.9-3.7,4.3c-0.6,0.6-0.8,0.5-1-0.3
		c-1-4.1-3.3-7.5-6.1-10.5c-1.3-1.4-2.9-2.4-4.5-3.4c-1.1-0.7-1.9-0.6-2.6,0.4c-0.5,0.7-0.2,2,0.6,2.6c1.3,1,2.8,1.7,3.9,3
		c2.4,2.6,4.2,5.5,5.3,9c0.6,2,0.7,3.9,1.1,5.9c0.1,0.5-0.2,1.1-0.3,1.7c-0.3,1.4-0.5,2.9-0.8,4.3c-0.4,2.1-1.6,3.8-2.9,5.5
		c-2.7,3.4-6.2,5-10.3,5.7c-1.2,0.2-2.6-0.1-3.7-0.5c-2.4-0.8-4.6-2.2-6.1-4.4c-1.4-2.2-2.2-4.6-2.7-7.1c-0.1-0.7-0.6-1.3-0.4-2
		c-0.3-0.4,0.1-0.9-0.2-1.2l0,0c0-1.2,0.1-2.4,0.1-3.6c0.1-2.3,0.4-4.6,0.7-6.9c0.8-3.4,2.3-6.5,4.5-9.3c1-1.2,2-2.4,3.4-3.2
		c0.8-0.5,1.1-1.2,0.7-2.1c-0.1-0.6,0.3-0.8,0.7-1c9-7.2,14.8-16.3,17.8-27.4C170.9,260.7,171.4,257.9,171.8,255z"/>
	<path class="st3" d="M155.2,227.6c0.9-0.6,1.6-1.2,2.2-1.7c4.2-3.4,7.5-7.4,8.8-12.8c1-4.2,1-8.5,0.3-12.7
		c-0.8-5.4-2.7-10.5-4.2-15.7c-1.5-5.4-2.4-10.9-1.7-16.5c0.7-5.2,1.9-10.2,5.4-14.3c3-3.6,7-5.5,11.5-6.6c1.3-0.3,2.7-0.4,4.1-0.6
		c0.9-0.1,1.7,0.4,1.9,1.4c0.4,1.8,0.5,3.7,1,5.6c0.7,3.1,2,5.9,3.8,8.5c4.7,7,8.2,14.6,10.2,22.8c1.1,4.5,1.7,9.1,1.2,13.7
		c-0.8,7-4,12.7-9.2,17.4c-5.4,4.8-11.8,7.6-18.8,9.3c-4.4,1.1-8.8,1.8-13.4,2.1C157.4,227.5,156.4,227.7,155.2,227.6z"/>
	<path class="st9" d="M206.6,188.1c1.7,0.9,3.3,1.9,5.1,2.7c1.6,0.7,3.4,0.7,5.1,1c0.6,0.1,1-0.3,1.3-0.7c2.9-3.2,5.2-6.9,7.2-10.8
		c1.7-3.4,3.1-6.9,4.3-10.5c1.4-4,2.4-8,3.4-12.1c1-4.3,1.7-8.7,2.3-13.1c0.5-3.7,0.9-7.4,1.3-11.1c0.3-3.9,0.6-7.7,0.8-11.6
		c0.2-4.2,0.2-8.3,0.4-12.5c0.2-3.8,0.2-7.6,0.1-11.4c-0.1-3,0-6-0.2-9c-0.2-2.4,0.1-4.9-0.4-7.3c1.5,2.4,2.8,5,3.9,7.6
		c1.6,3.7,3.1,7.4,4.3,11.2c1.8,5.6,3.1,11.3,4,17.1c0.5,3.2,0.7,6.4,1,9.6c0.2,2.4,0.3,4.9,0.3,7.3c0,3.5-0.1,7-0.4,10.5
		c-0.3,2.9-0.5,5.8-0.9,8.7c-0.4,3.2-1.1,6.3-1.7,9.4c-1.7,8.3-4.3,16.2-7.6,24c-3.4,8-7.5,15.5-12.8,22.3c-1.9,2.4-3.8,4.9-6.4,6.7
		c-0.6,0.4-0.8,0.4-1.1-0.2c-1.9-3.6-3.4-7.5-5-11.2c-2.3-5.3-4.6-10.6-7.6-15.6C206.8,188.9,206.7,188.5,206.6,188.1z"/>
	<path class="st4" d="M194,164.5c-1.9-3.2-4.3-6.1-5.5-9.8c-0.5-1.7-0.9-3.3-1.1-5.1c-0.1-1.2-0.3-2.4-0.7-3.5
		c-0.2-0.4-0.2-0.8,0-1.3c1.9-4,3.5-8,4.8-12.3c0.2-0.7,0.4-0.8,1.1-0.6c3.3,0.8,6.6,1.5,9.9,1.6c0.9,0.1,1.8,0.2,2.7,0.2
		c0.6,0.2,1.2,0.1,1.8,0.1c0.7,0,0.9,0.3,1,0.9c0,0.1,0,0.2,0,0.3c0.2,3.8,0,7.6-1.8,11.1c-2.7,5.4-6,10.5-9.7,15.4
		c-0.5,0.7-1,1.5-1.6,2.1C194.9,164,194.6,164.6,194,164.5z"/>
	<path class="st9" d="M194,164.5c1.3-0.9,2-2.3,2.9-3.5c3.4-4.6,6.6-9.5,9.2-14.6c1.8-3.6,2-7.4,1.9-11.3c0-0.7-0.4-1.1-1.2-1
		c-0.5,0-1,0.2-1.5-0.2c2.9,0,5.8,0.2,8.7-0.4c0.8-0.2,1.2,0.4,1.6,0.9c2.4,2.9,3.8,6.2,3.7,10c0,2.9-1.3,5.5-2.8,7.9
		c-2.1,3.5-4.6,6.6-7.3,9.6c-1.6,1.8-3.3,3.5-4.9,5.2c-1.8,1.9-3.8,3.6-5.7,5.3c-0.2,0.2-0.5,0.6-0.7-0.1
		C196.8,169.6,195.4,167,194,164.5z"/>
	<path class="st10" d="M103.5,218.6c0.6-2.8,1.4-5.5,2.4-8.1c0.8-2,1.9-3.8,3.1-5.6c0.4-0.5,0.7-0.6,1.2-0.3
		c5.7,3.2,11,6.9,15.5,11.5c0.5,0.5,0.6,1,0.4,1.7c-1.5,4.4-3.6,8.5-6.3,12.3c-0.2,0.3-0.3,0.6-0.9,0.4c-4.3-1.7-8.5-3.7-11.9-7.1
		c-1.3-1.3-2.4-2.7-3.3-4.3C103.6,219,103.4,218.7,103.5,218.6z"/>
	<path class="st10" d="M104.3,290.1c0,3-0.3,6-0.6,9c-0.1,0.6-0.3,0.9-0.9,0.9c-5.3,0.3-10.5,0.3-15.8-0.7c-0.2,0-0.3-0.1-0.5-0.1
		c-2.7-0.4-2.6-0.4-2.8-3.1c-0.2-4.1-0.1-8.2,0.6-12.3c0.2-0.9,0.4-1.3,1.5-1.3c5.9,0,11.8,0.4,17.7,1.5c0.5,0.1,0.8,0.2,0.8,0.9
		C104.3,286.6,104.5,288.4,104.3,290.1z"/>
	<path class="st11" d="M158.4,250.8c-0.3,3-0.8,5.7-3,7.8c-0.5,0.5-0.9,0.5-1.3-0.1c-6.2-7.8-13.2-14.9-20.4-21.6
		c-2.7-2.5-5.5-5-8.3-7.3c-0.5-0.4-0.6-0.7-0.2-1.3c0.9-1.5,1.8-3.1,2.5-4.7c0.3-0.8,0.6-0.6,1.1-0.2c2.6,2.2,5.3,4.4,7.9,6.6
		c7.3,6.3,14.3,12.9,21.1,19.6C158.1,250,158.6,250.4,158.4,250.8z"/>
	<path class="st11" d="M207.8,130.3c-5.2,0-9.8-0.7-14.4-1.8c-0.7-0.2-0.8-0.4-0.6-1c0.7-3,1.3-6.1,1.6-9.2c0.1-0.9,0.8-0.5,1.2-0.5
		c2.9,0.2,5.9,0.4,8.8,0.3c5.2-0.2,10.3-0.4,15.4-1.5c0.7-0.2,0.9-0.1,0.8,0.8c-0.3,2.6-0.9,5.1-1.6,7.6c-1,3.4-3.2,5.1-6.7,5.1
		C210.6,130.1,209,130.4,207.8,130.3z"/>
	<path class="st9" d="M134.3,288.1c0.5,0.1,0.7-0.3,0.8-0.7c0.8-3.5,1.8-7,2.8-10.4c1.5-5.2,3.3-10.4,5.4-15.4
		c1-2.3,1.9-4.5,2.9-6.8c1.9,2,3.6,4.2,5.4,6.3c0.4,0.4,0.3,0.9,0.1,1.3c-1.1,3-2.2,6-2.9,9c-0.9,3.6-1.8,7.2-2.1,11
		c-0.2,2.5-0.6,4.9-0.6,7.4c0,0.7-0.3,0.8-0.9,0.7c-2.5-0.6-5-1.1-7.5-1.7C136.6,288.6,135.5,288.3,134.3,288.1z"/>
	<path class="st11" d="M107.6,294.9c0.3-2.3,0.2-4.6,0.2-6.9c0-0.6,0.2-0.8,0.8-0.7c5.5,0.7,11,1.6,16.4,2.6
		c6.4,1.2,12.7,2.5,19,3.9c0.6,0.1,0.6,0.4,0.3,0.8c-1.3,1.8-2.3,3.7-3.1,5.7c-0.2,0.6-0.7,0.6-1.2,0.5c-2.8-0.5-5.7-1-8.5-1.5
		c-5.1-0.8-10.1-1.6-15.2-2.2c-2.7-0.3-5.3-0.6-8-0.8C107.4,296.2,107.6,295.6,107.6,294.9z"/>
	<path class="st9" d="M212.9,114.1c2.3-1.2,4.3-2.6,5.8-4.8c2.2-3.3,2.1-6.6,0.6-10.1c-1.2-2.7-2.5-5.3-2.8-8.2
		c-0.2-2.1-0.5-4.1-0.2-6.2c0.2-1.5,0.2-3,0.5-4.5c0.1-0.5-0.1-1.1,0.6-1.4c0.6,4.5,2.1,8.7,4.4,12.7c1.8,3.1,4.2,5.6,6.2,8.5
		c0.9,1.4,1.8,2.7,2,4.4c0.2,3.1-1.6,4.9-4,6.2c-3,1.7-6.3,2.3-9.6,2.9C215.2,113.8,214.1,113.9,212.9,114.1z"/>
	<path class="st5" d="M18.2,503.3c3.7,1.4,7.3,2.4,10.9,3c6.9,1.2,13.9,1.4,20.9,1c5.2-0.3,10.3-0.9,15.4-1.7
		c4.5-0.7,8.9-1.6,13.3-3c0.8-0.2,1.2-0.3,1,0.7c0,0.1,0,0.2,0,0.3c0,2.5,0,2.5-2.4,3.1c-7.4,1.9-15,3-22.7,3.4
		c-5.6,0.4-11.3,0.5-16.9,0.1c-4.9-0.3-9.8-0.8-14.5-2.7C21,506.6,19.4,505.2,18.2,503.3z"/>
	<path class="st5" d="M196.2,502.6c-1.4,2.9-3.6,4.3-6.6,4.8c-4.9,0.8-9.8,1.2-14.7,1.5c-9.9,0.5-19.8,0.1-29.7-0.9
		c-3.2-0.3-6.3-0.7-9.5-1c-0.7-0.1-0.9-0.3-0.9-0.9c-0.1-2.1-0.1-2,2-1.8c12.1,1.6,24.3,2.6,36.5,1.8c7.2-0.4,14.3-1.6,21.3-3.1
		C195.1,502.9,195.6,502.8,196.2,502.6z"/>
	<path class="st11" d="M76.2,285.6c1.2,0,2.4,0,3.6,0c0.5,0,0.8,0.1,0.7,0.7c-0.4,2.9-0.5,5.7-0.3,8.6c0,0.5-0.3,0.4-0.6,0.4
		c-3.1,0.1-6.1,0.3-9.2,0.4c-1.7,0.1-3.3,0.2-5,0.3c-1,0.1-1.1,0-0.9-1.1c0.5-3.1,1.8-5.8,3.8-8.3c0.5-0.6,0.9-0.9,1.7-0.9
		C72,285.8,74.1,285.5,76.2,285.6z"/>
	<path class="st9" d="M64.8,285.2c-0.3-2.4-0.6-4.8-0.9-7.2c-0.2-1.5-0.4-3-0.5-4.5c-0.3-2.7-0.5-5.4-0.8-8.1
		c-0.1-1.1-0.1-2.2-0.2-3.4c-0.1-2-0.2-3.9-0.3-5.9c-0.1-2.3-0.2-4.6-0.1-6.8c0.1-2.5,0.5-5.1,1.4-7.5c-0.1,1.2-0.4,2.4-0.4,3.5
		c-0.1,3.3,0.5,6.6,1.1,9.8c0.7,3.9,1.7,7.6,2.8,11.4c0.9,3,1.8,6.1,3,9c0.4,0.9,0.4,1.7-0.3,2.6c-0.8,1.1-1.4,2.4-2,3.6
		C66.9,283,65.7,284,64.8,285.2z"/>
	<path class="st9" d="M141.8,336.2c-1.8-4.3-3.4-8.7-4.8-13.2c-1.1-3.5-2.3-7.1-3.1-10.7c-0.3-1.4-0.5-2.9-0.6-4.3
		c-0.1-1.6-0.2-3.3-0.2-4.9c1.8,0.3,3.7,0.7,5.5,1c0.9,0.1,1.2,0.4,0.8,1.2c-1,2.8-1.2,5.7-1.2,8.6c0,1.3,0.3,2.6,0.5,3.8
		c0.5,2.6,1.2,5.2,1.6,7.9c0.2,1.3,0.9,2.5,1.7,3.6c1.3,1.9,2.7,3.7,5.1,4.8C145.3,334.9,143.6,335.7,141.8,336.2z"/>
	<path class="st6" d="M96.7,107.1c-5.5-0.6-10.7,0.3-16,0.2c-0.8,0-1.2-0.1-0.9-1c0.3-1,0.6-2,0.6-3c0.1-1.9,1.2-2.8,2.7-3.6
		c2.4-1.3,4.8-2.4,7.4-3.3c0.6-0.2,0.9-0.2,1.1,0.5C92.7,100.5,94.5,103.8,96.7,107.1z"/>
	<path class="st12" d="M171.8,255c0,3.4-0.8,6.6-1.7,9.8c-1.6,5.3-3.7,10.3-6.8,14.8c-2.5,3.6-5.3,6.8-8.5,9.8
		c-1,0.9-2.2,1.5-3.1,2.6c-0.4-0.4-0.8-0.7-1.3-0.6c-0.7,0.2-0.9-0.3-0.9-0.8c0-1.2-0.2-2.3-0.4-3.4c-0.1-0.4,0.2-0.5,0.5-0.7
		c4.6-2.6,8.3-6.1,11.8-10c2.2-2.4,4.1-5,6-7.5c1.8-2.4,2.6-5.3,3.2-8.2C171,258.8,171.2,256.9,171.8,255z"/>
	<path class="st11" d="M90.4,197.4c0.2,0.1,0.4,0.2,0.6,0.3c4.2,2.5,8.4,5,12.5,7.7c0.5,0.3,0.6,0.6,0.3,1.2
		c-0.8,1.4-1.4,2.8-1.9,4.3c-0.2,0.6-0.4,0.8-1,0.4c-4.5-3.1-9.2-6-13.8-8.9c-0.3-0.2-0.7-0.3-0.4-0.9c0.8-1.5,1.8-2.8,3.2-3.9
		C90.1,197.6,90.3,197.5,90.4,197.4z"/>
	<path class="st9" d="M154.7,241.8c0.6-0.2,0.9-0.7,1.2-1.2c2-2.8,4.2-5.4,6.6-7.8c0.9-0.9,2.1-1.5,2.9-2.6c2-0.4,4-0.8,6.1-1.2
		c-0.3,0.8-0.9,1.4-1.4,2.1c-0.2,0.4-0.5,0-0.7-0.1c-0.7-0.4-1.4-0.6-2.1,0c-0.7,0.6-0.9,1.4-0.5,2.2c0.6,1.3,0.1,2.1-0.6,3.1
		c-2.3,3-4.4,6.1-6.3,9.3c-0.3,0.6-0.5,0.5-1,0.1C157.5,244.5,156.1,243.2,154.7,241.8z"/>
	<path class="st9" d="M152.7,187.3c0.3-2.4,0.7-4.8,0.6-7.2c-0.1-1.9-0.3-3.7-0.4-5.6c1.1,0.3,2.2,0.6,3.4,0.8
		c0.7,0.1,0.9,0.5,0.9,1c0.3,3.3,1.1,6.5,2,9.7c0.2,0.7,0.1,0.9-0.7,0.9C156.5,187,154.6,187.2,152.7,187.3z"/>
	<path class="st13" d="M143,306.6c-0.2,3.5-0.3,7-0.8,10.5c-0.2-1.3-0.3-2.5-0.2-3.8c0.2-2.1,0.4-4.3,0.8-6.4
		C142.8,306.8,142.9,306.7,143,306.6z"/>
	<path class="st14" d="M106.1,96.2c-0.2-0.2-0.5-0.4-0.2-0.6c0.2-0.1,0.4,0.1,0.5,0.3C106.3,96,106.2,96.1,106.1,96.2z"/>
	<path class="st13" d="M142.2,317.1c0.4,0.4,0.1,0.8,0.2,1.2C142,318,142.2,317.5,142.2,317.1z"/>
	<path d="M40.9,79.1c1.2-0.7,2.3-1.3,3.4-2c4.7-2.7,9.6-5,14.8-6.6c0.9-0.3,1.8-0.4,2.5,0.4c0.7,0.8,0.4,1.6,0.1,2.4
		c-1.2,3.1-2,6.2-2.2,9.6c0.5,0.1,0.6-0.3,0.9-0.5c3-2.8,6.3-5.1,9.9-7.1c0.2-0.1,0.4-0.2,0.6-0.3c1-0.5,2-0.2,2.4,0.6
		c0.5,0.8,0.2,1.9-0.8,2.4c-5.1,2.7-9.6,6.4-13.6,10.6c-0.6,0.6-1.3,1-2.1,0.6c-0.9-0.4-1.1-1.2-1.1-2.1c0.1-3.9,0.5-7.8,1.6-11.6
		c0.1-0.2,0.1-0.4,0.2-0.7c-2.4,0.8-4.5,1.7-6.6,2.8c-3.7,1.8-7.3,4-10.8,6.2c-0.5,0.3-1.1,0.7-1.8,0.6c-0.9-0.2-1.5-0.9-1.4-2.1
		c0.2-2.2,0.7-4.3,1.3-6.4c2.8-9,8.1-16.2,16.1-21.3c5.1-3.3,10.8-5.1,16.8-6.1c5.1-0.8,10.3-1,15.5-0.5c0.4,0,0.8,0.1,1.1,0.1
		c1,0.2,1.6,1,1.5,1.9c-0.1,0.9-0.8,1.5-1.8,1.5c-1.1,0-2.2-0.2-3.3-0.2c-9.4-0.4-18.5,0.8-26.8,5.5C48.8,61.6,43.6,69,41,78.4
		C40.9,78.6,41,78.8,40.9,79.1z"/>
	<path d="M129,138.1c0,0.5-0.3,1-0.7,1.4c-2.9,3.1-3.2,6.6-1.9,10.4c0.7,2,2.1,3.4,4.1,4.2c0.2,0.1,0.3,0.1,0.5,0.2
		c1,0.5,1.4,1.3,1.1,2.2c-0.3,0.9-1.3,1.4-2.4,1c-2.7-0.9-4.7-2.7-6.1-5.2c-0.4-0.7-0.7-1.4-0.9-2.2c-0.1-0.7-0.4-0.9-1.2-1
		c-2.6-0.1-4.9,0.6-7,2c-0.2,0.1-0.4,0.3-0.6,0.4c-1.3,0.9-2.4,0.8-3-0.1c-0.6-0.9-0.2-1.9,1-2.8c2.8-1.9,5.9-3.1,9.3-2.9
		c0.6,0,0.8-0.1,0.9-0.8c0.2-2.8,1.2-5.3,3.1-7.4c0.3-0.3,0.7-0.7,1.1-0.9C127.6,135.9,129,136.8,129,138.1z"/>
	<path d="M129.6,257.4c-7-0.2-13.3-2.1-18.5-6.6c-4-3.5-6.5-7.9-7.2-13.3c-0.1-0.9-0.1-1.7,0.6-2.2c0.5-0.4,1-0.6,1.7-0.3
		c0.8,0.4,1.1,1,1.2,1.7c0.8,6.2,4.1,10.7,9.5,13.8c4.7,2.7,9.8,3.5,15.1,3.2c1.1-0.1,2.2-0.4,3.3-0.6c1.2-0.3,2,0.3,2.3,1.3
		c0.2,0.7-0.3,1.6-1.2,2c-1.1,0.5-2.3,0.6-3.5,0.8C131.7,257.4,130.5,257.4,129.6,257.4z"/>
</g>
</svg>
