<svg xmlns="http://www.w3.org/2000/svg" viewBox="0 0 256 256"><title>gibus</title><path d="M103.8,41.67c-1.76-3.82-38.34.12-55,7.46C30.29,57.27,5,87.3,5,87.3l5.23,4.57,93-43.94S104.67,43.57,103.8,41.67Z" style="fill:#1d1618"/><path d="M45.69,146C32.42,128.14,8.72,111.71,5,87.3c18.14,0.35,48.68-19.45,82-36,8.6,4.58,19.07,8.69,25.58,13.87-6.94,13.79-17.89,29.11-29,41.31C71.27,120,59.85,135.82,45.69,146h0Z" style="fill:#35302a"/><path d="M87,51.31a190.59,190.59,0,0,0,16.81-9.64s2.76,5.78,1.72,9.51c-3.34,12-28.36,20.2-28.36,20.2Z" style="fill:#35302a"/><path d="M45.69,146A118.8,118.8,0,0,0,60.4,166.24L134,86.12c-6.9-6.7-14.28-14.32-21.41-20.94C92.4,95.63,71.32,123.86,45.69,146Z" style="fill:#1d1618"/><path d="M35,191.1c26.14,6.17,59.63-32.64,79.77-59.78,16.07-21.65,38.14-50.61,35.91-80.06-1-13.23-32.69,46-53.48,72.44C78.7,147.28,24.38,188.6,35,191.1h0Z" style="fill:#35302a"/><path d="M5,87.3C-1,89,35.34,25.71,57.92,6.82c6.36-5.33,18-9.58,22.47-2.62C97.81,31,5,87.3,5,87.3Z" style="fill:#35302a"/></svg>